<svg xmlns="http://www.w3.org/2000/svg" width="128" height="128" viewBox="0 0 128 128">
  <g id="Grupo_1182508" data-name="Grupo 1182508" transform="translate(-72.746 -7992)">
    <g id="Elipse_13628" data-name="Elipse 13628" transform="translate(72.746 7992)" fill="#fdf3e6" stroke="#ff984a" stroke-width="6">
      <circle cx="64" cy="64" r="64" stroke="none"/>
      <circle cx="64" cy="64" r="61" fill="none"/>
    </g>
    <g id="Grupo_1183339" data-name="Grupo 1183339" transform="translate(97.208 8016.459)">
      <g id="Grupo_1183338" data-name="Grupo 1183338" transform="translate(4.173 4.176)">
        <path id="Trazado_1008936" data-name="Trazado 1008936" d="M195.953,20.231V67.876H151.7V18.23a7.23,7.23,0,0,0-7.209-7.209h42.252A9.237,9.237,0,0,1,195.953,20.231Z" transform="translate(-125.223 -11.021)" fill="#dee2e6" fill-rule="evenodd"/>
        <path id="Trazado_1008937" data-name="Trazado 1008937" d="M194.221,67.876H151.7V18.23a7.23,7.23,0,0,0-7.209-7.209H185.01a9.237,9.237,0,0,1,9.21,9.21Z" transform="translate(-125.223 -11.021)" fill="#eceff1" fill-rule="evenodd"/>
        <path id="Trazado_1008938" data-name="Trazado 1008938" d="M101.76,11.021a7.23,7.23,0,0,0-7.209,7.209v2.156h14.418V18.23A7.23,7.23,0,0,0,101.76,11.021Z" transform="translate(-82.493 -11.021)" fill="#c3cad2" fill-rule="evenodd"/>
        <path id="Trazado_1008939" data-name="Trazado 1008939" d="M101.111,11.227a7.233,7.233,0,0,0-6.56,7.179v2.156H107.67V18.406A7.234,7.234,0,0,0,101.111,11.227Z" transform="translate(-82.493 -11.197)" fill="#d1d6dc" fill-rule="evenodd"/>
        <path id="Trazado_1008940" data-name="Trazado 1008940" d="M160.179,324.03l7.339-2.888v-4.7c-.054-4.589-.419-8.083-2.476-9.638l-5.179,2.956a9.762,9.762,0,0,1-7.239.571,8.289,8.289,0,0,0-6.8.964q-.29.163-.577.342l-6.982,4.353a1.622,1.622,0,0,0-.043,2.74c3.291,2.725,5.917-1.416,9.825-1.439a8.914,8.914,0,0,1,4.6,1.651l6.53,3.77a2.438,2.438,0,0,1,1.009,1.32Z" transform="translate(-119.225 -264.104)" fill="#d9c5bf" fill-rule="evenodd"/>
        <path id="Trazado_1008941" data-name="Trazado 1008941" d="M59.026,318.729a1.622,1.622,0,0,1,.043-2.74l6.982-4.353q.287-.179.577-.342a8.29,8.29,0,0,0-6.8-.964,9.763,9.763,0,0,1-7.239-.571L47.406,306.8c-2.058,1.555-2.422,5.049-2.476,9.638v4.7c4.687,2.416,5.946,3.69,9.981,6.527a71.121,71.121,0,0,0,9.893,5.681l2.233,1.057c2.8,1.617,4.492-1.826,2.3-3.1l1.739,1a2.041,2.041,0,0,0,2.049-3.53h0l1.223.706a2.173,2.173,0,0,0,2.184-3.758l1.279.738a2.17,2.17,0,0,0,3.182-2.443,2.439,2.439,0,0,0-1.009-1.32l-6.53-3.77a8.914,8.914,0,0,0-4.6-1.651c-3.908.023-6.533,4.165-9.825,1.439Z" transform="translate(-40.035 -264.105)" fill="#f0e3df" fill-rule="evenodd"/>
        <path id="Trazado_1008942" data-name="Trazado 1008942" d="M241.619,412.473l-7.08-4.087a1.086,1.086,0,1,0-1.086,1.882l5.2,3a2.179,2.179,0,0,0,2.967-.8Z" transform="translate(-200.879 -350.899)" fill="#e6d6d1" fill-rule="evenodd"/>
        <path id="Trazado_1008943" data-name="Trazado 1008943" d="M211.91,430.082a1.086,1.086,0,1,0-1.086,1.882l5.006,2.89a2.18,2.18,0,0,0,2.965-.8Z" transform="translate(-181.516 -369.464)" fill="#e6d6d1" fill-rule="evenodd"/>
        <path id="Trazado_1008944" data-name="Trazado 1008944" d="M197.416,455.525l-6.564-3.79a.987.987,0,0,0-.987,1.709l4.8,2.771a2.047,2.047,0,0,0,2.752-.689Z" transform="translate(-163.626 -388.003)" fill="#e6d6d1" fill-rule="evenodd"/>
        <path id="Trazado_1008945" data-name="Trazado 1008945" d="M303.818,299.075l5.315,12.972a1.684,1.684,0,0,0,2.192.918l2.488-1.019a1.683,1.683,0,0,0,.918-2.192l-5.315-12.972a1.683,1.683,0,0,0-2.192-.918l-2.488,1.019a1.683,1.683,0,0,0-.918,2.192Z" transform="translate(-261.443 -254.638)" fill="#75808f" fill-rule="evenodd"/>
        <path id="Trazado_1008946" data-name="Trazado 1008946" d="M22.057,299.075l-5.315,12.972a1.684,1.684,0,0,1-2.192.918l-2.488-1.019a1.683,1.683,0,0,1-.918-2.192l5.315-12.972a1.683,1.683,0,0,1,2.192-.918l2.488,1.019a1.684,1.684,0,0,1,.918,2.192Z" transform="translate(-11.02 -254.638)" fill="#6cbfff" fill-rule="evenodd"/>
        <path id="Trazado_1008947" data-name="Trazado 1008947" d="M13.308,312.454l-1.245-.51a1.683,1.683,0,0,1-.918-2.192l5.315-12.972a1.683,1.683,0,0,1,2.192-.918l1.244.51a1.683,1.683,0,0,1,.918,2.192L15.5,311.536a1.684,1.684,0,0,1-2.19.918Z" transform="translate(-11.02 -254.637)" fill="#85caff" fill-rule="evenodd"/>
        <path id="Trazado_1008948" data-name="Trazado 1008948" d="M311.324,315.986l1.245-.51a1.684,1.684,0,0,0,.918-2.192l-5.315-12.972a1.684,1.684,0,0,0-2.192-.918l-1.244.51a1.684,1.684,0,0,0-.918,2.192l5.315,12.972a1.684,1.684,0,0,0,2.19.918Z" transform="translate(-261.444 -257.658)" fill="#838e9c" fill-rule="evenodd"/>
      </g>
      <circle id="Elipse_16100" data-name="Elipse 16100" cx="9.059" cy="9.059" r="9.059" transform="matrix(0.987, -0.161, 0.161, 0.987, 42.381, 10.263)" fill="#fdc72e"/>
      <path id="Trazado_1008949" data-name="Trazado 1008949" d="M293.728,60.515A9.059,9.059,0,1,1,302.5,51.46,9.059,9.059,0,0,1,293.728,60.515Z" transform="translate(-241.235 -33.699)" fill="#ffe259" fill-rule="evenodd"/>
      <circle id="Elipse_16101" data-name="Elipse 16101" cx="7.268" cy="7.268" r="7.268" transform="matrix(0.983, -0.183, 0.183, 0.983, 44.295, 11.956)" fill="#f99500"/>
      <path id="Trazado_1008950" data-name="Trazado 1008950" d="M309.9,54.864a7.267,7.267,0,1,1-6.858,7.256A7.268,7.268,0,0,1,309.9,54.864Z" transform="translate(-256.713 -44.359)" fill="#f9ac00" fill-rule="evenodd"/>
      <path id="Trazado_1008951" data-name="Trazado 1008951" d="M56.388,60.127a.509.509,0,0,1-.285.283L53.618,61.43a.531.531,0,0,1-.689-.287l-5.31-12.972a.521.521,0,0,1,.285-.686l2.485-1.019a.528.528,0,0,1,.4,0,.516.516,0,0,1,.285.285l5.31,12.972a.489.489,0,0,1,0,.4ZM45.663,62.65l4.642-1.825L46.053,50.445l-.661.376a10.863,10.863,0,0,1-8.178.665c-1.984-.654-4.079-.264-6.41,1.19l-6.988,4.356c-.223.141-.23.25-.237.29a.815.815,0,0,0,.32.583c1.35,1.117,2.38.691,4.406-.3A10.705,10.705,0,0,1,32.982,56.2h.042a9.592,9.592,0,0,1,4.983,1.714l6.7,3.866a.723.723,0,0,1,.1.062,3.9,3.9,0,0,1,.863.81Zm-1.74,2.52a1,1,0,0,1-.619.473,1.015,1.015,0,0,1-.773-.1l-5.707-3.3a1.155,1.155,0,1,0-1.155,2L40.081,66.8h.007a1.015,1.015,0,0,1,.466.621.967.967,0,0,1-.1.773,1.024,1.024,0,0,1-1.392.374l-5.777-3.339a1.155,1.155,0,1,0-1.155,2l4.545,2.626A.9.9,0,0,1,37,71.066a.886.886,0,0,1-1.211.325l-1.747-1.005h0l-4.016-2.32a1.155,1.155,0,1,0-1.155,2L32.9,72.386a.717.717,0,0,1,.327,1.016c-.258.438-.807.468-1.475.083a.332.332,0,0,0-.083-.044l-2.234-1.058A70.792,70.792,0,0,1,19.7,66.8c-1.023-.72-1.879-1.35-2.638-1.9a49.507,49.507,0,0,0-5.728-3.772l4.329-10.572.48.273a10.857,10.857,0,0,0,8.178.665,6.274,6.274,0,0,1,3.967.032l-5.7,3.554a2.645,2.645,0,0,0-1.315,2.095,3.052,3.052,0,0,0,1.148,2.516c2.561,2.118,4.963.942,6.9,0A8.764,8.764,0,0,1,33,58.509a7.551,7.551,0,0,1,3.856,1.4L43.5,63.747a1.258,1.258,0,0,1,.536.7,1.043,1.043,0,0,1-.111.725ZM8.83,61.143l5.31-12.972a.521.521,0,0,0-.285-.686l-2.492-1.019a.487.487,0,0,0-.195-.039.523.523,0,0,0-.2.042.516.516,0,0,0-.285.285L5.364,59.725a.533.533,0,0,0,.292.684l2.485,1.021a.53.53,0,0,0,.689-.287ZM53.215,45.877a2.838,2.838,0,0,0-3.7-1.548l-2.492,1.019a2.836,2.836,0,0,0-1.747,2.877l-1.03.589a8.643,8.643,0,0,1-6.313.478,9.161,9.161,0,0,0-7.169.757,9.161,9.161,0,0,0-7.169-.757,8.647,8.647,0,0,1-6.313-.478l-.821-.469a2.842,2.842,0,0,0-1.733-3l-2.492-1.019a2.838,2.838,0,0,0-3.7,1.548L3.228,58.849a2.845,2.845,0,0,0,1.552,3.7l2.485,1.019a2.823,2.823,0,0,0,2.171-.01,2.768,2.768,0,0,0,.731-.443A46.537,46.537,0,0,1,15.7,66.754c.766.562,1.636,1.2,2.68,1.931A73.049,73.049,0,0,0,28.444,74.47l2.2,1.039a3.924,3.924,0,0,0,1.942.551,3,3,0,0,0,2.958-2.316,3.2,3.2,0,0,0,.682.074,3.19,3.19,0,0,0,3.181-2.813c.056,0,.1.006.16.006a3.27,3.27,0,0,0,.87-.116,3.293,3.293,0,0,0,2.45-2.91c.049,0,.1,0,.146,0a3.325,3.325,0,0,0,3.327-3.128l5-1.97a2.793,2.793,0,0,0,.961.665,2.823,2.823,0,0,0,2.172.01l2.485-1.019a2.845,2.845,0,0,0,1.552-3.7L53.215,45.878Zm16.147.01a1.158,1.158,0,0,0-1.155-1.155H57.349a1.155,1.155,0,1,0,0,2.31H68.207A1.159,1.159,0,0,0,69.362,45.887ZM37.346,30.156H68.207a1.155,1.155,0,1,1,0,2.31H37.346a1.155,1.155,0,1,1,0-2.31ZM60.453,54.329a1.155,1.155,0,1,1,0-2.309h7.754a1.155,1.155,0,1,1,0,2.309ZM36.19,38.6a1.158,1.158,0,0,1,1.155-1.155H68.207a1.155,1.155,0,1,1,0,2.31H37.346A1.158,1.158,0,0,1,36.19,38.6ZM52.776,24.516a1.154,1.154,0,0,1-1.155-1.155v-.625a3.885,3.885,0,0,1-2.631-1.752,1.155,1.155,0,0,1,2.025-1.11c.362.652,2.109.927,3.014.474a.614.614,0,0,0,.362-.47c.014-.132.035-.3-.39-.544a5.6,5.6,0,0,0-1.538-.516c-.244-.058-.5-.118-.759-.19a3.875,3.875,0,0,1-2.387-1.564,2.676,2.676,0,0,1,.383-3.3,3.7,3.7,0,0,1,1.921-1.005v-.6a1.155,1.155,0,0,1,2.311,0v.606A3.6,3.6,0,0,1,56.4,14.447a1.154,1.154,0,0,1-2.032,1.1,1.624,1.624,0,0,0-1.176-.562,2.359,2.359,0,0,0-1.824.381c-.23.244-.125.421-.083.479.139.229.452.4,1.044.562.223.06.439.113.668.168a7.474,7.474,0,0,1,2.178.772,2.761,2.761,0,0,1,1.51,2.815,2.924,2.924,0,0,1-1.622,2.258,4.334,4.334,0,0,1-1.128.368v.576a1.154,1.154,0,0,1-1.155,1.155Zm-7.628-6.754a7.632,7.632,0,1,0,7.628-7.631A7.639,7.639,0,0,0,45.148,17.762Zm17.567,0a9.939,9.939,0,1,0-9.939,9.94,9.948,9.948,0,0,0,9.939-9.94Zm-33.22-6.376v1H17.384v-1a6.055,6.055,0,0,1,12.11,0Zm36.2-8.365H23.44a8.379,8.379,0,0,0-8.366,8.365v2.156A1.158,1.158,0,0,0,16.229,14.7H29.495V46.44a1.155,1.155,0,1,0,2.311,0V11.386a8.363,8.363,0,0,0-2.6-6.055H65.694a8.063,8.063,0,0,1,8.053,8.056V59.876H61.066a1.155,1.155,0,1,0,0,2.31H74.9a1.154,1.154,0,0,0,1.155-1.155V13.387A10.377,10.377,0,0,0,65.694,3.021Z" fill-rule="evenodd"/>
    </g>
  </g>
</svg>
