<svg xmlns="http://www.w3.org/2000/svg" width="84" height="84" viewBox="0 0 84 84">
  <g id="Grupo_1182481" data-name="Grupo 1182481" transform="translate(-383.746 -8400)">
    <circle id="Elipse_13609" data-name="Elipse 13609" cx="42" cy="42" r="42" transform="translate(383.746 8400)" fill="#cfa9e6"/>
    <g id="Grupo_1183343" data-name="Grupo 1183343" transform="translate(334.137 8413.777)">
      <path id="Trazado_1008980" data-name="Trazado 1008980" d="M110.831,56.649H72.106A1.106,1.106,0,0,1,71,55.542V1.106A1.106,1.106,0,0,1,72.106,0H86.49a1.106,1.106,0,1,1,0,2.213H73.213V54.436h36.512V2.213H96.448a1.106,1.106,0,1,1,0-2.213h14.383a1.106,1.106,0,0,1,1.106,1.106V55.542A1.106,1.106,0,0,1,110.831,56.649Z" transform="translate(0 -0.058)" fill="#53435c"/>
      <circle id="Elipse_16103" data-name="Elipse 16103" cx="1.209" cy="1.209" r="1.209" transform="translate(90.26 -0.146)" fill="#53435c"/>
      <path id="Trazado_1008981" data-name="Trazado 1008981" d="M149.767,203.467h-27.66a1.106,1.106,0,1,1,0-2.213h27.66a1.106,1.106,0,0,1,0,2.213Z" transform="translate(-44.468 -179.045)" fill="#53435c"/>
      <path id="Trazado_1008982" data-name="Trazado 1008982" d="M149.767,293.467h-27.66a1.106,1.106,0,0,1,0-2.213h27.66a1.106,1.106,0,0,1,0,2.213Z" transform="translate(-44.468 -259.087)" fill="#53435c"/>
      <path id="Trazado_1008983" data-name="Trazado 1008983" d="M128.081,248.467h-5.975a1.106,1.106,0,1,1,0-2.213h5.975a1.106,1.106,0,0,1,0,2.213Z" transform="translate(-44.468 -219.066)" fill="#53435c"/>
      <path id="Trazado_1008984" data-name="Trazado 1008984" d="M251.332,248.467H236.306a1.106,1.106,0,1,1,0-2.213h15.025a1.106,1.106,0,1,1,0,2.213Z" transform="translate(-146.033 -219.066)" fill="#53435c"/>
      <path id="Trazado_1008985" data-name="Trazado 1008985" d="M306.113,338.467H297.9a1.106,1.106,0,1,1,0-2.213h8.21a1.106,1.106,0,1,1,0,2.213Z" transform="translate(-200.814 -299.108)" fill="#53435c"/>
      <path id="Trazado_1008986" data-name="Trazado 1008986" d="M134.919,338.467H122.106a1.106,1.106,0,1,1,0-2.213h12.812a1.106,1.106,0,1,1,0,2.213Z" transform="translate(-44.468 -299.108)" fill="#53435c"/>
      <path id="Trazado_1008987" data-name="Trazado 1008987" d="M129.974,430.135h-7.868a1.106,1.106,0,1,1,0-2.213h7.868a1.106,1.106,0,1,1,0,2.213Z" transform="translate(-44.468 -380.634)" fill="#53435c"/>
      <path id="Trazado_1008988" data-name="Trazado 1008988" d="M293.843,80.017h-9.736a1.106,1.106,0,1,1,0-2.213h9.736a1.106,1.106,0,1,1,0,2.213Z" transform="translate(-188.544 -69.253)" fill="#53435c"/>
      <path id="Trazado_1008989" data-name="Trazado 1008989" d="M293.843,121.017h-9.736a1.106,1.106,0,1,1,0-2.213h9.736a1.106,1.106,0,1,1,0,2.213Z" transform="translate(-188.544 -105.717)" fill="#53435c"/>
      <path id="Trazado_1008990" data-name="Trazado 1008990" d="M131.843,80.017h-9.736a1.106,1.106,0,0,1,0-2.213h9.736a1.106,1.106,0,0,1,0,2.213Z" transform="translate(-44.468 -69.253)" fill="#53435c"/>
      <path id="Trazado_1008991" data-name="Trazado 1008991" d="M131.843,121.017h-9.736a1.106,1.106,0,0,1,0-2.213h9.736a1.106,1.106,0,0,1,0,2.213Z" transform="translate(-44.468 -105.717)" fill="#53435c"/>
      <path id="Trazado_1008992" data-name="Trazado 1008992" d="M247.106,61.657A1.106,1.106,0,0,1,246,60.551V49.508a1.106,1.106,0,1,1,2.213,0V60.551A1.106,1.106,0,0,1,247.106,61.657Z" transform="translate(-155.638 -43.105)" fill="#53435c"/>
      <path id="Trazado_1008993" data-name="Trazado 1008993" d="M255.513,403.573a1.106,1.106,0,0,1-.9-.463l-1.724-2.413-.792.809a1.106,1.106,0,0,1-.791.333h-1.7a1.106,1.106,0,0,1,0-2.213h1.232l1.39-1.421a1.106,1.106,0,0,1,1.691.13l1.534,2.147,2.434-3.861a1.106,1.106,0,0,1,1.942.13l1.315,2.874h2.015a1.106,1.106,0,1,1,0,2.213h-2.726a1.106,1.106,0,0,1-1.006-.646l-.759-1.659-2.221,3.524a1.107,1.107,0,0,1-.9.516h-.032Z" transform="translate(-157.863 -352.338)" fill="#53435c"/>
    </g>
  </g>
</svg>
