<svg xmlns="http://www.w3.org/2000/svg" width="128" height="128" viewBox="0 0 128 128">
  <g id="Grupo_1182451" data-name="Grupo 1182451" transform="translate(-72.746 -7992)">
    <g id="Elipse_13628" data-name="Elipse 13628" transform="translate(72.746 7992)" fill="#fdf3e6" stroke="#ff984a" stroke-width="6">
      <circle cx="64" cy="64" r="64" stroke="none"/>
      <circle cx="64" cy="64" r="61" fill="none"/>
    </g>
    <g id="Grupo_1183200" data-name="Grupo 1183200" transform="translate(103.228 8022.481)">
      <path id="Trazado_1008527" data-name="Trazado 1008527" d="M310.056,363.061v8.65H296v-5.049a2.839,2.839,0,0,0,.865-1.395l1.157-4.228a14.476,14.476,0,0,1,2.768.638l1.827.605a15.016,15.016,0,0,0,4.79.779,13.958,13.958,0,0,0,2.606-.238Zm0,0" transform="translate(-255.994 -312.243)" fill="#ccd1d9"/>
      <path id="Trazado_1008528" data-name="Trazado 1008528" d="M325.72,288.638a2.164,2.164,0,0,1-1.535,3.687H322L323.168,288h1.016A2.16,2.16,0,0,1,325.72,288.638Zm0,0" transform="translate(-278.48 -249.076)" fill="#ccd1d9"/>
      <path id="Trazado_1008529" data-name="Trazado 1008529" d="M233.978,288.064l-1.146,4.26H229.4a4.353,4.353,0,0,0-3.06,1.265l-.184-.184,4.141-4.141a4.329,4.329,0,0,1,3.06-1.265h.367Zm0,0" transform="translate(-195.593 -249.075)" fill="#e6e9ed"/>
      <path id="Trazado_1008530" data-name="Trazado 1008530" d="M200.822,248.162l-1.438,5.309-.249-.065h-.367a4.329,4.329,0,0,0-3.06,1.265l-4.141,4.141-1.481,1.492a2.292,2.292,0,0,1-1.622.671,2.332,2.332,0,0,1-1.632-.671,2.284,2.284,0,0,1,.011-3.244l7.785-7.8a4.329,4.329,0,0,1,3.06-1.265h2.53Zm0,0" transform="translate(-161 -214.481)" fill="#f0d0b4"/>
      <path id="Trazado_1008531" data-name="Trazado 1008531" d="M136.869,39.356V14.487H112V8h38.925V43.681l-.076.108L146.9,41.162a4.29,4.29,0,0,0-2.4-.724H143.01l2.086-7.709,1.157-4.3,1.622-6a2.941,2.941,0,0,0,.1-.746,2.861,2.861,0,0,0-2.855-2.865h-.357A2.855,2.855,0,0,0,142,20.932l-1.5,5.579L139.334,30.8l-2.325,8.6Zm0,0" transform="translate(-96.863 -6.919)" fill="#ccd1d9"/>
      <path id="Trazado_1008532" data-name="Trazado 1008532" d="M46.925,80.869l.14.043-.324,1.2-.606-.162h-2.53a4.329,4.329,0,0,0-3.06,1.265l-7.785,7.8a2.284,2.284,0,0,0-.011,3.244,2.332,2.332,0,0,0,1.632.67A2.292,2.292,0,0,0,36,94.254l1.481-1.492.184.184a4.353,4.353,0,0,0-1.265,3.06,1.085,1.085,0,0,0,1.081,1.081H42.7l-.778,2.876a2.959,2.959,0,0,0-.108.746,2.87,2.87,0,0,0,2.865,2.865h.357a2.844,2.844,0,0,0,1.892-.724v11.537H8V56H46.925Zm0,0" transform="translate(-6.919 -48.431)" fill="#e6e9ed"/>
      <path id="Trazado_1008533" data-name="Trazado 1008533" d="M40,88H65.95v8.65H40Zm0,0" transform="translate(-34.594 -76.106)" fill="#b4dd7f"/>
      <path id="Trazado_1008534" data-name="Trazado 1008534" d="M47.569,352h3.244v10.812H40V352Zm0,0" transform="translate(-34.594 -304.425)" fill="#ff826e"/>
      <path id="Trazado_1008535" data-name="Trazado 1008535" d="M47.569,216h3.244v10.812H40V216Zm0,0" transform="translate(-34.594 -186.807)" fill="#ff826e"/>
      <path id="Trazado_1008536" data-name="Trazado 1008536" d="M330.35,90.865a2.941,2.941,0,0,1-.1.746l-1.622,6L322.879,95.7l1.5-5.579A2.855,2.855,0,0,1,327.139,88h.357a2.861,2.861,0,0,1,2.855,2.865Zm0,0" transform="translate(-279.24 -76.106)" fill="#ffeaa7"/>
      <path id="Trazado_1008537" data-name="Trazado 1008537" d="M321.158,146.875l-1.157,4.3-5.763-1.925,1.168-4.292Zm0,0" transform="translate(-271.767 -125.369)" fill="#e6e9ed"/>
      <path id="Trazado_1008538" data-name="Trazado 1008538" d="M263.274,365.763a2.844,2.844,0,0,1-1.892.724h-.357a2.87,2.87,0,0,1-2.865-2.865,2.959,2.959,0,0,1,.108-.746l.778-2.876h4.228a14.045,14.045,0,0,1,2.022.14l-1.157,4.228A2.838,2.838,0,0,1,263.274,365.763Zm0,0" transform="translate(-223.268 -311.344)" fill="#fcd770"/>
      <path id="Trazado_1008539" data-name="Trazado 1008539" d="M284.429,186.353l-2.628,9.731h-6.282l1.146-4.26,1.438-5.309.324-1.2,2.325-8.6,5.763,1.925Zm0,0" transform="translate(-238.281 -152.834)" fill="#fcd770"/>
      <path id="Trazado_1008540" data-name="Trazado 1008540" d="M230.7,263.278a14.044,14.044,0,0,0-2.022-.14h-9.439a1.085,1.085,0,0,1-1.081-1.081,4.319,4.319,0,0,1,4.325-4.325h11.894a2.162,2.162,0,1,0,0-4.325h-1.016l1.46-5.406h1.492a4.29,4.29,0,0,1,2.4.724l3.947,2.628,3.611,2.411a4.292,4.292,0,0,0,2.4.724h7.039v8.65h-3.244a15.027,15.027,0,0,0-3.676.454l-5.028,1.254c-.357.087-.714.162-1.071.216a13.958,13.958,0,0,1-2.606.238,15.016,15.016,0,0,1-4.79-.779l-1.827-.605a14.474,14.474,0,0,0-2.768-.638Zm0,0" transform="translate(-188.675 -214.481)" fill="#f0d0b4"/>
      <path id="Trazado_1008541" data-name="Trazado 1008541" d="M47.643,34.6a3.231,3.231,0,0,1,1.8.545l7.551,5.035a5.4,5.4,0,0,0,3,.908h7.044V38.925H59.994a3.236,3.236,0,0,1-1.8-.545l-3.05-2.034V0H14.056V6.487H0v60.55H41.087V60.55H55.144v-9.1c.068-.016.138-.022.206-.039l5.029-1.257a14.14,14.14,0,0,1,3.415-.42h3.244V47.575H63.793a16.263,16.263,0,0,0-3.938.485l-5.03,1.257a14.134,14.134,0,0,1-7.864-.3l-1.822-.608a16.2,16.2,0,0,0-5.134-.833H30.571a3.248,3.248,0,0,1,3.244-3.244H45.708a3.235,3.235,0,0,0,.38-6.449l.887-3.282ZM46.277,51.066a16.186,16.186,0,0,0,5.135.834c.525,0,1.048-.045,1.569-.1v6.584H41.087V54.85a3.9,3.9,0,0,0,.832-1.542l.885-3.28a13.956,13.956,0,0,1,1.651.43Zm-5.64-1.3-.806,2.982a1.786,1.786,0,0,1-1.721,1.318H37.76a1.782,1.782,0,0,1-1.72-2.247l.561-2.078h3.4C40.217,49.737,40.427,49.753,40.638,49.762Zm-6.277-.025-.409,1.513a3.919,3.919,0,0,0,1.857,4.437l-.339,1.356,2.1.525.336-1.343h.207a3.927,3.927,0,0,0,.814-.1v8.745H2.163V8.65H16.219V2.162H52.981V34.9l-2.339-1.56a5.4,5.4,0,0,0-3-.908H47.56l4.5-16.65a3.947,3.947,0,0,0-3.808-4.975H47.9a3.952,3.952,0,0,0-3.808,2.916L41.087,24.85V6.487H18.381V8.65H38.925V32.437H36.689a5.347,5.347,0,0,0-3.213,1.081H22.706v2.162h8.5l-2.162,2.162H22.706v2.162h4.175l-1.807,1.807a3.355,3.355,0,0,0,3.352,5.605c0,.053-.016.1-.016.157a2.165,2.165,0,0,0,2.162,2.162Zm8.329-7.569H38.647l4.566-16.893,3.709,1.236Zm-8.3-6.619a3.224,3.224,0,0,1,2.294-.949h1.763l-.882,3.263a5.355,5.355,0,0,0-3.623,1.563l-5.63,5.63a1.213,1.213,0,0,1-2.071-.856,1.2,1.2,0,0,1,.356-.857Zm1.081,5.406a3.209,3.209,0,0,1,1.485-.836l-.554,2.049H34.264Zm14.5-25.732-1.324,4.9-3.709-1.236,1.241-4.593A1.787,1.787,0,0,1,47.9,12.975h.351a1.783,1.783,0,0,1,1.72,2.248Zm-5.6,5.754,3.709,1.236-.6,2.207-3.709-1.236Zm1.334,19.029a1.081,1.081,0,1,1,0,2.162h-.779l.585-2.162Zm0,0"/>
      <path id="Trazado_1008542" data-name="Trazado 1008542" d="M60.112,80H32V90.812H60.112ZM57.95,88.65H34.162V82.162H57.95Zm0,0" transform="translate(-27.675 -69.188)"/>
      <path id="Trazado_1008543" data-name="Trazado 1008543" d="M64,112h2.162v2.162H64Zm0,0" transform="translate(-55.35 -96.863)"/>
      <path id="Trazado_1008544" data-name="Trazado 1008544" d="M96,112h2.162v2.162H96Zm0,0" transform="translate(-83.025 -96.863)"/>
      <path id="Trazado_1008545" data-name="Trazado 1008545" d="M128,112h2.162v2.162H128Zm0,0" transform="translate(-110.7 -96.863)"/>
      <path id="Trazado_1008546" data-name="Trazado 1008546" d="M160,112h2.162v2.162H160Zm0,0" transform="translate(-138.375 -96.863)"/>
      <path id="Trazado_1008547" data-name="Trazado 1008547" d="M192,112h2.162v2.162H192Zm0,0" transform="translate(-166.05 -96.863)"/>
      <path id="Trazado_1008548" data-name="Trazado 1008548" d="M44.975,214.487H42.812v4.325h-8.65v-8.65H40.65V208H32v12.975H44.975Zm0,0" transform="translate(-27.675 -179.888)"/>
      <path id="Trazado_1008549" data-name="Trazado 1008549" d="M71.319,178.344,61.271,188.392l-1.4-1.4-1.529,1.529,2.927,2.927,11.577-11.577Zm0,0" transform="translate(-50.458 -154.24)"/>
      <path id="Trazado_1008550" data-name="Trazado 1008550" d="M42.812,354.812h-8.65v-8.65H40.65V344H32v12.975H44.975v-6.487H42.812Zm0,0" transform="translate(-27.675 -297.507)"/>
      <path id="Trazado_1008551" data-name="Trazado 1008551" d="M59.873,322.994l-1.529,1.529,2.927,2.927,11.577-11.577-1.529-1.529L61.271,324.392Zm0,0" transform="translate(-50.458 -271.859)"/>
      <path id="Trazado_1008552" data-name="Trazado 1008552" d="M256,440h2.162v2.162H256Zm0,0" transform="translate(-221.4 -380.532)"/>
      <path id="Trazado_1008553" data-name="Trazado 1008553" d="M152,440h11.894v2.162H152Zm0,0" transform="translate(-131.456 -380.532)"/>
      <path id="Trazado_1008554" data-name="Trazado 1008554" d="M168,216h14.056v2.162H168Zm0,0" transform="translate(-145.294 -186.807)"/>
    </g>
  </g>
</svg>
