<svg xmlns="http://www.w3.org/2000/svg" width="128" height="128" viewBox="0 0 128 128">
  <g id="Grupo_1182459" data-name="Grupo 1182459" transform="translate(-72.746 -7992)">
    <g id="Elipse_13628" data-name="Elipse 13628" transform="translate(72.746 7992)" fill="#fdf3e6" stroke="#ff984a" stroke-width="6">
      <circle cx="64" cy="64" r="64" stroke="none"/>
      <circle cx="64" cy="64" r="61" fill="none"/>
    </g>
    <g id="Grupo_1183246" data-name="Grupo 1183246" transform="translate(76.41 8017.846)">
      <g id="Grupo_1183244" data-name="Grupo 1183244" transform="translate(27.185 1.118)">
        <g id="Grupo_1183240" data-name="Grupo 1183240" transform="translate(0)">
          <g id="Grupo_1183238" data-name="Grupo 1183238" transform="translate(0.952 21.647)">
            <path id="Trazado_1008640" data-name="Trazado 1008640" d="M57.8,159.648h34.92v6.616H57.8Z" transform="translate(-55.144 -158.619)" fill="#c56528"/>
            <path id="Trazado_1008641" data-name="Trazado 1008641" d="M58.512,196.467H56.9a3.035,3.035,0,1,1,0-6.07h1.614v6.07Z" transform="translate(-51.791 -184.785)" fill="#ffe2ce"/>
            <path id="Trazado_1008642" data-name="Trazado 1008642" d="M264.857,190.4h1.613a3.035,3.035,0,1,1,0,6.07h-1.613Z" transform="translate(-231.337 -184.785)" fill="#ffe2ce"/>
            <g id="Grupo_1183237" data-name="Grupo 1183237">
              <g id="Grupo_1183236" data-name="Grupo 1183236">
                <g id="Grupo_1183235" data-name="Grupo 1183235">
                  <path id="Trazado_1008643" data-name="Trazado 1008643" d="M80.194,376.408V353.973H48.955a9,9,0,0,0-9,9v13.434H52.82l7.253-2.981,7.245,2.981Z" transform="translate(-39.952 -323.982)" fill="#65b9d7"/>
                  <g id="Grupo_1183231" data-name="Grupo 1183231" transform="translate(10.128 29.991)">
                    <path id="Trazado_1008644" data-name="Trazado 1008644" d="M114.544,376.408l-6.635-22.435h19.985l-6.635,22.435" transform="translate(-107.909 -353.973)" fill="#fff"/>
                  </g>
                  <path id="Trazado_1008645" data-name="Trazado 1008645" d="M153.249,329.315h-.006l-3.8-2.308v-6.716h7.6v6.716S153.243,329.315,153.249,329.315Z" transform="translate(-133.125 -295.32)" fill="#ffe2ce"/>
                  <g id="Grupo_1183234" data-name="Grupo 1183234" transform="translate(6.722)">
                    <g id="Grupo_1183232" data-name="Grupo 1183232">
                      <path id="Trazado_1008646" data-name="Trazado 1008646" d="M111.85,152.743V166.69a13.387,13.387,0,0,1-13.389,13.385h-.019A13.387,13.387,0,0,1,85.052,166.69V152.743Z" transform="translate(-85.052 -152.743)" fill="#ffe2ce"/>
                    </g>
                    <path id="Trazado_1008647" data-name="Trazado 1008647" d="M165.373,152.743V166.69a13.391,13.391,0,0,1-10.418,13.054,13.441,13.441,0,0,0,2.971.331h.019a13.387,13.387,0,0,0,13.389-13.385V152.743Z" transform="translate(-144.537 -152.743)" fill="#ffd9bf"/>
                    <g id="Grupo_1183233" data-name="Grupo 1183233" transform="translate(3.681 5.925)">
                      <path id="Trazado_1008648" data-name="Trazado 1008648" d="M109.747,195.36a3.867,3.867,0,0,0,7.735,0V192.5h-7.735Z" transform="translate(-109.747 -192.5)" fill="#fff"/>
                      <path id="Trazado_1008649" data-name="Trazado 1008649" d="M196,195.36a3.867,3.867,0,0,1-7.735,0V192.5H196Z" transform="translate(-176.564 -192.5)" fill="#fff"/>
                    </g>
                  </g>
                </g>
              </g>
            </g>
          </g>
          <path id="Trazado_1008650" data-name="Trazado 1008650" d="M81.742,376.408l-7.8-15.3,2.087-5.131a3.213,3.213,0,0,1,2.976-2h3.367l3.268,22.435Z" transform="translate(-67.922 -302.335)" fill="#cce7f0"/>
          <path id="Trazado_1008651" data-name="Trazado 1008651" d="M201.325,376.408l7.8-15.3-2.087-5.131a3.213,3.213,0,0,0-2.976-2h-3.2l-3.438,22.435Z" transform="translate(-173.008 -302.335)" fill="#cce7f0"/>
          <g id="Grupo_1183239" data-name="Grupo 1183239" transform="translate(5.836)">
            <path id="Trazado_1008652" data-name="Trazado 1008652" d="M103.2,20.525H72.726V10.9a3.4,3.4,0,0,1,3.4-3.4H99.8a3.4,3.4,0,0,1,3.4,3.4Z" transform="translate(-72.726 -7.5)" fill="#65b9d7"/>
            <path id="Trazado_1008653" data-name="Trazado 1008653" d="M220.336,7.5h-5.962a3.4,3.4,0,0,1,3.4,3.4V26.373l5.962-5.848V10.9a3.4,3.4,0,0,0-3.4-3.4Z" transform="translate(-193.263 -7.5)" fill="#56aac7"/>
            <path id="Trazado_1008654" data-name="Trazado 1008654" d="M72.726,94.895H103.2v5.252H72.726Z" transform="translate(-72.726 -81.87)" fill="#cce7f0"/>
          </g>
          <path id="Trazado_1008655" data-name="Trazado 1008655" d="M73.406,133.451H35.873a2.306,2.306,0,1,1,0-4.612H73.406a2.306,2.306,0,0,1,0,4.612Z" transform="translate(-33.567 -110.755)" fill="#65b9d7"/>
          <path id="Trazado_1008656" data-name="Trazado 1008656" d="M266.832,128.838H260.87a2.306,2.306,0,0,1,0,4.613h5.962a2.306,2.306,0,0,0,0-4.613Z" transform="translate(-226.993 -110.754)" fill="#56aac7"/>
          <path id="Trazado_1008657" data-name="Trazado 1008657" d="M140.672,356.884v-7.941a.806.806,0,0,0-1.209-.7l-6.068,4.764-6.074-4.764a.806.806,0,0,0-1.209.7v7.941a.806.806,0,0,0,1.209.7l6.074-4.573,6.068,4.573A.806.806,0,0,0,140.672,356.884Z" transform="translate(-112.32 -297.367)" fill="#65b9d7"/>
        </g>
        <g id="Grupo_1183243" data-name="Grupo 1183243" transform="translate(39.19 35.403)">
          <g id="Grupo_1183241" data-name="Grupo 1183241" transform="translate(0 4.002)">
            <path id="Trazado_1008658" data-name="Trazado 1008658" d="M316.485,306.555H298.139a1.622,1.622,0,0,1-1.623-1.62V273.506a1.622,1.622,0,0,1,1.623-1.62h23.866a1.622,1.622,0,0,1,1.624,1.62v25.921Z" transform="translate(-296.516 -271.886)" fill="#ff9ed3"/>
            <path id="Trazado_1008659" data-name="Trazado 1008659" d="M433.5,271.886h-5.962a1.622,1.622,0,0,1,1.624,1.62v31.869l5.962-5.949V273.506A1.622,1.622,0,0,0,433.5,271.886Z" transform="translate(-408.013 -271.886)" fill="#ff8aca"/>
            <path id="Trazado_1008660" data-name="Trazado 1008660" d="M430.5,463.8v-5.508a1.622,1.622,0,0,1,1.623-1.62h5.52Z" transform="translate(-410.534 -429.132)" fill="#ff5781"/>
          </g>
          <g id="Grupo_1183242" data-name="Grupo 1183242" transform="translate(7.9)">
            <path id="Trazado_1008661" data-name="Trazado 1008661" d="M351.406,253.071a1.886,1.886,0,0,1-1.885-1.885v-4.263a1.886,1.886,0,0,1,3.771,0v4.263A1.885,1.885,0,0,1,351.406,253.071Z" transform="translate(-349.521 -245.037)" fill="#ffe2ce"/>
            <path id="Trazado_1008662" data-name="Trazado 1008662" d="M376.71,253.071a1.886,1.886,0,0,1-1.886-1.885v-4.263a1.886,1.886,0,0,1,3.771,0v4.263A1.885,1.885,0,0,1,376.71,253.071Z" transform="translate(-371.053 -245.037)" fill="#ffe2ce"/>
            <path id="Trazado_1008663" data-name="Trazado 1008663" d="M402.012,253.071a1.886,1.886,0,0,1-1.885-1.885v-4.263a1.886,1.886,0,0,1,3.771,0v4.263A1.886,1.886,0,0,1,402.012,253.071Z" transform="translate(-392.584 -245.037)" fill="#ffe2ce"/>
          </g>
        </g>
      </g>
      <g id="Grupo_1183245" data-name="Grupo 1183245" transform="translate(26.067 0)">
        <path id="Trazado_1008664" data-name="Trazado 1008664" d="M154.167,275.08a1.118,1.118,0,0,0-1.119-1.117l-6.612,0a1.118,1.118,0,0,0,0,2.236l6.612,0A1.118,1.118,0,0,0,154.167,275.08Z" transform="translate(-127.553 -233.132)"/>
        <path id="Trazado_1008665" data-name="Trazado 1008665" d="M112.218,188.978v-2.86A1.118,1.118,0,0,0,111.1,185h-7.735a1.118,1.118,0,0,0-1.118,1.118v2.86A4.985,4.985,0,0,0,112.218,188.978Zm-2.236,0a2.75,2.75,0,0,1-5.5,0v-1.742h5.5Z" transform="translate(-90.894 -157.428)"/>
        <path id="Trazado_1008666" data-name="Trazado 1008666" d="M185.752,193.956a4.987,4.987,0,0,0,4.985-4.978v-2.86A1.118,1.118,0,0,0,189.619,185h-7.735a1.118,1.118,0,0,0-1.118,1.118v2.86A4.987,4.987,0,0,0,185.752,193.956ZM183,187.236h5.5v1.742a2.75,2.75,0,0,1-5.5,0Z" transform="translate(-157.71 -157.428)"/>
        <path id="Trazado_1008667" data-name="Trazado 1008667" d="M129.53,206.427a1.118,1.118,0,0,0,0-2.236A1.118,1.118,0,0,0,129.53,206.427Z" transform="translate(-113.191 -173.758)"/>
        <path id="Trazado_1008668" data-name="Trazado 1008668" d="M208.05,206.427a1.118,1.118,0,0,0,0-2.236A1.118,1.118,0,0,0,208.05,206.427Z" transform="translate(-180.008 -173.758)"/>
        <path id="Trazado_1008669" data-name="Trazado 1008669" d="M168.79,409.27a1.118,1.118,0,0,0,0,2.236A1.118,1.118,0,0,0,168.79,409.27Z" transform="translate(-146.6 -348.272)"/>
        <path id="Trazado_1008670" data-name="Trazado 1008670" d="M168.79,438.122a1.118,1.118,0,0,0,0,2.236A1.118,1.118,0,0,0,168.79,438.122Z" transform="translate(-146.6 -372.824)"/>
        <path id="Trazado_1008671" data-name="Trazado 1008671" d="M168.79,469.21a1.118,1.118,0,0,0,0-2.236A1.118,1.118,0,0,0,168.79,469.21Z" transform="translate(-146.6 -397.376)"/>
        <path id="Trazado_1008672" data-name="Trazado 1008672" d="M66.375,62.477a1.118,1.118,0,0,0-1.118,1.118v9.976A2.743,2.743,0,0,0,68,76.309H86.344a1.128,1.128,0,0,0,.79-.327l7.144-7.128a1.128,1.128,0,0,0,.328-.791V42.142A2.743,2.743,0,0,0,91.864,39.4H86.706v-1a3.01,3.01,0,0,0-4.889-2.334,3.017,3.017,0,0,0-3.771,0,3.009,3.009,0,0,0-4.889,2.334v1H68a2.743,2.743,0,0,0-2.741,2.738v9.5H56.339a2.015,2.015,0,0,0-3.161-.161V50.359a14.689,14.689,0,0,0,9.6-14.794,4.2,4.2,0,0,0,4.061-6.279V24.933a3.471,3.471,0,0,0,3.613-3.424,3.428,3.428,0,0,0-3.424-3.424H64.611V4.516A4.522,4.522,0,0,0,60.094,0H36.421A4.522,4.522,0,0,0,31.9,4.516V18.084H29.491a3.428,3.428,0,0,0-3.424,3.424,3.471,3.471,0,0,0,3.612,3.424v4.353a4.2,4.2,0,0,0,4.061,6.279,14.688,14.688,0,0,0,9.6,14.794v1.119a2.015,2.015,0,0,0-3.161.161H37.14A10.131,10.131,0,0,0,27.019,61.757V75.191a1.119,1.119,0,0,0,2.236,0V61.756a7.894,7.894,0,0,1,4.957-7.317l-2.045,5.029a1.117,1.117,0,0,0,.04.929l7.8,15.3A1.119,1.119,0,0,0,42,74.683L34.43,59.837l1.894-4.658a2.087,2.087,0,0,1,1.941-1.306h1.6v6.76a1.96,1.96,0,0,0,2.069,1.917l1.865,12.8a1.118,1.118,0,0,0,2.212-.322L44.014,61.356l4.246-3.2,4.327,3.261L50.5,75.021a1.118,1.118,0,0,0,2.21.339l1.962-12.8a1.959,1.959,0,0,0,1.981-1.923v-6.76h1.587a2.087,2.087,0,0,1,1.941,1.306l1.894,4.658L54.506,74.683A1.119,1.119,0,0,0,56.5,75.7l7.8-15.3a1.118,1.118,0,0,0,.04-.929s-2.229-5.445-2.311-5.595h3.227v3a1.118,1.118,0,1,0,2.236,0V42.142a.5.5,0,0,1,.506-.5h5.159v1.029A3.009,3.009,0,0,0,78.045,45a3.017,3.017,0,0,0,3.771,0,3.01,3.01,0,0,0,4.889-2.334V41.64h5.158a.5.5,0,0,1,.506.5v24.8h-4.4a2.743,2.743,0,0,0-2.741,2.738v4.39H68a.5.5,0,0,1-.506-.5V63.595a1.118,1.118,0,0,0-1.118-1.118Zm-3.1-29.148h-.5V29.495a2.049,2.049,0,0,1,2.413,1.917A1.919,1.919,0,0,1,63.27,33.329Zm1.33-5.85a4.868,4.868,0,0,0-1.825-.22V24.932H64.6ZM34.139,15.261h2.987a1.118,1.118,0,0,0,0-2.236H34.139V4.516a2.284,2.284,0,0,1,2.282-2.281H60.094a2.284,2.284,0,0,1,2.282,2.281v8.509H43.908a1.118,1.118,0,0,0,0,2.236H62.376v2.823H34.139ZM28.3,21.508a1.19,1.19,0,0,1,1.188-1.188H67.024a1.189,1.189,0,1,1,0,2.377H29.491A1.19,1.19,0,0,1,28.3,21.508Zm5.438,3.424v2.327a4.866,4.866,0,0,0-1.826.22V24.932Zm-.5,8.4a1.919,1.919,0,0,1-1.917-1.917,2.066,2.066,0,0,1,2.413-1.917v3.835Zm2.731,3.383V24.932H60.538V36.712a12.281,12.281,0,0,1-24.562,0ZM42.1,60V53.344l4.33,3.4Zm3.478-6.77V50.966a14.528,14.528,0,0,0,2.675.248h.019a14.541,14.541,0,0,0,2.675-.248v2.267L48.26,55.339Zm8.846.114V60l-4.326-3.26ZM76.16,43.437a.769.769,0,0,1-.768-.768V38.406a.768.768,0,0,1,1.535,0v4.263A.769.769,0,0,1,76.16,43.437Zm3.771,0a.769.769,0,0,1-.768-.768V38.406a.768.768,0,0,1,1.536,0v4.263A.769.769,0,0,1,79.931,43.437Zm4.539-.768a.768.768,0,0,1-1.536,0V38.406a.768.768,0,0,1,1.536,0Zm3.5,26.512h2.817L87.462,72.5V69.682A.5.5,0,0,1,87.968,69.18Z" transform="translate(-26.067 0)"/>
        <path id="Trazado_1008673" data-name="Trazado 1008673" d="M331.306,407.486a1.146,1.146,0,0,0,1.118-1.319,3.239,3.239,0,0,0,2.068-2.5,2.915,2.915,0,0,0-1.976-3.3,7.543,7.543,0,0,1-1.843-.85c-.219-.219.141-.689.327-.746a1.47,1.47,0,0,1,1.113.147c1.329.816,2.531-.457,1.517-1.643a3.174,3.174,0,0,0-1.206-.654,1.122,1.122,0,1,0-2.236.065,2.786,2.786,0,0,0-1.741,2.116,2.513,2.513,0,0,0,.844,2.472,8.958,8.958,0,0,0,2.479,1.2.683.683,0,0,1,.517.823.99.99,0,0,1-.989.841,1.88,1.88,0,0,1-1.4-.36,1.118,1.118,0,1,0-1.225,1.87,3.968,3.968,0,0,0,1.51.65,1.124,1.124,0,0,0,1.118,1.191Z" transform="translate(-283.147 -336.505)"/>
        <path id="Trazado_1008674" data-name="Trazado 1008674" d="M327.139,330.057h16.1a1.118,1.118,0,0,0,0-2.236h-16.1A1.118,1.118,0,0,0,327.139,330.057Z" transform="translate(-281.323 -278.963)"/>
        <path id="Trazado_1008675" data-name="Trazado 1008675" d="M327.139,362.262h16.1a1.118,1.118,0,0,0,0-2.236h-16.1A1.118,1.118,0,0,0,327.139,362.262Z" transform="translate(-281.323 -306.368)"/>
      </g>
    </g>
  </g>
</svg>
