<svg xmlns="http://www.w3.org/2000/svg" width="98" height="98" viewBox="0 0 98 98">
  <g id="Grupo_1177476" data-name="Grupo 1177476" transform="translate(-289.609 -11611.898)">
    <g id="Grupo_1177473" data-name="Grupo 1177473" transform="translate(289.609 11611.898)">
      <ellipse id="Elipse_13609" data-name="Elipse 13609" cx="49" cy="49" rx="49" ry="49" transform="translate(0)" fill="#fff"/>
      <g id="Grupo_1183275" data-name="Grupo 1183275" transform="translate(17.604 -18.368)">
        <path id="Trazado_1008728" data-name="Trazado 1008728" d="M82.009,101.61l-5.2,5.2-1.3-1.3a1.226,1.226,0,0,0-1.734,1.735l2.168,2.168a1.226,1.226,0,0,0,1.734,0l6.07-6.07a1.226,1.226,0,0,0-1.734-1.735Z" transform="translate(-64.408 -52.862)" fill="#53435c"/>
        <ellipse id="Elipse_16089" data-name="Elipse 16089" cx="1.5" cy="1" rx="1.5" ry="1" transform="translate(38.396 84.368)" fill="#53435c"/>
        <path id="Trazado_1008729" data-name="Trazado 1008729" d="M281.717,258.358a7.358,7.358,0,1,0-7.358,7.358A7.367,7.367,0,0,0,281.717,258.358Zm-12.264,0a4.906,4.906,0,1,1,4.906,4.906A4.911,4.911,0,0,1,269.453,258.358Z" transform="translate(-234.255 -184.245)" fill="#53435c"/>
        <path id="Trazado_1008730" data-name="Trazado 1008730" d="M61.566,52.038H25.387V45.292a1.227,1.227,0,0,0-.359-.867l-3.066-3.066A1.227,1.227,0,0,0,21.094,41H7.6a1.227,1.227,0,0,0-.867.359L3.671,44.425a1.227,1.227,0,0,0-.359.867v7.3A16.347,16.347,0,0,0,13.918,67.9a1.226,1.226,0,0,0,.861,0,16.417,16.417,0,0,0,2.635-1.268v6.251H4.292a4.29,4.29,0,0,0-3,7.358,4.283,4.283,0,0,0,0,6.132,4.29,4.29,0,0,0,3,7.358h18.4a4.29,4.29,0,0,0,3-7.358h8.9a1.226,1.226,0,1,0,0-2.453H26.936a4.277,4.277,0,0,0-1.248-3.679,4.29,4.29,0,0,0-3-7.358H19.868V70.33A7.375,7.375,0,0,0,25.9,64.3H54.311a7.375,7.375,0,0,0,6.028,6.028V77.9a7.375,7.375,0,0,0-6.028,6.028H45.622a1.226,1.226,0,1,0,0,2.453H61.566a1.226,1.226,0,0,0,1.226-1.226V53.264a1.226,1.226,0,0,0-1.226-1.226ZM60.339,83.924H56.815A4.924,4.924,0,0,1,60.339,80.4ZM22.689,91.283H4.292a1.84,1.84,0,1,1,0-3.679h18.4a1.84,1.84,0,1,1,0,3.679Zm0-6.132H4.292a1.84,1.84,0,0,1,0-3.679h18.4a1.84,1.84,0,0,1,0,3.679Zm0-9.811a1.84,1.84,0,1,1,0,3.679H4.292a1.84,1.84,0,1,1,0-3.679Zm-8.34-9.9A13.963,13.963,0,0,1,5.764,52.6V45.8l2.348-2.348H20.586L22.934,45.8v6.8A13.963,13.963,0,0,1,14.349,65.436Zm5.519,2.389V64.844c.2-.176.4-.356.586-.542h2.938a4.924,4.924,0,0,1-3.524,3.524Zm40.471,0A4.924,4.924,0,0,1,56.815,64.3h3.524Zm0-5.977H22.515a16.424,16.424,0,0,0,1.39-2.453H60.339Zm0-4.906H24.8a16.247,16.247,0,0,0,.477-2.453H60.339Z" fill="#53435c"/>
      </g>
    </g>
  </g>
</svg>
