<svg xmlns="http://www.w3.org/2000/svg" width="98" height="98" viewBox="0 0 98 98">
  <g id="Grupo_1177475" data-name="Grupo 1177475" transform="translate(-280.609 -11611.898)">
    <g id="Grupo_1177473" data-name="Grupo 1177473" transform="translate(280.609 11611.898)">
      <ellipse id="Elipse_13609" data-name="Elipse 13609" cx="49" cy="49" rx="49" ry="49" transform="translate(0)" fill="#fff"/>
      <g id="Grupo_1183276" data-name="Grupo 1183276" transform="translate(21.907 21.912)">
        <path id="Trazado_1008731" data-name="Trazado 1008731" d="M437.7,372.691l-.014.009a1.058,1.058,0,0,0,1.189,1.751l.013-.01a1.058,1.058,0,1,0-1.189-1.75Zm0,0" transform="translate(-390.953 -333.085)" fill="#53435c"/>
        <path id="Trazado_1008732" data-name="Trazado 1008732" d="M53.539,275.815a3.788,3.788,0,0,0-2.406-1.75,4.388,4.388,0,0,0-3.352.574L38.1,280.787a4.019,4.019,0,0,0-4.114-2.805l-4.653.335c-3.561.256-3.6.232-5.794-1.038-.48-.278-1.077-.624-1.816-1.028-3.672-2.007-4.977-2.255-9.969-1.9l-2.554.184a3.179,3.179,0,0,0-3.118-2.581H3.175A3.178,3.178,0,0,0,0,275.131v15.357a3.178,3.178,0,0,0,3.175,3.174H6.081a3.179,3.179,0,0,0,3.014-2.179l11.079,4.739a1.1,1.1,0,0,0,.126.045,21.26,21.26,0,0,0,5.644,1.086,8.32,8.32,0,0,0,1.505-.135c2.026-.369,3.974-1.506,7.081-3.611l9.808-6.638a1.058,1.058,0,0,0-1.186-1.753l-9.809,6.639c-5.912,4.005-6.87,3.972-12.4,2.4l-11.689-5v-12.6l2.65-.191c4.775-.344,5.632-.091,8.8,1.642.716.391,1.275.716,1.769,1,2.52,1.461,2.933,1.611,7.008,1.318l4.653-.335a1.9,1.9,0,0,1,2.023,1.752,2.1,2.1,0,0,1-1.883,2.041c-2.815.564-5.533,1.066-8.161,1.552-1.32.244-2.685.5-4.048.754a1.058,1.058,0,0,0,.2,2.1,1.08,1.08,0,0,0,.2-.019c1.358-.257,2.721-.509,4.039-.752,2.636-.487,5.362-.991,8.193-1.558a4.381,4.381,0,0,0,3.337-2.622l10.885-6.913a2.294,2.294,0,0,1,1.726-.3,1.677,1.677,0,0,1,1.079.772,2.1,2.1,0,0,1-.506,2.865l-1.964,1.329a1.058,1.058,0,1,0,1.186,1.752l1.964-1.329a4.193,4.193,0,0,0,1.14-5.7ZM6.081,291.546H3.175a1.059,1.059,0,0,1-1.058-1.058V275.131a1.06,1.06,0,0,1,1.058-1.058H6.081a1.06,1.06,0,0,1,1.058,1.058v15.357A1.059,1.059,0,0,1,6.081,291.546Zm0,0" transform="translate(0 -243.176)" fill="#53435c"/>
        <path id="Trazado_1008733" data-name="Trazado 1008733" d="M197.638,78.454h2.343v1.965h-1.863a1.058,1.058,0,0,0,0,2.116h1.863v1.21a1.058,1.058,0,0,0,2.116,0v-1.21h2.343a3.1,3.1,0,0,0,0-6.2h-6.8a.982.982,0,0,1,0-1.965h6.322a1.058,1.058,0,0,0,0-2.116H202.1V71.047a1.058,1.058,0,1,0-2.116,0v1.209h-2.343a3.1,3.1,0,0,0,0,6.2Zm7.785.982a.984.984,0,0,1-.982.983H202.1V78.454h2.343A.983.983,0,0,1,205.422,79.436Zm0,0" transform="translate(-173.95 -62.583)" fill="#53435c"/>
        <path id="Trazado_1008734" data-name="Trazado 1008734" d="M130.795,29.627A14.814,14.814,0,1,0,123.754,1.78a1.058,1.058,0,1,0,1.006,1.862A12.7,12.7,0,1,1,119.8,8.464a1.058,1.058,0,1,0-1.833-1.058,14.814,14.814,0,0,0,12.829,22.221Zm0,0" transform="translate(-103.706)" fill="#53435c"/>
        <path id="Trazado_1008735" data-name="Trazado 1008735" d="M151.949,43.213a1.055,1.055,0,0,0,.775-.337l.027-.029A1.058,1.058,0,0,0,151.2,41.4l-.027.029a1.058,1.058,0,0,0,.774,1.779Zm0,0" transform="translate(-134.922 -36.722)" fill="#53435c"/>
        <path id="Trazado_1008736" data-name="Trazado 1008736" d="M159.405,54.853a11.428,11.428,0,1,0-11.428-11.428A11.441,11.441,0,0,0,159.405,54.853Zm0-20.74a9.311,9.311,0,1,1-9.312,9.311,9.322,9.322,0,0,1,9.312-9.311Zm0,0" transform="translate(-132.316 -28.612)" fill="#53435c"/>
      </g>
    </g>
  </g>
</svg>
