<svg xmlns="http://www.w3.org/2000/svg" width="84" height="84" viewBox="0 0 84 84">
  <g id="Grupo_1182465" data-name="Grupo 1182465" transform="translate(-72.746 -7992)">
    <g id="Elipse_13628" data-name="Elipse 13628" transform="translate(72.746 7992)" fill="#fdf3e6" stroke="#ff984a" stroke-width="6">
      <circle cx="42" cy="42" r="42" stroke="none"/>
      <circle cx="42" cy="42" r="39" fill="none"/>
    </g>
    <g id="Layer_32" data-name="Layer 32" transform="translate(92.735 8011.989)">
      <path id="Trazado_1008737" data-name="Trazado 1008737" d="M52,6h6.778v4.067l-2.033.678v2.033H52Z" transform="translate(-16.433 -1.611)" fill="#f19537"/>
      <path id="Trazado_1008738" data-name="Trazado 1008738" d="M52,20h6.778v4.067l-2.033.678v2.033H52Z" transform="translate(-16.433 -6.122)" fill="#82d055"/>
      <path id="Trazado_1008739" data-name="Trazado 1008739" d="M2,4.033A2.033,2.033,0,0,1,4.033,2H37.245V38.6l-2.033,2.033,2.033,2.033H4.033A2.033,2.033,0,0,1,2,40.634Z" transform="translate(-0.322 -0.322)" fill="#4da8e2"/>
      <path id="Trazado_1008740" data-name="Trazado 1008740" d="M2,4.033v36.6a2.016,2.016,0,0,0,.082.542L6.744,38.6V2H4.033A2.033,2.033,0,0,0,2,4.033Z" transform="translate(-0.322 -0.322)" fill="#3a64db"/>
      <path id="Trazado_1008741" data-name="Trazado 1008741" d="M14,11.843A23.369,23.369,0,0,0,37.369,35.211h3.743V2H14Z" transform="translate(-4.189 -0.322)" fill="#68c1f7"/>
      <path id="Trazado_1008742" data-name="Trazado 1008742" d="M4.033,60.067H37.245l-2.033-2.033L37.245,56H4.033a2.033,2.033,0,0,0,0,4.067Z" transform="translate(-0.322 -17.722)" fill="#abe7ff"/>
      <g id="Grupo_1183277" data-name="Grupo 1183277" transform="translate(9.811 13.878)">
        <path id="Trazado_1008743" data-name="Trazado 1008743" d="M14,36.267l6.778-6.1,4.406,4.406,9.828-9.828,2.033,2.033L37.722,20l-6.778.678,2.033,2.033-7.794,7.794L20.778,26.1,14,32.2Z" transform="translate(-14 -20)" fill="#ec525b"/>
        <path id="Trazado_1008744" data-name="Trazado 1008744" d="M17.389,49.744V45L14,47.711v2.033Z" transform="translate(-14 -28.055)" fill="#ec525b"/>
        <path id="Trazado_1008745" data-name="Trazado 1008745" d="M23,41v7.456h3.389V44.389Z" transform="translate(-16.9 -26.767)" fill="#ec525b"/>
        <path id="Trazado_1008746" data-name="Trazado 1008746" d="M35.389,41v7.456H32V44.389Z" transform="translate(-19.8 -26.767)" fill="#ec525b"/>
        <path id="Trazado_1008747" data-name="Trazado 1008747" d="M41,35.389V45.556h3.389V32Z" transform="translate(-22.7 -23.867)" fill="#ec525b"/>
      </g>
      <path id="Trazado_1008748" data-name="Trazado 1008748" d="M17.389,5H14.678A.678.678,0,0,0,14,5.678V11.1h1.356V9.067h2.033a2.033,2.033,0,0,0,0-4.067Zm0,2.711H15.356V6.356h2.033a.678.678,0,1,1,0,1.356Z" transform="translate(-4.189 -1.289)" fill="#f2f2f2"/>
      <path id="Trazado_1008749" data-name="Trazado 1008749" d="M24.356,5H23v5.422a.678.678,0,0,0,.678.678h3.389V9.744H24.356Z" transform="translate(-7.089 -1.289)" fill="#f2f2f2"/>
      <path id="Trazado_1008750" data-name="Trazado 1008750" d="M32.711,5A2.711,2.711,0,0,0,30,7.711V11.1h1.356V9.744h2.711V11.1h1.356V7.711A2.711,2.711,0,0,0,32.711,5ZM31.356,8.389V7.711a1.356,1.356,0,1,1,2.711,0v.678Z" transform="translate(-9.344 -1.289)" fill="#f2f2f2"/>
      <path id="Trazado_1008751" data-name="Trazado 1008751" d="M44.744,5V9.609a.144.144,0,0,1-.267.054L42.868,5.906A1.495,1.495,0,0,0,40,6.494V11.1h1.356V6.494a.144.144,0,0,1,.267-.054l1.609,3.754A1.495,1.495,0,0,0,46.1,9.609V5Z" transform="translate(-12.567 -1.289)" fill="#f2f2f2"/>
      <path id="Trazado_1008752" data-name="Trazado 1008752" d="M13.4,36.562a.678.678,0,0,0,.729-.116l6.3-5.67,3.951,3.951a.678.678,0,0,0,.958,0l9.349-9.349,1.554,1.554a.678.678,0,0,0,1.157-.411l.678-6.778A.678.678,0,0,0,37.336,19l-6.778.678a.678.678,0,0,0-.411,1.152L31.7,22.387l-6.836,6.836L20.935,25.3A.678.678,0,0,0,20,25.273l-6.778,6.1a.678.678,0,0,0-.224.5v4.067a.678.678,0,0,0,.4.619Zm.954-4.385,6.076-5.468,3.951,3.951a.678.678,0,0,0,.958,0l7.794-7.794a.678.678,0,0,0,0-.958l-1.021-1.022,4.53-.453-.453,4.53-1.022-1.022a.678.678,0,0,0-.958,0L24.861,33.29l-3.926-3.926A.678.678,0,0,0,20,29.339l-5.647,5.082Z" transform="translate(-3.867 -5.798)"/>
      <path id="Trazado_1008753" data-name="Trazado 1008753" d="M13.678,50.1h3.389a.678.678,0,0,0,.678-.678V44.678a.678.678,0,0,0-1.1-.529l-3.389,2.711a.678.678,0,0,0-.254.529v2.033A.678.678,0,0,0,13.678,50.1Zm.678-2.386,2.033-1.627v2.657H14.356Z" transform="translate(-3.867 -13.855)"/>
      <path id="Trazado_1008754" data-name="Trazado 1008754" d="M23.157,40.2A.678.678,0,0,0,22,40.678v7.456a.678.678,0,0,0,.678.678h3.389a.678.678,0,0,0,.678-.678V44.067a.678.678,0,0,0-.2-.479Zm2.232,7.257H23.356V42.314l2.033,2.033Z" transform="translate(-6.767 -12.567)"/>
      <path id="Trazado_1008755" data-name="Trazado 1008755" d="M35.326,40.051a.678.678,0,0,0-.739.147L31.2,43.587a.678.678,0,0,0-.2.479v4.067a.678.678,0,0,0,.678.678h3.389a.678.678,0,0,0,.678-.678V40.678a.678.678,0,0,0-.418-.626Zm-.937,7.4H32.356V44.347l2.033-2.033Z" transform="translate(-9.667 -12.566)"/>
      <path id="Trazado_1008756" data-name="Trazado 1008756" d="M44.326,31.051a.678.678,0,0,0-.739.147L40.2,34.587a.678.678,0,0,0-.2.479V45.233a.678.678,0,0,0,.678.678h3.389a.678.678,0,0,0,.678-.678V31.678A.678.678,0,0,0,44.326,31.051Zm-.937,13.5H41.356V35.347l2.033-2.033Z" transform="translate(-12.567 -9.667)"/>
      <path id="Trazado_1008757" data-name="Trazado 1008757" d="M15.356,9.067h2.033a2.033,2.033,0,0,0,0-4.067H14.678A.678.678,0,0,0,14,5.678V11.1h1.356Zm0-2.711h2.033a.678.678,0,1,1,0,1.356H15.356Z" transform="translate(-4.189 -1.289)"/>
      <path id="Trazado_1008758" data-name="Trazado 1008758" d="M23.678,11.1h3.389V9.744H24.356V5H23v5.422A.678.678,0,0,0,23.678,11.1Z" transform="translate(-7.089 -1.289)"/>
      <path id="Trazado_1008759" data-name="Trazado 1008759" d="M31.356,9.744h2.711V11.1h1.356V7.711a2.711,2.711,0,0,0-5.422,0V11.1h1.356Zm1.356-3.389a1.356,1.356,0,0,1,1.356,1.356v.678H31.356V7.711A1.356,1.356,0,0,1,32.711,6.356Z" transform="translate(-9.344 -1.289)"/>
      <path id="Trazado_1008760" data-name="Trazado 1008760" d="M41.356,6.494a.144.144,0,0,1,.267-.054l1.609,3.754A1.495,1.495,0,0,0,46.1,9.609V5H44.744V9.609a.144.144,0,0,1-.267.054L42.868,5.906A1.495,1.495,0,0,0,40,6.494V11.1h1.356Z" transform="translate(-12.567 -1.289)"/>
      <path id="Trazado_1008761" data-name="Trazado 1008761" d="M42.345,3.711H37.6V1.678A.678.678,0,0,0,36.922,1H3.711A2.711,2.711,0,0,0,1,3.711v36.6a2.711,2.711,0,0,0,2.711,2.711H36.922a.678.678,0,0,0,.479-1.157l-1.554-1.554L37.4,38.757a.678.678,0,0,0,.2-.479V21.333h2.711a.678.678,0,0,0,.678-.678V19.111l1.57-.523a.678.678,0,0,0,.464-.643V13.878a.678.678,0,0,0-.678-.678H37.6V11.845h2.711a.678.678,0,0,0,.678-.678V9.622l1.57-.523a.678.678,0,0,0,.464-.643V4.389a.678.678,0,0,0-.678-.678ZM36.245,37.6H7.1V2.356H36.245ZM3.711,2.356H5.744V37.6H3.711a2.683,2.683,0,0,0-1.356.377V3.711A1.356,1.356,0,0,1,3.711,2.356Zm0,39.311a1.356,1.356,0,0,1,0-2.711H35.286l-.876.876a.678.678,0,0,0,0,.958l.876.876ZM41.667,14.556v2.9l-1.57.523a.678.678,0,0,0-.464.643v1.356H37.6V14.556Zm0-6.589L40.1,8.49a.678.678,0,0,0-.464.643v1.356H37.6V5.067h4.067Z"/>
    </g>
  </g>
</svg>
