<svg xmlns="http://www.w3.org/2000/svg" width="96" height="96" viewBox="0 0 96 96">
  <g id="Grupo_154427" data-name="Grupo 154427" transform="translate(-794.039 -2920.081)">
    <path id="Elipse_5729" data-name="Elipse 5729" d="M48,0A48,48,0,1,1,0,48,48,48,0,0,1,48,0Z" transform="translate(794.039 2920.081)" fill="#ff984a"/>
    <g id="Grupo_1183193" data-name="Grupo 1183193" transform="translate(810.327 2943.926)">
      <path id="Trazado_1008471" data-name="Trazado 1008471" d="M264.1,116.841a7.453,7.453,0,0,0,0,14.906h0a7.453,7.453,0,0,0,0-14.906Zm0,13.491a6.038,6.038,0,1,1,6.038-6.038A6.027,6.027,0,0,1,264.1,130.332Z" transform="translate(-224.87 -105.817)" fill="#53435c"/>
      <path id="Trazado_1008472" data-name="Trazado 1008472" d="M54.232,29.4,52.764,27.93a.708.708,0,1,0-1,1L53.231,30.4a1.474,1.474,0,0,1-2.084,2.084l-5.7-5.7A10.514,10.514,0,0,0,47.537,24.7L49.428,26.6a.708.708,0,1,0,1-1l-2.1-2.1a10.407,10.407,0,0,0-.477-10.805V6.36A2.22,2.22,0,0,0,45.63,4.142H43.843V2.217A2.22,2.22,0,0,0,41.626,0H21.9a.708.708,0,0,0,0,1.415H41.626a.8.8,0,0,1,.8.8V4.142H14.568A2.22,2.22,0,0,0,12.35,6.36V42.75H10.563a.8.8,0,0,1-.8-.8V2.217a.8.8,0,0,1,.8-.8H18.6A.708.708,0,0,0,18.6,0H10.563A2.22,2.22,0,0,0,8.346,2.217V41.948a2.22,2.22,0,0,0,2.217,2.217H12.35V46.09a2.22,2.22,0,0,0,2.217,2.217H45.63a2.22,2.22,0,0,0,2.217-2.217V31.184l2.3,2.3A2.889,2.889,0,1,0,54.232,29.4ZM33.2,25.118a8.967,8.967,0,1,1,15-6.641A8.938,8.938,0,0,1,33.2,25.118ZM46.432,46.09a.8.8,0,0,1-.8.8H14.568a.8.8,0,0,1-.8-.8V6.36a.8.8,0,0,1,.8-.8H45.63a.8.8,0,0,1,.8.8V11a10.384,10.384,0,1,0-8.324,17.8,10.46,10.46,0,0,0,6.128-1.227l2.2,2.2V46.09Z" fill="#53435c"/>
      <path id="Trazado_1008473" data-name="Trazado 1008473" d="M96.827,106.818h8.759a.708.708,0,1,0,0-1.415H96.827a.708.708,0,1,0,0,1.415Z" transform="translate(-79.492 -95.458)" fill="#53435c"/>
      <path id="Trazado_1008474" data-name="Trazado 1008474" d="M96.827,149.338h8.759a.708.708,0,1,0,0-1.415H96.827a.708.708,0,1,0,0,1.415Z" transform="translate(-79.492 -133.966)" fill="#53435c"/>
      <path id="Trazado_1008475" data-name="Trazado 1008475" d="M96.827,191.858h8.759a.708.708,0,0,0,0-1.415H96.827a.708.708,0,0,0,0,1.415Z" transform="translate(-79.492 -172.475)" fill="#53435c"/>
      <path id="Trazado_1008476" data-name="Trazado 1008476" d="M96.827,237.212h8.759a.708.708,0,1,0,0-1.415H96.827a.708.708,0,1,0,0,1.415Z" transform="translate(-79.492 -213.549)" fill="#53435c"/>
      <path id="Trazado_1008477" data-name="Trazado 1008477" d="M117.994,307.431h-7.465l-.851-1.922a8.075,8.075,0,0,0,1.952-9.18h6.819a.708.708,0,0,0,0-1.415h-7.615a8.093,8.093,0,1,0-2.313,11.479l.9,2.032a.708.708,0,0,0,.647.421h7.925a.708.708,0,0,0,0-1.415Zm-14.492-7.88v6.639a6.676,6.676,0,1,1,5.5-11.277h-1.1a.708.708,0,0,0,0,1.415h2.152a6.624,6.624,0,0,1,.795,2.515H104.21A.708.708,0,0,0,103.5,299.552Zm1.415,6.639v-5.932h5.932a6.656,6.656,0,0,1-1.783,3.867l-.518-1.169a.708.708,0,1,0-1.294.573l.687,1.553A6.635,6.635,0,0,1,104.917,306.191Z" transform="translate(-79.491 -263.96)" fill="#53435c"/>
      <path id="Trazado_1008478" data-name="Trazado 1008478" d="M330.523,369.721h-4.514a.708.708,0,0,0,0,1.415h4.514a.708.708,0,0,0,0-1.415Z" transform="translate(-287.05 -334.837)" fill="#53435c"/>
      <path id="Trazado_1008479" data-name="Trazado 1008479" d="M330.523,406.571h-4.514a.708.708,0,0,0,0,1.415h4.514a.708.708,0,0,0,0-1.415Z" transform="translate(-287.05 -368.211)" fill="#53435c"/>
      <path id="Trazado_1008480" data-name="Trazado 1008480" d="M303.111,165.1l-3.9,3.751-.848-1.713a.708.708,0,0,0-1.268.628l1.276,2.579a.708.708,0,0,0,1.125.2l4.595-4.421a.708.708,0,1,0-.981-1.02Z" transform="translate(-261.44 -149.344)" fill="#53435c"/>
    </g>
  </g>
</svg>
