<svg xmlns="http://www.w3.org/2000/svg" width="96" height="96" viewBox="0 0 96 96">
  <g id="Grupo_154427" data-name="Grupo 154427" transform="translate(-794.039 -2920.08)">
    <path id="Elipse_5729" data-name="Elipse 5729" d="M48,0A48,48,0,1,1,0,48,48,48,0,0,1,48,0Z" transform="translate(794.039 2920.081)" fill="#ff984a"/>
    <g id="Grupo_1183195" data-name="Grupo 1183195" transform="translate(816.637 2942.463)">
      <path id="Trazado_1008499" data-name="Trazado 1008499" d="M45.869,35.636H34.061V17.362a8.633,8.633,0,0,0,.832-.483L37.709,20.4a7.186,7.186,0,1,0,1.234-.979L36.12,15.893a8.632,8.632,0,0,0,2.624-5.446h2.7l1.574,3.149H49.5L47.536,9.659,49.5,5.723H43.021L41.446,8.872h-2.7A8.648,8.648,0,0,0,24.581,3.017,2.359,2.359,0,0,0,22.254,1H12.808a2.358,2.358,0,0,0-2.217,1.574H4.936A3.94,3.94,0,0,0,1,6.51V45.869A3.94,3.94,0,0,0,4.936,49.8h25.19a3.94,3.94,0,0,0,3.936-3.936V43.507H45.869a3.936,3.936,0,0,0,0-7.872ZM48.23,25.4a5.51,5.51,0,1,1-5.51-5.51A5.517,5.517,0,0,1,48.23,25.4ZM43.994,12.02l-.787-1.574H46.17l.787,1.574Zm0-4.723h2.963L46.17,8.872H43.207Zm-33.4,0a2.358,2.358,0,0,0,2.217,1.574h8.7c-.024.26-.04.521-.04.787a8.629,8.629,0,0,0,2.816,6.371l-1.2,1.575a10.326,10.326,0,1,0,1.248.958l1.2-1.577a8.586,8.586,0,0,0,3.806,1.292V35.636H25.259l-5.694,2.136a1.923,1.923,0,0,0,0,3.6l5.694,2.135h4.079v1.574H5.723V7.3ZM21.466,30.125H19.892v-6.3h1.574Zm-3.149,0H16.743V22.254h1.574Zm-3.149,0H13.595V26.977h1.574ZM24.205,31.7a8.648,8.648,0,0,1-13.349,0Zm1.029-1.574H23.041V22.254H19.892V20.679H15.169V25.4H12.02v4.723H9.827a8.659,8.659,0,1,1,15.407,0ZM20.119,39.9a.349.349,0,0,1,0-.654l4.5-1.686v4.026Zm6.071,2.034V40.359H41.933v1.574Zm15.743-3.149H26.19V37.21H41.933Zm-9.446-3.149H30.913V18.278a8.518,8.518,0,0,0,1.574-.3ZM30.125,2.574a7.092,7.092,0,0,1,7.038,6.3H33.982a3.936,3.936,0,1,0,0,1.574h3.182a7.083,7.083,0,1,1-7.038-7.872Zm2.217,7.872a2.362,2.362,0,1,1,0-1.574h-3v1.574ZM12.02,3.362a.788.788,0,0,1,.787-.787h9.446a.788.788,0,0,1,.787.787V4.7a8.61,8.61,0,0,0-1.237,2.6l-9,0a.788.788,0,0,1-.787-.787ZM32.487,45.869a2.364,2.364,0,0,1-2.362,2.362H4.936a2.364,2.364,0,0,1-2.362-2.362V6.51A2.364,2.364,0,0,1,4.936,4.149h5.51V5.723H5.723A1.576,1.576,0,0,0,4.149,7.3V45.082a1.576,1.576,0,0,0,1.574,1.574H29.338a1.576,1.576,0,0,0,1.574-1.574V43.507h1.574Zm13.382-3.936H43.507V37.21h2.362a2.362,2.362,0,0,1,0,4.723Z" fill="#53435c"/>
      <path id="Trazado_1008500" data-name="Trazado 1008500" d="M49,32.811a2.061,2.061,0,0,0,2.983,1.844l3.751-1.875a2.062,2.062,0,0,0,0-3.687l-3.75-1.875A2.061,2.061,0,0,0,49,29.061Zm1.574-3.75a.487.487,0,0,1,.486-.486.482.482,0,0,1,.217.051l3.75,1.875a.487.487,0,0,1,0,.871l-3.75,1.875a.5.5,0,0,1-.7-.435Z" transform="translate(-10.216 -5.534)" fill="#53435c"/>
      <path id="Trazado_1008501" data-name="Trazado 1008501" d="M9,49h9.446v1.574H9Z" transform="translate(-1.703 -10.216)" fill="#53435c"/>
      <path id="Trazado_1008502" data-name="Trazado 1008502" d="M9,53h9.446v1.574H9Z" transform="translate(-1.703 -11.067)" fill="#53435c"/>
      <path id="Trazado_1008503" data-name="Trazado 1008503" d="M9,13h1.574v1.574H9Z" transform="translate(-1.703 -2.554)" fill="#53435c"/>
      <path id="Trazado_1008504" data-name="Trazado 1008504" d="M13,13h9.446v1.574H13Z" transform="translate(-2.554 -2.554)" fill="#53435c"/>
      <path id="Trazado_1008505" data-name="Trazado 1008505" d="M9,17h1.574v1.574H9Z" transform="translate(-1.703 -3.405)" fill="#53435c"/>
      <path id="Trazado_1008506" data-name="Trazado 1008506" d="M13,17h9.446v1.574H13Z" transform="translate(-2.554 -3.405)" fill="#53435c"/>
    </g>
  </g>
</svg>
