<svg xmlns="http://www.w3.org/2000/svg" width="160" height="160" viewBox="0 0 160 160">
  <g id="Grupo_1182393" data-name="Grupo 1182393" transform="translate(-383.891 -8399.578)">
    <circle id="Elipse_13609" data-name="Elipse 13609" cx="80" cy="80" r="80" transform="translate(383.891 8399.578)" fill="#fff"/>
    <path id="Trazado_1008233" data-name="Trazado 1008233" d="M16.918,63.949A37.192,37.192,0,0,1,27.081,24.89a1.429,1.429,0,0,1-.2-2.846l4.869-.628a1.429,1.429,0,0,1,1.5,1.967l-1.89,4.53a1.429,1.429,0,0,1-2.748-.541,34.408,34.408,0,0,0-8.976,35.682,1.429,1.429,0,1,1-2.714.894ZM62.471,85.135A34.606,34.606,0,0,1,47.2,86.292l.091-.034a1.429,1.429,0,0,0-.985-2.682L41.7,85.268a1.429,1.429,0,0,0-.423,2.438l3.769,3.145a1.429,1.429,0,0,0,2.227-1.663,37.467,37.467,0,0,0,16.044-1.324,1.428,1.428,0,1,0-.845-2.729Zm9.367-61.127A34.419,34.419,0,0,1,86.369,56.833a1.429,1.429,0,0,0-2.582,1.186l1.558,4.655a1.429,1.429,0,0,0,2.425.493l3.253-3.677a1.429,1.429,0,0,0-1.838-2.152,37.276,37.276,0,0,0-15.72-35.68,1.429,1.429,0,1,0-1.627,2.349ZM52.269,75.863a19.512,19.512,0,1,1,8.709-36.974L66.963,32.9a1.429,1.429,0,0,1,2.407.709l.649,3.01,0,0a1.429,1.429,0,0,1,2.02,2.02l0,0,3.009.649a1.429,1.429,0,0,1,.709,2.407l-6,6a19.515,19.515,0,0,1-17.49,28.166ZM69.634,41.047l-4.786,4.786,2.248.485,4.786-4.786Zm-13.91,13.91L53.3,57.382a1.429,1.429,0,0,1-2.021-2.021l2.444-2.444a3.74,3.74,0,1,0,2,2.039Zm2.689-6.73a10.19,10.19,0,1,0,2.016,2.025l-2.59,2.59a6.6,6.6,0,1,1-2.011-2.03Zm3.93-6.663.485,2.249,4.786-4.786-.485-2.249ZM52.269,73.006A16.657,16.657,0,0,0,67.354,49.291c-.033,0-.066-.009-.1-.016l-4.772-1.028a13.066,13.066,0,1,1-2.072-2.08l-1.026-4.761c-.009-.04-.013-.081-.018-.121a16.655,16.655,0,1,0-7.1,31.721Zm44.31,5.73v3.913a1.429,1.429,0,0,1-.915,1.333l-1.718.661a13.734,13.734,0,0,1-1.088,2.625l.748,1.683a1.429,1.429,0,0,1-.3,1.59l-2.767,2.767a1.428,1.428,0,0,1-1.59.3l-1.683-.747a13.749,13.749,0,0,1-2.626,1.089l-.661,1.717a1.428,1.428,0,0,1-1.333.916H78.735a1.429,1.429,0,0,1-1.333-.915l-.661-1.718a13.727,13.727,0,0,1-2.625-1.088l-1.683.748a1.429,1.429,0,0,1-1.59-.3l-2.767-2.767a1.429,1.429,0,0,1-.3-1.59l.747-1.683a13.728,13.728,0,0,1-1.089-2.626l-1.717-.661a1.429,1.429,0,0,1-.915-1.333V78.736a1.429,1.429,0,0,1,.915-1.333l1.717-.661a13.724,13.724,0,0,1,1.089-2.626l-.748-1.683a1.429,1.429,0,0,1,.3-1.59l2.767-2.767a1.429,1.429,0,0,1,1.59-.3l1.684.748a13.753,13.753,0,0,1,2.625-1.088l.661-1.717a1.429,1.429,0,0,1,1.333-.915h3.914a1.429,1.429,0,0,1,1.333.915l.661,1.717a13.749,13.749,0,0,1,2.625,1.088l1.683-.748a1.428,1.428,0,0,1,1.59.3l2.767,2.767a1.429,1.429,0,0,1,.3,1.59l-.747,1.683a13.716,13.716,0,0,1,1.089,2.626l1.717.661a1.428,1.428,0,0,1,.915,1.333Zm-2.857.981-1.48-.57a1.428,1.428,0,0,1-.877-1,10.885,10.885,0,0,0-1.325-3.2,1.428,1.428,0,0,1-.089-1.329l.644-1.451-1.38-1.38-1.451.644a1.428,1.428,0,0,1-1.329-.089A10.9,10.9,0,0,0,83.24,70.02a1.428,1.428,0,0,1-1-.876l-.57-1.48H79.716l-.57,1.48a1.428,1.428,0,0,1-1,.876,10.9,10.9,0,0,0-3.195,1.325,1.428,1.428,0,0,1-1.329.089l-1.451-.644-1.38,1.38.645,1.451a1.428,1.428,0,0,1-.089,1.329,10.884,10.884,0,0,0-1.325,3.195,1.428,1.428,0,0,1-.877,1l-1.48.57v1.951l1.48.57a1.429,1.429,0,0,1,.877,1,10.888,10.888,0,0,0,1.325,3.2,1.428,1.428,0,0,1,.089,1.329l-.644,1.451,1.38,1.38,1.451-.645a1.428,1.428,0,0,1,1.329.089,10.885,10.885,0,0,0,3.194,1.324,1.429,1.429,0,0,1,1,.877l.57,1.48h1.951l.57-1.48a1.428,1.428,0,0,1,1-.876,10.9,10.9,0,0,0,3.2-1.325,1.427,1.427,0,0,1,1.329-.089l1.451.644,1.38-1.38-.645-1.451a1.428,1.428,0,0,1,.089-1.329,10.9,10.9,0,0,0,1.325-3.195,1.429,1.429,0,0,1,.877-1l1.48-.57V79.716Zm-3.732.976a9.3,9.3,0,1,1-9.3-9.3,9.307,9.307,0,0,1,9.3,9.3Zm-2.857,0a6.44,6.44,0,1,0-6.44,6.439,6.447,6.447,0,0,0,6.44-6.439ZM37.359,81.9a14.68,14.68,0,1,1-14.68-14.68A14.7,14.7,0,0,1,37.359,81.9Zm-2.857,0A11.822,11.822,0,1,0,22.68,93.721,11.836,11.836,0,0,0,34.5,81.9ZM22.923,80.441c-2.562-.421-2.608-1.371-2.626-1.729-.066-1.349,1.4-1.75,1.694-1.817a2.757,2.757,0,0,1,3.272,1.53A1.429,1.429,0,0,0,27.9,77.32a5.321,5.321,0,0,0-3.79-3.2v-.609a1.429,1.429,0,0,0-2.857,0v.621a4.656,4.656,0,0,0-3.807,4.716c.08,1.649,1.015,3.753,5.017,4.41,2.529.415,2.947,1.24,3.029,1.912a1.107,1.107,0,0,1-.253.93,3.5,3.5,0,0,1-2.418.879,2.82,2.82,0,0,1-3-1.864,1.429,1.429,0,1,0-2.773.691,5.338,5.338,0,0,0,4.209,3.878v.6a1.429,1.429,0,1,0,2.857,0V89.71A5.721,5.721,0,0,0,27.4,87.971a3.95,3.95,0,0,0,.928-3.143c-.288-2.37-2.105-3.846-5.4-4.387ZM39.417,20.872A12.872,12.872,0,1,1,52.289,33.745,12.887,12.887,0,0,1,39.417,20.872Zm2.857,0A10.015,10.015,0,1,0,52.289,10.857,10.026,10.026,0,0,0,42.274,20.872ZM52.281,22.3l4.872.028h.008a1.429,1.429,0,0,0,.008-2.857l-3.451-.019V15.38a1.429,1.429,0,1,0-2.857,0v5.492A1.429,1.429,0,0,0,52.281,22.3Z" transform="translate(411.891 8427.578)" fill="#53435c"/>
  </g>
</svg>
