<svg xmlns="http://www.w3.org/2000/svg" width="292" height="267" viewBox="0 0 292 267">
  <g id="Grupo_1182623" data-name="Grupo 1182623" transform="translate(-185.711 -8706)">
    <rect id="Rectángulo_458010" data-name="Rectángulo 458010" width="292" height="267" transform="translate(185.711 8706)" fill="#ff984a"/>
    <g id="_34377236_bink_tech_21_single_07" data-name="34377236_bink_tech_21_single_07" transform="translate(-108.649 8442.067)">
      <g id="Illustration" transform="translate(330.387 284.697)">
        <g id="Financial_management_system_5_" transform="translate(0 0)">
          <path id="Trazado_1005754" data-name="Trazado 1005754" d="M524.549,434.934c-7.53-21.466,34.582-41.2,30.756-63.135-4.139-23.73-62.9-42.059-112.046-33.954-14.746,2.432-68.813,14.027-94.024,63.8C324.2,451.065,338.37,516.786,378.679,542.621c22.593,14.481,48.485,13.17,75.311,11.811,26.4-1.337,54.2-.431,75.144-19.283,21.971-19.78,34.162-57.822,22.036-78.036C543.224,443.871,528.6,446.475,524.549,434.934Z" transform="translate(-336.014 -329.748)" fill="#caddff"/>
          <g id="Grupo_1182558" data-name="Grupo 1182558" transform="translate(28.386 32.514)">
            <g id="Grupo_1182554" data-name="Grupo 1182554" transform="translate(0 23.437)">
              <path id="Trazado_1005755" data-name="Trazado 1005755" d="M595.224,753.012a.4.4,0,0,1-.4-.382l-.063-1.683a.4.4,0,0,1,.793-.03l.064,1.683a.4.4,0,0,1-.381.411Z" transform="translate(-591.396 -750.536)"/>
              <path id="Trazado_1005756" data-name="Trazado 1005756" d="M596.894,797.283a.4.4,0,0,1-.4-.382l-.063-1.682a.4.4,0,0,1,.381-.411.392.392,0,0,1,.411.381l.063,1.683a.4.4,0,0,1-.382.411Z" transform="translate(-592.866 -789.49)"/>
              <path id="Trazado_1005757" data-name="Trazado 1005757" d="M567.119,781.1a.4.4,0,0,1-.015-.793l1.683-.063a.4.4,0,1,1,.03.793l-1.683.064Z" transform="translate(-566.723 -776.677)"/>
              <path id="Trazado_1005758" data-name="Trazado 1005758" d="M611.391,779.432a.4.4,0,0,1-.015-.793l1.683-.063a.4.4,0,1,1,.03.793l-1.683.063Z" transform="translate(-605.677 -775.207)"/>
            </g>
            <g id="Grupo_1182555" data-name="Grupo 1182555" transform="translate(173.74)">
              <path id="Trazado_1005759" data-name="Trazado 1005759" d="M2041.731,557.878a.4.4,0,0,1-.4-.382l-.063-1.683a.4.4,0,1,1,.793-.03l.063,1.683a.4.4,0,0,1-.381.411Z" transform="translate(-2037.904 -555.402)"/>
              <path id="Trazado_1005760" data-name="Trazado 1005760" d="M2043.41,602.146a.4.4,0,0,1-.4-.382l-.063-1.683a.4.4,0,0,1,.381-.411.392.392,0,0,1,.411.381l.063,1.683a.4.4,0,0,1-.382.411Z" transform="translate(-2039.381 -594.352)"/>
              <path id="Trazado_1005761" data-name="Trazado 1005761" d="M2013.635,585.968a.4.4,0,0,1-.015-.793l1.683-.063a.39.39,0,0,1,.412.381.4.4,0,0,1-.382.411l-1.683.064Z" transform="translate(-2013.239 -581.543)"/>
              <path id="Trazado_1005762" data-name="Trazado 1005762" d="M2057.905,584.3a.4.4,0,0,1-.015-.793l1.683-.064a.392.392,0,0,1,.411.382.4.4,0,0,1-.382.411l-1.683.063Z" transform="translate(-2052.191 -580.072)"/>
            </g>
            <g id="Grupo_1182557" data-name="Grupo 1182557" transform="translate(45.422 177.308)">
              <path id="Trazado_1005763" data-name="Trazado 1005763" d="M1412.577,2050.371a2.191,2.191,0,1,1,1.276-.415A2.181,2.181,0,0,1,1412.577,2050.371Zm-.006-3.587a1.4,1.4,0,1,0,.224.018A1.422,1.422,0,0,0,1412.571,2046.784Z" transform="translate(-1354.472 -2044.265)"/>
              <g id="Grupo_1182556" data-name="Grupo 1182556">
                <path id="Trazado_1005764" data-name="Trazado 1005764" d="M970.831,2079.823a105.387,105.387,0,0,1-25.637-3.213.4.4,0,0,1,.193-.77,99.751,99.751,0,0,0,48.849.3.4.4,0,1,1,.2.768A95.171,95.171,0,0,1,970.831,2079.823Z" transform="translate(-944.893 -2070.518)"/>
                <path id="Trazado_1005765" data-name="Trazado 1005765" d="M1006.851,2035.338a97.255,97.255,0,0,1-23.482-2.931.4.4,0,0,1,.191-.77,94.319,94.319,0,0,0,33.419,2.341.4.4,0,1,1,.089.788A91.1,91.1,0,0,1,1006.851,2035.338Z" transform="translate(-978.483 -2031.625)"/>
              </g>
            </g>
          </g>
          <g id="Grupo_1182604" data-name="Grupo 1182604" transform="translate(0.489)">
            <g id="Grupo_1182570" data-name="Grupo 1182570" transform="translate(0 56.861)">
              <g id="Grupo_1182563" data-name="Grupo 1182563">
                <g id="Grupo_1182561" data-name="Grupo 1182561" transform="translate(24.113)">
                  <path id="Trazado_1005766" data-name="Trazado 1005766" d="M880.349,877.374c-3.593-2.936-7.366-5.673-11.229-8.284-7.841-5.3-16.1-10.035-24.457-14.625-4.393-2.414-8.955-4.6-13.458-6.846q-6.795-3.39-13.616-6.739-6.228-3.068-12.448-6.148c-9.42-31.846-19.651-67.951-17.619-67.951l154.457-4.36a5.392,5.392,0,0,1,5.438,6.594L928.7,875.741a8.208,8.208,0,0,1-7.75,6.594H886.578C884.551,880.626,882.4,879.049,880.349,877.374Z" transform="translate(-756.989 -761.904)" fill="#5479f7"/>
                  <g id="Grupo_1182559" data-name="Grupo 1182559" transform="translate(0 0.89)">
                    <path id="Trazado_1005767" data-name="Trazado 1005767" d="M561.34,765.522H717a5.082,5.082,0,0,1,5.13,6.221L703.416,878.468a7.734,7.734,0,0,1-7.312,6.221H540.441a5.082,5.082,0,0,1-5.13-6.221l18.717-106.725A7.734,7.734,0,0,1,561.34,765.522Z" transform="translate(-535.215 -765.522)" fill="#fff"/>
                  </g>
                  <g id="Grupo_1182560" data-name="Grupo 1182560" transform="translate(0.706)">
                    <path id="Trazado_1005768" data-name="Trazado 1005768" d="M1856.215,867.871a.418.418,0,0,1-.068-.006.4.4,0,0,1-.323-.459L1873.5,765.152a4.938,4.938,0,0,0-.991-4.109,4.78,4.78,0,0,0-3.748-1.647l-24.18-.494a.4.4,0,0,1,.008-.793h.008l24.172.494a5.554,5.554,0,0,1,4.347,1.93,5.717,5.717,0,0,1,1.166,4.756l-17.672,102.254A.4.4,0,0,1,1856.215,867.871Z" transform="translate(-1687.674 -758.108)"/>
                    <path id="Trazado_1005769" data-name="Trazado 1005769" d="M541.488,1277.443a.4.4,0,0,1-.391-.469l9.726-52.817a.4.4,0,1,1,.78.144l-9.726,52.817A.4.4,0,0,1,541.488,1277.443Z" transform="translate(-541.091 -1167.895)"/>
                  </g>
                </g>
                <path id="Trazado_1005770" data-name="Trazado 1005770" d="M342.138,1758.19H523.169a4.559,4.559,0,0,1,0,9.111H342.138a4.559,4.559,0,0,1,0-9.111Z" transform="translate(-337.366 -1638.071)" fill="#99b9ff"/>
                <g id="Grupo_1182562" data-name="Grupo 1182562" transform="translate(29.384 5.005)">
                  <path id="Trazado_1005771" data-name="Trazado 1005771" d="M603.8,799.78H750.911a4.752,4.752,0,0,1,4.848,5.791l-17.69,99.354a7.279,7.279,0,0,1-6.911,5.791H584.044a4.752,4.752,0,0,1-4.848-5.791l17.69-99.354A7.278,7.278,0,0,1,603.8,799.78Z" transform="translate(-579.105 -799.78)" fill="#caddff"/>
                </g>
                <path id="Trazado_1005772" data-name="Trazado 1005772" d="M811.774,1764.792H750.148l-69.044-.045a.4.4,0,0,1,0-.793h0l69.044.044h61.625a4.163,4.163,0,0,0,0-8.318H751.935l-85.772.6a.4.4,0,0,1-.4-.394.4.4,0,0,1,.394-.4l85.775-.6h59.841a4.956,4.956,0,0,1,0,9.9Z" transform="translate(-625.97 -1635.164)"/>
                <path id="Trazado_1005773" data-name="Trazado 1005773" d="M366.45,1765.019h0l-27.218-.22a4.956,4.956,0,0,1,0-9.9h14.434a.4.4,0,0,1,0,.793H339.232a4.163,4.163,0,0,0,0,8.318l27.221.22a.4.4,0,0,1,0,.794Z" transform="translate(-334.46 -1635.171)"/>
                <path id="Trazado_1005774" data-name="Trazado 1005774" d="M1106.447,762.037h-43.906a.4.4,0,0,1,0-.793h43.906a.4.4,0,1,1,0,.793Z" transform="translate(-974.742 -760.867)"/>
              </g>
              <g id="Grupo_1182569" data-name="Grupo 1182569" transform="translate(37.021 26.646)">
                <path id="Trazado_1005775" data-name="Trazado 1005775" d="M781.227,1062.022h-136.2a2.309,2.309,0,0,1-2.281-2.9L657.1,982.861a3.622,3.622,0,0,1,3.373-2.9H796.682a2.309,2.309,0,0,1,2.281,2.9L784.6,1059.122A3.625,3.625,0,0,1,781.227,1062.022Z" transform="translate(-642.689 -979.96)" fill="#fff"/>
                <g id="Grupo_1182564" data-name="Grupo 1182564" transform="translate(6.447 19.663)">
                  <path id="Trazado_1005776" data-name="Trazado 1005776" d="M842.969,1431.094H830.205l5.087-27.014h12.764Z" transform="translate(-814.13 -1372.802)" fill="#99b9ff"/>
                  <path id="Trazado_1005777" data-name="Trazado 1005777" d="M709.13,1482.717H696.365l3.76-19.967H712.89Z" transform="translate(-696.365 -1424.426)" fill="#99b9ff"/>
                  <path id="Trazado_1005778" data-name="Trazado 1005778" d="M977.28,1331.675H964.515l7.643-40.585h12.764Z" transform="translate(-932.308 -1273.383)" fill="#99b9ff"/>
                  <path id="Trazado_1005779" data-name="Trazado 1005779" d="M1117.5,1390.32H1104.74l6.135-32.58h12.765Z" transform="translate(-1055.69 -1332.028)" fill="#99b9ff"/>
                  <path id="Trazado_1005780" data-name="Trazado 1005780" d="M1257.724,1290.813H1244.96l8.693-46.163h12.764Z" transform="translate(-1179.069 -1232.521)" fill="#99b9ff"/>
                  <path id="Trazado_1005781" data-name="Trazado 1005781" d="M1398.794,1377.333H1386.03l6.353-33.733h12.764Z" transform="translate(-1303.195 -1319.587)" fill="#99b9ff"/>
                  <path id="Trazado_1005782" data-name="Trazado 1005782" d="M1541.964,1281.381H1529.2l8.82-46.831h12.764Z" transform="translate(-1429.169 -1223.635)" fill="#99b9ff"/>
                  <path id="Trazado_1005783" data-name="Trazado 1005783" d="M1679.234,1201.416H1666.47l10.875-57.746h12.765Z" transform="translate(-1549.951 -1143.67)" fill="#99b9ff"/>
                </g>
                <g id="Grupo_1182568" data-name="Grupo 1182568" transform="translate(17.194 3.764)">
                  <path id="Trazado_1005784" data-name="Trazado 1005784" d="M819.09,1073.65a.4.4,0,0,1-.208-.735l32.744-20.109a.4.4,0,0,1,.51.081l10.082,11.882,25.738-15.822a.4.4,0,0,1,.515.087l10.876,13.32,42.685-26.169a.4.4,0,1,1,.415.676l-42.98,26.35a.4.4,0,0,1-.515-.088l-10.876-13.32-25.733,15.819a.4.4,0,0,1-.51-.081l-10.082-11.882L819.3,1073.591A.4.4,0,0,1,819.09,1073.65Z" transform="translate(-814.747 -1033.146)"/>
                  <ellipse id="Elipse_15022" data-name="Elipse 15022" cx="3.174" cy="3.174" rx="3.174" ry="3.174" transform="matrix(0.078, -0.997, 0.997, 0.078, 44.72, 34.235)" fill="#99b9ff"/>
                  <circle id="Elipse_15023" data-name="Elipse 15023" cx="3.174" cy="3.174" r="3.174" transform="translate(33.483 22.322) rotate(-76.868)" fill="#99b9ff"/>
                  <ellipse id="Elipse_15024" data-name="Elipse 15024" cx="3.174" cy="3.174" rx="3.174" ry="3.174" transform="translate(80.989 31.56) rotate(-80.811)" fill="#99b9ff"/>
                  <g id="Grupo_1182565" data-name="Grupo 1182565" transform="translate(123.233)">
                    <ellipse id="Elipse_15025" data-name="Elipse 15025" cx="3.174" cy="3.174" rx="3.174" ry="3.174" transform="matrix(0.995, -0.098, 0.098, 0.995, 0.101, 0.732)" fill="#5479f7"/>
                    <path id="Trazado_1005785" data-name="Trazado 1005785" d="M1815.422,1018.443a3.571,3.571,0,1,1,3.571-3.571A3.575,3.575,0,0,1,1815.422,1018.443Zm0-6.348a2.777,2.777,0,1,0,2.777,2.777A2.78,2.78,0,0,0,1815.422,1012.1Z" transform="translate(-1811.851 -1011.302)"/>
                  </g>
                  <g id="Grupo_1182566" data-name="Grupo 1182566" transform="translate(69.614 12.322)">
                    <circle id="Elipse_15026" data-name="Elipse 15026" cx="3.174" cy="3.174" r="3.174" transform="translate(0 6.182) rotate(-76.868)" fill="#5479f7"/>
                    <path id="Trazado_1005786" data-name="Trazado 1005786" d="M1370.932,1123.084a3.571,3.571,0,1,1,3.571-3.571A3.575,3.575,0,0,1,1370.932,1123.084Zm0-6.348a2.777,2.777,0,1,0,2.777,2.777A2.78,2.78,0,0,0,1370.932,1116.736Z" transform="translate(-1367.129 -1115.695)"/>
                  </g>
                  <g id="Grupo_1182567" data-name="Grupo 1182567" transform="translate(0 34.784)">
                    <circle id="Elipse_15027" data-name="Elipse 15027" cx="3.174" cy="3.174" r="3.174" transform="matrix(0.74, -0.673, 0.673, 0.74, 0, 4.271)" fill="#99b9ff"/>
                    <path id="Trazado_1005787" data-name="Trazado 1005787" d="M797.055,1315.614a3.571,3.571,0,1,1,3.571-3.571A3.575,3.575,0,0,1,797.055,1315.614Zm0-6.348a2.777,2.777,0,1,0,2.777,2.777A2.78,2.78,0,0,0,797.055,1309.266Z" transform="translate(-792.566 -1307.563)"/>
                  </g>
                </g>
              </g>
            </g>
            <g id="Grupo_1182583" data-name="Grupo 1182583" transform="translate(106.02 6.166)">
              <g id="Grupo_1182576" data-name="Grupo 1182576" transform="translate(0 0.038)">
                <g id="Grupo_1182574" data-name="Grupo 1182574" transform="translate(0 13.418)">
                  <g id="Grupo_1182571" data-name="Grupo 1182571" transform="translate(3.177)">
                    <path id="Trazado_1005788" data-name="Trazado 1005788" d="M1267.365,478.058l2.273-.012s5.445-6.889,9.125-7.269l.341-19.408c-14.093.047-26.53,7.987-32.194,19.723Z" transform="translate(-1246.512 -450.972)" fill="#fff"/>
                    <path id="Trazado_1005789" data-name="Trazado 1005789" d="M1264.459,475.548a.4.4,0,0,1-.128-.021l-20.456-6.967a.4.4,0,0,1-.229-.548c5.826-12.07,18.6-19.9,32.551-19.947h0a.4.4,0,0,1,.4.4l-.341,19.408a.4.4,0,0,1-.356.388c-3.471.359-8.8,7.053-8.854,7.121a.4.4,0,0,1-.309.151l-2.273.012Zm-19.9-7.593,19.965,6.8,2.017-.011c.819-1.011,5.423-6.525,8.925-7.215l.328-18.666C1262.462,449.054,1250.284,456.5,1244.558,467.954Z" transform="translate(-1243.607 -448.065)"/>
                  </g>
                  <g id="Grupo_1182572" data-name="Grupo 1182572" transform="translate(19.641 35.29)">
                    <path id="Trazado_1005790" data-name="Trazado 1005790" d="M1415.163,745.188a14.592,14.592,0,0,1-14.081,11.611,9.366,9.366,0,0,1-3.795-1,13.036,13.036,0,0,1-2.195-.022l-11.109,17.2a36.4,36.4,0,0,0,17.1,3.122c17.744-1.019,31.694-14.376,33.243-30.456Z" transform="translate(-1383.587 -744.791)" fill="#fff"/>
                    <path id="Trazado_1005791" data-name="Trazado 1005791" d="M1396.047,773.651a36.874,36.874,0,0,1-15.132-3.219.4.4,0,0,1-.17-.577l11.109-17.2a.4.4,0,0,1,.477-.154,13.356,13.356,0,0,0,2.029,0,.409.409,0,0,1,.2.043,9.014,9.014,0,0,0,3.6.952c6.794-.211,12.557-4.958,13.7-11.285a.4.4,0,0,1,.4-.326l19.162.459a.4.4,0,0,1,.385.435c-1.6,16.558-16.047,29.805-33.615,30.814Q1397.123,773.651,1396.047,773.651Zm-14.384-3.754a36.253,36.253,0,0,0,16.49,2.9c17.03-.979,31.064-13.7,32.827-29.674l-18.4-.441a15.017,15.017,0,0,1-14.394,11.6,9.432,9.432,0,0,1-3.89-.99,15.538,15.538,0,0,1-1.919.01Z" transform="translate(-1380.682 -741.88)"/>
                  </g>
                  <g id="Grupo_1182573" data-name="Grupo 1182573" transform="translate(0 23.302)">
                    <path id="Trazado_1005792" data-name="Trazado 1005792" d="M1236.626,683.346l2.222.077,8.988-17.327a13.311,13.311,0,0,1-5.508-10.728,13.168,13.168,0,0,1,.366-3.085l-18.307-6.909-2.227.026a31.638,31.638,0,0,0-1.7,10.236A32.181,32.181,0,0,0,1236.626,683.346Z" transform="translate(-1220.065 -644.976)" fill="#fff"/>
                    <path id="Trazado_1005793" data-name="Trazado 1005793" d="M1235.94,680.911h-.014l-2.223-.077a.392.392,0,0,1-.189-.055,32.54,32.54,0,0,1-16.358-28.052,32.03,32.03,0,0,1,1.72-10.365.4.4,0,0,1,.371-.269l2.227-.026a.389.389,0,0,1,.145.026L1239.926,649a.4.4,0,0,1,.246.464,12.8,12.8,0,0,0,4.993,13.4.4.4,0,0,1,.116.5l-8.988,17.327A.4.4,0,0,1,1235.94,680.911Zm-2.107-.866,1.87.064,8.719-16.807a13.585,13.585,0,0,1-5.1-13.678l-17.914-6.761-1.87.022a31.241,31.241,0,0,0-1.588,9.843A31.746,31.746,0,0,0,1233.833,680.045Z" transform="translate(-1217.157 -642.068)"/>
                  </g>
                </g>
                <g id="Grupo_1182575" data-name="Grupo 1182575" transform="translate(38.914)">
                  <path id="Trazado_1005794" data-name="Trazado 1005794" d="M1544.45,372.562a13.921,13.921,0,0,1,12.056,12.193l31.335.908v-.02s0-.01,0-.02,4.724-.76,4.724-.763c0-.215-42.806-45.209-42.806-45.209l-4.747.78S1544.637,361.852,1544.45,372.562Z" transform="translate(-1544.053 -339.255)" fill="#99b9ff"/>
                  <path id="Trazado_1005795" data-name="Trazado 1005795" d="M1584.933,383.158h-.011l-31.335-.908a.4.4,0,0,1-.383-.359,13.5,13.5,0,0,0-11.719-11.839.4.4,0,0,1-.339-.4l.562-32.13a.4.4,0,0,1,.332-.385l4.748-.78a.4.4,0,0,1,.352.118c.107.113,10.823,11.378,21.4,22.525,6.213,6.547,11.164,11.772,14.715,15.531,6.8,7.194,6.8,7.2,6.8,7.424,0,.342-.273.385-.562.431l-.594.094c-.983.155-3.146.5-3.726.6A.4.4,0,0,1,1584.933,383.158Zm0-.416h.02v0Zm-30.979-1.275,30.866.894a14.968,14.968,0,0,1,1.493-.274c.807-.129,1.783-.283,2.459-.39l.108-.017c-3.678-4-28.56-30.195-42.173-44.505l-4.214.693-.549,31.455A14.289,14.289,0,0,1,1553.956,381.466Z" transform="translate(-1541.146 -336.353)"/>
                </g>
              </g>
              <g id="Grupo_1182582" data-name="Grupo 1182582" transform="translate(2.242)">
                <g id="Grupo_1182580" data-name="Grupo 1182580" transform="translate(0 13.456)">
                  <g id="Grupo_1182577" data-name="Grupo 1182577" transform="translate(3.177)">
                    <path id="Trazado_1005796" data-name="Trazado 1005796" d="M1286.036,478.059a14.867,14.867,0,0,1,11.4-7.282l.341-19.408c-14.093.047-26.53,7.987-32.194,19.723Z" transform="translate(-1265.183 -450.973)" fill="#99b9ff"/>
                    <path id="Trazado_1005797" data-name="Trazado 1005797" d="M1283.129,475.548a.4.4,0,0,1-.128-.021l-20.456-6.967a.4.4,0,0,1-.23-.548c5.826-12.07,18.6-19.9,32.551-19.947h0a.4.4,0,0,1,.4.4l-.341,19.408a.4.4,0,0,1-.356.388,14.449,14.449,0,0,0-11.094,7.084A.4.4,0,0,1,1283.129,475.548Zm-19.9-7.593,19.723,6.717a15.247,15.247,0,0,1,11.185-7.156l.328-18.653C1281.131,449.054,1268.952,456.5,1263.228,467.954Z" transform="translate(-1262.276 -448.065)"/>
                  </g>
                  <path id="Trazado_1005798" data-name="Trazado 1005798" d="M1424.961,475.461a.4.4,0,0,1-.149-.764,34.514,34.514,0,0,1,9.982-2.392.4.4,0,1,1,.068.79,33.718,33.718,0,0,0-9.753,2.338A.4.4,0,0,1,1424.961,475.461Z" transform="translate(-1401.895 -469.392)"/>
                  <path id="Trazado_1005799" data-name="Trazado 1005799" d="M1331.493,510.548a.4.4,0,0,1-.283-.674,33.153,33.153,0,0,1,8.3-6.154.4.4,0,1,1,.369.7,32.352,32.352,0,0,0-8.1,6.007A.4.4,0,0,1,1331.493,510.548Z" transform="translate(-1319.653 -496.994)"/>
                  <g id="Grupo_1182578" data-name="Grupo 1182578" transform="translate(19.641 35.29)">
                    <path id="Trazado_1005800" data-name="Trazado 1005800" d="M1433.832,745.188a14.593,14.593,0,0,1-14.081,11.611,15.165,15.165,0,0,1-5.989-1.017l-11.109,17.2a36.4,36.4,0,0,0,17.1,3.122c17.744-1.019,31.694-14.376,33.243-30.456Z" transform="translate(-1402.256 -744.791)" fill="#99b9ff"/>
                    <path id="Trazado_1005801" data-name="Trazado 1005801" d="M1414.717,773.651a36.874,36.874,0,0,1-15.132-3.219.4.4,0,0,1-.17-.577l11.109-17.2a.4.4,0,0,1,.478-.154,14.738,14.738,0,0,0,5.833.991c6.794-.211,12.557-4.958,13.7-11.285a.4.4,0,0,1,.4-.326l19.162.459a.4.4,0,0,1,.385.435c-1.6,16.558-16.047,29.805-33.615,30.814Q1415.793,773.651,1414.717,773.651Zm-14.384-3.754a36.253,36.253,0,0,0,16.49,2.9c17.031-.979,31.064-13.7,32.827-29.674l-18.4-.441a15.017,15.017,0,0,1-14.394,11.6,15.458,15.458,0,0,1-5.842-.93Z" transform="translate(-1399.352 -741.88)"/>
                  </g>
                  <path id="Trazado_1005802" data-name="Trazado 1005802" d="M1445.3,964.644a33.945,33.945,0,0,1-10.881-1.765.4.4,0,1,1,.254-.752,33.156,33.156,0,0,0,10.627,1.723c.661,0,1.328-.019,1.982-.057a.4.4,0,1,1,.046.792C1446.662,964.624,1445.979,964.644,1445.3,964.644Z" transform="translate(-1410.332 -900.366)"/>
                  <path id="Trazado_1005803" data-name="Trazado 1005803" d="M1599.175,792.861a.4.4,0,0,1-.1-.78c11.633-3.172,20.617-12.406,22.887-23.524a.4.4,0,1,1,.777.159c-2.33,11.409-11.537,20.881-23.456,24.131A.391.391,0,0,1,1599.175,792.861Z" transform="translate(-1555.184 -729.783)"/>
                  <g id="Grupo_1182579" data-name="Grupo 1182579" transform="translate(0 23.327)">
                    <path id="Trazado_1005804" data-name="Trazado 1005804" d="M1255.286,683.536l11.21-17.25a13.2,13.2,0,0,1-5.142-13.813l-20.534-6.883a31.634,31.634,0,0,0-1.7,10.236A32.187,32.187,0,0,0,1255.286,683.536Z" transform="translate(-1238.726 -645.192)" fill="#99b9ff"/>
                    <path id="Trazado_1005805" data-name="Trazado 1005805" d="M1252.383,681.024a.394.394,0,0,1-.2-.055,32.541,32.541,0,0,1-16.358-28.052,32.036,32.036,0,0,1,1.719-10.364.4.4,0,0,1,.5-.248l20.534,6.883a.4.4,0,0,1,.26.469,12.8,12.8,0,0,0,4.993,13.4.4.4,0,0,1,.1.535l-11.211,17.25A.4.4,0,0,1,1252.383,681.024Zm-14.215-37.841a31.236,31.236,0,0,0-1.552,9.734,31.726,31.726,0,0,0,15.643,27.173l10.8-16.62a13.584,13.584,0,0,1-5.075-13.644Z" transform="translate(-1235.823 -642.283)"/>
                  </g>
                </g>
                <g id="Grupo_1182581" data-name="Grupo 1182581" transform="translate(41.397)">
                  <path id="Trazado_1005806" data-name="Trazado 1005806" d="M1583.79,371.464a13.921,13.921,0,0,1,12.056,12.193l31.335.908c0-.013,0-.026,0-.04,0-22.987-18.316-42.659-42.83-45.192Z" transform="translate(-1583.393 -338.938)" fill="#5479f7"/>
                  <path id="Trazado_1005807" data-name="Trazado 1005807" d="M1624.271,382.059h-.008l-31.335-.908a.4.4,0,0,1-.383-.359,13.5,13.5,0,0,0-11.719-11.839.4.4,0,0,1-.339-.4l.561-32.13a.4.4,0,0,1,.134-.29.4.4,0,0,1,.3-.1,49.275,49.275,0,0,1,30.855,15.048,44.466,44.466,0,0,1,12.33,30.539.443.443,0,0,1-.12.3A.424.424,0,0,1,1624.271,382.059Zm-30.975-1.691,30.58.886c-.194-22.737-18.172-41.713-42.042-44.382l-.548,31.352A14.29,14.29,0,0,1,1593.3,380.367Z" transform="translate(-1580.487 -336.034)"/>
                </g>
              </g>
            </g>
            <g id="Grupo_1182590" data-name="Grupo 1182590" transform="translate(155.115 120.988)">
              <g id="Grupo_1182585" data-name="Grupo 1182585">
                <path id="Trazado_1005808" data-name="Trazado 1005808" d="M1716.582,1292.99h-49.764a3.253,3.253,0,0,0-3.253,3.253v18.462q0,.09-.005.18L1660.23,1375a3.253,3.253,0,0,0,3.248,3.433h49.754a3.253,3.253,0,0,0,3.248-3.073l3.35-60.375c0-.06.005-.12.005-.18v-18.563A3.252,3.252,0,0,0,1716.582,1292.99Z" transform="translate(-1656.103 -1292.873)" fill="#5479f7"/>
                <path id="Trazado_1005809" data-name="Trazado 1005809" d="M1686.063,1295.31H1635.3a2.754,2.754,0,0,0-2.754,2.754v18.724l-3.333,60.494a2.754,2.754,0,0,0,2.75,2.906h50.753a2.754,2.754,0,0,0,2.75-2.6l3.349-60.635v-18.886A2.755,2.755,0,0,0,1686.063,1295.31Z" transform="translate(-1628.814 -1294.914)" fill="#5479f7"/>
                <path id="Trazado_1005810" data-name="Trazado 1005810" d="M1679.81,1377.685h-50.753a3.151,3.151,0,0,1-3.146-3.325l.182-3.3a.4.4,0,1,1,.792.043l-.182,3.3a2.358,2.358,0,0,0,2.354,2.488h50.753a2.358,2.358,0,0,0,2.354-2.228l3.349-60.635v-18.865a2.36,2.36,0,0,0-2.358-2.358h-50.761a2.36,2.36,0,0,0-2.358,2.358v18.724l-2.494,45.282a.4.4,0,1,1-.792-.043l2.494-45.26v-18.7a3.155,3.155,0,0,1,3.151-3.151h50.761a3.155,3.155,0,0,1,3.151,3.151v18.887l-3.35,60.657A3.152,3.152,0,0,1,1679.81,1377.685Z" transform="translate(-1625.906 -1292.014)"/>
                <path id="Trazado_1005811" data-name="Trazado 1005811" d="M1728.986,1472.328H1678.73a.4.4,0,1,1,0-.793h50.257a.4.4,0,0,1,0,.793Z" transform="translate(-1672.036 -1449.972)"/>
                <g id="Grupo_1182584" data-name="Grupo 1182584" transform="translate(9.116 5.25)">
                  <path id="Trazado_1005812" data-name="Trazado 1005812" d="M1707.274,1339.03h40.362a2.175,2.175,0,0,1,2.175,2.175v6.788a2.175,2.175,0,0,1-2.175,2.175h-40.362a2.175,2.175,0,0,1-2.175-2.175v-6.788A2.176,2.176,0,0,1,1707.274,1339.03Z" transform="translate(-1704.703 -1338.633)" fill="#fff"/>
                  <path id="Trazado_1005813" data-name="Trazado 1005813" d="M1744.739,1347.656h-40.362a2.575,2.575,0,0,1-2.572-2.572V1338.3a2.575,2.575,0,0,1,2.572-2.572h40.362a2.575,2.575,0,0,1,2.572,2.572v6.788A2.576,2.576,0,0,1,1744.739,1347.656Zm-40.363-11.139a1.781,1.781,0,0,0-1.778,1.778v6.788a1.781,1.781,0,0,0,1.778,1.779h40.362a1.781,1.781,0,0,0,1.779-1.779V1338.3a1.781,1.781,0,0,0-1.779-1.778Z" transform="translate(-1701.805 -1335.724)"/>
                </g>
              </g>
              <g id="Grupo_1182586" data-name="Grupo 1182586" transform="translate(21.089 8.843)">
                <path id="Trazado_1005814" data-name="Trazado 1005814" d="M1906.371,1365.64H1921.1a1.215,1.215,0,0,1,1.215,1.215v2.316a1.215,1.215,0,0,1-1.215,1.215h-14.732a1.215,1.215,0,0,1-1.215-1.215v-2.316A1.214,1.214,0,0,1,1906.371,1365.64Z" transform="translate(-1892.704 -1365.64)" fill="#caddff"/>
                <path id="Trazado_1005815" data-name="Trazado 1005815" d="M1802.7,1365.64h7.008a1.215,1.215,0,0,1,1.215,1.215v2.316a1.215,1.215,0,0,1-1.215,1.215H1802.7a1.215,1.215,0,0,1-1.215-1.215v-2.316A1.214,1.214,0,0,1,1802.7,1365.64Z" transform="translate(-1801.486 -1365.64)" fill="#caddff"/>
              </g>
              <g id="Grupo_1182589" data-name="Grupo 1182589" transform="translate(3.743 25.145)">
                <g id="Grupo_1182587" data-name="Grupo 1182587" transform="translate(0 9.636)">
                  <path id="Trazado_1005816" data-name="Trazado 1005816" d="M1782.748,1799.368l.4-6.786a1.417,1.417,0,0,0-1.414-1.5h-7.112a1.417,1.417,0,0,0-1.415,1.333l-.4,6.786a1.417,1.417,0,0,0,1.414,1.5h7.112A1.417,1.417,0,0,0,1782.748,1799.368Z" transform="translate(-1758.905 -1765.919)" fill="#fff"/>
                  <path id="Trazado_1005817" data-name="Trazado 1005817" d="M1892.718,1799.368l.4-6.786a1.417,1.417,0,0,0-1.415-1.5h-7.112a1.417,1.417,0,0,0-1.415,1.333l-.4,6.786a1.417,1.417,0,0,0,1.415,1.5h7.112A1.418,1.418,0,0,0,1892.718,1799.368Z" transform="translate(-1855.666 -1765.919)" fill="#fff"/>
                  <path id="Trazado_1005818" data-name="Trazado 1005818" d="M1776.986,1902.754l.405-6.972a1.417,1.417,0,0,0-1.415-1.5h-7.112a1.417,1.417,0,0,0-1.415,1.335l-.405,6.971a1.417,1.417,0,0,0,1.415,1.5h7.112A1.417,1.417,0,0,0,1776.986,1902.754Z" transform="translate(-1753.834 -1856.726)" fill="#fff"/>
                  <path id="Trazado_1005819" data-name="Trazado 1005819" d="M1886.956,1902.754l.405-6.972a1.417,1.417,0,0,0-1.415-1.5h-7.112a1.417,1.417,0,0,0-1.415,1.335l-.405,6.971a1.417,1.417,0,0,0,1.415,1.5h7.112A1.417,1.417,0,0,0,1886.956,1902.754Z" transform="translate(-1850.595 -1856.726)" fill="#fff"/>
                  <path id="Trazado_1005820" data-name="Trazado 1005820" d="M1678.528,1694.618l.4-6.787a1.417,1.417,0,0,0-1.415-1.5H1670.4a1.417,1.417,0,0,0-1.415,1.333l-.4,6.787a1.417,1.417,0,0,0,1.415,1.5h7.112A1.417,1.417,0,0,0,1678.528,1694.618Z" transform="translate(-1667.202 -1673.751)" fill="#fff"/>
                  <path id="Trazado_1005821" data-name="Trazado 1005821" d="M1788.488,1694.618l.4-6.787a1.417,1.417,0,0,0-1.415-1.5h-7.112a1.417,1.417,0,0,0-1.415,1.333l-.4,6.787a1.417,1.417,0,0,0,1.415,1.5h7.112A1.416,1.416,0,0,0,1788.488,1694.618Z" transform="translate(-1763.955 -1673.751)" fill="#fff"/>
                  <path id="Trazado_1005822" data-name="Trazado 1005822" d="M1898.458,1694.618l.4-6.787a1.417,1.417,0,0,0-1.415-1.5h-7.112a1.417,1.417,0,0,0-1.414,1.333l-.4,6.787a1.417,1.417,0,0,0,1.415,1.5h7.112A1.417,1.417,0,0,0,1898.458,1694.618Z" transform="translate(-1860.717 -1673.751)" fill="#fff"/>
                  <path id="Trazado_1005823" data-name="Trazado 1005823" d="M2008.428,1694.618l.4-6.787a1.417,1.417,0,0,0-1.414-1.5H2000.3a1.417,1.417,0,0,0-1.415,1.333l-.4,6.787a1.417,1.417,0,0,0,1.415,1.5h7.112A1.417,1.417,0,0,0,2008.428,1694.618Z" transform="translate(-1957.478 -1673.751)" fill="#fff"/>
                  <path id="Trazado_1005824" data-name="Trazado 1005824" d="M1684.3,1589.878l.4-6.787a1.417,1.417,0,0,0-1.415-1.5h-7.112a1.417,1.417,0,0,0-1.415,1.333l-.4,6.787a1.417,1.417,0,0,0,1.415,1.5h7.112A1.418,1.418,0,0,0,1684.3,1589.878Z" transform="translate(-1672.278 -1581.591)" fill="#fff"/>
                  <path id="Trazado_1005825" data-name="Trazado 1005825" d="M1794.268,1589.878l.4-6.787a1.417,1.417,0,0,0-1.415-1.5h-7.112a1.417,1.417,0,0,0-1.415,1.333l-.4,6.787a1.417,1.417,0,0,0,1.415,1.5h7.112A1.418,1.418,0,0,0,1794.268,1589.878Z" transform="translate(-1769.041 -1581.591)" fill="#fff"/>
                  <path id="Trazado_1005826" data-name="Trazado 1005826" d="M1904.228,1589.878l.4-6.787a1.417,1.417,0,0,0-1.415-1.5H1896.1a1.417,1.417,0,0,0-1.415,1.333l-.4,6.787a1.417,1.417,0,0,0,1.415,1.5h7.112A1.416,1.416,0,0,0,1904.228,1589.878Z" transform="translate(-1865.794 -1581.591)" fill="#fff"/>
                  <path id="Trazado_1005827" data-name="Trazado 1005827" d="M2014.2,1589.878l.4-6.787a1.417,1.417,0,0,0-1.414-1.5h-7.112a1.417,1.417,0,0,0-1.415,1.333l-.4,6.787a1.417,1.417,0,0,0,1.414,1.5h7.112A1.417,1.417,0,0,0,2014.2,1589.878Z" transform="translate(-1962.554 -1581.591)" fill="#99b9ff"/>
                  <path id="Trazado_1005828" data-name="Trazado 1005828" d="M1672.778,1799.368l.4-6.786a1.417,1.417,0,0,0-1.415-1.5h-7.112a1.417,1.417,0,0,0-1.415,1.333l-.4,6.786a1.417,1.417,0,0,0,1.415,1.5h7.112A1.417,1.417,0,0,0,1672.778,1799.368Z" transform="translate(-1662.143 -1765.919)" fill="#fff"/>
                  <path id="Trazado_1005829" data-name="Trazado 1005829" d="M1667.016,1902.754l.405-6.972a1.417,1.417,0,0,0-1.415-1.5H1658.9a1.417,1.417,0,0,0-1.415,1.335l-.405,6.971a1.417,1.417,0,0,0,1.414,1.5h7.112A1.416,1.416,0,0,0,1667.016,1902.754Z" transform="translate(-1657.073 -1856.726)" fill="#fff"/>
                  <path id="Trazado_1005830" data-name="Trazado 1005830" d="M1996.9,1811.292l1.1-19.432a1.417,1.417,0,0,0-1.415-1.5h-7.112a1.417,1.417,0,0,0-1.415,1.337l-1.1,19.432a1.417,1.417,0,0,0,1.415,1.5h7.112A1.416,1.416,0,0,0,1996.9,1811.292Z" transform="translate(-1947.336 -1765.288)" fill="#99b9ff"/>
                </g>
                <g id="Grupo_1182588" data-name="Grupo 1182588" transform="translate(2.926)">
                  <path id="Trazado_1005831" data-name="Trazado 1005831" d="M1681.587,1502.414l-.15,2.465a.988.988,0,0,0,.986,1.048h7.972a.988.988,0,0,0,.986-.928l.15-2.465a.988.988,0,0,0-.986-1.048h-7.972A.988.988,0,0,0,1681.587,1502.414Z" transform="translate(-1681.436 -1501.472)" fill="#caddff"/>
                  <path id="Trazado_1005832" data-name="Trazado 1005832" d="M1791.558,1502.414l-.15,2.465a.988.988,0,0,0,.986,1.048h7.972a.988.988,0,0,0,.986-.928l.15-2.465a.988.988,0,0,0-.986-1.048h-7.972A.988.988,0,0,0,1791.558,1502.414Z" transform="translate(-1778.198 -1501.472)" fill="#caddff"/>
                  <path id="Trazado_1005833" data-name="Trazado 1005833" d="M1901.527,1502.414l-.15,2.465a.988.988,0,0,0,.986,1.048h7.972a.987.987,0,0,0,.986-.928l.15-2.465a.988.988,0,0,0-.986-1.048h-7.972A.988.988,0,0,0,1901.527,1502.414Z" transform="translate(-1874.959 -1501.472)" fill="#caddff"/>
                  <path id="Trazado_1005834" data-name="Trazado 1005834" d="M2011.489,1502.294l-.15,2.461a.988.988,0,0,0,.986,1.048h7.972a.988.988,0,0,0,.986-.928l.15-2.461a.988.988,0,0,0-.986-1.048h-7.972A.989.989,0,0,0,2011.489,1502.294Z" transform="translate(-1971.713 -1501.366)" fill="#5479f7"/>
                </g>
              </g>
            </g>
            <g id="Grupo_1182603" data-name="Grupo 1182603" transform="translate(41.714)">
              <g id="Grupo_1182596" data-name="Grupo 1182596" transform="translate(28.477)">
                <g id="Grupo_1182593" data-name="Grupo 1182593" transform="translate(0)">
                  <g id="Grupo_1182592" data-name="Grupo 1182592" transform="translate(0)">
                    <g id="Grupo_1182591" data-name="Grupo 1182591">
                      <circle id="Elipse_15028" data-name="Elipse 15028" cx="16.137" cy="16.137" r="16.137" transform="translate(0 22.821) rotate(-45)"/>
                    </g>
                  </g>
                </g>
                <g id="Grupo_1182594" data-name="Grupo 1182594" transform="translate(1.367 0.199)">
                  <circle id="Elipse_15029" data-name="Elipse 15029" cx="15.658" cy="15.658" r="15.658" transform="translate(0 22.143) rotate(-45)" fill="#99b9ff"/>
                  <path id="Trazado_1005835" data-name="Trazado 1005835" d="M996.989,369.149a16.054,16.054,0,1,1,16.054-16.054A16.072,16.072,0,0,1,996.989,369.149Zm0-31.315a15.261,15.261,0,1,0,15.261,15.261A15.278,15.278,0,0,0,996.989,337.833Z" transform="translate(-974.845 -330.952)"/>
                </g>
                <circle id="Elipse_15030" data-name="Elipse 15030" cx="13.14" cy="13.14" r="13.14" transform="translate(7.786 32.248) rotate(-77.196)" fill="#fff"/>
                <path id="Trazado_1005836" data-name="Trazado 1005836" d="M1203.666,502.531a.4.4,0,0,1-.333-.612,12.682,12.682,0,0,0,1.513-3.3.4.4,0,1,1,.761.224A13.468,13.468,0,0,1,1204,502.35.4.4,0,0,1,1203.666,502.531Z" transform="translate(-1169.109 -472.676)"/>
                <path id="Trazado_1005837" data-name="Trazado 1005837" d="M1045.847,366.2a.4.4,0,0,1-.357-.223,12.662,12.662,0,0,0-11.47-7.185,12.8,12.8,0,0,0-10.284,5.216.4.4,0,1,1-.64-.469,13.54,13.54,0,0,1,23.108,2.091.4.4,0,0,1-.357.57Z" transform="translate(-1010.507 -349.196)"/>
                <path id="Trazado_1005838" data-name="Trazado 1005838" d="M1015.434,434.284a13.54,13.54,0,0,1-11.812-20.153.4.4,0,0,1,.692.389,12.747,12.747,0,0,0,11.12,18.971.4.4,0,0,1,0,.793Z" transform="translate(-991.922 -398.407)"/>
                <g id="Grupo_1182595" data-name="Grupo 1182595" transform="translate(18.441 13.064)">
                  <path id="Trazado_1005839" data-name="Trazado 1005839" d="M1076.253,412.018v-2.16a9.148,9.148,0,0,1-3.865-.978l.682-2.66a8.029,8.029,0,0,0,3.775,1c1.3,0,2.183-.5,2.183-1.41,0-.864-.728-1.41-2.41-1.978-2.433-.819-4.093-1.956-4.093-4.161,0-2,1.41-3.57,3.843-4.047v-2.16h2.228v2a8.187,8.187,0,0,1,3.3.75l-.659,2.569a7.541,7.541,0,0,0-3.274-.773c-1.478,0-1.956.637-1.956,1.273,0,.75.8,1.228,2.729,1.956,2.706.955,3.8,2.206,3.8,4.252,0,2.024-1.432,3.752-4.047,4.207v2.319Z" transform="translate(-1072.387 -393.463)" fill="#5479f7"/>
                </g>
              </g>
              <g id="Grupo_1182602" data-name="Grupo 1182602" transform="translate(0 16.186)">
                <g id="Grupo_1182599" data-name="Grupo 1182599" transform="translate(0)">
                  <g id="Grupo_1182598" data-name="Grupo 1182598">
                    <g id="Grupo_1182597" data-name="Grupo 1182597">
                      <circle id="Elipse_15031" data-name="Elipse 15031" cx="13.319" cy="13.319" r="13.319" transform="translate(0 18.835) rotate(-45)"/>
                    </g>
                  </g>
                </g>
                <g id="Grupo_1182600" data-name="Grupo 1182600" transform="translate(6.086 5.12)">
                  <circle id="Elipse_15032" data-name="Elipse 15032" cx="12.923" cy="12.923" r="12.923" transform="translate(0.397 0.397)" fill="#99b9ff"/>
                  <path id="Trazado_1005840" data-name="Trazado 1005840" d="M745.747,488.725a13.32,13.32,0,1,1,13.32-13.32A13.335,13.335,0,0,1,745.747,488.725Zm0-25.847a12.527,12.527,0,1,0,12.527,12.527A12.541,12.541,0,0,0,745.747,462.879Z" transform="translate(-732.427 -462.085)"/>
                </g>
                <circle id="Elipse_15033" data-name="Elipse 15033" cx="10.845" cy="10.845" r="10.845" transform="translate(8.561 7.594)" fill="#fff"/>
                <path id="Trazado_1005841" data-name="Trazado 1005841" d="M916.334,598.814A.4.4,0,0,1,916,598.2a10.39,10.39,0,0,0,1.241-2.705.4.4,0,0,1,.761.224,11.194,11.194,0,0,1-1.335,2.911A.4.4,0,0,1,916.334,598.814Z" transform="translate(-887.811 -574.103)"/>
                <path id="Trazado_1005842" data-name="Trazado 1005842" d="M786.067,486.3a.4.4,0,0,1-.357-.223,10.382,10.382,0,0,0-9.405-5.891,10.494,10.494,0,0,0-8.432,4.277.4.4,0,1,1-.64-.469,11.245,11.245,0,0,1,19.191,1.737.4.4,0,0,1-.357.57Z" transform="translate(-756.899 -472.189)"/>
                <path id="Trazado_1005843" data-name="Trazado 1005843" d="M760.971,542.486a11.245,11.245,0,0,1-9.81-16.737.4.4,0,0,1,.692.389,10.452,10.452,0,0,0,9.118,15.555.4.4,0,1,1,0,.793Z" transform="translate(-741.565 -512.804)"/>
                <g id="Grupo_1182601" data-name="Grupo 1182601" transform="translate(15.221 10.783)">
                  <path id="Trazado_1005844" data-name="Trazado 1005844" d="M811.673,524.548v-1.783a7.55,7.55,0,0,1-3.19-.807l.563-2.2a6.627,6.627,0,0,0,3.116.826c1.07,0,1.8-.413,1.8-1.164,0-.713-.6-1.164-1.989-1.633-2.008-.676-3.378-1.614-3.378-3.435,0-1.652,1.164-2.947,3.172-3.341v-1.783h1.839v1.652a6.759,6.759,0,0,1,2.721.619l-.544,2.121a6.224,6.224,0,0,0-2.7-.638c-1.22,0-1.614.526-1.614,1.051,0,.619.657,1.013,2.252,1.614,2.233.788,3.134,1.821,3.134,3.51,0,1.67-1.182,3.1-3.341,3.472v1.914Z" transform="translate(-808.483 -509.233)" fill="#5479f7"/>
                </g>
              </g>
            </g>
          </g>
          <g id="Grupo_1182622" data-name="Grupo 1182622" transform="translate(0 78.743)">
            <path id="Trazado_1005845" data-name="Trazado 1005845" d="M376.921,948a6.59,6.59,0,0,0,3.364-2.4c.773-1.172,1.356-3.135.481-4.325-.219-.3-.935-1.1-4.325-.961a20.8,20.8,0,0,0-7.317,1.6c-7,3.294-3.569,5.2-8.1,8.628-6.669,5.047-6.007,2.148-9.184,5.633-5.163,5.664-4.405,13.875,5.755,20.206,6.863,4.276,16.446,1.808,21.308-3.551C386.84,964.072,371,950.424,376.921,948Z" transform="translate(-346.506 -940.294)"/>
            <g id="Grupo_1182609" data-name="Grupo 1182609" transform="translate(16.487 54.425)">
              <g id="Grupo_1182605" data-name="Grupo 1182605" transform="translate(11.218 71.904)">
                <path id="Trazado_1005846" data-name="Trazado 1005846" d="M569.5,1995.742l-.249,9.26-3.271.353-1.618-9.965Z" transform="translate(-563.963 -1994.992)" fill="#fff"/>
                <path id="Trazado_1005847" data-name="Trazado 1005847" d="M563.072,2002.839a.4.4,0,0,1-.391-.333l-1.618-9.966a.4.4,0,0,1,.419-.459l5.138.352a.4.4,0,0,1,.369.406l-.249,9.26a.4.4,0,0,1-.354.384l-3.271.354A.271.271,0,0,1,563.072,2002.839Zm-1.146-9.932,1.478,9.1,2.552-.276.229-8.533Z" transform="translate(-561.057 -1992.08)"/>
              </g>
              <g id="Grupo_1182606" data-name="Grupo 1182606" transform="translate(29.572 75.296)">
                <path id="Trazado_1005848" data-name="Trazado 1005848" d="M722.51,2023.63l.522,7.376-4.322.353-1.543-7.729Z" transform="translate(-716.77 -2023.233)" fill="#fff"/>
                <path id="Trazado_1005849" data-name="Trazado 1005849" d="M715.8,2028.844a.4.4,0,0,1-.389-.319l-1.543-7.729a.4.4,0,0,1,.389-.475H719.6a.4.4,0,0,1,.4.369l.522,7.376a.4.4,0,0,1-.363.423l-4.322.354Zm-1.059-7.729,1.379,6.909,3.579-.293-.468-6.616Z" transform="translate(-713.864 -2020.321)"/>
              </g>
              <g id="Grupo_1182607" data-name="Grupo 1182607" transform="translate(29.456 79.156)">
                <path id="Trazado_1005850" data-name="Trazado 1005850" d="M716.715,2062.706a1.111,1.111,0,0,1-.492-.9,12.674,12.674,0,0,1,.4-4.254c.579-1.149,2.969.452,2.969.452a10.645,10.645,0,0,1,2.218-2.345c.424-.211,2.9,1.44,5.4,3.691,2.74,2.466,3.977,3.253,4.568,5.38a1.657,1.657,0,0,1-1.489,2.075C727.781,2066.99,722.7,2066.689,716.715,2062.706Z" transform="translate(-715.815 -2055.263)" fill="#5479f7"/>
                <path id="Trazado_1005851" data-name="Trazado 1005851" d="M726.279,2064.438a22.963,22.963,0,0,1-12.7-4.208,1.505,1.505,0,0,1-.668-1.215,12.129,12.129,0,0,1,.447-4.443,1.106,1.106,0,0,1,.727-.586,3.928,3.928,0,0,1,2.5.687,8.923,8.923,0,0,1,2.141-2.171c1.072-.532,5.8,3.708,5.846,3.751.431.388.826.735,1.186,1.052,1.977,1.739,2.97,2.612,3.5,4.517a2.013,2.013,0,0,1-.3,1.7,2.061,2.061,0,0,1-1.542.873C727.08,2064.423,726.7,2064.438,726.279,2064.438Zm-11.8-9.707a.766.766,0,0,0-.191.022.315.315,0,0,0-.219.176,11.428,11.428,0,0,0-.362,4.065.714.714,0,0,0,.314.575c5.9,3.922,10.886,4.213,13.334,4.038a1.27,1.27,0,0,0,.95-.539,1.223,1.223,0,0,0,.184-1.035c-.466-1.677-1.341-2.447-3.258-4.134-.362-.319-.759-.667-1.192-1.057a19.274,19.274,0,0,0-5.012-3.6,10.452,10.452,0,0,0-2.022,2.2.4.4,0,0,1-.542.1A4.611,4.611,0,0,0,714.482,2054.731Z" transform="translate(-712.904 -2052.456)"/>
              </g>
              <path id="Trazado_1005852" data-name="Trazado 1005852" d="M731.782,2101.468a17.617,17.617,0,0,1-11.053-3.976.4.4,0,0,1,.495-.62,16.491,16.491,0,0,0,13.039,3.575.4.4,0,0,1,.181.773A12.568,12.568,0,0,1,731.782,2101.468Z" transform="translate(-690.202 -2012.305)"/>
              <g id="Grupo_1182608" data-name="Grupo 1182608" transform="translate(6.543 77.724)">
                <path id="Trazado_1005853" data-name="Trazado 1005853" d="M536.528,2049.887l-.048-5.07a1.529,1.529,0,0,0-2.41-.288s-1.289-1.807-3.681.446c0,0-3.366,6.274-4.856,10.006a1.543,1.543,0,0,0,1.389,2.119c1.545.036,3.543-.047,4.413-.635a31.383,31.383,0,0,0,4.7-5.124A2.327,2.327,0,0,0,536.528,2049.887Z" transform="translate(-525.026 -2043.446)" fill="#5479f7"/>
                <path id="Trazado_1005854" data-name="Trazado 1005854" d="M524.64,2054.593q-.3,0-.623-.007a1.906,1.906,0,0,1-1.565-.866,1.949,1.949,0,0,1-.183-1.8c1.481-3.709,4.841-9.983,4.875-10.046a.4.4,0,0,1,.078-.1,3.613,3.613,0,0,1,2.75-1.229,2.223,2.223,0,0,1,1.239.539,1.8,1.8,0,0,1,1.27-.34,2.259,2.259,0,0,1,1.435.942.4.4,0,0,1,.066.215l.048,5.07a2.736,2.736,0,0,1-.573,1.7,30.82,30.82,0,0,1-4.794,5.21A7.852,7.852,0,0,1,524.64,2054.593Zm3.172-12.282c-.342.641-3.417,6.428-4.806,9.908a1.14,1.14,0,0,0,.108,1.064,1.122,1.122,0,0,0,.922.51c2.084.05,3.568-.153,4.181-.567a31.432,31.432,0,0,0,4.612-5.039,1.941,1.941,0,0,0,.406-1.205h0l-.046-4.939a1.375,1.375,0,0,0-.814-.51,1.211,1.211,0,0,0-.936.382.4.4,0,0,1-.588-.065,1.426,1.426,0,0,0-.97-.514A2.9,2.9,0,0,0,527.812,2042.311Z" transform="translate(-522.129 -2040.536)"/>
              </g>
              <path id="Trazado_1005855" data-name="Trazado 1005855" d="M594.52,2049.776a.4.4,0,0,1-.4-.4l0-2.733a.4.4,0,0,1,.4-.4h0a.4.4,0,0,1,.4.4v2.733a.4.4,0,0,1-.4.4Z" transform="translate(-578.932 -1967.839)"/>
              <path id="Trazado_1005856" data-name="Trazado 1005856" d="M504.28,1469.534s1.233-18.618-.79-35.365-9.551-40.662-9.551-40.662a95.987,95.987,0,0,0-13.993.425c-5.895.792-8.228-.023-8.228-.023s-4.4,5.039-4.041,14.512,10.628,49.432,10.238,58.81a13.451,13.451,0,0,0,7.926.873l-1.854-53.852s3.836,11.086,5.637,18.681a36.362,36.362,0,0,0,4.015,10.2s-.108,14.393,3.2,26.339A13.888,13.888,0,0,0,504.28,1469.534Z" transform="translate(-467.656 -1393.422)"/>
              <path id="Trazado_1005857" data-name="Trazado 1005857" d="M695.044,1826.049a.4.4,0,0,1-.327-.172l-2.828-4.115a.4.4,0,0,1,.654-.449l2.828,4.115a.4.4,0,0,1-.1.552A.389.389,0,0,1,695.044,1826.049Z" transform="translate(-664.895 -1769.768)" fill="#fff"/>
              <path id="Trazado_1005858" data-name="Trazado 1005858" d="M534.564,1766.2a5.616,5.616,0,0,1-3.358-.99.4.4,0,0,1,.473-.637,5.915,5.915,0,0,0,4.4.669.4.4,0,0,1,.2.769A7.5,7.5,0,0,1,534.564,1766.2Z" transform="translate(-523.432 -1719.928)" fill="#fff"/>
            </g>
            <g id="Grupo_1182613" data-name="Grupo 1182613" transform="translate(13.067 8.763)">
              <path id="Trazado_1005859" data-name="Trazado 1005859" d="M445.224,1141.519c.96,1.076,2.905.885,6.756.461,6.014-.663,7.047-2.02,10.934-2.4,6.928-.682,9.776,3.026,12.255,1.322,1.508-1.037,2.754-3.99.516-13.1q-1.09-5.174-2.139-10.458-1.443-7.27-2.733-14.379a62.892,62.892,0,0,0-12.012.1,58.673,58.673,0,0,0-16.323,4.07c2.3,3.341,1.15,7.879,3.451,11.219C445.887,1120.885,443.439,1139.521,445.224,1141.519Z" transform="translate(-442.082 -1091.974)" fill="#5479f7"/>
              <g id="Grupo_1182612" data-name="Grupo 1182612" transform="translate(47.156)">
                <g id="Grupo_1182610" data-name="Grupo 1182610" transform="translate(7.263)">
                  <path id="Trazado_1005860" data-name="Trazado 1005860" d="M896.042,1021.507s3.66-3.394,4.7-4.259c1.185-.984-1.526-1.308-5,1.874Z" transform="translate(-895.325 -1016.168)" fill="#fff"/>
                  <path id="Trazado_1005861" data-name="Trazado 1005861" d="M892.674,1019.406l-.419-3.356.151-.138c2.3-2.1,4.533-2.908,5.47-2.6a.653.653,0,0,1,.467.489.891.891,0,0,1-.416.831c-1.022.848-4.649,4.211-4.685,4.244Zm.419-3.046.176,1.413c1.063-.981,3.308-3.045,4.128-3.729C896.774,1014.065,895.14,1014.534,893.093,1016.359Z" transform="translate(-892.255 -1013.25)"/>
                </g>
                <g id="Grupo_1182611" data-name="Grupo 1182611" transform="translate(0 0.667)">
                  <path id="Trazado_1005862" data-name="Trazado 1005862" d="M843.129,1025.678c.021.188.045.375.078.562a1.87,1.87,0,0,1-.323,1.56,24.781,24.781,0,0,1-3.613,2.181,2.869,2.869,0,0,0-.9.743c-.339.424.581,4.922.581,4.922l-3.694-1.321s.443-6.138,1.254-8.632,2.953-3.677,3.507-3.6.723,1.139.723,1.139,1.2-.926,1.928-.431c.382.26.2.7.256,1.125Z" transform="translate(-834.844 -1021.695)" fill="#fff"/>
                  <path id="Trazado_1005863" data-name="Trazado 1005863" d="M836.427,1033.366l-4.642-1.66.022-.3c.018-.253.456-6.215,1.273-8.726.856-2.632,3.156-3.981,3.939-3.87a1.258,1.258,0,0,1,.91.907,1.867,1.867,0,0,1,1.91-.133,1.117,1.117,0,0,1,.42,1.081,1.927,1.927,0,0,0,.006.317l.2,1.761c.02.172.042.356.075.536a2.259,2.259,0,0,1-.424,1.9,22.718,22.718,0,0,1-3.716,2.26,2.461,2.461,0,0,0-.748.608,23.6,23.6,0,0,0,.634,4.627Zm-3.805-2.2,2.749.982c-.785-4.034-.472-4.426-.365-4.56a3.251,3.251,0,0,1,1.022-.846,22.662,22.662,0,0,0,3.511-2.1,1.533,1.533,0,0,0,.221-1.217c-.036-.2-.061-.4-.082-.587l-.2-1.751a2.569,2.569,0,0,1-.012-.445c.01-.307-.006-.352-.073-.4-.368-.25-1.145.173-1.463.417l-.528.4-.105-.657c-.062-.382-.258-.791-.386-.809a4.993,4.993,0,0,0-3.075,3.33A50.593,50.593,0,0,0,832.621,1031.162Z" transform="translate(-831.785 -1018.803)"/>
                </g>
                <path id="Trazado_1005864" data-name="Trazado 1005864" d="M862.9,1033.324a1.03,1.03,0,0,1-.279-.039c-.506-.14-1.064-.718-1.11-1.917-.067-1.753,2.077-3.4,2.168-3.467a.4.4,0,0,1,.48.632c-.53.4-1.9,1.693-1.855,2.8.028.72.293,1.118.529,1.183.161.045.28-.092.336-.177a1.955,1.955,0,0,0,.312-1.219.4.4,0,0,1,.785-.117,2.726,2.726,0,0,1-.432,1.771A1.122,1.122,0,0,1,862.9,1033.324Z" transform="translate(-857.937 -1026.07)"/>
              </g>
              <path id="Trazado_1005865" data-name="Trazado 1005865" d="M696.077,1105.606a22.057,22.057,0,0,1,5.615,1.963c.47,2.338.331,6.464-1.578,11.62-.792,2.139-1.724,4.657-3.8,6-3.971,2.564-11.228.238-17.743-5.822q-.093-7.321-.187-14.642a10.12,10.12,0,0,1,4.392,2.958l2.057,2.376c1.846,3.332,4.322,5.621,6.223,5.2,1.553-.342,2.4-2.564,4.1-7.006A13.08,13.08,0,0,0,696.077,1105.606Z" transform="translate(-649.654 -1093.735)" fill="#5479f7"/>
              <path id="Trazado_1005866" data-name="Trazado 1005866" d="M444.942,1139.811a3.637,3.637,0,0,1-2.918-.931c-1.353-1.515-.622-10.331.243-19.231.184-1.892.332-3.411.357-4.088a13.386,13.386,0,0,1-1.718-5.669,12.342,12.342,0,0,0-1.659-5.442.4.4,0,0,1,.179-.593,59.061,59.061,0,0,1,16.429-4.1,63.473,63.473,0,0,1,12.087-.1.4.4,0,0,1-.069.79,62.659,62.659,0,0,0-11.936.1A60.7,60.7,0,0,0,447.63,1102a60,60,0,0,0-7.463,2.415,14.19,14.19,0,0,1,1.525,5.361,12.34,12.34,0,0,0,1.659,5.442.4.4,0,0,1,.07.231c-.01.634-.159,2.161-.364,4.275-.544,5.6-1.676,17.243-.441,18.626.808.9,2.653.746,6.417.331a30.108,30.108,0,0,0,6.609-1.423,19.293,19.293,0,0,1,4.329-.98,18.284,18.284,0,0,1,8.2,1.141c1.716.574,2.849.953,3.873.248,1.97-1.354,2.089-5.62.356-12.68-.523-2.479-1.039-4.983-1.538-7.453a.4.4,0,1,1,.778-.157c.5,2.468,1.014,4.969,1.534,7.434,1.843,7.5,1.622,11.928-.68,13.51-1.35.928-2.773.453-4.574-.15a17.363,17.363,0,0,0-7.867-1.1,18.373,18.373,0,0,0-4.167.947,30.8,30.8,0,0,1-6.762,1.456A41.661,41.661,0,0,1,444.942,1139.811Z" transform="translate(-439.177 -1089.071)"/>
              <path id="Trazado_1005867" data-name="Trazado 1005867" d="M686.3,1160.249a.4.4,0,0,1-.389-.319c-.554-2.793-1.1-5.627-1.63-8.423a.4.4,0,0,1,.78-.147c.527,2.793,1.075,5.625,1.629,8.415a.4.4,0,0,1-.389.474Z" transform="translate(-654.835 -1134.487)"/>
              <path id="Trazado_1005868" data-name="Trazado 1005868" d="M690.778,1124.148c-3.2,0-7.106-1.515-11.033-4.4a.4.4,0,1,1,.469-.64c5.488,4.026,11.074,5.309,14.232,3.269,1.964-1.269,2.856-3.677,3.642-5.8,2.2-5.957,1.827-9.913,1.6-11.224a21.377,21.377,0,0,0-4.974-1.748l-.045.174a4.176,4.176,0,0,1-.254.772c-.094.234-.251.622-.536,1.369-1.748,4.57-2.625,6.864-4.386,7.252-1.977.436-4.58-1.667-6.636-5.36l-2.03-2.345a9.742,9.742,0,0,0-4.055-2.784.4.4,0,0,1,.269-.747,10.534,10.534,0,0,1,4.386,3.012l2.057,2.376a.383.383,0,0,1,.047.067c1.855,3.349,4.182,5.361,5.791,5.006,1.344-.3,2.222-2.592,3.816-6.761.288-.754.446-1.145.541-1.382a3.572,3.572,0,0,0,.221-.672c.033-.128.077-.3.143-.552a.4.4,0,0,1,.469-.286,22.994,22.994,0,0,1,5.722,2,.4.4,0,0,1,.2.269c.23,1.144.795,5.38-1.6,11.836-.788,2.13-1.77,4.781-3.956,6.193A7.453,7.453,0,0,1,690.778,1124.148Z" transform="translate(-648.001 -1091.265)"/>
            </g>
            <g id="Grupo_1182615" data-name="Grupo 1182615" transform="translate(22.008 4.853)">
              <g id="Grupo_1182614" data-name="Grupo 1182614">
                <path id="Trazado_1005869" data-name="Trazado 1005869" d="M528.455,998.875a3.031,3.031,0,0,1-2.537-3.15l.125-2.4c1.447-.113,2.651-.8,2.647-1.26a25.647,25.647,0,0,0-.865-3.3.744.744,0,0,0,.017-1.241,14.014,14.014,0,0,1-1.96-2.835c-1.674-1.945-2.157.8-3.407,1.025-.865.158-1.335.685-1.008,1.816s-.295.564-.932.241-1.07-.072-.72.957a3.494,3.494,0,0,0,1.623,1.646l.6,1.185-1.272,5.826a3.267,3.267,0,0,1-2.094,2.38l-1.753.625,9.212,4.824,4.449-5.994Z" transform="translate(-516.526 -983.601)" fill="#fff"/>
                <path id="Trazado_1005870" data-name="Trazado 1005870" d="M523.229,1002.712a.4.4,0,0,1-.184-.045l-9.212-4.824a.4.4,0,0,1,.051-.725l1.753-.625a2.854,2.854,0,0,0,1.84-2.091l1.242-5.688-.482-.946a3.726,3.726,0,0,1-1.7-1.811c-.23-.678-.187-1.16.127-1.433.16-.138.521-.324,1.148-.006.122.062.243.131.357.2l.008,0a1.916,1.916,0,0,1,.1-1.565,1.712,1.712,0,0,1,1.221-.731c.311-.057.617-.411.912-.755a2.111,2.111,0,0,1,1.471-.97h0a1.932,1.932,0,0,1,1.4.831.413.413,0,0,1,.046.067,12.8,12.8,0,0,0,1.826,2.693,1.026,1.026,0,0,1,.518.824,1.291,1.291,0,0,1-.294.85,24.22,24.22,0,0,1,.807,3.2c.006.771-1.337,1.432-2.665,1.62l-.108,2.06a2.631,2.631,0,0,0,2.205,2.737l2.128.348a.4.4,0,0,1,.255.628l-4.449,5.994A.4.4,0,0,1,523.229,1002.712ZM515,997.56l8.108,4.246,3.859-5.2-1.486-.243a3.424,3.424,0,0,1-2.87-3.562l.125-2.4a.4.4,0,0,1,.365-.375,3.421,3.421,0,0,0,2.28-.877,28.071,28.071,0,0,0-.839-3.151.4.4,0,0,1,.122-.445.575.575,0,0,0,.206-.4c0-.03-.006-.109-.152-.2a12.446,12.446,0,0,1-2.074-2.941c-.3-.344-.567-.526-.768-.526h0c-.271,0-.562.338-.87.695a2.582,2.582,0,0,1-1.371,1.017.973.973,0,0,0-.689.368,1.2,1.2,0,0,0-.009.947c.082.282.233.808-.1,1.071-.317.247-.682.035-1.07-.189-.1-.06-.21-.122-.319-.177a.723.723,0,0,0-.263-.088,1.242,1.242,0,0,0,.1.564,3.028,3.028,0,0,0,1.42,1.417.4.4,0,0,1,.18.177l.6,1.185a.4.4,0,0,1,.034.265l-1.272,5.826a3.642,3.642,0,0,1-2.348,2.669Zm3.25-12.447Z" transform="translate(-513.621 -980.699)"/>
              </g>
              <path id="Trazado_1005871" data-name="Trazado 1005871" d="M572.653,1051.4a2.411,2.411,0,0,1-2.128-1.363.4.4,0,0,1,.719-.336,1.614,1.614,0,0,0,1.839.853.4.4,0,1,1,.183.772A2.624,2.624,0,0,1,572.653,1051.4Z" transform="translate(-563.657 -1041.213)"/>
            </g>
            <g id="Grupo_1182618" data-name="Grupo 1182618" transform="translate(0.485 36.121)">
              <g id="Grupo_1182616" data-name="Grupo 1182616">
                <path id="Trazado_1005872" data-name="Trazado 1005872" d="M369.806,1256.206,354.452,1244.5a.89.89,0,0,0-1.247.168l-15.3,20.072a.89.89,0,0,0,.168,1.247l15.354,11.705a.89.89,0,0,0,1.248-.168l15.3-20.073A.89.89,0,0,0,369.806,1256.206Z" transform="translate(-337.324 -1243.923)" fill="#fff"/>
                <path id="Trazado_1005873" data-name="Trazado 1005873" d="M351.06,1275.378a1.281,1.281,0,0,1-.779-.263l-15.354-11.705a1.289,1.289,0,0,1-.243-1.8l15.3-20.073a1.288,1.288,0,0,1,1.8-.244L367.144,1253h0a1.288,1.288,0,0,1,.243,1.8l-15.3,20.072A1.287,1.287,0,0,1,351.06,1275.378Zm-.05-33.557a.493.493,0,0,0-.393.194l-15.3,20.072a.494.494,0,0,0,.093.692l15.354,11.705a.5.5,0,0,0,.692-.093l15.3-20.073a.494.494,0,0,0-.093-.692l-15.354-11.705A.491.491,0,0,0,351.011,1241.82Z" transform="translate(-334.421 -1241.027)"/>
              </g>
              <rect id="Rectángulo_458277" data-name="Rectángulo 458277" width="23.893" height="15.869" transform="translate(3.262 21.615) rotate(-52.68)" fill="#99b9ff"/>
              <g id="Grupo_1182617" data-name="Grupo 1182617" transform="translate(19.271 2.238)">
                <path id="Trazado_1005874" data-name="Trazado 1005874" d="M504.511,1269.155l-6.91-5.268a1.088,1.088,0,0,0-1.525.206l-1.205,1.581,8.641,6.587,1.205-1.581A1.088,1.088,0,0,0,504.511,1269.155Z" transform="translate(-494.87 -1263.183)" fill="#fff"/>
                <path id="Trazado_1005875" data-name="Trazado 1005875" d="M530.171,1260.136a2.335,2.335,0,0,0-3.273.441l-1.416,1.857,3.714,2.831,1.416-1.857A2.335,2.335,0,0,0,530.171,1260.136Zm-1.229,1.613a.461.461,0,1,1,.646-.087A.461.461,0,0,1,528.942,1261.75Z" transform="translate(-521.806 -1259.658)" fill="#fff"/>
              </g>
              <rect id="Rectángulo_458278" data-name="Rectángulo 458278" width="12.867" height="1.067" transform="translate(16.8 6.32) rotate(37.32)" fill="#fff"/>
              <rect id="Rectángulo_458279" data-name="Rectángulo 458279" width="12.867" height="1.067" transform="translate(15.475 8.06) rotate(37.32)" fill="#fff"/>
              <rect id="Rectángulo_458280" data-name="Rectángulo 458280" width="12.867" height="1.067" transform="translate(14.148 9.8) rotate(37.32)" fill="#fff"/>
            </g>
            <g id="Grupo_1182621" data-name="Grupo 1182621" transform="translate(0 21.887)">
              <g id="Grupo_1182620" data-name="Grupo 1182620" transform="translate(14.506 36.847)">
                <g id="Grupo_1182619" data-name="Grupo 1182619">
                  <path id="Trazado_1005876" data-name="Trazado 1005876" d="M454.463,1435.628s4.772,4.063,7.274,3.047a4.128,4.128,0,0,0,.894-.485,1.583,1.583,0,0,0-.413-2.754l-3.1-1.134s3.754-.008,3.165-1.2c-.3-.615-.617-.537-1.454-.433-2.17.271-6.217.613-6.217.613Z" transform="translate(-454.066 -1432.198)" fill="#fff"/>
                  <path id="Trazado_1005877" data-name="Trazado 1005877" d="M457.941,1436.333c-2.729,0-6.462-3.149-6.64-3.3a.4.4,0,0,1-.139-.326l.144-2.35a.4.4,0,0,1,.362-.371c.04,0,4.065-.345,6.2-.611l.133-.017c.764-.1,1.315-.167,1.726.668a.849.849,0,0,1-.021.849,2.5,2.5,0,0,1-1.664.779l1.4.513a1.988,1.988,0,0,1,1.287,1.591,1.928,1.928,0,0,1-.776,1.855,4.563,4.563,0,0,1-.979.533A2.754,2.754,0,0,1,457.941,1436.333Zm-5.975-3.779c1.4,1.151,4.917,3.585,6.717,2.855a3.757,3.757,0,0,0,.808-.438,1.146,1.146,0,0,0,.46-1.1,1.181,1.181,0,0,0-.774-.958l-3.1-1.134a.4.4,0,0,1,.135-.77c1.177,0,2.627-.231,2.827-.553,0-.006.012-.02-.017-.079-.155-.315-.161-.328-.914-.232l-.135.017c-1.785.223-4.867.5-5.891.586Z" transform="translate(-451.161 -1429.301)"/>
                </g>
              </g>
              <path id="Trazado_1005878" data-name="Trazado 1005878" d="M349.381,1128.617a9.269,9.269,0,0,0-6.46,4.327c-3.772,6.172-10.6,18.6-8.995,25.317,2.2,9.173,14.489,10.541,14.489,10.541l.762-4.208c-12.016-7.949,3.342-23.173,3.342-23.173l-2.281-12.939Z" transform="translate(-333.289 -1127.766)" fill="#5479f7"/>
              <path id="Trazado_1005879" data-name="Trazado 1005879" d="M345.513,1164.2l-.044,0c-.126-.014-12.6-1.506-14.831-10.843-1.619-6.766,4.97-18.953,9.042-25.616a9.655,9.655,0,0,1,6.7-4.507l2.111-.691a.4.4,0,1,1,.247.754l-2.14.7a.394.394,0,0,1-.061.015,8.862,8.862,0,0,0-6.184,4.142c-3.227,5.28-10.559,18.287-8.948,25.017,1.9,7.923,11.748,9.868,13.781,10.187l.648-3.578a9.846,9.846,0,0,1-4.593-6.988c-.767-6.182,4.582-12.8,6.918-15.364a.4.4,0,0,1,.586.535c-2.261,2.479-7.443,8.877-6.716,14.732a9.178,9.178,0,0,0,4.461,6.57.4.4,0,0,1,.172.4l-.762,4.209A.4.4,0,0,1,345.513,1164.2Z" transform="translate(-330.387 -1122.521)"/>
              <path id="Trazado_1005880" data-name="Trazado 1005880" d="M473.608,1156.472a.4.4,0,0,1-.39-.328l-1.328-7.536a.4.4,0,1,1,.781-.138l1.328,7.536a.4.4,0,0,1-.322.46A.448.448,0,0,1,473.608,1156.472Z" transform="translate(-454.888 -1145.066)"/>
            </g>
          </g>
        </g>
      </g>
    </g>
  </g>
</svg>
