<svg xmlns="http://www.w3.org/2000/svg" width="98" height="98" viewBox="0 0 98 98">
  <g id="Grupo_1177473" data-name="Grupo 1177473" transform="translate(-289.609 -11611.898)">
    <g id="Grupo_1177473-2" data-name="Grupo 1177473" transform="translate(289.609 11611.898)">
      <ellipse id="Elipse_13609" data-name="Elipse 13609" cx="49" cy="49" rx="49" ry="49" transform="translate(0)" fill="#fff"/>
      <g id="Grupo_1183141" data-name="Grupo 1183141" transform="translate(16 20.461)">
        <path id="Trazado_1008166" data-name="Trazado 1008166" d="M90.229,79.881a2.509,2.509,0,0,0-2.506,2.506v4.206a2.521,2.521,0,0,0-1.595-.573,2.506,2.506,0,0,0-2.008,4l4.042,5.421a2.519,2.519,0,0,0,1.98,1.008h.032a2.517,2.517,0,0,0,1.974-.966l4.157-5.334a2.507,2.507,0,0,0-3.57-3.476V82.387A2.509,2.509,0,0,0,90.229,79.881Zm3.441,8.22a.835.835,0,1,1,1.318,1.027l-4.157,5.334a.821.821,0,0,1-.668.322.84.84,0,0,1-.661-.336l-4.042-5.421a.836.836,0,0,1,.17-1.169.835.835,0,0,1,1.169.171l1.089,1.461a.835.835,0,0,0,1.505-.5v-6.6a.835.835,0,1,1,1.671,0v6.626a.836.836,0,0,0,1.494.514Z" transform="translate(-69.849 -70.983)" fill="#53435c"/>
        <path id="Trazado_1008167" data-name="Trazado 1008167" d="M59.261,27.131H35.74V2.994A3,3,0,0,0,32.746,0H8.014A3,3,0,0,0,5.02,2.994V20.268a.835.835,0,0,0,1.671,0V2.994A1.325,1.325,0,0,1,8.014,1.671h4.244l.818,2.652A2.408,2.408,0,0,0,15.388,6.03h9.984a2.408,2.408,0,0,0,2.312-1.707L28.5,1.671h4.244a1.325,1.325,0,0,1,1.323,1.323V27.131H15.493a1.72,1.72,0,0,0-1.718,1.718V50.822a1.72,1.72,0,0,0,1.718,1.718H34.069v1.544a1.325,1.325,0,0,1-1.323,1.323H8.014a1.325,1.325,0,0,1-1.323-1.323v-29.9a.835.835,0,0,0-1.671,0v29.9a3,3,0,0,0,2.994,2.994H32.746a3,3,0,0,0,2.994-2.994V52.54h8.33a.835.835,0,1,0,0-1.671H15.493a.047.047,0,0,1-.047-.047V28.849a.048.048,0,0,1,.047-.048H59.261a.048.048,0,0,1,.047.048V50.822a.048.048,0,0,1-.047.047h-11.3a.835.835,0,1,0,0,1.671h11.3a1.72,1.72,0,0,0,1.718-1.718V28.849a1.72,1.72,0,0,0-1.718-1.718ZM26.088,3.831a.745.745,0,0,1-.716.528H15.388a.745.745,0,0,1-.716-.528l-.666-2.16H26.754Z" transform="translate(0 0)" fill="#53435c"/>
        <path id="Trazado_1008168" data-name="Trazado 1008168" d="M122.1,292.613a1.346,1.346,0,0,0,1.283.921h30.207a1.345,1.345,0,0,0,1.283-.92,3.3,3.3,0,0,1,2.3-2.163,1.352,1.352,0,0,0,1-1.308v-9.591a1.352,1.352,0,0,0-1-1.308,3.3,3.3,0,0,1-2.3-2.163,1.346,1.346,0,0,0-1.283-.92H123.378a1.345,1.345,0,0,0-1.283.92,3.3,3.3,0,0,1-2.3,2.163,1.352,1.352,0,0,0-1,1.308v9.591a1.352,1.352,0,0,0,1,1.308,3.3,3.3,0,0,1,2.3,2.163Zm-1.626-12.825a4.965,4.965,0,0,0,3.132-2.957h29.762a4.965,4.965,0,0,0,3.132,2.957v9.117a4.966,4.966,0,0,0-3.132,2.957H123.6a4.965,4.965,0,0,0-3.132-2.957Z" transform="translate(-101.105 -244.511)" fill="#53435c"/>
        <path id="Trazado_1008169" data-name="Trazado 1008169" d="M111.8,274.953a.863.863,0,1,0-.862-.863A.863.863,0,0,0,111.8,274.953Z" transform="translate(-94.117 -242.794)" fill="#53435c"/>
        <path id="Trazado_1008170" data-name="Trazado 1008170" d="M465.474,273.228a.863.863,0,1,0,.863.862A.862.862,0,0,0,465.474,273.228Z" transform="translate(-408.4 -242.794)" fill="#53435c"/>
        <circle id="Elipse_16070" data-name="Elipse 16070" cx="0.863" cy="0.863" r="0.863" transform="translate(16.562 48.855) rotate(-67.486)" fill="#53435c"/>
        <ellipse id="Elipse_16071" data-name="Elipse 16071" cx="0.862" cy="0.863" rx="0.862" ry="0.863" transform="matrix(0.987, -0.16, 0.16, 0.987, 56.072, 47.667)" fill="#53435c"/>
        <path id="Trazado_1008171" data-name="Trazado 1008171" d="M266.961,310.187a3.971,3.971,0,0,0,1.953.735v.482a.835.835,0,1,0,1.671,0v-.561a3.321,3.321,0,0,0,2.4-2.64A2.924,2.924,0,0,0,271,304.9c-.136-.048-.273-.1-.412-.149v-2.52a2.308,2.308,0,0,1,.665.46.835.835,0,0,0,1.374-.8,1.283,1.283,0,0,0-.505-.665,3.461,3.461,0,0,0-1.533-.73v-.428a.835.835,0,0,0-1.671,0v.486c-.044.012-.088.023-.133.037a2.754,2.754,0,0,0-1.889,2.159,2.449,2.449,0,0,0,.81,2.412,5.973,5.973,0,0,0,1.212.71v3.375a2.465,2.465,0,0,1-1.039-.453.835.835,0,0,0-.915,1.4Zm3.624-3.657a1.228,1.228,0,0,1,.751,1.4,1.652,1.652,0,0,1-.751,1.121Zm-1.851-2.688a.815.815,0,0,1-.2-.788,1.194,1.194,0,0,1,.38-.674v1.591C268.85,303.928,268.789,303.885,268.733,303.842Z" transform="translate(-232.428 -265.898)" fill="#53435c"/>
      </g>
    </g>
  </g>
</svg>
