<svg xmlns="http://www.w3.org/2000/svg" width="84" height="84" viewBox="0 0 84 84">
  <g id="Grupo_1182398" data-name="Grupo 1182398" transform="translate(-186 -1357)">
    <rect id="Rectángulo_402006" data-name="Rectángulo 402006" width="84" height="84" rx="5" transform="translate(186 1357)" fill="#ff984a"/>
    <g id="Grupo_1183146" data-name="Grupo 1183146" transform="translate(198.383 1369.383)">
      <path id="Trazado_1008207" data-name="Trazado 1008207" d="M54.674,14a2.672,2.672,0,0,0,4.561-1.889V2.672A2.675,2.675,0,0,0,56.563,0H47.121a2.672,2.672,0,0,0,0,5.343h2.992L39.864,15.592a17.287,17.287,0,0,0-7.576-3.147V9.121l.479.479a2.672,2.672,0,1,0,3.778-3.778L31.506.782a2.675,2.675,0,0,0-3.778,0l-5.04,5.04A2.672,2.672,0,1,0,26.466,9.6l.479-.479v3.324a17.288,17.288,0,0,0-7.576,3.147l-3.714-3.714A.868.868,0,1,0,14.429,13.1l3.587,3.587a17.518,17.518,0,0,0-1.324,1.324l-11.6-11.6a.868.868,0,0,0-1.481.614v5.086a.936.936,0,0,1-1.872,0V2.672a.937.937,0,0,1,.936-.936h9.441a.936.936,0,1,1,0,1.872H7.026a.868.868,0,0,0-.614,1.481l5.076,5.076a.868.868,0,0,0,1.227-1.227l-3.6-3.6h2.992a2.672,2.672,0,0,0,0-5.343H2.672A2.675,2.675,0,0,0,0,2.672v9.442a2.672,2.672,0,0,0,5.343,0V9.121L15.592,19.37a17.289,17.289,0,0,0-3.147,7.576H9.121l.479-.479a2.672,2.672,0,0,0-3.778-3.778l-5.04,5.04a2.675,2.675,0,0,0,0,3.778l5.04,5.04A2.672,2.672,0,1,0,9.6,32.768l-.479-.479h3.324a17.288,17.288,0,0,0,3.147,7.576L5.343,50.113V47.121a2.672,2.672,0,0,0-5.343,0v9.441a2.675,2.675,0,0,0,2.672,2.672h9.442a2.672,2.672,0,0,0,0-5.343H9.121L19.37,43.643a17.289,17.289,0,0,0,7.576,3.147v3.324l-.479-.479a2.672,2.672,0,0,0-3.778,3.778l5.04,5.04a2.675,2.675,0,0,0,3.778,0l5.04-5.04a2.672,2.672,0,1,0-3.778-3.778l-.479.479V46.789a17.288,17.288,0,0,0,7.576-3.147L50.113,53.891H47.121a2.672,2.672,0,0,0,0,5.343h9.441a2.675,2.675,0,0,0,2.672-2.672V47.121a2.672,2.672,0,0,0-5.343,0v2.992L43.643,39.864a17.287,17.287,0,0,0,3.147-7.576h3.324l-.479.479a2.672,2.672,0,0,0,3.778,3.778l5.04-5.04a2.675,2.675,0,0,0,0-3.778l-5.04-5.04a2.672,2.672,0,1,0-3.778,3.778l.479.479H46.789a17.288,17.288,0,0,0-3.147-7.576L53.891,9.121v2.992A2.654,2.654,0,0,0,54.674,14ZM28.145,6.225a.868.868,0,0,0-.946.188L25.239,8.373a.936.936,0,1,1-1.324-1.324l5.04-5.04a.937.937,0,0,1,1.324,0l5.04,5.04A.936.936,0,1,1,34,8.374L32.034,6.413a.868.868,0,0,0-1.481.614v5.239q-.465-.025-.936-.025t-.936.025V7.026a.867.867,0,0,0-.536-.8ZM7.026,30.553a.868.868,0,0,0-.614,1.481L8.373,34A.936.936,0,1,1,7.05,35.319l-5.04-5.04a.937.937,0,0,1,0-1.324l5.04-5.04a.936.936,0,1,1,1.324,1.324L6.413,27.2a.868.868,0,0,0,.614,1.481h5.239q-.025.465-.025.936t.025.936ZM29.617,13.975A15.642,15.642,0,1,1,13.975,29.617,15.66,15.66,0,0,1,29.617,13.975Zm-23.2,40.17a.868.868,0,0,0,.614,1.481h5.086a.936.936,0,0,1,0,1.872H2.672a.937.937,0,0,1-.936-.936V47.121a.936.936,0,1,1,1.872,0v5.087a.868.868,0,0,0,1.481.614l11.6-11.6a17.52,17.52,0,0,0,1.324,1.324Zm24.676-1.136a.867.867,0,0,0,.946-.188L34,50.861a.936.936,0,1,1,1.324,1.324l-5.04,5.04a.937.937,0,0,1-1.324,0l-5.04-5.04a.936.936,0,1,1,1.324-1.324L27.2,52.821a.868.868,0,0,0,1.481-.614V46.969q.465.025.936.025t.936-.025v5.239a.868.868,0,0,0,.536.8Zm23.056-.188a.868.868,0,0,0,1.481-.614V47.121a.936.936,0,0,1,1.872,0v9.441a.937.937,0,0,1-.936.936H47.121a.936.936,0,1,1,0-1.872h5.087a.868.868,0,0,0,.614-1.481l-11.6-11.6a17.54,17.54,0,0,0,1.324-1.324Zm-1.937-24.14a.868.868,0,0,0,.614-1.481l-1.961-1.961a.936.936,0,1,1,1.324-1.324l5.04,5.04a.937.937,0,0,1,0,1.324l-5.04,5.04A.936.936,0,1,1,50.861,34l1.961-1.961a.868.868,0,0,0-.614-1.481H46.969q.025-.465.025-.936t-.025-.936ZM42.543,18.015a17.54,17.54,0,0,0-1.324-1.324l11.6-11.6a.868.868,0,0,0-.614-1.481H47.121a.936.936,0,1,1,0-1.872h9.441a.937.937,0,0,1,.936.936v9.441a.936.936,0,1,1-1.872,0V7.026a.868.868,0,0,0-1.481-.614Z" fill="#53435c"/>
      <path id="Trazado_1008208" data-name="Trazado 1008208" d="M154.688,167.943a13.26,13.26,0,0,0,3.885-.579.868.868,0,1,0-.508-1.659,11.524,11.524,0,0,1-12.265-3.7,5.516,5.516,0,0,1,4.109-3.89,6.537,6.537,0,0,0,1.465,1.19v.654a3.314,3.314,0,0,0,6.628,0v-.654a6.539,6.539,0,0,0,1.465-1.19,5.512,5.512,0,0,1,4.109,3.889,11.479,11.479,0,0,1-2.066,1.962.868.868,0,1,0,1.029,1.4,13.255,13.255,0,1,0-7.85,2.574Zm0-6.4a1.579,1.579,0,0,1-1.575-1.515,6.485,6.485,0,0,0,3.151,0A1.579,1.579,0,0,1,154.687,161.541Zm0-3.056a4.764,4.764,0,0,1-4.759-4.759v-2.563a4.337,4.337,0,0,1,4.332-4.332h.854a4.336,4.336,0,0,1,4.332,4.332v2.563a4.764,4.764,0,0,1-4.759,4.759Zm0-15.317a11.507,11.507,0,0,1,10.068,17.1,7.28,7.28,0,0,0-4.248-3.665,6.453,6.453,0,0,0,.675-2.878v-2.563a6.074,6.074,0,0,0-6.067-6.067h-.854a6.074,6.074,0,0,0-6.067,6.067v2.563a6.453,6.453,0,0,0,.675,2.879,7.287,7.287,0,0,0-4.251,3.67,11.515,11.515,0,0,1,10.07-17.107Z" transform="translate(-125.07 -125.071)" fill="#53435c"/>
      <path id="Trazado_1008209" data-name="Trazado 1008209" d="M238.79,249.663a.868.868,0,0,0-.868.868.724.724,0,0,1-1.449,0,.868.868,0,0,0-1.735,0,2.46,2.46,0,0,0,4.92,0A.868.868,0,0,0,238.79,249.663Z" transform="translate(-207.581 -220.779)" fill="#53435c"/>
    </g>
  </g>
</svg>
