<svg xmlns="http://www.w3.org/2000/svg" width="84" height="84" viewBox="0 0 84 84">
  <g id="Grupo_1182399" data-name="Grupo 1182399" transform="translate(-186 -1357)">
    <rect id="Rectángulo_402006" data-name="Rectángulo 402006" width="84" height="84" rx="5" transform="translate(186 1357)" fill="#ff984a"/>
    <g id="Grupo_1183149" data-name="Grupo 1183149" transform="translate(199.272 1370.704)">
      <path id="Trazado_1008247" data-name="Trazado 1008247" d="M50.9,316.1l-8.155,4.708a3.831,3.831,0,0,0-3.48-2.25H27.926l-3.534-1.178a14.349,14.349,0,0,0-4.542-.737h-.814a14.363,14.363,0,0,0-7.391,2.048l-1.376.825H9.576a.958.958,0,0,0-.958-.958H.957a.958.958,0,0,0-.958.958v13.406a.958.958,0,0,0,.958.958H8.618a.958.958,0,0,0,.958-.958h7.211a6.652,6.652,0,0,1,.784.046l11.415,1.341a14.087,14.087,0,0,0,1.656.1,14.463,14.463,0,0,0,7.2-1.923l16.88-9.742a3.834,3.834,0,0,0,0-6.638,3.832,3.832,0,0,0-3.831,0ZM7.661,331.962H1.915V320.471H7.661Zm46.108-10.884-16.88,9.746a12.524,12.524,0,0,1-7.682,1.582l-11.415-1.341a8.694,8.694,0,0,0-1-.061H9.576v-9.576h.958a.959.959,0,0,0,.493-.137l1.6-.958a12.451,12.451,0,0,1,6.405-1.779h.814a12.46,12.46,0,0,1,3.937.639l3.682,1.228a.95.95,0,0,0,.3.049H39.262a1.915,1.915,0,0,1,0,3.83H24.9v1.915H39.262a3.823,3.823,0,0,0,3.785-3.375l8.8-5.081a1.917,1.917,0,0,1,1.92,3.318Zm0,0" transform="translate(0 -277.81)" fill="#53435c"/>
      <path id="Trazado_1008248" data-name="Trazado 1008248" d="M62.485.526H54.824a.958.958,0,0,0-.958.958H46.655a6.65,6.65,0,0,1-.784-.046L34.456.1A14.443,14.443,0,0,0,25.6,1.922L8.716,11.667A3.793,3.793,0,0,0,6.8,14.986a3.842,3.842,0,0,0,5.746,3.319L20.7,13.6a3.829,3.829,0,0,0,3.48,2.25H35.517l3.534,1.178a14.324,14.324,0,0,0,4.542.737h.814A14.363,14.363,0,0,0,51.8,15.716l1.376-.826h.692a.958.958,0,0,0,.958.958h7.661a.958.958,0,0,0,.958-.958V1.484a.958.958,0,0,0-.958-.958ZM52.909,12.975a.965.965,0,0,0-.493.137l-1.6.958a12.446,12.446,0,0,1-6.405,1.778h-.814a12.447,12.447,0,0,1-3.937-.639l-3.682-1.227a.965.965,0,0,0-.3-.049H24.181a1.915,1.915,0,1,1,0-3.83H38.545V8.187H24.181A3.823,3.823,0,0,0,20.4,11.563l-8.8,5.081a1.915,1.915,0,0,1-2.877-1.658,1.9,1.9,0,0,1,.958-1.66l16.88-9.747A12.527,12.527,0,0,1,34.236,2L45.65,3.338a8.587,8.587,0,0,0,1,.061h7.211v9.576Zm8.618.958H55.782V2.441h5.746Zm0,0" transform="translate(-5.987 0)" fill="#53435c"/>
      <path id="Trazado_1008249" data-name="Trazado 1008249" d="M136,159.889a4.788,4.788,0,0,0,9.576,0,.957.957,0,0,0-.1-.428l-3.138-6.275h3.415a2.872,2.872,0,0,0,1.739,1.739v11.667H142.7v1.915h11.491v-1.915h-4.788V154.925a2.872,2.872,0,0,0,1.739-1.739h3.415l-3.143,6.275a.962.962,0,0,0-.1.428,4.788,4.788,0,1,0,9.576,0,.962.962,0,0,0-.1-.428l-3.143-6.275h1.323v-1.915h-7.837a2.872,2.872,0,0,0-1.739-1.739V148.4h-1.915v1.134a2.872,2.872,0,0,0-1.739,1.739h-7.837v1.915h1.323l-3.138,6.275a.957.957,0,0,0-.1.428Zm20.11-5.519,2.281,4.562h-4.562Zm0,8.392a2.871,2.871,0,0,1-2.7-1.915h5.391a2.871,2.871,0,0,1-2.7,1.915Zm-7.661-11.491a.958.958,0,1,1-.958.958A.958.958,0,0,1,148.449,151.271Zm-7.661,11.491a2.871,2.871,0,0,1-2.7-1.915h5.391a2.871,2.871,0,0,1-2.7,1.915Zm-2.281-3.83,2.281-4.562,2.281,4.562Zm0,0" transform="translate(-119.721 -130.635)" fill="#53435c"/>
      <path id="Trazado_1008250" data-name="Trazado 1008250" d="M160,300.4h1.915v1.915H160Zm0,0" transform="translate(-140.848 -264.441)" fill="#53435c"/>
      <path id="Trazado_1008251" data-name="Trazado 1008251" d="M304,300.4h1.915v1.915H304Zm0,0" transform="translate(-267.611 -264.441)" fill="#53435c"/>
    </g>
  </g>
</svg>
