<svg xmlns="http://www.w3.org/2000/svg" width="80" height="80" viewBox="0 0 80 80">
  <g id="Grupo_1182418" data-name="Grupo 1182418" transform="translate(-175.889 -5521)">
    <rect id="Rectángulo_402006" data-name="Rectángulo 402006" width="80" height="80" rx="5" transform="translate(175.889 5521)" fill="#ff984a"/>
    <g id="Grupo_1183155" data-name="Grupo 1183155" transform="translate(181.212 5531.611)">
      <g id="Grupo_1183154" data-name="Grupo 1183154" transform="translate(5.974 0)">
        <path id="Trazado_1008280" data-name="Trazado 1008280" d="M33.879,49.714,28.8,45.83a2.874,2.874,0,0,0-4.434,3.293H22.3a1.133,1.133,0,0,1-1.132-1.132v-4.06h7.664A3.033,3.033,0,0,0,31.861,40.9V3.029A3.033,3.033,0,0,0,28.832,0H9A3.033,3.033,0,0,0,5.974,3.029V40.9A3.033,3.033,0,0,0,9,43.931h6.422v.793a.86.86,0,0,0,1.72,0V42.105a1.152,1.152,0,0,1,2.3,0v5.886A2.855,2.855,0,0,0,22.3,50.843h3.895a.86.86,0,0,0,.523-1.542l-.359-.275a1.152,1.152,0,0,1,1.4-1.83l5.075,3.884a1.152,1.152,0,0,1,0,1.833l-5.09,3.865a1.153,1.153,0,0,1-1.614-.221,1.152,1.152,0,0,1,.221-1.614l.33-.251a.86.86,0,0,0-.52-1.545H22.3a5.149,5.149,0,0,1-5.123-4.576.86.86,0,0,0-1.709.192,6.867,6.867,0,0,0,6.832,6.1h2.047a2.889,2.889,0,0,0-.175.995,2.873,2.873,0,0,0,4.608,2.286l5.09-3.865a2.872,2.872,0,0,0,.009-4.567ZM25.124,1.72l-.639,2.07a.693.693,0,0,1-.665.491H14.015a.693.693,0,0,1-.665-.491l-.638-2.07ZM18.3,39.234a2.875,2.875,0,0,0-2.872,2.872v.106H9a1.311,1.311,0,0,1-1.31-1.31V3.029A1.311,1.311,0,0,1,9,1.72h1.908L11.706,4.3A2.4,2.4,0,0,0,14.015,6H23.82a2.4,2.4,0,0,0,2.309-1.7l.795-2.577h1.908a1.311,1.311,0,0,1,1.31,1.31V40.9a1.311,1.311,0,0,1-1.31,1.31H21.168v-.106A2.875,2.875,0,0,0,18.3,39.234Z" transform="translate(-5.974 0)" fill="#53435c"/>
        <path id="Trazado_1008281" data-name="Trazado 1008281" d="M37.442,107.244H40.28a.472.472,0,0,1,.406.243,7.56,7.56,0,0,0,4.333,3.187,1.041,1.041,0,0,0,1.162-1.587,2.89,2.89,0,0,1-.406-1.331.466.466,0,0,1,.119-.362.455.455,0,0,1,.34-.15H52.6a1.979,1.979,0,0,0,1.977-1.977V94.545A1.979,1.979,0,0,0,52.6,92.568H37.442a1.979,1.979,0,0,0-1.977,1.977v10.722A1.979,1.979,0,0,0,37.442,107.244Zm-.257-12.7a.258.258,0,0,1,.257-.257H52.6a.258.258,0,0,1,.257.257v10.722a.258.258,0,0,1-.257.257H46.233a2.183,2.183,0,0,0-2.171,2.4q.026.272.073.526a5.058,5.058,0,0,1-1.967-1.831,2.2,2.2,0,0,0-1.889-1.093H37.442a.258.258,0,0,1-.257-.257Z" transform="translate(-32.078 -81.938)" fill="#53435c"/>
        <path id="Trazado_1008282" data-name="Trazado 1008282" d="M60.85,123.369H72.612a.86.86,0,1,0,0-1.72H60.85a.86.86,0,0,0,0,1.72Z" transform="translate(-53.787 -107.68)" fill="#53435c"/>
        <path id="Trazado_1008283" data-name="Trazado 1008283" d="M60.85,150.7h6.013a.86.86,0,0,0,0-1.72H60.85a.86.86,0,1,0,0,1.72Z" transform="translate(-53.787 -131.873)" fill="#53435c"/>
        <path id="Trazado_1008284" data-name="Trazado 1008284" d="M148.762,148.981h-1.7a.86.86,0,0,0,0,1.72h1.7a.86.86,0,1,0,0-1.72Z" transform="translate(-130.097 -131.873)" fill="#53435c"/>
        <path id="Trazado_1008285" data-name="Trazado 1008285" d="M60.85,178.034H72.292a.86.86,0,0,0,0-1.72H60.85a.86.86,0,0,0,0,1.72Z" transform="translate(-53.787 -156.067)" fill="#53435c"/>
        <path id="Trazado_1008286" data-name="Trazado 1008286" d="M54.579,277.5a3.036,3.036,0,0,0-3.032-3.032H38.5a3.032,3.032,0,0,0,0,6.064h13.05A3.036,3.036,0,0,0,54.579,277.5Zm-17.395,0a1.314,1.314,0,0,1,1.313-1.313h13.05a1.313,1.313,0,1,1,0,2.625H38.5A1.314,1.314,0,0,1,37.184,277.5Z" transform="translate(-32.078 -242.947)" fill="#53435c"/>
        <path id="Trazado_1008287" data-name="Trazado 1008287" d="M303.3,129.291H283.474a3.033,3.033,0,0,0-3.029,3.029v37.872a3.033,3.033,0,0,0,3.029,3.029H303.3a3.033,3.033,0,0,0,3.029-3.029V132.32A3.033,3.033,0,0,0,303.3,129.291Zm1.31,40.9a1.311,1.311,0,0,1-1.31,1.31H283.474a1.311,1.311,0,0,1-1.31-1.31V132.32a1.311,1.311,0,0,1,1.31-1.31h1.908l.795,2.577a2.4,2.4,0,0,0,2.309,1.7h.573a.86.86,0,1,0,0-1.719h-.573a.693.693,0,0,1-.665-.491l-.639-2.07H299.6l-.638,2.07a.693.693,0,0,1-.665.491h-5.342a.86.86,0,1,0,0,1.719h5.342a2.4,2.4,0,0,0,2.309-1.7l.795-2.577H303.3a1.311,1.311,0,0,1,1.31,1.31v37.872Z" transform="translate(-248.927 -114.444)" fill="#53435c"/>
        <path id="Trazado_1008288" data-name="Trazado 1008288" d="M331.082,256.6l-8.073-6.661a1.293,1.293,0,0,0-1.643,0l-8.073,6.661a.881.881,0,0,0-.313.663v11.6a1.355,1.355,0,0,0,1.354,1.354h15.708a1.355,1.355,0,0,0,1.354-1.354V257.49a2.75,2.75,0,0,0-.007-.34A.868.868,0,0,0,331.082,256.6Zm-8.895-5.109,6.9,5.7-6.9,4.563-6.9-4.563Zm7.488,7.427v9.58H314.7v-9.636l6.7,4.427h0a1.431,1.431,0,0,0,1.58,0l6.7-4.427Z" transform="translate(-277.725 -220.973)" fill="#53435c"/>
      </g>
    </g>
  </g>
</svg>
