<svg xmlns="http://www.w3.org/2000/svg" width="150" height="150" viewBox="0 0 150 150">
  <g id="Grupo_1177488" data-name="Grupo 1177488" transform="translate(-383.746 -8400)">
    <circle id="Elipse_13609" data-name="Elipse 13609" cx="75" cy="75" r="75" transform="translate(383.746 8400)" fill="#cfa9e6"/>
    <g id="Grupo_1183190" data-name="Grupo 1183190" transform="translate(424.873 8432.658)">
      <path id="Trazado_1008442" data-name="Trazado 1008442" d="M67.728,18.26a1.375,1.375,0,0,0-.073-.365c-.016-.045-.027-.088-.047-.132a1.4,1.4,0,0,0-.282-.413L50.39.414a1.417,1.417,0,0,0-.413-.283c-.043-.019-.086-.031-.13-.046a1.394,1.394,0,0,0-.371-.074C49.453.016,49.427,0,49.4,0H7.057A7.065,7.065,0,0,0,0,7.057V77.626a7.065,7.065,0,0,0,7.057,7.057H60.689a7.065,7.065,0,0,0,7.057-7.057V18.348C67.746,18.318,67.73,18.291,67.728,18.26Zm-4.8-1.324H52.221a1.411,1.411,0,0,1-1.411-1.411V4.819ZM60.689,81.86H7.057a4.234,4.234,0,0,1-4.234-4.234V7.057A4.234,4.234,0,0,1,7.057,2.823h40.93v12.7a4.234,4.234,0,0,0,4.234,4.234h12.7V77.626A4.234,4.234,0,0,1,60.689,81.86Zm0,0" fill="#53435c"/>
      <path id="Trazado_1008443" data-name="Trazado 1008443" d="M104.93,139.759h-1.411V132.7a12.716,12.716,0,0,0-12.7-12.7H82.348a12.716,12.716,0,0,0-12.7,12.7v7.057H68.234A4.234,4.234,0,0,0,64,143.993V170.81a4.234,4.234,0,0,0,4.234,4.234h36.7a4.234,4.234,0,0,0,4.234-4.234V143.993A4.234,4.234,0,0,0,104.93,139.759ZM72.468,132.7a9.893,9.893,0,0,1,9.88-9.88h8.468a9.892,9.892,0,0,1,9.88,9.88v7.057H97.873V132.7a7.065,7.065,0,0,0-7.057-7.057H82.348a7.065,7.065,0,0,0-7.057,7.057v7.057H72.468Zm22.582,7.057H78.114V132.7a4.234,4.234,0,0,1,4.234-4.234h8.468A4.234,4.234,0,0,1,95.05,132.7Zm11.291,31.05a1.411,1.411,0,0,1-1.411,1.411h-36.7a1.411,1.411,0,0,1-1.411-1.411V143.993a1.411,1.411,0,0,1,1.411-1.411h36.7a1.411,1.411,0,0,1,1.411,1.411Zm0,0" transform="translate(-52.709 -98.829)" fill="#53435c"/>
      <path id="Trazado_1008444" data-name="Trazado 1008444" d="M160.764,264.2a7.06,7.06,0,0,0-5.947,12.5v7.057a4.234,4.234,0,1,0,8.468,0V276.7a7.071,7.071,0,0,0,2.61-7.4,6.974,6.974,0,0,0-5.131-5.1Zm.407,10.512a1.413,1.413,0,0,0-.706,1.224v7.819a1.411,1.411,0,1,1-2.823,0V275.94a1.413,1.413,0,0,0-.706-1.224,4.233,4.233,0,0,1-.5-6.983,4.156,4.156,0,0,1,2.608-.91,4.638,4.638,0,0,1,1.071.128,4.185,4.185,0,0,1,3.038,3.016,4.257,4.257,0,0,1-1.983,4.749Zm0,0" transform="translate(-125.178 -217.424)" fill="#53435c"/>
      <path id="Trazado_1008445" data-name="Trazado 1008445" d="M46.114,33.411A1.411,1.411,0,0,0,44.7,32H36.234A4.234,4.234,0,0,0,32,36.234V44.7a1.411,1.411,0,1,0,2.823,0V36.234a1.411,1.411,0,0,1,1.411-1.411H44.7A1.411,1.411,0,0,0,46.114,33.411Zm0,0" transform="translate(-26.355 -26.354)" fill="#53435c"/>
    </g>
  </g>
</svg>
