<svg xmlns="http://www.w3.org/2000/svg" width="150" height="150" viewBox="0 0 150 150">
  <g id="Grupo_1182439" data-name="Grupo 1182439" transform="translate(-383.746 -8400)">
    <circle id="Elipse_13609" data-name="Elipse 13609" cx="75" cy="75" r="75" transform="translate(383.746 8400)" fill="#cfa9e6"/>
    <g id="_04-Schedule" data-name="04-Schedule" transform="translate(418.639 8427.868)">
      <path id="Trazado_1008461" data-name="Trazado 1008461" d="M32.486,27.4a1.27,1.27,0,0,0-1.27-1.27H23.594a1.27,1.27,0,0,0-1.27,1.27v7.621a1.27,1.27,0,0,0,1.27,1.27h7.621a1.27,1.27,0,0,0,1.27-1.27Zm-2.54,6.351H24.864V28.675h5.081ZM36.3,26.135a1.27,1.27,0,0,0-1.27,1.27v7.621A1.27,1.27,0,0,0,36.3,36.3h7.621a1.27,1.27,0,0,0,1.27-1.27V27.4a1.27,1.27,0,0,0-1.27-1.27Zm6.351,7.621H37.567V28.675h5.081ZM19.783,40.107a1.27,1.27,0,0,0-1.27-1.27H10.892a1.27,1.27,0,0,0-1.27,1.27v7.621A1.27,1.27,0,0,0,10.892,49h7.621a1.27,1.27,0,0,0,1.27-1.27Zm-2.54,6.351H12.162V41.378h5.081Zm15.243-6.351a1.27,1.27,0,0,0-1.27-1.27H23.594a1.27,1.27,0,0,0-1.27,1.27v7.621A1.27,1.27,0,0,0,23.594,49h7.621a1.27,1.27,0,0,0,1.27-1.27Zm-2.54,6.351H24.864V41.378h5.081ZM18.513,51.54H10.892a1.27,1.27,0,0,0-1.27,1.27v7.621a1.27,1.27,0,0,0,1.27,1.27h7.621a1.27,1.27,0,0,0,1.27-1.27V52.81a1.27,1.27,0,0,0-1.27-1.27Zm-1.27,7.621H12.162V54.08h5.081ZM31.216,51.54H23.594a1.27,1.27,0,0,0-1.27,1.27v7.621a1.27,1.27,0,0,0,1.27,1.27h7.621a1.27,1.27,0,0,0,1.27-1.27V52.81a1.27,1.27,0,0,0-1.27-1.27Zm-1.27,7.621H24.864V54.08h5.081ZM56.621,35.026A21.594,21.594,0,1,0,78.215,56.621,21.594,21.594,0,0,0,56.621,35.026Zm0,40.648A19.054,19.054,0,1,1,75.674,56.621,19.054,19.054,0,0,1,56.621,75.674ZM33.756,66.783H8.351A3.815,3.815,0,0,1,4.54,62.972V21.054H62.972V32.486a1.27,1.27,0,0,0,2.54,0V14.7a6.359,6.359,0,0,0-6.351-6.351H55.35V5.811a3.811,3.811,0,0,0-7.621,0v2.54H37.567V5.811a3.811,3.811,0,0,0-7.621,0v2.54H19.783V5.811a3.811,3.811,0,1,0-7.621,0v2.54H8.351A6.359,6.359,0,0,0,2,14.7V62.972a6.359,6.359,0,0,0,6.351,6.351h25.4a1.27,1.27,0,1,0,0-2.54ZM50.269,5.811a1.27,1.27,0,1,1,2.54,0v6.351a1.27,1.27,0,1,1-2.54,0Zm-17.783,0a1.27,1.27,0,1,1,2.54,0v6.351a1.27,1.27,0,1,1-2.54,0Zm-17.783,0a1.27,1.27,0,1,1,2.54,0v6.351a1.27,1.27,0,1,1-2.54,0ZM8.351,10.892h3.811v1.27a3.811,3.811,0,1,0,7.621,0v-1.27H29.945v1.27a3.811,3.811,0,0,0,7.621,0v-1.27H47.729v1.27a3.811,3.811,0,0,0,7.621,0v-1.27h3.811A3.815,3.815,0,0,1,62.972,14.7v3.811H4.54V14.7a3.815,3.815,0,0,1,3.811-3.811Zm47,20.324v-2.54H50.269v3.707a1.27,1.27,0,1,1-2.54,0V27.4A1.27,1.27,0,0,1,49,26.135h7.621a1.27,1.27,0,0,1,1.27,1.27v3.811a1.27,1.27,0,1,1-2.54,0Zm1.27,8.892A16.513,16.513,0,1,0,73.134,56.621,16.513,16.513,0,0,0,56.621,40.107Zm1.27,30.422V68.053a1.27,1.27,0,0,0-2.54,0v2.476A13.987,13.987,0,0,1,42.712,57.891h2.476a1.27,1.27,0,1,0,0-2.54H42.712A13.987,13.987,0,0,1,55.35,42.712v2.476a1.27,1.27,0,1,0,2.54,0V42.712A13.987,13.987,0,0,1,70.529,55.35H68.053a1.27,1.27,0,0,0,0,2.54h2.476A13.987,13.987,0,0,1,57.891,70.529Zm3.439-11a1.27,1.27,0,1,1-1.8,1.8l-3.811-3.811a1.27,1.27,0,0,1-.372-.9V50.269a1.27,1.27,0,1,1,2.54,0v5.825Z" transform="translate(0 0)" fill="#53435c"/>
    </g>
  </g>
</svg>
