<svg xmlns="http://www.w3.org/2000/svg" width="150" height="150" viewBox="0 0 150 150">
  <g id="Grupo_1182440" data-name="Grupo 1182440" transform="translate(-383.746 -8400)">
    <circle id="Elipse_13609" data-name="Elipse 13609" cx="75" cy="75" r="75" transform="translate(383.746 8400)" fill="#cfa9e6"/>
    <g id="Grupo_1183192" data-name="Grupo 1183192" transform="translate(417.565 8433.82)">
      <path id="Trazado_1008462" data-name="Trazado 1008462" d="M86.609,333.217h24.129a1.609,1.609,0,1,0,0-3.217H86.609a1.609,1.609,0,1,0,0,3.217Z" transform="translate(-71.327 -276.916)" fill="#53435c"/>
      <path id="Trazado_1008463" data-name="Trazado 1008463" d="M86.609,43.217H99.478a1.609,1.609,0,0,0,0-3.217H86.609a1.609,1.609,0,1,0,0,3.217Z" transform="translate(-71.327 -33.566)" fill="#53435c"/>
      <path id="Trazado_1008464" data-name="Trazado 1008464" d="M86.609,83.217H99.478a1.609,1.609,0,0,0,0-3.217H86.609a1.609,1.609,0,1,0,0,3.217Z" transform="translate(-71.327 -67.131)" fill="#53435c"/>
      <circle id="Elipse_16079" data-name="Elipse 16079" cx="1.568" cy="1.568" r="1.568" transform="translate(6.676 22.359)" fill="#53435c"/>
      <path id="Trazado_1008465" data-name="Trazado 1008465" d="M85,224.478a1.609,1.609,0,0,0,1.609,1.609h6.434a1.609,1.609,0,0,0,1.609-1.609V211.609A1.609,1.609,0,0,0,93.043,210H86.609A1.609,1.609,0,0,0,85,211.609Zm3.217-11.26h3.217v9.652H88.217Z" transform="translate(-71.327 -176.219)" fill="#53435c"/>
      <path id="Trazado_1008466" data-name="Trazado 1008466" d="M166.609,190A1.609,1.609,0,0,0,165,191.609v16.086a1.609,1.609,0,0,0,1.609,1.609h6.434a1.609,1.609,0,0,0,1.609-1.609V191.609A1.609,1.609,0,0,0,173.043,190Zm4.826,16.086h-3.217V193.217h3.217Z" transform="translate(-138.458 -159.436)" fill="#53435c"/>
      <path id="Trazado_1008467" data-name="Trazado 1008467" d="M253.043,160h-6.434A1.609,1.609,0,0,0,245,161.609v20.912a1.609,1.609,0,0,0,1.609,1.609h6.434a1.609,1.609,0,0,0,1.609-1.609V161.609A1.609,1.609,0,0,0,253.043,160Zm-1.609,20.912h-3.217V163.217h3.217Z" transform="translate(-205.589 -134.262)" fill="#53435c"/>
      <path id="Trazado_1008468" data-name="Trazado 1008468" d="M86.609,74.3c9.092,0,16.584-1.444,22.269-4.293a22.091,22.091,0,0,0,9.786-9.021l.94,2.582a1.609,1.609,0,1,0,3.023-1.1l-2.334-6.413a1.609,1.609,0,0,0-2.062-.961l-6.413,2.334a1.609,1.609,0,1,0,1.1,3.023l2.956-1.076a18.984,18.984,0,0,1-8.438,7.756C102.2,69.755,95.2,71.084,86.609,71.084a1.609,1.609,0,0,0,0,3.217Z" transform="translate(-71.327 -46.151)" fill="#53435c"/>
      <path id="Trazado_1008469" data-name="Trazado 1008469" d="M65.471,48.58a16.793,16.793,0,0,0-6.756,1.412V20.912h8.043A1.609,1.609,0,0,0,68.366,19.3V6.434A6.442,6.442,0,0,0,61.932,0H13.673A6.442,6.442,0,0,0,7.239,6.434v9.652a1.609,1.609,0,1,0,3.217,0V6.434a3.221,3.221,0,0,1,3.217-3.217h42.69A6.393,6.393,0,0,0,55.5,6.434V51.848a16.941,16.941,0,0,0-6.35,9.279H10.456V30.564a1.609,1.609,0,1,0-3.217,0V61.128H1.609A1.609,1.609,0,0,0,0,62.736v6.434a6.442,6.442,0,0,0,6.434,6.434H51.967a16.888,16.888,0,1,0,13.5-27.025ZM58.715,6.434a3.217,3.217,0,1,1,6.434,0v11.26H58.715ZM6.434,72.388a3.221,3.221,0,0,1-3.217-3.217V64.345h45.4c-.025.372-.038.748-.038,1.126a16.793,16.793,0,0,0,1.482,6.917Zm59.036,6.756A13.673,13.673,0,1,1,79.144,65.471,13.689,13.689,0,0,1,65.471,79.144Z" fill="#53435c"/>
      <path id="Trazado_1008470" data-name="Trazado 1008470" d="M381.136,350.86a13.633,13.633,0,0,1-3.444-1.6,1.008,1.008,0,0,1-.2-.933,1.418,1.418,0,0,1,.926-1.119,2.333,2.333,0,0,1,2.3.252,1.609,1.609,0,0,0,2.406-2.135,4.668,4.668,0,0,0-2.43-1.353v-.367a1.609,1.609,0,0,0-3.217,0v.526a4.6,4.6,0,0,0-3.15,3.6,4.125,4.125,0,0,0,1.376,4.06,15.861,15.861,0,0,0,4.357,2.1,1.63,1.63,0,0,1,1.2,1.933,2.2,2.2,0,0,1-2.185,1.857,3.779,3.779,0,0,1-2.746-.717,1.609,1.609,0,0,0-1.761,2.693,6.537,6.537,0,0,0,2.91,1.166v.477a1.609,1.609,0,0,0,3.217,0v-.644a5.5,5.5,0,0,0,3.739-4.3A4.859,4.859,0,0,0,381.136,350.86Z" transform="translate(-313.705 -286.985)" fill="#53435c"/>
    </g>
  </g>
</svg>
