<svg xmlns="http://www.w3.org/2000/svg" width="84" height="84" viewBox="0 0 84 84">
  <g id="Grupo_1182414" data-name="Grupo 1182414" transform="translate(-383.746 -8400)">
    <circle id="Elipse_13609" data-name="Elipse 13609" cx="42" cy="42" r="42" transform="translate(383.746 8400)" fill="#cfa9e6"/>
    <g id="Grupo_1183153" data-name="Grupo 1183153" transform="translate(400.639 8416.895)">
      <path id="Trazado_1008276" data-name="Trazado 1008276" d="M46.234,229.6a.735.735,0,0,0-1,.269l-4,6.925a.735.735,0,1,0,1.274.735l4-6.925a.735.735,0,0,0-.269-1Z" transform="translate(-37.097 -206.993)" fill="#53435c"/>
      <path id="Trazado_1008277" data-name="Trazado 1008277" d="M50.212,151.213a1.226,1.226,0,0,0-1.839-1.062l-4.92,2.841a.735.735,0,0,0,.735,1.274l4.553-2.628v14.569L44.6,168.6l-6.309-10.927,2.783-1.607a.735.735,0,0,0-.735-1.274l-7.27,4.2a6.734,6.734,0,0,1-3.363.9H21.467a3.169,3.169,0,0,0-1.788.55,1.65,1.65,0,0,1-.15-.077L1.842,150.152a1.213,1.213,0,0,0-1.226,0A1.213,1.213,0,0,0,0,151.213v15.136a1.229,1.229,0,0,0,.613,1.062L5.095,170a1.227,1.227,0,0,0,1.674-.449l.339-.587,2.031,1.172-.227.131a3.019,3.019,0,0,0,.942,5.58q-.036.1-.065.211A3.023,3.023,0,0,0,13.3,179.8a3.019,3.019,0,0,0,4.52,2.85l.394-.227a3.019,3.019,0,0,0,4.529,2.661l1.319-.762a3.018,3.018,0,0,0,.843-.72l2.566,1.482A3.022,3.022,0,0,0,32,182.421l.392.226a3.021,3.021,0,0,0,4.522-2.849,3.02,3.02,0,0,0,3.444-3.954,3.019,3.019,0,0,0,.942-5.581l-.227-.131,2.031-1.173.339.587A1.227,1.227,0,0,0,45.12,170l4.479-2.586a1.229,1.229,0,0,0,.613-1.062ZM9.081,173.654a1.548,1.548,0,0,1,.567-2.116l1.729-1a1.549,1.549,0,0,1,1.549,2.683l-1.729,1A1.551,1.551,0,0,1,9.081,173.654Zm2.285,3.957a1.548,1.548,0,0,1,.567-2.116l3.942-2.276A1.549,1.549,0,0,1,17.43,175.9l-3.949,2.28A1.551,1.551,0,0,1,11.365,177.611Zm5.72,3.763a1.549,1.549,0,0,1-1.552-2.682l3.591-2.074a1.549,1.549,0,0,1,1.55,2.683Zm6.242,1.672-1.319.762a1.549,1.549,0,0,1-1.549-2.683l1.319-.762a1.549,1.549,0,0,1,1.549,2.683Zm17.808-9.392a1.551,1.551,0,0,1-2.116.567l-6.8-3.925a.735.735,0,0,0-.735,1.274l6.8,3.925a1.549,1.549,0,0,1-1.549,2.683l-7.255-4.188a.735.735,0,0,0-.735,1.274l5.936,3.427h0a1.549,1.549,0,0,1-1.55,2.683l-5.856-3.381a.735.735,0,1,0-.735,1.274l3.218,1.858h0a1.549,1.549,0,0,1-1.551,2.682l-2.686-1.551a3.019,3.019,0,0,0-2.694-3.559,3.02,3.02,0,0,0-3.183-3.747,3.02,3.02,0,0,0-4.474-3.024,3.019,3.019,0,0,0-4.529-2.661l-.031.018-2.766-1.6.927-1.606a.735.735,0,1,0-1.274-.736L5.618,168.6l-4.144-2.392V151.638l10.453,6.035L9.195,162.4a.735.735,0,1,0,1.274.735l2.732-4.732,5.463,3.154a3.168,3.168,0,0,0-.384,1.515v4.673a1.227,1.227,0,0,0,1.226,1.226h.647a4.163,4.163,0,0,0,4.015-3.046h.423a1.21,1.21,0,0,1,1.074.636,4.537,4.537,0,0,0,7.151,1.146.75.75,0,0,1,.9-.126l6.856,3.951A1.552,1.552,0,0,1,41.134,173.654ZM39.6,169.284l-5.158-2.972a2.214,2.214,0,0,0-.539-.222,4.544,4.544,0,0,0,.205-2.633.735.735,0,1,0-1.437.312,3.061,3.061,0,0,1-.875,2.879l0,0a3.066,3.066,0,0,1-4.835-.775,2.678,2.678,0,0,0-2.372-1.415h-.27v-.788a.735.735,0,0,0-1.471,0c0,1.089.011,1.186-.016,1.436v.005a2.692,2.692,0,0,1-2.68,2.392h-.4v-4.428a1.718,1.718,0,0,1,1.716-1.716H29.7a8.205,8.205,0,0,0,4.1-1.1l3.213-1.855,5.357,9.278Z" transform="translate(0 -135.277)" fill="#53435c"/>
      <path id="Trazado_1008278" data-name="Trazado 1008278" d="M415.2,230.6l4,6.925a.735.735,0,0,0,1.274-.735l-4-6.925a.735.735,0,1,0-1.274.735Z" transform="translate(-374.392 -206.993)" fill="#53435c"/>
      <path id="Trazado_1008279" data-name="Trazado 1008279" d="M160.372,3.046h-3.886V1.226A1.227,1.227,0,0,0,155.261,0H147.1a1.227,1.227,0,0,0-1.226,1.226v1.82h-3.886a2.211,2.211,0,0,0-2.206,2.206V17.541a2.209,2.209,0,0,0,2.206,2.206H144.5a.735.735,0,1,0,0-1.471h-2.513a.736.736,0,0,1-.735-.735V5.627l6.906,6.838v.752a1.964,1.964,0,0,0,1.961,1.961h2.118a1.964,1.964,0,0,0,1.961-1.961v-.752l6.906-6.838V17.541a.736.736,0,0,1-.735.735H148.035a.735.735,0,0,0,0,1.471h12.338a2.209,2.209,0,0,0,2.206-2.206V5.253a2.211,2.211,0,0,0-2.206-2.206ZM147.348,1.471h7.667V3.046h-7.667Zm5.383,11.746a.491.491,0,0,1-.49.49h-2.118a.491.491,0,0,1-.49-.49V11.1a.491.491,0,0,1,.49-.49h2.118a.491.491,0,0,1,.49.49Zm1.374-2.726a1.965,1.965,0,0,0-1.865-1.353h-2.118a1.965,1.965,0,0,0-1.865,1.353l-6.033-5.974h17.913Z" transform="translate(-126.074)" fill="#53435c"/>
    </g>
  </g>
</svg>
