<svg xmlns="http://www.w3.org/2000/svg" xmlns:xlink="http://www.w3.org/1999/xlink" width="291.711" height="237.569" viewBox="0 0 291.711 237.569">
  <defs>
    <clipPath id="clip-path">
      <rect id="Rectángulo_458284" data-name="Rectángulo 458284" width="200.131" height="199.97" fill="none"/>
    </clipPath>
  </defs>
  <g id="Grupo_1182636" data-name="Grupo 1182636" transform="translate(-1122.41 -1406)">
    <rect id="Rectángulo_458088" data-name="Rectángulo 458088" width="291.711" height="237.569" rx="10" transform="translate(1122.41 1406)" fill="#ff984a"/>
    <g id="Grupo_1182635" data-name="Grupo 1182635" transform="translate(1167.898 1424.494)">
      <g id="Grupo_1182634" data-name="Grupo 1182634" clip-path="url(#clip-path)">
        <path id="Trazado_1006421" data-name="Trazado 1006421" d="M14.635,65.168a98.269,98.269,0,0,0-7.957,50.358,100.326,100.326,0,0,0,34.685,64.826c51.482,42.708,145.725,15.118,158.2-25.113,2.264-7.3,1.628-14.338.844-23-2.491-27.549-15.614-35.738-24.44-64.989-8.032-26.62-.113-29.616-7.624-41.451C152.057.128,105.029-1.166,72.669,11.142,60.24,15.87,30.079,30.371,14.635,65.168" transform="translate(-5.434 -3.195)" fill="#caddff"/>
        <path id="Trazado_1006422" data-name="Trazado 1006422" d="M527.068,353.383H642.406a5.738,5.738,0,0,0,5.744-5.733l-.007-160.419c-.083-4.3-2.156-6.76-5.738-6.76H527.067a5.817,5.817,0,0,0-5.738,4.9l-.006,162.284a5.739,5.739,0,0,0,5.744,5.733" transform="translate(-464.349 -160.747)" fill="#5479f7"/>
        <path id="Trazado_1006423" data-name="Trazado 1006423" d="M483.423,352.062H598.776a5.745,5.745,0,0,0,5.745-5.745l-.007-160.744c-.083-4.305-2.157-6.753-5.739-6.753H483.42a5.824,5.824,0,0,0-5.739,4.909l0,162.588a5.745,5.745,0,0,0,5.745,5.745" transform="translate(-425.473 -159.276)" fill="#fff"/>
        <path id="Trazado_1006424" data-name="Trazado 1006424" d="M1393.809,199.642a.361.361,0,0,1-.361-.361v-16.65c-.08-4.12-1.989-6.392-5.378-6.392h-23.892a.361.361,0,1,1,0-.722h23.892c3.789,0,6.012,2.59,6.1,7.107v16.657a.361.361,0,0,1-.361.361" transform="translate(-1214.767 -156.335)"/>
        <path id="Trazado_1006425" data-name="Trazado 1006425" d="M1635.315,636.644a.361.361,0,0,1-.361-.361V616.674a.361.361,0,0,1,.722,0v19.609a.361.361,0,0,1-.361.361" transform="translate(-1456.271 -548.957)"/>
        <path id="Trazado_1006426" data-name="Trazado 1006426" d="M805.522,150.094h56.4a1.137,1.137,0,0,0,1.137-1.137V133.779a1.137,1.137,0,0,0-1.137-1.137h-56.4a1.137,1.137,0,0,0-1.137,1.137v15.178a1.137,1.137,0,0,0,1.137,1.137" transform="translate(-716.475 -118.146)" fill="#99b9ff"/>
        <path id="Trazado_1006427" data-name="Trazado 1006427" d="M857.614,147.513H803.947a2.867,2.867,0,0,1-2.864-2.864V132.2a2.867,2.867,0,0,1,2.864-2.864h53.667a2.867,2.867,0,0,1,2.864,2.864v12.446a2.867,2.867,0,0,1-2.864,2.864m-53.667-17.452A2.145,2.145,0,0,0,801.8,132.2v12.446a2.145,2.145,0,0,0,2.142,2.142h53.667a2.145,2.145,0,0,0,2.142-2.142V132.2a2.145,2.145,0,0,0-2.142-2.142Z" transform="translate(-713.534 -115.204)"/>
        <path id="Trazado_1006428" data-name="Trazado 1006428" d="M990.853,3.3h0a10.027,10.027,0,0,0-10.024,10.046V28.4a2.45,2.45,0,0,0,2.45,2.45h15.146a2.45,2.45,0,0,0,2.45-2.45V13.347A10.027,10.027,0,0,0,990.853,3.3m.56,13.759a4.082,4.082,0,1,1,3.517-3.517,4.084,4.084,0,0,1-3.517,3.517" transform="translate(-873.635 -2.94)" fill="#99b9ff"/>
        <path id="Trazado_1006429" data-name="Trazado 1006429" d="M995.485,28.273H980.339a2.814,2.814,0,0,1-2.811-2.811V10.405a10.384,10.384,0,1,1,20.769,0V25.461a2.815,2.815,0,0,1-2.811,2.811M987.912.721a9.685,9.685,0,0,0-9.663,9.685V25.461a2.092,2.092,0,0,0,2.089,2.09h15.146a2.092,2.092,0,0,0,2.09-2.09V10.405A9.685,9.685,0,0,0,987.912.721m.031,13.792A4.443,4.443,0,0,1,983.537,9.5a4.443,4.443,0,1,1,4.981,4.981,4.589,4.589,0,0,1-.575.036m.53-.394h0Zm-.533-7.767a3.867,3.867,0,0,0-.483.03,3.743,3.743,0,1,0,.483-.03" transform="translate(-870.695 0.001)"/>
        <path id="Trazado_1006430" data-name="Trazado 1006430" d="M1382.786,344.081h-9.7a2.56,2.56,0,0,1-2.557-2.557v-9.7a2.56,2.56,0,0,1,2.557-2.557h9.7a2.56,2.56,0,0,1,2.557,2.557v9.7a2.56,2.56,0,0,1-2.557,2.557m-9.7-14.089a1.837,1.837,0,0,0-1.835,1.835v9.7a1.837,1.837,0,0,0,1.835,1.835h9.7a1.837,1.837,0,0,0,1.835-1.835v-9.7a1.837,1.837,0,0,0-1.835-1.835Z" transform="translate(-1220.748 -293.284)"/>
        <path id="Trazado_1006431" data-name="Trazado 1006431" d="M1400.084,360.723a1.839,1.839,0,0,1-1.734-1.226l-1.683-4.389a1.323,1.323,0,1,1,2.471-.947l1.119,2.918,3.774-6.025a1.323,1.323,0,0,1,2.243,1.4l-4.715,7.527-.054.066a1.839,1.839,0,0,1-1.42.671" transform="translate(-1243.949 -312.135)" fill="#5479f7"/>
        <path id="Trazado_1006432" data-name="Trazado 1006432" d="M1382.786,538.189h-9.7a2.56,2.56,0,0,1-2.557-2.557v-9.7a2.56,2.56,0,0,1,2.557-2.557h9.7a2.56,2.56,0,0,1,2.557,2.557v9.7a2.56,2.56,0,0,1-2.557,2.557m-9.7-14.089a1.837,1.837,0,0,0-1.835,1.835v9.7a1.837,1.837,0,0,0,1.835,1.835h9.7a1.837,1.837,0,0,0,1.835-1.835v-9.7a1.837,1.837,0,0,0-1.835-1.835Z" transform="translate(-1220.748 -466.179)"/>
        <path id="Trazado_1006433" data-name="Trazado 1006433" d="M1400.084,554.831a1.839,1.839,0,0,1-1.734-1.226l-1.683-4.389a1.323,1.323,0,1,1,2.471-.947l1.119,2.918,3.774-6.024a1.323,1.323,0,1,1,2.243,1.4l-4.715,7.527-.054.066a1.839,1.839,0,0,1-1.42.671" transform="translate(-1243.949 -485.03)" fill="#5479f7"/>
        <path id="Trazado_1006434" data-name="Trazado 1006434" d="M1370.893,726.366a.361.361,0,0,1-.361-.361v-5.962a2.56,2.56,0,0,1,2.557-2.557h9.7a2.56,2.56,0,0,1,2.557,2.557v5.88a.361.361,0,1,1-.722,0v-5.88a1.837,1.837,0,0,0-1.835-1.835h-9.7a1.837,1.837,0,0,0-1.835,1.835V726a.361.361,0,0,1-.361.361" transform="translate(-1220.748 -639.073)"/>
        <path id="Trazado_1006435" data-name="Trazado 1006435" d="M652.64,386.753h-55.1a2.053,2.053,0,0,1-2.053-2.053h0a2.053,2.053,0,0,1,2.053-2.053h55.1a2.053,2.053,0,0,1,2.053,2.053h0a2.053,2.053,0,0,1-2.053,2.053" transform="translate(-530.404 -340.827)" fill="#caddff"/>
        <path id="Trazado_1006436" data-name="Trazado 1006436" d="M618.281,580.862H597.536a2.053,2.053,0,0,1,0-4.107h20.745a2.053,2.053,0,0,1,0,4.107" transform="translate(-530.403 -513.722)" fill="#caddff"/>
        <path id="Trazado_1006437" data-name="Trazado 1006437" d="M926.287,580.862H891.942a2.053,2.053,0,0,1,0-4.107h34.345a2.053,2.053,0,0,1,0,4.107" transform="translate(-792.634 -513.722)" fill="#caddff"/>
        <path id="Trazado_1006438" data-name="Trazado 1006438" d="M634.6,774.97H597.537a2.053,2.053,0,0,1,0-4.107H634.6a2.053,2.053,0,1,1,0,4.107" transform="translate(-530.404 -686.616)" fill="#caddff"/>
        <path id="Trazado_1006439" data-name="Trazado 1006439" d="M642.87,969.311H597.537a2.053,2.053,0,1,1,0-4.107H642.87a2.053,2.053,0,1,1,0,4.107" transform="translate(-530.404 -859.718)" fill="#caddff"/>
        <path id="Trazado_1006440" data-name="Trazado 1006440" d="M852.743,1163.927H838.4a2.053,2.053,0,1,1,0-4.107h14.345a2.053,2.053,0,1,1,0,4.107" transform="translate(-744.942 -1033.065)" fill="#caddff"/>
        <path id="Trazado_1006441" data-name="Trazado 1006441" d="M489.488,1716.953l0,5.358c0,1.624-1.875,3.251-5.648,4.511-7.545,2.518-19.857,2.625-27.744.27-.13-.039-.257-.078-.385-.118-4-1.258-6-2.93-6.006-4.607l0-5.358c0,1.677,2.01,3.349,6.006,4.607.127.04.255.079.385.118,7.887,2.355,20.2,2.248,27.744-.27,3.772-1.259,5.65-2.887,5.648-4.51" transform="translate(-400.558 -1529.309)" fill="#5479f7"/>
        <path id="Trazado_1006442" data-name="Trazado 1006442" d="M483.1,1659.9l.386.118c7.867,2.476,8.027,6.558.359,9.118-7.545,2.518-19.857,2.625-27.744.27-.13-.039-.257-.078-.385-.118-7.866-2.476-8.026-6.558-.358-9.118,7.544-2.518,19.855-2.624,27.742-.27" transform="translate(-400.558 -1476.986)" fill="#99b9ff"/>
        <path id="Trazado_1006443" data-name="Trazado 1006443" d="M463.9,1652.984l0,5.358c0,1.623-1.875,3.251-5.648,4.51-7.545,2.518-19.857,2.625-27.744.27-.13-.038-.257-.078-.385-.118-4-1.258-6-2.93-6.006-4.607l0-5.358c0,1.677,2.01,3.349,6.006,4.607.127.04.255.079.385.118,7.887,2.355,20.2,2.248,27.744-.27,3.772-1.259,5.65-2.887,5.648-4.51" transform="translate(-377.768 -1472.331)" fill="#5479f7"/>
        <path id="Trazado_1006444" data-name="Trazado 1006444" d="M457.509,1595.935c.13.039.258.078.386.118,7.867,2.476,8.027,6.558.359,9.118-7.545,2.518-19.857,2.625-27.744.27-.13-.039-.257-.078-.385-.118-7.866-2.476-8.026-6.558-.358-9.118,7.544-2.518,19.855-2.625,27.742-.27" transform="translate(-377.767 -1420.008)" fill="#99b9ff"/>
        <path id="Trazado_1006445" data-name="Trazado 1006445" d="M482.5,1584.994l0,5.357c0,1.624-1.875,3.251-5.648,4.51-7.545,2.518-19.857,2.625-27.744.27-.13-.039-.257-.078-.385-.118-4-1.258-6-2.93-6.006-4.607l0-5.358c0,1.677,2.01,3.349,6.006,4.607.127.04.255.079.385.118,7.887,2.355,20.2,2.248,27.744-.27,3.772-1.259,5.65-2.887,5.648-4.51" transform="translate(-394.332 -1411.772)" fill="#5479f7"/>
        <path id="Trazado_1006446" data-name="Trazado 1006446" d="M476.106,1527.945c.13.039.258.078.386.118,7.867,2.476,8.027,6.558.359,9.118-7.545,2.518-19.857,2.624-27.744.27-.13-.039-.257-.078-.385-.118-7.866-2.476-8.026-6.558-.358-9.118,7.544-2.518,19.855-2.624,27.742-.27" transform="translate(-394.332 -1359.448)" fill="#99b9ff"/>
        <path id="Trazado_1006447" data-name="Trazado 1006447" d="M453.653,1516.477l0,5.358c0,1.624-1.875,3.251-5.648,4.51-7.545,2.518-19.857,2.625-27.744.27-.13-.039-.257-.078-.385-.118-4-1.258-6-2.93-6.006-4.607l0-5.358c0,1.677,2.01,3.349,6.006,4.607.127.04.255.079.385.118,7.887,2.355,20.2,2.248,27.744-.27,3.772-1.259,5.65-2.887,5.648-4.51" transform="translate(-368.639 -1350.743)" fill="#5479f7"/>
        <path id="Trazado_1006448" data-name="Trazado 1006448" d="M447.261,1459.428c.13.039.258.078.386.118,7.867,2.476,8.027,6.558.359,9.118-7.545,2.518-19.857,2.625-27.744.27-.13-.039-.257-.078-.385-.118-7.865-2.476-8.026-6.558-.358-9.117,7.544-2.518,19.855-2.625,27.742-.27" transform="translate(-368.639 -1298.419)" fill="#99b9ff"/>
        <path id="Trazado_1006449" data-name="Trazado 1006449" d="M489.411,1460.034l0,5.358c0,1.624-1.875,3.251-5.648,4.511-7.545,2.518-19.857,2.625-27.744.27-.13-.039-.257-.078-.385-.118-4-1.258-6-2.93-6.006-4.607l0-5.358c0,1.677,2.01,3.349,6.006,4.607.127.04.255.079.385.118,7.887,2.355,20.2,2.249,27.744-.27,3.772-1.259,5.65-2.887,5.648-4.511" transform="translate(-400.49 -1300.469)" fill="#5479f7"/>
        <path id="Trazado_1006450" data-name="Trazado 1006450" d="M483.019,1402.985l.386.118c7.867,2.476,8.027,6.558.359,9.118-7.545,2.518-19.857,2.625-27.744.27-.13-.038-.257-.078-.385-.118-7.865-2.476-8.026-6.558-.358-9.117,7.544-2.518,19.855-2.624,27.742-.27" transform="translate(-400.489 -1248.145)" fill="#99b9ff"/>
        <path id="Trazado_1006451" data-name="Trazado 1006451" d="M447.115,1404.124l0,5.358c0,1.624-1.875,3.251-5.648,4.51-7.545,2.518-19.857,2.625-27.744.27-.13-.039-.257-.078-.385-.118-4-1.258-6-2.93-6.006-4.607l0-5.358c0,1.677,2.01,3.349,6.006,4.607.127.04.255.079.385.118,7.887,2.355,20.2,2.248,27.744-.27,3.772-1.259,5.65-2.887,5.648-4.511" transform="translate(-362.816 -1250.669)" fill="#5479f7"/>
        <path id="Trazado_1006452" data-name="Trazado 1006452" d="M440.723,1347.076c.13.039.258.078.385.118,7.867,2.475,8.027,6.558.359,9.117-7.545,2.518-19.857,2.625-27.744.27l-.385-.118c-7.865-2.476-8.026-6.558-.358-9.118,7.543-2.518,19.855-2.625,27.742-.27" transform="translate(-362.816 -1198.345)" fill="#99b9ff"/>
        <path id="Trazado_1006453" data-name="Trazado 1006453" d="M477.915,1341.108l0,5.358c0,1.624-1.875,3.251-5.648,4.51-7.545,2.518-19.857,2.625-27.744.27-.13-.039-.257-.078-.385-.118-4-1.258-6-2.93-6.006-4.607l0-5.358c0,1.677,2.01,3.349,6.006,4.607.127.04.255.079.385.118,7.887,2.355,20.2,2.249,27.744-.27,3.772-1.259,5.65-2.887,5.648-4.51" transform="translate(-390.25 -1194.54)" fill="#5479f7"/>
        <path id="Trazado_1006454" data-name="Trazado 1006454" d="M455.01,1350.374a49.11,49.11,0,0,1-13.527-1.723c-.132-.039-.261-.079-.39-.12-4.033-1.269-6.255-3.028-6.258-4.951l0-5.357h0a.36.36,0,0,1,.36-.361h0a.361.361,0,0,1,.361.36c0,1.559,2.1,3.113,5.753,4.263.125.039.251.078.379.116,7.78,2.323,20.128,2.2,27.527-.266,3.434-1.146,5.4-2.666,5.4-4.167h0a.361.361,0,0,1,.361-.361h0a.361.361,0,0,1,.361.36v0l0,5.355c0,1.86-2.091,3.583-5.894,4.853a47.767,47.767,0,0,1-14.435,2m-19.456-10.3,0,3.506c0,1.559,2.1,3.113,5.753,4.263.126.04.252.078.38.116,7.779,2.323,20.128,2.2,27.526-.266,3.435-1.147,5.4-2.666,5.4-4.168l0-3.507a11.218,11.218,0,0,1-5.174,3c-7.646,2.552-19.928,2.672-27.962.273-.131-.039-.261-.079-.39-.12-2.693-.848-4.578-1.913-5.535-3.1" transform="translate(-387.309 -1191.6)"/>
        <path id="Trazado_1006455" data-name="Trazado 1006455" d="M471.523,1284.059c.13.039.258.078.386.118,7.867,2.476,8.027,6.558.359,9.118-7.545,2.518-19.857,2.624-27.744.27-.13-.038-.257-.078-.385-.118-7.865-2.476-8.026-6.558-.358-9.118,7.544-2.518,19.855-2.625,27.742-.27" transform="translate(-390.25 -1142.217)" fill="#fff"/>
        <path id="Trazado_1006456" data-name="Trazado 1006456" d="M455.006,1292.592a49.109,49.109,0,0,1-13.527-1.723c-.131-.039-.261-.079-.39-.12-4.019-1.265-6.241-3.017-6.258-4.933-.016-1.867,2.077-3.6,5.894-4.871,7.645-2.551,19.926-2.672,27.959-.273.132.039.261.079.39.12,4.02,1.265,6.243,3.017,6.259,4.933.016,1.867-2.077,3.6-5.894,4.871a47.755,47.755,0,0,1-14.435,2m.17-12.895a47.364,47.364,0,0,0-14.222,1.933c-3.445,1.15-5.414,2.674-5.4,4.18.013,1.555,2.11,3.1,5.753,4.251.126.039.252.078.379.116,7.78,2.323,20.128,2.2,27.527-.266,3.446-1.15,5.414-2.674,5.4-4.18-.014-1.555-2.111-3.1-5.754-4.251-.126-.04-.252-.078-.38-.117h0a48.565,48.565,0,0,0-13.3-1.666" transform="translate(-387.309 -1139.175)"/>
        <path id="Trazado_1006457" data-name="Trazado 1006457" d="M555.24,1304.723l-.955.835a15.522,15.522,0,0,1,2.018.377,7.081,7.081,0,0,1,.859.285l-1.873,1a11.035,11.035,0,0,0-1.052-.348,11.706,11.706,0,0,0-1.792-.321,3.566,3.566,0,0,0-2.525.324c-.358.313.2.6,1.744,1.1,2.2.684,2.673,1.322,1.7,2.176s-3.194,1.413-5.976,1.327l-1.107.968-2.185-.236,1.03-.9a17.241,17.241,0,0,1-2.2-.422,6.519,6.519,0,0,1-1.13-.395l1.938-1.038a8.294,8.294,0,0,0,1.329.47,12.484,12.484,0,0,0,1.9.347,4.287,4.287,0,0,0,2.814-.357c.412-.36-.042-.665-1.421-1.08-2-.6-3.082-1.249-2.03-2.169.955-.835,3.086-1.34,5.7-1.282l1.03-.9Z" transform="translate(-482.585 -1161.921)" fill="#5479f7"/>
        <path id="Trazado_1006458" data-name="Trazado 1006458" d="M68.2,1718.347l0,5.358c0,1.624-1.875,3.251-5.648,4.511-7.545,2.518-19.857,2.625-27.744.27-.13-.039-.257-.078-.385-.118-4-1.258-6-2.93-6.006-4.607l0-5.358c0,1.677,2.01,3.349,6.006,4.607.127.04.255.079.385.118,7.887,2.355,20.2,2.248,27.744-.27,3.772-1.259,5.65-2.887,5.648-4.511" transform="translate(-25.31 -1530.551)" fill="#5479f7"/>
        <path id="Trazado_1006459" data-name="Trazado 1006459" d="M61.8,1661.3l.386.118c7.867,2.476,8.027,6.558.359,9.118-7.545,2.518-19.857,2.625-27.744.27-.13-.039-.257-.078-.385-.118-7.866-2.476-8.026-6.558-.358-9.118,7.544-2.518,19.855-2.624,27.742-.27" transform="translate(-25.309 -1478.227)" fill="#99b9ff"/>
        <path id="Trazado_1006460" data-name="Trazado 1006460" d="M87.673,1656.749l0,5.358c0,1.624-1.875,3.251-5.648,4.51-7.545,2.518-19.857,2.625-27.744.27-.13-.039-.257-.078-.385-.118-4-1.258-6-2.93-6.006-4.607l0-5.357c0,1.677,2.01,3.349,6.006,4.607.127.04.255.079.385.118,7.887,2.355,20.2,2.248,27.744-.27,3.772-1.26,5.65-2.887,5.648-4.511" transform="translate(-42.657 -1475.685)" fill="#5479f7"/>
        <path id="Trazado_1006461" data-name="Trazado 1006461" d="M81.281,1599.7c.13.039.258.078.386.118,7.867,2.476,8.027,6.558.359,9.118-7.545,2.518-19.857,2.625-27.744.27-.13-.039-.257-.078-.385-.118-7.866-2.476-8.026-6.558-.358-9.118,7.544-2.518,19.855-2.624,27.742-.27" transform="translate(-42.657 -1423.361)" fill="#99b9ff"/>
        <path id="Trazado_1006462" data-name="Trazado 1006462" d="M60.11,1602.859l0,5.357c0,1.624-1.875,3.251-5.648,4.511-7.545,2.518-19.857,2.625-27.744.27-.13-.039-.257-.078-.385-.118-4-1.258-6-2.93-6.006-4.607l0-5.358c0,1.677,2.01,3.349,6.006,4.607.127.04.255.079.385.118,7.887,2.355,20.2,2.249,27.744-.27,3.772-1.259,5.65-2.887,5.648-4.51" transform="translate(-18.106 -1427.684)" fill="#5479f7"/>
        <path id="Trazado_1006463" data-name="Trazado 1006463" d="M53.718,1545.81c.13.039.258.078.386.118,7.867,2.476,8.027,6.557.359,9.117-7.545,2.518-19.857,2.625-27.744.27-.13-.039-.257-.078-.385-.118-7.866-2.476-8.026-6.558-.358-9.118,7.544-2.518,19.855-2.624,27.742-.27" transform="translate(-18.106 -1375.361)" fill="#99b9ff"/>
        <path id="Trazado_1006464" data-name="Trazado 1006464" d="M75.074,1531.6l0,5.357c0,1.624-1.875,3.251-5.648,4.511-7.545,2.518-19.857,2.625-27.744.27-.13-.039-.257-.078-.385-.118-4-1.258-6-2.93-6.006-4.607l0-5.358c0,1.677,2.01,3.349,6.006,4.607.127.04.255.079.385.118,7.887,2.355,20.2,2.248,27.744-.27,3.772-1.26,5.65-2.887,5.648-4.511" transform="translate(-31.435 -1364.214)" fill="#5479f7"/>
        <path id="Trazado_1006465" data-name="Trazado 1006465" d="M68.681,1474.552l.385.118c7.867,2.476,8.027,6.558.359,9.118-7.545,2.518-19.857,2.625-27.744.27-.13-.039-.257-.078-.385-.118-7.866-2.476-8.026-6.558-.358-9.117,7.544-2.518,19.855-2.625,27.742-.27" transform="translate(-31.435 -1311.89)" fill="#99b9ff"/>
        <path id="Trazado_1006466" data-name="Trazado 1006466" d="M67.442,1471.253l0,5.358c0,1.624-1.875,3.251-5.648,4.511-7.545,2.518-19.857,2.625-27.744.27-.13-.039-.257-.078-.385-.118-4-1.258-6-2.93-6.006-4.607l0-5.358c0,1.677,2.01,3.349,6.006,4.607.127.04.255.079.385.118,7.887,2.355,20.2,2.249,27.744-.27,3.772-1.259,5.65-2.887,5.648-4.51" transform="translate(-24.637 -1310.461)" fill="#5479f7"/>
        <path id="Trazado_1006467" data-name="Trazado 1006467" d="M61.05,1414.2l.386.118c7.867,2.476,8.027,6.558.359,9.118-7.545,2.518-19.857,2.625-27.744.27-.13-.039-.257-.078-.385-.118-7.866-2.476-8.026-6.558-.358-9.117,7.544-2.518,19.855-2.625,27.742-.27" transform="translate(-24.637 -1258.138)" fill="#99b9ff"/>
        <path id="Trazado_1006468" data-name="Trazado 1006468" d="M53.052,1403.151l0,5.358c0,1.624-1.875,3.251-5.648,4.51-7.545,2.518-19.857,2.625-27.744.27-.13-.039-.257-.078-.385-.118-4-1.258-6-2.93-6.006-4.607l0-5.358c0,1.677,2.01,3.349,6.006,4.607.127.04.255.079.385.118,7.887,2.355,20.2,2.249,27.744-.27,3.772-1.259,5.65-2.887,5.648-4.51" transform="translate(-11.82 -1249.802)" fill="#5479f7"/>
        <path id="Trazado_1006469" data-name="Trazado 1006469" d="M46.66,1346.1c.13.039.258.078.386.118,7.867,2.476,8.027,6.558.359,9.117-7.545,2.518-19.857,2.625-27.744.27-.13-.039-.257-.078-.385-.118-7.866-2.476-8.026-6.558-.358-9.118,7.544-2.518,19.855-2.624,27.742-.27" transform="translate(-11.82 -1197.479)" fill="#99b9ff"/>
        <path id="Trazado_1006470" data-name="Trazado 1006470" d="M68.313,1337.945l0,5.358c0,1.624-1.875,3.251-5.648,4.511-7.545,2.518-19.857,2.624-27.744.27-.13-.039-.257-.078-.385-.118-4-1.258-6-2.93-6.006-4.607l0-5.358c0,1.677,2.01,3.349,6.006,4.607.127.04.255.079.385.118,7.887,2.355,20.2,2.249,27.744-.27,3.772-1.259,5.65-2.887,5.648-4.511" transform="translate(-25.413 -1191.722)" fill="#5479f7"/>
        <path id="Trazado_1006471" data-name="Trazado 1006471" d="M61.921,1280.9l.386.118c7.867,2.476,8.027,6.558.359,9.118-7.545,2.518-19.857,2.625-27.744.27-.13-.039-.257-.078-.385-.118-7.866-2.476-8.026-6.558-.358-9.118,7.544-2.518,19.855-2.624,27.742-.27" transform="translate(-25.413 -1139.399)" fill="#99b9ff"/>
        <path id="Trazado_1006472" data-name="Trazado 1006472" d="M44.269,1288.079l0,5.358c0,1.624-1.875,3.251-5.648,4.51-7.545,2.518-19.857,2.625-27.744.27-.13-.039-.257-.078-.384-.118-4-1.258-6-2.93-6.006-4.607l0-5.358c0,1.677,2.01,3.349,6.006,4.607.127.04.255.079.385.118,7.887,2.355,20.2,2.249,27.744-.27,3.772-1.259,5.65-2.887,5.648-4.51" transform="translate(-3.997 -1147.306)" fill="#5479f7"/>
        <path id="Trazado_1006473" data-name="Trazado 1006473" d="M37.877,1231.03l.386.118c7.867,2.476,8.027,6.558.359,9.117-7.545,2.518-19.857,2.625-27.744.27-.13-.039-.257-.078-.385-.118-7.866-2.476-8.026-6.558-.358-9.118,7.544-2.518,19.855-2.624,27.742-.27" transform="translate(-3.997 -1094.983)" fill="#99b9ff"/>
        <path id="Trazado_1006474" data-name="Trazado 1006474" d="M67.526,1219.743l0,5.358c0,1.624-1.875,3.251-5.648,4.51-7.545,2.518-19.857,2.625-27.744.27-.13-.039-.257-.078-.385-.118-4-1.258-6-2.93-6.006-4.607l0-5.358c0,1.677,2.01,3.349,6.006,4.607.127.04.255.079.385.118,7.887,2.355,20.2,2.248,27.744-.27,3.772-1.259,5.65-2.887,5.648-4.511" transform="translate(-24.712 -1086.439)" fill="#5479f7"/>
        <path id="Trazado_1006475" data-name="Trazado 1006475" d="M61.134,1162.694l.386.118c7.867,2.476,8.027,6.558.359,9.118-7.545,2.518-19.857,2.625-27.744.27-.13-.039-.257-.078-.385-.118-7.866-2.476-8.026-6.558-.358-9.118,7.544-2.518,19.855-2.624,27.742-.27" transform="translate(-24.712 -1034.115)" fill="#99b9ff"/>
        <path id="Trazado_1006476" data-name="Trazado 1006476" d="M46.3,1147.49l0,5.358c0,1.623-1.875,3.251-5.648,4.51-7.545,2.518-19.857,2.625-27.744.27-.13-.039-.257-.078-.385-.118-4-1.258-6-2.93-6.006-4.607l0-5.358c0,1.677,2.01,3.349,6.006,4.607.127.04.255.079.385.118,7.887,2.355,20.2,2.248,27.744-.27,3.772-1.259,5.65-2.887,5.648-4.51" transform="translate(-5.808 -1022.082)" fill="#5479f7"/>
        <path id="Trazado_1006477" data-name="Trazado 1006477" d="M39.911,1090.441c.13.039.258.078.386.118,7.867,2.476,8.027,6.558.359,9.118-7.545,2.518-19.857,2.625-27.744.27-.13-.039-.257-.078-.385-.118-7.866-2.476-8.026-6.558-.358-9.117,7.544-2.518,19.855-2.625,27.742-.27" transform="translate(-5.808 -969.759)" fill="#99b9ff"/>
        <path id="Trazado_1006478" data-name="Trazado 1006478" d="M59.868,1078.95l0,5.358c0,1.624-1.875,3.251-5.648,4.51-7.545,2.518-19.857,2.625-27.744.27-.13-.039-.257-.078-.385-.118-4-1.258-6-2.93-6.006-4.607l0-5.357c0,1.677,2.01,3.349,6.006,4.607.127.04.255.079.385.118,7.887,2.355,20.2,2.248,27.744-.27,3.772-1.259,5.65-2.887,5.648-4.51" transform="translate(-17.891 -961.033)" fill="#5479f7"/>
        <path id="Trazado_1006479" data-name="Trazado 1006479" d="M36.963,1088.215a49.1,49.1,0,0,1-13.527-1.722c-.131-.039-.261-.079-.39-.12-4.033-1.269-6.255-3.027-6.258-4.95l0-5.357h0a.361.361,0,0,1,.361-.361h0a.361.361,0,0,1,.361.36c0,1.559,2.1,3.113,5.753,4.263l.38.116c7.779,2.323,20.128,2.2,27.526-.266,3.435-1.147,5.4-2.666,5.4-4.168h0a.361.361,0,0,1,.361-.361h0a.361.361,0,0,1,.361.361v0l0,5.355c0,1.86-2.091,3.583-5.894,4.853a47.764,47.764,0,0,1-14.435,2m-19.456-10.3,0,3.506c0,1.559,2.1,3.113,5.753,4.263l.38.116c7.779,2.323,20.128,2.2,27.526-.266,3.435-1.146,5.4-2.666,5.4-4.168l0-3.507a11.217,11.217,0,0,1-5.174,3c-7.646,2.552-19.928,2.672-27.962.273-.131-.039-.261-.079-.39-.12-2.693-.848-4.578-1.913-5.535-3.1" transform="translate(-14.95 -958.091)"/>
        <path id="Trazado_1006480" data-name="Trazado 1006480" d="M53.476,1021.9c.13.039.258.078.386.118,7.867,2.476,8.027,6.558.359,9.118-7.545,2.518-19.857,2.625-27.744.27l-.385-.118c-7.866-2.476-8.026-6.558-.358-9.118,7.544-2.518,19.855-2.625,27.742-.27" transform="translate(-17.891 -908.709)" fill="#fff"/>
        <path id="Trazado_1006481" data-name="Trazado 1006481" d="M36.958,1030.433a49.107,49.107,0,0,1-13.527-1.723c-.131-.039-.261-.079-.39-.12-4.019-1.265-6.241-3.017-6.258-4.933-.016-1.867,2.077-3.6,5.894-4.871,7.645-2.552,19.926-2.672,27.959-.273h0c.132.039.261.079.39.12,4.02,1.265,6.243,3.017,6.259,4.933.016,1.867-2.077,3.6-5.894,4.871a47.763,47.763,0,0,1-14.435,2m.17-12.895a47.364,47.364,0,0,0-14.222,1.933c-3.446,1.15-5.414,2.674-5.4,4.18.013,1.555,2.11,3.1,5.753,4.251l.38.116c7.779,2.323,20.128,2.2,27.526-.266,3.445-1.15,5.414-2.674,5.4-4.18-.014-1.555-2.111-3.1-5.754-4.251l-.381-.117a48.57,48.57,0,0,0-13.3-1.666" transform="translate(-14.949 -905.667)"/>
        <path id="Trazado_1006482" data-name="Trazado 1006482" d="M148.71,1041.617l-.266,1.154a30.532,30.532,0,0,0-4.493.037c-1.944.164-2.425.485-2.277.753a.661.661,0,0,0,.417.228,20.981,20.981,0,0,0,3.636.293,20.873,20.873,0,0,1,4.488.463,2.287,2.287,0,0,1,1.506.906c.474.852-1.008,1.739-4.344,2.219l.545.977-2.935.246-.506-.909a37.073,37.073,0,0,1-5.32.016l.276-1.2a32.148,32.148,0,0,0,5.2,0c1.708-.144,2.758-.452,2.547-.835a.842.842,0,0,0-.54-.3,15.482,15.482,0,0,0-3.1-.261,23.185,23.185,0,0,1-4.952-.482,2.206,2.206,0,0,1-1.41-.817c-.469-.842,1.021-1.659,4.112-2.129l-.506-.909,2.933-.247.467.843a33.121,33.121,0,0,1,4.518-.049" transform="translate(-122.117 -927.073)" fill="#5479f7"/>
        <path id="Trazado_1006483" data-name="Trazado 1006483" d="M1195.373,818.123h-64.39a4.21,4.21,0,0,0-4.21,4.21v23.889q0,.116-.007.233l-4.309,77.785a4.21,4.21,0,0,0,4.2,4.442h64.377a4.21,4.21,0,0,0,4.2-3.976l4.334-78.121q.007-.116.006-.233V822.333a4.209,4.209,0,0,0-4.209-4.21" transform="translate(-999.78 -728.711)" fill="#5479f7"/>
        <path id="Trazado_1006484" data-name="Trazado 1006484" d="M1151.9,821.423h-65.681a3.564,3.564,0,0,0-3.564,3.564v24.227l-4.312,78.274a3.564,3.564,0,0,0,3.559,3.76h65.67a3.564,3.564,0,0,0,3.558-3.367l4.333-78.457V824.987a3.564,3.564,0,0,0-3.564-3.564" transform="translate(-960.491 -731.651)" fill="#99b9ff"/>
        <path id="Trazado_1006485" data-name="Trazado 1006485" d="M1144.634,928.668h-65.671a3.925,3.925,0,0,1-3.919-4.141l.235-4.271a.356.356,0,0,1,.38-.34.361.361,0,0,1,.34.38l-.235,4.271a3.2,3.2,0,0,0,3.2,3.379h65.671a3.2,3.2,0,0,0,3.2-3.027l4.333-78.456V822.046a3.207,3.207,0,0,0-3.2-3.2h-65.681a3.207,3.207,0,0,0-3.2,3.2v24.227l-3.227,58.583a.361.361,0,0,1-.721-.04l3.226-58.563V822.046a3.929,3.929,0,0,1,3.925-3.925h65.681a3.929,3.929,0,0,1,3.925,3.925v24.437l-4.334,78.477a3.926,3.926,0,0,1-3.919,3.708" transform="translate(-957.549 -728.709)"/>
        <path id="Trazado_1006486" data-name="Trazado 1006486" d="M1214.984,1074.14h-65.027a.361.361,0,1,1,0-.722h65.027a.361.361,0,1,1,0,.722" transform="translate(-1023.958 -956.105)"/>
        <path id="Trazado_1006487" data-name="Trazado 1006487" d="M1189.083,883.59h52.224a2.815,2.815,0,0,1,2.815,2.814v8.784a2.815,2.815,0,0,1-2.815,2.815h-52.224a2.814,2.814,0,0,1-2.814-2.815V886.4a2.814,2.814,0,0,1,2.814-2.814" transform="translate(-1056.622 -787.023)" fill="#fff"/>
        <path id="Trazado_1006488" data-name="Trazado 1006488" d="M1238.366,895.422h-52.225a3.179,3.179,0,0,1-3.175-3.176v-8.783a3.179,3.179,0,0,1,3.175-3.176h52.225a3.179,3.179,0,0,1,3.175,3.176v8.783a3.179,3.179,0,0,1-3.175,3.176m-52.225-14.413a2.457,2.457,0,0,0-2.454,2.454v8.783a2.457,2.457,0,0,0,2.454,2.454h52.225a2.457,2.457,0,0,0,2.454-2.454v-8.783a2.456,2.456,0,0,0-2.454-2.454Z" transform="translate(-1053.681 -784.082)"/>
        <path id="Trazado_1006489" data-name="Trazado 1006489" d="M1472.313,921.438h19.062a1.572,1.572,0,0,1,1.572,1.572v3a1.572,1.572,0,0,1-1.572,1.572h-19.062a1.572,1.572,0,0,1-1.572-1.572v-3a1.572,1.572,0,0,1,1.572-1.572" transform="translate(-1310.005 -820.735)" fill="#caddff"/>
        <path id="Trazado_1006490" data-name="Trazado 1006490" d="M1324.891,921.438h9.068a1.572,1.572,0,0,1,1.572,1.572v3a1.572,1.572,0,0,1-1.572,1.572h-9.068a1.572,1.572,0,0,1-1.572-1.572v-3a1.572,1.572,0,0,1,1.572-1.572" transform="translate(-1178.695 -820.735)" fill="#caddff"/>
        <path id="Trazado_1006491" data-name="Trazado 1006491" d="M1295.4,1537.145l.52-8.781a1.834,1.834,0,0,0-1.83-1.942h-9.2a1.833,1.833,0,0,0-1.83,1.725l-.52,8.781a1.833,1.833,0,0,0,1.83,1.942h9.2a1.833,1.833,0,0,0,1.83-1.725" transform="translate(-1142.368 -1359.601)" fill="#fff"/>
        <path id="Trazado_1006492" data-name="Trazado 1006492" d="M1451.778,1537.145l.52-8.781a1.834,1.834,0,0,0-1.83-1.942h-9.2a1.834,1.834,0,0,0-1.831,1.725l-.52,8.781a1.833,1.833,0,0,0,1.83,1.942h9.2a1.833,1.833,0,0,0,1.83-1.725" transform="translate(-1281.655 -1359.601)" fill="#fff"/>
        <path id="Trazado_1006493" data-name="Trazado 1006493" d="M1287.206,1684.142l.524-9.021a1.834,1.834,0,0,0-1.83-1.94h-9.2a1.834,1.834,0,0,0-1.831,1.727l-.524,9.021a1.834,1.834,0,0,0,1.83,1.94h9.2a1.833,1.833,0,0,0,1.83-1.727" transform="translate(-1135.069 -1490.321)" fill="#fff"/>
        <path id="Trazado_1006494" data-name="Trazado 1006494" d="M1443.584,1684.142l.524-9.021a1.834,1.834,0,0,0-1.831-1.94h-9.2a1.834,1.834,0,0,0-1.831,1.727l-.524,9.021a1.834,1.834,0,0,0,1.83,1.94h9.2a1.833,1.833,0,0,0,1.83-1.727" transform="translate(-1274.357 -1490.321)" fill="#fff"/>
        <path id="Trazado_1006495" data-name="Trazado 1006495" d="M1147.2,1388.194l.52-8.781a1.833,1.833,0,0,0-1.83-1.942h-9.2a1.833,1.833,0,0,0-1.83,1.725l-.52,8.781a1.833,1.833,0,0,0,1.831,1.942h9.2a1.834,1.834,0,0,0,1.83-1.725" transform="translate(-1010.361 -1226.929)" fill="#fff"/>
        <path id="Trazado_1006496" data-name="Trazado 1006496" d="M1303.575,1388.194l.52-8.781a1.834,1.834,0,0,0-1.83-1.942h-9.2a1.833,1.833,0,0,0-1.83,1.725l-.52,8.781a1.833,1.833,0,0,0,1.83,1.942h9.2a1.833,1.833,0,0,0,1.83-1.725" transform="translate(-1149.649 -1226.929)" fill="#fff"/>
        <path id="Trazado_1006497" data-name="Trazado 1006497" d="M1459.952,1388.194l.52-8.781a1.834,1.834,0,0,0-1.831-1.942h-9.2a1.833,1.833,0,0,0-1.83,1.725l-.52,8.781a1.834,1.834,0,0,0,1.831,1.942h9.2a1.833,1.833,0,0,0,1.831-1.725" transform="translate(-1288.936 -1226.929)" fill="#fff"/>
        <path id="Trazado_1006498" data-name="Trazado 1006498" d="M1616.33,1388.194l.52-8.781a1.833,1.833,0,0,0-1.83-1.942h-9.2a1.834,1.834,0,0,0-1.83,1.725l-.52,8.781a1.833,1.833,0,0,0,1.83,1.942h9.2a1.833,1.833,0,0,0,1.83-1.725" transform="translate(-1428.224 -1226.929)" fill="#fff"/>
        <path id="Trazado_1006499" data-name="Trazado 1006499" d="M1155.4,1239.244l.52-8.781a1.834,1.834,0,0,0-1.83-1.942h-9.2a1.833,1.833,0,0,0-1.83,1.725l-.52,8.781a1.833,1.833,0,0,0,1.83,1.942h9.2a1.833,1.833,0,0,0,1.83-1.725" transform="translate(-1017.671 -1094.257)" fill="#fff"/>
        <path id="Trazado_1006500" data-name="Trazado 1006500" d="M1311.781,1239.244l.52-8.781a1.833,1.833,0,0,0-1.83-1.942h-9.2a1.833,1.833,0,0,0-1.83,1.725l-.52,8.781a1.834,1.834,0,0,0,1.83,1.942h9.2a1.833,1.833,0,0,0,1.83-1.725" transform="translate(-1156.958 -1094.257)" fill="#fff"/>
        <path id="Trazado_1006501" data-name="Trazado 1006501" d="M1468.159,1239.244l.52-8.781a1.833,1.833,0,0,0-1.83-1.942h-9.2a1.833,1.833,0,0,0-1.83,1.725l-.52,8.781a1.833,1.833,0,0,0,1.83,1.942h9.2a1.833,1.833,0,0,0,1.83-1.725" transform="translate(-1296.246 -1094.257)" fill="#fff"/>
        <path id="Trazado_1006502" data-name="Trazado 1006502" d="M1624.535,1239.244l.52-8.781a1.833,1.833,0,0,0-1.83-1.942h-9.2a1.833,1.833,0,0,0-1.831,1.725l-.52,8.781a1.834,1.834,0,0,0,1.831,1.942h9.2a1.833,1.833,0,0,0,1.83-1.725" transform="translate(-1435.531 -1094.257)" fill="#fff"/>
        <path id="Trazado_1006503" data-name="Trazado 1006503" d="M1139.022,1537.145l.52-8.781a1.833,1.833,0,0,0-1.83-1.942h-9.2a1.833,1.833,0,0,0-1.83,1.725l-.52,8.781a1.834,1.834,0,0,0,1.83,1.942h9.2a1.834,1.834,0,0,0,1.831-1.725" transform="translate(-1003.08 -1359.601)" fill="#fff"/>
        <path id="Trazado_1006504" data-name="Trazado 1006504" d="M1130.828,1684.142l.524-9.021a1.834,1.834,0,0,0-1.831-1.94h-9.2a1.834,1.834,0,0,0-1.831,1.727l-.524,9.021a1.833,1.833,0,0,0,1.83,1.94h9.2a1.834,1.834,0,0,0,1.83-1.727" transform="translate(-995.781 -1490.321)" fill="#fff"/>
        <path id="Trazado_1006505" data-name="Trazado 1006505" d="M1599.935,1552.484l1.423-25.142a1.834,1.834,0,0,0-1.831-1.937h-9.2a1.834,1.834,0,0,0-1.831,1.73l-1.423,25.143a1.833,1.833,0,0,0,1.831,1.937h9.2a1.834,1.834,0,0,0,1.831-1.73" transform="translate(-1413.62 -1358.694)" fill="#5479f7"/>
        <path id="Trazado_1006506" data-name="Trazado 1006506" d="M1152.807,1115.817l-.194,3.19a1.278,1.278,0,0,0,1.276,1.355H1164.2a1.278,1.278,0,0,0,1.276-1.2l.194-3.189a1.278,1.278,0,0,0-1.275-1.356h-10.315a1.278,1.278,0,0,0-1.276,1.2" transform="translate(-1026.643 -992.802)" fill="#fff"/>
        <path id="Trazado_1006507" data-name="Trazado 1006507" d="M1309.184,1115.817l-.194,3.19a1.278,1.278,0,0,0,1.276,1.355h10.314a1.278,1.278,0,0,0,1.276-1.2l.194-3.189a1.278,1.278,0,0,0-1.276-1.356H1310.46a1.278,1.278,0,0,0-1.276,1.2" transform="translate(-1165.93 -992.802)" fill="#fff"/>
        <path id="Trazado_1006508" data-name="Trazado 1006508" d="M1465.561,1115.817l-.194,3.19a1.278,1.278,0,0,0,1.276,1.355h10.315a1.278,1.278,0,0,0,1.276-1.2l.194-3.189a1.278,1.278,0,0,0-1.276-1.356h-10.315a1.278,1.278,0,0,0-1.276,1.2" transform="translate(-1305.217 -992.802)" fill="#fff"/>
        <path id="Trazado_1006509" data-name="Trazado 1006509" d="M1621.939,1115.644l-.194,3.184a1.278,1.278,0,0,0,1.276,1.356h10.315a1.278,1.278,0,0,0,1.276-1.2l.194-3.184a1.278,1.278,0,0,0-1.276-1.356h-10.314a1.278,1.278,0,0,0-1.276,1.2" transform="translate(-1444.505 -992.648)" fill="#5479f7"/>
        <path id="Trazado_1006510" data-name="Trazado 1006510" d="M958.926,1554.787c.074.2,8.133,8.371,8.133,8.371l-4.953,2.268-6.518-7.109Z" transform="translate(-851.153 -1384.866)" fill="#fff"/>
        <path id="Trazado_1006511" data-name="Trazado 1006511" d="M959.165,1562.846a.36.36,0,0,1-.266-.117l-6.518-7.109a.361.361,0,0,1,0-.492l3.338-3.53a.361.361,0,0,1,.571.061c.318.407,4.993,5.175,8.081,8.3a.361.361,0,0,1-.107.582l-4.953,2.268a.358.358,0,0,1-.15.033m-6.025-7.466,6.113,6.668,4.246-1.944c-5.159-5.23-6.913-7.059-7.521-7.725Z" transform="translate(-848.213 -1381.925)"/>
        <path id="Trazado_1006512" data-name="Trazado 1006512" d="M977.427,1606.947a2.576,2.576,0,0,1,1.046-1.293,2.464,2.464,0,0,1,2.738.178c1.995,1.485,7.417,5.7,10.58,9.841,1.118,1.464.62,3.433-1.849,3.434a26.26,26.26,0,0,1-15.979-6.119,2.386,2.386,0,0,1-.844-2.139,11.481,11.481,0,0,1,.521-2.278,1.632,1.632,0,0,1,1.832-1.051l.707.128a1.124,1.124,0,0,0,1.248-.7" transform="translate(-866.75 -1429.875)" fill="#fff"/>
        <path id="Trazado_1006513" data-name="Trazado 1006513" d="M987,1616.552a26.537,26.537,0,0,1-16.207-6.2,2.734,2.734,0,0,1-.97-2.463,11.679,11.679,0,0,1,.539-2.351,1.981,1.981,0,0,1,2.236-1.286l.707.128a.765.765,0,0,0,.847-.477,2.939,2.939,0,0,1,1.194-1.47,2.838,2.838,0,0,1,3.142.2c2.15,1.6,7.49,5.771,10.652,9.912a2.613,2.613,0,0,1,.423,2.72,2.584,2.584,0,0,1-2.558,1.294Zm-14.766-11.614a1.258,1.258,0,0,0-1.193.837,10.953,10.953,0,0,0-.5,2.2,2.015,2.015,0,0,0,.718,1.815A25.784,25.784,0,0,0,987,1615.83h0a1.975,1.975,0,0,0,1.911-.892,1.9,1.9,0,0,0-.349-1.962c-3.106-4.069-8.384-8.188-10.509-9.771a2.111,2.111,0,0,0-2.335-.159,2.194,2.194,0,0,0-.9,1.116,1.49,1.49,0,0,1-1.648.925l-.707-.128a1.324,1.324,0,0,0-.234-.021" transform="translate(-863.807 -1426.96)"/>
        <path id="Trazado_1006514" data-name="Trazado 1006514" d="M1002.437,1666.54c-2.44,0-6.782-.956-13.575-5.547a.361.361,0,1,1,.4-.6c11.025,7.449,15.268,5.065,15.31,5.04a.361.361,0,0,1,.371.619,5.132,5.132,0,0,1-2.51.485" transform="translate(-880.648 -1478.877)"/>
        <path id="Trazado_1006515" data-name="Trazado 1006515" d="M1073.251,1652.859a.361.361,0,0,1-.278-.591l1.928-2.322a.361.361,0,0,1,.555.461l-1.928,2.322a.361.361,0,0,1-.278.13" transform="translate(-955.635 -1469.509)"/>
        <path id="Trazado_1006516" data-name="Trazado 1006516" d="M1055.926,1639.52a.361.361,0,0,1-.269-.6l2.133-2.4a.361.361,0,1,1,.539.48l-2.133,2.4a.36.36,0,0,1-.27.121" transform="translate(-940.204 -1457.561)"/>
        <path id="Trazado_1006517" data-name="Trazado 1006517" d="M796.549,1586.042l-1.775,10.363-3.991-2.709,1.237-9.936Z" transform="translate(-704.359 -1410.673)" fill="#fff"/>
        <path id="Trazado_1006518" data-name="Trazado 1006518" d="M791.833,1593.825a.36.36,0,0,1-.2-.062l-3.991-2.709a.361.361,0,0,1-.155-.344l1.237-9.936a.361.361,0,0,1,.52-.277l4.529,2.282a.361.361,0,0,1,.193.383l-1.775,10.363a.361.361,0,0,1-.356.3m-3.606-3.245,3.345,2.271,1.635-9.548-3.834-1.931Z" transform="translate(-701.418 -1407.732)"/>
        <path id="Trazado_1006519" data-name="Trazado 1006519" d="M752.144,1643.622c-.061,3.2-.275,9.634-2.437,14.306-.58,1.253-3.108,1.3-4.114-.312a24.055,24.055,0,0,1-3.809-16.3,1.785,1.785,0,0,1,.928-1.317,12.127,12.127,0,0,1,2.865-1.035,1.2,1.2,0,0,1,1.456.957l.439,2.488.3-.433a1.714,1.714,0,0,1,2.018-.636l1.235.464a1.829,1.829,0,0,1,1.123,1.814" transform="translate(-660.509 -1459.817)" fill="#fff"/>
        <path id="Trazado_1006520" data-name="Trazado 1006520" d="M744.969,1656.276a3.114,3.114,0,0,1-2.636-1.4c-3.375-5.4-4.674-10.969-3.86-16.54a2.153,2.153,0,0,1,1.116-1.584,12.529,12.529,0,0,1,2.951-1.068,1.559,1.559,0,0,1,1.895,1.246l.292,1.655a2.07,2.07,0,0,1,2.233-.511l1.235.464a2.19,2.19,0,0,1,1.357,2.159c-.049,2.6-.181,9.5-2.471,14.451a2.159,2.159,0,0,1-1.91,1.124q-.1.006-.2.006m-2.067-19.915a.835.835,0,0,0-.2.023,11.79,11.79,0,0,0-2.78,1,1.428,1.428,0,0,0-.74,1.051c-.789,5.4.476,10.8,3.758,16.054a2.414,2.414,0,0,0,2.18,1.058,1.482,1.482,0,0,0,1.3-.707c2.226-4.811,2.355-11.6,2.4-14.162a1.461,1.461,0,0,0-.89-1.47l-1.235-.464a1.351,1.351,0,0,0-1.593.5l-.3.433a.361.361,0,0,1-.653-.141l-.439-2.488a.838.838,0,0,0-.821-.692" transform="translate(-657.556 -1456.882)"/>
        <path id="Trazado_1006521" data-name="Trazado 1006521" d="M759.152,1678.291a.36.36,0,0,1-.294-.151c-4.843-6.765-4.251-15.15-4.245-15.234a.361.361,0,0,1,.72.056c-.006.081-.574,8.212,4.112,14.758a.361.361,0,0,1-.293.571" transform="translate(-672.119 -1480.873)"/>
        <path id="Trazado_1006522" data-name="Trazado 1006522" d="M805.837,1713.9a.366.366,0,0,1-.081-.009l-3.027-.7a.361.361,0,1,1,.162-.7l3.027.7a.361.361,0,0,1-.081.713" transform="translate(-714.749 -1525.328)"/>
        <path id="Trazado_1006523" data-name="Trazado 1006523" d="M803.148,1736.2a.358.358,0,0,1-.109-.017l-2.873-.906a.361.361,0,1,1,.217-.688l2.872.906a.361.361,0,0,1-.108.705" transform="translate(-712.493 -1545.003)"/>
        <path id="Trazado_1006524" data-name="Trazado 1006524" d="M422.116,1185.943s14.176-2.472,27.427,4.1a10.29,10.29,0,0,1,5.7,8.721c.361,7.393.314,20.945-3.577,32.919a1.255,1.255,0,0,1-1.639.784l-5.925-2.247a1.252,1.252,0,0,1-.781-.909c-.573-2.686-2.571-12.911-1.536-20.464,1.072-7.826-21.495-14.783-26.342-16.184-.582-.168-13-3.481-13-3.481Z" transform="translate(-358.458 -1055.927)"/>
        <path id="Trazado_1006525" data-name="Trazado 1006525" d="M450.452,1232.7l-4.973,3.669a.839.839,0,0,1-1.088-.077c-3.362-3.306-22.338-21.868-26.968-24.182-5.086-2.542-14.533-6.27-22.9-5.765-7.8.471-10.152-4.456-10.42-5.137a22.736,22.736,0,0,1-1.237-4.12l8.7-5.837s24.809,2.735,33.925,9.36c8.23,5.982,22.476,26.934,25.164,30.946a.839.839,0,0,1-.2,1.142" transform="translate(-341.022 -1061.064)"/>
        <path id="Trazado_1006526" data-name="Trazado 1006526" d="M648.239,1238.226a.36.36,0,0,1-.281-.135c-3.745-4.656-9.517-10.852-12.693-13.161-3.438-2.5-8.94-4.514-16.355-5.99a.361.361,0,0,1,.141-.708c7.518,1.5,13.116,3.553,16.638,6.114,3.225,2.344,9.057,8.6,12.832,13.292a.361.361,0,0,1-.281.587" transform="translate(-551.011 -1085.088)" fill="#fff"/>
        <path id="Trazado_1006527" data-name="Trazado 1006527" d="M504.342,974.6l.967,3.608a24.631,24.631,0,0,0,6.63,11.293l1.293,1.255a5.216,5.216,0,0,0,3.048,1.442l.175.02a7.2,7.2,0,0,1,4.55,2.348l-4.121.5a9.619,9.619,0,0,1-7.055-1.923,20.5,20.5,0,0,1-5.793-6.992c-3.4-6.784-3.743-10.625-3.743-10.625Z" transform="translate(-445.617 -868.091)" fill="#fff"/>
        <path id="Trazado_1006528" data-name="Trazado 1006528" d="M512.743,992.562a9.863,9.863,0,0,1-6.076-2.071,20.691,20.691,0,0,1-5.894-7.115c-3.388-6.767-3.766-10.594-3.78-10.754a.361.361,0,0,1,.279-.384l4.048-.926a.361.361,0,0,1,.429.259l.967,3.608a24.278,24.278,0,0,0,6.533,11.128l1.292,1.255a4.882,4.882,0,0,0,2.837,1.342l.175.02a7.552,7.552,0,0,1,4.778,2.465.361.361,0,0,1-.225.6l-4.121.5a10.387,10.387,0,0,1-1.243.075m-14.989-19.695a36.7,36.7,0,0,0,3.664,10.185,19.978,19.978,0,0,0,5.691,6.868,9.2,9.2,0,0,0,6.79,1.85l3.387-.41a6.83,6.83,0,0,0-3.814-1.72l-.175-.02a5.607,5.607,0,0,1-3.259-1.541l-1.293-1.255a25,25,0,0,1-6.727-11.459l-.877-3.272Z" transform="translate(-442.676 -865.15)"/>
        <path id="Trazado_1006529" data-name="Trazado 1006529" d="M364.756,1222.452s-5.644,2.807-8.141,1.2,3.051-5.331,4.457-5.246,3.683,4.041,3.683,4.041" transform="translate(-317.074 -1085.251)"/>
        <path id="Trazado_1006530" data-name="Trazado 1006530" d="M244.133,897.734s.651-3.382,1.106-4.683c2.742-7.844,14.323-8.472,14.323-8.472s11.623-1.026,15.213,4.083a7.128,7.128,0,0,1,.87,1.4l2.039,4.888-.029.006a4.663,4.663,0,0,0-3.51,6.06c1.039,3.059,2.584,6.7,4.48,8.451.6.554,5.647,3.865,5.647,3.865s.555,4.362-8.562,6.253-15.511,1.979-18.12,5.982c-1.544,2.37-3.433-10.782-3.953-22.865a4.669,4.669,0,0,0-4.207-4.45Z" transform="translate(-217.452 -787.829)" fill="#fff"/>
        <path id="Trazado_1006531" data-name="Trazado 1006531" d="M254.276,923.21a.646.646,0,0,1-.17-.023c-.349-.1-1.276-.349-2.378-7.912-.651-4.461-1.158-10.131-1.391-15.555a4.33,4.33,0,0,0-3.882-4.106l-5.3-.52a.361.361,0,0,1-.319-.427c.027-.139.662-3.423,1.12-4.734,2.789-7.98,14.161-8.687,14.644-8.714.47-.042,11.86-.983,15.527,4.235.049.07.1.141.153.214a6.01,6.01,0,0,1,.757,1.263l2.036,4.882a.361.361,0,0,1-.262.493l-.029.006a4.3,4.3,0,0,0-3.239,5.59c1.376,4.052,2.892,6.923,4.383,8.3.473.438,4.2,2.912,5.6,3.828a.362.362,0,0,1,.16.256c.024.192.49,4.716-8.846,6.651-2.054.426-4.007.767-5.731,1.068-5.935,1.037-10.223,1.786-12.16,4.758a.811.811,0,0,1-.676.443m-12.653-28.8,4.9.481a5.055,5.055,0,0,1,4.532,4.794c.23,5.338.727,10.932,1.365,15.349.917,6.35,1.686,7.3,1.848,7.433a.6.6,0,0,0,.077-.1c2.108-3.235,6.526-4.007,12.64-5.075,1.718-.3,3.666-.641,5.708-1.064,7.661-1.588,8.246-4.943,8.278-5.7-.879-.578-4.976-3.28-5.535-3.8-1.6-1.482-3.142-4.375-4.576-8.6a5.022,5.022,0,0,1,3.384-6.434l-1.876-4.5a5.469,5.469,0,0,0-.674-1.113c-.054-.075-.107-.149-.158-.221-3.429-4.879-14.772-3.941-14.886-3.931s-11.385.71-14.014,8.232c-.351,1-.831,3.321-1.015,4.244" transform="translate(-214.511 -784.83)"/>
        <path id="Trazado_1006532" data-name="Trazado 1006532" d="M288.716,1024.461l-3.862-1.953a1.843,1.843,0,0,0-1.8.079l-2.092,1.3a1.838,1.838,0,0,1-1.338.238c-2.01-.41-10.878-4.353-11.6-6.089a38.013,38.013,0,0,1-.7-6.46,3.969,3.969,0,0,0-3.576-3.7l-4.173-.407s-.2,10.636,2.766,14.3c2.3,2.841,8.334,4.925,17.4,5.6a5.861,5.861,0,0,0,3.741-1.625c1.17-1.065,3.539-.113,5.043-.272a.538.538,0,0,0,.186-1.016" transform="translate(-231.205 -897.369)" fill="#fff"/>
        <path id="Trazado_1006533" data-name="Trazado 1006533" d="M276.814,1024.8h-.024c-8.952-.669-15.222-2.706-17.675-5.737-3.01-3.719-2.855-14.09-2.847-14.53a.361.361,0,0,1,.4-.353l4.173.407a4.315,4.315,0,0,1,3.9,4.032l.027.422a35.369,35.369,0,0,0,.643,5.923c.612,1.479,9.123,5.422,11.336,5.873a1.472,1.472,0,0,0,1.076-.192l2.092-1.3a2.216,2.216,0,0,1,2.157-.095l3.862,1.952a.9.9,0,0,1-.311,1.7,8.537,8.537,0,0,1-1.888-.108c-1.136-.144-2.311-.293-2.949.288a6.231,6.231,0,0,1-3.968,1.719m-19.827-19.863c0,1.939.158,10.545,2.688,13.672,2.293,2.833,8.543,4.827,17.149,5.47a5.591,5.591,0,0,0,3.471-1.532c.884-.805,2.288-.627,3.526-.47a8.076,8.076,0,0,0,1.722.106.178.178,0,0,0,.062-.335l-3.862-1.953a1.491,1.491,0,0,0-1.451.064l-2.092,1.3a2.191,2.191,0,0,1-1.6.286c-1.973-.4-11.061-4.378-11.858-6.3a33.294,33.294,0,0,1-.7-6.153l-.027-.422a3.6,3.6,0,0,0-3.251-3.36Z" transform="translate(-228.257 -894.43)"/>
        <path id="Trazado_1006534" data-name="Trazado 1006534" d="M332.867,721.8c-1.778,1.233-.907,2.492-3.306,5.467-1.762,2.185-3.141,2.633-3.226,4.156-.077,1.372.962,2.452,1.648,3.165,3.114,3.237,7.783,3.323,10.65,3.376,2.319.043,5.5.1,6.057-1.306.55-1.389-2.092-2.606-2.091-5.441,0-2.281,1.711-2.772,1.513-4.811-.256-2.638-3.355-4.237-3.852-4.494-1.994-1.029-5.2-1.63-7.393-.111" transform="translate(-290.666 -642.101)"/>
        <path id="Trazado_1006535" data-name="Trazado 1006535" d="M367.561,688.677s1.483-4.2-2.146-4.84-2.408,4.162-.232,5.675,2.379-.834,2.379-.834" transform="translate(-323.423 -609.05)"/>
        <path id="Trazado_1006536" data-name="Trazado 1006536" d="M351.671,771.3c-.073-.98,2.36-1.234,3-2.125a33.106,33.106,0,0,0,3.089-6.084c.091-.205.161-.413.006-.576a2.647,2.647,0,0,1-.857-2.241c.1-.485.459-1.188.931-1.2.332-.009.707.325.938.9a.412.412,0,0,0,.72.08l.006-.008a3.358,3.358,0,0,0,.441-.823.417.417,0,0,1,.4-.283c3.609-.017,1.815-4.412,4.176-3.71a.412.412,0,0,1,.224.176,12.516,12.516,0,0,1,.785,1.192c.517,1.022.454,3.414,1.493,4.463a.4.4,0,0,1,.077.443c-.174.392-.541.438-.847.6a.393.393,0,0,0-.2.334c-.026.574-.238,1.894-.328,2.91a1.214,1.214,0,0,1-1.22,1.111,7.273,7.273,0,0,1-1.614-.214c-.11-.027-.79-.265-.84-.163a37.981,37.981,0,0,0-1.874,4.044c-.066.171,1.833.275,1.8.48-.266,1.587-2.4,2.894-5.432,2.539-4.819-.564-4.869-1.834-4.869-1.834" transform="translate(-313.236 -672.617)" fill="#fff"/>
        <path id="Trazado_1006537" data-name="Trazado 1006537" d="M354.606,770.611a9.064,9.064,0,0,1-1.051-.063c-4.829-.565-5.171-1.888-5.188-2.17-.056-.8.84-1.189,1.706-1.561a3.668,3.668,0,0,0,1.362-.8,30.07,30.07,0,0,0,2.852-5.572l.2-.448a.731.731,0,0,0,.066-.188,2.984,2.984,0,0,1-.94-2.556c.123-.588.564-1.469,1.275-1.488.509-.02,1,.416,1.282,1.12a.052.052,0,0,0,.089.011,2.9,2.9,0,0,0,.4-.734.781.781,0,0,1,.744-.537c1.687-.008,1.977-1.033,2.284-2.119a2.3,2.3,0,0,1,.86-1.528,1.434,1.434,0,0,1,1.136-.049.769.769,0,0,1,.425.328c.114.179.217.32.317.457a5.14,5.14,0,0,1,.486.766,7.022,7.022,0,0,1,.466,1.718,5.445,5.445,0,0,0,.962,2.654.765.765,0,0,1,.151.844,1.315,1.315,0,0,1-.81.681c-.068.028-.136.055-.2.088a.05.05,0,0,0-.01.03c-.014.314-.078.81-.151,1.384-.064.5-.136,1.061-.178,1.541a1.578,1.578,0,0,1-1.585,1.441,7.662,7.662,0,0,1-1.694-.225c-.025-.006-.076-.021-.142-.042s-.253-.078-.389-.11c-.135.271-.257.512-.37.736a28.377,28.377,0,0,0-1.257,2.739c.136.025.3.05.421.07.784.124,1.05.18,1.193.378a.4.4,0,0,1,.071.3c-.25,1.494-1.982,2.9-4.779,2.9m-5.519-2.3c.036.095.5,1.044,4.552,1.518,2.679.313,4.554-.728,4.97-1.981-.178-.038-.427-.077-.6-.1-.73-.115-.967-.161-1.089-.373a.41.41,0,0,1-.026-.332,29.268,29.268,0,0,1,1.419-3.142c.14-.276.293-.579.468-.932s.605-.224,1.148-.057l.1.031a6.939,6.939,0,0,0,1.534.2.845.845,0,0,0,.855-.782c.043-.495.117-1.065.181-1.569.069-.536.133-1.041.146-1.325a.754.754,0,0,1,.4-.639c.084-.043.172-.079.26-.115.23-.093.353-.149.422-.306a.043.043,0,0,0,0-.043,5.889,5.889,0,0,1-1.158-3.026,6.673,6.673,0,0,0-.4-1.528,4.5,4.5,0,0,0-.425-.667c-.1-.139-.216-.3-.342-.493a.072.072,0,0,0-.024-.025.787.787,0,0,0-.581-.01c-.243.134-.375.6-.514,1.092-.3,1.049-.745,2.633-2.975,2.644a.064.064,0,0,0-.058.028,3.617,3.617,0,0,1-.488.922.773.773,0,0,1-1.358-.14c-.188-.464-.457-.67-.59-.67h0c-.2.005-.494.466-.588.914a2.307,2.307,0,0,0,.764,1.917.845.845,0,0,1,.063.972l-.2.448a30.448,30.448,0,0,1-2.926,5.7,3.95,3.95,0,0,1-1.663,1.039c-.566.242-1.267.543-1.271.833m0,.025v0" transform="translate(-310.292 -669.673)"/>
        <path id="Trazado_1006538" data-name="Trazado 1006538" d="M428.281,839.706a.367.367,0,0,1-.079-.009,5.781,5.781,0,0,1-3.04-1.885.361.361,0,0,1,.568-.446,5.133,5.133,0,0,0,2.63,1.626.361.361,0,0,1-.078.713" transform="translate(-378.628 -745.729)"/>
        <path id="Trazado_1006539" data-name="Trazado 1006539" d="M571.67,1049.667l-20.088.13,12.362-19.08a2.559,2.559,0,0,1,2.141-1.164l16.3-.105a1.277,1.277,0,0,1,1.124,1.953Z" transform="translate(-491.3 -916.94)" fill="#99b9ff"/>
        <path id="Trazado_1006540" data-name="Trazado 1006540" d="M545.482,1047.221l12.726-19.641a2.9,2.9,0,0,1,2.441-1.329l16.3-.105a1.68,1.68,0,0,1,1.486.861,1.59,1.59,0,0,1-.056,1.647l-11.948,18.432Zm20.755-.495h0Zm10.726-19.859h-.007l-16.3.105a2.185,2.185,0,0,0-1.839,1l-12,18.52,19.225-.124,11.735-18.1a.877.877,0,0,0,.03-.908.944.944,0,0,0-.842-.488" transform="translate(-485.867 -913.999)"/>
        <path id="Trazado_1006541" data-name="Trazado 1006541" d="M694.064,1114.835a2.9,2.9,0,0,1-2.132,1.255c-.736,0-.975-.55-.534-1.238a2.9,2.9,0,0,1,2.132-1.255c.736,0,.976.549.534,1.238" transform="translate(-615.638 -991.893)" fill="#fff"/>
        <path id="Trazado_1006542" data-name="Trazado 1006542" d="M502.465,1214.028l-26.686.177c-.366,0-.689-.391-.867-.98a.789.789,0,0,1,.746-1.02l27.793-.185c.007,1.1-.434,2-.986,2.007" transform="translate(-422.979 -1079.561)" fill="#99b9ff"/>
        <path id="Trazado_1006543" data-name="Trazado 1006543" d="M472.83,1211.607c-.524,0-.975-.462-1.208-1.237a1.15,1.15,0,0,1,1.089-1.485l28.154-.187,0,.361c.008,1.346-.57,2.365-1.344,2.37l-26.687.177Zm27.3-2.182-27.414.182a.418.418,0,0,0-.337.172.429.429,0,0,0-.066.383c.143.475.368.723.518.723h0l26.687-.177c.221,0,.538-.5.612-1.283" transform="translate(-420.034 -1076.601)"/>
        <path id="Trazado_1006544" data-name="Trazado 1006544" d="M288.53,321.588H248.665a.892.892,0,0,1-.892-.892V282.289a.892.892,0,0,1,.892-.892H288.53a.892.892,0,0,1,.892.892V320.7a.892.892,0,0,1-.892.892" transform="translate(-220.694 -250.643)" fill="#fff"/>
        <path id="Trazado_1006545" data-name="Trazado 1006545" d="M289.423,288.358H247.774v-5a1.963,1.963,0,0,1,1.963-1.964h37.722a1.963,1.963,0,0,1,1.963,1.964Z" transform="translate(-220.695 -250.643)" fill="#99b9ff"/>
        <path id="Trazado_1006546" data-name="Trazado 1006546" d="M284.518,319.008H246.8a2.327,2.327,0,0,1-2.324-2.324V280.419A2.327,2.327,0,0,1,246.8,278.1h37.722a2.327,2.327,0,0,1,2.324,2.324v36.264a2.327,2.327,0,0,1-2.324,2.324M246.8,278.817a1.6,1.6,0,0,0-1.6,1.6v36.264a1.6,1.6,0,0,0,1.6,1.6h37.722a1.6,1.6,0,0,0,1.6-1.6V280.419a1.6,1.6,0,0,0-1.6-1.6Z" transform="translate(-217.754 -247.702)"/>
        <path id="Trazado_1006547" data-name="Trazado 1006547" d="M292.482,471.649h-4.608a1.075,1.075,0,0,1-1.075-1.075v-4.648a1.075,1.075,0,0,1,1.075-1.075h4.608a1.075,1.075,0,0,1,1.075,1.075v4.648a1.075,1.075,0,0,1-1.075,1.075" transform="translate(-255.455 -414.047)" fill="#caddff"/>
        <path id="Trazado_1006548" data-name="Trazado 1006548" d="M372.88,471.649h-4.608a1.075,1.075,0,0,1-1.075-1.075v-4.648a1.075,1.075,0,0,1,1.075-1.075h4.608a1.075,1.075,0,0,1,1.075,1.075v4.648a1.075,1.075,0,0,1-1.075,1.075" transform="translate(-327.066 -414.047)" fill="#caddff"/>
        <path id="Trazado_1006549" data-name="Trazado 1006549" d="M453.277,471.649h-4.608a1.075,1.075,0,0,1-1.075-1.075v-4.648a1.075,1.075,0,0,1,1.075-1.075h4.608a1.075,1.075,0,0,1,1.075,1.075v4.648a1.075,1.075,0,0,1-1.075,1.075" transform="translate(-398.677 -414.047)" fill="#caddff"/>
        <path id="Trazado_1006550" data-name="Trazado 1006550" d="M533.675,471.649h-4.608a1.075,1.075,0,0,1-1.075-1.075v-4.648a1.075,1.075,0,0,1,1.075-1.075h4.608a1.075,1.075,0,0,1,1.075,1.075v4.648a1.075,1.075,0,0,1-1.075,1.075" transform="translate(-470.288 -414.047)" fill="#99b9ff"/>
        <path id="Trazado_1006551" data-name="Trazado 1006551" d="M292.482,552.232h-4.608a1.075,1.075,0,0,1-1.075-1.075v-4.648a1.075,1.075,0,0,1,1.075-1.075h4.608a1.075,1.075,0,0,1,1.075,1.075v4.648a1.075,1.075,0,0,1-1.075,1.075" transform="translate(-255.455 -485.823)" fill="#caddff"/>
        <path id="Trazado_1006552" data-name="Trazado 1006552" d="M372.88,552.232h-4.608a1.075,1.075,0,0,1-1.075-1.075v-4.648a1.075,1.075,0,0,1,1.075-1.075h4.608a1.075,1.075,0,0,1,1.075,1.075v4.648a1.075,1.075,0,0,1-1.075,1.075" transform="translate(-327.066 -485.823)" fill="#caddff"/>
        <path id="Trazado_1006553" data-name="Trazado 1006553" d="M453.277,552.232h-4.608a1.075,1.075,0,0,1-1.075-1.075v-4.648a1.075,1.075,0,0,1,1.075-1.075h4.608a1.075,1.075,0,0,1,1.075,1.075v4.648a1.075,1.075,0,0,1-1.075,1.075" transform="translate(-398.677 -485.823)" fill="#caddff"/>
        <path id="Trazado_1006554" data-name="Trazado 1006554" d="M292.482,390.81h-4.608a1.075,1.075,0,0,1-1.075-1.075v-4.648a1.075,1.075,0,0,1,1.075-1.075h4.608a1.075,1.075,0,0,1,1.075,1.075v4.648a1.076,1.076,0,0,1-1.075,1.075" transform="translate(-255.455 -342.043)" fill="#caddff"/>
        <path id="Trazado_1006555" data-name="Trazado 1006555" d="M372.88,390.81h-4.608a1.075,1.075,0,0,1-1.075-1.075v-4.648a1.075,1.075,0,0,1,1.075-1.075h4.608a1.075,1.075,0,0,1,1.075,1.075v4.648a1.076,1.076,0,0,1-1.075,1.075" transform="translate(-327.066 -342.043)" fill="#caddff"/>
        <path id="Trazado_1006556" data-name="Trazado 1006556" d="M453.277,390.81h-4.608a1.075,1.075,0,0,1-1.075-1.075v-4.648a1.075,1.075,0,0,1,1.075-1.075h4.608a1.075,1.075,0,0,1,1.075,1.075v4.648a1.075,1.075,0,0,1-1.075,1.075" transform="translate(-398.677 -342.043)" fill="#caddff"/>
        <path id="Trazado_1006557" data-name="Trazado 1006557" d="M533.675,390.81h-4.608a1.075,1.075,0,0,1-1.075-1.075v-4.648a1.075,1.075,0,0,1,1.075-1.075h4.608a1.075,1.075,0,0,1,1.075,1.075v4.648a1.075,1.075,0,0,1-1.075,1.075" transform="translate(-470.288 -342.043)" fill="#99b9ff"/>
        <path id="Trazado_1006558" data-name="Trazado 1006558" d="M269.162,256.788h0a3.829,3.829,0,0,1-2.662-6.534,3.721,3.721,0,0,1,2.659-1.1q.116,0,.231.008a.361.361,0,1,1-.047.72c-.064,0-.129-.006-.195-.006a3.009,3.009,0,0,0-2.14.887,3.107,3.107,0,0,0,2.154,5.3.361.361,0,0,1,0,.722" transform="translate(-236.378 -221.927)"/>
        <path id="Trazado_1006559" data-name="Trazado 1006559" d="M316.508,256.913h0a3.829,3.829,0,0,1-2.662-6.533,3.727,3.727,0,0,1,2.649-1.1c.08,0,.161,0,.241.008a.361.361,0,0,1-.045.72c-.065,0-.133-.007-.2-.006a3.009,3.009,0,0,0-2.139.887,3.107,3.107,0,0,0,2.154,5.3.361.361,0,0,1,0,.722" transform="translate(-278.549 -222.038)"/>
        <path id="Trazado_1006560" data-name="Trazado 1006560" d="M363.855,257.037h0a3.829,3.829,0,0,1-2.662-6.533,3.726,3.726,0,0,1,2.649-1.1c.081,0,.162,0,.242.008a.361.361,0,1,1-.047.72c-.064,0-.129,0-.2-.006a3.009,3.009,0,0,0-2.139.887,3.108,3.108,0,0,0,2.154,5.3.361.361,0,0,1,0,.722" transform="translate(-320.722 -222.149)"/>
        <path id="Trazado_1006561" data-name="Trazado 1006561" d="M411.2,257.163h0a3.829,3.829,0,0,1-2.662-6.534,3.727,3.727,0,0,1,2.649-1.1c.08,0,.161,0,.241.008a.361.361,0,0,1-.045.72c-.065,0-.13-.005-.2-.006a3.009,3.009,0,0,0-2.139.887,3.107,3.107,0,0,0,2.154,5.3.361.361,0,0,1,0,.722" transform="translate(-362.894 -222.261)"/>
        <path id="Trazado_1006562" data-name="Trazado 1006562" d="M458.548,257.289h0a3.829,3.829,0,0,1-2.662-6.533,3.726,3.726,0,0,1,2.649-1.1c.08,0,.162,0,.242.008a.361.361,0,0,1-.046.72c-.064,0-.128-.006-.2-.006a3.009,3.009,0,0,0-2.139.887,3.107,3.107,0,0,0,2.154,5.3.361.361,0,0,1,0,.722" transform="translate(-405.066 -222.373)"/>
        <path id="Trazado_1006563" data-name="Trazado 1006563" d="M505.9,257.415h0a3.829,3.829,0,0,1-2.662-6.533,3.727,3.727,0,0,1,2.649-1.1c.082,0,.161,0,.241.008a.361.361,0,0,1-.045.72c-.065,0-.131-.007-.2-.006a3.009,3.009,0,0,0-2.14.887,3.107,3.107,0,0,0,2.154,5.3.361.361,0,0,1,0,.722" transform="translate(-447.238 -222.485)"/>
        <path id="Trazado_1006564" data-name="Trazado 1006564" d="M550.549,257.532h0A3.829,3.829,0,0,1,547.886,251a3.727,3.727,0,0,1,2.649-1.1h.01a3.764,3.764,0,0,1,3.217,1.819.361.361,0,1,1-.616.377,3.047,3.047,0,0,0-2.6-1.475h-.008a3.009,3.009,0,0,0-2.14.887,3.107,3.107,0,0,0,2.154,5.3.361.361,0,0,1,0,.722" transform="translate(-487.012 -222.59)"/>
        <path id="Trazado_1006565" data-name="Trazado 1006565" d="M1626.343,405.719a12.863,12.863,0,0,1-13.616,11.615,12.176,12.176,0,0,1-11.078-13.54,12.864,12.864,0,0,1,13.616-11.615,12.176,12.176,0,0,1,11.078,13.54" transform="translate(-1426.548 -349.285)" fill="#fff"/>
        <path id="Trazado_1006566" data-name="Trazado 1006566" d="M1611.719,414.124a12.309,12.309,0,0,1-5.13-1.126,12.75,12.75,0,0,1-6.714-7.367,13.349,13.349,0,0,1-.791-4.51.361.361,0,0,1,.36-.361h0a.361.361,0,0,1,.361.36,12.624,12.624,0,0,0,.748,4.267,12.035,12.035,0,0,0,6.335,6.955,11.554,11.554,0,0,0,9.028.272,12.515,12.515,0,0,0,7.069-15.891,12.034,12.034,0,0,0-6.335-6.955,11.552,11.552,0,0,0-9.028-.273,12.131,12.131,0,0,0-6.465,5.909.361.361,0,1,1-.645-.324,12.85,12.85,0,0,1,6.851-6.258,12.267,12.267,0,0,1,9.588.289,12.748,12.748,0,0,1,6.714,7.367,13.241,13.241,0,0,1-7.488,16.809,12.374,12.374,0,0,1-4.458.837" transform="translate(-1424.322 -345.584)"/>
        <path id="Trazado_1006567" data-name="Trazado 1006567" d="M1678.624,453.235l.176-1.745a7.046,7.046,0,0,1-2.986-1.029l.758-2.107a6.181,6.181,0,0,0,2.911,1.042c1.028.08,1.772-.269,1.846-1,.07-.7-.462-1.184-1.75-1.747-1.863-.812-3.086-1.833-2.907-3.614A3.481,3.481,0,0,1,1680.05,440l.176-1.745,1.767.138-.163,1.616a6.305,6.305,0,0,1,2.554.81l-.732,2.035a5.808,5.808,0,0,0-2.534-.827c-1.172-.091-1.6.393-1.655.908-.061.606.531,1.041,2,1.748,2.068.939,2.831,2.016,2.665,3.67a3.609,3.609,0,0,1-3.552,3.148l-.189,1.874Z" transform="translate(-1492.666 -390.358)" fill="#5479f7"/>
        <path id="Trazado_1006568" data-name="Trazado 1006568" d="M29.664,700.192a12.863,12.863,0,0,1-4.357,17.358A12.176,12.176,0,0,1,8.43,712.943a12.863,12.863,0,0,1,4.357-17.358,12.176,12.176,0,0,1,16.877,4.607" transform="translate(-5.986 -618.034)" fill="#fff"/>
        <path id="Trazado_1006569" data-name="Trazado 1006569" d="M12.976,721.5a13.03,13.03,0,0,1-11.022-5.925,12.269,12.269,0,0,1-1.63-9.453A12.75,12.75,0,0,1,6.2,698.077a13.335,13.335,0,0,1,4.261-1.675.361.361,0,1,1,.145.707,12.618,12.618,0,0,0-4.031,1.585,12.033,12.033,0,0,0-5.551,7.6,11.552,11.552,0,0,0,1.535,8.9,12.515,12.515,0,0,0,16.982,3.755,12.034,12.034,0,0,0,5.55-7.6,11.553,11.553,0,0,0-1.535-8.9,12.13,12.13,0,0,0-7.08-5.156.361.361,0,0,1,.189-.7,12.849,12.849,0,0,1,7.5,5.464,12.268,12.268,0,0,1,1.63,9.453,12.749,12.749,0,0,1-5.879,8.049,13.341,13.341,0,0,1-6.943,1.942" transform="translate(0 -620.287)"/>
        <path id="Trazado_1006570" data-name="Trazado 1006570" d="M83.032,758.719l-.869-1.524a7.043,7.043,0,0,1-3.029.893l-.6-2.156a6.18,6.18,0,0,0,2.976-.84c.884-.531,1.287-1.247.922-1.888-.347-.609-1.063-.7-2.439-.408-1.988.419-3.577.3-4.464-1.259a3.481,3.481,0,0,1,.993-4.429l-.869-1.524,1.519-.913.8,1.411a6.308,6.308,0,0,1,2.55-.821l.583,2.082a5.805,5.805,0,0,0-2.544.8c-1.008.605-1.077,1.25-.821,1.7.3.529,1.036.54,2.647.262,2.229-.434,3.476,0,4.3,1.444a3.609,3.609,0,0,1-1.069,4.625l.932,1.636Z" transform="translate(-66.89 -663.288)" fill="#5479f7"/>
        <path id="Trazado_1006571" data-name="Trazado 1006571" d="M155.421,95.538h0a.361.361,0,0,1-.359-.363l.006-.992a.361.361,0,0,1,.361-.359h0a.361.361,0,0,1,.359.363l-.006.992a.361.361,0,0,1-.361.359" transform="translate(-138.114 -83.571)"/>
        <path id="Trazado_1006572" data-name="Trazado 1006572" d="M155.17,138.989h0a.361.361,0,0,1-.359-.363l.006-.992a.361.361,0,0,1,.361-.359h0a.361.361,0,0,1,.359.363l-.006.992a.361.361,0,0,1-.361.359" transform="translate(-137.89 -122.273)"/>
        <path id="Trazado_1006573" data-name="Trazado 1006573" d="M129.06,120.914a.361.361,0,0,1,0-.722l.991-.006h0a.361.361,0,0,1,0,.722l-.991.006Z" transform="translate(-114.634 -107.052)"/>
        <path id="Trazado_1006574" data-name="Trazado 1006574" d="M172.511,120.662a.361.361,0,0,1,0-.722l.991-.006h0a.361.361,0,0,1,0,.722l-.991.006Z" transform="translate(-153.336 -106.827)"/>
        <path id="Trazado_1006575" data-name="Trazado 1006575" d="M100.85,178.109a.361.361,0,0,1-.257-.614l.695-.707a.361.361,0,1,1,.515.506l-.695.707a.36.36,0,0,1-.257.108" transform="translate(-89.507 -157.371)"/>
        <path id="Trazado_1006576" data-name="Trazado 1006576" d="M70.393,209.1a.361.361,0,0,1-.257-.614l.695-.707a.361.361,0,1,1,.515.506l-.695.707a.36.36,0,0,1-.257.108" transform="translate(-62.379 -184.977)"/>
        <path id="Trazado_1006577" data-name="Trazado 1006577" d="M70.573,178.631a.36.36,0,0,1-.25-.1l-.715-.687a.361.361,0,0,1,.5-.521l.715.687a.361.361,0,0,1-.25.621" transform="translate(-61.901 -157.854)"/>
        <path id="Trazado_1006578" data-name="Trazado 1006578" d="M101.915,208.726a.359.359,0,0,1-.25-.1l-.715-.687a.361.361,0,0,1,.5-.521l.715.687a.361.361,0,0,1-.25.621" transform="translate(-89.818 -184.66)"/>
        <path id="Trazado_1006579" data-name="Trazado 1006579" d="M140.938,299.9a2.215,2.215,0,1,1-2.215-2.215,2.215,2.215,0,0,1,2.215,2.215" transform="translate(-121.588 -265.149)" fill="#caddff"/>
      </g>
    </g>
  </g>
</svg>
