<svg xmlns="http://www.w3.org/2000/svg" xmlns:xlink="http://www.w3.org/1999/xlink" width="292" height="163.298" viewBox="0 0 292 163.298">
  <defs>
    <clipPath id="clip-path">
      <rect id="Rectángulo_458561" data-name="Rectángulo 458561" width="208" height="162.298" fill="none"/>
    </clipPath>
  </defs>
  <g id="Grupo_1183132" data-name="Grupo 1183132" transform="translate(-186.41 -3642)">
    <rect id="Rectángulo_458091" data-name="Rectángulo 458091" width="292" height="163" rx="10" transform="translate(186.41 3642)" fill="#cfa9e6"/>
    <g id="Grupo_1183131" data-name="Grupo 1183131" transform="translate(228.41 3643)">
      <g id="Grupo_1183130" data-name="Grupo 1183130">
        <g id="Grupo_1183129" data-name="Grupo 1183129" clip-path="url(#clip-path)">
          <path id="Trazado_1007735" data-name="Trazado 1007735" d="M.646,154.315a35.383,35.383,0,0,0,16.6,22.86H189.606a29.749,29.749,0,0,0,5.088-52.4c-3.852-2.549-8.521-4.43-10.746-8.478-1.938-3.527-1.494-7.923-.123-11.706s3.581-7.2,5.167-10.9c6.377-14.864,1.572-33.04-9.441-44.887s-27.228-17.887-43.346-19.236c-17.549-1.468-35.614,4.281-47.887,16.911-4.184,4.306-7.814,9.419-13.167,12.136-8.162,4.144-17.027.583-25.3,3.139-7.337,2.267-15.085,5.242-20.117,11.311a27.572,27.572,0,0,0-6.034,20.9c.8,6.15,3.575,12.923.2,18.129-1.857,2.868-5.138,4.4-8.018,6.236A35.4,35.4,0,0,0,.646,154.315" transform="translate(0 -15.447)" fill="#ebf0fe"/>
          <path id="Trazado_1007736" data-name="Trazado 1007736" d="M53.063,191.262a31.153,31.153,0,0,0,7.927,13.984H198.25a25.408,25.408,0,0,0,6.908-38.132c-5.516-6.731-14.731-11.147-16.567-19.654-1.895-8.779,5.237-17.1,5.433-26.081.281-12.977-5.51-26.536-16.584-33.772-10.2-6.664-24.7-6.817-34.163.861-5.683,4.613-9.923,13.127-17.091,15.465-8.421,2.748-21.253.618-30.13.8-16.467.344-25.214,7.742-23.342,24.986.72,6.628,1.991,13.654-.786,19.714-2.588,5.649-8.159,9.237-12.234,13.928a31.478,31.478,0,0,0-6.631,27.9" transform="translate(-27.458 -43.518)" fill="#c1d1f4"/>
          <path id="Trazado_1007737" data-name="Trazado 1007737" d="M228.286,177.508l-141.1-141.1,6.923-6.924H73.262V50.329L79.689,43.9,213.3,177.508Z" transform="translate(-38.572 -15.523)" fill="#00b55b"/>
          <path id="Trazado_1007738" data-name="Trazado 1007738" d="M182.814,228.582,86.7,132.47l6.052-6.052H74.532v18.222l5.618-5.618,89.561,89.561Z" transform="translate(-39.241 -66.558)" fill="#00b55b"/>
          <path id="Trazado_1007739" data-name="Trazado 1007739" d="M52.658,256.808A14.078,14.078,0,0,1,49.01,266.87a17.684,17.684,0,0,1-9.975,5.048v4.944H28.454v-4.944a17.59,17.59,0,0,1-10.268-5.325,15.119,15.119,0,0,1-3.7-10.511H28.005a4.248,4.248,0,0,0,1.608,3.544,6.212,6.212,0,0,0,3.959,1.262,6.725,6.725,0,0,0,3.786-1.037,3.326,3.326,0,0,0,1.314-4.115,2.648,2.648,0,0,0-.9-1.054q-.64-.467-1.193-.8a8.507,8.507,0,0,0-1.746-.692q-1.193-.363-1.867-.536t-2.2-.553q-1.556-.38-2.368-.588t-2.351-.691a22.877,22.877,0,0,1-2.42-.882q-.882-.4-2.2-1.089a10.1,10.1,0,0,1-2.092-1.4,19.305,19.305,0,0,1-1.677-1.764,8.737,8.737,0,0,1-1.4-2.213,14.318,14.318,0,0,1-.83-2.7,15.788,15.788,0,0,1-.329-3.3,13.3,13.3,0,0,1,3.371-9.37,16.417,16.417,0,0,1,9.491-4.772V218.67H38.551v4.737a15.7,15.7,0,0,1,9.319,5.013,14.517,14.517,0,0,1,3.267,9.75L38,238.206a3.646,3.646,0,0,0-1.4-3.077,5.667,5.667,0,0,0-3.544-1.072,6.493,6.493,0,0,0-3.267.778,2.442,2.442,0,0,0-1.366,2.23,2.511,2.511,0,0,0,.45,1.452,4.181,4.181,0,0,0,1.037,1.072,8.027,8.027,0,0,0,1.85.864q1.262.45,2.127.691t2.627.692h.035a44.966,44.966,0,0,1,8.852,3.008,12.526,12.526,0,0,1,7.261,11.479Z" transform="translate(-7.627 -115.128)" fill="#ef9d30"/>
          <path id="Trazado_1007740" data-name="Trazado 1007740" d="M287.829,19.51a7.2,7.2,0,0,1-1.866,5.147,9.052,9.052,0,0,1-5.1,2.583V29.77h-5.413V27.24a9,9,0,0,1-5.254-2.724,7.738,7.738,0,0,1-1.893-5.378h6.916a2.174,2.174,0,0,0,.823,1.813,3.178,3.178,0,0,0,2.026.646A3.44,3.44,0,0,0,280,21.067a1.7,1.7,0,0,0,.672-2.105,1.357,1.357,0,0,0-.46-.539q-.327-.239-.61-.407a4.348,4.348,0,0,0-.894-.354q-.61-.186-.955-.275l-1.123-.283q-.8-.195-1.212-.3t-1.2-.354A11.8,11.8,0,0,1,272.98,16q-.452-.2-1.123-.557a5.2,5.2,0,0,1-1.071-.716,9.951,9.951,0,0,1-.858-.9,4.475,4.475,0,0,1-.717-1.132,7.351,7.351,0,0,1-.424-1.379,8.076,8.076,0,0,1-.168-1.689,6.8,6.8,0,0,1,1.725-4.794A8.4,8.4,0,0,1,275.2,2.387V0h5.413V2.423a8.028,8.028,0,0,1,4.767,2.565,7.426,7.426,0,0,1,1.672,4.988l-6.721.018a1.865,1.865,0,0,0-.717-1.574,2.9,2.9,0,0,0-1.813-.548,3.326,3.326,0,0,0-1.671.4,1.25,1.25,0,0,0-.7,1.141,1.286,1.286,0,0,0,.23.743,2.141,2.141,0,0,0,.531.548,4.092,4.092,0,0,0,.946.442q.646.231,1.088.354t1.344.354h.018a23.018,23.018,0,0,1,4.529,1.539,6.41,6.41,0,0,1,3.715,5.873Z" transform="translate(-141.258 0.001)" fill="#f1c830"/>
          <rect id="Rectángulo_458554" data-name="Rectángulo 458554" width="26.867" height="13.47" transform="matrix(0.856, -0.516, 0.516, 0.856, 74.989, 18.189)" fill="#00b55b"/>
          <path id="Trazado_1007741" data-name="Trazado 1007741" d="M164.39,25.233l17.912-10.8.051.084a1.516,1.516,0,0,0,2.079.515l.084-.051,4.106,6.81-.084.051a1.516,1.516,0,0,0-.515,2.079l.051.084L170.162,34.8l-.051-.084a1.516,1.516,0,0,0-2.079-.515l-.084.05-4.106-6.81.084-.05a1.517,1.517,0,0,0,.515-2.08ZM182.239,14.7,164.656,25.3a1.713,1.713,0,0,1-.547,2.21l3.907,6.479a1.713,1.713,0,0,1,2.21.547l17.582-10.6a1.713,1.713,0,0,1,.547-2.21l-3.907-6.479a1.713,1.713,0,0,1-2.21-.547" transform="translate(-86.262 -7.598)" fill="#008a3c"/>
          <path id="Trazado_1007742" data-name="Trazado 1007742" d="M185.637,33.159a2.758,2.758,0,0,0,.312-.045q.119-.023.258-.058.261-.065.59-.169l0,0q.221-.07.331-.1c.073-.022.165-.045.277-.069a1,1,0,0,1,.258-.031.534.534,0,0,1,.185.045.318.318,0,0,1,.146.127.311.311,0,0,1,0,.333.827.827,0,0,1-.3.3.721.721,0,0,1-.455.124.465.465,0,0,1-.359-.238l-1.417.891a1.947,1.947,0,0,0,.753.726,1.662,1.662,0,0,0,.258.107l.065.019a2.028,2.028,0,0,0,1.28-.106l.32.511,1.143-.714-.315-.5a2.808,2.808,0,0,0,.258-.265,2.127,2.127,0,0,0,.143-.186,1.82,1.82,0,0,0,.3-.705,1.7,1.7,0,0,0-.268-1.24l-.024-.037a2.035,2.035,0,0,0-.146-.2c-.028-.035-.058-.068-.089-.1a1.812,1.812,0,0,0-.271-.235,1.12,1.12,0,0,0-.3-.145,2.517,2.517,0,0,0-.3-.077,1.279,1.279,0,0,0-.321-.01c-.126.009-.23.019-.311.03a3.048,3.048,0,0,0-.321.068q-.2.052-.3.084l-.3.1-.274.089c-.056.018-.136.041-.238.068a1.091,1.091,0,0,1-.235.043c-.054,0-.115,0-.182-.005a.337.337,0,0,1-.169-.054.423.423,0,0,1-.135-.533.771.771,0,0,1,.135-.2.987.987,0,0,1,.186-.154l.018-.012a.787.787,0,0,1,.513-.131.514.514,0,0,1,.177.05.548.548,0,0,1,.192.161.72.72,0,0,1,.045.063l1.46-.913a1.928,1.928,0,0,0-1.109-.885c-.031-.009-.062-.017-.093-.024a1.891,1.891,0,0,0-.328-.047,2.461,2.461,0,0,0-1.048.189l-.333-.534-1.143.714.334.535a2.855,2.855,0,0,0-.348.378,2.33,2.33,0,0,0-.191.3,1.938,1.938,0,0,0-.2.544,1.617,1.617,0,0,0-.013.567,1.809,1.809,0,0,0,.051.229,2.168,2.168,0,0,0,.247.537l.033.052a1.6,1.6,0,0,0,1.559.75" transform="translate(-96.732 -15.035)" fill="#008a3c"/>
          <path id="Trazado_1007743" data-name="Trazado 1007743" d="M200.573,26.753a1.582,1.582,0,1,1,2.172.538,1.582,1.582,0,0,1-2.172-.538" transform="translate(-105.48 -12.822)" fill="#008a3c"/>
          <path id="Trazado_1007744" data-name="Trazado 1007744" d="M173.216,43.25a1.582,1.582,0,1,1,2.172.538,1.582,1.582,0,0,1-2.172-.538" transform="translate(-91.077 -21.507)" fill="#008a3c"/>
          <path id="Trazado_1007745" data-name="Trazado 1007745" d="M165.632,18.135a8.272,8.272,0,1,1-8.272-8.272,8.272,8.272,0,0,1,8.272,8.272" transform="translate(-78.494 -5.193)" fill="#f1c830"/>
          <path id="Trazado_1007746" data-name="Trazado 1007746" d="M158.557,12.14a7.2,7.2,0,1,0,7.2,7.2,7.193,7.193,0,0,0-7.2-7.2m0,13.472a6.279,6.279,0,1,1,6.275-6.275,6.276,6.276,0,0,1-6.275,6.275" transform="translate(-79.69 -6.392)" fill="#ef9d30"/>
          <path id="Trazado_1007747" data-name="Trazado 1007747" d="M166.636,23.389a2.365,2.365,0,0,1-.613,1.689,2.968,2.968,0,0,1-1.675.848v.83h-1.777v-.83a2.956,2.956,0,0,1-1.725-.894,2.538,2.538,0,0,1-.621-1.765h2.27a.713.713,0,0,0,.27.6,1.042,1.042,0,0,0,.665.212,1.131,1.131,0,0,0,.636-.174.537.537,0,0,0,.264-.47.543.543,0,0,0-.044-.221.447.447,0,0,0-.151-.177q-.108-.079-.2-.134a1.422,1.422,0,0,0-.294-.116c-.134-.041-.238-.071-.313-.09l-.368-.093-.4-.1q-.137-.035-.395-.116a3.806,3.806,0,0,1-.407-.148c-.1-.045-.222-.106-.368-.183a1.7,1.7,0,0,1-.351-.235,3.241,3.241,0,0,1-.282-.3,1.474,1.474,0,0,1-.235-.371,2.445,2.445,0,0,1-.139-.453,2.642,2.642,0,0,1-.055-.554,2.233,2.233,0,0,1,.566-1.573,2.752,2.752,0,0,1,1.594-.8v-.784h1.777v.8a2.639,2.639,0,0,1,1.565.842,2.439,2.439,0,0,1,.548,1.637l-2.206.006a.613.613,0,0,0-.235-.517.952.952,0,0,0-.6-.18,1.091,1.091,0,0,0-.549.131.41.41,0,0,0-.229.375.423.423,0,0,0,.075.244.7.7,0,0,0,.174.18,1.371,1.371,0,0,0,.311.145c.141.05.26.089.357.116s.244.066.441.116h.006a7.544,7.544,0,0,1,1.487.505,2.1,2.1,0,0,1,1.219,1.928Z" transform="translate(-84.358 -8.942)" fill="#ef9d30"/>
          <rect id="Rectángulo_458555" data-name="Rectángulo 458555" width="26.868" height="13.47" transform="translate(78.998 20.437) rotate(-1.311)" fill="#00b55b"/>
          <path id="Trazado_1007748" data-name="Trazado 1007748" d="M171.421,44.906l20.912-.479,0,.1A1.516,1.516,0,0,0,193.885,46l.1,0,.182,7.95-.1,0a1.516,1.516,0,0,0-1.48,1.549l0,.1-20.912.479,0-.1a1.516,1.516,0,0,0-1.549-1.48l-.1,0-.182-7.95.1,0A1.516,1.516,0,0,0,171.423,45Zm20.724-.279-20.527.47a1.713,1.713,0,0,1-1.573,1.646l.173,7.564a1.712,1.712,0,0,1,1.646,1.573l20.527-.47a1.713,1.713,0,0,1,1.573-1.646l-.173-7.564a1.713,1.713,0,0,1-1.646-1.573" transform="translate(-89.423 -23.39)" fill="#008a3c"/>
          <path id="Trazado_1007749" data-name="Trazado 1007749" d="M191.318,53.015a2.844,2.844,0,0,0,.294.116q.115.038.252.078.259.073.6.146h0q.227.048.338.075t.274.077a1.034,1.034,0,0,1,.24.1.538.538,0,0,1,.137.132.321.321,0,0,1,.064.182.311.311,0,0,1-.163.291.825.825,0,0,1-.412.115.722.722,0,0,1-.456-.119.463.463,0,0,1-.194-.385l-1.672.07a1.952,1.952,0,0,0,.293,1,1.669,1.669,0,0,0,.171.221l.046.048a2.028,2.028,0,0,0,1.164.544l.023.6,1.347-.053-.023-.594a2.817,2.817,0,0,0,.356-.1,2.235,2.235,0,0,0,.217-.09,1.818,1.818,0,0,0,.612-.462,1.7,1.7,0,0,0,.383-1.209c0-.015,0-.029,0-.044a2.1,2.1,0,0,0-.028-.246c-.008-.044-.017-.087-.028-.129a1.8,1.8,0,0,0-.119-.34,1.13,1.13,0,0,0-.189-.275,2.427,2.427,0,0,0-.223-.216,1.278,1.278,0,0,0-.273-.168c-.114-.054-.209-.1-.285-.128a2.918,2.918,0,0,0-.313-.1q-.2-.054-.3-.076l-.3-.063-.282-.06c-.058-.013-.138-.032-.24-.059a1.076,1.076,0,0,1-.226-.08c-.048-.026-.1-.058-.156-.1a.34.34,0,0,1-.12-.13.415.415,0,0,1-.039-.166.408.408,0,0,1,.187-.364.777.777,0,0,1,.217-.107.981.981,0,0,1,.237-.042h.022a.792.792,0,0,1,.51.141.519.519,0,0,1,.128.131.552.552,0,0,1,.087.235c0,.025.006.051.007.077l1.721-.067a1.924,1.924,0,0,0-.523-1.32c-.022-.023-.045-.045-.069-.068a1.991,1.991,0,0,0-.261-.2,2.463,2.463,0,0,0-1-.356l-.024-.629-1.347.053.025.629a2.85,2.85,0,0,0-.49.155,2.221,2.221,0,0,0-.313.162,1.94,1.94,0,0,0-.442.374,1.614,1.614,0,0,0-.293.485,1.715,1.715,0,0,0-.07.224,2.183,2.183,0,0,0-.053.589l0,.062a1.6,1.6,0,0,0,.981,1.425" transform="translate(-100.209 -25.722)" fill="#008a3c"/>
          <path id="Trazado_1007750" data-name="Trazado 1007750" d="M208.153,54.643a1.582,1.582,0,1,1,1.618,1.546,1.582,1.582,0,0,1-1.618-1.546" transform="translate(-109.591 -27.917)" fill="#008a3c"/>
          <path id="Trazado_1007751" data-name="Trazado 1007751" d="M176.215,55.375a1.582,1.582,0,1,1,1.618,1.546,1.582,1.582,0,0,1-1.618-1.546" transform="translate(-92.775 -28.303)" fill="#008a3c"/>
          <path id="Trazado_1007752" data-name="Trazado 1007752" d="M170.435,65.738a6.129,6.129,0,1,1-6.129-6.129,6.129,6.129,0,0,1,6.129,6.129" transform="translate(-83.28 -31.384)" fill="#f1c830"/>
          <path id="Trazado_1007753" data-name="Trazado 1007753" d="M165.194,61.295a5.333,5.333,0,1,0,5.333,5.333,5.33,5.33,0,0,0-5.333-5.333m0,9.982a4.652,4.652,0,1,1,4.649-4.649,4.65,4.65,0,0,1-4.649,4.649" transform="translate(-84.166 -32.271)" fill="#ef9d30"/>
          <path id="Trazado_1007754" data-name="Trazado 1007754" d="M171.179,69.629a1.752,1.752,0,0,1-.454,1.252,2.2,2.2,0,0,1-1.241.628v.616h-1.316v-.616a2.188,2.188,0,0,1-1.278-.662,1.88,1.88,0,0,1-.461-1.308h1.682a.529.529,0,0,0,.2.441.772.772,0,0,0,.493.157.834.834,0,0,0,.471-.129.4.4,0,0,0,.2-.348.4.4,0,0,0-.032-.164.332.332,0,0,0-.112-.131c-.053-.039-.1-.072-.149-.1a1.057,1.057,0,0,0-.217-.086q-.148-.045-.232-.067l-.273-.069-.295-.073c-.067-.018-.165-.046-.293-.086a2.924,2.924,0,0,1-.3-.109q-.11-.05-.273-.136a1.227,1.227,0,0,1-.26-.174,2.457,2.457,0,0,1-.209-.219,1.107,1.107,0,0,1-.174-.276,1.788,1.788,0,0,1-.1-.335,1.986,1.986,0,0,1-.041-.411,1.654,1.654,0,0,1,.42-1.166,2.042,2.042,0,0,1,1.181-.594v-.581h1.316v.59a1.953,1.953,0,0,1,1.16.624,1.806,1.806,0,0,1,.406,1.213l-1.635,0a.454.454,0,0,0-.174-.383.708.708,0,0,0-.441-.133.809.809,0,0,0-.406.1.3.3,0,0,0-.17.277.313.313,0,0,0,.056.181.531.531,0,0,0,.129.133.977.977,0,0,0,.231.107q.157.056.264.086c.072.02.181.049.327.086h0a5.628,5.628,0,0,1,1.1.374,1.559,1.559,0,0,1,.9,1.429Z" transform="translate(-87.624 -34.161)" fill="#ef9d30"/>
          <path id="Trazado_1007755" data-name="Trazado 1007755" d="M144.1,95.052l-.667,1.834s-2.5-2.891-5-2.724-2.391,3.058-2.391,4.614v31.577h-1.668v-31.3c0-2.946.389-6.171,3.558-6.56s6.171,2.557,6.171,2.557" transform="translate(-70.745 -48.679)" fill="#fff"/>
          <rect id="Rectángulo_458556" data-name="Rectángulo 458556" width="1.668" height="2.564" transform="translate(63.626 79.11)" fill="#293254"/>
          <rect id="Rectángulo_458557" data-name="Rectángulo 458557" width="5.939" height="2.551" transform="translate(61.809 80.197)" fill="#fff"/>
          <rect id="Rectángulo_458558" data-name="Rectángulo 458558" width="5.939" height="1.537" transform="translate(61.809 81.211)" fill="#293254"/>
          <rect id="Rectángulo_458559" data-name="Rectángulo 458559" width="17.467" height="2.447" transform="translate(56.16 82.096)" fill="#fff"/>
          <path id="Trazado_1007756" data-name="Trazado 1007756" d="M159.443,113.456a6.274,6.274,0,0,0,4.89-.587c2.608-1.435,2.478-5.934,2.478-5.934Z" transform="translate(-83.946 -56.301)" fill="#ef9d30"/>
          <path id="Trazado_1007757" data-name="Trazado 1007757" d="M151.633,94.7l-3.419,3.288,1.4,2.255s-1.842,6.357,1.47,9.669c6.257-5.153,13.618-11.041,13.618-11.041s-2.87-4.711-10.82-2.8a14.188,14.188,0,0,0-2.249-1.374" transform="translate(-78.034 -49.86)" fill="#293254"/>
          <path id="Trazado_1007758" data-name="Trazado 1007758" d="M96.2,257.743H92.961l6.59-75.812h4.4Z" transform="translate(-48.943 -95.785)" fill="#293254"/>
          <path id="Trazado_1007759" data-name="Trazado 1007759" d="M186.633,257.743h3.235l-6.59-75.812h-4.4Z" transform="translate(-94.177 -95.785)" fill="#293254"/>
          <path id="Trazado_1007760" data-name="Trazado 1007760" d="M238.069,251.159s3.771,38.508,4.676,43.032h-3.167l-5.315-42.881Z" transform="translate(-123.338 -132.233)" fill="#ebf0fe"/>
          <path id="Trazado_1007761" data-name="Trazado 1007761" d="M178.523,251.31l-.464,3.742-4.851,39.14h-3.167c.727-3.638,3.308-29.242,4.291-39.14.24-2.413.384-3.892.384-3.892Z" transform="translate(-89.525 -132.233)" fill="#ebf0fe"/>
          <path id="Trazado_1007762" data-name="Trazado 1007762" d="M179.488,251.159l3.806.151-.464,3.742H179.1c.24-2.413.384-3.892.384-3.892" transform="translate(-94.297 -132.233)" fill="#c1d1f4"/>
          <path id="Trazado_1007763" data-name="Trazado 1007763" d="M309.295,294.192h-3.168l-4.85-39.14-.464-3.742,3.806-.151s.145,1.479.384,3.892c.984,9.9,3.564,35.5,4.291,39.14" transform="translate(-158.376 -132.234)" fill="#ebf0fe"/>
          <path id="Trazado_1007764" data-name="Trazado 1007764" d="M305,255.051h-3.727l-.464-3.742,3.806-.151s.144,1.479.384,3.892" transform="translate(-158.376 -132.233)" fill="#c1d1f4"/>
          <path id="Trazado_1007765" data-name="Trazado 1007765" d="M279.515,112.4H244.146l-1.718,24.343,35.941.286s1.575-21.622,1.145-24.629" transform="translate(-127.637 -59.178)" fill="#ef9d30"/>
          <path id="Trazado_1007766" data-name="Trazado 1007766" d="M181.374,236.916s-1-11.781,5.981-11.781H235.2c3.172,0,7.612,7.34,5.709,12.687-22.655,0-59.539-.906-59.539-.906" transform="translate(-95.466 -118.532)" fill="#ef9d30"/>
          <path id="Trazado_1007767" data-name="Trazado 1007767" d="M241.482,248.294l-.438,2.609h-62.3v-2.609Z" transform="translate(-94.106 -130.725)" fill="#ebf0fe"/>
          <path id="Trazado_1007768" data-name="Trazado 1007768" d="M314.193,110.412l-6.368,64.535-.438,2.609h-2.218l-.416-.07.427-2.539,6.423-64.791a1.3,1.3,0,1,1,2.591.256" transform="translate(-160.45 -57.378)" fill="#ebf0fe"/>
          <path id="Trazado_1007769" data-name="Trazado 1007769" d="M188.387,200.091v10.345l-9.441,4.412-5.722,2.674-4.341.238-16.349.9,8.219,47.331s-20.831-5.1-21.965-6.519c-.4-.5-.394-1.858-.22-3.409.519-4.641-.574-9.178-1.641-13.724-2.423-10.313-4.67-25.3-4.005-29.624,1.513-9.829,8.4-10.212,15.645-11.2s39.821-1.842,39.821-1.417" transform="translate(-69.92 -105.288)" fill="#4e8afb"/>
          <path id="Trazado_1007770" data-name="Trazado 1007770" d="M151.3,321.913c-1.64,6.207-15.046,6.957-15.046,6.957a21.434,21.434,0,0,1-2.971.111c-4.2.035-11.379-.041-11.379-.041a8.358,8.358,0,0,1,3.748-4.8,64.546,64.546,0,0,0,10.306-6.559c1.524-1.355,6.924-1.359,11.2.821a10.872,10.872,0,0,1,4.141,3.512" transform="translate(-64.18 -166.712)" fill="#363e66"/>
          <path id="Trazado_1007771" data-name="Trazado 1007771" d="M163.949,323.863c-1.64,6.207-15.046,6.957-15.046,6.957a21.431,21.431,0,0,1-2.971.111c.76-2.966,3.669-6.289,7.976-7.614a17.381,17.381,0,0,0,5.9-2.966,10.872,10.872,0,0,1,4.141,3.512" transform="translate(-76.832 -168.662)" fill="#293254"/>
          <path id="Trazado_1007772" data-name="Trazado 1007772" d="M219.064,220.949l-5.722,2.674L209,223.86c3.581-9.614,9.114-12.293,9.114-12.293Z" transform="translate(-110.037 -111.388)" fill="#363e66"/>
          <path id="Trazado_1007773" data-name="Trazado 1007773" d="M232.217,211.862c-.014.087-.029.175-.044.262,0,.026-.009.052-.014.077q-.023.129-.049.256c-.582,2.9-2.025,5.587-5.2,6.564a47.144,47.144,0,0,1-8.763,1.9,17.974,17.974,0,0,1-3.488.116l-.067.189L197.911,268.49s-18.3-8.374-19.849-9.615a3.044,3.044,0,0,1-.465-4.342c.93-1.085,8.064-5.737,8.064-5.737s9.924-35.822,12.871-40.164,11.01-3.722,11.01-3.722l.62-2.946,14.478.532.331.012h.021l.331.012,5.929.218.611.279a26.517,26.517,0,0,1,.354,8.844" transform="translate(-93.134 -106.332)" fill="#4e8afb"/>
          <path id="Trazado_1007774" data-name="Trazado 1007774" d="M180.979,306.612l-2.316,1.973a7.674,7.674,0,0,0-1.8,1.829,2.578,2.578,0,0,0,1.069,3.547c.3.153.5-.331.2-.483a2.053,2.053,0,0,1-1.045-1.411,2.1,2.1,0,0,1,.536-1.821,14.18,14.18,0,0,1,1.7-1.539l1.978-1.686c.255-.217-.067-.628-.324-.41" transform="translate(-92.942 -161.396)" fill="#363e66"/>
          <path id="Trazado_1007775" data-name="Trazado 1007775" d="M285.668,212.333c-.014.087-.029.175-.044.262,0,.026-.009.052-.014.077a13.594,13.594,0,0,1-1.326-.821,14.62,14.62,0,0,1-4.343-4.844,14.05,14.05,0,0,1-1.5-4.027l-.024-.122.331.012c.008.041.017.081.025.122q.132.635.328,1.255a14.331,14.331,0,0,0,3.242,5.5,13.7,13.7,0,0,0,3.324,2.589" transform="translate(-146.586 -106.803)" fill="#363e66"/>
          <path id="Trazado_1007776" data-name="Trazado 1007776" d="M195.625,128.427c-.813,1.544-4.4,5.255-6.593,7.446-1.01,1.011-1.72,1.7-1.72,1.7s-6.888-5.7-12.469-10.688c8.55-13.419,12.584-14.443,14.248-14.656,4.495-.575,6.411,5.543,6.87,10.488.244,2.629.076,4.928-.337,5.711" transform="translate(-92.054 -59.067)" fill="#d41d46"/>
          <path id="Trazado_1007777" data-name="Trazado 1007777" d="M210.747,137.445c-.813,1.544-4.4,5.255-6.593,7.446a29.175,29.175,0,0,1,.961-15.573s2.814,1.122,5.968,2.416c.244,2.629.076,4.928-.337,5.711" transform="translate(-107.176 -68.085)" fill="#363e66"/>
          <path id="Trazado_1007778" data-name="Trazado 1007778" d="M207.485,72.615s-1.282-1.687-2.618-1.386c-2.053.462-1.027,5.6,2.464,6.827a7.267,7.267,0,0,0,.154-5.441" transform="translate(-107.308 -37.483)" fill="#e58563"/>
          <path id="Trazado_1007779" data-name="Trazado 1007779" d="M206.1,61.746a7.893,7.893,0,0,1-2.331-4.273,7.564,7.564,0,0,1,1.166-4.489,12.887,12.887,0,0,0-2.676,1.122c-.168-.217.518-2.331,3.65-3.25,1.818-2.187,4.076-3.829,9.428-3.311s11,3.446,11.732,7.461.4,8.2-5.656,14.141a99.541,99.541,0,0,0-15.313-7.4" transform="translate(-106.476 -24.981)" fill="#363e66"/>
          <path id="Trazado_1007780" data-name="Trazado 1007780" d="M239.895,96.874s-2.69,5.218-11.628,5.218-9.574-4.8-9.574-4.8a25.753,25.753,0,0,0,3.884-1.309.7.7,0,0,0,.234-.185c.954-1.147-.714-5.676-.714-5.676l7.956-3.236,1.852-.753a27.744,27.744,0,0,0,.8,5.321,7.042,7.042,0,0,0,5.315,5.012c1.215.27,1.871.41,1.871.41" transform="translate(-115.14 -45.347)" fill="#e58563"/>
          <path id="Trazado_1007781" data-name="Trazado 1007781" d="M230.906,85.767a9.882,9.882,0,0,1-3.568,7.1,11.417,11.417,0,0,1-3.674,1.813c.954-1.147-.714-5.675-.714-5.675Z" transform="translate(-117.382 -45.156)" fill="#363e66"/>
          <path id="Trazado_1007782" data-name="Trazado 1007782" d="M225.511,73.076a7.113,7.113,0,0,1-4.809,5.388,13.879,13.879,0,0,1-6.688.971c-.073-.01-.146-.016-.219-.026a2.879,2.879,0,0,1-2.078-1.728c-1.357-2.538-1.577-7.158-1.665-9.252a36.54,36.54,0,0,1,.59-6.735,6.541,6.541,0,0,0,3.112,2.381c1.686.366,3.206.245,4.647.736s2.422,2.182,4.318,2.224a3.618,3.618,0,0,0,2.052,2.261s1.279.778.742,3.78" transform="translate(-110.582 -32.481)" fill="#f7a784"/>
          <path id="Trazado_1007783" data-name="Trazado 1007783" d="M215.882,97.207c-.073-.01-.146-.016-.219-.026a2.881,2.881,0,0,1-2.078-1.728c.736-.016,2.564-.016,2.872.433s.042.987-.574,1.321" transform="translate(-112.451 -50.253)" fill="#363e66"/>
          <path id="Trazado_1007784" data-name="Trazado 1007784" d="M240.51,74.8s.513-4.415,3.131-3.9.667,6.16-.77,7.033-2.1-.873-2.1-.873Z" transform="translate(-126.627 -37.305)" fill="#f7a784"/>
          <path id="Trazado_1007785" data-name="Trazado 1007785" d="M232.418,88.212c-.842,2.466-3.345,3.738-5.7,4.393-.775.215-1.563.384-2.349.554-.293.063-.23.527.065.464,2.67-.574,5.545-1.243,7.386-3.432a5.652,5.652,0,0,0,1.029-1.8c.1-.284-.336-.463-.433-.178" transform="translate(-118.03 -46.367)" fill="#363e66"/>
          <path id="Trazado_1007786" data-name="Trazado 1007786" d="M243.683,72.627a5.6,5.6,0,0,0-1.81,3.045c-.045.2.277.244.322.042a5.242,5.242,0,0,1,1.689-2.832c.158-.136-.042-.391-.2-.254" transform="translate(-127.342 -38.217)" fill="#363e66"/>
          <path id="Trazado_1007787" data-name="Trazado 1007787" d="M243.546,80.023a1.289,1.289,0,0,0-1.517-1.186c-.205.036-.161.357.045.321a.954.954,0,1,1,.143,1.886c-.207-.009-.25.312-.042.322a1.292,1.292,0,0,0,1.37-1.342" transform="translate(-127.357 -41.497)" fill="#363e66"/>
          <path id="Trazado_1007788" data-name="Trazado 1007788" d="M246.987,73.62a1.546,1.546,0,0,0-1.133-1.278c-.206-.036-.247.286-.042.322a1.259,1.259,0,0,1,.874,1.108,1.818,1.818,0,0,1-.349,1.387.162.162,0,0,0,.259.2,2.142,2.142,0,0,0,.391-1.734" transform="translate(-129.347 -38.086)" fill="#363e66"/>
          <path id="Trazado_1007789" data-name="Trazado 1007789" d="M210.976,106.091s2.035,3.67,7.854,3.988,8.051-2.312,9.725-4.544c5.341.16,10.6,1.993,11.957,3.906s5.58,42.807,5.58,42.807-38.742.24-38.982,0a4.457,4.457,0,0,1-2.073-2.471c-.479-1.674,3.348-4.544,3.348-4.544S204.8,119.327,204.48,116.7s-1.037-6.537-.08-7.972,6.575-2.633,6.575-2.633" transform="translate(-107.363 -55.564)" fill="#d41d46"/>
          <path id="Trazado_1007790" data-name="Trazado 1007790" d="M185.5,96.373c-.579,1.415-5.08.836-5.08.836,1.865,1.286.385,2.315.385,2.315s.965.772-.257,2.443c.644,3.73-1.479,3.087-4.115,2.573a4.18,4.18,0,0,1-2.572,2.186l-3.794,14.468,5.53,5.659s-5.916,6.109-7.716,7.459c-.092.068-.186.136-.282.2a12.512,12.512,0,0,1-6.534,2.239c-2.251,0-6.43-2.122-5.852-6.623s11.125-22.763,13.053-25.85,5.144-8.037,6.817-8.552a22.033,22.033,0,0,1,7.009-.193c1.95.226,3.536-.064,3.408.836" transform="translate(-81.691 -50.204)" fill="#f7a784"/>
          <path id="Trazado_1007791" data-name="Trazado 1007791" d="M189.43,155.583s-5.916,6.109-7.716,7.459c-.091.069-.186.137-.282.2l1.14-6.152,1.328-7.169,1.727,1.768Z" transform="translate(-95.523 -78.934)" fill="#e58563"/>
          <path id="Trazado_1007792" data-name="Trazado 1007792" d="M282.062,156.029s-5.529,4.052-16.609,1.845c3.712-4.53,16.761-1.8,16.761-1.8" transform="translate(-139.759 -81.741)" fill="#363e66"/>
          <path id="Trazado_1007793" data-name="Trazado 1007793" d="M203.054,154.252a15.148,15.148,0,0,0-4.456.576,10.4,10.4,0,0,0-4.552,3.808,13.874,13.874,0,0,0-.131,4.289c.219.831,1.751-.525,2.057-1.138s7.082-7.535,7.082-7.535" transform="translate(-102.035 -81.211)" fill="#e58563"/>
          <path id="Trazado_1007794" data-name="Trazado 1007794" d="M200.042,145.917s-8.272,11.525-8.573,12a25.888,25.888,0,0,0-1.049,2.985,11.9,11.9,0,0,0,2.514-1.942c1.088-1.078,8.518-11.608,8.7-11.943s-.164-1.761-1.6-1.1" transform="translate(-100.255 -76.733)" fill="#4e8afb"/>
          <path id="Trazado_1007795" data-name="Trazado 1007795" d="M235.511,176.39c-7.9-.588-18.2-7.567-22.349-10.607a8.207,8.207,0,0,0-3.812-1.52,7.2,7.2,0,0,1-3.474-1.152,8.723,8.723,0,0,1-2.464,1.232c-1.113.052-1.253-.632-1.253-.632a2.36,2.36,0,0,1-1.2.47,1.8,1.8,0,0,1-1.134-.47s-.1.419-.994.419-1.1-.267-1.1-.267a2.029,2.029,0,0,1-1.369,0c-.685-.273.684-4.311.89-5.338s2.288-2.63,3.657-3.451a11.556,11.556,0,0,1,3.393-1.545c1.505.273,4.859,3.627,8.966,5.406s18.5,4.129,18.5,4.129-.112-1.2-.257-2.83c-.142-1.576-.315-3.549-.45-5.2,5.475-3.558,12.319-1.642,12.319-1.642s.107,2.792.312,6.145,1.947,17.6-8.182,16.851" transform="translate(-103.283 -80.49)" fill="#f7a784"/>
          <path id="Trazado_1007796" data-name="Trazado 1007796" d="M277.95,174.27a16.243,16.243,0,0,0-6.886-3.023s-.111-1.2-.257-2.83c2.347.764,5.655,2.414,7.143,5.853" transform="translate(-142.578 -88.67)" fill="#363e66"/>
          <path id="Trazado_1007797" data-name="Trazado 1007797" d="M202.711,161.8a13.669,13.669,0,0,0-3.391,6.708c-.039.206.283.246.322.042a13.361,13.361,0,0,1,3.328-6.555c.142-.153-.118-.347-.259-.2" transform="translate(-104.939 -85.157)" fill="#363e66"/>
          <path id="Trazado_1007798" data-name="Trazado 1007798" d="M207.083,164.869A19.267,19.267,0,0,0,203.467,170c-.091.188.21.31.3.123a18.809,18.809,0,0,1,3.517-5c.144-.147-.054-.4-.2-.254" transform="translate(-107.115 -86.779)" fill="#363e66"/>
          <path id="Trazado_1007799" data-name="Trazado 1007799" d="M211.7,168.237l-3.26,3.491c-.143.152.117.346.259.2l3.26-3.491c.142-.152-.118-.346-.259-.2" transform="translate(-109.722 -88.547)" fill="#363e66"/>
          <path id="Trazado_1007800" data-name="Trazado 1007800" d="M218.12,171.15l-1.87,1.34c-.169.122.031.376.2.254l1.87-1.34c.17-.121-.031-.376-.2-.254" transform="translate(-113.82 -90.093)" fill="#363e66"/>
          <path id="Trazado_1007801" data-name="Trazado 1007801" d="M270.283,110.2c-2.368-.878-5.439,3.691-5.73,8.45s.388,15.443.388,15.443,8.547-3.5,16.609-1.845c-1.845-13.5-5.245-19.814-11.267-22.048" transform="translate(-139.246 -57.963)" fill="#d41d46"/>
          <path id="Trazado_1007802" data-name="Trazado 1007802" d="M264.875,129.434c.009-1.144.008-2.289.075-3.431a16.073,16.073,0,0,1,.628-3.819c.062-.2-.238-.322-.3-.123a23.387,23.387,0,0,0-.721,6.793q-.028,3.624-.057,7.247l-.033,4.126c0,.079.045.182.14.182h.238c.206,0,.25-.322.042-.322h-.1l.055-7.029q.015-1.812.029-3.623" transform="translate(-139.24 -64.211)" fill="#363e66"/>
          <path id="Trazado_1007803" data-name="Trazado 1007803" d="M262.432,131.593a7.721,7.721,0,0,1-1.941-3.815c-.039-.2-.36-.16-.321.045a8.026,8.026,0,0,0,2.007,3.971c.141.152.4-.048.254-.2" transform="translate(-136.976 -67.204)" fill="#363e66"/>
          <path id="Trazado_1007804" data-name="Trazado 1007804" d="M186.9,151.692a18.37,18.37,0,0,1-3.056,5.4l1.329-7.17Z" transform="translate(-96.79 -78.934)" fill="#363e66"/>
          <path id="Trazado_1007805" data-name="Trazado 1007805" d="M203.209,98.792l-2.438-.049c-.373-.007-.746-.007-1.118-.025a1.286,1.286,0,0,1-.879-.278c-.145-.146-.4.053-.255.2.507.51,1.337.405,1.995.419l2.653.053c.206,0,.25-.317.042-.322" transform="translate(-104.496 -51.801)" fill="#363e66"/>
          <path id="Trazado_1007806" data-name="Trazado 1007806" d="M204.252,103.8c-.478-.508-1.25-.4-1.88-.387l-2.613.055c-.208,0-.161.325.045.321l2.331-.05c.348-.007.7-.029,1.046-.015A1.144,1.144,0,0,1,204,104c.142.151.4-.048.254-.2" transform="translate(-105.1 -54.436)" fill="#363e66"/>
          <path id="Trazado_1007807" data-name="Trazado 1007807" d="M204.421,108.333c-.214-.68-1.072-.717-1.66-.755a10.112,10.112,0,0,0-2.266.112.162.162,0,0,0,.045.321,9.7,9.7,0,0,1,1.97-.122,6.47,6.47,0,0,1,.951.091.774.774,0,0,1,.661.482c.062.2.359.069.3-.129" transform="translate(-105.489 -56.629)" fill="#363e66"/>
          <path id="Trazado_1007808" data-name="Trazado 1007808" d="M196.56,112.117a4.617,4.617,0,0,1-3.852,3.395.162.162,0,0,0,.045.321,4.948,4.948,0,0,0,4.128-3.674c.05-.2-.272-.242-.322-.042" transform="translate(-101.389 -58.959)" fill="#363e66"/>
          <path id="Trazado_1007809" data-name="Trazado 1007809" d="M202.753,112.1l-1.436.037c-.208.006-.161.327.045.322l1.436-.037c.208-.006.161-.326-.045-.322" transform="translate(-105.921 -59.021)" fill="#363e66"/>
          <path id="Trazado_1007810" data-name="Trazado 1007810" d="M203.283,112.958a.7.7,0,0,1-.241-.518.168.168,0,0,0-.14-.181.163.163,0,0,0-.181.14,1.055,1.055,0,0,0,.367.818c.157.137.351-.122.2-.259" transform="translate(-106.731 -59.103)" fill="#363e66"/>
          <path id="Trazado_1007811" data-name="Trazado 1007811" d="M184.913,328.829c.134.316-32.707,0-32.707,0s1.761-3.955,4.335-5.174a69.474,69.474,0,0,0,10.7-6.638c2.439-2.032,13.935,3.034,17.669,11.813" transform="translate(-80.135 -166.672)" fill="#363e66"/>
          <path id="Trazado_1007812" data-name="Trazado 1007812" d="M260.137,233.582a17.974,17.974,0,0,1-3.488.116l2.867-7.686a23.083,23.083,0,0,1,.621,7.569" transform="translate(-135.124 -118.994)" fill="#363e66"/>
          <path id="Trazado_1007813" data-name="Trazado 1007813" d="M172.529,233.583l-2-8.839-.572-2.526c-.056-.247-.448-.194-.392.055l2,8.839q.286,1.263.572,2.525c.056.247.448.194.392-.055" transform="translate(-89.271 -116.912)" fill="#363e66"/>
          <path id="Trazado_1007814" data-name="Trazado 1007814" d="M208.408,169.291s12.582.852,16.754,2.166,5.254,3.554,5.254,3.554l-20.089-.541Z" transform="translate(-109.725 -89.13)" fill="#c1d1f4"/>
          <path id="Trazado_1007815" data-name="Trazado 1007815" d="M166.565,173.445s.916-3.749,7.7-4.059c3.773-.173,5.3,1.848,5.3,1.848s2.211-2.034,6.81-1.946,10.349,4.688,10.349,4.688Z" transform="translate(-87.695 -89.127)" fill="#ebf0fe"/>
          <path id="Trazado_1007816" data-name="Trazado 1007816" d="M257.5,257.743H254.26l6.59-75.812h4.4Z" transform="translate(-133.866 -95.785)" fill="#293254"/>
          <path id="Trazado_1007817" data-name="Trazado 1007817" d="M347.932,257.743h3.235l-6.59-75.812h-4.4Z" transform="translate(-179.1 -95.785)" fill="#293254"/>
          <rect id="Rectángulo_458560" data-name="Rectángulo 458560" width="132.253" height="3.109" transform="translate(40.004 83.993)" fill="#293254"/>
          <path id="Trazado_1007818" data-name="Trazado 1007818" d="M321.337,236.137c2.768,12.35,9.453,25.416,9.453,25.416s.105-.5.257-1.408a92.016,92.016,0,0,0,.83-22.412c-1.169-13.07-11.14-24.124-11.179-24.167h0a58.958,58.958,0,0,0,.639,22.571" transform="translate(-168.433 -112.441)" fill="#00b55b"/>
          <path id="Trazado_1007819" data-name="Trazado 1007819" d="M321.337,236.137c2.768,12.35,9.453,25.416,9.453,25.416s.105-.5.257-1.408c-1.325-19.378-10.313-46.471-10.349-46.579h0a58.958,58.958,0,0,0,.639,22.571" transform="translate(-168.433 -112.441)" fill="#008a3c"/>
          <path id="Trazado_1007820" data-name="Trazado 1007820" d="M355.451,210.023c-3.37,16.6-10.689,34.316-10.689,34.316s-.08-.66-.188-1.868a162.857,162.857,0,0,1,.268-29.885c1.807-17.5,12.312-32.66,12.352-32.719h0a105.119,105.119,0,0,1-1.743,30.157" transform="translate(-181.121 -94.698)" fill="#00b55b"/>
          <path id="Trazado_1007821" data-name="Trazado 1007821" d="M356.071,210.023c-3.37,16.6-10.689,34.316-10.689,34.316s-.08-.66-.188-1.868c2.273-25.924,12.579-62.458,12.62-62.6h0a105.12,105.12,0,0,1-1.743,30.157" transform="translate(-181.742 -94.698)" fill="#008a3c"/>
          <path id="Trazado_1007822" data-name="Trazado 1007822" d="M345.712,261.231c5.505-5.4,9.329-7.143,18.811-14.608,11.37-9.251,13.143-20.477,11.524-34.511,0-.009,0-.01-.006,0a28.143,28.143,0,0,1-11.221,18.03c-7.268,5.376-18.892,16.193-19.108,31.09" transform="translate(-182.015 -111.671)" fill="#00b55b"/>
          <path id="Trazado_1007823" data-name="Trazado 1007823" d="M345.712,261.237c4.035-11.842,11.858-14.558,21.305-25.065s9.029-24.054,9.029-24.054l-.006,0a28.143,28.143,0,0,1-11.221,18.03c-7.268,5.376-18.892,16.193-19.108,31.091" transform="translate(-182.015 -111.677)" fill="#008a3c"/>
          <path id="Trazado_1007824" data-name="Trazado 1007824" d="M293.079,240.914c6.456,11.005,12.708,11.106,20.164,23.185.127-8.747-1.939-14.188-4.791-20.257-2.562-5.452-9.714-12.617-13.22-16.862a26.365,26.365,0,0,1-4.817-9.591h0c-.031.105-3.759,12.574,2.665,23.524" transform="translate(-152.32 -114.454)" fill="#00b55b"/>
          <path id="Trazado_1007825" data-name="Trazado 1007825" d="M293.079,240.914c6.456,11.005,12.708,11.106,20.164,23.185-3-12.052-8.173-17.834-16.065-26.516a26.024,26.024,0,0,1-6.764-20.193c-.031.105-3.759,12.574,2.665,23.524" transform="translate(-152.32 -114.454)" fill="#008a3c"/>
          <path id="Trazado_1007826" data-name="Trazado 1007826" d="M327.784,336.825h17.364l-1.708-4.8H329.492Z" transform="translate(-172.576 -174.807)" fill="#af500e"/>
          <path id="Trazado_1007827" data-name="Trazado 1007827" d="M327.883,303.207h16.6a43.857,43.857,0,0,1-4.675,15.081H319.89a43.859,43.859,0,0,1-4.675-15.081Z" transform="translate(-165.958 -159.636)" fill="#c96418"/>
          <path id="Trazado_1007828" data-name="Trazado 1007828" d="M372.274,71.124c1.315,0,2.664,1.4,2.416,5.421a.071.071,0,0,1-.071.067h-8.47a.071.071,0,0,1-.071-.078,5.885,5.885,0,0,1,6.2-5.411" transform="translate(-192.737 -37.446)" fill="#363e66"/>
          <path id="Trazado_1007829" data-name="Trazado 1007829" d="M303.366,139.239c-1.315,0-2.664-1.4-2.416-5.421a.072.072,0,0,1,.071-.067h8.47a.071.071,0,0,1,.071.078,5.884,5.884,0,0,1-6.2,5.41" transform="translate(-158.432 -70.419)" fill="#363e66"/>
          <path id="Trazado_1007830" data-name="Trazado 1007830" d="M313.736,71.2h-.005a4.142,4.142,0,0,0-3.866,4.228v26c-.027.324-.058.626-.094.9-.5,3.812-3.478,3.938-3.674,3.942h-.01l26.953-.071h.005a4.142,4.142,0,0,0,3.866-4.228v-12a.071.071,0,0,0-.067-.071.071.071,0,0,1-.067-.071c-.007-6.353.015-11.966.089-13.208.034-.574.08-1.1.139-1.546.5-3.812,3.478-3.938,3.674-3.942h.01Z" transform="translate(-161.152 -37.447)" fill="#4e8afb"/>
          <path id="Trazado_1007831" data-name="Trazado 1007831" d="M341.686,106.24H320.181c-.456,0-.408.706.045.706h21.505c.456,0,.407-.706-.045-.706" transform="translate(-168.405 -55.935)" fill="#363e66"/>
          <path id="Trazado_1007832" data-name="Trazado 1007832" d="M341.979,116.789H320.474c-.456,0-.408.706.045.706h21.505c.456,0,.408-.706-.045-.706" transform="translate(-168.559 -61.489)" fill="#363e66"/>
          <path id="Trazado_1007833" data-name="Trazado 1007833" d="M340.807,128.217H319.3c-.456,0-.408.706.045.706h21.505c.456,0,.407-.706-.045-.706" transform="translate(-167.942 -67.505)" fill="#363e66"/>
          <path id="Trazado_1007834" data-name="Trazado 1007834" d="M276.026,77.314a4.191,4.191,0,1,1-4.2-4.181,4.19,4.19,0,0,1,4.2,4.181" transform="translate(-140.913 -38.504)" fill="#4e8afb"/>
          <path id="Trazado_1007835" data-name="Trazado 1007835" d="M108.918,108.269a3.025,3.025,0,1,1-3.032-3.019,3.025,3.025,0,0,1,3.032,3.019" transform="translate(-54.159 -55.413)" fill="#ef9d30"/>
          <path id="Trazado_1007836" data-name="Trazado 1007836" d="M421.709,284.252a4.561,4.561,0,1,1-4.572-4.551,4.561,4.561,0,0,1,4.572,4.551" transform="translate(-217.223 -147.26)" fill="#ef9d30"/>
          <path id="Trazado_1007837" data-name="Trazado 1007837" d="M399.539,306.21a2.651,2.651,0,1,1-2.657-2.645,2.651,2.651,0,0,1,2.657,2.645" transform="translate(-207.563 -159.825)" fill="#00b55b"/>
          <path id="Trazado_1007838" data-name="Trazado 1007838" d="M76.889,195.366a6.843,6.843,0,0,0-7.716-.537,6.627,6.627,0,0,0-1.232.969q-.185-.288-.394-.56a6.619,6.619,0,0,0-3.408-2.349,5.118,5.118,0,0,0-3.973.408,4.673,4.673,0,0,0-2.242,3,3.89,3.89,0,0,0-.075.946.257.257,0,0,0,.289.217.261.261,0,0,0,.217-.288,3.84,3.84,0,0,1,1.409-2.969,4.363,4.363,0,0,1,3.337-1,5.87,5.87,0,0,1,3.4,1.63,6.89,6.89,0,0,1,1.077,1.351,7.139,7.139,0,0,0-1.015,1.548,5.085,5.085,0,0,0-.474,3.645,2.1,2.1,0,0,0,.994,1.29,1.423,1.423,0,0,0,1.525-.2,2.394,2.394,0,0,0,.711-1.439,5.1,5.1,0,0,0-.069-1.8,9.866,9.866,0,0,0-1.043-2.975,6.356,6.356,0,0,1,.663-.6,6.24,6.24,0,0,1,7.706.12c.256.207.563-.2.307-.408m-8.4,2.85a8.525,8.525,0,0,1,.374,1.868,3.207,3.207,0,0,1-.206,1.45,1.1,1.1,0,0,1-.879.755,1.062,1.062,0,0,1-1-.609,3.785,3.785,0,0,1,.009-3.162,6.493,6.493,0,0,1,1.062-1.86,9.092,9.092,0,0,1,.635,1.558" transform="translate(-30.456 -101.439)" fill="#293254"/>
          <path id="Trazado_1007839" data-name="Trazado 1007839" d="M389.634,183.543a10.322,10.322,0,0,1-7.744,4.558,10.111,10.111,0,0,1-4.7-.8,7.767,7.767,0,0,0-.05-4.981,4.353,4.353,0,0,0-1.5-2.113,2.8,2.8,0,0,0-2.4-.413,2.163,2.163,0,0,0-1.457,1.63,3.658,3.658,0,0,0,.32,2.2,6.388,6.388,0,0,0,1.369,1.925,10.724,10.724,0,0,0,2.049,1.618q.42.254.86.472a7.446,7.446,0,0,1-1.4,2.244,7.3,7.3,0,0,1-8.308,1.532,6.588,6.588,0,0,1-.965-.55c-.344-.236-.735.281-.39.518a8.015,8.015,0,0,0,9.371-.338,7.847,7.847,0,0,0,2.285-3.136,10.685,10.685,0,0,0,12.457-3,10.242,10.242,0,0,0,.725-.97c.229-.347-.287-.739-.518-.39m-16.188,1.014a4.727,4.727,0,0,1-.958-1.778,2.177,2.177,0,0,1,.158-1.788,1.693,1.693,0,0,1,1.775-.625,2.692,2.692,0,0,1,1.717,1.337,6.5,6.5,0,0,1,.693,4.3,7.509,7.509,0,0,1-.236,1.015,9.979,9.979,0,0,1-3.149-2.465" transform="translate(-192.264 -94.598)" fill="#293254"/>
          <path id="Trazado_1007840" data-name="Trazado 1007840" d="M205.812,342.088H28.969c-.347,0-.274-.536.069-.536H205.882c.347,0,.274.536-.07.536" transform="translate(-15.132 -179.825)" fill="#293254"/>
          <path id="Trazado_1007841" data-name="Trazado 1007841" d="M98.211,282.659a10.788,10.788,0,0,0-1.376-4.628,6.1,6.1,0,0,0-3.4-2.687,7.811,7.811,0,0,0-5.879.631,19.467,19.467,0,0,0-.455-4.837,13.534,13.534,0,0,0-2.152-5.009,7.892,7.892,0,0,0-4.288-3.066,8.662,8.662,0,0,0-5.146.3,9.857,9.857,0,0,0-4.344,3.132,13.039,13.039,0,0,0-2.411,5.1,18.476,18.476,0,0,0-.294,6.558,5.389,5.389,0,0,0-4.812,1.763,8.538,8.538,0,0,0-2.078,5.5A19.062,19.062,0,0,0,64.228,295.8a21.008,21.008,0,0,0,3.285,4.287q.271.273.554.536h.809q-.3-.261-.59-.536a20.1,20.1,0,0,1-2.07-2.289,19.669,19.669,0,0,1-3.932-9.121c-.5-3.44-.127-7.989,3.473-9.65a4.4,4.4,0,0,1,2.526-.364c.087.013.172.03.258.048a38.86,38.86,0,0,0,1.271,5.564c.311,1.053.618,2.118,1,3.147a4.2,4.2,0,0,0,1.722,2.306,2.2,2.2,0,0,0,2.511-.1,2.751,2.751,0,0,0,.868-2.3,8.011,8.011,0,0,0-1.1-2.975,24.638,24.638,0,0,0-1.582-2.758,7.993,7.993,0,0,0-4.221-3.322,19.649,19.649,0,0,1-.092-4.37c.343-3.517,1.847-7.133,4.906-9.115a8.987,8.987,0,0,1,4.707-1.456,6.981,6.981,0,0,1,4.572,1.595,10.079,10.079,0,0,1,2.866,4.282,17.361,17.361,0,0,1,1.035,5.28c.028.6.027,1.2,0,1.8a7.8,7.8,0,0,0-1.483,1.208,11.549,11.549,0,0,0-2.741,8.9q.046.584.139,1.162a.273.273,0,0,0,.483.125,20.172,20.172,0,0,0,4.1-10.726q.013-.176.024-.353a7.541,7.541,0,0,1,4.96-.936,5.576,5.576,0,0,1,3.454,2.022,8.771,8.771,0,0,1,1.637,4.23,21.67,21.67,0,0,1,.1,4.876,26.257,26.257,0,0,1-4.926,13.292q-.184.253-.375.5l-.027.035h.677q.2-.265.389-.536a26.649,26.649,0,0,0,3.616-7.275,25.761,25.761,0,0,0,1.179-10.157m-27.453-2.916a12.743,12.743,0,0,1,3.5,4.7,8.522,8.522,0,0,1,1.112,2.819,2.152,2.152,0,0,1-.83,2.072,1.914,1.914,0,0,1-2.264-.468,6.05,6.05,0,0,1-1.26-2.529,47.949,47.949,0,0,1-1.92-7.474,6.168,6.168,0,0,1,1.664.877m13.709,5.379a18.536,18.536,0,0,1-1.1,1.71,11.592,11.592,0,0,1,1.846-8.119,7.71,7.71,0,0,1,1.749-1.741,19.86,19.86,0,0,1-2.5,8.15" transform="translate(-32.408 -138.363)" fill="#293254"/>
          <path id="Trazado_1007842" data-name="Trazado 1007842" d="M272.545,313.7a7.126,7.126,0,0,1,1.187,1.444,2.885,2.885,0,0,1,.724,1.606c-.024.464-.35.915-.864.768a2.688,2.688,0,0,1-1.261-1.189,13.889,13.889,0,0,1-1.678-3.287,2.558,2.558,0,0,1,1.892.658m4.4-3.384a8.764,8.764,0,0,1-.214,1.741,7.065,7.065,0,0,1-.238.828c-.066.183-.179.481-.387.547-.4.126-.393-.672-.386-.883a12.208,12.208,0,0,1,.178-2,3.929,3.929,0,0,1,.92-1.907,8.683,8.683,0,0,1,.127,1.675m5.222,4.067a20.9,20.9,0,0,0-.187-2.215,11.354,11.354,0,0,0-.458-2.1,3.767,3.767,0,0,0-2.69-2.653,2.438,2.438,0,0,0-1.671.295,9.166,9.166,0,0,0-1.236-2.733,4.864,4.864,0,0,0-3.058-2.285,2.537,2.537,0,0,0-1.738.363,3.2,3.2,0,0,0-1.071,1.215,7.9,7.9,0,0,0-.759,3.518,14.854,14.854,0,0,0,.665,4.893,2.031,2.031,0,0,0-.581.41,2.8,2.8,0,0,0-.76,1.741,6.261,6.261,0,0,0,.313,2.232,12.324,12.324,0,0,0,.688,1.833,12.919,12.919,0,0,0,1.3,2.181q.2.273.419.536h.713q-.232-.261-.449-.536a12.287,12.287,0,0,1-2.037-3.787c-.368-1.124-.747-2.579.027-3.62a1.575,1.575,0,0,1,.542-.469,14.483,14.483,0,0,0,1.094,2.39,10.239,10.239,0,0,0,1.138,1.683,1.831,1.831,0,0,0,1.681.781,1.32,1.32,0,0,0,.944-1.308,3.37,3.37,0,0,0-.786-1.863c-.736-1.092-1.656-2.261-3.07-2.4a2.346,2.346,0,0,0-.658.029,14.429,14.429,0,0,1-.6-3.027,12.381,12.381,0,0,1,.156-3.538,3.694,3.694,0,0,1,1.407-2.461,2.55,2.55,0,0,1,2.978.566,7.255,7.255,0,0,1,1.92,2.875,8.794,8.794,0,0,1,.35,1.107,3.688,3.688,0,0,0-.839,1.027,5.408,5.408,0,0,0-.584,2.029c-.042.372-.062.747-.075,1.121a4.054,4.054,0,0,0,.022.9,1.172,1.172,0,0,0,.352.693.746.746,0,0,0,.774.107c.565-.249.727-1.009.866-1.544a9.127,9.127,0,0,0,.143-3.814c-.018-.1-.038-.209-.06-.313a2.206,2.206,0,0,1,.558-.258,2.556,2.556,0,0,1,2.762,1.367,9.01,9.01,0,0,1,.934,3.73,20.74,20.74,0,0,1-.773,7.947c0,.015-.009.029-.014.043-.054.179-.111.358-.17.536h.566c.057-.178.112-.357.164-.536a21.508,21.508,0,0,0,.85-6.694" transform="translate(-141.422 -159.35)" fill="#293254"/>
        </g>
      </g>
      <text id="BILL" transform="translate(154.278 44.695)" fill="#fff" font-size="6" font-family="SegoeUI, Segoe UI"><tspan x="0" y="0">BILL</tspan></text>
    </g>
  </g>
</svg>
