<svg xmlns="http://www.w3.org/2000/svg" xmlns:xlink="http://www.w3.org/1999/xlink" width="292" height="139" viewBox="0 0 292 139">
  <defs>
    <clipPath id="clip-path">
      <rect id="Rectángulo_458563" data-name="Rectángulo 458563" width="164.639" height="130.816" fill="none"/>
    </clipPath>
  </defs>
  <g id="Grupo_1183135" data-name="Grupo 1183135" transform="translate(-186.41 -4590)">
    <rect id="Rectángulo_458092" data-name="Rectángulo 458092" width="292" height="139" rx="10" transform="translate(186.41 4590)" fill="#cfa9e6"/>
    <g id="Grupo_1183134" data-name="Grupo 1183134" transform="translate(249.41 4598.184)">
      <g id="Grupo_1183133" data-name="Grupo 1183133" clip-path="url(#clip-path)">
        <path id="Trazado_1007843" data-name="Trazado 1007843" d="M10.68,174.175H163.27c1.634-1.8,1.275-5,.1-7.306-1.337-2.612-3.439-4.973-3.732-7.892-.48-4.8,4.043-8.671,4.868-13.419.767-4.41-1.843-8.8-5.231-11.721s-7.536-4.8-11.271-7.271-7.241-5.837-8.186-10.213c-1.613-7.471,4.6-15.726,1.028-22.481-2.045-3.862-6.56-5.586-10.7-7-3.743-1.277-7.678-2.134-10.767-4.575-3.37-2.663-6.119-6.078-9.323-8.931-6.9-6.146-19.126-7.189-27.334-3.175-4.981,2.435-9.154,6.214-13.346,9.842S60.8,87.253,55.6,89.186c-5.876,2.186-12.31,2.09-18.53,2.877s-12.8,2.8-16.506,7.858c-4.1,5.6-3.545,13.2-3.086,20.126s.314,14.738-4.625,19.611c-1.939,1.913-4.437,3.153-6.537,4.887a18.029,18.029,0,0,0-5.29,19.633,17.961,17.961,0,0,0,9.655,10" transform="translate(0 -43.36)" fill="#ebf0fe"/>
        <path id="Trazado_1007844" data-name="Trazado 1007844" d="M60.332,209.55H188.249a15.037,15.037,0,0,0-2.147-13.522c-2.265-2.92-5.751-5.213-6.439-8.844-.635-3.35,1.392-6.789.722-10.132-.794-3.964-4.961-6.215-8.8-7.489s-8.124-2.333-10.524-5.586c-3.681-4.988-1.115-12.693-4.735-17.726-3.759-5.225-11.938-4.717-16.84-8.889-4.066-3.46-5.253-9.632-9.7-12.594-3.771-2.515-8.96-1.916-12.917.295-10.28,5.741-14.8,19.37-26.553,23.134-4.634,1.485-9.645.805-14.5,1.117s-10.223,2.112-12.256,6.533c-3.006,6.537,3,14.392.683,21.2-1.1,3.237-3.876,5.565-5.855,8.353a19.311,19.311,0,0,0-1.616,19.156,18.439,18.439,0,0,0,3.556,4.988" transform="translate(-35.145 -78.736)" fill="#c1d1f4"/>
        <path id="Trazado_1007845" data-name="Trazado 1007845" d="M255.159,211.694H209.645a6.278,6.278,0,0,1-6.277-6.278V132.826a6.278,6.278,0,0,1,6.277-6.278h45.513a6.278,6.278,0,0,1,6.278,6.278v72.591a6.278,6.278,0,0,1-6.278,6.278" transform="translate(-130.045 -80.922)" fill="#4e8afb"/>
        <path id="Trazado_1007846" data-name="Trazado 1007846" d="M263.255,163.662H223.743a3.022,3.022,0,0,1-3.022-3.022V147.05a3.022,3.022,0,0,1,3.022-3.022h39.512a3.022,3.022,0,0,1,3.022,3.022v13.59a3.022,3.022,0,0,1-3.022,3.022" transform="translate(-141.141 -92.099)" fill="#fff"/>
        <path id="Trazado_1007847" data-name="Trazado 1007847" d="M227.414,220.581h-4.769a2.075,2.075,0,0,1-2.075-2.075v-4.55a2.075,2.075,0,0,1,2.075-2.075h4.769a2.076,2.076,0,0,1,2.075,2.075v4.55a2.076,2.076,0,0,1-2.075,2.075" transform="translate(-141.044 -135.488)" fill="#363e66"/>
        <path id="Trazado_1007848" data-name="Trazado 1007848" d="M261.23,220.581h-4.769a2.076,2.076,0,0,1-2.075-2.075v-4.55a2.076,2.076,0,0,1,2.075-2.075h4.769a2.075,2.075,0,0,1,2.075,2.075v4.55a2.075,2.075,0,0,1-2.075,2.075" transform="translate(-162.668 -135.488)" fill="#363e66"/>
        <path id="Trazado_1007849" data-name="Trazado 1007849" d="M295.048,220.581h-4.769a2.075,2.075,0,0,1-2.075-2.075v-4.55a2.075,2.075,0,0,1,2.075-2.075h4.769a2.075,2.075,0,0,1,2.075,2.075v4.55a2.075,2.075,0,0,1-2.075,2.075" transform="translate(-184.293 -135.488)" fill="#363e66"/>
        <path id="Trazado_1007850" data-name="Trazado 1007850" d="M328.864,220.581H324.1a2.075,2.075,0,0,1-2.075-2.075v-4.55a2.075,2.075,0,0,1,2.075-2.075h4.769a2.075,2.075,0,0,1,2.075,2.075v4.55a2.075,2.075,0,0,1-2.075,2.075" transform="translate(-205.917 -135.488)" fill="#fff"/>
        <path id="Trazado_1007851" data-name="Trazado 1007851" d="M227.414,253.8h-4.769a2.075,2.075,0,0,1-2.075-2.075v-4.55a2.075,2.075,0,0,1,2.075-2.075h4.769a2.076,2.076,0,0,1,2.075,2.075v4.55a2.076,2.076,0,0,1-2.075,2.075" transform="translate(-141.044 -156.728)" fill="#363e66"/>
        <path id="Trazado_1007852" data-name="Trazado 1007852" d="M261.23,253.8h-4.769a2.076,2.076,0,0,1-2.075-2.075v-4.55a2.076,2.076,0,0,1,2.075-2.075h4.769a2.075,2.075,0,0,1,2.075,2.075v4.55a2.075,2.075,0,0,1-2.075,2.075" transform="translate(-162.668 -156.728)" fill="#363e66"/>
        <path id="Trazado_1007853" data-name="Trazado 1007853" d="M295.048,253.8h-4.769a2.075,2.075,0,0,1-2.075-2.075v-4.55a2.075,2.075,0,0,1,2.075-2.075h4.769a2.075,2.075,0,0,1,2.075,2.075v4.55a2.075,2.075,0,0,1-2.075,2.075" transform="translate(-184.293 -156.728)" fill="#363e66"/>
        <path id="Trazado_1007854" data-name="Trazado 1007854" d="M328.864,253.8H324.1a2.075,2.075,0,0,1-2.075-2.075v-4.55A2.075,2.075,0,0,1,324.1,245.1h4.769a2.075,2.075,0,0,1,2.075,2.075v4.55a2.075,2.075,0,0,1-2.075,2.075" transform="translate(-205.917 -156.728)" fill="#fff"/>
        <path id="Trazado_1007855" data-name="Trazado 1007855" d="M227.414,287.012h-4.769a2.075,2.075,0,0,1-2.075-2.075v-4.55a2.075,2.075,0,0,1,2.075-2.075h4.769a2.075,2.075,0,0,1,2.075,2.075v4.55a2.076,2.076,0,0,1-2.075,2.075" transform="translate(-141.044 -177.968)" fill="#363e66"/>
        <path id="Trazado_1007856" data-name="Trazado 1007856" d="M261.23,287.012h-4.769a2.076,2.076,0,0,1-2.075-2.075v-4.55a2.075,2.075,0,0,1,2.075-2.075h4.769a2.075,2.075,0,0,1,2.075,2.075v4.55a2.075,2.075,0,0,1-2.075,2.075" transform="translate(-162.668 -177.968)" fill="#363e66"/>
        <path id="Trazado_1007857" data-name="Trazado 1007857" d="M295.048,287.012h-4.769a2.075,2.075,0,0,1-2.075-2.075v-4.55a2.075,2.075,0,0,1,2.075-2.075h4.769a2.075,2.075,0,0,1,2.075,2.075v4.55a2.075,2.075,0,0,1-2.075,2.075" transform="translate(-184.293 -177.968)" fill="#363e66"/>
        <path id="Trazado_1007858" data-name="Trazado 1007858" d="M328.864,299.085H324.1a2.075,2.075,0,0,1-2.075-2.075V280.386a2.075,2.075,0,0,1,2.075-2.075h4.769a2.075,2.075,0,0,1,2.075,2.075V297.01a2.075,2.075,0,0,1-2.075,2.075" transform="translate(-205.917 -177.967)" fill="#fff"/>
        <path id="Trazado_1007859" data-name="Trazado 1007859" d="M227.414,320.227h-4.769a2.075,2.075,0,0,1-2.075-2.075V313.6a2.075,2.075,0,0,1,2.075-2.075h4.769a2.076,2.076,0,0,1,2.075,2.075v4.55a2.075,2.075,0,0,1-2.075,2.075" transform="translate(-141.044 -199.207)" fill="#363e66"/>
        <path id="Trazado_1007860" data-name="Trazado 1007860" d="M261.23,320.227h-4.769a2.075,2.075,0,0,1-2.075-2.075V313.6a2.076,2.076,0,0,1,2.075-2.075h4.769a2.075,2.075,0,0,1,2.075,2.075v4.55a2.075,2.075,0,0,1-2.075,2.075" transform="translate(-162.668 -199.207)" fill="#cf5516"/>
        <path id="Trazado_1007861" data-name="Trazado 1007861" d="M295.048,320.227h-4.769a2.075,2.075,0,0,1-2.075-2.075V313.6a2.075,2.075,0,0,1,2.075-2.075h4.769a2.075,2.075,0,0,1,2.075,2.075v4.55a2.075,2.075,0,0,1-2.075,2.075" transform="translate(-184.293 -199.207)" fill="#cf5516"/>
        <path id="Trazado_1007862" data-name="Trazado 1007862" d="M231.159,217.383v4.649h-1.567v-3.466h-.8v-1.182Z" transform="translate(-146.304 -139.006)" fill="#fff"/>
        <path id="Trazado_1007863" data-name="Trazado 1007863" d="M265.919,220.628v1.215h-3.726v-.963l1.68-1.554c.319-.3.365-.478.365-.637,0-.226-.153-.365-.452-.365a.76.76,0,0,0-.684.432l-1.182-.591a2.132,2.132,0,0,1,2.012-1.076c1.1,0,1.879.571,1.879,1.454a1.831,1.831,0,0,1-.8,1.481l-.664.6Z" transform="translate(-167.487 -138.819)" fill="#fff"/>
        <path id="Trazado_1007864" data-name="Trazado 1007864" d="M231.331,254.266h-.618v.8h-1.521v-.8h-2.411v-1l1.972-2.856h1.607l-1.753,2.636h.631v-.71h1.474v.71h.618Z" transform="translate(-145.017 -160.128)" fill="#fff"/>
        <path id="Trazado_1007865" data-name="Trazado 1007865" d="M231.362,283.445v.963l-1.547,3.686H228.1l1.474-3.433h-.9v.677h-1.3v-1.892Z" transform="translate(-145.402 -181.25)" fill="#fff"/>
        <path id="Trazado_1007866" data-name="Trazado 1007866" d="M265.512,287.59c0,.9-.857,1.488-2.085,1.488s-2.085-.584-2.085-1.488a1.215,1.215,0,0,1,.624-1.069,1.133,1.133,0,0,1-.458-.917c0-.843.79-1.388,1.919-1.388s1.92.545,1.92,1.388a1.133,1.133,0,0,1-.458.917,1.215,1.215,0,0,1,.624,1.069m-1.574-.053a.512.512,0,1,0-.512.485.471.471,0,0,0,.512-.485m-.883-1.866a.373.373,0,1,0,.372-.4.363.363,0,0,0-.372.4" transform="translate(-167.116 -181.743)" fill="#fff"/>
        <path id="Trazado_1007867" data-name="Trazado 1007867" d="M299.529,286.5a2.4,2.4,0,0,1-2.577,2.577,2.728,2.728,0,0,1-1.441-.365l.565-1.1a1.383,1.383,0,0,0,.843.246.943.943,0,0,0,1.01-.79,1.537,1.537,0,0,1-.923.259,1.506,1.506,0,0,1-1.594-1.487,1.7,1.7,0,0,1,1.886-1.627,2.065,2.065,0,0,1,2.231,2.284m-1.647-.73a.478.478,0,0,0-.956,0,.478.478,0,0,0,.956,0" transform="translate(-188.903 -181.743)" fill="#fff"/>
        <path id="Trazado_1007868" data-name="Trazado 1007868" d="M227.532,319.251a2.127,2.127,0,1,1,2.105,2.43,2.134,2.134,0,0,1-2.105-2.43m2.636,0c0-.9-.226-1.175-.531-1.175s-.531.279-.531,1.175.226,1.175.531,1.175.531-.279.531-1.175" transform="translate(-145.496 -202.593)" fill="#fff"/>
        <path id="Trazado_1007869" data-name="Trazado 1007869" d="M265.281,321.241h-1.1V322.3h-1.2v-1.062h-1.1v-1.129h1.1V319.05h1.2v1.063h1.1Z" transform="translate(-167.469 -204.018)" fill="#fff"/>
        <path id="Trazado_1007870" data-name="Trazado 1007870" d="M330.983,223.195l-.5-.777-.558.777H328.3l1.374-1.8-1.335-1.833h1.694l.518.77.544-.77h1.574l-1.335,1.766,1.368,1.866Z" transform="translate(-209.933 -140.4)" fill="#363e66"/>
        <path id="Trazado_1007871" data-name="Trazado 1007871" d="M331.987,253.046a.877.877,0,0,1,1.753,0,.877.877,0,0,1-1.753,0m0,2.052a.877.877,0,0,1,1.753,0,.877.877,0,0,1-1.753,0" transform="translate(-212.291 -161.268)" fill="#363e66"/>
        <path id="Trazado_1007872" data-name="Trazado 1007872" d="M329.706,302.341h3.387v1.129h-3.387Zm0,1.727h3.387V305.2h-3.387Z" transform="translate(-210.832 -193.333)" fill="#363e66"/>
        <rect id="Rectángulo_458562" data-name="Rectángulo 458562" width="1.992" height="1.129" transform="translate(107.266 116.346)" fill="#fff"/>
        <path id="Trazado_1007873" data-name="Trazado 1007873" d="M264.718,253.535c0,.83-.637,1.634-2.125,1.634a3.947,3.947,0,0,1-1.833-.418l.531-1.156a2.518,2.518,0,0,0,1.242.339c.352,0,.611-.126.611-.365,0-.2-.14-.332-.7-.332h-1.348l.233-2.822h3.088V251.6h-1.8l-.033.458h.239c1.375,0,1.9.657,1.9,1.481" transform="translate(-166.744 -160.128)" fill="#fff"/>
        <path id="Trazado_1007874" data-name="Trazado 1007874" d="M298.99,253.353a1.7,1.7,0,0,1-1.886,1.627,2.065,2.065,0,0,1-2.231-2.284,2.4,2.4,0,0,1,2.576-2.577,2.727,2.727,0,0,1,1.441.365l-.564,1.1a1.386,1.386,0,0,0-.844-.246.943.943,0,0,0-1.009.79,1.535,1.535,0,0,1,.923-.259,1.506,1.506,0,0,1,1.594,1.488m-1.514.073a.478.478,0,0,0-.956,0,.478.478,0,0,0,.956,0" transform="translate(-188.558 -159.94)" fill="#fff"/>
        <path id="Trazado_1007875" data-name="Trazado 1007875" d="M299.251,220.543c0,.8-.637,1.594-2.125,1.594a3.942,3.942,0,0,1-1.833-.419l.531-1.156a2.543,2.543,0,0,0,1.248.339c.352,0,.6-.12.6-.359,0-.2-.153-.319-.551-.319h-.618v-.963l.684-.7h-1.66v-1.182H299v.963l-.863.877a1.32,1.32,0,0,1,1.116,1.321" transform="translate(-188.826 -139.006)" fill="#fff"/>
        <path id="Trazado_1007876" data-name="Trazado 1007876" d="M256.561,131.148a4.949,4.949,0,0,1,4.95,4.95v70.535a4.95,4.95,0,0,1-4.95,4.95H213.269a4.95,4.95,0,0,1-4.95-4.95V136.1a4.949,4.949,0,0,1,4.95-4.95Zm0-1.022H213.269A5.972,5.972,0,0,0,207.3,136.1v70.535a5.971,5.971,0,0,0,5.971,5.971h43.291a5.971,5.971,0,0,0,5.971-5.971V136.1a5.972,5.972,0,0,0-5.971-5.972" transform="translate(-132.558 -83.21)" fill="#363e66"/>
        <path id="Trazado_1007877" data-name="Trazado 1007877" d="M228.334,16.428a15.829,15.829,0,0,0-1.777-.176q-.688-.035-1.494-.035-1.525,0-3.472.122l-.024.008q-1.309.085-1.957.112t-1.613,0a5.788,5.788,0,0,1-1.462-.181,3,3,0,0,1-.95-.5,1.81,1.81,0,0,1-.632-.9,1.761,1.761,0,0,1,.439-1.834,4.684,4.684,0,0,1,2.068-1.263,4.085,4.085,0,0,1,2.67-.056,2.628,2.628,0,0,1,1.647,1.8l9.005-2.955a11.043,11.043,0,0,0-3.144-5.021,9.286,9.286,0,0,0-1.273-.939q-.162-.1-.328-.193a11.487,11.487,0,0,0-7.182-1.167L217.8,0,210.54,2.36l1.042,3.2a16.275,16.275,0,0,0-1.78,1.1q-.555.4-1.043.827a10.311,10.311,0,0,0-2.623,3.46,9.594,9.594,0,0,0-.222,7.18q.038.118.079.235a11.746,11.746,0,0,0,.531,1.294q.166.344.352.663a10.3,10.3,0,0,0,1.171,1.665A6.326,6.326,0,0,0,209.5,23.2a14.075,14.075,0,0,0,1.544.835,7.249,7.249,0,0,0,1.748.494q1.055.182,1.749.257a16.359,16.359,0,0,0,1.857.065q1.163-.011,1.767-.05t1.756-.125q1.129-.078,1.63-.111t1.4-.049a6.111,6.111,0,0,1,1.352.085q.453.1,1,.279a1.912,1.912,0,0,1,.852.523,2.4,2.4,0,0,1,.017,3.115,4.345,4.345,0,0,1-1.02.923,5.514,5.514,0,0,1-1.229.594l-.117.039a4.481,4.481,0,0,1-3,.018,2.959,2.959,0,0,1-.9-.518,3.13,3.13,0,0,1-.835-1.145,4.207,4.207,0,0,1-.156-.409l-9.274,3.016a10.909,10.909,0,0,0,4.883,6.385q.237.137.479.261a10.922,10.922,0,0,0,1.738.708,13.924,13.924,0,0,0,6.015.393l1.1,3.392,7.258-2.36-1.1-3.392a16.253,16.253,0,0,0,2.428-1.6,12.793,12.793,0,0,0,1.458-1.366,11.024,11.024,0,0,0,1.83-2.72,9.185,9.185,0,0,0,.848-3.1,9.819,9.819,0,0,0,.032-1.331,12.316,12.316,0,0,0-.622-3.289l-.108-.332a9.036,9.036,0,0,0-7.542-6.255" transform="translate(-131.298)" fill="#f1c830"/>
        <path id="Trazado_1007878" data-name="Trazado 1007878" d="M248.27,84.093c-1.758.283-3.49.746-5.273.86h-.017c-.05,0-.1.005-.15.007q-.168.006-.336.008-.312,0-.623-.012t-.641-.054c-.208-.025-.412-.072-.619-.1l-.024-.005-.151-.036-.1-.026a5.629,5.629,0,0,0,2.043-4.142,4.825,4.825,0,0,0-.082-.741,5.5,5.5,0,0,1-1.229.593.418.418,0,0,0,.008.092c0,.013,0,.025,0,.037a3.809,3.809,0,0,1-.033.555c-.006.046-.013.092-.021.137,0,.01,0,.02-.005.03-.026.088-.043.18-.069.267a4.2,4.2,0,0,1-.209.541l-.012.026c-.022.043-.045.086-.068.128q-.077.14-.163.275c-.107.168-.223.331-.346.487-.028.035-.149.228-.191.232l.047-.053L240,83.21l-.057.064q-.058.064-.117.127a10.275,10.275,0,0,1-.843.791c-.1-.06-.2-.123-.3-.189a5.606,5.606,0,0,1-.461-.348l-.017-.014-.093-.085c-.067-.063-.133-.128-.2-.195a5.083,5.083,0,0,1-.371-.432q-.07-.093-.137-.189l-.01-.017c-.027-.044-.054-.088-.08-.132a4.243,4.243,0,0,1-.249-.5c-.032-.075-.057-.153-.087-.229-.015-.049-.028-.1-.041-.147a3.619,3.619,0,0,1-.1-.544c0-.028,0-.056-.006-.084v-.036q0-.144.007-.288.008-.109.024-.216c0-.024.009-.048.013-.072l.005-.022a2.894,2.894,0,0,1,.138-.41c.009-.021.018-.041.027-.061a3.131,3.131,0,0,1-.835-1.145c-.068.1-.131.2-.189.3a3.725,3.725,0,0,0-.469,2.256,4.735,4.735,0,0,0,.95,2.32,5.793,5.793,0,0,0,1.378,1.326h0q-.282.2-.57.4l-.14.094-.045.031q-.156.1-.313.2-.588.375-1.2.716a24.841,24.841,0,0,1-2.552,1.244q-.455.19-.918.363a10.921,10.921,0,0,0,1.738.708q.586-.254,1.159-.536a24.79,24.79,0,0,0,2.532-1.44c.539-.35,1.072-.715,1.585-1.1a7.853,7.853,0,0,0,1.749.457,16.085,16.085,0,0,0,5.389-.386c.941-.184,1.881-.38,2.833-.506.151-.02.3-.038.454-.054a12.856,12.856,0,0,0,1.458-1.366,15.54,15.54,0,0,0-2.778.226" transform="translate(-148.449 -50.415)" fill="#ef9d30"/>
        <path id="Trazado_1007879" data-name="Trazado 1007879" d="M229.958,105.219c.036-.017.04-.036-.042.015h0a.207.207,0,0,1,.041-.014" transform="translate(-147.021 -67.271)" fill="#fff"/>
        <path id="Trazado_1007880" data-name="Trazado 1007880" d="M262.253,59.261l0,.008-.023-.073,0,.014.016.051" transform="translate(-167.686 -37.853)" fill="#fff"/>
        <path id="Trazado_1007881" data-name="Trazado 1007881" d="M269.352,55.195q-.391.047-.784.073l-.045,0H268.5l-.2.008c-.131,0-.262.006-.393.006a11.991,11.991,0,0,1-1.538-.092c-.212-.027-.423-.061-.632-.1l-.117-.026.074.018c-.045-.011-.09-.019-.134-.029q-.17-.038-.339-.082a10.472,10.472,0,0,1-1.24-.406q-.307-.122-.606-.264l-.053-.025-.125-.064q-.146-.076-.29-.157a9.294,9.294,0,0,1-1.093-.722q-.122-.094-.241-.192l-.093-.079.007.007-.018-.017-.02-.017-.026-.024-.009-.008q-.234-.211-.451-.44a9.3,9.3,0,0,1-.749-.925c-.018-.025-.049-.069-.061-.088q-.044-.069-.085-.138-.084-.139-.162-.282-.155-.283-.282-.581-.056-.131-.106-.266c-.014-.037-.026-.073-.039-.11l.012.037c0-.015-.009-.031-.014-.045l-.009-.025c-.01-.029-.022-.073-.012-.04q-.086-.284-.145-.575c-.041-.2-.071-.4-.093-.6-.01-.088-.017-.178-.023-.267,0-.006,0-.013,0-.02,0-.056,0-.113,0-.169a6.908,6.908,0,0,1,.087-1.2c.008-.05.017-.1.026-.15,0-.018.011-.052.017-.079l-.015.06c.025-.1.044-.2.07-.3q.076-.293.178-.578c.068-.188.144-.374.229-.555l.028-.06.005-.01.034-.062q.074-.139.155-.274t.165-.258q-.688-.035-1.495-.035a6.8,6.8,0,0,0-.528,1.373,7.319,7.319,0,0,0,.551,5.292,9.134,9.134,0,0,0,4.122,3.833,11.7,11.7,0,0,0,5.862,1.084,14.9,14.9,0,0,0,1.5-.164,9.816,9.816,0,0,0,.032-1.331q-.429.076-.862.129" transform="translate(-164.905 -28.762)" fill="#ef9d30"/>
        <path id="Trazado_1007882" data-name="Trazado 1007882" d="M267.729,67.3c-.08-.076-.077-.07-.057-.05l.046.041.011.009" transform="translate(-171.156 -42.993)" fill="#fff"/>
        <path id="Trazado_1007883" data-name="Trazado 1007883" d="M261.879,50.6h0" transform="translate(-167.46 -32.358)" fill="#fff"/>
        <path id="Trazado_1007884" data-name="Trazado 1007884" d="M211.412,18.875q-.211-.2-.432-.386a13.257,13.257,0,0,0-1.043.827l.142.113c.038.031.076.062.113.094l.039.035-.018-.018c.072.068.148.132.22.2q.226.214.434.444t.387.46q.095.122.185.248l.083.119,0,.006.01.015a7.144,7.144,0,0,1,.58,1.09c.036.085.07.171.1.258.013.034.025.067.037.1a.22.22,0,0,1,.016.044c.005.016.009.031.014.046l0,0,0,0q.08.257.14.521.063.28.1.565.021.147.035.294c0,.046.009.093.012.139,0,.023,0,.046,0,.069.007.1.007.008,0-.037a1.585,1.585,0,0,1,.007.268q0,.157,0,.314c-.006.2-.02.394-.042.589s-.05.376-.086.562l0,.01c-.011.051-.023.1-.035.152q-.035.143-.076.284a7.732,7.732,0,0,1-.392,1.026l-.025.052-.065.121c-.05.09-.1.178-.155.266q-.153.248-.33.479-.083.109-.171.214l-.006.007-.1.108a5.533,5.533,0,0,1-.423.4c-.144.124-.3.237-.45.347l-.005,0c-.039.025-.079.05-.119.074-.089.054-.181.106-.273.155a5.816,5.816,0,0,1-.538.251c-.087.035-.173.068-.261.1l-.041.013-.125.037a6.22,6.22,0,0,1-1.152.214l-.138.011h-.008q-.149.006-.3,0h-.1a11.744,11.744,0,0,0,.532,1.294,6.918,6.918,0,0,0,.823-.1,6.368,6.368,0,0,0,4.258-2.874,7.666,7.666,0,0,0,1.037-5.037,7.843,7.843,0,0,0-2.408-4.6" transform="translate(-132.476 -11.823)" fill="#ef9d30"/>
        <path id="Trazado_1007885" data-name="Trazado 1007885" d="M221.279,29.6l-.011-.03a.315.315,0,0,0,.031.093v0c-.006-.013-.016-.051-.019-.061" transform="translate(-141.491 -18.906)" fill="#fff"/>
        <path id="Trazado_1007886" data-name="Trazado 1007886" d="M215.674,21.47c.062.059.035.032,0,0" transform="translate(-137.914 -13.729)" fill="#fff"/>
        <path id="Trazado_1007887" data-name="Trazado 1007887" d="M241.261,7.506l.1-.005-.071,0-.106.008-.194.016c-.135.013-.27.027-.4.044q-.405.052-.8.133c-.283.057-.564.127-.842.206q-.252.072-.5.152c-.067.021-.135.042-.2.065l-.045.016-.13.044c-.7.241-1.4.5-2.116.716a9.2,9.2,0,0,1-2.03.405,6.6,6.6,0,0,1-1.983-.153,6.553,6.553,0,0,1-4.806-4.739,6.11,6.11,0,0,1-.15-.955l1.292-.42c0,.075,0,.15.005.224V3.224c0,.01,0,.107.006.14.006.066.013.131.021.2a5.507,5.507,0,0,0,.156.791c.014.052.029.105.045.157l.007.019c.012.034.024.067.037.1q.068.183.15.361a7.167,7.167,0,0,0,.357.649c-.043-.074.052.083.081.124s.077.1.116.157q.114.148.237.288.141.161.293.311.076.075.154.147c.023.021.081.067.1.083l-.014-.01c.2.153.388.31.6.448q.179.116.366.22l.152.081-.018-.008.023.01,0,0,.011.005.006,0,.036.018a5.924,5.924,0,0,0,.745.29q.2.064.411.112l.029.006.032.008h.006l.036.008-.022-.006c.057.01.115.021.172.029a5.353,5.353,0,0,0,.825.062,1.937,1.937,0,0,0,.233,0,.46.46,0,0,1,.049-.008l.089-.007q.247-.022.491-.061a9.717,9.717,0,0,0,1.012-.221q.263-.071.523-.153l.217-.069.1-.032.035-.013c.318-.107.635-.22.952-.331a18.033,18.033,0,0,1,2.74-.771q.166.094.329.193a9.313,9.313,0,0,1,1.273.938l-.22.012" transform="translate(-145.14 -1.946)" fill="#ef9d30"/>
        <path id="Trazado_1007888" data-name="Trazado 1007888" d="M238.521,15.371l.005,0c.039.02.15.064-.005,0" transform="translate(-152.523 -9.829)" fill="#fff"/>
        <path id="Trazado_1007889" data-name="Trazado 1007889" d="M241.98,16.583c-.113-.03-.09-.021-.053-.011l.039.009.014,0" transform="translate(-154.682 -10.591)" fill="#fff"/>
        <path id="Trazado_1007890" data-name="Trazado 1007890" d="M322.9,59.392a8.567,8.567,0,0,0-.612-.746q-.25-.276-.558-.584-.582-.582-1.372-1.279l-.012-.006q-.533-.467-.79-.7t-.616-.616a3.134,3.134,0,0,1-.489-.627,1.618,1.618,0,0,1-.171-.555.977.977,0,0,1,.1-.584.951.951,0,0,1,.868-.533,2.53,2.53,0,0,1,1.272.307,2.2,2.2,0,0,1,1.041,1,1.419,1.419,0,0,1-.058,1.316l4.567,2.31a5.963,5.963,0,0,0,.717-3.118h0a5.028,5.028,0,0,0-.128-.844q-.024-.1-.052-.2a6.2,6.2,0,0,0-2.3-3.188l.837-1.644-3.673-1.87-.825,1.621a8.744,8.744,0,0,0-1.1-.259,7.17,7.17,0,0,0-.714-.083,5.567,5.567,0,0,0-2.323.32,5.181,5.181,0,0,0-2.827,2.657l-.06.12a6.459,6.459,0,0,0-.291.7q-.068.195-.119.388a5.574,5.574,0,0,0-.189,1.083,3.406,3.406,0,0,0,.095,1.016,7.573,7.573,0,0,0,.27.909,3.939,3.939,0,0,0,.479.856q.334.472.57.766a8.738,8.738,0,0,0,.684.734q.448.44.694.656t.718.623q.461.4.664.58t.553.516a3.3,3.3,0,0,1,.484.549q.134.212.274.487a1.031,1.031,0,0,1,.125.525,1.295,1.295,0,0,1-1.183,1.2,2.346,2.346,0,0,1-.742-.037,2.983,2.983,0,0,1-.7-.243l-.06-.03a2.417,2.417,0,0,1-1.151-1.138,1.586,1.586,0,0,1-.147-.542,1.692,1.692,0,0,1,.118-.756q.042-.107.1-.216l-4.693-2.39a5.892,5.892,0,0,0-.573,4.3c.025.095.053.189.083.283a5.9,5.9,0,0,0,.393.934A7.527,7.527,0,0,0,312.23,65.8l-.874,1.716,3.673,1.87.874-1.716a8.755,8.755,0,0,0,1.539.315,6.943,6.943,0,0,0,1.078.035,5.948,5.948,0,0,0,1.738-.34,4.975,4.975,0,0,0,1.506-.858,5.255,5.255,0,0,0,.52-.5,6.65,6.65,0,0,0,1.019-1.494l.085-.168a4.879,4.879,0,0,0-.491-5.268" transform="translate(-197.862 -30.198)" fill="#eebe2c"/>
        <path id="Trazado_1007891" data-name="Trazado 1007891" d="M317.848,90.469c-.78-.563-1.617-1.048-2.342-1.685l-.007-.006c-.019-.019-.04-.037-.06-.055-.044-.041-.088-.083-.131-.125q-.121-.118-.234-.242t-.224-.265c-.07-.089-.13-.185-.2-.274l-.007-.011-.044-.071-.028-.048a3.042,3.042,0,0,0,2.362-.8,2.637,2.637,0,0,0,.252-.314,2.979,2.979,0,0,1-.7-.243.208.208,0,0,0-.032.038l-.014.015a2.061,2.061,0,0,1-.224.2l-.061.045-.014.01c-.043.023-.085.052-.128.075a2.275,2.275,0,0,1-.286.127l-.015.005-.075.023c-.055.016-.111.03-.167.043-.105.023-.212.041-.318.054-.024,0-.143.03-.162.016l.038,0h0l-.047,0-.093,0a5.63,5.63,0,0,1-.624-.02c-.016-.062-.03-.124-.042-.186a3.075,3.075,0,0,1-.043-.309s0-.008,0-.012c0-.023,0-.045,0-.068,0-.05,0-.1,0-.149a2.727,2.727,0,0,1,.023-.307c.006-.041.012-.083.02-.124l0-.01c.006-.027.013-.054.02-.081a2.364,2.364,0,0,1,.095-.285c.017-.041.037-.08.054-.12.013-.024.026-.048.04-.072a1.943,1.943,0,0,1,.171-.245l.029-.035.013-.014c.036-.037.074-.073.113-.107s.06-.05.091-.074l.032-.023.01-.006a1.5,1.5,0,0,1,.209-.1l.034-.013a1.686,1.686,0,0,1,.118-.756c-.063.011-.125.025-.186.041a2.011,2.011,0,0,0-1.041.683,2.555,2.555,0,0,0-.523,1.249,3.131,3.131,0,0,0,.02,1.032h0c-.124-.02-.248-.041-.371-.065l-.089-.017-.029-.006-.2-.042q-.368-.082-.73-.184a13.353,13.353,0,0,1-1.449-.5q-.247-.1-.489-.212a5.913,5.913,0,0,0,.393.934q.321.128.648.238a13.367,13.367,0,0,0,1.517.416c.34.072.683.137,1.027.184a4.225,4.225,0,0,0,.494.843,8.688,8.688,0,0,0,2.205,1.911c.43.289.864.573,1.275.889q.1.075.194.153a6.941,6.941,0,0,0,1.078.035,8.413,8.413,0,0,0-1.147-.974" transform="translate(-198.336 -53.626)" fill="#ef9d30"/>
        <path id="Trazado_1007892" data-name="Trazado 1007892" d="M309.033,88.811c.02.007.029,0-.022-.01h0a.128.128,0,0,1,.021.01" transform="translate(-197.598 -56.784)" fill="#fff"/>
        <path id="Trazado_1007893" data-name="Trazado 1007893" d="M338.9,83.571l0,0,.019-.037,0,.007-.013.026" transform="translate(-216.712 -53.419)" fill="#fff"/>
        <path id="Trazado_1007894" data-name="Trazado 1007894" d="M338.9,85.261q-.167-.131-.327-.271l-.019-.016-.009-.01-.078-.072c-.052-.048-.1-.1-.153-.147a6.5,6.5,0,0,1-.552-.623q-.106-.137-.2-.28c-.008-.012-.028-.044-.035-.055l.021.035c-.013-.021-.027-.042-.04-.062q-.05-.08-.1-.161a5.675,5.675,0,0,1-.319-.628q-.07-.164-.131-.332l-.01-.03-.023-.072q-.027-.084-.051-.171a5.03,5.03,0,0,1-.141-.693c-.007-.055-.013-.11-.019-.165,0-.022,0-.044-.006-.066a.015.015,0,0,1,0,.005v-.013s0-.009,0-.014,0-.013,0-.019v-.006q-.009-.17,0-.341a5.062,5.062,0,0,1,.067-.639c0-.016.008-.045.01-.057l.02-.085c.014-.057.03-.113.046-.169q.049-.168.114-.33c.019-.048.039-.1.061-.142.009-.019.018-.038.027-.057l-.01.019c0-.007.008-.015.012-.023l.006-.013c.007-.014.019-.036.011-.019q.076-.142.164-.275t.194-.266c.03-.037.062-.074.093-.111l.008-.008.063-.066a3.741,3.741,0,0,1,.491-.424l.067-.047.036-.023-.029.017c.047-.028.092-.058.14-.086q.141-.083.288-.153c.1-.046.2-.088.3-.125l.034-.012.006,0,.036-.01c.054-.017.109-.032.164-.045s.107-.025.162-.035q-.25-.276-.558-.584a3.665,3.665,0,0,0-.726.323,3.952,3.952,0,0,0-1.81,2.231,4.933,4.933,0,0,0,.11,3.038,6.321,6.321,0,0,0,1.825,2.653,8.032,8.032,0,0,0,.637.512,5.248,5.248,0,0,0,.52-.5q-.193-.135-.378-.28" transform="translate(-214.852 -49.418)" fill="#ef9d30"/>
        <path id="Trazado_1007895" data-name="Trazado 1007895" d="M337.958,88.731c0-.059,0-.056,0-.041s0,.022,0,.033v.008" transform="translate(-216.107 -56.707)" fill="#fff"/>
        <path id="Trazado_1007896" data-name="Trazado 1007896" d="M342.1,80.124h0" transform="translate(-218.756 -51.236)" fill="#fff"/>
        <path id="Trazado_1007897" data-name="Trazado 1007897" d="M326.5,51.168q0-.157-.018-.313-.364-.06-.714-.083.006.049.011.1c0,.026.005.053.008.079,0,.007,0,.018,0,.028,0,0,0-.009,0-.014,0,.054.006.107.008.16q0,.168,0,.335c-.005.108-.015.216-.028.323-.007.056-.015.111-.024.166,0,.026-.009.052-.014.077v0l0,.009a3.868,3.868,0,0,1-.195.638c-.019.046-.039.092-.059.138l-.025.053a.108.108,0,0,1-.011.023l-.012.023v0c-.045.086-.094.17-.146.252s-.114.172-.176.255c-.032.043-.065.084-.1.125l-.048.058-.025.028c-.035.04,0,.005.014-.014a.883.883,0,0,1-.1.1c-.04.04-.08.08-.121.119q-.116.109-.242.209t-.247.181l0,0-.071.045c-.045.027-.091.054-.137.079a4.226,4.226,0,0,1-.542.242l-.03.01-.071.021q-.08.023-.161.042a3.094,3.094,0,0,1-.309.057c-.049.007-.1.012-.147.017h0l-.079,0a2.977,2.977,0,0,1-.316-.007c-.1-.008-.2-.022-.3-.039h0l-.074-.017c-.055-.013-.11-.028-.164-.045a3.009,3.009,0,0,1-.3-.11c-.046-.019-.092-.04-.137-.062l-.021-.011-.062-.033a3.352,3.352,0,0,1-.522-.358l-.057-.048,0,0q-.059-.055-.116-.112l-.037-.038a6.314,6.314,0,0,0-.291.7,3.653,3.653,0,0,0,.353.276,3.441,3.441,0,0,0,2.724.529,4.142,4.142,0,0,0,2.319-1.528,4.237,4.237,0,0,0,.836-2.675" transform="translate(-204.799 -32.467)" fill="#ef9d30"/>
        <path id="Trazado_1007898" data-name="Trazado 1007898" d="M334.577,56.6l.007-.016a.165.165,0,0,0-.024.047h0c0-.008.013-.026.016-.031" transform="translate(-213.936 -36.181)" fill="#fff"/>
        <path id="Trazado_1007899" data-name="Trazado 1007899" d="M335.58,51.354c0,.046,0,.026,0,0" transform="translate(-214.588 -32.839)" fill="#fff"/>
        <path id="Trazado_1007900" data-name="Trazado 1007900" d="M348.98,56.077l.04.036-.028-.025-.043-.038-.08-.068c-.057-.047-.114-.093-.172-.138q-.174-.135-.358-.256t-.4-.243c-.082-.046-.165-.09-.25-.134-.034-.018-.067-.036-.1-.052l-.023-.011-.066-.033c-.361-.177-.727-.345-1.081-.535a4.938,4.938,0,0,1-.93-.62,3.5,3.5,0,0,1-.725-4.46,3.292,3.292,0,0,1,.308-.422l.654.333-.084.088.017-.017-.052.056-.067.083a3,3,0,0,0-.242.362l-.043.077,0,.01-.025.053c-.03.064-.056.129-.081.2a3.789,3.789,0,0,0-.111.384.794.794,0,0,1-.017.078c-.006.035-.011.07-.015.1q-.013.1-.019.2c-.005.077-.008.154-.007.23,0,.038,0,.077,0,.115,0,.016.005.056.007.07v-.009c.017.134.03.267.058.4.016.075.035.15.056.224.009.03.018.059.027.089l0-.01,0,.013v0l0,.006v0l.007.021a3.172,3.172,0,0,0,.173.395c.036.068.074.134.114.2l.009.014.01.015,0,0,.011.017-.006-.011c.018.026.036.052.054.077a2.956,2.956,0,0,0,.291.339,1.226,1.226,0,0,0,.089.089l.022.016.037.031q.1.086.211.164a5.188,5.188,0,0,0,.471.3q.128.073.258.141l.109.057.051.026.018.009c.163.08.326.159.49.237a9.723,9.723,0,0,1,1.341.752q.028.1.052.2a5.028,5.028,0,0,1,.128.844l-.088-.079" transform="translate(-220.144 -31.383)" fill="#ef9d30"/>
        <path id="Trazado_1007901" data-name="Trazado 1007901" d="M346.634,57.749v0c.007.023.033.082,0,0" transform="translate(-221.657 -36.928)" fill="#fff"/>
        <path id="Trazado_1007902" data-name="Trazado 1007902" d="M347.492,59.533c-.032-.054-.026-.042-.016-.025l.012.018,0,.006" transform="translate(-222.19 -38.043)" fill="#ef9d30"/>
        <path id="Trazado_1007903" data-name="Trazado 1007903" d="M236.266,321.037c-2.212-3.133-10.568,2.826-10.568,2.826s9.831-10.445,5.591-12.9-12.9,9.83-12.9,9.83,2.089-6.881-.983-7.741c-3.032-.849-6.9,8.477-4.993,16.282h18.585c2.172-1.683,7-5.839,5.271-8.294" transform="translate(-135.502 -198.637)" fill="#00b55b"/>
        <path id="Trazado_1007904" data-name="Trazado 1007904" d="M84.11,321.037c2.212-3.133,10.568,2.826,10.568,2.826s-9.831-10.445-5.591-12.9,12.9,9.83,12.9,9.83-2.089-6.881.983-7.741c3.032-.849,6.9,8.477,4.993,16.282H89.381c-2.172-1.683-7-5.839-5.271-8.294" transform="translate(-53.549 -198.637)" fill="#00b55b"/>
        <path id="Trazado_1007905" data-name="Trazado 1007905" d="M122.429,297.036l2.009-1.79c.162-.144.376.115.215.259l-2.009,1.79c-.162.144-.376-.115-.215-.259" transform="translate(-78.251 -188.769)" fill="#353535"/>
        <path id="Trazado_1007906" data-name="Trazado 1007906" d="M123.126,310.172l1.991-1.423c.175-.125.391.133.215.259l-1.991,1.423c-.176.125-.392-.133-.215-.259" transform="translate(-78.692 -197.41)" fill="#353535"/>
        <path id="Trazado_1007907" data-name="Trazado 1007907" d="M124.475,279.535l2.264-1.088a.168.168,0,0,1,.142.3l-2.264,1.088a.168.168,0,0,1-.142-.305" transform="translate(-79.536 -178.043)" fill="#353535"/>
        <path id="Trazado_1007908" data-name="Trazado 1007908" d="M125.144,262.873l2.685-.659c.211-.052.269.28.059.331l-2.685.66c-.211.052-.269-.28-.059-.331" transform="translate(-79.94 -167.67)" fill="#353535"/>
        <path id="Trazado_1007909" data-name="Trazado 1007909" d="M127.566,248.173l1.894-1.668c.163-.143.377.116.215.259l-1.894,1.668c-.163.143-.377-.116-.215-.259" transform="translate(-81.536 -157.602)" fill="#353535"/>
        <path id="Trazado_1007910" data-name="Trazado 1007910" d="M126.2,230.961l2.622-1.953c.173-.129.389.129.215.259l-2.622,1.953c-.173.129-.389-.129-.215-.259" transform="translate(-80.656 -146.417)" fill="#353535"/>
        <path id="Trazado_1007911" data-name="Trazado 1007911" d="M125.253,213.954l2.989-1.681c.189-.106.33.2.142.305l-2.989,1.681c-.189.106-.33-.2-.142-.305" transform="translate(-80.037 -135.725)" fill="#353535"/>
        <path id="Trazado_1007912" data-name="Trazado 1007912" d="M128.378,195.919l1.555-2.133a.168.168,0,0,1,.273.2l-1.555,2.133a.168.168,0,0,1-.273-.2" transform="translate(-82.071 -123.874)" fill="#353535"/>
        <path id="Trazado_1007913" data-name="Trazado 1007913" d="M126.739,179.862l1.74-1.964a.173.173,0,0,1,.235-.039.17.17,0,0,1,.039.235l-1.74,1.964a.173.173,0,0,1-.235.039.169.169,0,0,1-.039-.235" transform="translate(-81.023 -113.713)" fill="#353535"/>
        <path id="Trazado_1007914" data-name="Trazado 1007914" d="M121.837,166.642l1.193-2.412c.095-.192.411-.075.314.119l-1.192,2.412c-.1.192-.411.076-.315-.119" transform="translate(-77.898 -104.955)" fill="#353535"/>
        <path id="Trazado_1007915" data-name="Trazado 1007915" d="M117.271,152l.136,2.883c.01.213-.321.274-.331.059l-.136-2.882c-.01-.214.321-.275.331-.059" transform="translate(-74.777 -97.111)" fill="#353535"/>
        <path id="Trazado_1007916" data-name="Trazado 1007916" d="M105.17,149.212a.169.169,0,0,1,.2.136q.057,1.112.113,2.223a.174.174,0,0,1-.136.2.169.169,0,0,1-.2-.136l-.114-2.223a.174.174,0,0,1,.136-.2" transform="translate(-67.164 -95.413)" fill="#353535"/>
        <path id="Trazado_1007917" data-name="Trazado 1007917" d="M88.754,156.049l2.511,2.7c.148.159-.112.373-.259.215l-2.511-2.7c-.148-.159.112-.373.259-.215" transform="translate(-56.56 -99.751)" fill="#353535"/>
        <path id="Trazado_1007918" data-name="Trazado 1007918" d="M82.426,167.458l2.9,1.383c.194.092.077.408-.119.315l-2.9-1.383c-.194-.093-.077-.408.119-.315" transform="translate(-52.568 -107.07)" fill="#353535"/>
        <path id="Trazado_1007919" data-name="Trazado 1007919" d="M83.091,181.582l2.51.7c.208.058.089.373-.119.315l-2.51-.7c-.208-.058-.089-.373.119-.315" transform="translate(-52.988 -116.109)" fill="#353535"/>
        <path id="Trazado_1007920" data-name="Trazado 1007920" d="M84.692,193.341l1.48-.136a.173.173,0,0,1,.2.136.17.17,0,0,1-.136.2l-1.48.136a.173.173,0,0,1-.2-.136.17.17,0,0,1,.136-.2" transform="translate(-54.068 -123.545)" fill="#353535"/>
        <path id="Trazado_1007921" data-name="Trazado 1007921" d="M83.857,202.371l2.872,1.255c.2.086.08.4-.119.314l-2.872-1.254c-.2-.086-.08-.4.119-.315" transform="translate(-53.482 -129.398)" fill="#353535"/>
        <path id="Trazado_1007922" data-name="Trazado 1007922" d="M84.958,211.489l2.777.914c.206.068.087.383-.119.315l-2.777-.914c-.206-.068-.087-.383.119-.315" transform="translate(-54.183 -135.232)" fill="#353535"/>
        <path id="Trazado_1007923" data-name="Trazado 1007923" d="M85.874,250.717a.169.169,0,0,1,.217-.1l2.393,1.25a.175.175,0,0,1,.1.217.169.169,0,0,1-.217.1l-2.394-1.25a.174.174,0,0,1-.1-.217" transform="translate(-54.906 -160.251)" fill="#353535"/>
        <path id="Trazado_1007924" data-name="Trazado 1007924" d="M86.378,271.565l2.418.332c.214.03.184.365-.031.335l-2.418-.332c-.214-.029-.184-.365.031-.335" transform="translate(-55.122 -173.652)" fill="#353535"/>
        <path id="Trazado_1007925" data-name="Trazado 1007925" d="M87.9,284.166l3.141.234a.168.168,0,0,1-.031.335l-3.141-.234a.168.168,0,0,1,.031-.335" transform="translate(-56.092 -181.711)" fill="#353535"/>
        <path id="Trazado_1007926" data-name="Trazado 1007926" d="M86.517,290.083l3.318,2.766c.165.138-.029.413-.2.274l-3.318-2.766c-.165-.138.029-.413.2-.274" transform="translate(-55.158 -185.471)" fill="#353535"/>
        <path id="Trazado_1007927" data-name="Trazado 1007927" d="M89.336,305.733l2.556,1.053c.2.082.082.4-.119.314l-2.556-1.052c-.2-.082-.082-.4.119-.315" transform="translate(-56.984 -195.493)" fill="#353535"/>
        <path id="Trazado_1007928" data-name="Trazado 1007928" d="M94.474,153.212c5.822.5,7.466,8.357,7.891,20.021s-2.091,40.314-2.091,40.314l-10.685.5s-2.269-45.806-2.671-51.938,2.409-9.341,7.556-8.9" transform="translate(-55.556 -97.946)" fill="#00673b"/>
        <path id="Trazado_1007929" data-name="Trazado 1007929" d="M92.667,173.7a.169.169,0,0,1,.236.031l1.088,1.881a.174.174,0,0,1-.031.236.169.169,0,0,1-.236-.031l-1.088-1.881a.174.174,0,0,1,.031-.236" transform="translate(-59.216 -111.05)" fill="#353535"/>
        <path id="Trazado_1007930" data-name="Trazado 1007930" d="M102.663,179.795a.17.17,0,0,1,.115.209l-.823,1.88a.174.174,0,0,1-.209.114.169.169,0,0,1-.114-.208l.823-1.88a.174.174,0,0,1,.208-.115" transform="translate(-64.982 -114.966)" fill="#353535"/>
        <path id="Trazado_1007931" data-name="Trazado 1007931" d="M108.857,172.935a.169.169,0,0,1,.158.178l-.291,1.542a.174.174,0,0,1-.178.158.169.169,0,0,1-.158-.177l.291-1.542a.174.174,0,0,1,.178-.158" transform="translate(-69.308 -110.584)" fill="#353535"/>
        <path id="Trazado_1007932" data-name="Trazado 1007932" d="M119.255,175.62a.17.17,0,0,1,.118.207l-.7,1.669a.173.173,0,0,1-.207.118.169.169,0,0,1-.118-.207l.7-1.67a.174.174,0,0,1,.207-.118" transform="translate(-75.672 -112.297)" fill="#353535"/>
        <path id="Trazado_1007933" data-name="Trazado 1007933" d="M124.144,187.889a.17.17,0,0,1,.1.216l-.845,1.6a.174.174,0,0,1-.216.1.17.17,0,0,1-.1-.216l.845-1.6a.174.174,0,0,1,.216-.1" transform="translate(-78.697 -120.14)" fill="#353535"/>
        <path id="Trazado_1007934" data-name="Trazado 1007934" d="M114.241,190.3a.169.169,0,0,1,.231.054l.847,1.869a.174.174,0,0,1-.054.232.169.169,0,0,1-.231-.054l-.847-1.869a.174.174,0,0,1,.054-.231" transform="translate(-73.004 -121.674)" fill="#353535"/>
        <path id="Trazado_1007935" data-name="Trazado 1007935" d="M100.01,193.615a.169.169,0,0,1,.11.211l-.612,1.313a.174.174,0,0,1-.211.11.169.169,0,0,1-.109-.211l.612-1.313a.174.174,0,0,1,.211-.11" transform="translate(-63.418 -123.803)" fill="#353535"/>
        <path id="Trazado_1007936" data-name="Trazado 1007936" d="M92.05,188.535a.169.169,0,0,1,.238.01l1.042,1.481a.174.174,0,0,1-.01.238.169.169,0,0,1-.238-.01l-1.041-1.481a.174.174,0,0,1,.01-.238" transform="translate(-58.828 -120.531)" fill="#353535"/>
        <path id="Trazado_1007937" data-name="Trazado 1007937" d="M99.352,157.559a.169.169,0,0,1,.233.048l1.058,2.17a.174.174,0,0,1-.048.233.17.17,0,0,1-.233-.048l-1.058-2.17a.174.174,0,0,1,.048-.233" transform="translate(-63.485 -100.735)" fill="#353535"/>
        <path id="Trazado_1007938" data-name="Trazado 1007938" d="M113.5,158.7a.169.169,0,0,1,.143.19l-.517,1.861a.174.174,0,0,1-.19.143.169.169,0,0,1-.143-.19l.517-1.861a.174.174,0,0,1,.19-.143" transform="translate(-72.12 -101.479)" fill="#353535"/>
        <path id="Trazado_1007939" data-name="Trazado 1007939" d="M111.56,205.914a.169.169,0,0,1,.109.211L110.7,208.2a.174.174,0,0,1-.211.109.169.169,0,0,1-.109-.211l.971-2.078a.174.174,0,0,1,.211-.109" transform="translate(-70.574 -131.668)" fill="#353535"/>
        <path id="Trazado_1007940" data-name="Trazado 1007940" d="M123.8,209a.169.169,0,0,1,.1.213l-.855,1.732a.174.174,0,0,1-.214.1.169.169,0,0,1-.1-.213l.855-1.732a.174.174,0,0,1,.213-.1" transform="translate(-78.471 -133.643)" fill="#353535"/>
        <path id="Trazado_1007941" data-name="Trazado 1007941" d="M116.425,227.331a.17.17,0,0,1,.233.046l.483.973a.173.173,0,0,1-.047.233.17.17,0,0,1-.233-.046l-.482-.973a.173.173,0,0,1,.046-.233" transform="translate(-74.403 -145.351)" fill="#353535"/>
        <path id="Trazado_1007942" data-name="Trazado 1007942" d="M101.69,215.334l-1.09,2.553c-.084.2-.409.107-.324-.091l1.09-2.553c.084-.2.409-.107.324.091" transform="translate(-64.113 -137.568)" fill="#353535"/>
        <path id="Trazado_1007943" data-name="Trazado 1007943" d="M92.981,206.814a.169.169,0,0,1,.235.039l1.023,1.917A.174.174,0,0,1,94.2,209a.17.17,0,0,1-.235-.039l-1.023-1.917a.174.174,0,0,1,.039-.235" transform="translate(-59.414 -132.229)" fill="#353535"/>
        <path id="Trazado_1007944" data-name="Trazado 1007944" d="M109.154,236.287a.169.169,0,0,1,.159.176l-.474,2.613a.175.175,0,0,1-.177.16.17.17,0,0,1-.16-.177l.474-2.613a.175.175,0,0,1,.177-.16" transform="translate(-69.382 -151.094)" fill="#353535"/>
        <path id="Trazado_1007945" data-name="Trazado 1007945" d="M114.53,242.606l.931,2.615c.072.2-.228.356-.3.153l-.931-2.615c-.072-.2.227-.356.3-.153" transform="translate(-73.038 -155.074)" fill="#353535"/>
        <path id="Trazado_1007946" data-name="Trazado 1007946" d="M124.665,236.134l-.628,2.828c-.047.209-.382.181-.335-.03l.627-2.828c.047-.209.382-.181.335.03" transform="translate(-79.099 -150.886)" fill="#353535"/>
        <path id="Trazado_1007947" data-name="Trazado 1007947" d="M121.412,253.989a.169.169,0,0,1,.23.062l1.01,2.456a.174.174,0,0,1-.062.23.17.17,0,0,1-.23-.062l-1.01-2.456a.174.174,0,0,1,.062-.23" transform="translate(-77.586 -162.401)" fill="#353535"/>
        <path id="Trazado_1007948" data-name="Trazado 1007948" d="M105.34,254.37l.711,2.684c.055.207-.256.336-.311.128l-.712-2.684c-.055-.207.256-.336.312-.128" transform="translate(-67.157 -162.59)" fill="#353535"/>
        <path id="Trazado_1007949" data-name="Trazado 1007949" d="M97.292,249.675a.17.17,0,0,1,.127.2l-.623,1.7a.173.173,0,0,1-.2.127.169.169,0,0,1-.127-.2l.622-1.7a.174.174,0,0,1,.2-.127" transform="translate(-61.683 -159.653)" fill="#353535"/>
        <path id="Trazado_1007950" data-name="Trazado 1007950" d="M93.762,263.7a.169.169,0,0,1,.233.049l.946,1.956a.174.174,0,0,1-.049.233.169.169,0,0,1-.233-.048l-.946-1.956a.174.174,0,0,1,.049-.233" transform="translate(-59.91 -168.608)" fill="#353535"/>
        <path id="Trazado_1007951" data-name="Trazado 1007951" d="M101.66,272.322a.169.169,0,0,1,.123.2l-.832,2.137a.174.174,0,0,1-.2.123.169.169,0,0,1-.123-.2l.832-2.137a.174.174,0,0,1,.2-.123" transform="translate(-64.339 -174.135)" fill="#353535"/>
        <path id="Trazado_1007952" data-name="Trazado 1007952" d="M112.64,266.575l-.746,2.8c-.055.207-.389.164-.334-.044l.746-2.8c.055-.207.389-.165.334.044" transform="translate(-71.334 -170.348)" fill="#353535"/>
        <path id="Trazado_1007953" data-name="Trazado 1007953" d="M120.962,275a.169.169,0,0,1,.142.19l-.617,2.209a.175.175,0,0,1-.191.142.169.169,0,0,1-.142-.19l.617-2.209a.174.174,0,0,1,.19-.142" transform="translate(-76.831 -175.85)" fill="#353535"/>
        <path id="Trazado_1007954" data-name="Trazado 1007954" d="M107.255,280.81a.169.169,0,0,1,.231.059l1,2.328a.175.175,0,0,1-.059.231.169.169,0,0,1-.23-.059l-1-2.328a.174.174,0,0,1,.059-.231" transform="translate(-68.534 -179.551)" fill="#353535"/>
        <path id="Trazado_1007955" data-name="Trazado 1007955" d="M114.911,289.038a.169.169,0,0,1,.141.192l-.642,2.2a.174.174,0,0,1-.192.14.169.169,0,0,1-.141-.192l.642-2.2a.175.175,0,0,1,.192-.14" transform="translate(-72.944 -184.825)" fill="#353535"/>
        <path id="Trazado_1007956" data-name="Trazado 1007956" d="M97.612,287.256a.169.169,0,0,1,.229.066l.93,2.358a.174.174,0,0,1-.066.229.169.169,0,0,1-.229-.066l-.93-2.358a.174.174,0,0,1,.066-.229" transform="translate(-62.365 -183.675)" fill="#353535"/>
        <path id="Trazado_1007957" data-name="Trazado 1007957" d="M119.811,306.372l.567-1.11a.172.172,0,0,1,.217-.1.17.17,0,0,1,.1.217l-.567,1.11a.173.173,0,0,1-.217.1.17.17,0,0,1-.1-.217" transform="translate(-76.605 -195.131)" fill="#353535"/>
        <path id="Trazado_1007958" data-name="Trazado 1007958" d="M96,305.865l1.2,1.532c.133.17-.125.386-.259.215l-1.2-1.532c-.133-.171.125-.386.259-.215" transform="translate(-61.2 -195.547)" fill="#353535"/>
        <path id="Trazado_1007959" data-name="Trazado 1007959" d="M89.934,228.258a.172.172,0,0,1,.237.022l1.486,1.482a.169.169,0,0,1-.022.237.172.172,0,0,1-.237-.022l-1.486-1.482a.169.169,0,0,1,.022-.237" transform="translate(-57.47 -145.936)" fill="#353535"/>
        <path id="Trazado_1007960" data-name="Trazado 1007960" d="M51.151,212.242a.169.169,0,0,1,.183-.152l1.892.427a.173.173,0,0,1,.152.183.169.169,0,0,1-.183.152l-1.892-.427a.174.174,0,0,1-.152-.183" transform="translate(-32.708 -135.62)" fill="#353535"/>
        <path id="Trazado_1007961" data-name="Trazado 1007961" d="M58.66,227.035l1.211-1.109a.168.168,0,0,1,.215.259l-1.211,1.109a.168.168,0,0,1-.215-.259" transform="translate(-37.472 -144.445)" fill="#353535"/>
        <path id="Trazado_1007962" data-name="Trazado 1007962" d="M67.258,235.943l1.273-.737a.17.17,0,0,1,.224.081.172.172,0,0,1-.081.224l-1.273.737a.17.17,0,0,1-.224-.081.172.172,0,0,1,.081-.224" transform="translate(-42.946 -150.393)" fill="#353535"/>
        <path id="Trazado_1007963" data-name="Trazado 1007963" d="M81.356,241.281l1.065-1.188a.173.173,0,0,1,.235-.039.169.169,0,0,1,.039.235l-1.065,1.188a.173.173,0,0,1-.235.039.169.169,0,0,1-.039-.235" transform="translate(-52.003 -153.484)" fill="#353535"/>
        <path id="Trazado_1007964" data-name="Trazado 1007964" d="M86.7,215.594q.088,1.448.176,2.9c.013.214-.318.275-.331.059q-.088-1.448-.177-2.9c-.013-.214.318-.275.332-.059" transform="translate(-55.226 -137.777)" fill="#353535"/>
        <path id="Trazado_1007965" data-name="Trazado 1007965" d="M79.234,209.606l.6-1.818c.069-.206.383-.087.315.119l-.6,1.818c-.069.206-.383.087-.315-.119" transform="translate(-50.66 -132.803)" fill="#353535"/>
        <path id="Trazado_1007966" data-name="Trazado 1007966" d="M71.526,196.259l.354,2.567c.03.214-.3.274-.331.059l-.354-2.567c-.03-.214.3-.274.331-.059" transform="translate(-45.525 -125.413)" fill="#353535"/>
        <path id="Trazado_1007967" data-name="Trazado 1007967" d="M62.545,194.7l.756,1.959c.078.2-.227.344-.305.142l-.756-1.959c-.078-.2.227-.345.305-.142" transform="translate(-39.792 -124.438)" fill="#353535"/>
        <path id="Trazado_1007968" data-name="Trazado 1007968" d="M53.022,202.878a.171.171,0,0,1,.217-.1l1.118.391a.168.168,0,1,1-.119.315L53.12,203.1a.171.171,0,0,1-.1-.217" transform="translate(-33.899 -129.662)" fill="#353535"/>
        <path id="Trazado_1007969" data-name="Trazado 1007969" d="M70.672,213.795s-6.929.44-11.414-2.881-5.46-11.933-2.1-13.117,4.616,1.264,7.45,5.8a8,8,0,0,0,4.478,3.655,4.489,4.489,0,0,1,3.259,4.379c-.032,1.1-.442,2.018-1.675,2.161" transform="translate(-35.268 -126.293)" fill="#007947"/>
        <path id="Trazado_1007970" data-name="Trazado 1007970" d="M88.863,235.126l1.211-.427a.173.173,0,0,1,.224.081.169.169,0,0,1-.081.223l-1.211.427a.173.173,0,0,1-.224-.081.17.17,0,0,1,.081-.224" transform="translate(-56.762 -150.071)" fill="#353535"/>
        <path id="Trazado_1007971" data-name="Trazado 1007971" d="M80.966,229.851a.169.169,0,0,1,.183-.152l2.017.356a.172.172,0,0,1,.152.183.169.169,0,0,1-.183.152l-2.018-.356a.172.172,0,0,1-.152-.183" transform="translate(-51.773 -146.881)" fill="#353535"/>
        <path id="Trazado_1007972" data-name="Trazado 1007972" d="M77.086,235.283l1.481-.07a.174.174,0,0,1,.2.136.17.17,0,0,1-.136.2l-1.481.07a.174.174,0,0,1-.2-.136.17.17,0,0,1,.136-.2" transform="translate(-49.204 -150.408)" fill="#353535"/>
        <path id="Trazado_1007973" data-name="Trazado 1007973" d="M77.118,219.532a.17.17,0,0,1,.237.022l.977,1.3a.172.172,0,0,1-.022.237.17.17,0,0,1-.237-.022l-.977-1.3a.172.172,0,0,1,.022-.237" transform="translate(-49.276 -140.357)" fill="#353535"/>
        <path id="Trazado_1007974" data-name="Trazado 1007974" d="M68.4,225.069a.172.172,0,0,1,.183-.152l1.291,0a.169.169,0,0,1,.152.183.172.172,0,0,1-.183.152l-1.291,0a.17.17,0,0,1-.152-.183" transform="translate(-43.737 -143.824)" fill="#353535"/>
        <path id="Trazado_1007975" data-name="Trazado 1007975" d="M68.832,209.1l.226,1.6c.03.214-.3.274-.331.059q-.113-.8-.226-1.6c-.03-.214.3-.274.331-.059" transform="translate(-43.802 -133.625)" fill="#353535"/>
        <path id="Trazado_1007976" data-name="Trazado 1007976" d="M61.885,220.359l1.224-.055a.174.174,0,0,1,.2.136.169.169,0,0,1-.136.2l-1.223.055a.174.174,0,0,1-.2-.136.169.169,0,0,1,.136-.2" transform="translate(-39.484 -140.875)" fill="#353535"/>
        <path id="Trazado_1007977" data-name="Trazado 1007977" d="M61.9,201.912l.382,1.652c.049.211-.283.269-.331.059l-.382-1.651c-.049-.212.283-.269.331-.059" transform="translate(-39.366 -129.029)" fill="#353535"/>
        <path id="Trazado_1007978" data-name="Trazado 1007978" d="M86.154,315.6H98.11a1.675,1.675,0,0,1,1.668,1.838c-.8,8.038-2.12,12.242-2.824,14.015a1.672,1.672,0,0,1-1.555,1.052H80.127a1.672,1.672,0,0,1-1.555-1.052c-.7-1.773-2.024-5.977-2.824-14.015a1.675,1.675,0,0,1,1.668-1.838Z" transform="translate(-48.431 -201.812)" fill="#f1c830"/>
        <path id="Trazado_1007979" data-name="Trazado 1007979" d="M155.366,200.937s.827,44.305.827,49.725c-8.566-.19-10.684,0-10.684,0s-2.687-55.335-2.4-59.423c16.939-1.046,25.312.19,25.312.19l4.393,57.417-10.379,1.816-4.7-49.725Z" transform="translate(-91.499 -122.02)" fill="#9300bf"/>
        <path id="Trazado_1007980" data-name="Trazado 1007980" d="M122.352,125.536c.059.176-4.288,7.342-1.292,10.278,8.575-5.227,7.165-9.75,7.165-9.75Z" transform="translate(-76.738 -80.275)" fill="#e58563"/>
        <path id="Trazado_1007981" data-name="Trazado 1007981" d="M213.613,143.441c-1.634-.1-3.389-.311-5.044-.567-3.817-.591-7.094-1.391-7.094-1.391s-.032-1.615-.053-3.648c-.035-3.43-.036-8.049.21-8.1.391-.079,9.788,2.114,10.1,2.036l.313-.079c0,.313,2.9,9.632,1.566,11.747" transform="translate(-128.79 -82.959)" fill="#e58563"/>
        <path id="Trazado_1007982" data-name="Trazado 1007982" d="M211.125,153.194a8.952,8.952,0,0,1-2.526,3.449c-3.817-.591-7.094-1.391-7.094-1.391s-.032-1.615-.053-3.648c1.365-.275,7.147-1.1,9.673,1.59" transform="translate(-128.819 -96.729)"/>
        <path id="Trazado_1007983" data-name="Trazado 1007983" d="M159.521,69.743s-.56-1.678-1.893-1.077-.561,4.067,1.432,4.542a6.341,6.341,0,0,0,.461-3.464" transform="translate(-100.372 -43.826)" fill="#e58563"/>
        <path id="Trazado_1007984" data-name="Trazado 1007984" d="M170.21,49.717c-1.249-1.873-4.838-2.367-6.815-2.575s-2.107-.1-2.887,1.665c-1.821.468-4.292,1.613-4.136,2.107s2.029-.234,2.029-.234-1.977,2.706-1.977,2.888.833-.182,1.509-.832c-.312,2.341.494,3.382.6,3.382l10.587,1.639c2-2.107,2.341-6.165,1.092-8.038" transform="translate(-99.988 -30.095)" fill="#363e66"/>
        <path id="Trazado_1007985" data-name="Trazado 1007985" d="M173.37,85.922a9.777,9.777,0,0,1-8.037,4.271,8.127,8.127,0,0,1-6.613-3.9s3.4.367,4.454-1.148a3.648,3.648,0,0,0,.467-1.81,13,13,0,0,0-.048-1.836,22.8,22.8,0,0,0-.373-2.508l6.2-.826s-.367,5.741.046,6.475,1.286,1.24,3.9,1.286" transform="translate(-101.495 -49.98)" fill="#e58563"/>
        <path id="Trazado_1007986" data-name="Trazado 1007986" d="M136.858,98.51s-3.9,0-5.949,1.912a102.413,102.413,0,0,0-6.728,8s6.941,4.6,7.153,4.6-.425,19.689-.425,19.689h25.708l-.283-17.493,8.711-2.2s-4.178-10.057-6.586-12.323-5.711-2.217-7.481-2.209c-1.623,2.524-4.011,3.738-8.209,3.6a7.525,7.525,0,0,1-5.91-3.582" transform="translate(-79.408 -62.983)" fill="#f1c830"/>
        <path id="Trazado_1007987" data-name="Trazado 1007987" d="M176.008,85.752a4.917,4.917,0,0,1-3.723,2.353,12.948,12.948,0,0,0-.048-1.836c1.336-1.023,3.771-.517,3.771-.517" transform="translate(-110.138 -54.755)" fill="#363e66"/>
        <path id="Trazado_1007988" data-name="Trazado 1007988" d="M185.368,71.119s.2-1.378.962-1.781a1.176,1.176,0,0,1,1.678.9,3.573,3.573,0,0,1-1.264,2.99,2.165,2.165,0,0,1-1.9.456c-.341-.134.528-2.565.528-2.565" transform="translate(-118.146 -44.257)" fill="#f7a784"/>
        <path id="Trazado_1007989" data-name="Trazado 1007989" d="M164.183,57.351a3.842,3.842,0,0,0-2.271,3.351c-.247,2.631-.17,6.582.905,7.811.621.71,2.58.8,4.2.352a6.5,6.5,0,0,0,3.261-1.709c.45-.607.5-2.9.4-3.621a1.263,1.263,0,0,1-.857-.964,5.526,5.526,0,0,0-.492-1.2s-4.768.112-5.15-4.025" transform="translate(-103.46 -36.673)" fill="#f7a784"/>
        <path id="Trazado_1007990" data-name="Trazado 1007990" d="M177.343,81.414a3.3,3.3,0,0,1-1.751,2.046,9.458,9.458,0,0,1-3.128.8.124.124,0,0,0,.035.246,9.131,9.131,0,0,0,3.357-.907,3.5,3.5,0,0,0,1.735-2.152c.038-.156-.209-.186-.247-.032" transform="translate(-110.216 -51.996)" fill="#363e66"/>
        <path id="Trazado_1007991" data-name="Trazado 1007991" d="M189.159,70.424c-1.179-.358-1.537,1.3-1.51,2.121.005.16.252.124.247-.035a2.9,2.9,0,0,1,.224-1.262c.16-.363.511-.725.945-.593.152.046.248-.184.094-.23" transform="translate(-119.992 -45.001)" fill="#363e66"/>
        <path id="Trazado_1007992" data-name="Trazado 1007992" d="M188.145,74.471c-.153-.045-.248.185-.094.23a.564.564,0,0,1,.008,1.092c-.153.04-.12.287.035.247a.806.806,0,0,0,.052-1.569" transform="translate(-120.192 -47.617)" fill="#363e66"/>
        <path id="Trazado_1007993" data-name="Trazado 1007993" d="M136.412,82.282c.526-.064.353.818-.132,1.03a11.767,11.767,0,0,0-2.677,1.242.872.872,0,0,0-.312.636s1.3-.606,1.909-.394a.849.849,0,0,1,.575.818s.788,0,1,1.091a1.071,1.071,0,0,1,.848,1.272c-.061.576.036,1.425-.363,1.818a2.435,2.435,0,0,1-1.121.515,7.609,7.609,0,0,1-1.848,3.151c-1.394,4.454-3.424,12.27-5.908,14.421s-4.8,1.915-6.264.74c-1.524-1.219-1.821-3.876-.182-5.987.833-1.073,5.295-5.69,6.234-6.9s2.363-3.3,2.454-4.241.545-6.665,1.3-7.393a11.025,11.025,0,0,1,4.484-1.818" transform="translate(-77.269 -52.614)" fill="#f7a784"/>
        <path id="Trazado_1007994" data-name="Trazado 1007994" d="M159.657,99.891c-.009-.16-.256-.124-.247.035a5.549,5.549,0,0,1-2.052,4.606.125.125,0,0,0,.154.2,5.811,5.811,0,0,0,2.144-4.836" transform="translate(-100.594 -63.809)" fill="#363e66"/>
        <path id="Trazado_1007995" data-name="Trazado 1007995" d="M161.784,95.094a1.349,1.349,0,0,0-.453-.723,1.176,1.176,0,0,0-.954-.17,4.624,4.624,0,0,0-1.934.884c-.127.1.027.292.155.2a4.519,4.519,0,0,1,1.548-.77,1.321,1.321,0,0,1,.908-.02,1.039,1.039,0,0,1,.5.709,2.968,2.968,0,0,1-.053,1.669,1.166,1.166,0,0,1-1.246.825c-.158-.03-.189.217-.032.247a1.375,1.375,0,0,0,1.426-.789,3.039,3.039,0,0,0,.133-2.057" transform="translate(-101.286 -60.218)" fill="#363e66"/>
        <path id="Trazado_1007996" data-name="Trazado 1007996" d="M163.826,99.47l-.56.095c-.158.027-.124.273.035.247l.56-.095c.158-.027.124-.273-.035-.247" transform="translate(-104.336 -63.606)" fill="#363e66"/>
        <path id="Trazado_1007997" data-name="Trazado 1007997" d="M158.314,91.4a5.011,5.011,0,0,0-2.2.814c-.133.089.022.284.154.2a4.735,4.735,0,0,1,2.083-.763.125.125,0,0,0-.035-.247" transform="translate(-99.793 -58.446)" fill="#363e66"/>
        <path id="Trazado_1007998" data-name="Trazado 1007998" d="M154.091,90.289l-.611.323c-.141.075-.043.3.1.229l.611-.323c.141-.075.043-.3-.1-.229" transform="translate(-98.1 -57.726)" fill="#363e66"/>
        <path id="Trazado_1007999" data-name="Trazado 1007999" d="M143.32,150.61c-.367.367.4.659,1.4.745s2.178.143,2.178.143a8.588,8.588,0,0,1,1.605,1.2,13.52,13.52,0,0,0-5.291.561c-.671.3-.728.815-.3,1.016a2.967,2.967,0,0,0,1.72-.057,15.019,15.019,0,0,1,2.78-.315,5.665,5.665,0,0,1,1.519.287,19.019,19.019,0,0,0-3.338.383c-1.019.305-2.825,1.108-2.882,1.481s.545.573,1.319.4,2.035-.631,2.322-.688c1.089-.057,2.866-.086,2.866-.086a13.375,13.375,0,0,0-2.522.831c-1.261.573-2.952,1.462-2.809,1.863s1.089.143,1.634.029a32.648,32.648,0,0,1,3.64-1.147c1.878,1.167,2.5,2,4.8,1.715a6.269,6.269,0,0,1,2.135.107,47.4,47.4,0,0,0,16.128.862,4.537,4.537,0,0,0,4.134-5.465c-.835-2.376-3.41-2.872-5.488-2.74-3.985.253-13.516,3.313-15.436,3.256s-5.331-3.468-7.137-4.357a7.454,7.454,0,0,0-4.987-.028" transform="translate(-91.214 -96.037)" fill="#f7a784"/>
        <path id="Trazado_1008000" data-name="Trazado 1008000" d="M212.9,117.434v9.795c0,.158.247.192.247.032v-9.795c0-.158-.247-.192-.247-.032" transform="translate(-136.14 -75.027)"/>
        <path id="Trazado_1008001" data-name="Trazado 1008001" d="M147.064,348.187s-5.678-6.26-10.154-4.564c-4.851,1.647-8.593,5.426-8.043,6.616h18.214Z" transform="translate(-82.37 -219.545)" fill="#363e66"/>
        <path id="Trazado_1008002" data-name="Trazado 1008002" d="M196.725,348.917s6.765-6.3,10.9-3.9c4.592,2.667,6.919,4.76,6.37,5.949H196.709Z" transform="translate(-125.786 -220.274)" fill="#363e66"/>
        <path id="Trazado_1008003" data-name="Trazado 1008003" d="M174.718,218.213H158.49c-.158,0-.192.247-.032.247h16.228c.158,0,.192-.247.032-.247" transform="translate(-101.26 -139.537)"/>
        <path id="Trazado_1008004" data-name="Trazado 1008004" d="M162.2,327.55a6.325,6.325,0,0,0-5.517,2.742c-.089.133.109.283.2.15a6.072,6.072,0,0,1,5.286-2.645c.159.008.192-.238.032-.247" transform="translate(-100.18 -209.448)"/>
        <path id="Trazado_1008005" data-name="Trazado 1008005" d="M158.711,314.736a9.938,9.938,0,0,1-5.681-3.177,9.623,9.623,0,0,1-1.112-1.529c-.08-.136-.31-.039-.229.1a10.206,10.206,0,0,0,5.134,4.345,9.969,9.969,0,0,0,1.856.509c.158.027.19-.22.032-.247" transform="translate(-96.987 -198.208)"/>
        <path id="Trazado_1008006" data-name="Trazado 1008006" d="M207.317,311.154a11.593,11.593,0,0,1-5.747,4.248c-.152.05-.053.279.1.228a11.813,11.813,0,0,0,5.847-4.327c.093-.13-.105-.281-.2-.15" transform="translate(-128.846 -198.936)"/>
        <path id="Trazado_1008007" data-name="Trazado 1008007" d="M208.415,332.412a9.175,9.175,0,0,0-5.714-2.691c-.159-.014-.192.233-.032.247a8.912,8.912,0,0,1,5.55,2.6c.111.113.308-.04.2-.154" transform="translate(-129.531 -210.841)"/>
        <path id="Trazado_1008008" data-name="Trazado 1008008" d="M99.733,71.062l-4.97-6.2-4.97,6.2h2.762V81.289h4.416V71.062Z" transform="translate(-57.419 -41.479)" fill="#00b55b"/>
        <path id="Trazado_1008009" data-name="Trazado 1008009" d="M46.5,267.636,40.93,260.7l-5.566,6.939h3.093v11.455H43.4V267.636Z" transform="translate(-22.614 -166.704)" fill="#00b55b"/>
        <path id="Trazado_1008010" data-name="Trazado 1008010" d="M45.731,115.5l-6.67-8.315-6.67,8.315H36.1V129.23h5.926V115.5Z" transform="translate(-20.713 -68.542)" fill="#00b55b"/>
        <path id="Trazado_1008011" data-name="Trazado 1008011" d="M380.791,212.49l-5.6,6.978-5.6-6.978h3.11V200.972h4.973V212.49Z" transform="translate(-236.34 -128.512)" fill="#cf5516"/>
        <path id="Trazado_1008012" data-name="Trazado 1008012" d="M415.337,277.57l-5.255,6.551-5.255-6.551h2.92V266.755h4.669V277.57Z" transform="translate(-258.868 -170.578)" fill="#cf5516"/>
        <path id="Trazado_1008013" data-name="Trazado 1008013" d="M412.8,134.668l-4.6,5.739-4.6-5.739h2.558v-9.473h4.09v9.473Z" transform="translate(-258.082 -80.056)" fill="#cf5516"/>
        <path id="Trazado_1008014" data-name="Trazado 1008014" d="M88.11,132.994a2.075,2.075,0,1,1-2.08-2.07,2.075,2.075,0,0,1,2.08,2.07" transform="translate(-53.689 -83.72)" fill="#363e66"/>
        <path id="Trazado_1008015" data-name="Trazado 1008015" d="M361.744,110.4a1.749,1.749,0,1,1-1.753-1.745,1.749,1.749,0,0,1,1.753,1.745" transform="translate(-229.082 -69.477)" fill="#363e66"/>
        <path id="Trazado_1008016" data-name="Trazado 1008016" d="M22.807,203.468A3.8,3.8,0,1,1,19,199.678a3.8,3.8,0,0,1,3.808,3.79" transform="translate(-9.725 -127.685)" fill="#4e8afb"/>
        <path id="Trazado_1008017" data-name="Trazado 1008017" d="M49.657,232.792a1.91,1.91,0,0,1-2.693,2.706,1.91,1.91,0,0,1,2.693-2.706" transform="translate(-29.714 -148.547)" fill="#cf5516"/>
        <path id="Trazado_1008018" data-name="Trazado 1008018" d="M424.305,234.491A2.5,2.5,0,1,1,421.8,232a2.5,2.5,0,0,1,2.506,2.495" transform="translate(-268.126 -148.351)" fill="#9300bf"/>
        <path id="Trazado_1008019" data-name="Trazado 1008019" d="M406.2,204.608a1.669,1.669,0,0,1-2.353,2.363,1.669,1.669,0,0,1,2.353-2.363" transform="translate(-257.965 -130.564)" fill="#00b55b"/>
        <path id="Trazado_1008020" data-name="Trazado 1008020" d="M163.734,362.444H3.071a.166.166,0,0,1,.151-.216H163.636c.126,0,.151.13.1.216" transform="translate(-1.959 -231.628)" fill="#363e66"/>
        <path id="Trazado_1008021" data-name="Trazado 1008021" d="M391.4,175.926a7.467,7.467,0,0,0-5.845-3.5,7.64,7.64,0,0,0-4.926,1.516,4.959,4.959,0,0,0-2.332-.511,7.431,7.431,0,0,0-6.441,3.883c-.112.2.223.338.333.137a7.214,7.214,0,0,1,5.015-3.559,5.272,5.272,0,0,1,3.119.3,6.18,6.18,0,0,0-1.077,1.182,2.42,2.42,0,0,0-.509,1.706,1.416,1.416,0,0,0,.752,1.041,1.885,1.885,0,0,0,2.354-.544,2.486,2.486,0,0,0-.322-2.946,2.992,2.992,0,0,0-.561-.485,7.288,7.288,0,0,1,4.2-1.368,7.12,7.12,0,0,1,5.959,3.376c.122.2.4-.028.283-.224m-9.588.755a1.479,1.479,0,0,1-1.819,1.238,1.124,1.124,0,0,1-.839-.668,1.844,1.844,0,0,1,.359-1.633,5.854,5.854,0,0,1,1.146-1.243,2.376,2.376,0,0,1,1.153,2.307" transform="translate(-237.77 -110.252)" fill="#353535"/>
        <path id="Trazado_1008022" data-name="Trazado 1008022" d="M138.405,17.074a5.368,5.368,0,0,1-5.759-1.818,5.33,5.33,0,0,1-.9-1.9c.057-.043.115-.083.172-.127.559-.431,1.082-.906,1.6-1.383a4.387,4.387,0,0,0,1.2-1.447,1.546,1.546,0,0,0-.172-1.6,1.447,1.447,0,0,0-1.391-.394c-1.186.265-1.707,1.625-1.879,2.7a5.756,5.756,0,0,0,.062,2.1,6.677,6.677,0,0,1-2.447,1.153,3.875,3.875,0,0,1-3.233-.6,4.367,4.367,0,0,1-1.485-3.069,11.97,11.97,0,0,1,.764-4.458c.067-.221-.266-.359-.333-.137a13.191,13.191,0,0,0-.8,4.412,4.973,4.973,0,0,0,1.246,3.177,3.957,3.957,0,0,0,3.323,1.123,6.625,6.625,0,0,0,3.062-1.228,5.772,5.772,0,0,0,.375.99,5.687,5.687,0,0,0,5.878,3.032,5.628,5.628,0,0,0,.863-.2c.221-.069.077-.4-.143-.331m-6.832-4.818a4.191,4.191,0,0,1,.925-3.074,1.383,1.383,0,0,1,1.352-.4.99.99,0,0,1,.615,1.241,3.042,3.042,0,0,1-1.059,1.441c-.441.408-.884.814-1.348,1.2-.131.107-.264.213-.4.317a5.6,5.6,0,0,1-.086-.718" transform="translate(-79.16 -3.829)" fill="#353535"/>
        <path id="Trazado_1008023" data-name="Trazado 1008023" d="M42.957,176.829a8,8,0,0,0-5.984.168,8.191,8.191,0,0,0-1.707.993,4.009,4.009,0,0,0-2.926-1.177,5.978,5.978,0,0,0-5.55,4.336c-.065.221.268.359.334.137a5.74,5.74,0,0,1,4.161-4,4.223,4.223,0,0,1,3.06.418,3.107,3.107,0,0,1,.629.512c-.178.147-.351.3-.514.464a4.608,4.608,0,0,0-1.489,2.569,1.577,1.577,0,0,0,.3,1.218,1.283,1.283,0,0,0,1.263.4,2.344,2.344,0,0,0,1.694-2.129,3.558,3.558,0,0,0-.731-2.471,7.783,7.783,0,0,1,1.334-.808,7.665,7.665,0,0,1,5.989-.293.18.18,0,0,0,.137-.334m-7.132,3.015a2.358,2.358,0,0,1-.82,2.425,1.171,1.171,0,0,1-1.248.143,1.073,1.073,0,0,1-.436-1.062,4.092,4.092,0,0,1,1.306-2.335,7.189,7.189,0,0,1,.58-.529,3.275,3.275,0,0,1,.618,1.357" transform="translate(-17.126 -112.753)" fill="#353535"/>
        <path id="Trazado_1008024" data-name="Trazado 1008024" d="M60.8,329.405a1.9,1.9,0,0,0-1.9-1.666,2.639,2.639,0,0,0-.865.141,5.44,5.44,0,0,0,.025-.84,3.678,3.678,0,0,0-1.229-2.545,2.48,2.48,0,0,0-2.636-.389,4.879,4.879,0,0,0-2.142,2.174A8.622,8.622,0,0,0,51.079,329a3.959,3.959,0,0,0-.945-.678,2.808,2.808,0,0,0-2.83.058,3.2,3.2,0,0,0-1.222,2.758,8.065,8.065,0,0,0,1.013,3.378A10.946,10.946,0,0,0,49,337.164c.187.191.379.371.577.548.083.072.169.144.256.216h.5c-.094-.069-.187-.144-.278-.216a10.707,10.707,0,0,1-3.162-4.391,5.3,5.3,0,0,1-.389-3.22,2.346,2.346,0,0,1,1.832-1.8,3.1,3.1,0,0,1,2.5.883c.065.061.126.126.187.191,0,.032-.011.065-.014.1a8.7,8.7,0,0,0,.224,3.328,2.107,2.107,0,0,0,.663,1.219.771.771,0,0,0,1.121-.238,1.716,1.716,0,0,0-.09-1.568c-.209-.53-.418-1.06-.678-1.568a6.668,6.668,0,0,0-.9-1.363,7.674,7.674,0,0,1,1.738-3.952,2.859,2.859,0,0,1,2.39-1.129,2.594,2.594,0,0,1,1.907,1.5,3.9,3.9,0,0,1,.324,2.311,3.8,3.8,0,0,0-1.291,1.074,10.056,10.056,0,0,0-.873,1.374,1.59,1.59,0,0,0-.245,1.247.736.736,0,0,0,1.107.3,2.717,2.717,0,0,0,.836-1.384,10.84,10.84,0,0,0,.746-2.4,1.726,1.726,0,0,1,.173-.068,1.755,1.755,0,0,1,2.185.764,4.062,4.062,0,0,1-.209,2.812,17.517,17.517,0,0,1-2.805,5.39c-.155.2-.314.4-.476.591-.061.072-.126.144-.191.216h.407c.065-.072.123-.144.18-.216a17.691,17.691,0,0,0,2.931-5.152,16.561,16.561,0,0,0,.494-1.608,4.3,4.3,0,0,0,.126-1.547m-8.39,2.365c.094.224.18.443.267.667a1.825,1.825,0,0,1,.184.88.662.662,0,0,1-.335.516.514.514,0,0,1-.6-.2,2.924,2.924,0,0,1-.487-1.269,8.618,8.618,0,0,1-.187-1.453A9.061,9.061,0,0,1,51.3,329.7a8.77,8.77,0,0,1,1.118,2.07m5.188-3.155a10.666,10.666,0,0,1-.526,1.59c-.1.256-.209.508-.314.764a1.99,1.99,0,0,1-.407.7.535.535,0,0,1-.638.108.519.519,0,0,1-.144-.523,3.433,3.433,0,0,1,.566-1.2,4.705,4.705,0,0,1,1.507-1.662c-.014.076-.025.151-.043.227" transform="translate(-29.466 -207.112)" fill="#363e66"/>
        <path id="Trazado_1008025" data-name="Trazado 1008025" d="M376.663,321.957a2.356,2.356,0,0,0-1.482-1.184,3.325,3.325,0,0,0-2.786.66,5.394,5.394,0,0,0-1.995-3.856,2.535,2.535,0,0,0-2.172-.292,3.4,3.4,0,0,0-1.9,1.675,6.4,6.4,0,0,0-.648,2.715,11.006,11.006,0,0,0,.015,1.29,1.877,1.877,0,0,0-1.28-.182c-1.381.348-1.433,2.107-1.371,3.246A14.9,14.9,0,0,0,365.5,333.4h.433a14.658,14.658,0,0,1-2.416-6.238,10.414,10.414,0,0,1-.121-2.131,2.446,2.446,0,0,1,.579-1.6,1.429,1.429,0,0,1,1.763-.031c.036.33.081.659.147.984a11.4,11.4,0,0,0,.805,2.479,11.266,11.266,0,0,0,.628,1.184c.254.417.66,1,1.229.683.6-.328.3-1.163.158-1.656a7.653,7.653,0,0,0-.762-1.789,7.224,7.224,0,0,0-1.423-1.759,4.064,4.064,0,0,0-.458-.352,8.571,8.571,0,0,1,.213-3.089,3.668,3.668,0,0,1,1.4-2.126,2.273,2.273,0,0,1,2.189-.262c1.4.611,1.952,2.364,2.168,3.745.014.094.021.188.034.282a3.4,3.4,0,0,0-.359.407,4.531,4.531,0,0,0-.818,2.274,7.554,7.554,0,0,0-.013,1.225c.022.344-.005.849.4.979a.647.647,0,0,0,.554-.1c.31-.213.336-.53.412-.866a11.444,11.444,0,0,0,.216-3.738c0-.014,0-.03-.005-.044a3.07,3.07,0,0,1,2.318-.8,2,2,0,0,1,1.511.949,3.382,3.382,0,0,1,.357,2.09,11.532,11.532,0,0,1-.508,2.266,21.968,21.968,0,0,1-3.647,7.034h.445a22.449,22.449,0,0,0,2.53-4.239,22.159,22.159,0,0,0,.982-2.584,12.19,12.19,0,0,0,.555-2.431,3.847,3.847,0,0,0-.332-2.19m-9.278,3.115a7.318,7.318,0,0,1,1.162,3,.346.346,0,0,1-.628.239,10.918,10.918,0,0,1-1.465-3.1,11.429,11.429,0,0,1-.331-1.537,6.147,6.147,0,0,1,1.263,1.4m4.373.992a.248.248,0,0,1-.486-.036,5.756,5.756,0,0,1,.436-3.209,3.042,3.042,0,0,1,.414-.624,11.029,11.029,0,0,1-.364,3.869" transform="translate(-232.138 -202.81)" fill="#363e66"/>
      </g>
    </g>
  </g>
</svg>
