<svg xmlns="http://www.w3.org/2000/svg" xmlns:xlink="http://www.w3.org/1999/xlink" width="292" height="139" viewBox="0 0 292 139">
  <defs>
    <clipPath id="clip-path">
      <rect id="Rectángulo_458564" data-name="Rectángulo 458564" width="165.59" height="125.662" fill="none"/>
    </clipPath>
  </defs>
  <g id="Grupo_1183139" data-name="Grupo 1183139" transform="translate(-186 -5503.884)">
    <rect id="Rectángulo_458093" data-name="Rectángulo 458093" width="292" height="139" rx="10" transform="translate(186 5503.884)" fill="#cfa9e6"/>
    <g id="Grupo_1183138" data-name="Grupo 1183138" transform="translate(249.205 5517.221)">
      <g id="Grupo_1183137" data-name="Grupo 1183137">
        <g id="Grupo_1183136" data-name="Grupo 1183136" clip-path="url(#clip-path)">
          <path id="Trazado_1008026" data-name="Trazado 1008026" d="M2.483,112.512A29.082,29.082,0,0,0,15.64,131.328H152.217a24.981,24.981,0,0,0,13.729-15.855c2.746-9.971-1.372-21.554-9.7-27.278-3.052-2.1-6.752-3.646-8.515-6.978-1.535-2.9-1.184-6.521-.1-9.635s2.837-5.93,4.094-8.974c5.053-12.235,1.246-27.2-7.481-36.947S122.674,10.939,109.9,9.829C96,8.621,81.681,13.353,71.956,23.748c-3.316,3.544-6.192,7.753-10.434,9.99-6.467,3.411-13.492.48-20.047,2.584-5.814,1.866-11.954,4.315-15.942,9.31a23.315,23.315,0,0,0-4.781,17.2c.638,5.062,2.833,10.637.161,14.922-1.471,2.361-4.071,3.619-6.353,5.133C5.309,89.022.286,101.342,2.483,112.512" transform="translate(-1.202 -5.885)" fill="#ebf0fe"/>
          <path id="Trazado_1008027" data-name="Trazado 1008027" d="M52.9,152.355a25.913,25.913,0,0,0,6.282,11.51H167.947a21.222,21.222,0,0,0,9-11.424,22.032,22.032,0,0,0-3.527-19.963c-4.371-5.541-11.673-9.175-13.128-16.177-1.5-7.226,4.15-14.077,4.3-21.468.223-10.682-4.366-21.842-13.141-27.8-8.082-5.485-19.576-5.611-27.071.709-4.5,3.8-7.863,10.8-13.543,12.73-6.673,2.262-16.841.509-23.875.662-13.049.283-19.98,6.373-18.5,20.566.57,5.455,1.577,11.239-.623,16.227-2.051,4.65-6.465,7.6-9.694,11.464A26.657,26.657,0,0,0,52.9,152.355" transform="translate(-31.841 -38.422)" fill="#c1d1f4"/>
          <path id="Trazado_1008028" data-name="Trazado 1008028" d="M149.966,26.345l8.223,4.411L92.511,97.081l-22-18.118L21.332,139.271H33.909L71.718,94.138l21.77,17.389L161.1,34.961l5.054,7.572,3.358-19.543Z" transform="translate(-13.018 -14.03)" fill="#00b55b"/>
          <path id="Trazado_1008029" data-name="Trazado 1008029" d="M55.556,229.282A87.631,87.631,0,0,0,62.108,246.9s.072-.345.178-.976a63.787,63.787,0,0,0,.575-15.533c-.81-9.058-7.721-16.72-7.748-16.749h0a40.86,40.86,0,0,0,.443,15.643" transform="translate(-33.302 -130.373)" fill="#00b55b"/>
          <path id="Trazado_1008030" data-name="Trazado 1008030" d="M55.556,229.282A87.631,87.631,0,0,0,62.108,246.9s.072-.345.178-.976c-.919-13.43-7.148-32.207-7.173-32.282h0a40.86,40.86,0,0,0,.443,15.643" transform="translate(-33.302 -130.373)" fill="#008a3c"/>
          <path id="Trazado_1008031" data-name="Trazado 1008031" d="M82.788,206.165a152.411,152.411,0,0,1-7.408,23.782s-.056-.457-.131-1.295a112.888,112.888,0,0,1,.186-20.712C76.688,195.815,83.968,185.3,84,185.264h0a72.857,72.857,0,0,1-1.208,20.9" transform="translate(-45.685 -113.058)" fill="#00b55b"/>
          <path id="Trazado_1008032" data-name="Trazado 1008032" d="M83.394,206.165a152.41,152.41,0,0,1-7.408,23.782s-.056-.457-.131-1.295c1.576-17.967,8.718-43.287,8.747-43.388h0a72.857,72.857,0,0,1-1.208,20.9" transform="translate(-46.291 -113.058)" fill="#008a3c"/>
          <path id="Trazado_1008033" data-name="Trazado 1008033" d="M76.291,246.456c3.816-3.741,6.466-4.951,13.037-10.124,7.88-6.412,9.109-14.192,7.987-23.918,0-.007,0-.007,0,0a19.5,19.5,0,0,1-7.777,12.5c-5.037,3.726-13.093,11.223-13.243,21.548" transform="translate(-46.557 -129.622)" fill="#00b55b"/>
          <path id="Trazado_1008034" data-name="Trazado 1008034" d="M76.291,246.462c2.8-8.208,8.219-10.089,14.766-17.371a26.125,26.125,0,0,0,6.258-16.67l0,0a19.5,19.5,0,0,1-7.777,12.5c-5.037,3.726-13.093,11.223-13.243,21.548" transform="translate(-46.557 -129.628)" fill="#008a3c"/>
          <path id="Trazado_1008035" data-name="Trazado 1008035" d="M31.412,233.161c4.475,7.627,8.807,7.7,13.974,16.069a28.783,28.783,0,0,0-3.321-14.039c-1.776-3.779-6.732-8.744-9.162-11.686a18.276,18.276,0,0,1-3.338-6.648h0c-.022.072-2.605,8.715,1.847,16.3" transform="translate(-17.575 -132.337)" fill="#00b55b"/>
          <path id="Trazado_1008036" data-name="Trazado 1008036" d="M31.412,233.163c4.475,7.627,8.807,7.7,13.974,16.069-2.077-8.353-5.664-12.36-11.134-18.378a18.037,18.037,0,0,1-4.688-13.994c-.022.073-2.605,8.715,1.847,16.3" transform="translate(-17.575 -132.338)" fill="#008a3c"/>
          <path id="Trazado_1008037" data-name="Trazado 1008037" d="M61.2,316.708H73.231l-1.184-3.329H62.38Z" transform="translate(-37.345 -191.24)" fill="#af500e"/>
          <path id="Trazado_1008038" data-name="Trazado 1008038" d="M59.393,289.117H70.9a30.4,30.4,0,0,1-3.241,10.452h-13.8a30.4,30.4,0,0,1-3.24-10.452Z" transform="translate(-30.887 -176.434)" fill="#c96418"/>
          <path id="Trazado_1008039" data-name="Trazado 1008039" d="M188.369,153.333c-.969,0-1.962,1.037-1.767,4.021h6.31a4.331,4.331,0,0,0-4.544-4.021" transform="translate(-113.859 -93.572)" fill="#4e8afb"/>
          <path id="Trazado_1008040" data-name="Trazado 1008040" d="M107.262,204.88c.44-3.453,5.211-5.525,8.978-7.848s2.825-4.458,4.081-7.722,5.776-3.39,7.848-4.96,1.883-3.39,2.7-6.718,6.592-5.085,8.35-5.713a4.545,4.545,0,0,0,3.328-4.018c0-1.946.376-8.79,0-11.678s-2.7-2.888-2.7-2.888l19.747.052a3.038,3.038,0,0,1,2.834,3.1V172.63a3.592,3.592,0,0,1-2.241,3.691c-1.911.791-7.843,1.516-8.5,4.877s-1.186,7.513-3.559,8.831-5.8,1.516-6.789,4.218-1.186,6.261-4.152,8.172-9.145,2.05-9.688,9.029c-.461,5.932,7.777,7.381,7.777,7.381s-20.291-.075-23.618-.075a4.159,4.159,0,0,1-4.395-3.83c0-1.13-.44-6.593,0-10.046" transform="translate(-65.338 -93.572)" fill="#fff"/>
          <path id="Trazado_1008041" data-name="Trazado 1008041" d="M202.515,176.73h15.754c.334,0,.3.517-.033.517H202.481c-.334,0-.3-.517.034-.517" transform="translate(-123.422 -107.85)" fill="#363e66"/>
          <path id="Trazado_1008042" data-name="Trazado 1008042" d="M202.254,186.118h15.754c.334,0,.3.517-.033.517H202.22c-.334,0-.3-.517.034-.517" transform="translate(-123.263 -113.579)" fill="#363e66"/>
          <path id="Trazado_1008043" data-name="Trazado 1008043" d="M203.3,196.289h15.754c.334,0,.3.517-.033.517H203.263c-.334,0-.3-.517.034-.517" transform="translate(-123.899 -119.786)" fill="#363e66"/>
          <path id="Trazado_1008044" data-name="Trazado 1008044" d="M194.43,205.938H213.02c.334,0,.3.517-.034.517H194.4c-.334,0-.3-.517.034-.517" transform="translate(-118.488 -125.674)" fill="#363e66"/>
          <path id="Trazado_1008045" data-name="Trazado 1008045" d="M176.957,214.023h17.691c.334,0,.3.517-.034.517H176.923c-.334,0-.3-.517.034-.517" transform="translate(-107.825 -130.608)" fill="#363e66"/>
          <path id="Trazado_1008046" data-name="Trazado 1008046" d="M215.637,33.663s.532,13.211,5.181,21.108a8.263,8.263,0,0,0,6.728,4.049,62.884,62.884,0,0,0,8.705-.17l-1-8.5-7.5-.125s-5.747-8.371-7.371-14.742c-2.624-3.5-4.748-1.624-4.748-1.624" transform="translate(-131.593 -20.237)" fill="#f7a784"/>
          <path id="Trazado_1008047" data-name="Trazado 1008047" d="M295.261,208.226c.147.25,1.228,9.191,3.274,11.423,2.4,2.62,15.57,15.717,17.836,18.421s.593,6.027-.39,9.378c1.432,1.288,4.774,0,4.774,0l5.274-8.38a25.318,25.318,0,0,1-4.3-5.771c-1.79-3.2-6.858-12.915-13.229-18.157-2.227-1.832-1.891-3.492-1.819-7.13Z" transform="translate(-180.183 -126.937)" fill="#f7a784"/>
          <path id="Trazado_1008048" data-name="Trazado 1008048" d="M341.529,297.891l7.528-4.219a3.279,3.279,0,0,0,1.333-1.5c.7-1.588,2.109-4.632,2.7-5.038.808-.552,2.937,2.8,2.937,2.8l1.178-.694s-.709-3.513-5-6.954c-2.177,4-2.148,7.387-3.6,8.771s-3.688.283-4.361.679-.736,2.043-2.1,3.356c-1.835,1.761-.61,2.789-.61,2.789" transform="translate(-208.174 -172.271)" fill="#d41d46"/>
          <path id="Trazado_1008049" data-name="Trazado 1008049" d="M258.184,203.48c0,.29-.29,5.027.58,7.927s5.911,20.921,6.491,24.4-2.547,5.494-5.1,7.882c.58,1.837,4.115,2.422,4.115,2.422l8.8-4.543a25.317,25.317,0,0,1-.773-7.154c.083-3.669-.049-14.96-2.878-22.71a21.371,21.371,0,0,1-1.293-8.463c.208-3.891.208-4.111.208-4.111Z" transform="translate(-157.529 -121.519)" fill="#f7a784"/>
          <path id="Trazado_1008050" data-name="Trazado 1008050" d="M286.529,145.156c-.117,9.093-3.031,20.749-2.681,20.749H254.006c-.816-4.2,1.166-14.571,3.964-18.418a31.565,31.565,0,0,0,4.042-8.125,16.866,16.866,0,0,0,.621-2.249L285.6,134.2s.684,1.216.885,6.469c.049,1.254.07,2.737.048,4.489" transform="translate(-154.894 -81.895)" fill="#363e66"/>
          <path id="Trazado_1008051" data-name="Trazado 1008051" d="M299.306,140.668c-6.7-.326-19.449-1.027-24.469-1.305a16.871,16.871,0,0,0,.621-2.249l22.964-2.915s.684,1.216.885,6.469" transform="translate(-167.72 -81.895)" fill="#241041"/>
          <path id="Trazado_1008052" data-name="Trazado 1008052" d="M278.771,39.988a8.678,8.678,0,0,1-.039-5.076c.923-2.307,2.207-3.172,4.691-3.653a7.865,7.865,0,0,1,6.229,1.423c1.23,1.115,1.923,5.96,4,7s4.23.846,4.729,2.653-.154,2.884,2.692,4.076,1.961,10.5-7.614,12.5-12.92-.039-13.535-3.73.923-5.422-.115-6.691-.886-1.63-1.038-3.153c-.192-1.923.654-3.461,0-5.345" transform="translate(-169.863 -18.993)" fill="#363e66"/>
          <path id="Trazado_1008053" data-name="Trazado 1008053" d="M270.1,84.516s-.145.017-.409.044c-.973.1-3.564.335-6.436.348-1.2.007-2.457-.027-3.66-.126-1.264-.8-2.261-8.644-.8-9.375,1-.133,10.1-.358,10.1-.358,5.78,3.565,1.2,9.467,1.2,9.467" transform="translate(-157.489 -45.799)" fill="#d41d46"/>
          <path id="Trazado_1008054" data-name="Trazado 1008054" d="M277.871,88.817l-.06.1c-.973.1-3.564.335-6.436.348a13.788,13.788,0,0,1,2.3-2.284c1.6-1.478,2.077-4.673,2.077-4.794Z" transform="translate(-165.607 -50.154)" fill="#363e66"/>
          <path id="Trazado_1008055" data-name="Trazado 1008055" d="M300.764,61.312c-2.363,3.3-3.517,3.352-5.275,3.626s-5.165-1.813-5.165-1.813a2.429,2.429,0,0,0,1.869-1.429.3.3,0,0,0,.01-.035c.339-1.223-1.493-3.756-1.493-3.756l4.023-1.931,1.471-.707s.214,6.133,4.561,6.044" transform="translate(-177.17 -33.727)" fill="#e58563"/>
          <path id="Trazado_1008056" data-name="Trazado 1008056" d="M292.805,62.768c.339-1.223-1.493-3.756-1.493-3.756l4.023-1.931c.571,1.34,1.384,4.433-2.53,5.687" transform="translate(-177.774 -34.834)" fill="#363e66"/>
          <path id="Trazado_1008057" data-name="Trazado 1008057" d="M279.839,53.593s-1.038-1.384-1.935-.57,1.094,3.365,2.72,3.446a4,4,0,0,0-.785-2.876" transform="translate(-169.454 -32.201)" fill="#e58563"/>
          <path id="Trazado_1008058" data-name="Trazado 1008058" d="M282.789,43.717a1.481,1.481,0,0,0-1.015,1.716c.574,2.862,1.365,7.1,3.753,6.839a7.159,7.159,0,0,0,4.828-2.954c.585-1-.027-4.417-.027-4.417a11.3,11.3,0,0,0-2.574-1.247,2.2,2.2,0,0,1-1.408-2.293s-.5,1.452-3.557,2.356" transform="translate(-171.935 -25.241)" fill="#f7a784"/>
          <path id="Trazado_1008059" data-name="Trazado 1008059" d="M303.01,49.044s.141-2.107,1.235-2.416,1.375.836,1.262,1.771c-.093.765-1.027,2.458-2.048,2.272-.309-.056-.449-1.627-.449-1.627" transform="translate(-184.912 -28.424)" fill="#f7a784"/>
          <path id="Trazado_1008060" data-name="Trazado 1008060" d="M298.485,58.173a3.148,3.148,0,0,1-.729,1.962,5.743,5.743,0,0,1-1.751,1.394c-.382.212-.779.394-1.172.586-.121.059-.017.233.1.18a6.244,6.244,0,0,0,3.507-2.91,2.885,2.885,0,0,0,.239-1.2c0-.127-.2-.136-.2-.008" transform="translate(-179.89 -35.444)" fill="#363e66"/>
          <path id="Trazado_1008061" data-name="Trazado 1008061" d="M305.93,47.872a.641.641,0,0,0-.763-.16,1.491,1.491,0,0,0-.669,1.569c.013.089.124.091.178.047a.39.39,0,0,1,.619.2c.078.313-.188.58-.387.781-.086.086.04.227.128.141.283-.276.614-.662.421-1.084a.586.586,0,0,0-.766-.288,1.278,1.278,0,0,1,.495-1.145.446.446,0,0,1,.6.085.7.7,0,0,1,.118.333,2.667,2.667,0,0,0,.027.383c.018.067.121.1.151.021a1,1,0,0,0-.15-.887" transform="translate(-185.81 -29.08)" fill="#363e66"/>
          <path id="Trazado_1008062" data-name="Trazado 1008062" d="M278.46,71.725l2.17-.182s2.575,2.327,5.546,1.635a6.3,6.3,0,0,0,3.847-2.848c.313-.5.2-.523.8-.636a16.123,16.123,0,0,1,3.974.139c1.227.089,3.079.416,3.568,1.745A4.284,4.284,0,0,1,298.5,73.4a28.4,28.4,0,0,1-1.461,6.958c-.731,2.114-1.755,4.223-1.866,6.491-.148,3.07,2.894,11.038,3.042,12.82l-24.479-.7s1.092-4.7,2.077-7.866c.62-1.99-.412-3.874-1.494-5.656a4.175,4.175,0,0,1,0-3.73c.891-1.733,1.928-1.6,2.423-3.035.376-1.09-.1-3.777.189-5.55a1.691,1.691,0,0,1,1.528-1.412" transform="translate(-167.048 -42.475)" fill="#d41d46"/>
          <path id="Trazado_1008063" data-name="Trazado 1008063" d="M304.618,84.488c-1.449.362,1.416,5.812,2.54,6.74h4.787s2-2.979,1.416-4-2.2,1.221-2.637,3.077c.391-4.835-.733-6.642-1.514-6.545s-.732,4.982-.146,6.545c-2.491-5.372-3.858-5.958-4.445-5.812" transform="translate(-185.649 -51.109)" fill="#00b55b"/>
          <path id="Trazado_1008064" data-name="Trazado 1008064" d="M337.74,77.488s-.126.06-.361.2a22.113,22.113,0,0,0-5.353,5.069q-.374.465-.764.982a27.412,27.412,0,0,1-4.1-4.691c-2.233-3.127-1.129-8.438.447-8.339,4.388.276,10.126,6.775,10.126,6.775" transform="translate(-198.884 -43.152)" fill="#d41d46"/>
          <path id="Trazado_1008065" data-name="Trazado 1008065" d="M322.048,105.146s-.253,8.2-1.51,10.6-4.24,3.844-6.753,4.565a6.749,6.749,0,0,1-1.842.225c-2.507,0-5.614-1.038-6.481-2.868-.9-1.9-1.628-11.444-1.861-14.826a1.1,1.1,0,0,1,1.089-1.19h17.419c.079,1.681-.235,3.042-.06,3.494" transform="translate(-185.271 -62.033)" fill="#c96418"/>
          <path id="Trazado_1008066" data-name="Trazado 1008066" d="M335.114,105.146s-.253,8.2-1.509,10.6-4.24,3.844-6.753,4.565a6.749,6.749,0,0,1-1.842.225,6.287,6.287,0,0,0,2.137-3.73c.5-2.055.9-12.629.994-15.155h7.035c.079,1.681-.235,3.042-.06,3.494" transform="translate(-198.337 -62.033)" fill="#af500e"/>
          <path id="Trazado_1008067" data-name="Trazado 1008067" d="M336.371,98.318c-.656,7.212-11.4,14-12.414,14.5s-3.157,1.413-4.984.528c-1.685-.817-2.2-.429-2.553-1.352a1.152,1.152,0,0,1-.889-.2,2.322,2.322,0,0,1-.378-.31c-.38-.38,4.687-3.484,6.9-2.28a22.662,22.662,0,0,0,7.03-11.718l-3.635-3.805a22.1,22.1,0,0,1,5.353-5.068c2.177,2.107,5.88,6.237,5.566,9.7" transform="translate(-192.31 -54.081)" fill="#f7a784"/>
          <path id="Trazado_1008068" data-name="Trazado 1008068" d="M350.936,109.482a3.846,3.846,0,0,1,3.438-.585c-2.273-1.278-3.137-.379-3.438.585" transform="translate(-214.159 -66.068)" fill="#363e66"/>
          <path id="Trazado_1008069" data-name="Trazado 1008069" d="M327.99,75.623l6.435-2.269a53.6,53.6,0,0,0,2.374-6.232c.392-1.774.453-3.822-1.324-4.248-1.2-.288-2.006-.225-2.738,1.462-.106.244-.28.654-.5,1.176l-.293.694c-.189.448-.4.946-.62,1.472l-.247.588c-.37.88-.762,1.814-1.138,2.711l-.207.493c-.946,2.257-1.739,4.154-1.739,4.154" transform="translate(-200.156 -38.289)" fill="#ab4b22"/>
          <path id="Trazado_1008070" data-name="Trazado 1008070" d="M338.131,70.488a34.621,34.621,0,0,0,3.79.069,5.318,5.318,0,0,0-3.5-.763l-.293.694" transform="translate(-206.345 -42.57)" fill="#363e66"/>
          <path id="Trazado_1008071" data-name="Trazado 1008071" d="M335.9,75.989a27.733,27.733,0,0,1,3.377.737,3.553,3.553,0,0,0-3.13-1.325l-.247.588" transform="translate(-204.986 -46.012)" fill="#363e66"/>
          <path id="Trazado_1008072" data-name="Trazado 1008072" d="M332.453,84.318a33.462,33.462,0,0,0,3.459.637,3.546,3.546,0,0,0-3.252-1.13l-.207.493" transform="translate(-202.88 -51.138)" fill="#363e66"/>
          <path id="Trazado_1008073" data-name="Trazado 1008073" d="M333,84.874a25.889,25.889,0,0,1-1.762,4.9h-6.547c.016-.065.032-.134.051-.21.429-1.781,1.646-6.573,2.523-7.373a19.282,19.282,0,0,1,2.069,3.761A18.8,18.8,0,0,1,333,84.874" transform="translate(-198.141 -50.159)" fill="#fff"/>
          <path id="Trazado_1008074" data-name="Trazado 1008074" d="M329.41,85.955a10.6,10.6,0,0,0-4.592,3.612c.122-.51.31-1.266.535-2.105.562-2.092,1.361-4.7,1.988-5.268a19.874,19.874,0,0,1,1.589,2.69c.318.65.48,1.071.48,1.071" transform="translate(-198.221 -50.159)" fill="#ebf0fe"/>
          <path id="Trazado_1008075" data-name="Trazado 1008075" d="M329.41,90.168a10.6,10.6,0,0,0-4.592,3.612c.122-.51.31-1.266.535-2.105a10.655,10.655,0,0,1,3.577-2.578c.318.65.48,1.071.48,1.071" transform="translate(-198.221 -54.372)" fill="#c1d1f4"/>
          <path id="Trazado_1008076" data-name="Trazado 1008076" d="M328.22,107.421q-.006,2.4-.149,4.8t-.425,4.788q-.158,1.344-.36,2.682a.082.082,0,0,0,.162.021q.358-2.377.58-4.772t.3-4.8q.047-1.352.049-2.706c0-.1-.162-.126-.162-.021" transform="translate(-199.726 -65.512)" fill="#363e66"/>
          <path id="Trazado_1008077" data-name="Trazado 1008077" d="M311.765,139.237a2.587,2.587,0,0,1-1.172-2.373c.009-.1-.153-.126-.162-.021a2.751,2.751,0,0,0,1.235,2.524c.088.057.187-.074.1-.131" transform="translate(-189.435 -83.467)" fill="#363e66"/>
          <path id="Trazado_1008078" data-name="Trazado 1008078" d="M299.692,168.7a33.225,33.225,0,0,0-3.431,2.043,33.64,33.64,0,0,0-3.184,2.455A34.109,34.109,0,0,0,290.224,176a33.759,33.759,0,0,0-2.513,3.118,33.276,33.276,0,0,0-2.124,3.4c-.078.143-.154.287-.23.431-.049.093.1.154.152.062a32.95,32.95,0,0,1,2.063-3.408,33.8,33.8,0,0,1,8.363-8.428,32.914,32.914,0,0,1,3.391-2.09q.215-.115.433-.227c.093-.048.029-.2-.065-.15" transform="translate(-174.134 -102.946)" fill="#241041"/>
          <path id="Trazado_1008079" data-name="Trazado 1008079" d="M290.968,164.685a14.376,14.376,0,0,1-5.786-3.275,14.1,14.1,0,0,1-1.31-1.393c-.067-.081-.2.02-.128.1a14.467,14.467,0,0,0,2.442,2.346,14.63,14.63,0,0,0,2.919,1.718,14.209,14.209,0,0,0,1.8.654c.1.029.163-.122.062-.151" transform="translate(-173.143 -97.632)" fill="#241041"/>
          <path id="Trazado_1008080" data-name="Trazado 1008080" d="M249.906,309.2h9.161a3.277,3.277,0,0,0,1.908-.613c1.412-1.011,4.168-2.921,4.886-2.968.977-.065.9,3.7.9,3.7h1.367s1.377-3.182-.577-8.326c-3.907,2.344-5.6,5.274-7.554,5.73s-3.321-1.628-4.1-1.628-1.671,1.386-3.516,1.823c-2.475.586-2.475,2.279-2.475,2.279" transform="translate(-152.505 -183.686)" fill="#d41d46"/>
          <path id="Trazado_1008081" data-name="Trazado 1008081" d="M242.77,77.415s-3.253,1.02-1.913,4.146a14.9,14.9,0,0,1,1.913-4.146" transform="translate(-146.785 -47.243)" fill="#363e66"/>
          <path id="Trazado_1008082" data-name="Trazado 1008082" d="M368.048,231.9a11.381,11.381,0,0,1-2.949,8.133,14.294,14.294,0,0,1-8.063,4.08v4h-8.553v-4a14.221,14.221,0,0,1-8.3-4.3,12.222,12.222,0,0,1-2.991-8.5H348.12a3.433,3.433,0,0,0,1.3,2.865,5.021,5.021,0,0,0,3.2,1.02,5.435,5.435,0,0,0,3.06-.838,2.687,2.687,0,0,0,1.062-3.326,2.139,2.139,0,0,0-.727-.852q-.517-.378-.964-.643a6.9,6.9,0,0,0-1.411-.559q-.965-.293-1.509-.433t-1.775-.447q-1.258-.308-1.914-.475t-1.9-.559a18.486,18.486,0,0,1-1.956-.713q-.713-.321-1.775-.88a8.157,8.157,0,0,1-1.691-1.132,15.628,15.628,0,0,1-1.355-1.426,7.061,7.061,0,0,1-1.132-1.788,11.56,11.56,0,0,1-.671-2.18,12.75,12.75,0,0,1-.266-2.669,10.75,10.75,0,0,1,2.726-7.574,13.268,13.268,0,0,1,7.672-3.857v-3.773h8.552V204.9a12.686,12.686,0,0,1,7.533,4.053,11.733,11.733,0,0,1,2.641,7.882l-10.621.028a2.946,2.946,0,0,0-1.132-2.487,4.581,4.581,0,0,0-2.865-.866,5.25,5.25,0,0,0-2.641.629,1.974,1.974,0,0,0-1.1,1.8,2.033,2.033,0,0,0,.363,1.174,3.385,3.385,0,0,0,.839.867,6.5,6.5,0,0,0,1.5.7q1.02.364,1.719.559T355,219.8h.028a36.318,36.318,0,0,1,7.155,2.432,10.125,10.125,0,0,1,5.87,9.279Z" transform="translate(-205.772 -122.703)" fill="#363e66"/>
          <path id="Trazado_1008083" data-name="Trazado 1008083" d="M165.006,119.283c.065.194,5.82,3.169,9.83,3.233s6.338-11.7,6.338-11.7l-13.9,2.2Z" transform="translate(-100.695 -67.623)" fill="#e58563"/>
          <path id="Trazado_1008084" data-name="Trazado 1008084" d="M146.059,97.032l7.858-5.948s-3.707-9.971-7.531-10.7-5.566,5.621-4.311,9.6a21.7,21.7,0,0,0,3.984,7.04" transform="translate(-86.456 -49.022)" fill="#ef9d30"/>
          <path id="Trazado_1008085" data-name="Trazado 1008085" d="M123.208,213.351s-5.109-.168-13.372,6.7c-.763-4.449,1.558-29.619,1.177-34.576s-7.373-21.483-7.373-21.483h-2.67s3.432,14.491,1.78,20.211-9.026,31.017-9.026,31.017a139.352,139.352,0,0,0-14.618,4.831c-1-3.282,5.078-20.953,8.6-30.687a31.24,31.24,0,0,0,1.694-13.9,76.457,76.457,0,0,0-1.649-10.708q-.03-.1-.061-.2c-.049-.169-.1-.338-.148-.507-1.158-3.973-1.951-7.938-1.951-7.938,1.221-.824,3.442-1.132,6.112-1.122q.247,0,.5,0c8.444.148,20.878,3.218,20.878,3.218s9.5,18.366,9.882,23.832.247,31.312.247,31.312" transform="translate(-48.207 -94.58)" fill="#4e8afb"/>
          <path id="Trazado_1008086" data-name="Trazado 1008086" d="M105.579,154.991a12.967,12.967,0,0,1-4.512,9.563c-.05-.168-.1-.338-.148-.507a12.671,12.671,0,0,0,4.161-9.06q.247,0,.5,0" transform="translate(-61.586 -94.581)" fill="#293254"/>
          <path id="Trazado_1008087" data-name="Trazado 1008087" d="M124.649,63.962s-1.332,2.474-5.632,2.474a7.064,7.064,0,0,1-6.7-5.289c3.121-.305,3.578-.723,3.882-1.408s.989-5.137.989-5.137l.62.3,4.593,2.213.647,3.387s-.819,1.379-.283,2.33l.017.03a4.773,4.773,0,0,0,1.865,1.1" transform="translate(-68.543 -33.32)" fill="#e58563"/>
          <path id="Trazado_1008088" data-name="Trazado 1008088" d="M132.908,64.578a4.217,4.217,0,0,1-3.32-1.759,5.584,5.584,0,0,1,.062-5.353l2.894,1.395.647,3.387s-.819,1.379-.283,2.33" transform="translate(-78.683 -35.069)" fill="#363e66"/>
          <path id="Trazado_1008089" data-name="Trazado 1008089" d="M131.941,42.473s1.623-.767,1.917-1.485a10.966,10.966,0,0,0,.189-2.89,2.011,2.011,0,0,0,.189-2.43c-.783-1.512-4.234-4.706-7.717-4.085s-8.231,3.581-4.2,10.849c3.375,3.861,9.618.04,9.618.04" transform="translate(-73.705 -19.226)" fill="#363e66"/>
          <path id="Trazado_1008090" data-name="Trazado 1008090" d="M150.165,55.405s1.108-1.287,1.82-.643-.118,3-2.294,3.289a3.267,3.267,0,0,1,.475-2.646" transform="translate(-91.311 -33.308)" fill="#e58563"/>
          <path id="Trazado_1008091" data-name="Trazado 1008091" d="M126.6,48.618s-.168,2.609,1.473,3.956,3.159,2.1,5.177,1.49c2.23-.672,3.281-5.235,3.66-9.149-1.978,0-3.661-.295-5.092-1.978-.8,1.094-1.6,2.188-3.787,2.062a10.909,10.909,0,0,0-1.431,3.619" transform="translate(-77.253 -26.202)" fill="#f7a784"/>
          <path id="Trazado_1008092" data-name="Trazado 1008092" d="M124.286,49.694c0-.176-.557-2.524-2.084-2.494s-.763,3.287.059,3.991a1.29,1.29,0,0,0,1.5.323c.205-.029.528-1.819.528-1.819" transform="translate(-74.039 -28.803)" fill="#f7a784"/>
          <path id="Trazado_1008093" data-name="Trazado 1008093" d="M123.891,48.994a1.137,1.137,0,0,0-.7-.476.436.436,0,0,0-.485.443c.01.1.172.082.162-.023a.25.25,0,0,1,.2-.244.426.426,0,0,1,.344.071,2.051,2.051,0,0,1,.519.54,3.258,3.258,0,0,1,.579,1.4.082.082,0,0,0,.162-.023,3.429,3.429,0,0,0-.778-1.686" transform="translate(-74.881 -29.607)" fill="#363e66"/>
          <path id="Trazado_1008094" data-name="Trazado 1008094" d="M125.664,52.891a1.274,1.274,0,0,0-.7.016.6.6,0,0,0-.353.4,1.169,1.169,0,0,0,.426,1.087c.072.075.2-.025.129-.1a1.068,1.068,0,0,1-.407-.9.447.447,0,0,1,.292-.341,1.175,1.175,0,0,1,.592,0c.1.018.125-.145.021-.162" transform="translate(-76.027 -32.252)" fill="#363e66"/>
          <path id="Trazado_1008095" data-name="Trazado 1008095" d="M96.806,69.924s2.363,5.055,5.769,5.275a7.885,7.885,0,0,0,6.264-2.363c2.582.824,5.44,1.759,5.495,2.967S112.8,89.486,112.8,89.486l5.017,16.6-27.966-.762S86.955,90.583,86.8,85.749c-.254-7.754.668-13.792,2.372-15.33s7.638-.495,7.638-.495" transform="translate(-52.942 -42.46)" fill="#f1c830"/>
          <path id="Trazado_1008096" data-name="Trazado 1008096" d="M79.278,308.9h22.466s-.539-2.741-4.731-4.773c-4.027-1.953-5.56-3.673-7.381-3.533S81.044,304.6,79.278,308.9" transform="translate(-48.379 -183.435)" fill="#293254"/>
          <path id="Trazado_1008097" data-name="Trazado 1008097" d="M158.124,309.12H180.59s-.7-2.793-4.991-4.825c-4.044-1.916-4.315-3.493-6.979-3.339-1.824.105-8.729,3.865-10.5,8.164" transform="translate(-96.495 -183.652)" fill="#293254"/>
          <path id="Trazado_1008098" data-name="Trazado 1008098" d="M138.128,178.431h-12.1c-.312,0-.378.487-.063.487h12.1c.312,0,.378-.487.063-.487" transform="translate(-76.746 -108.888)" fill="#293254"/>
          <path id="Trazado_1008099" data-name="Trazado 1008099" d="M102.341,283.471a17.337,17.337,0,0,0-9.74,5.555c-.209.237.184.531.392.3a16.789,16.789,0,0,1,9.417-5.364c.309-.059.243-.545-.068-.486" transform="translate(-56.473 -172.986)" fill="#293254"/>
          <path id="Trazado_1008100" data-name="Trazado 1008100" d="M171.287,291.483a7.088,7.088,0,0,1-6.38-2.538c-.2-.245-.585.058-.385.3a7.593,7.593,0,0,0,6.833,2.72.246.246,0,0,0-.068-.486" transform="translate(-100.366 -176.274)" fill="#293254"/>
          <path id="Trazado_1008101" data-name="Trazado 1008101" d="M171.128,39.555a12.544,12.544,0,0,1-6.117,7.314,15.755,15.755,0,0,1-9.889,1.191l-1.5,4.14-8.859-3.22,1.5-4.14a15.674,15.674,0,0,1-6.978-7.584,13.471,13.471,0,0,1,.1-9.927l11.32,4.115a3.784,3.784,0,0,0,.268,3.457,5.532,5.532,0,0,0,2.931,2.261,5.988,5.988,0,0,0,3.486.284,2.963,2.963,0,0,0,2.353-3.045,2.358,2.358,0,0,0-.432-1.156q-.393-.586-.757-1.029A7.591,7.591,0,0,0,157.3,31.1q-.889-.667-1.4-1.017t-1.67-1.131q-1.187-.792-1.8-1.213t-1.759-1.295a20.419,20.419,0,0,1-1.758-1.475q-.618-.6-1.507-1.58a9,9,0,0,1-1.325-1.809,17.185,17.185,0,0,1-.867-1.987,7.78,7.78,0,0,1-.5-2.279,12.781,12.781,0,0,1,.126-2.511,14.093,14.093,0,0,1,.73-2.865,11.848,11.848,0,0,1,5.675-6.819,14.623,14.623,0,0,1,9.4-1.107L162.064.107l8.859,3.22-1.442,3.966a13.987,13.987,0,0,1,6.277,7.034,12.932,12.932,0,0,1-.232,9.158l-11.012-3.97a3.246,3.246,0,0,0-.236-3,5.046,5.046,0,0,0-2.641-1.976,5.79,5.79,0,0,0-2.973-.343,2.176,2.176,0,0,0-1.823,1.452A2.241,2.241,0,0,0,156.776,17a3.725,3.725,0,0,0,.542,1.213A7.16,7.16,0,0,0,158.6,19.5q.919.761,1.57,1.226t1.99,1.379l.029.011a40.032,40.032,0,0,1,6.5,5.213,11.16,11.16,0,0,1,2.586,11.822Z" transform="translate(-84.451 -0.065)" fill="#d41d46"/>
          <path id="Trazado_1008102" data-name="Trazado 1008102" d="M126.86,111.472a13.323,13.323,0,0,1-3.245.2,8.109,8.109,0,0,1-3.014,1.3,4.491,4.491,0,0,1-2.017-.567,9.943,9.943,0,0,0-6.027-.73c-3.839.727-8.917,1.658-10.476,1.8-2.61.245-3.589-.163-5.547-2.937s-3.426-11.583-3.426-11.583c4.976-4.16,7.749-.49,7.749-.49l1.311,6.139.2.914.044.207s7.412.876,11.96,1.1a5.154,5.154,0,0,0,3.434-1.1c.578-.454,1.161-.925,1.573-1.291,1.15-1.022,2.657-.179,3.6-.179s2.172-.409,2.325-.154-.434,1.431-1.354,1.609-2.2.077-2.682.384,1.584,3.065,3.986,3.985c.817.2,2.784-1.022,2.989-.792s-.588,1.865-1.38,2.171" transform="translate(-56.82 -59.183)" fill="#f7a784"/>
          <path id="Trazado_1008103" data-name="Trazado 1008103" d="M91.707,72.061c-2.577,2.773-2.079,9.238-1.651,13.6,9.205.685,11.045.285,11.045.285s-.817-9.179-1.845-12.048-5.669-3.867-7.55-1.842" transform="translate(-54.746 -43.326)" fill="#f1c830"/>
          <path id="Trazado_1008104" data-name="Trazado 1008104" d="M109.712,117.482a1.16,1.16,0,0,1-.173.135l-4.389-.371a27.832,27.832,0,0,1,4.367-.677Z" transform="translate(-64.168 -71.136)" fill="#363e66"/>
          <path id="Trazado_1008105" data-name="Trazado 1008105" d="M101.782,108.618l-11.037-.473c-.322-.014-.39.473-.065.487l11.037.473c.322.014.39-.473.065-.487" transform="translate(-55.208 -65.995)" fill="#363e66"/>
          <path id="Trazado_1008106" data-name="Trazado 1008106" d="M116.842,94.554l-1.606-9.534a.246.246,0,0,0-.486.068q.8,4.768,1.606,9.534a.246.246,0,0,0,.486-.068" transform="translate(-70.024 -51.76)" fill="#363e66"/>
          <path id="Trazado_1008107" data-name="Trazado 1008107" d="M176.75,205.332l-8.883-.44a69.9,69.9,0,0,1-5.285-6.9c-1.151-2.07-1.988-4.606.073-5.8,1.395-.808,2.422-1.027,3.965.808.223.265.593.712,1.064,1.282l.624.758,1.322,1.607.527.642c.79.962,1.627,1.983,2.431,2.962q.222.272.442.539l3.719,4.542" transform="translate(-98.493 -116.919)" fill="#ab4b22"/>
          <path id="Trazado_1008108" data-name="Trazado 1008108" d="M171.757,199.251a45.052,45.052,0,0,1-4.709,1.5,6.935,6.935,0,0,1,4.084-2.254l.624.758" transform="translate(-101.941 -121.131)" fill="#363e66"/>
          <path id="Trazado_1008109" data-name="Trazado 1008109" d="M177.7,205.2a36.214,36.214,0,0,0-3.945,2.178c.489-1.753,2.374-2.547,3.417-2.82l.528.642" transform="translate(-106.034 -124.834)" fill="#363e66"/>
          <path id="Trazado_1008110" data-name="Trazado 1008110" d="M184.852,214.349a43.649,43.649,0,0,1-4.085,2.083c.635-1.843,2.7-2.441,3.643-2.622l.442.539" transform="translate(-110.313 -130.478)" fill="#363e66"/>
          <path id="Trazado_1008111" data-name="Trazado 1008111" d="M183.979,232.866h.956c-.13-.295-1.274-2.864-4.369-9.2-3.041-2.526-10.98-1.5-10.98-1.5a52.2,52.2,0,0,0,10.207,10.568Z" transform="translate(-103.49 -135.454)" fill="#f1c830"/>
          <path id="Trazado_1008112" data-name="Trazado 1008112" d="M196.57,230.281a76.364,76.364,0,0,0-6.107-12.552s-3.9,2.547-4.9,6.318c2.5,3.789,3.738,5.484,4.329,6.234Z" transform="translate(-113.243 -132.869)" fill="#ef9d30"/>
          <path id="Trazado_1008113" data-name="Trazado 1008113" d="M215.746,234.9a3.425,3.425,0,0,0-2.328-2.232c-1.112-.3-2.381-.036-3.371-.626-1.109-.662-1.648-2.282-2.934-2.4-1.1-.1-1.895.977-2.453,1.926l-1.957,3.323a4.359,4.359,0,0,0-.663,1.567,1.484,1.484,0,0,0,.611,1.495l12.472.113a3.425,3.425,0,0,0,.622-3.164" transform="translate(-123.285 -140.134)" fill="#993513"/>
          <path id="Trazado_1008114" data-name="Trazado 1008114" d="M227.372,232.885a1.108,1.108,0,0,1,.127-.276c.586-.915,1.578-.293,2.374-.688.435-.216.792-.56,1.207-.814a1.521,1.521,0,0,1,1.382-.212c.644.293.8,1.183,1.406,1.554a2.213,2.213,0,0,0,1,.24c.731.057,1.522.365,1.549,1.221.012.4-.23.773-.2,1.182a2.314,2.314,0,0,0,.522,1.128,2.543,2.543,0,0,1,.583,1.2c.04.448-.279.96-.729.944h-9.425a1.107,1.107,0,0,1-.821-2.037,2.369,2.369,0,0,0,1.029-1.746,7.159,7.159,0,0,1-.009-1.7" transform="translate(-137.795 -140.849)" fill="#00b55b"/>
          <path id="Trazado_1008115" data-name="Trazado 1008115" d="M171.819,240.949a35.645,35.645,0,0,1-6.879-1.3c-2.567-.912-2.3-2.533-1.452-3.175s3.374.03,5.674,1.115a22.782,22.782,0,0,1,3.546,1.993l-.777,1.283" transform="translate(-99.407 -144.159)" fill="#00b55b"/>
          <path id="Trazado_1008116" data-name="Trazado 1008116" d="M173.5,241.822l-4.315-1.09-1.22-.308c-.154-.039-.2.2-.047.241l4.316,1.09,1.22.308c.154.039.2-.2.047-.241" transform="translate(-102.416 -146.717)" fill="#008a3c"/>
          <path id="Trazado_1008117" data-name="Trazado 1008117" d="M186.913,234.127c-.024-.165-3.156-8.809.141-9.374s2.355,9.633,2.355,9.633Z" transform="translate(-113.23 -137.142)" fill="#00b55b"/>
          <path id="Trazado_1008118" data-name="Trazado 1008118" d="M189.931,229.97q-.1-.768-.216-1.532c-.024-.155-.27-.141-.245.016a52.931,52.931,0,0,1,.559,5.4q.04.772.058,1.546c0,.159.249.142.246-.016a52.961,52.961,0,0,0-.4-5.414" transform="translate(-115.623 -139.338)" fill="#008a3c"/>
          <path id="Trazado_1008119" data-name="Trazado 1008119" d="M180.75,234.78a7.054,7.054,0,0,1-1.337-.31l-.384-.106c-.488-.138-1.112-.321-1.911-.564-5.929-4.37-6.466-8.256-5.343-9.057,3.7-2.781,8.974,10.038,8.974,10.038" transform="translate(-104.538 -136.908)" fill="#00b55b"/>
          <path id="Trazado_1008120" data-name="Trazado 1008120" d="M182.717,237.621l-.384-.106q-.387-.527-.774-1.056-1.222-1.672-2.425-3.359t-2.4-3.4c-.09-.13.114-.267.2-.137q.67.962,1.346,1.919,1.195,1.692,2.408,3.372,1,1.388,2.02,2.767" transform="translate(-107.841 -140.06)" fill="#008a3c"/>
          <path id="Trazado_1008121" data-name="Trazado 1008121" d="M206.751,279.747c-.681,0-3.89.03-7.783.056-6.728.046-15.5.083-16.8-.056-2.049-.219-3.073-.878-2.927-3.584.117-2.171,2.07-15.491,2.839-20.682.19-1.283.307-2.069.307-2.069l16.441-.288,8.651-.152s.132.969.339,2.508c.744,5.527,2.456,18.412,2.513,20.243a3.78,3.78,0,0,1-3.584,4.023" transform="translate(-109.376 -154.376)" fill="#c96418"/>
          <path id="Trazado_1008122" data-name="Trazado 1008122" d="M226.76,278.556a3.04,3.04,0,0,0,1.269,1.725h9.347a3.968,3.968,0,0,0,1.924-3.594c-.074-2.368-2.886-23.012-2.886-23.012l-8.75.154c-.189,4.3-1.617,18.316-1.267,22.6a11.407,11.407,0,0,0,.362,2.127" transform="translate(-138.126 -154.805)" fill="#af500e"/>
          <path id="Trazado_1008123" data-name="Trazado 1008123" d="M252.513,301.492a.123.123,0,0,0-.246.016,10.318,10.318,0,0,1-.932,5.282.123.123,0,0,0,.222.106,10.691,10.691,0,0,0,.99-4.186,10.506,10.506,0,0,0-.035-1.218" transform="translate(-153.37 -183.918)" fill="#363e66"/>
          <path id="Trazado_1008124" data-name="Trazado 1008124" d="M231.049,273.486q-.279,1.508-.481,3.03t-.327,3.05q-.125,1.529-.173,3.064t-.019,3.067q.029,1.534.136,3.065c.009.127.018.254.028.381a.123.123,0,0,0,.245-.016q-.116-1.522-.156-3.048t0-3.053q.038-1.533.154-3.063t.308-3.036q.192-1.514.46-3.017c.022-.125.045-.251.068-.376a.123.123,0,0,0-.241-.047" transform="translate(-140.38 -166.836)" fill="#363e66"/>
          <path id="Trazado_1008125" data-name="Trazado 1008125" d="M212.287,255.48H186.548c.19-1.283.308-2.069.308-2.069l16.441-.288,8.651-.152s.132.969.339,2.508" transform="translate(-113.841 -154.376)" fill="#363e66"/>
          <path id="Trazado_1008126" data-name="Trazado 1008126" d="M183.046,251.7h30.1s-.433-2.478-1.734-3.1H184.285a7.716,7.716,0,0,0-1.239,3.1" transform="translate(-111.704 -151.708)" fill="#c96418"/>
          <path id="Trazado_1008127" data-name="Trazado 1008127" d="M374.3,144.6a3.754,3.754,0,1,1-3.763-3.746A3.755,3.755,0,0,1,374.3,144.6" transform="translate(-223.833 -85.959)" fill="#ef9d30"/>
          <path id="Trazado_1008128" data-name="Trazado 1008128" d="M239.374,110.873a3.754,3.754,0,1,1-3.763-3.746,3.755,3.755,0,0,1,3.763,3.746" transform="translate(-141.496 -65.374)" fill="#4e8afb"/>
          <path id="Trazado_1008129" data-name="Trazado 1008129" d="M352.8,166.9a2.182,2.182,0,1,1-2.187-2.177A2.182,2.182,0,0,1,352.8,166.9" transform="translate(-212.635 -100.521)" fill="#d41d46"/>
          <path id="Trazado_1008130" data-name="Trazado 1008130" d="M63.967,154.892a2.182,2.182,0,1,1-2.187-2.177,2.182,2.182,0,0,1,2.187,2.177" transform="translate(-36.373 -93.195)" fill="#f1c830"/>
          <path id="Trazado_1008131" data-name="Trazado 1008131" d="M49.626,177.216a10.745,10.745,0,0,1-7.526,1.917,4.387,4.387,0,0,0,.456-2.253,3.327,3.327,0,0,0-2.137-2.858,2.348,2.348,0,0,0-1.7-.035,1.992,1.992,0,0,0-1.15,1.37,3.136,3.136,0,0,0,1.9,3.447,7.294,7.294,0,0,0,2.016.644,5,5,0,0,1-.367.514,4.788,4.788,0,0,1-3.33,1.739,6.326,6.326,0,0,1-3.972-1.164c-2.561-1.746-3.627-4.825-3.923-7.79-.038-.381-.064-.764-.08-1.146-.011-.25-.4-.194-.386.054.145,3.247,1.044,6.748,3.7,8.858a6.994,6.994,0,0,0,4.223,1.589,5.167,5.167,0,0,0,3.777-1.571,5.389,5.389,0,0,0,.774-1.017,11.437,11.437,0,0,0,2.3.059,11.1,11.1,0,0,0,4.656-1.4,11.243,11.243,0,0,0,1.012-.649c.2-.147-.038-.452-.242-.306m-8.545,1.741c-1.327-.3-2.835-1.017-3.144-2.481a1.972,1.972,0,0,1,.407-1.771,1.621,1.621,0,0,1,1.448-.449,2.9,2.9,0,0,1,2.32,2.26,3.924,3.924,0,0,1-.417,2.56c-.205-.034-.41-.072-.613-.118" transform="translate(-17.954 -104.621)" fill="#293254"/>
          <path id="Trazado_1008132" data-name="Trazado 1008132" d="M257.937,1.606a5.742,5.742,0,0,0-5.911,1.278,7.068,7.068,0,0,0-12.654,2.942,7.338,7.338,0,0,0,4.4,7.916,6.75,6.75,0,0,0,1.135.351c.246.053.294-.334.051-.387a7.01,7.01,0,0,1-5.314-6.444,6.948,6.948,0,0,1,4.99-6.63,6.777,6.777,0,0,1,7.113,2.528,5.347,5.347,0,0,0-1.087,1.684,3.561,3.561,0,0,0-.228,2.132,1.969,1.969,0,0,0,1.122,1.5,1.344,1.344,0,0,0,1.6-.715,3.159,3.159,0,0,0,.177-2.156,6.841,6.841,0,0,0-1.08-2.406,5.56,5.56,0,0,1,4.574-1.5,4.5,4.5,0,0,1,.964.27.2.2,0,0,0,.148-.361m-4.923,4.41a2.267,2.267,0,0,1-.405,1.846.933.933,0,0,1-1.472-.2,2.527,2.527,0,0,1-.345-1.884,4.721,4.721,0,0,1,1.188-2.3c.1.143.191.29.278.441a6.069,6.069,0,0,1,.757,2.1" transform="translate(-146.004 -0.001)" fill="#293254"/>
          <path id="Trazado_1008133" data-name="Trazado 1008133" d="M303.925,292.913a2.327,2.327,0,0,0-2.327-1.582,2.526,2.526,0,0,0-.456.07,13.281,13.281,0,0,0-.242-2.7,9.312,9.312,0,0,0-1.376-3.59,3,3,0,0,0-3.137-1.368,3.733,3.733,0,0,0-2.366,2.576,11.724,11.724,0,0,0-.522,2.557,2.807,2.807,0,0,0-.44-.265,1.7,1.7,0,0,0-1.551,0,2.127,2.127,0,0,0-.893,1.045,6.493,6.493,0,0,0-.288,3.208,12.114,12.114,0,0,0,1.98,5.515q.129.2.269.386h.491c-.1-.125-.195-.257-.285-.386a11.815,11.815,0,0,1-1.614-3.293,11.592,11.592,0,0,1-.511-3.114,4.091,4.091,0,0,1,.6-2.646,1.269,1.269,0,0,1,1.2-.5,2.039,2.039,0,0,1,1,.518c-.023.351-.035.7-.031,1.045a14.351,14.351,0,0,0,.16,2.124,10.3,10.3,0,0,0,.46,2,1.477,1.477,0,0,0,.951,1.033.892.892,0,0,0,.986-.663,3,3,0,0,0-.023-1.532,9.141,9.141,0,0,0-.581-1.836,7.221,7.221,0,0,0-1.512-2.335c.019-.246.043-.491.074-.733a6.96,6.96,0,0,1,1.138-3.356,2.36,2.36,0,0,1,2.9-.822,4.42,4.42,0,0,1,2.031,2.681,12.543,12.543,0,0,1,.737,4.564,3.87,3.87,0,0,0-1.847,1.734,9.655,9.655,0,0,0-.737,1.812,3.1,3.1,0,0,0-.249,1.937,1.022,1.022,0,0,0,1.189.7c.526-.164.764-.744.967-1.2a13.109,13.109,0,0,0,1.064-4.685,1.885,1.885,0,0,1,1.918.425,3.457,3.457,0,0,1,.768,2.615,7.84,7.84,0,0,1-.928,3.231c-.055.1-.109.2-.168.292q-.117.2-.246.386h.46c.082-.125.16-.253.23-.386a8.275,8.275,0,0,0,.822-2.081,5.671,5.671,0,0,0-.066-3.387m-8.5-.14a5.074,5.074,0,0,1,.269,1.54c-.012.355-.156.967-.643.854-.456-.109-.643-.768-.744-1.154a13.681,13.681,0,0,1-.366-1.82,14.012,14.012,0,0,1-.1-2.459,8.113,8.113,0,0,1,1.582,3.04m5.09,1a13.073,13.073,0,0,1-.468,1.723,5.986,5.986,0,0,1-.7,1.551.585.585,0,0,1-.6.288.765.765,0,0,1-.5-.565,1.949,1.949,0,0,1,.1-.99c.082-.292.179-.585.273-.877a5.066,5.066,0,0,1,1.73-2.732,3.286,3.286,0,0,1,.382-.21,12.857,12.857,0,0,1-.222,1.812" transform="translate(-177.13 -173.105)" fill="#293254"/>
          <path id="Trazado_1008134" data-name="Trazado 1008134" d="M24.919,283.793a9.707,9.707,0,0,0-.359-2.366,3.814,3.814,0,0,0-2.8-3,3.95,3.95,0,0,0-3.71,1.918q-.468-1.643-.939-3.282a8.806,8.806,0,0,0-2.159-4.163,3.692,3.692,0,0,0-4.276-.483,5.56,5.56,0,0,0-2.444,2.615,6.535,6.535,0,0,0-2.144-1.009,4.933,4.933,0,0,0-4.455.8A5.272,5.272,0,0,0,0,279.085a13.144,13.144,0,0,0,1.267,4.942,20.169,20.169,0,0,0,5.4,7.21c.156.133.316.261.475.386h.639c-.168-.125-.335-.253-.495-.386a19.806,19.806,0,0,1-4.2-4.65A19.388,19.388,0,0,1,1,282.27a9.437,9.437,0,0,1-.518-4.537,4.081,4.081,0,0,1,2.588-3.282,5.511,5.511,0,0,1,4.291.479,5.908,5.908,0,0,1,.729.464,5.593,5.593,0,0,0-.265.869,13.309,13.309,0,0,0,.631,6.279,8.442,8.442,0,0,0,1.045,2.7,2.37,2.37,0,0,0,2.12,1.06,1.92,1.92,0,0,0,1.547-1.559,4.785,4.785,0,0,0-.507-2.83,22.065,22.065,0,0,0-2.5-4.965,8.7,8.7,0,0,0-1.614-1.684,5.007,5.007,0,0,1,.327-.624,4.631,4.631,0,0,1,3.539-2.315,3.792,3.792,0,0,1,3.364,2.315,24.936,24.936,0,0,1,1.61,4.774l.386,1.352c-.07.113-.136.23-.2.347a15.251,15.251,0,0,0-1.134,2.822,2.331,2.331,0,0,0,.4,2.44,1.308,1.308,0,0,0,1.984-.191,2.94,2.94,0,0,0,.136-2.681c-.253-.893-.514-1.785-.768-2.678a4.5,4.5,0,0,1,1.61-1.614,2.834,2.834,0,0,1,2.342-.285,2.91,2.91,0,0,1,1.45,1.232,8.193,8.193,0,0,1,.959,4.276,22.859,22.859,0,0,1-.666,5.819q-.117.5-.269.982c-.035.129-.074.257-.113.386h.405c.039-.129.078-.257.113-.386a23.46,23.46,0,0,0,.818-4.276,23.241,23.241,0,0,0,.078-3.169M10.689,278.5a22.76,22.76,0,0,1,1.091,2.288,16.04,16.04,0,0,1,.978,2.607,2.213,2.213,0,0,1-.565,2.261,1.639,1.639,0,0,1-2.144-.359,5.471,5.471,0,0,1-1.08-2.354c-.277-.974-.546-1.953-.725-2.95a8.715,8.715,0,0,1,.156-4.365,9.855,9.855,0,0,1,2.288,2.872m7.542,3.874c.144.5.3.994.429,1.5a3.291,3.291,0,0,1,.14,1.442c-.144.772-.982,1.43-1.676.8-.752-.682-.433-1.777-.133-2.6a17.611,17.611,0,0,1,.931-2.225c.1.362.207.721.308,1.083" transform="translate(0 -165.961)" fill="#293254"/>
          <path id="Trazado_1008135" data-name="Trazado 1008135" d="M165.061,321.815H7.591c-.249,0-.195-.386.051-.386h157.47c.249,0,.195.386-.051.386" transform="translate(-4.533 -196.152)" fill="#293254"/>
        </g>
      </g>
      <text id="BILL" transform="translate(81.69 65.475)" fill="#363e66" font-size="4" font-family="SegoeUI, Segoe UI"><tspan x="0" y="0">BILL</tspan></text>
    </g>
  </g>
</svg>
