<svg xmlns="http://www.w3.org/2000/svg" xmlns:xlink="http://www.w3.org/1999/xlink" width="292" height="251.335" viewBox="0 0 292 251.335">
  <defs>
    <clipPath id="clip-path">
      <rect id="Rectángulo_458283" data-name="Rectángulo 458283" width="211.337" height="211.352" transform="translate(0 0)" fill="none"/>
    </clipPath>
  </defs>
  <g id="Grupo_1182633" data-name="Grupo 1182633" transform="translate(-1121.711 -1569)">
    <rect id="Image_Place_Holder" data-name="Image Place Holder" width="292" height="251.335" rx="10" transform="translate(1121.711 1569)" fill="#ff984a"/>
    <g id="Grupo_1182632" data-name="Grupo 1182632" transform="translate(1161.993 1588.277)">
      <g id="Grupo_1182631" data-name="Grupo 1182631" transform="translate(0 0.004)" clip-path="url(#clip-path)">
        <path id="Trazado_1006284" data-name="Trazado 1006284" d="M1.168,49.728c-7.6,24.453,24.624,42.9,18.058,87.75C14.919,166.9-1.685,175.618,4.606,189.7c10.733,24.027,66.24,25,102.867,16.9,22.335-4.944,72.731-16.1,94.512-62.974C219.7,105.488,211.4,57.854,184.231,29.45,129.442-27.832,13.763,9.209,1.168,49.728" transform="translate(0 -0.004)" fill="#caddff"/>
        <path id="Trazado_1006285" data-name="Trazado 1006285" d="M996.652,1338.876l-2,2.738,2.435,2.794a14.054,14.054,0,0,0-.859,2.2l-3.678.419-.368,3.373,3.507,1.2a14.237,14.237,0,0,0,.361,2.333l-2.98,2.2,1.369,3.105,3.633-.711a14.062,14.062,0,0,0,1.484,1.84l-1.478,3.4,2.738,2,2.794-2.435a14.034,14.034,0,0,0,2.2.859l.419,3.678,3.374.368,1.2-3.507a14.261,14.261,0,0,0,2.334-.361l2.2,2.98,3.105-1.369-.711-3.633a14.05,14.05,0,0,0,1.84-1.484l3.4,1.478,2-2.738-2.435-2.794a14.091,14.091,0,0,0,.859-2.2l3.678-.419.367-3.373-3.507-1.2a14.233,14.233,0,0,0-.36-2.333l2.98-2.2-1.369-3.105-3.633.711a14.05,14.05,0,0,0-1.484-1.84l1.478-3.4-2.738-2.005-2.794,2.435a14.037,14.037,0,0,0-2.2-.859l-.419-3.678-3.373-.367-1.2,3.507a14.225,14.225,0,0,0-2.334.361l-2.2-2.98-3.105,1.369.711,3.633a14.06,14.06,0,0,0-1.84,1.484Zm18.322,4.693a8.736,8.736,0,1,1-12.209,1.887,8.735,8.735,0,0,1,12.209-1.887" transform="translate(-877.671 -1179.145)" fill="#99b9ff"/>
        <path id="Trazado_1006286" data-name="Trazado 1006286" d="M504.126,1280.229l-2.268,4.9,4.679,3.594a22.384,22.384,0,0,0-.648,3.708l-5.608,1.811.488,5.38,5.851.774a22.66,22.66,0,0,0,1.3,3.528l-3.957,4.378,3.112,4.415,5.445-2.252a22.432,22.432,0,0,0,2.9,2.406l-1.238,5.769,4.9,2.268,3.594-4.679a22.4,22.4,0,0,0,3.707.648l1.81,5.608,5.38-.488.774-5.851a22.674,22.674,0,0,0,3.528-1.3l4.378,3.957,4.415-3.112-2.252-5.446a22.37,22.37,0,0,0,2.405-2.895l5.769,1.238,2.268-4.9-4.679-3.594a22.371,22.371,0,0,0,.648-3.708l5.608-1.81-.488-5.38-5.851-.774a22.687,22.687,0,0,0-1.3-3.528l3.957-4.378-3.112-4.415-5.445,2.252a22.391,22.391,0,0,0-2.895-2.405l1.238-5.769-4.9-2.268-3.594,4.679a22.381,22.381,0,0,0-3.708-.648l-1.81-5.608-5.38.488-.773,5.851a22.7,22.7,0,0,0-3.528,1.3l-4.378-3.957-4.415,3.112,2.252,5.446a22.376,22.376,0,0,0-2.405,2.895Zm30.068,1.561a13.906,13.906,0,1,1-18.459,6.784,13.906,13.906,0,0,1,18.459-6.784" transform="translate(-442.544 -1120.19)" fill="#99b9ff"/>
        <path id="Trazado_1006287" data-name="Trazado 1006287" d="M225.631,208.083l-1.739,1.734a6.256,6.256,0,0,1-4.81,1.893L34.86,197.91c-2.449-.184-3.636-2.647-3.662-5.161L29.97,65.517c-.015-1.5.887-7.561.887-7.561a67.8,67.8,0,0,1,7.156-5.027,7.052,7.052,0,0,1,3.852-.869l182.43,13.155a3.419,3.419,0,0,1,3.209,3.515l.412,134.028a7.6,7.6,0,0,1-2.283,5.325" transform="translate(-26.511 -46.037)" fill="#99b9ff"/>
        <path id="Trazado_1006288" data-name="Trazado 1006288" d="M221.144,257.62,36.55,244.308a5.256,5.256,0,0,1-4.933-5.405L31.21,106.616a2.851,2.851,0,0,1,2.925-2.8l185.083,13.347a3.418,3.418,0,0,1,3.208,3.515l.416,135.316a1.656,1.656,0,0,1-1.7,1.627" transform="translate(-27.608 -91.829)" fill="#caddff"/>
        <path id="Trazado_1006289" data-name="Trazado 1006289" d="M58.348,243.527h-.028l-24.726-1.766a5.651,5.651,0,0,1-5.288-5.785L27.9,103.688a3.205,3.205,0,0,1,1.043-2.332,3.067,3.067,0,0,1,2.291-.852l95.193,6.865a.382.382,0,0,1,.353.408.377.377,0,0,1-.409.354l-95.193-6.865a2.3,2.3,0,0,0-1.715.648,2.439,2.439,0,0,0-.8,1.771l.407,132.287A4.9,4.9,0,0,0,33.65,241l24.726,1.766a.382.382,0,0,1-.027.763" transform="translate(-24.68 -88.9)"/>
        <path id="Trazado_1006290" data-name="Trazado 1006290" d="M1419.449,342.011c-.042,0-.083,0-.125,0l-33.226-2.231a.382.382,0,1,1,.051-.762l33.228,2.231a1.172,1.172,0,0,0,.878-.334,1.256,1.256,0,0,0,.414-.911l-.416-135.316a3.023,3.023,0,0,0-2.854-3.136l-27.885-2.011a.382.382,0,1,1,.055-.762l27.886,2.011a3.806,3.806,0,0,1,3.563,3.9L1421.432,340a2.022,2.022,0,0,1-.656,1.472,1.962,1.962,0,0,1-1.327.542" transform="translate(-1225.815 -175.835)"/>
        <path id="Trazado_1006291" data-name="Trazado 1006291" d="M163.679,248.269,79.3,241.391a3.81,3.81,0,0,1-3.536-3.928V160.276a5.238,5.238,0,0,1,5.416-5.133l84.381,6.878a3.81,3.81,0,0,1,3.536,3.928v77.187a5.238,5.238,0,0,1-5.416,5.133" transform="translate(-67.018 -137.225)" fill="#fff"/>
        <path id="Trazado_1006292" data-name="Trazado 1006292" d="M120.5,706.978l-2.4-.251a2.251,2.251,0,0,1-1.894-2.276l.023-12.6a1.842,1.842,0,0,1,1.967-1.953l2.376.237a2.249,2.249,0,0,1,1.9,2.271v12.613a1.841,1.841,0,0,1-1.976,1.955" transform="translate(-102.793 -610.274)" fill="#caddff"/>
        <path id="Trazado_1006293" data-name="Trazado 1006293" d="M194.087,652.02l-2.4-.251a2.251,2.251,0,0,1-1.894-2.274l.025-20.549a1.842,1.842,0,0,1,1.967-1.954l2.375.237a2.248,2.248,0,0,1,1.9,2.271v20.567a1.841,1.841,0,0,1-1.976,1.954" transform="translate(-167.89 -554.624)" fill="#caddff"/>
        <path id="Trazado_1006294" data-name="Trazado 1006294" d="M267.692,690.5l-2.4-.251a2.251,2.251,0,0,1-1.894-2.275l.024-16.312a1.842,1.842,0,0,1,1.967-1.954l2.375.237a2.249,2.249,0,0,1,1.9,2.271v16.328a1.841,1.841,0,0,1-1.976,1.955" transform="translate(-233 -592.409)" fill="#caddff"/>
        <path id="Trazado_1006295" data-name="Trazado 1006295" d="M341.282,575.573l-2.4-.251a2.251,2.251,0,0,1-1.894-2.273l.026-32.088a1.842,1.842,0,0,1,1.967-1.955l2.374.237a2.249,2.249,0,0,1,1.9,2.272v32.1a1.84,1.84,0,0,1-1.976,1.954" transform="translate(-298.097 -476.792)" fill="#caddff"/>
        <path id="Trazado_1006296" data-name="Trazado 1006296" d="M414.879,518.238l-2.4-.251a2.251,2.251,0,0,1-1.894-2.273l.027-40.351a1.843,1.843,0,0,1,1.967-1.955l2.374.237a2.248,2.248,0,0,1,1.9,2.27v40.368a1.842,1.842,0,0,1-1.976,1.956" transform="translate(-363.2 -418.765)" fill="#caddff"/>
        <path id="Trazado_1006297" data-name="Trazado 1006297" d="M488.478,477.143l-2.4-.251a2.251,2.251,0,0,1-1.894-2.273l.027-46.5a1.842,1.842,0,0,1,1.967-1.955l2.373.237a2.248,2.248,0,0,1,1.9,2.271v46.512a1.842,1.842,0,0,1-1.976,1.956" transform="translate(-428.305 -376.978)" fill="#caddff"/>
        <path id="Trazado_1006298" data-name="Trazado 1006298" d="M562.082,586.367l-2.4-.251a2.251,2.251,0,0,1-1.894-2.273l.027-33.028a1.842,1.842,0,0,1,1.967-1.955l2.374.237a2.249,2.249,0,0,1,1.9,2.272v33.045a1.841,1.841,0,0,1-1.976,1.954" transform="translate(-493.415 -485.509)" fill="#caddff"/>
        <path id="Trazado_1006299" data-name="Trazado 1006299" d="M635.679,509.588l-2.4-.251a2.251,2.251,0,0,1-1.894-2.273l.027-43.828a1.842,1.842,0,0,1,1.967-1.955l2.373.237a2.249,2.249,0,0,1,1.9,2.272v43.845a1.84,1.84,0,0,1-1.976,1.954" transform="translate(-558.518 -408.037)" fill="#caddff"/>
        <path id="Trazado_1006300" data-name="Trazado 1006300" d="M709.278,414.7l-2.4-.251a2.251,2.251,0,0,1-1.894-2.272l.028-56.991a1.842,1.842,0,0,1,1.967-1.956l2.373.237a2.249,2.249,0,0,1,1.9,2.272v57.007a1.841,1.841,0,0,1-1.976,1.955" transform="translate(-623.622 -312.453)" fill="#caddff"/>
        <path id="Trazado_1006301" data-name="Trazado 1006301" d="M783.874,352.984l-2.4-.251a2.251,2.251,0,0,1-1.894-2.272l.028-65.835a1.842,1.842,0,0,1,1.967-1.956l2.373.237a2.249,2.249,0,0,1,1.9,2.271V351.03a1.841,1.841,0,0,1-1.976,1.955" transform="translate(-689.609 -250.04)" fill="#caddff"/>
        <path id="Trazado_1006302" data-name="Trazado 1006302" d="M982.924,150.087l-46.313-4.61a2.12,2.12,0,0,1-1.923-2.15V69.04a2.541,2.541,0,0,1,2.726-2.5l46.313,4.61a2.12,2.12,0,0,1,1.924,2.15v74.288a2.541,2.541,0,0,1-2.726,2.5" transform="translate(-826.817 -58.847)" fill="#fff"/>
        <path id="Trazado_1006303" data-name="Trazado 1006303" d="M1011.236,191.478c1.549,11.4-6.354,21.323-17.653,22.161s-21.714-7.727-23.262-19.129,6.354-21.323,17.653-22.161,21.713,7.727,23.263,19.129" transform="translate(-858.166 -152.409)" fill="#caddff"/>
        <path id="Trazado_1006304" data-name="Trazado 1006304" d="M1152.286,248.981l13.165,16.335a19.485,19.485,0,0,0,6.831-17.9,22.093,22.093,0,0,0-5.6-11.894Z" transform="translate(-1019.302 -208.342)" fill="#99b9ff"/>
        <path id="Trazado_1006305" data-name="Trazado 1006305" d="M1153.543,174.283l-1.256,20.525,14.4-13.452a22.219,22.219,0,0,0-13.142-7.073" transform="translate(-1019.303 -154.17)" fill="#5479f7"/>
        <path id="Trazado_1006306" data-name="Trazado 1006306" d="M1107.068,302.852a5.853,5.853,0,0,1-5.379,6.753,6.783,6.783,0,0,1-7.089-5.829,5.853,5.853,0,0,1,5.379-6.753,6.782,6.782,0,0,1,7.089,5.829" transform="translate(-968.222 -262.729)" fill="#fff"/>
        <path id="Trazado_1006307" data-name="Trazado 1006307" d="M1019.449,570.537l-40.216-2.495v-4.417l40.216,2.495Z" transform="translate(-866.222 -498.579)" fill="#caddff"/>
        <path id="Trazado_1006308" data-name="Trazado 1006308" d="M1020.23,641.668l-40.216-2.495v-4.417l40.216,2.495Z" transform="translate(-866.912 -561.5)" fill="#caddff"/>
        <path id="Trazado_1006309" data-name="Trazado 1006309" d="M931.76,96.687a.382.382,0,0,1-.382-.382V66.113a2.906,2.906,0,0,1,.969-2.144,2.838,2.838,0,0,1,2.177-.74l46.313,4.61a2.493,2.493,0,0,1,2.268,2.53V93.143a.382.382,0,1,1-.764,0V70.369a1.741,1.741,0,0,0-1.58-1.77l-46.313-4.61a2.074,2.074,0,0,0-1.589.546,2.142,2.142,0,0,0-.718,1.578V96.305a.382.382,0,0,1-.382.382" transform="translate(-823.889 -55.921)"/>
        <path id="Trazado_1006310" data-name="Trazado 1006310" d="M122.705,984.748,70.6,980.34v-5.4l52.107,4.409Z" transform="translate(-62.451 -862.425)" fill="#99b9ff"/>
        <path id="Trazado_1006311" data-name="Trazado 1006311" d="M124.821,1059.622l-52.107-4.409v-5.4l52.107,4.409Z" transform="translate(-64.322 -928.658)" fill="#99b9ff"/>
        <path id="Trazado_1006312" data-name="Trazado 1006312" d="M125.524,1137.392l-52.107-4.409v-5.4l52.107,4.409Z" transform="translate(-64.945 -997.452)" fill="#99b9ff"/>
        <path id="Trazado_1006313" data-name="Trazado 1006313" d="M125.522,1209.821l-52.107-4.409v-5.4l52.107,4.409Z" transform="translate(-64.943 -1061.523)" fill="#99b9ff"/>
        <path id="Trazado_1006314" data-name="Trazado 1006314" d="M1470.282,290.3l-19.4-1.279v-5.05l19.4,1.279Z" transform="translate(-1283.439 -251.197)" fill="#99b9ff"/>
        <path id="Trazado_1006315" data-name="Trazado 1006315" d="M1445.917,408.371l-24.805-1.636v-5.05l24.805,1.635Z" transform="translate(-1257.103 -355.328)" fill="#99b9ff"/>
        <path id="Trazado_1006316" data-name="Trazado 1006316" d="M1446.607,484l-24.805-1.635v-5.05l24.805,1.635Z" transform="translate(-1257.714 -422.232)" fill="#99b9ff"/>
        <path id="Trazado_1006317" data-name="Trazado 1006317" d="M1447.3,561.984l-24.805-1.635V555.3l24.805,1.635Z" transform="translate(-1258.324 -491.213)" fill="#99b9ff"/>
        <path id="Trazado_1006318" data-name="Trazado 1006318" d="M426.505,627.808l-33.692,9.057a2.424,2.424,0,0,0-1.177,3.958l3.526,3.939a2.424,2.424,0,0,1-.186,3.42l-24.252,22.3a2.424,2.424,0,0,1-3.423-.184l-20.543-22.87a2.424,2.424,0,0,0-3.424-.183L273.116,712.08a2.424,2.424,0,0,0-.183,3.423l7.509,8.36a2.424,2.424,0,0,0,3.423.184l58.257-54.082a2.424,2.424,0,0,1,3.423.184l20.536,22.862a2.424,2.424,0,0,0,3.423.184L405.7,660.173a2.424,2.424,0,0,1,3.426.187l3.8,4.249a2.424,2.424,0,0,0,4.074-.761l12.4-32.842a2.424,2.424,0,0,0-2.9-3.2" transform="translate(-240.885 -555.278)" fill="#5479f7"/>
        <path id="Trazado_1006319" data-name="Trazado 1006319" d="M572.7,1212.59a3.417,3.417,0,0,1,3.333,3.481l-.561,23.3a3.386,3.386,0,0,1-3.5,3.29l-84.441-2.36a3.417,3.417,0,0,1-3.333-3.481l.561-23.3a3.386,3.386,0,0,1,3.5-3.29Z" transform="translate(-428.32 -1070.559)" fill="#fff"/>
        <path id="Trazado_1006320" data-name="Trazado 1006320" d="M481.281,1234.272h-.009a.382.382,0,0,1-.373-.391l.561-23.3a3.717,3.717,0,0,1,1.166-2.624,3.773,3.773,0,0,1,2.723-1.039l12.778.357a.382.382,0,1,1-.021.763l-12.778-.357a3.012,3.012,0,0,0-2.175.829,2.959,2.959,0,0,0-.928,2.088l-.561,23.3a.382.382,0,0,1-.382.373" transform="translate(-425.399 -1067.631)"/>
        <path id="Trazado_1006321" data-name="Trazado 1006321" d="M604.522,1245.618l-.11,0-83.159-2.175a.382.382,0,0,1-.372-.392.373.373,0,0,1,.392-.372l83.16,2.175a3.032,3.032,0,0,0,2.176-.83,2.957,2.957,0,0,0,.928-2.088l.561-23.3a3.038,3.038,0,0,0-2.962-3.09l-67.2-1.643a.382.382,0,0,1-.372-.391.388.388,0,0,1,.391-.372l67.206,1.643a3.8,3.8,0,0,1,3.706,3.872l-.561,23.3a3.717,3.717,0,0,1-1.166,2.624,3.773,3.773,0,0,1-2.613,1.041" transform="translate(-460.767 -1073.135)"/>
        <path id="Trazado_1006322" data-name="Trazado 1006322" d="M693.973,1278.692l-61.372-1.715a1.585,1.585,0,1,1,.076-3.169l61.372,1.715a1.585,1.585,0,1,1-.076,3.169" transform="translate(-558.213 -1126.8)" fill="#5479f7"/>
        <path id="Trazado_1006323" data-name="Trazado 1006323" d="M579.522,1273.909a1.6,1.6,0,1,1-1.56-1.629,1.584,1.584,0,0,1,1.56,1.629" transform="translate(-509.813 -1125.448)" fill="#5479f7"/>
        <path id="Trazado_1006324" data-name="Trazado 1006324" d="M692.55,1337.832l-61.372-1.715a1.585,1.585,0,1,1,.076-3.169l61.372,1.715a1.585,1.585,0,1,1-.076,3.169" transform="translate(-556.955 -1179.114)" fill="#caddff"/>
        <path id="Trazado_1006325" data-name="Trazado 1006325" d="M578.1,1333.048a1.6,1.6,0,1,1-1.56-1.629,1.584,1.584,0,0,1,1.56,1.629" transform="translate(-508.553 -1177.762)" fill="#caddff"/>
        <path id="Trazado_1006326" data-name="Trazado 1006326" d="M691.126,1396.971l-61.372-1.715a1.585,1.585,0,1,1,.076-3.169L691.2,1393.8a1.585,1.585,0,1,1-.076,3.169" transform="translate(-555.695 -1231.428)" fill="#caddff"/>
        <path id="Trazado_1006327" data-name="Trazado 1006327" d="M576.674,1392.187a1.6,1.6,0,1,1-1.56-1.629,1.585,1.585,0,0,1,1.56,1.629" transform="translate(-507.294 -1230.076)" fill="#caddff"/>
        <path id="Trazado_1006328" data-name="Trazado 1006328" d="M323.091,1659.968l3.512,10.141,4.906-.251-3.5-11.21Z" transform="translate(-285.803 -1467.226)" fill="#fff"/>
        <path id="Trazado_1006329" data-name="Trazado 1006329" d="M323.676,1667.561a.382.382,0,0,1-.361-.257l-3.512-10.14a.382.382,0,0,1,.262-.494l4.914-1.321a.382.382,0,0,1,.464.255l3.5,11.21a.382.382,0,0,1-.345.5l-4.906.251h-.02m-3.017-10.26,3.284,9.482,4.128-.211-3.248-10.39Z" transform="translate(-282.876 -1464.296)"/>
        <path id="Trazado_1006330" data-name="Trazado 1006330" d="M338.544,1746.032s-.609-4.967,1.1-7.234l3.809,1.237v-.742a.449.449,0,0,1,.426-.449l2.124-.111a5,5,0,0,1,2.307.433c2.545,1.141,8.4,4.081,8.216,6.9,0,0-4.611,1.043-17.979-.033" transform="translate(-299.379 -1538.063)" fill="#fff"/>
        <path id="Trazado_1006331" data-name="Trazado 1006331" d="M346.406,1743.981c-2.7,0-6.251-.123-10.84-.492a.382.382,0,0,1-.348-.334c-.025-.209-.608-5.147,1.171-7.511a.382.382,0,0,1,.423-.134l3.309,1.074v-.217a.831.831,0,0,1,.787-.83l2.125-.111a5.41,5.41,0,0,1,2.483.465c3.236,1.451,8.635,4.324,8.441,7.274a.381.381,0,0,1-.3.347,37.462,37.462,0,0,1-7.254.467m-10.46-1.228c11.082.874,16.032.268,17.242.071-.2-1.758-3.135-4.061-7.983-6.234a4.626,4.626,0,0,0-2.131-.4l-2.125.111a.067.067,0,0,0-.064.067v.742a.382.382,0,0,1-.5.363l-3.539-1.149c-1.19,1.875-.993,5.373-.9,6.428" transform="translate(-296.433 -1535.14)"/>
        <path id="Trazado_1006332" data-name="Trazado 1006332" d="M349.139,1784.4a54.546,54.546,0,0,1-5.717-.289.382.382,0,1,1,.08-.759,61.628,61.628,0,0,0,15.587-.5.382.382,0,1,1,.139.751,62.313,62.313,0,0,1-10.089.8" transform="translate(-303.486 -1577.088)"/>
        <path id="Trazado_1006333" data-name="Trazado 1006333" d="M403.768,1749.326a.38.38,0,0,1-.209-.063l-3.667-2.405a.382.382,0,1,1,.419-.639l3.667,2.405a.382.382,0,0,1-.21.7" transform="translate(-353.588 -1544.636)"/>
        <path id="Trazado_1006334" data-name="Trazado 1006334" d="M116.216,1681.234l-1.226,8.6h-2.652l-.148-8.462Z" transform="translate(-99.243 -1487.205)" fill="#fff"/>
        <path id="Trazado_1006335" data-name="Trazado 1006335" d="M112.062,1687.286h-2.652a.382.382,0,0,1-.382-.375l-.148-8.461a.382.382,0,0,1,.369-.388l4.026-.142a.367.367,0,0,1,.3.126.383.383,0,0,1,.094.31l-1.225,8.6a.382.382,0,0,1-.378.328m-2.277-.764h1.946l1.114-7.823-3.195.113Z" transform="translate(-96.314 -1484.272)"/>
        <path id="Trazado_1006336" data-name="Trazado 1006336" d="M221.015,1184.818s4.067,26.27,4.229,32.543,1.679,22.195,1.679,22.195-3.525,1.7-6.088,1.686c0,0-12.005-31.867-12.9-42.173s2.1-15.024,2.1-15.024Z" transform="translate(-183.787 -1047.397)"/>
        <path id="Trazado_1006337" data-name="Trazado 1006337" d="M120.352,1169.4s-13.786,42.1-14.011,59.208a20.806,20.806,0,0,1-7.405,0s-2.8-46.981,5.271-60.143Z" transform="translate(-87.101 -1033.617)"/>
        <path id="Trazado_1006338" data-name="Trazado 1006338" d="M84.517,1748.423a21.2,21.2,0,0,1-5.766-.193,1.356,1.356,0,0,1-1.078-1.7c.607-2.159,1.916-6.248,3.563-8.109l.359,1.051.575-.959a.482.482,0,0,1,.368-.231l1.195-.112a.481.481,0,0,1,.519.4l.16.906.454-1.168.85,8.642a1.352,1.352,0,0,1-1.2,1.479" transform="translate(-68.663 -1537.567)" fill="#fff"/>
        <path id="Trazado_1006339" data-name="Trazado 1006339" d="M79.429,1745.995a21.65,21.65,0,0,1-3.665-.311,1.738,1.738,0,0,1-1.381-2.182c.638-2.267,1.959-6.354,3.644-8.259a.382.382,0,0,1,.647.13l.093.273.153-.254a.866.866,0,0,1,.66-.415l1.2-.111a.869.869,0,0,1,.805.393l.007-.017A.387.387,0,0,1,82,1735a.382.382,0,0,1,.328.341l.85,8.643a1.739,1.739,0,0,1-1.538,1.9,20.809,20.809,0,0,1-2.207.115m2.167-.5h0Zm-3.417-9.217a27.659,27.659,0,0,0-3.06,7.426.974.974,0,0,0,.775,1.222,20.736,20.736,0,0,0,5.661.189.973.973,0,0,0,.859-1.062l-.708-7.2a.388.388,0,0,1-.253.065.382.382,0,0,1-.339-.314l-.16-.906a.1.1,0,0,0-.107-.082l-1.2.111a.1.1,0,0,0-.076.048l-.576.959a.382.382,0,0,1-.689-.073Z" transform="translate(-65.742 -1534.643)"/>
        <path id="Trazado_1006340" data-name="Trazado 1006340" d="M85.614,1810.034a12.122,12.122,0,0,1-3.06-.368.382.382,0,0,1,.194-.739,13.834,13.834,0,0,0,6.014,0,.382.382,0,1,1,.185.741,14.967,14.967,0,0,1-3.333.367" transform="translate(-72.775 -1600.151)"/>
        <path id="Trazado_1006341" data-name="Trazado 1006341" d="M101.9,1783.611H99.058a.382.382,0,0,1,0-.764H101.9a.382.382,0,1,1,0,.764" transform="translate(-87.288 -1577.092)"/>
        <path id="Trazado_1006342" data-name="Trazado 1006342" d="M36.586,742.851a11.216,11.216,0,0,0,3.84-2.354,5.692,5.692,0,0,0,1.969-3.7c.087-2.03-1.278-4.237-3.151-4.672a3.9,3.9,0,0,0-3.347,1.084c-1.2,1.147-3.77,0-4.91,1.3-1.222,1.394-.757,2.887-2.716,4.345-1.751,1.3-1.017,1.787-2.173,2.444-2.689,1.53-3.866-2.083-6.636-.944-2.385.981-1.575,4.258-4.193,6.024-3.008,2.028-5.481-1.349-9.085.331-3.309,1.542-4.825,6.108-3.984,9.389.583,2.273,1.453,2.354,2.883,5.027,2.228,4.165-.339,7.359,1.118,10.977,1.954,4.848,9.363,6.059,14.025,5.487.864-.106,9.889-1.363,13.6-9.177,4.505-9.48-1.459-23.033,2.757-25.561" transform="translate(-1.744 -647.564)"/>
        <path id="Trazado_1006343" data-name="Trazado 1006343" d="M297.416,1196.809s.471,8.61-1.237,10.091c0,0-4.558-6.047-4.42-10.091Z" transform="translate(-258.084 -1058.687)" fill="#fff"/>
        <path id="Trazado_1006344" data-name="Trazado 1006344" d="M293.251,1204.355l-.04,0a.383.383,0,0,1-.265-.15c-.189-.251-4.637-6.2-4.5-10.334a.382.382,0,0,1,.382-.369h5.657a.382.382,0,0,1,.381.361c.049.9.429,8.842-1.369,10.4a.381.381,0,0,1-.25.093m-4.037-10.092c.119,3.262,3.1,7.737,4.055,9.082.869-1.488,1-5.98.856-9.082Z" transform="translate(-255.157 -1055.76)"/>
        <path id="Trazado_1006345" data-name="Trazado 1006345" d="M124.885,1170.63s-2.229,6.7-4.269,8.232-6.449-6.591-9.289-7.024-6.632,6.161-6.632,6.161,1.607-8.529,4.13-10.13Z" transform="translate(-92.612 -1033.086)" fill="#fff"/>
        <path id="Trazado_1006346" data-name="Trazado 1006346" d="M117.118,1176.513c-1.274,0-2.843-1.745-4.487-3.573-1.464-1.628-3.124-3.474-4.291-3.652-2.116-.322-5.225,4.2-6.243,5.974a.382.382,0,0,1-.706-.261c.067-.355,1.668-8.711,4.3-10.382a.381.381,0,0,1,.269-.054l16.06,2.761a.382.382,0,0,1,.3.5c-.092.278-2.291,6.832-4.4,8.417a1.3,1.3,0,0,1-.8.273m-8.991-8a2.176,2.176,0,0,1,.328.024c1.438.219,3.118,2.089,4.744,3.9,1.61,1.79,3.433,3.817,4.259,3.2,1.636-1.228,3.468-6.149,3.99-7.626l-15.464-2.659c-1.46,1.084-2.692,4.942-3.379,7.705,1.322-1.9,3.521-4.54,5.522-4.54" transform="translate(-89.684 -1030.16)"/>
        <path id="Trazado_1006347" data-name="Trazado 1006347" d="M493.219,838.186a2.426,2.426,0,0,1,.732-.854l3.653-3.4a3.979,3.979,0,0,1-.1,2.6,12.608,12.608,0,0,1,2.008.228s1.669-1.47,2.084-1.724a3.116,3.116,0,0,1,1.517-.648,2.212,2.212,0,0,1,1.116.436L501.02,838.9l-5.834,1.606-1.212,10.047-4.257-3.938Z" transform="translate(-433.199 -737.693)" fill="#fff"/>
        <path id="Trazado_1006348" data-name="Trazado 1006348" d="M491.046,848a.38.38,0,0,1-.259-.1l-4.257-3.938a.382.382,0,0,1-.093-.427l3.5-8.425.011-.025a2.812,2.812,0,0,1,.828-.975l3.638-3.383a.382.382,0,0,1,.627.173,5.025,5.025,0,0,1,.088,2.356,13.262,13.262,0,0,1,1.342.169c.431-.377,1.624-1.412,2-1.639l.176-.11a2.956,2.956,0,0,1,1.524-.594h.021a2.542,2.542,0,0,1,1.344.515.382.382,0,0,1,.067.539l-3.208,4.067a.382.382,0,0,1-.2.132l-5.587,1.537-1.181,9.793a.382.382,0,0,1-.379.336m-3.8-4.42,3.512,3.25,1.122-9.3a.382.382,0,0,1,.278-.322l5.713-1.572L500.734,832a1.38,1.38,0,0,0-.554-.156h-.01a2.37,2.37,0,0,0-1.116.475c-.064.041-.127.08-.187.116-.284.173-1.37,1.1-2.031,1.684a.38.38,0,0,1-.333.087,12.3,12.3,0,0,0-1.941-.22.382.382,0,0,1-.315-.577,2.773,2.773,0,0,0,.19-1.662l-3.153,2.932a.336.336,0,0,1-.031.026,2.068,2.068,0,0,0-.614.708Z" transform="translate(-430.272 -734.764)"/>
        <path id="Trazado_1006349" data-name="Trazado 1006349" d="M453.058,924.569l10.588,10.146-5.6,4.807-8.944-9Z" transform="translate(-397.273 -817.867)" fill="#fff"/>
        <path id="Trazado_1006350" data-name="Trazado 1006350" d="M455.119,936.977a.381.381,0,0,1-.271-.113l-8.944-9a.382.382,0,0,1-.047-.481l3.955-5.953a.382.382,0,0,1,.582-.064l10.588,10.147a.382.382,0,0,1-.015.566l-5.6,4.807a.38.38,0,0,1-.249.092m-8.454-9.431,8.474,8.528,5.01-4.3-9.954-9.54Z" transform="translate(-394.344 -814.938)"/>
        <path id="Trazado_1006351" data-name="Trazado 1006351" d="M369.569,924.195l-12.185-11.378a5.817,5.817,0,0,1-4.023,2.066c-2.378.014-7.591-7.159-7.591-7.159l-1.236,14.718s7.587,13.009,25.034,1.753" transform="translate(-304.773 -802.965)" fill="#5479f7"/>
        <path id="Trazado_1006352" data-name="Trazado 1006352" d="M147.113,897.276s-3.145-2.957-17.554-.16A68.376,68.376,0,0,1,125.881,913c-2.886,7.458-6.39,12.04-5.87,17.021a9.059,9.059,0,0,1,4.939-.73l20.164,2.682A2.6,2.6,0,0,0,148,929.94a48.416,48.416,0,0,0,.481-11.1c-.132-3.448,1.331-15.792-1.371-21.564" transform="translate(-106.115 -792.517)" fill="#5479f7"/>
        <path id="Trazado_1006353" data-name="Trazado 1006353" d="M103.58,1071.794l3.328,6.017,3.394-1.862,5.825,1.622s-.983,1.281-3.8.141l4.287,2.3s-1.3.838-3.867-.794l2.457,2a23.541,23.541,0,0,0-3.041-.711l-1.057-.115a8.422,8.422,0,0,0-2.1.375,5.438,5.438,0,0,1-3.6.058l-1.35-.478-4.155-6.315Z" transform="translate(-88.37 -948.1)" fill="#fff"/>
        <path id="Trazado_1006354" data-name="Trazado 1006354" d="M112.278,1078.663a.38.38,0,0,1-.11-.016,23.315,23.315,0,0,0-2.973-.7l-1.027-.111a8.006,8.006,0,0,0-1.963.353,5.883,5.883,0,0,1-3.857.058l-1.35-.478a.382.382,0,0,1-.192-.15l-4.155-6.316a.382.382,0,0,1,.121-.537l3.68-2.229a.382.382,0,0,1,.532.142l3.144,5.684,3.061-1.679a.386.386,0,0,1,.286-.033l5.825,1.622a.382.382,0,0,1,.2.6,2.378,2.378,0,0,1-1.718.752l2.083,1.115a.382.382,0,0,1,.026.658,2.7,2.7,0,0,1-1.822.221l.447.363a.382.382,0,0,1-.241.678m-10.9-1.57,1.229.435a5.113,5.113,0,0,0,3.349-.059,8.752,8.752,0,0,1,2.212-.4.3.3,0,0,1,.056,0l1.057.114a12.075,12.075,0,0,1,1.369.258l-1.067-.867a.382.382,0,0,1,.446-.619,5.268,5.268,0,0,0,2.527.942l-3.332-1.784a.382.382,0,0,1,.324-.691,4.11,4.11,0,0,0,2.711.346l-4.833-1.346-3.258,1.787a.382.382,0,0,1-.518-.15l-3.136-5.669-3,1.818Z" transform="translate(-85.442 -945.172)"/>
        <path id="Trazado_1006355" data-name="Trazado 1006355" d="M53.644,1033.929l1.693,4.2-9.761,6.394s-2.022-5.553-2.127-7.792Z" transform="translate(-38.434 -914.605)" fill="#fff"/>
        <path id="Trazado_1006356" data-name="Trazado 1006356" d="M42.646,1041.979a.382.382,0,0,1-.359-.251c-.083-.229-2.043-5.634-2.15-7.9a.382.382,0,0,1,.28-.386l10.2-2.8a.383.383,0,0,1,.455.225l1.693,4.2a.382.382,0,0,1-.145.462l-9.762,6.395a.38.38,0,0,1-.209.063m-1.722-7.889a42.39,42.39,0,0,0,1.919,6.922l9.093-5.956-1.448-3.59Z" transform="translate(-35.505 -911.683)"/>
        <path id="Trazado_1006357" data-name="Trazado 1006357" d="M49.841,915.326l-6.455,2.71a2.868,2.868,0,0,0-1.63,3.488l.142.461-12.84,4.772s-1.785-6.02,1.15-11.43,18.465-8.992,18.465-8.992Z" transform="translate(-25.228 -801.736)" fill="#5479f7"/>
        <path id="Trazado_1006358" data-name="Trazado 1006358" d="M232.388,819.976l-1.4,6.239,3.969,1.413s-5.293,3.176-13.014.311L226,825.772l2.707-7.617Z" transform="translate(-196.327 -723.733)" fill="#fff"/>
        <path id="Trazado_1006359" data-name="Trazado 1006359" d="M225.449,826.6a18.809,18.809,0,0,1-6.569-1.231.382.382,0,0,1-.047-.695l3.93-2.1,2.657-7.478a.382.382,0,0,1,.529-.215l3.679,1.822a.382.382,0,0,1,.2.426L228.5,823.04l3.65,1.3a.382.382,0,0,1,.068.687,13.951,13.951,0,0,1-6.774,1.573m-5.486-1.663a16.022,16.022,0,0,0,11.071-.185l-3.1-1.105a.382.382,0,0,1-.244-.444l1.336-5.946L226,815.76l-2.563,7.212a.382.382,0,0,1-.18.209Z" transform="translate(-193.399 -720.805)"/>
        <path id="Trazado_1006360" data-name="Trazado 1006360" d="M264.429,790.43s-1.511.413-1.776-.891a.83.83,0,0,1,.985-1.105s-1.077-2.9,1.03-2.979a12.339,12.339,0,0,0,3.7-.7,21.269,21.269,0,0,1,1.54,5.06c.167,1.367-.025,2.544-1.07,2.8-2.86.7-4.41-2.185-4.41-2.185" transform="translate(-232.308 -694.187)" fill="#fff"/>
        <path id="Trazado_1006361" data-name="Trazado 1006361" d="M265.028,790.181a4.716,4.716,0,0,1-3.716-2.254,2.016,2.016,0,0,1-1.293-.224,1.5,1.5,0,0,1-.67-1.014,1.3,1.3,0,0,1,.251-1.223,1.142,1.142,0,0,1,.6-.318,3.067,3.067,0,0,1,.162-2.322,1.6,1.6,0,0,1,1.363-.679,12.089,12.089,0,0,0,3.574-.675.383.383,0,0,1,.487.2,21.377,21.377,0,0,1,1.571,5.171c.282,2.314-.582,3.027-1.358,3.218a4.052,4.052,0,0,1-.972.122m-3.193-2.858c.061.113,1.453,2.617,3.982,1.995.691-.17.954-.972.782-2.384a19.907,19.907,0,0,0-1.371-4.628,13.127,13.127,0,0,1-3.477.6.874.874,0,0,0-.755.341,2.974,2.974,0,0,0,.069,2.123.382.382,0,0,1-.418.51.668.668,0,0,0-.5.111c-.117.123-.083.392-.053.541a.738.738,0,0,0,.32.514,1.447,1.447,0,0,0,.982.084.384.384,0,0,1,.436.188m-.336.181h0Z" transform="translate(-229.378 -691.261)"/>
        <path id="Trazado_1006362" data-name="Trazado 1006362" d="M364.781,987.828h-.013a.382.382,0,0,1-.369-.395l.282-8.313a.373.373,0,0,1,.395-.369.382.382,0,0,1,.369.395l-.283,8.313a.382.382,0,0,1-.381.369" transform="translate(-322.344 -865.795)"/>
        <path id="Trazado_1006363" data-name="Trazado 1006363" d="M730.095,377.37a12.754,12.754,0,1,1-12.754-12.754,12.754,12.754,0,0,1,12.754,12.754" transform="translate(-623.271 -322.537)"/>
        <path id="Trazado_1006364" data-name="Trazado 1006364" d="M737.343,376.992a12.376,12.376,0,1,1-12.376-12.376,12.376,12.376,0,0,1,12.376,12.376" transform="translate(-630.353 -322.537)" fill="#99b9ff"/>
        <path id="Trazado_1006365" data-name="Trazado 1006365" d="M722.039,386.822A12.758,12.758,0,1,1,734.8,374.064a12.772,12.772,0,0,1-12.758,12.758m0-24.751a11.994,11.994,0,1,0,11.994,11.994,12.007,12.007,0,0,0-11.994-11.994" transform="translate(-627.425 -319.61)"/>
        <path id="Trazado_1006366" data-name="Trazado 1006366" d="M750.606,392.245a10.386,10.386,0,1,1-10.386-10.386,10.386,10.386,0,0,1,10.386,10.386" transform="translate(-645.606 -337.79)" fill="#fff"/>
        <path id="Trazado_1006367" data-name="Trazado 1006367" d="M892.555,497.441a.382.382,0,0,1-.32-.589,9.953,9.953,0,0,0,1.188-2.59.382.382,0,1,1,.733.216,10.724,10.724,0,0,1-1.279,2.789.382.382,0,0,1-.321.175" transform="translate(-789.209 -436.979)"/>
        <path id="Trazado_1006368" data-name="Trazado 1006368" d="M762.006,385.168a.382.382,0,0,1-.344-.215,9.94,9.94,0,0,0-9-5.64,10.048,10.048,0,0,0-8.073,4.095.382.382,0,1,1-.616-.451,10.813,10.813,0,0,1,8.689-4.407,10.7,10.7,0,0,1,9.692,6.071.382.382,0,0,1-.343.549" transform="translate(-658.043 -334.862)"/>
        <path id="Trazado_1006369" data-name="Trazado 1006369" d="M737.293,440.781a10.771,10.771,0,0,1-9.4-16.031.382.382,0,1,1,.666.374,10.007,10.007,0,0,0,8.73,14.893.382.382,0,0,1,0,.764" transform="translate(-642.678 -375.558)"/>
        <path id="Trazado_1006370" data-name="Trazado 1006370" d="M788.153,422.978v-1.707a7.23,7.23,0,0,1-3.055-.773l.539-2.1a6.346,6.346,0,0,0,2.983.791c1.024,0,1.725-.4,1.725-1.114,0-.683-.575-1.114-1.905-1.564-1.923-.647-3.235-1.546-3.235-3.289,0-1.582,1.114-2.822,3.037-3.2v-1.707H790v1.582a6.469,6.469,0,0,1,2.606.593l-.521,2.031a5.959,5.959,0,0,0-2.588-.611c-1.168,0-1.546.5-1.546,1.007,0,.593.629.97,2.157,1.546,2.139.755,3,1.743,3,3.361,0,1.6-1.132,2.965-3.2,3.325v1.833Z" transform="translate(-694.491 -361.191)" fill="#5479f7"/>
        <path id="Trazado_1006371" data-name="Trazado 1006371" d="M497.579,537.716a16.2,16.2,0,1,1-16.2-16.2,16.2,16.2,0,0,1,16.2,16.2" transform="translate(-411.499 -461.332)"/>
        <path id="Trazado_1006372" data-name="Trazado 1006372" d="M506.785,537.235a15.716,15.716,0,1,1-15.716-15.716,15.716,15.716,0,0,1,15.716,15.716" transform="translate(-420.492 -461.332)" fill="#99b9ff"/>
        <path id="Trazado_1006373" data-name="Trazado 1006373" d="M488.14,550.407a16.1,16.1,0,1,1,16.1-16.1,16.116,16.116,0,0,1-16.1,16.1m0-31.433a15.334,15.334,0,1,0,15.334,15.334,15.352,15.352,0,0,0-15.334-15.334" transform="translate(-417.564 -458.406)"/>
        <path id="Trazado_1006374" data-name="Trazado 1006374" d="M523.627,556.606a13.189,13.189,0,1,1-13.189-13.189,13.189,13.189,0,0,1,13.189,13.189" transform="translate(-439.862 -480.702)" fill="#fff"/>
        <path id="Trazado_1006375" data-name="Trazado 1006375" d="M704.683,690.883a.382.382,0,0,1-.321-.589,12.732,12.732,0,0,0,1.521-3.316.382.382,0,1,1,.733.216A13.509,13.509,0,0,1,705,690.708a.382.382,0,0,1-.321.175" transform="translate(-623.019 -607.453)"/>
        <path id="Trazado_1006376" data-name="Trazado 1006376" d="M538.895,548.308a.382.382,0,0,1-.344-.215,12.725,12.725,0,0,0-11.528-7.221,12.863,12.863,0,0,0-10.335,5.242.382.382,0,1,1-.616-.451,13.628,13.628,0,0,1,10.951-5.555,13.484,13.484,0,0,1,12.215,7.651.382.382,0,0,1-.344.549" transform="translate(-456.447 -477.775)"/>
        <path id="Trazado_1006377" data-name="Trazado 1006377" d="M507.51,618.932a13.575,13.575,0,0,1-11.842-20.2.382.382,0,0,1,.666.374,12.811,12.811,0,0,0,11.176,19.066.382.382,0,1,1,0,.764" transform="translate(-436.934 -529.457)"/>
        <path id="Trazado_1006378" data-name="Trazado 1006378" d="M571.31,595.635v-2.168a9.184,9.184,0,0,1-3.88-.981l.685-2.67a8.058,8.058,0,0,0,3.789,1c1.3,0,2.191-.5,2.191-1.415,0-.867-.73-1.415-2.419-1.986-2.442-.822-4.108-1.963-4.108-4.177,0-2.009,1.415-3.583,3.857-4.063v-2.168h2.237v2.008a8.218,8.218,0,0,1,3.309.753l-.662,2.579a7.57,7.57,0,0,0-3.287-.776c-1.484,0-1.963.639-1.963,1.278,0,.753.8,1.232,2.739,1.963,2.716.959,3.811,2.214,3.811,4.268,0,2.031-1.438,3.766-4.063,4.222v2.328Z" transform="translate(-501.944 -510.419)" fill="#5479f7"/>
        <path id="Trazado_1006379" data-name="Trazado 1006379" d="M1430.456,1102.838h-43.79a2.7,2.7,0,0,0-2.707,2.856l.887,15.92c0,.051,0,.117,0,.169l-.043,51.716a3,3,0,0,0,3.023,2.925h43.782a2.621,2.621,0,0,0,2.711-2.608l.049-51.951c0-.052,0-.094,0-.146l-.891-16.03a3.076,3.076,0,0,0-3.019-2.851" transform="translate(-1224.234 -975.561)" fill="#5479f7"/>
        <path id="Trazado_1006380" data-name="Trazado 1006380" d="M1401.086,1105.044h-44.669a2.458,2.458,0,0,0-2.458,2.463l.9,16.119.055,52.032a2.6,2.6,0,0,0,2.642,2.462h44.661a2.258,2.258,0,0,0,2.349-2.2l.089-52.148-.907-16.263a2.752,2.752,0,0,0-2.662-2.465" transform="translate(-1197.698 -977.513)" fill="#99b9ff"/>
        <path id="Trazado_1006381" data-name="Trazado 1006381" d="M1400.327,1176.424h-44.662a3.015,3.015,0,0,1-2.058-.791,2.683,2.683,0,0,1-.877-1.989l.008-2.739a.382.382,0,0,1,.382-.381h0a.382.382,0,0,1,.381.383l-.008,2.738a1.929,1.929,0,0,0,.632,1.427,2.253,2.253,0,0,0,1.539.588h44.662a1.773,1.773,0,0,0,1.9-1.755l.024-52.083-.906-16.245a2.118,2.118,0,0,0-2.136-1.975h-44.669a2.018,2.018,0,0,0-1.467.608,1.759,1.759,0,0,0-.48,1.321l.9,16.121,0,38.982a.382.382,0,0,1-.764,0l0-38.96-.9-16.1a2.52,2.52,0,0,1,.688-1.889,2.785,2.785,0,0,1,2.022-.847h44.669a2.882,2.882,0,0,1,2.9,2.7l.907,16.267-.023,52.1a2.539,2.539,0,0,1-2.666,2.518" transform="translate(-1195.815 -975.561)"/>
        <path id="Trazado_1006382" data-name="Trazado 1006382" d="M1427.118,1262.453h-44.3a.382.382,0,1,1,0-.764h44.3a.382.382,0,1,1,0,.764" transform="translate(-1222.888 -1116.08)"/>
        <path id="Trazado_1006383" data-name="Trazado 1006383" d="M1441.612,1153.633a1.8,1.8,0,0,1-1.81,1.9h-35.291a2.054,2.054,0,0,1-2.019-1.9l-.329-5.895a1.777,1.777,0,0,1,1.81-1.878h35.291a2.032,2.032,0,0,1,2.019,1.878Z" transform="translate(-1240.339 -1013.618)" fill="#fff"/>
        <path id="Trazado_1006384" data-name="Trazado 1006384" d="M1436.874,1152.99h-35.291a2.431,2.431,0,0,1-2.4-2.264l-.328-5.895a2.131,2.131,0,0,1,.58-1.6,2.192,2.192,0,0,1,1.611-.682h35.291a2.419,2.419,0,0,1,2.4,2.239l.328,5.895h0a2.179,2.179,0,0,1-2.191,2.306m-35.829-9.676a1.436,1.436,0,0,0-1.056.443,1.374,1.374,0,0,0-.372,1.032l.329,5.895a1.678,1.678,0,0,0,1.637,1.542h35.291a1.423,1.423,0,0,0,1.045-.444,1.406,1.406,0,0,0,.383-1.056h0l-.328-5.894a1.645,1.645,0,0,0-1.637-1.517Z" transform="translate(-1237.411 -1010.691)"/>
        <path id="Trazado_1006385" data-name="Trazado 1006385" d="M1586.611,1169.026h12.964a1.125,1.125,0,0,1,1.127,1.038l.111,1.992a.988.988,0,0,1-1.01,1.044h-12.964a1.134,1.134,0,0,1-1.127-1.048l-.111-1.987a.984.984,0,0,1,1.01-1.039" transform="translate(-1402.608 -1034.111)" fill="#caddff"/>
        <path id="Trazado_1006386" data-name="Trazado 1006386" d="M1491.666,1169.026h6.167a1.125,1.125,0,0,1,1.127,1.038l.111,1.992a.988.988,0,0,1-1.011,1.044h-6.167a1.134,1.134,0,0,1-1.127-1.048l-.111-1.987a.984.984,0,0,1,1.011-1.039" transform="translate(-1318.62 -1034.111)" fill="#caddff"/>
        <path id="Trazado_1006387" data-name="Trazado 1006387" d="M1497.3,1555.787l.021-5.916a1.388,1.388,0,0,0-1.324-1.365h-6.258a1.224,1.224,0,0,0-1.174,1.234l-.023,5.859a1.336,1.336,0,0,0,1.322,1.309h6.258a1.132,1.132,0,0,0,1.179-1.122" transform="translate(-1316.75 -1369.796)" fill="#fff"/>
        <path id="Trazado_1006388" data-name="Trazado 1006388" d="M1598.011,1555.787l.021-5.916a1.388,1.388,0,0,0-1.324-1.365h-6.258a1.224,1.224,0,0,0-1.174,1.234l-.023,5.859a1.336,1.336,0,0,0,1.322,1.309h6.258a1.132,1.132,0,0,0,1.179-1.122" transform="translate(-1405.839 -1369.796)" fill="#fff"/>
        <path id="Trazado_1006389" data-name="Trazado 1006389" d="M1497.325,1650.6l.021-5.965a1.288,1.288,0,0,0-1.318-1.255h-6.258a1.114,1.114,0,0,0-1.182,1.1l-.017,6.008a1.327,1.327,0,0,0,1.321,1.3h6.258a1.179,1.179,0,0,0,1.176-1.183" transform="translate(-1316.776 -1453.717)" fill="#fff"/>
        <path id="Trazado_1006390" data-name="Trazado 1006390" d="M1598.036,1650.6l.021-5.965a1.288,1.288,0,0,0-1.318-1.255h-6.258a1.114,1.114,0,0,0-1.183,1.1l-.017,6.008a1.327,1.327,0,0,0,1.321,1.3h6.258a1.178,1.178,0,0,0,1.176-1.183" transform="translate(-1405.864 -1453.717)" fill="#fff"/>
        <path id="Trazado_1006391" data-name="Trazado 1006391" d="M1396.625,1465.007l.033-5.754a1.24,1.24,0,0,0-1.311-1.2h-6.258a1.074,1.074,0,0,0-1.185,1.04l-.033,5.829a1.3,1.3,0,0,0,1.312,1.279h6.258a1.192,1.192,0,0,0,1.183-1.189" transform="translate(-1227.7 -1289.777)" fill="#fff"/>
        <path id="Trazado_1006392" data-name="Trazado 1006392" d="M1497.336,1465.007l.034-5.754a1.241,1.241,0,0,0-1.311-1.2H1489.8a1.074,1.074,0,0,0-1.185,1.04l-.033,5.829a1.3,1.3,0,0,0,1.312,1.279h6.258a1.192,1.192,0,0,0,1.184-1.189" transform="translate(-1316.787 -1289.777)" fill="#fff"/>
        <path id="Trazado_1006393" data-name="Trazado 1006393" d="M1598.047,1465.007l.034-5.754a1.24,1.24,0,0,0-1.311-1.2h-6.258a1.074,1.074,0,0,0-1.185,1.04l-.033,5.829a1.3,1.3,0,0,0,1.312,1.279h6.258a1.192,1.192,0,0,0,1.183-1.189" transform="translate(-1405.876 -1289.777)" fill="#fff"/>
        <path id="Trazado_1006394" data-name="Trazado 1006394" d="M1698.758,1465.007l.034-5.754a1.24,1.24,0,0,0-1.311-1.2h-6.258a1.074,1.074,0,0,0-1.185,1.04l-.033,5.829a1.3,1.3,0,0,0,1.312,1.279h6.258a1.192,1.192,0,0,0,1.183-1.189" transform="translate(-1494.964 -1289.777)" fill="#fff"/>
        <path id="Trazado_1006395" data-name="Trazado 1006395" d="M1396.691,1372.148l.028-5.657a1.172,1.172,0,0,0-1.317-1.107h-6.258c-.66,0-1.178.327-1.181.972l-.027,5.735a1.231,1.231,0,0,0,1.318,1.186h6.258a1.139,1.139,0,0,0,1.18-1.129" transform="translate(-1227.756 -1207.808)" fill="#fff"/>
        <path id="Trazado_1006396" data-name="Trazado 1006396" d="M1497.4,1372.148l.028-5.657a1.172,1.172,0,0,0-1.317-1.107h-6.258c-.66,0-1.178.327-1.181.972l-.027,5.735a1.231,1.231,0,0,0,1.318,1.186h6.258a1.139,1.139,0,0,0,1.18-1.129" transform="translate(-1316.844 -1207.808)" fill="#fff"/>
        <path id="Trazado_1006397" data-name="Trazado 1006397" d="M1598.113,1372.148l.028-5.657a1.173,1.173,0,0,0-1.317-1.107h-6.258c-.66,0-1.178.327-1.181.972l-.027,5.735a1.232,1.232,0,0,0,1.318,1.186h6.258a1.139,1.139,0,0,0,1.18-1.129" transform="translate(-1405.932 -1207.808)" fill="#fff"/>
        <path id="Trazado_1006398" data-name="Trazado 1006398" d="M1698.823,1372.148l.028-5.657a1.172,1.172,0,0,0-1.317-1.107h-6.258c-.66,0-1.178.327-1.181.972l-.027,5.735a1.231,1.231,0,0,0,1.318,1.186h6.258a1.139,1.139,0,0,0,1.18-1.129" transform="translate(-1495.02 -1207.808)" fill="#fff"/>
        <path id="Trazado_1006399" data-name="Trazado 1006399" d="M1396.589,1555.787l.021-5.916a1.388,1.388,0,0,0-1.324-1.365h-6.258a1.224,1.224,0,0,0-1.174,1.234l-.023,5.859a1.336,1.336,0,0,0,1.321,1.309h6.258a1.133,1.133,0,0,0,1.179-1.122" transform="translate(-1227.662 -1369.796)" fill="#fff"/>
        <path id="Trazado_1006400" data-name="Trazado 1006400" d="M1396.614,1650.6l.021-5.965a1.288,1.288,0,0,0-1.318-1.255h-6.258a1.114,1.114,0,0,0-1.182,1.1l-.017,6.008a1.327,1.327,0,0,0,1.321,1.3h6.258a1.179,1.179,0,0,0,1.175-1.183" transform="translate(-1227.688 -1453.717)" fill="#fff"/>
        <path id="Trazado_1006401" data-name="Trazado 1006401" d="M1698.666,1566.662l.034-16.8a1.38,1.38,0,0,0-1.317-1.36h-6.258a1.2,1.2,0,0,0-1.181,1.2l-.035,16.794a1.377,1.377,0,0,0,1.317,1.357h6.258a1.191,1.191,0,0,0,1.181-1.194" transform="translate(-1494.88 -1369.795)" fill="#5479f7"/>
        <path id="Trazado_1006402" data-name="Trazado 1006402" d="M1388.436,1291.182l-.016,2.114a.91.91,0,0,0,.916.894h7.015a.8.8,0,0,0,.825-.785l.015-2.127a.921.921,0,0,0-.917-.907h-7.015a.815.815,0,0,0-.823.811" transform="translate(-1228.184 -1141.452)" fill="#fff"/>
        <path id="Trazado_1006403" data-name="Trazado 1006403" d="M1489.147,1291.182l-.016,2.114a.91.91,0,0,0,.916.894h7.015a.8.8,0,0,0,.825-.785l.015-2.127a.921.921,0,0,0-.917-.907h-7.015a.815.815,0,0,0-.823.811" transform="translate(-1317.273 -1141.452)" fill="#fff"/>
        <path id="Trazado_1006404" data-name="Trazado 1006404" d="M1589.858,1291.182l-.016,2.114a.91.91,0,0,0,.916.894h7.015a.8.8,0,0,0,.825-.785l.015-2.127a.922.922,0,0,0-.917-.907h-7.015a.815.815,0,0,0-.823.811" transform="translate(-1406.361 -1141.452)" fill="#fff"/>
        <path id="Trazado_1006405" data-name="Trazado 1006405" d="M1690.577,1291.176l-.014,2.115a.915.915,0,0,0,.918.9h7.015a.8.8,0,0,0,.823-.793l.014-2.121a.92.92,0,0,0-.918-.905H1691.4a.81.81,0,0,0-.823.8" transform="translate(-1495.458 -1141.452)" fill="#5479f7"/>
        <path id="Trazado_1006406" data-name="Trazado 1006406" d="M820.519,25.614a.382.382,0,0,1-.268-.654l1-.988a.382.382,0,0,1,.536.544l-1,.988a.381.381,0,0,1-.268.11" transform="translate(-725.487 -21.108)"/>
        <path id="Trazado_1006407" data-name="Trazado 1006407" d="M790.1,55.593a.382.382,0,0,1-.268-.654l1-.988a.382.382,0,0,1,.536.544l-1,.988a.381.381,0,0,1-.268.11" transform="translate(-698.579 -47.627)"/>
        <path id="Trazado_1006408" data-name="Trazado 1006408" d="M791.268,25.451a.381.381,0,0,1-.271-.112l-.994-1a.382.382,0,1,1,.541-.539l.994,1a.382.382,0,0,1-.27.651" transform="translate(-698.732 -20.956)"/>
        <path id="Trazado_1006409" data-name="Trazado 1006409" d="M821.418,55.7a.381.381,0,0,1-.271-.112l-.994-1a.382.382,0,1,1,.541-.539l.994,1a.382.382,0,0,1-.27.651" transform="translate(-725.402 -47.711)"/>
        <path id="Trazado_1006410" data-name="Trazado 1006410" d="M235.684,655.613a.382.382,0,0,1-.268-.654l1-.988a.382.382,0,1,1,.536.544l-1,.988a.381.381,0,0,1-.268.11" transform="translate(-208.147 -578.4)"/>
        <path id="Trazado_1006411" data-name="Trazado 1006411" d="M205.266,685.588a.382.382,0,0,1-.268-.654l1-.989a.382.382,0,0,1,.536.544l-1,.989a.381.381,0,0,1-.268.11" transform="translate(-181.239 -604.916)"/>
        <path id="Trazado_1006412" data-name="Trazado 1006412" d="M206.433,655.448a.381.381,0,0,1-.271-.112l-.994-1a.382.382,0,1,1,.541-.539l.994,1a.382.382,0,0,1-.271.652" transform="translate(-181.391 -578.246)"/>
        <path id="Trazado_1006413" data-name="Trazado 1006413" d="M236.583,685.7a.38.38,0,0,1-.271-.112l-.994-1a.382.382,0,1,1,.541-.539l.994,1a.382.382,0,0,1-.271.651" transform="translate(-208.062 -605.003)"/>
        <path id="Trazado_1006414" data-name="Trazado 1006414" d="M1045.543,1674.374a.382.382,0,0,1-.268-.654l1-.988a.382.382,0,1,1,.536.544l-1,.989a.381.381,0,0,1-.268.11" transform="translate(-924.541 -1479.587)"/>
        <path id="Trazado_1006415" data-name="Trazado 1006415" d="M1015.124,1704.35a.382.382,0,0,1-.268-.654l1-.988a.382.382,0,0,1,.536.544l-1,.989a.381.381,0,0,1-.268.11" transform="translate(-897.633 -1506.104)"/>
        <path id="Trazado_1006416" data-name="Trazado 1006416" d="M1016.291,1674.208a.38.38,0,0,1-.271-.112l-.994-1a.382.382,0,0,1,.541-.539l.994,1a.382.382,0,0,1-.271.651" transform="translate(-897.785 -1479.433)"/>
        <path id="Trazado_1006417" data-name="Trazado 1006417" d="M1046.442,1704.455a.381.381,0,0,1-.271-.112l-.994-1a.382.382,0,0,1,.541-.539l.994,1a.382.382,0,0,1-.271.651" transform="translate(-924.456 -1506.189)"/>
        <path id="Trazado_1006418" data-name="Trazado 1006418" d="M1608.986,769.167a2.808,2.808,0,1,1,0-5.616.382.382,0,1,1,0,.764,2.044,2.044,0,1,0,2.048,2.044.382.382,0,1,1,.764,0,2.813,2.813,0,0,1-2.812,2.808" transform="translate(-1420.808 -675.431)"/>
        <path id="Trazado_1006419" data-name="Trazado 1006419" d="M1208.519,995.839a.382.382,0,0,1-.256-.665l21.134-19.1a.382.382,0,0,1,.512.567l-21.134,19.1a.381.381,0,0,1-.256.1" transform="translate(-1068.708 -863.342)"/>
        <path id="Trazado_1006420" data-name="Trazado 1006420" d="M1378.4,952.813a.382.382,0,0,1-.259-.663l9.93-9.167a.382.382,0,0,1,.518.561l-9.93,9.167a.381.381,0,0,1-.259.1" transform="translate(-1218.985 -834.067)"/>
      </g>
    </g>
  </g>
</svg>
