<svg xmlns="http://www.w3.org/2000/svg" xmlns:xlink="http://www.w3.org/1999/xlink" width="292" height="180" viewBox="0 0 292 180">
  <defs>
    <clipPath id="clip-path">
      <rect id="Rectángulo_458343" data-name="Rectángulo 458343" width="239.405" height="180" fill="none"/>
    </clipPath>
    <clipPath id="clip-path-3">
      <rect id="Rectángulo_458333" data-name="Rectángulo 458333" width="238.707" height="175.093" fill="none"/>
    </clipPath>
    <clipPath id="clip-path-4">
      <rect id="Rectángulo_458334" data-name="Rectángulo 458334" width="138.962" height="107.001" fill="none"/>
    </clipPath>
    <clipPath id="clip-path-5">
      <rect id="Rectángulo_458335" data-name="Rectángulo 458335" width="12.155" height="14.235" fill="none"/>
    </clipPath>
    <clipPath id="clip-path-6">
      <rect id="Rectángulo_458336" data-name="Rectángulo 458336" width="4.673" height="9.958" fill="none"/>
    </clipPath>
    <clipPath id="clip-path-7">
      <rect id="Rectángulo_458339" data-name="Rectángulo 458339" width="209.146" height="3.049" fill="none"/>
    </clipPath>
  </defs>
  <g id="Grupo_1182667" data-name="Grupo 1182667" transform="translate(-1122 -615)">
    <path id="Image_Place_Holder" data-name="Image Place Holder" d="M20,0H272a20,20,0,0,1,20,20V129a0,0,0,0,1,0,0H0a0,0,0,0,1,0,0V20A20,20,0,0,1,20,0Z" transform="translate(1122 666)" fill="#fbded8"/>
    <g id="Grupo_1182666" data-name="Grupo 1182666" transform="translate(1145.412 615)">
      <g id="Grupo_1182665" data-name="Grupo 1182665" clip-path="url(#clip-path)">
        <g id="Grupo_1182664" data-name="Grupo 1182664">
          <g id="Grupo_1182663" data-name="Grupo 1182663" clip-path="url(#clip-path)">
            <path id="Trazado_1006806" data-name="Trazado 1006806" d="M41.026,170.515s-29.812-21.23-38.395-57.366S7.148,33.2,31.991,11.064s69.562-7.227,89.437,11.293L141.3,40.877a92.984,92.984,0,0,0,43.815,9.486c24.843-.9,46.977,32.974,52.849,59.624s-8.131,61.883-8.131,61.883Z" transform="translate(0 0)" fill="#ddecff"/>
            <g id="Grupo_1182650" data-name="Grupo 1182650" transform="translate(0.466 1.294)" style="mix-blend-mode: multiply;isolation: isolate">
              <g id="Grupo_1182649" data-name="Grupo 1182649">
                <g id="Grupo_1182648" data-name="Grupo 1182648" clip-path="url(#clip-path-3)">
                  <path id="Trazado_1006807" data-name="Trazado 1006807" d="M27.862,177.011a58.007,58.007,0,0,1-26.2-37.491c-5.42-26.2,18.068-50.139,20.326-63.238s-2.71-29.36,18.068-42.008,57.818-8.131,71.82-11.293,30.264-24.843,58.27-19.875,55.107,19.875,56.462,52.4-9.034,33.426,1.355,51.043,14.454,29.812,9.486,47.88-15.358,23.037-15.358,23.037Z" transform="translate(-0.854 -2.37)" fill="#ddecff"/>
                </g>
              </g>
            </g>
            <g id="Grupo_1182653" data-name="Grupo 1182653" transform="translate(61.804 68.934)" style="mix-blend-mode: multiply;isolation: isolate">
              <g id="Grupo_1182652" data-name="Grupo 1182652">
                <g id="Grupo_1182651" data-name="Grupo 1182651" clip-path="url(#clip-path-4)">
                  <path id="Trazado_1006808" data-name="Trazado 1006808" d="M122.29,227.427c-1.292-1.355-20.249-39.3.862-74.079s74.105-30.716,95.216-17.164,31.452,31.167,33.606,49.687S239.91,233.3,239.91,233.3Z" transform="translate(-113.234 -126.298)" fill="#ddecff"/>
                </g>
              </g>
            </g>
            <path id="Trazado_1006809" data-name="Trazado 1006809" d="M379.627,179.887H355.273a2.729,2.729,0,0,1-2.729-2.729V165a2.729,2.729,0,0,1,2.729-2.729h24.354A2.729,2.729,0,0,1,382.356,165v12.158a2.729,2.729,0,0,1-2.729,2.729" transform="translate(-160.124 -73.703)" fill="#60a8ff"/>
            <path id="Trazado_1006810" data-name="Trazado 1006810" d="M376.643,199.555l3.859-9.147h-7.719Z" transform="translate(-169.316 -86.482)" fill="#60a8ff"/>
            <path id="Trazado_1006811" data-name="Trazado 1006811" d="M379.685,170.436h6.972v1.02l3.418-1.971-3.418-1.97v1.02h-6.972Z" transform="translate(-172.451 -76.084)" fill="#223a7a"/>
            <path id="Trazado_1006812" data-name="Trazado 1006812" d="M390.075,179.362H383.1v-1.02l-3.418,1.971,3.418,1.97v-1.02h6.972Z" transform="translate(-172.451 -81.002)" fill="#fff"/>
            <path id="Trazado_1006813" data-name="Trazado 1006813" d="M367.692,176.147l-.332.121a10.528,10.528,0,0,1-1.571-2.467,8.854,8.854,0,0,1-.556-2.857l.242-.1L364,167.314a2.9,2.9,0,0,0-.716.812c-.835,1.41-.752,3.573.087,5.687s1.737,4,3.374,5.185a3.235,3.235,0,0,0,2.437.72Z" transform="translate(-164.737 -75.993)" fill="#223a7a"/>
            <path id="Trazado_1006814" data-name="Trazado 1006814" d="M373.4,182.691l-.458.166,1.509,3.612a2.677,2.677,0,0,0,.456-.2.879.879,0,0,0,.4-1.095l-.789-1.986a.877.877,0,0,0-1.115-.5" transform="translate(-169.39 -82.953)" fill="#223a7a"/>
            <path id="Trazado_1006815" data-name="Trazado 1006815" d="M366.7,166.137a3.463,3.463,0,0,0-.591.277l1.505,3.6.507-.212a.878.878,0,0,0,.479-1.128l-.791-2.031a.875.875,0,0,0-1.11-.509" transform="translate(-166.287 -75.435)" fill="#223a7a"/>
            <path id="Trazado_1006816" data-name="Trazado 1006816" d="M116.916,253.234V212.581s-.452-10.954,5.307-14.116S152.262,197,152.262,197v56.237Z" transform="translate(-53.099 -89.269)" fill="#1c83ff"/>
            <path id="Trazado_1006817" data-name="Trazado 1006817" d="M191.068,127.65s-1.468,12.309-2.033,13.325l-.564,1.016-2.823,1.92s5.42,7.679,12.082,8.921,6.1-2.71,6.1-2.71l-1.016-2.146,1.355-11.744s-12.083-5.533-13.1-8.582" transform="translate(-84.32 -57.978)" fill="#ff9d8c"/>
            <path id="Trazado_1006818" data-name="Trazado 1006818" d="M179.234,157.708l4.4-1.92a20.729,20.729,0,0,0,9.373,7.34c6.55,2.71,6.663,1.129,7,0a4.293,4.293,0,0,0-.113-2.372l.485-3.954,2.619.873,9.092,73.546-23.376,1.129Z" transform="translate(-81.407 -70.758)" fill="#fff"/>
            <path id="Trazado_1006819" data-name="Trazado 1006819" d="M218.751,157.788s1.581,3.651,3.049,12.234A291.684,291.684,0,0,1,224.962,203c.339,9.937.565,32.635.565,32.635H255c.338,0,2.372-11.18,2.372-11.18S244.5,213.422,243.82,211.616c-.452-1.2-.226-23.526-2.146-33.8s-4.4-12.347-9.6-14.906a112.777,112.777,0,0,0-13.325-5.119" transform="translate(-99.356 -71.666)" fill="#223a7a"/>
            <path id="Trazado_1006820" data-name="Trazado 1006820" d="M246.191,237.344a.273.273,0,0,1-.273-.273c0-.808-.144-12.278-.282-23.372s-.282-22.568-.282-23.379a.273.273,0,0,1,.546,0c0,.807.144,12.278.282,23.372s.283,22.568.283,23.379a.273.273,0,0,1-.273.273" transform="translate(-111.439 -86.318)" fill="#8593b6"/>
            <path id="Trazado_1006821" data-name="Trazado 1006821" d="M139.115,271.648l-.226,15.7h34.329s1.468-13.325.9-14.568-35.007-1.129-35.007-1.129" transform="translate(-63.083 -123.38)" fill="#223a7a"/>
            <g id="Grupo_1182656" data-name="Grupo 1182656" transform="translate(107.692 71.003)" style="mix-blend-mode: multiply;isolation: isolate">
              <g id="Grupo_1182655" data-name="Grupo 1182655">
                <g id="Grupo_1182654" data-name="Grupo 1182654" clip-path="url(#clip-path-5)">
                  <path id="Trazado_1006822" data-name="Trazado 1006822" d="M203.855,141.744a17.965,17.965,0,0,0,4.8,2.58l.806-6.984s-9.076-4.157-12.156-7.251a18.924,18.924,0,0,0,6.547,11.655" transform="translate(-197.308 -130.089)" fill="#8e9bbb"/>
                </g>
              </g>
            </g>
            <path id="Trazado_1006823" data-name="Trazado 1006823" d="M217.655,83.545a24.431,24.431,0,0,1,2.823,9.034c.452,4.968,0,17.729-4.065,23.149s-12.534,3.84-16.374.565c-3.524-3.006-7-6.324-7.9-12.873s1.92-18.972,9.937-21.569,15.584,1.694,15.584,1.694" transform="translate(-87.193 -36.797)" fill="#ff9d8c"/>
            <path id="Trazado_1006824" data-name="Trazado 1006824" d="M232.96,279.481s-.4,0-1-.016c-.142-.005-.3,0-.464-.005-.584-.016-1.294-.033-2.009-.055l-.48-.016c-.71-.016-1.315.071-1.883.038H227.1c-.12-.005-.295.011-.437.016a1.063,1.063,0,0,1-.18.005,2.653,2.653,0,0,1-.748-.295,50.77,50.77,0,0,0-11.713-1.561c-5.043.022-9.568.366-10.3-.251s-1.19-6.964,3.117-7.379l5.294,2.009s12.09-1.435,16.522,1.834,4.306,5.676,4.306,5.676" transform="translate(-92.311 -122.615)" fill="#ff9d8c"/>
            <path id="Trazado_1006825" data-name="Trazado 1006825" d="M241.206,284.314c-.12-.005-.295.011-.437.016a5.12,5.12,0,0,0-.464-.622c-1.365-1.392-4.661-2.292-5.857-2.582a.205.205,0,0,1-.153-.246.21.21,0,0,1,.251-.153c1.741.42,5.436,1.5,6.484,3.258.033.049.12.218.175.327" transform="translate(-106.413 -127.504)" fill="#223a7a"/>
            <path id="Trazado_1006826" data-name="Trazado 1006826" d="M244.884,283.149c-.159,0-.323-.008-.481-.017-1.489-2.717-3.927-3.5-6.939-4.466l-.178-.059a.205.205,0,1,1,.129-.39l.174.059c3.185,1.022,5.747,1.843,7.3,4.873" transform="translate(-107.71 -126.36)" fill="#223a7a"/>
            <path id="Trazado_1006827" data-name="Trazado 1006827" d="M248.789,282.186c-.142,0-.3,0-.464-.006a11.9,11.9,0,0,0-7.851-5.82.205.205,0,0,1-.169-.239.211.211,0,0,1,.239-.163,12.19,12.19,0,0,1,8.245,6.228" transform="translate(-109.144 -125.337)" fill="#223a7a"/>
            <path id="Trazado_1006828" data-name="Trazado 1006828" d="M190.459,90.976a10.571,10.571,0,0,0,4.235-4.517,12.86,12.86,0,0,0,1.524-6.324,19.519,19.519,0,0,1,7.9.9c4.743,1.412,10.389,3.332,15.132.621S224,74.6,221.683,72.8c-2.593-2.023-7.736-.79-7.736-.79s1.976-1.92.9-3.049-4.969.339-4.969.339-4.743-3.783-13.72-3.332-13.269,6.719-13.777,13.72a38.764,38.764,0,0,0,2.033,14Z" transform="translate(-82.808 -29.943)" fill="#223a7a"/>
            <g id="Grupo_1182659" data-name="Grupo 1182659" transform="translate(123.543 62.593)" style="mix-blend-mode: multiply;isolation: isolate">
              <g id="Grupo_1182658" data-name="Grupo 1182658">
                <g id="Grupo_1182657" data-name="Grupo 1182657" clip-path="url(#clip-path-6)">
                  <path id="Trazado_1006829" data-name="Trazado 1006829" d="M228.672,114.818a14.448,14.448,0,0,0-.624,4.041c-.1,1.036-.29,2.243.659,2.942.453.334,2.6,1.235,1.494,1.965a2.9,2.9,0,0,1-1.6.18c-.33-.016-.663-.029-.992-.054-.354-.026-.7-.133-1.056-.135a.206.206,0,0,0-.1.382,4.459,4.459,0,0,0,2.071.492,3.126,3.126,0,0,0,1.714-.3,1.226,1.226,0,0,0,.783-.878,1.4,1.4,0,0,0-.675-1.209c-.427-.317-.951-.464-1.382-.773-.6-.428-.549-1.149-.506-1.816.1-1.605.47-3.183.613-4.781.022-.245-.316-.245-.394-.053" transform="translate(-226.35 -114.68)" fill="#8e9bbb"/>
                </g>
              </g>
            </g>
            <path id="Trazado_1006830" data-name="Trazado 1006830" d="M236.962,120.182c-.169.952-.861,1.625-1.547,1.5s-1.105-.991-.937-1.943.861-1.625,1.547-1.5,1.105.991.937,1.943" transform="translate(-106.482 -53.697)" fill="#223a7a"/>
            <path id="Trazado_1006831" data-name="Trazado 1006831" d="M220.976,118.708c-.153,1.027-.877,1.77-1.616,1.66s-1.216-1.032-1.063-2.059.877-1.771,1.617-1.66,1.216,1.032,1.063,2.059" transform="translate(-99.136 -52.976)" fill="#223a7a"/>
            <path id="Trazado_1006832" data-name="Trazado 1006832" d="M235.053,113.494c.528.089,1.06,0,1.593.035.128.009.254.028.381.04.091.009-.169-.027-.043-.006l.081.013c.067.012.133.026.2.042.113.027.223.07.336.095a1.3,1.3,0,0,0,.321.041l.174-.023-.11.02a1.058,1.058,0,0,0,.216-.023.587.587,0,0,0,.406-.713.683.683,0,0,0-.116-.23c-.022-.029-.045-.059-.069-.088l.064.073c-.022-.032-.046-.062-.07-.093a.34.34,0,0,0-.121-.121c-.042-.032-.084-.067-.128-.1a1.535,1.535,0,0,0-.49-.2,4.04,4.04,0,0,0-.97-.124,6.744,6.744,0,0,0-.961.076,1.849,1.849,0,0,0-.823.3.546.546,0,0,0-.255.531.524.524,0,0,0,.382.443" transform="translate(-106.584 -50.933)" fill="#223a7a"/>
            <path id="Trazado_1006833" data-name="Trazado 1006833" d="M220.325,111.34a2.21,2.21,0,0,0-.221-.114c-.064-.029-.239-.121-.107-.049-.048-.026-.1-.053-.145-.077a3.335,3.335,0,0,0-.682-.245,4.538,4.538,0,0,0-1.586-.109,3.684,3.684,0,0,0-1.567.49,1,1,0,0,0-.2.14c-.039.049-.077.1-.114.148l.032-.049a.556.556,0,0,0-.237.46.459.459,0,0,0,.244.407.689.689,0,0,0,.549,0h-.285a1.024,1.024,0,0,0,.425,0c.006,0,.152-.038.056-.017s.154-.019.181-.022.2-.021.021,0l.1-.012c.086-.01.17-.021.256-.028.373-.029.744-.046,1.118-.058.347-.011.7-.014,1.046,0,.148.007.3.011.445.016.084,0,.048.015-.009,0,.03.009.062.015.093.023.062.017.122.037.182.06a.519.519,0,0,0,.618-.3.526.526,0,0,0-.214-.655" transform="translate(-97.88 -50.289)" fill="#223a7a"/>
            <path id="Trazado_1006834" data-name="Trazado 1006834" d="M225.552,138.521a5.107,5.107,0,0,1,2.551-2.3c-.946-.1-5.413-.51-6.54.13-1.263.717.233,3.6,2.845,3.74a3.567,3.567,0,0,0,.761-.044,3.77,3.77,0,0,1,.383-1.53" transform="translate(-100.426 -61.772)" fill="#223a7a"/>
            <path id="Trazado_1006835" data-name="Trazado 1006835" d="M191.441,129.136s.451,1.75,3.049,3.783a30.1,30.1,0,0,0,6.361,3.519l.3-1.317a22.346,22.346,0,0,1-5.7-3.558,7.379,7.379,0,0,1-2.033-2.88Z" transform="translate(-86.952 -58.448)" fill="#dee1eb"/>
            <path id="Trazado_1006836" data-name="Trazado 1006836" d="M208.576,138.689a3.266,3.266,0,0,1,3.4,2.625c.146,1.069-.859,2.268-3.208,1.215-2.918-1.308-2.284-3.743-.194-3.84" transform="translate(-93.924 -62.99)" fill="#223a7a"/>
            <path id="Trazado_1006837" data-name="Trazado 1006837" d="M190.541,88.008s.9-6.49,5.251-10.9c8.3-8.412,15.358-7.9,15.358-7.9s-.056-1.186-2.71-2.089c-2.492-.849-3.614-.4-3.614-.4a20.909,20.909,0,0,0-12.591,6.945,27.039,27.039,0,0,0-6.38,14.511Z" transform="translate(-84.414 -30.25)" fill="#dee1eb"/>
            <path id="Trazado_1006838" data-name="Trazado 1006838" d="M186.058,104.268c-5.437-.921-8.469,3.332-8.7,7.622s2.892,7.554,7.058,7.228c9.373-.734,8.3-13.72,1.637-14.85" transform="translate(-80.552 -47.301)" fill="#fff"/>
            <path id="Trazado_1006839" data-name="Trazado 1006839" d="M185.131,116.906a3.706,3.706,0,0,1-3.342-1.992,4.129,4.129,0,0,1,.159-4.267.2.2,0,1,1,.338.23,3.716,3.716,0,0,0-.138,3.841,3.29,3.29,0,0,0,3.087,1.777,3.583,3.583,0,0,0,2.965-1.6,4.524,4.524,0,0,0,.448-4.01,3.052,3.052,0,0,0-3.046-2,.2.2,0,0,1-.054-.406,3.422,3.422,0,0,1,3.483,2.263,4.946,4.946,0,0,1-.491,4.383,3.983,3.983,0,0,1-3.294,1.782l-.115,0" transform="translate(-82.333 -49.259)" fill="#818fb3"/>
            <path id="Trazado_1006840" data-name="Trazado 1006840" d="M155.44,156.409s-16.487,4.065-22.246,10.615-8.469,38.847-8.582,44.831,4.065,8.469,6.55,10.163,13.438,4.743,22.246,5.194,17.164,0,17.164,0a11.731,11.731,0,0,1,1.327-4.742c1.257-2.619,2.851-3.162,2.851-3.162l-7.566-2.71s-1.325-23.739-3.388-35.233a102.123,102.123,0,0,0-8.356-24.956" transform="translate(-56.597 -71.04)" fill="#223a7a"/>
            <path id="Trazado_1006841" data-name="Trazado 1006841" d="M227.273,213.941a.273.273,0,0,1-.249-.383c1.545-3.486,3.145-10.328,4.047-15.128l.074-.388c.273-1.412.612-3.168-.065-4.38-.346-.618-1.126-1.96-1.876-3.25-.779-1.339-1.514-2.6-1.718-2.981-.4-.737.854-2.707,2.667-5.408.49-.73.913-1.361,1.159-1.788.646-1.118.216-2.142-.282-3.328l-.17-.408c-.451-1.108-.964-2.218-1.46-3.292-.2-.439-.406-.878-.606-1.319q-.4-.876-.8-1.778a104.068,104.068,0,0,0-5.359-10.789.273.273,0,1,1,.469-.279,104.483,104.483,0,0,1,5.388,10.845q.4.9.8,1.777.3.66.6,1.315c.5,1.079,1.014,2.2,1.47,3.315l.168.4c.508,1.209,1.033,2.459.251,3.811-.256.443-.683,1.081-1.179,1.818-.945,1.409-2.911,4.341-2.639,4.845.2.37.933,1.631,1.709,2.966.752,1.293,1.535,2.638,1.881,3.257.775,1.386.414,3.251.124,4.75l-.074.385c-.328,1.748-2.068,10.7-4.084,15.248a.272.272,0,0,1-.249.163" transform="translate(-101.102 -72.176)" fill="#8593b6"/>
            <path id="Trazado_1006842" data-name="Trazado 1006842" d="M190.071,214.149a.272.272,0,0,1-.194-.081c-1.283-1.293-7.471-12.008-7.932-14.023-.253-1.1.381-3.9.993-6.607a21.692,21.692,0,0,0,.826-4.851c-.209-.878-1.791-2.17-3.321-3.42-1.849-1.51-3.76-3.072-4.131-4.478-.421-1.6-.061-11.607.177-18.229.085-2.381.153-4.262.152-4.933a.273.273,0,0,1,.546,0c0,.681-.067,2.566-.153,4.953-.223,6.19-.595,16.549-.195,18.071.325,1.235,2.25,2.807,3.948,4.195,1.674,1.368,3.255,2.66,3.506,3.716.169.71-.291,2.743-.824,5.1-.571,2.523-1.218,5.383-.994,6.366.452,1.975,6.527,12.49,7.788,13.759a.273.273,0,0,1-.194.466" transform="translate(-79.992 -71.424)" fill="#8593b6"/>
            <path id="Trazado_1006843" data-name="Trazado 1006843" d="M160.8,225.927l-.038,0a.274.274,0,0,1-.233-.308c.2-1.42,3.333-29.692,3.477-31.858a.27.27,0,0,1,.291-.254.273.273,0,0,1,.254.29c-.144,2.169-3.28,30.477-3.481,31.9a.274.274,0,0,1-.27.235" transform="translate(-72.91 -87.888)" fill="#8593b6"/>
            <path id="Trazado_1006844" data-name="Trazado 1006844" d="M178.479,258.253a.285.285,0,0,1-.1-.02c-.694-.282-3.761-1.316-7.643-2.625-7.837-2.643-18.57-6.262-20.611-7.323a.273.273,0,1,1,.252-.484c2,1.041,13.155,4.8,20.534,7.289,3.892,1.313,6.966,2.349,7.675,2.636a.273.273,0,0,1-.1.526" transform="translate(-68.118 -112.536)" fill="#8593b6"/>
            <path id="Trazado_1006845" data-name="Trazado 1006845" d="M169.825,283.137c-6.9,0-20.268-1.243-30.426-4.836a.273.273,0,0,1,.182-.515c12.832,4.539,30.782,5.314,34.122,4.565a.273.273,0,1,1,.12.533,21.769,21.769,0,0,1-4,.254" transform="translate(-63.232 -126.162)" fill="#8593b6"/>
            <path id="Trazado_1006846" data-name="Trazado 1006846" d="M48.038,146.926c2.141,1.884,4.853,3.091,6.732,5.268.74.857,1.4,1.769,2.09,2.667.5.654,1.833,1.738,2.05,2.56.095.362.075-.128-.021-.491,0-.015-.012-.03-.016-.045-.187-1.664-.322-3.335-.38-5.009s.045-3.346-.059-5.013a7.968,7.968,0,0,0-2.8-6.1c-.94-.72-2.147-1.159-3.011-1.958-.82-.759-.491-1.628-.009-2.474a8.426,8.426,0,0,0,1.173-2.481,4.381,4.381,0,0,0-.715-2.987c-1.118-1.877-3.6-3.971-5.947-3.69-1.958.234-2.18,2.493-2.153,4.068.027,1.53.178,3.055.193,4.587.015,1.574-.252,3.117-.275,4.683a8.129,8.129,0,0,0,3.151,6.415" transform="translate(-20.387 -57.75)" fill="#6baeff"/>
            <path id="Trazado_1006847" data-name="Trazado 1006847" d="M62.65,180.784a25.133,25.133,0,0,1,2.121-4.044,31.138,31.138,0,0,0,3.208-5.489c.791-2.028.675-4.2.753-6.334a40.806,40.806,0,0,0,.4-4.708c-.061-.755-.5-1.976-1.472-1.851-.76.1-1.211,1.039-1.5,1.64a28.885,28.885,0,0,0-1.241,3.268c-.148.43-.289.869-.475,1.284-.109.242-.455.831-.781.751-.555-.138-.051-2.4.031-2.8a36.823,36.823,0,0,0,1.125-5.961c.126-3.006-.108-6.585-3.048-8.229a2.1,2.1,0,0,0-2.473-.043,4.117,4.117,0,0,0-1.031,2.638,18.073,18.073,0,0,0,1.215,8.018,23.2,23.2,0,0,1,1.674,6.689c.062,2.22-1.094,4.188-1.636,6.285a19.874,19.874,0,0,0-.689,6.2c-.005,1.356.044,2.7.143,4.05.091,1.243.2,2.486.351,3.723.031.251.059.512.092.773-.478-1.15-.645-2.468-1.04-3.623-.7-2.054-1.519-4.066-2.194-6.13a50.862,50.862,0,0,0-1.82-5.062,12.264,12.264,0,0,0-2.811-4.293,4.1,4.1,0,0,0-2.762-1.074,7.633,7.633,0,0,0-1.9.4,2.14,2.14,0,0,1-2.042-.359c-2.107-1.62-2.748-4.525-4.309-6.575-1.164-1.53-3.924-4.138-5.954-2.47a4.91,4.91,0,0,0-1.318,3.906,9.464,9.464,0,0,0,1.646,4.524c.91,1.463,2.086,2.772,2.923,4.275a4.541,4.541,0,0,1,.493,2.742,6.53,6.53,0,0,0,.166,2.768c.966,2.734,3.982,2.353,6.329,2.424a17.558,17.558,0,0,1,4.961.819,5.516,5.516,0,0,1,3.617,3.56,12.809,12.809,0,0,0,1.593,3.849,4.1,4.1,0,0,0,1.56,1.161c.915.4,3.7.58,3.725.326A12.512,12.512,0,0,1,61,185.249c.475-1.518,1.033-3,1.648-4.465" transform="translate(-15.105 -67.165)" fill="#6baeff"/>
            <path id="Trazado_1006848" data-name="Trazado 1006848" d="M97.853,203.21c-.242-1.563-.2-3.286-.936-4.722a.214.214,0,0,0-.288-.075c-.531.294-.553,1.151-.6,1.676-.072.871-.019,1.744-.126,2.613a19.594,19.594,0,0,1-1.091,4.538,4.88,4.88,0,0,1-3.4,3.058,8.6,8.6,0,0,0-2.972,1.31,6.262,6.262,0,0,0-1.743,2.4,36,36,0,0,0-2.128,7.837c-.343,1.77-.622,3.547-1.052,5.3a52.108,52.108,0,0,0-1.137,5.281c-.041.09-.085.179-.124.27-.112.267.306.412.45.19A17.58,17.58,0,0,1,89.3,226.5c1.273-.65,2.964-.784,4.025-1.8a3.529,3.529,0,0,0,.8-3.016,9.481,9.481,0,0,0-1.516-3.71,3.133,3.133,0,0,1-.676-2.134,2.752,2.752,0,0,1,1.378-1.673c1.171-.728,2.541-1.055,3.5-2.1a5.748,5.748,0,0,0,1.484-3.5,24.122,24.122,0,0,0-.437-5.351" transform="translate(-37.356 -90.106)" fill="#6baeff"/>
            <path id="Trazado_1006849" data-name="Trazado 1006849" d="M60.536,218.68a22.525,22.525,0,0,0-5.335-4.94c-1.084-.72-3.643-2.141-4.158-.016-.3,1.245.916,2.47,1.718,3.25a32.887,32.887,0,0,1,3.616,3.536c-1.259.4-2.575.48-3.669,1.35-1.295,1.03-1.876,3.021-.592,4.283a8.138,8.138,0,0,0,2.235,1.37c1.013.491,2.045.935,3.083,1.369a26.03,26.03,0,0,1,6.425,3.421c1.949,1.564,3.78,4.207,3.935,6.758.015.243-.077.021.068-.09.079.071.347-.056.345-.2a26.907,26.907,0,0,0-2.267-10.856,45.335,45.335,0,0,0-5.4-9.237" transform="translate(-23.162 -96.564)" fill="#6baeff"/>
            <path id="Trazado_1006850" data-name="Trazado 1006850" d="M58.99,158.974c.826,1.713,1.689,3.387,2.606,5.058a40.721,40.721,0,0,1,2.423,4.921c.813,2.113,1.665,4.194,2.524,6.289a62.065,62.065,0,0,1,2.332,6.659,79.045,79.045,0,0,1,2.637,13.542,55,55,0,0,1,.275,7c-.05,1.825-.255,3.631-.427,5.447a32.264,32.264,0,0,0-.149,5.7c.132,1.585.384,3.469,1.614,4.6a.283.283,0,0,0,.442-.341c-1.462-3-1.38-6.265-1.1-9.516.154-1.794.368-3.579.428-5.381a53.874,53.874,0,0,0-.229-6.871,81.3,81.3,0,0,0-2.479-13.271,59.891,59.891,0,0,0-2.18-6.567c-.85-2.152-1.832-4.246-2.656-6.409-1.491-3.912-3.762-7.38-5.774-11.026-.1-.189-.379-.023-.287.168" transform="translate(-26.784 -72.091)" fill="#43578e"/>
            <path id="Trazado_1006851" data-name="Trazado 1006851" d="M81.867,204.653a32.378,32.378,0,0,1,1.449-8.309c.448-1.267.991-2.5,1.423-3.772a7.175,7.175,0,0,0,.616-3.612.129.129,0,0,0-.247,0c-.184.639-.164,1.338-.3,1.993a17.66,17.66,0,0,1-.5,1.882c-.421,1.316-.972,2.578-1.449,3.874a19.171,19.171,0,0,0-1.193,7.944.1.1,0,0,0,.2,0" transform="translate(-37.074 -85.783)" fill="#43578e"/>
            <path id="Trazado_1006852" data-name="Trazado 1006852" d="M51.815,187.637c1.13,2.732,4.53,2.889,7.005,3.5a6.568,6.568,0,0,1,4.01,3.148,24.056,24.056,0,0,1,2.29,5.511.017.017,0,0,0,.033-.009c-.692-3.274-1.684-7.217-5.06-8.74-2.7-1.221-6.269-.608-8-3.529-.086-.144-.35-.047-.281.118" transform="translate(-23.529 -85.138)" fill="#43578e"/>
            <path id="Trazado_1006853" data-name="Trazado 1006853" d="M78.788,216.949c.134.182.258.371.4.55a1.479,1.479,0,0,0,.225.242.526.526,0,0,0,.315.16.069.069,0,0,0,.059-.1,1.082,1.082,0,0,0-.236-.216c-.081-.071-.164-.142-.242-.216-.158-.15-.3-.312-.457-.464-.029-.029-.087.01-.06.046" transform="translate(-35.782 -98.511)" fill="#43578e"/>
            <path id="Trazado_1006854" data-name="Trazado 1006854" d="M65.8,232.663a27.516,27.516,0,0,1,5.179,5.571,33.691,33.691,0,0,1,1.887,3.1,34.625,34.625,0,0,1,1.524,3.6c.037.092.205.094.193-.026-.271-2.569-1.9-4.771-3.2-6.908a16.472,16.472,0,0,0-2.424-2.932,21.517,21.517,0,0,0-2.982-2.632c-.133-.094-.3.123-.176.228" transform="translate(-29.866 -105.561)" fill="#43578e"/>
            <path id="Trazado_1006855" data-name="Trazado 1006855" d="M89.452,227.314c-.939.533-.97,2.016-.988,2.964-.035,1.821.415,3.53-.384,5.265a40.985,40.985,0,0,1-2.781,4.329,9.425,9.425,0,0,0-1.666,4.743c0,.094.146.147.19.051a19.757,19.757,0,0,0,.709-2.369,9.94,9.94,0,0,1,1.157-2.445,40.062,40.062,0,0,0,2.65-4.035,9.481,9.481,0,0,0,.587-4.709c-.031-1.059-.138-2.759.716-3.547.134-.123-.037-.335-.191-.248" transform="translate(-37.985 -103.236)" fill="#43578e"/>
            <path id="Trazado_1006856" data-name="Trazado 1006856" d="M73.639,259.262c-3.784-.052-10.992-.094-10.992-.094l1.784,13.242a6,6,0,0,0,5.95,5.2H76.9a6,6,0,0,0,5.95-5.2l1.783-13.242s-7.207.041-10.991.094" transform="translate(-28.454 -117.713)" fill="#fff"/>
            <path id="Trazado_1006857" data-name="Trazado 1006857" d="M347.551,214.253l-21.588,42.761-62.937.451L282.45,213.65Z" transform="translate(-119.465 -97.039)" fill="#f6f7fa"/>
            <path id="Trazado_1006858" data-name="Trazado 1006858" d="M186.5,256.384l.012-3.423h40.742L246,211.857h65.158l1.637,1.581H249.14l-19.48,42.912s-43.163-.078-43.163.035" transform="translate(-84.706 -96.224)" fill="#dadee8"/>
            <path id="Trazado_1006859" data-name="Trazado 1006859" d="M345.714,254.616c-.711,2.133-4.57,3.78-8.619,3.679s-6.755-1.912-6.045-4.045,4.57-3.78,8.619-3.679,6.756,1.912,6.045,4.046" transform="translate(-150.31 -113.806)" fill="#dadee8"/>
            <path id="Trazado_1006860" data-name="Trazado 1006860" d="M265.352,257.712a.277.277,0,0,1-.113-.025.273.273,0,0,1-.135-.361l19.552-43.072h63.829a.273.273,0,0,1,0,.546H285.008L265.6,257.552a.273.273,0,0,1-.248.16" transform="translate(-120.398 -97.313)" fill="#fff"/>
            <rect id="Rectángulo_458337" data-name="Rectángulo 458337" width="74.869" height="16.6" transform="translate(24.086 163.4)" fill="#596b9b"/>
            <rect id="Rectángulo_458338" data-name="Rectángulo 458338" width="134.704" height="16.6" transform="translate(98.528 163.4)" fill="#7a89af"/>
            <g id="Grupo_1182662" data-name="Grupo 1182662" transform="translate(24.086 163.4)" style="mix-blend-mode: multiply;isolation: isolate">
              <g id="Grupo_1182661" data-name="Grupo 1182661">
                <g id="Grupo_1182660" data-name="Grupo 1182660" clip-path="url(#clip-path-7)">
                  <path id="Trazado_1006861" data-name="Trazado 1006861" d="M119,299.375H44.13v3.049H253.276v-3.049Z" transform="translate(-44.13 -299.375)" fill="#bdc4d7"/>
                </g>
              </g>
            </g>
            <rect id="Rectángulo_458340" data-name="Rectángulo 458340" width="81.758" height="4.065" transform="translate(20.473 160.126)" fill="#6f7fa9"/>
            <rect id="Rectángulo_458341" data-name="Rectángulo 458341" width="134.704" height="4.065" transform="translate(101.803 160.126)" fill="#9ca6c3"/>
            <path id="Trazado_1006862" data-name="Trazado 1006862" d="M122.212,117.895H95.782a2.962,2.962,0,0,1-2.962-2.962V101.739a2.962,2.962,0,0,1,2.962-2.962h26.43a2.962,2.962,0,0,1,2.962,2.962v13.194a2.961,2.961,0,0,1-2.962,2.962" transform="translate(-42.158 -44.864)" fill="#fff"/>
            <path id="Trazado_1006863" data-name="Trazado 1006863" d="M157.636,112.8l-9.927-4.189v8.377Z" transform="translate(-67.089 -49.333)" fill="#fff"/>
            <path id="Trazado_1006864" data-name="Trazado 1006864" d="M111.277,114.768a1.828,1.828,0,1,1-1.828-1.828,1.829,1.829,0,0,1,1.828,1.828" transform="translate(-48.88 -51.297)" fill="#223a7a"/>
            <path id="Trazado_1006865" data-name="Trazado 1006865" d="M122.765,114.768a1.828,1.828,0,1,1-1.828-1.828,1.829,1.829,0,0,1,1.828,1.828" transform="translate(-54.098 -51.297)" fill="#223a7a"/>
            <path id="Trazado_1006866" data-name="Trazado 1006866" d="M134.253,114.768a1.828,1.828,0,1,1-1.828-1.828,1.829,1.829,0,0,1,1.828,1.828" transform="translate(-59.316 -51.297)" fill="#223a7a"/>
            <path id="Trazado_1006867" data-name="Trazado 1006867" d="M336.519,24.409H275.5a7.1,7.1,0,0,0-7.1,7.1V60.451a7.1,7.1,0,0,0,7.1,7.1h5.469a25.06,25.06,0,0,1-2.413,11.518,30.656,30.656,0,0,0,13.229-11.518h44.733a7.1,7.1,0,0,0,7.1-7.1V31.5a7.1,7.1,0,0,0-7.1-7.1" transform="translate(-121.909 -11.086)" fill="#60a8ff"/>
            <path id="Trazado_1006868" data-name="Trazado 1006868" d="M319.072,47.179H288.808a1.506,1.506,0,1,1,0-3.011h30.264a1.506,1.506,0,1,1,0,3.011" transform="translate(-130.491 -20.061)" fill="#fff"/>
            <path id="Trazado_1006869" data-name="Trazado 1006869" d="M340.772,64.219H288.224a.922.922,0,1,1,0-1.844h52.548a.922.922,0,1,1,0,1.844" transform="translate(-130.491 -28.33)" fill="#d2e6ff"/>
            <path id="Trazado_1006870" data-name="Trazado 1006870" d="M340.772,73.6H288.224a.922.922,0,1,1,0-1.844h52.548a.922.922,0,1,1,0,1.844" transform="translate(-130.491 -32.59)" fill="#d2e6ff"/>
            <path id="Trazado_1006871" data-name="Trazado 1006871" d="M329.31,83.6H288.225a.922.922,0,0,1,0-1.844H329.31a.922.922,0,1,1,0,1.844" transform="translate(-130.492 -37.132)" fill="#d2e6ff"/>
            <path id="Trazado_1006872" data-name="Trazado 1006872" d="M371.245,47.179H356.808a1.506,1.506,0,0,1,0-3.011h14.437a1.506,1.506,0,1,1,0,3.011" transform="translate(-161.377 -20.061)" fill="#fff"/>
            <path id="Trazado_1006873" data-name="Trazado 1006873" d="M393.747,134.882h-32a2.183,2.183,0,0,1-2.183-2.183v-5.006a2.183,2.183,0,0,1,2.183-2.183h32a2.183,2.183,0,0,1,2.183,2.183V132.7a2.183,2.183,0,0,1-2.183,2.183" transform="translate(-163.314 -57.006)" fill="#223a7a"/>
            <path id="Trazado_1006874" data-name="Trazado 1006874" d="M365.965,134.508a.431.431,0,0,1-.345-.153.515.515,0,0,1-.116-.384l.139-1.213c.01-.031,0-.051-.015-.062a.078.078,0,0,0-.077.015l-1,.722a.472.472,0,0,1-.384.1.477.477,0,0,1-.323-.238.465.465,0,0,1-.054-.43.494.494,0,0,1,.284-.261l1.122-.507c.031-.01.046-.026.046-.046s-.015-.035-.046-.046l-1.122-.507a.458.458,0,0,1-.277-.292.5.5,0,0,1,.046-.4.481.481,0,0,1,.323-.238.5.5,0,0,1,.384.085l1,.737a.076.076,0,0,0,.077.015c.02-.01.025-.031.015-.061l-.139-1.214a.5.5,0,0,1,.123-.384.471.471,0,0,1,.368-.154.456.456,0,0,1,.461.538l-.138,1.214c-.01.031-.005.051.016.061a.075.075,0,0,0,.076-.015l1-.722a.484.484,0,0,1,.391-.1.438.438,0,0,1,.315.238.463.463,0,0,1,.053.43.494.494,0,0,1-.284.261l-1.121.507c-.031.01-.046.026-.046.046s.015.036.046.046l1.121.507a.484.484,0,0,1,.284.291.449.449,0,0,1-.053.4.435.435,0,0,1-.315.238.515.515,0,0,1-.391-.084l-1-.738a.077.077,0,0,0-.076-.015c-.021.01-.026.031-.016.062l.138,1.213a.444.444,0,0,1-.115.384.5.5,0,0,1-.377.153" transform="translate(-165.217 -58.86)" fill="#fff"/>
            <path id="Trazado_1006875" data-name="Trazado 1006875" d="M378.09,134.508a.431.431,0,0,1-.345-.153.515.515,0,0,1-.116-.384l.139-1.213c.01-.031,0-.051-.015-.062a.078.078,0,0,0-.077.015l-1,.722a.472.472,0,0,1-.384.1.477.477,0,0,1-.323-.238.465.465,0,0,1-.054-.43.493.493,0,0,1,.284-.261l1.122-.507c.031-.01.046-.026.046-.046s-.015-.035-.046-.046L376.2,131.5a.458.458,0,0,1-.277-.292.5.5,0,0,1,.046-.4.481.481,0,0,1,.323-.238.5.5,0,0,1,.384.085l1,.737a.076.076,0,0,0,.077.015c.02-.01.025-.031.015-.061l-.139-1.214a.5.5,0,0,1,.123-.384.471.471,0,0,1,.368-.154.456.456,0,0,1,.461.538l-.138,1.214c-.01.031-.005.051.016.061a.075.075,0,0,0,.076-.015l1-.722a.485.485,0,0,1,.392-.1.439.439,0,0,1,.314.238.461.461,0,0,1,.053.43.494.494,0,0,1-.284.261l-1.121.507c-.031.01-.046.026-.046.046s.015.036.046.046l1.121.507a.484.484,0,0,1,.284.291.449.449,0,0,1-.053.4.436.436,0,0,1-.314.238.516.516,0,0,1-.392-.084l-1-.738a.077.077,0,0,0-.076-.015c-.021.01-.026.031-.016.062l.138,1.213a.444.444,0,0,1-.115.384.5.5,0,0,1-.377.153" transform="translate(-170.725 -58.86)" fill="#fff"/>
            <path id="Trazado_1006876" data-name="Trazado 1006876" d="M390.214,134.508a.431.431,0,0,1-.346-.153.515.515,0,0,1-.116-.384l.139-1.213c.01-.031,0-.051-.015-.062a.078.078,0,0,0-.077.015l-1,.722a.472.472,0,0,1-.384.1.478.478,0,0,1-.323-.238.464.464,0,0,1-.054-.43.493.493,0,0,1,.284-.261l1.122-.507c.031-.01.046-.026.046-.046s-.015-.035-.046-.046l-1.122-.507a.458.458,0,0,1-.277-.292.5.5,0,0,1,.046-.4.482.482,0,0,1,.323-.238.5.5,0,0,1,.384.085l1,.737a.076.076,0,0,0,.077.015c.02-.01.025-.031.015-.061l-.139-1.214a.5.5,0,0,1,.123-.384.471.471,0,0,1,.368-.154.456.456,0,0,1,.461.538l-.138,1.214c-.01.031-.005.051.016.061a.075.075,0,0,0,.076-.015l1-.722a.484.484,0,0,1,.391-.1.438.438,0,0,1,.315.238.463.463,0,0,1,.053.43.494.494,0,0,1-.284.261l-1.121.507c-.031.01-.046.026-.046.046s.015.036.046.046l1.121.507a.484.484,0,0,1,.284.291.449.449,0,0,1-.053.4.435.435,0,0,1-.315.238.515.515,0,0,1-.391-.084l-1-.738a.077.077,0,0,0-.076-.015c-.021.01-.026.031-.016.062l.138,1.213a.444.444,0,0,1-.115.384.5.5,0,0,1-.377.153" transform="translate(-176.231 -58.86)" fill="#fff"/>
            <path id="Trazado_1006877" data-name="Trazado 1006877" d="M402.339,134.508a.431.431,0,0,1-.345-.153.515.515,0,0,1-.116-.384l.139-1.213c.01-.031,0-.051-.015-.062a.078.078,0,0,0-.077.015l-1,.722a.472.472,0,0,1-.384.1.478.478,0,0,1-.323-.238.465.465,0,0,1-.054-.43.494.494,0,0,1,.284-.261l1.122-.507c.031-.01.046-.026.046-.046s-.015-.035-.046-.046l-1.122-.507a.458.458,0,0,1-.277-.292.5.5,0,0,1,.046-.4.482.482,0,0,1,.323-.238.5.5,0,0,1,.384.085l1,.737a.076.076,0,0,0,.077.015c.02-.01.025-.031.015-.061l-.139-1.214a.5.5,0,0,1,.123-.384.471.471,0,0,1,.368-.154.456.456,0,0,1,.461.538l-.138,1.214c-.01.031-.005.051.016.061a.075.075,0,0,0,.076-.015l1-.722a.484.484,0,0,1,.391-.1.438.438,0,0,1,.315.238.461.461,0,0,1,.053.43.494.494,0,0,1-.284.261l-1.121.507c-.031.01-.046.026-.046.046s.015.036.046.046l1.121.507a.484.484,0,0,1,.284.291.449.449,0,0,1-.053.4.434.434,0,0,1-.315.238.515.515,0,0,1-.391-.084l-1-.738a.077.077,0,0,0-.076-.015c-.021.01-.026.031-.016.062l.138,1.213a.444.444,0,0,1-.115.384.5.5,0,0,1-.377.153" transform="translate(-181.738 -58.86)" fill="#fff"/>
            <path id="Trazado_1006878" data-name="Trazado 1006878" d="M414.464,134.508a.431.431,0,0,1-.345-.153.515.515,0,0,1-.116-.384l.139-1.213c.01-.031,0-.051-.015-.062a.078.078,0,0,0-.077.015l-1,.722a.472.472,0,0,1-.384.1.477.477,0,0,1-.323-.238.464.464,0,0,1-.054-.43.493.493,0,0,1,.284-.261l1.122-.507c.031-.01.046-.026.046-.046s-.015-.035-.046-.046l-1.122-.507a.458.458,0,0,1-.277-.292.5.5,0,0,1,.046-.4.481.481,0,0,1,.323-.238.5.5,0,0,1,.384.085l1,.737a.076.076,0,0,0,.077.015c.02-.01.025-.031.015-.061L414,130.13a.5.5,0,0,1,.123-.384.471.471,0,0,1,.368-.154.456.456,0,0,1,.461.538l-.138,1.214c-.01.031-.005.051.016.061a.075.075,0,0,0,.076-.015l1-.722a.484.484,0,0,1,.391-.1.438.438,0,0,1,.315.238.461.461,0,0,1,.053.43.494.494,0,0,1-.284.261l-1.121.507c-.031.01-.046.026-.046.046s.016.036.046.046l1.121.507a.484.484,0,0,1,.284.291.449.449,0,0,1-.053.4.435.435,0,0,1-.315.238.515.515,0,0,1-.391-.084l-1-.738a.077.077,0,0,0-.076-.015c-.021.01-.026.031-.016.062l.138,1.213a.444.444,0,0,1-.115.384.5.5,0,0,1-.377.153" transform="translate(-187.245 -58.86)" fill="#67acff"/>
          </g>
        </g>
      </g>
    </g>
  </g>
</svg>
