<svg xmlns="http://www.w3.org/2000/svg" width="40" height="35.781" viewBox="0 0 40 35.781">
  <g id="Grupo_1183295" data-name="Grupo 1183295" transform="translate(0 -27)">
    <g id="Grupo_1183284" data-name="Grupo 1183284" transform="translate(0 27)">
      <g id="Grupo_1183283" data-name="Grupo 1183283">
        <path id="Trazado_1008799" data-name="Trazado 1008799" d="M37.656,40.594H32.734V29.344A2.346,2.346,0,0,0,30.391,27H9.609a2.346,2.346,0,0,0-2.344,2.344v7.031H2.344A2.346,2.346,0,0,0,0,38.719V53.094a2.346,2.346,0,0,0,2.344,2.344H9.286l2.9,2.9a.781.781,0,0,0,1.1,0l1.244-1.244v.223a2.346,2.346,0,0,0,2.344,2.344h6.942l2.9,2.9a.781.781,0,0,0,1.1,0l2.9-2.9h6.942A2.346,2.346,0,0,0,40,57.313V42.938A2.346,2.346,0,0,0,37.656,40.594ZM8.828,29.344a.782.782,0,0,1,.781-.781H30.391a.782.782,0,0,1,.781.781V43.719a.782.782,0,0,1-.781.781H23.125a.781.781,0,0,0-.552.229L20,47.3l-2.573-2.573a.781.781,0,0,0-.552-.229H9.609a.782.782,0,0,1-.781-.781ZM15.307,54.1l-2.573,2.573L10.162,54.1a.781.781,0,0,0-.552-.229H2.344a.782.782,0,0,1-.781-.781V38.719a.782.782,0,0,1,.781-.781H7.266v5.781a2.346,2.346,0,0,0,2.344,2.344h6.942l2.9,2.9a.781.781,0,0,0,1.1,0l2.9-2.9h.458v7.031a.782.782,0,0,1-.781.781H15.859A.781.781,0,0,0,15.307,54.1Zm23.131,3.209a.782.782,0,0,1-.781.781H30.391a.781.781,0,0,0-.552.229L27.266,60.9l-2.573-2.573a.781.781,0,0,0-.552-.229H16.875a.782.782,0,0,1-.781-.781V55.527l.089-.089h6.942a2.346,2.346,0,0,0,2.344-2.344V46.063h4.922a2.346,2.346,0,0,0,2.344-2.344V42.156h4.922a.782.782,0,0,1,.781.781Z" transform="translate(0 -27)" fill="#53435c"/>
      </g>
    </g>
    <g id="Grupo_1183286" data-name="Grupo 1183286" transform="translate(11.965 31.375)">
      <g id="Grupo_1183285" data-name="Grupo 1183285">
        <path id="Trazado_1008800" data-name="Trazado 1008800" d="M168.449,83h-14.52a.781.781,0,0,0,0,1.563h14.52a.781.781,0,0,0,0-1.562Z" transform="translate(-153.148 -83)" fill="#53435c"/>
      </g>
    </g>
    <g id="Grupo_1183288" data-name="Grupo 1183288" transform="translate(26.484 35.75)">
      <g id="Grupo_1183287" data-name="Grupo 1183287">
        <path id="Trazado_1008801" data-name="Trazado 1008801" d="M340.334,139.229a.781.781,0,1,0,.229.552A.787.787,0,0,0,340.334,139.229Z" transform="translate(-339 -139)" fill="#53435c"/>
      </g>
    </g>
    <g id="Grupo_1183290" data-name="Grupo 1183290" transform="translate(11.965 35.75)">
      <g id="Grupo_1183289" data-name="Grupo 1183289">
        <path id="Trazado_1008802" data-name="Trazado 1008802" d="M164.57,139h-10.64a.781.781,0,0,0,0,1.563h10.64a.781.781,0,0,0,0-1.562Z" transform="translate(-153.148 -139)" fill="#53435c"/>
      </g>
    </g>
    <g id="Grupo_1183292" data-name="Grupo 1183292" transform="translate(15.787 40.125)">
      <g id="Grupo_1183291" data-name="Grupo 1183291">
        <path id="Trazado_1008803" data-name="Trazado 1008803" d="M213.55,195h-10.7a.781.781,0,0,0,0,1.563h10.7a.781.781,0,0,0,0-1.562Z" transform="translate(-202.071 -195)" fill="#53435c"/>
      </g>
    </g>
    <g id="Grupo_1183294" data-name="Grupo 1183294" transform="translate(11.953 40.125)">
      <g id="Grupo_1183293" data-name="Grupo 1183293">
        <path id="Trazado_1008804" data-name="Trazado 1008804" d="M153.847,195h-.065a.781.781,0,0,0,0,1.563h.065a.781.781,0,0,0,0-1.562Z" transform="translate(-153 -195)" fill="#53435c"/>
      </g>
    </g>
  </g>
</svg>
