<svg xmlns="http://www.w3.org/2000/svg" width="128" height="128" viewBox="0 0 128 128">
  <g id="Grupo_1182491" data-name="Grupo 1182491" transform="translate(-383.746 -8400)">
    <path id="Trazado_997401" data-name="Trazado 997401" d="M64,0A64,64,0,1,1,0,64,64,64,0,0,1,64,0Z" transform="translate(383.746 8400)" fill="#7be888"/>
    <g id="Grupo_1183315" data-name="Grupo 1183315" transform="translate(388.773 8427.3)">
      <g id="Grupo_1183310" data-name="Grupo 1183310" transform="translate(73.309 56.771)">
        <g id="Grupo_1183309" data-name="Grupo 1183309">
          <path id="Trazado_1008811" data-name="Trazado 1008811" d="M357.434,396a1.434,1.434,0,1,0,1.434,1.434A1.434,1.434,0,0,0,357.434,396Z" transform="translate(-356 -396)" fill="#53435c"/>
        </g>
      </g>
      <g id="Grupo_1183312" data-name="Grupo 1183312" transform="translate(26)">
        <g id="Grupo_1183311" data-name="Grupo 1183311">
          <path id="Trazado_1008812" data-name="Trazado 1008812" d="M78.273,52.135l-6.814-2.271-2.446-4.892a15.7,15.7,0,0,0,4.25-8.306l.305-1.829h2.609a4.306,4.306,0,0,0,4.3-4.3V21.5a21.5,21.5,0,0,0-43.008,0v9.032a4.308,4.308,0,0,0,2.867,4.054v1.68a4.306,4.306,0,0,0,4.3,4.3H45.9a15.553,15.553,0,0,0,2.4,3.724c.2.233.415.46.632.68l-2.445,4.89-6.814,2.271C31.751,54.777,26,63.118,26,71.967A1.434,1.434,0,0,0,27.434,73.4H90.513a1.434,1.434,0,0,0,1.434-1.434C91.946,63.118,86.2,54.777,78.273,52.135Zm-.663-21.6a1.435,1.435,0,0,1-1.434,1.434H73.988c.364-2.823.607-5.827.7-8.785,0-.083.005-.165.008-.247H77.61ZM41.77,31.97a1.435,1.435,0,0,1-1.434-1.434v-7.6h2.91q.007.224.015.451c0,.005,0,.01,0,.015h0c.1,2.878.34,5.8.7,8.564H41.77ZM44.637,37.7A1.435,1.435,0,0,1,43.2,36.27V34.837h1.175l.305,1.829c.058.348.13.694.212,1.038ZM43.206,20.071H40.391a18.638,18.638,0,0,1,37.165,0H74.741A14.52,14.52,0,0,0,60.256,5.734H57.69A14.52,14.52,0,0,0,43.206,20.071ZM57.69,8.6h2.566A11.657,11.657,0,0,1,71.876,20.273c0,.451,0,.844-.011,1.2,0,0,0,.009,0,.014l-1.793-.256A23.036,23.036,0,0,1,57.12,14.756a1.434,1.434,0,0,0-1.014-.42,12.97,12.97,0,0,0-9.972,4.718A11.654,11.654,0,0,1,57.69,8.6ZM47.868,37.7c-.718-2.387-1.539-9.412-1.72-13.914l1.93-2.573a10.091,10.091,0,0,1,7.462-4A25.931,25.931,0,0,0,69.666,24.07l2.111.3c-.141,2.994-.429,6-.842,8.762v0c-.131.888-.235,1.46-.5,3.057a12.177,12.177,0,0,1-8.643,9.793,11.28,11.28,0,0,1-12.662-5.416h2.923a4.308,4.308,0,0,0,4.054,2.867h2.867a4.3,4.3,0,0,0,0-8.6H56.106A4.3,4.3,0,0,0,52.049,37.7Zm8.117,11.184a14.38,14.38,0,0,0,5.332.12l-2.533,2.679Zm.828,4.883L52.266,58.58a54.622,54.622,0,0,1-3.21-7.443l1.708-3.415Zm10.126-6.535,1.95,3.9a54.607,54.607,0,0,1-3.21,7.445l-4.867-4.867Zm-12.267-8.1A1.434,1.434,0,0,1,56.106,37.7h2.867a1.434,1.434,0,1,1,0,2.867H56.106A1.435,1.435,0,0,1,54.672,39.138Zm-25.748,31.4c.568-7.1,5.295-13.557,11.656-15.678l6.035-2.011A57.468,57.468,0,0,0,50.7,61.7l.008.014h0A57.484,57.484,0,0,0,54.628,67.7l1.764,2.831Zm30.049-1.278-1.944-3.121q-.033-.052-.07-.1a54.658,54.658,0,0,1-3.23-4.826L58.842,55.8l5.387,5.387a54.6,54.6,0,0,1-3.242,4.845C60.917,66.126,61.017,65.978,58.973,69.256Zm2.582,1.278L63.319,67.7a57.464,57.464,0,0,0,3.952-6.04l.021-.038,0,0a57.422,57.422,0,0,0,4.038-8.776l6.035,2.011c6.361,2.121,11.088,8.576,11.656,15.678Z" transform="translate(-26)" fill="#53435c"/>
        </g>
      </g>
      <g id="Grupo_1183314" data-name="Grupo 1183314" transform="translate(78.347 59.508)">
        <g id="Grupo_1183313" data-name="Grupo 1183313">
          <path id="Trazado_1008813" data-name="Trazado 1008813" d="M397.505,420.313a14.333,14.333,0,0,0-4.058-4.927,1.434,1.434,0,1,0-1.748,2.273,11.449,11.449,0,0,1,3.242,3.936,1.434,1.434,0,0,0,2.565-1.281Z" transform="translate(-391.139 -415.088)" fill="#53435c"/>
        </g>
      </g>
    </g>
  </g>
</svg>
