<svg xmlns="http://www.w3.org/2000/svg" width="128" height="128" viewBox="0 0 128 128">
  <g id="Grupo_1182492" data-name="Grupo 1182492" transform="translate(-383.746 -8400)">
    <circle id="Elipse_13609" data-name="Elipse 13609" cx="64" cy="64" r="64" transform="translate(383.746 8400)" fill="#7be888"/>
    <path id="Trazado_1008814" data-name="Trazado 1008814" d="M53.939,43.548a16.042,16.042,0,0,0,5.345.815c3.821,0,8.284-1.056,8.284-4.03a8.3,8.3,0,0,0-7.485-8.245,4.378,4.378,0,1,0-1.6,0A8.3,8.3,0,0,0,51,40.332c0,.973.51,2.321,2.938,3.215Zm3.012-15.765a2.333,2.333,0,1,1,2.333,2.333A2.336,2.336,0,0,1,56.951,27.782Zm2.333,6.312a6.245,6.245,0,0,1,6.238,6.238c0,.939-2.562,1.985-6.238,1.985s-6.238-1.046-6.238-1.985a6.246,6.246,0,0,1,6.239-6.238ZM43.9,35.387c3.889,0,8.43-1.071,8.43-4.091a8.441,8.441,0,0,0-7.78-8.405,4.446,4.446,0,1,0-1.3,0A8.441,8.441,0,0,0,35.465,31.3c0,.986.518,2.353,2.984,3.261A16.349,16.349,0,0,0,43.9,35.387Zm-2.4-16.895a2.4,2.4,0,1,1,2.4,2.4A2.4,2.4,0,0,1,41.494,18.492ZM37.51,31.3a6.385,6.385,0,0,1,12.77,0c0,.968-2.622,2.046-6.385,2.046S37.51,32.264,37.51,31.3ZM20.223,40.333c0,.973.51,2.321,2.938,3.215a16.042,16.042,0,0,0,5.345.815c3.821,0,8.284-1.056,8.284-4.03A8.3,8.3,0,0,0,29.3,32.088a4.379,4.379,0,1,0-1.6,0,8.3,8.3,0,0,0-7.486,8.245Zm5.95-12.55a2.333,2.333,0,1,1,2.333,2.333A2.336,2.336,0,0,1,26.173,27.782Zm2.333,6.312a6.245,6.245,0,0,1,6.238,6.238c0,.939-2.562,1.985-6.238,1.985s-6.238-1.046-6.238-1.985a6.246,6.246,0,0,1,6.239-6.238ZM80.887,51.571a4.819,4.819,0,0,0-3.425-3.07,13.092,13.092,0,0,0-7.048.491L57.458,52.8q-.079-.16-.17-.317a5.391,5.391,0,0,0-3.294-2.53L44.78,47.5c-6.736-4.712-10.343-3.353-15.646-.755-2.932,1.437-5.9,2.847-8.931,4.277l-.238-.541a3.152,3.152,0,0,0-4.145-1.615l-4.937,2.165a3.137,3.137,0,0,0-1.617,4.149L18.1,75.248a3.148,3.148,0,0,0,4.145,1.615L27.177,74.7a3.138,3.138,0,0,0,1.617-4.149l-.862-1.959,4.405-2.146a4.862,4.862,0,0,1,3.629-.312l10.357,3a8.406,8.406,0,0,0,2.348.315c2.757,0,5.647-1.127,8.076-2.074l.629-.245,19.429-7.5C79.959,58.405,81.9,54.567,80.887,51.571ZM26.943,72.217a1.1,1.1,0,0,1-.588.608L21.419,74.99a1.1,1.1,0,0,1-1.452-.566l-8.83-20.072A1.093,1.093,0,0,1,11.7,52.9l4.937-2.165a1.1,1.1,0,0,1,1.452.566l8.829,20.072a1.1,1.1,0,0,1,.022.846Zm49.125-14.5-19.429,7.5L56,65.466c-2.844,1.109-6.384,2.49-9.112,1.7l-10.357-3a6.914,6.914,0,0,0-5.094.438l-4.334,2.111L21.026,52.89c3.052-1.441,6.047-2.864,9.007-4.313,4.946-2.423,7.8-3.492,13.716.694a1.022,1.022,0,0,0,.327.153l9.391,2.509a3.384,3.384,0,0,1-1.747,6.539L39.24,55.138a1.022,1.022,0,0,0-.528,1.976l12.48,3.334a5.431,5.431,0,0,0,6.814-5.673l12.985-3.82c4.285-1.261,7.26-.784,7.959,1.274C79.613,54.18,78.186,56.9,76.069,57.716Zm-63.8-14.332a32.374,32.374,0,0,1-.4-5.084A32.029,32.029,0,0,1,42.921,6.284l-1.254-1.23A1.023,1.023,0,1,1,43.1,3.594l2.792,2.737A32.029,32.029,0,0,1,75.926,38.3c0,.877-.037,1.756-.108,2.63l1.43-1.1a1.023,1.023,0,0,1,1.249,1.62l-3.354,2.586c-.01.008-.022.013-.032.021a1,1,0,0,1-.084.054l-.057.03a1.028,1.028,0,0,1-.1.046l-.043.014a1.031,1.031,0,0,1-.128.032l-.023,0a1.015,1.015,0,0,1-.154.013H74.5a1.03,1.03,0,0,1-.11-.007l-.017,0h-.016l-.052-.011-.02,0a1.017,1.017,0,0,1-.612-.421l-2.547-3.3a1.023,1.023,0,1,1,1.62-1.249l1.05,1.362c.058-.767.089-1.538.089-2.307A30.023,30.023,0,0,0,45.776,8.374l-2.6,2.656A1.023,1.023,0,0,1,41.712,9.6L42.956,8.33A30.02,30.02,0,0,0,13.909,38.3a30.323,30.323,0,0,0,.376,4.762,1.023,1.023,0,1,1-2.02.322Z" transform="translate(402.669 8422.234)" fill="#53435c"/>
  </g>
</svg>
