<svg xmlns="http://www.w3.org/2000/svg" width="128" height="128" viewBox="0 0 128 128">
  <g id="Grupo_1182494" data-name="Grupo 1182494" transform="translate(-383.746 -8400)">
    <circle id="Elipse_13609" data-name="Elipse 13609" cx="64" cy="64" r="64" transform="translate(383.746 8400)" fill="#cfa9e6"/>
    <g id="Grupo_1183317" data-name="Grupo 1183317" transform="translate(406.028 8427.314)">
      <path id="Trazado_1008827" data-name="Trazado 1008827" d="M82.41.275a2.016,2.016,0,0,0-2.037,0l-10.392,6,0,0L67.165,7.9A11.239,11.239,0,0,0,58.439,9L56.025,10.4A29.12,29.12,0,0,0,30.457,8.9a2.058,2.058,0,0,0-.362-.265,2.025,2.025,0,0,0-1.545-.2L15.614,11.9a11.432,11.432,0,0,0-1.206.384l-1.156-.667.247-.428A2.037,2.037,0,0,0,12.753,8.4l-9.691-5.6a2.016,2.016,0,0,0-2.037,0A2.016,2.016,0,0,0,.007,4.57V20.221a2.042,2.042,0,0,0,1.018,1.764L7.457,25.7A11.239,11.239,0,0,0,12.773,32.7l.036.021a29.511,29.511,0,0,0-.15,2.967A29.015,29.015,0,0,0,20,55a1.222,1.222,0,1,0,1.826-1.625A26.573,26.573,0,0,1,15.1,35.692c0-.538.016-1.077.048-1.615l8.579,4.953a3.875,3.875,0,0,0,1.941.524,3.739,3.739,0,0,0,3.7-3.111l1.211.7a3.784,3.784,0,0,0,5.095-1.184,3.745,3.745,0,0,0,.567-1.545,3.841,3.841,0,0,0,1.039.13L40.5,36.4v3.776a3.764,3.764,0,0,0-1.528,2.159,3.759,3.759,0,0,0-5.185,3.543v11.9a4.489,4.489,0,0,0-5.525.643l-.153.153c-.738-.44-1.458-.918-2.149-1.426a1.222,1.222,0,1,0-1.448,1.968,29.177,29.177,0,0,0,2.464,1.628,2.028,2.028,0,0,0,.587,1.257l9.47,9.47a11.447,11.447,0,0,0,.935.853v1.335h-.494a2.039,2.039,0,0,0-2.037,2.037v5.7a2.039,2.039,0,0,0,2.037,2.037H51.025a2.039,2.039,0,0,0,2.037-2.037v-9.76a11.239,11.239,0,0,0,3.41-8.108V60.732a29.1,29.1,0,0,0,14.3-24.789,2.027,2.027,0,0,0,.8-1.14L75.04,21.867a11.476,11.476,0,0,0,.271-1.236l1.156-.667.247.428a2.038,2.038,0,0,0,2.782.745l2.914-1.683a2.042,2.042,0,0,0,1.018-1.764V2.039A2.016,2.016,0,0,0,82.41.275ZM38.746,25.76a1.308,1.308,0,0,1-1.819.536l0,0-8.761-5.058a1.222,1.222,0,1,0-1.222,2.117l8.766,5.061.007,0,2.175,1.256a1.308,1.308,0,0,1,.445,1.843,1.361,1.361,0,0,1-1.816.388L25.631,25.618a1.222,1.222,0,0,0-1.222,2.117L33.175,32.8a1.308,1.308,0,0,1,.445,1.843,1.361,1.361,0,0,1-1.816.388L23.1,30a1.222,1.222,0,0,0-1.222,2.117l4.445,2.566a1.307,1.307,0,0,1,.445,1.843,1.361,1.361,0,0,1-1.816.388L14,30.588a8.821,8.821,0,0,1-4.2-5.628,2.041,2.041,0,0,0-.955-1.288l-1.911-1.1L8.76,19.392A1.222,1.222,0,1,0,6.643,18.17L4.809,21.347,2.451,19.986V5.275l8.728,5.039L9.565,13.108a1.222,1.222,0,1,0,2.117,1.222l.348-.6,1.326.766a2.013,2.013,0,0,0,1.768.13,9.021,9.021,0,0,1,1.112-.364l12.553-3.364.15.561A2.035,2.035,0,0,1,27.5,13.95l-1.741.466a1.222,1.222,0,0,0-.295,2.239l12.711,7.339a1.361,1.361,0,0,1,.572,1.767Zm1.285,7.548a3.756,3.756,0,0,0,.85-3.387,3.77,3.77,0,0,0-1.008-1.782,3.758,3.758,0,0,0-.476-6.262L29.1,15.93a4.484,4.484,0,0,0,2.281-4.768,26.685,26.685,0,0,1,22.152.675l-6.048,3.492a3.759,3.759,0,0,0-.58,6.179l-1.211.7a3.758,3.758,0,0,0-.467,6.268,3.761,3.761,0,0,0-.778,4.232l-2.727,1.575ZM50.618,80.979H37.879V76.1H50.618Zm3.41-17.461a8.821,8.821,0,0,1-2.772,6.454,2.041,2.041,0,0,0-.638,1.472v2.206H40.409V72.12a2.015,2.015,0,0,0-.772-1.6,9.044,9.044,0,0,1-.871-.781l-9.19-9.19.41-.41a2.039,2.039,0,0,1,2.88,0l1.274,1.274a1.222,1.222,0,0,0,2.086-.864V45.876A1.361,1.361,0,0,1,37.471,44.5a1.308,1.308,0,0,1,1.373,1.307V55.927a1.222,1.222,0,0,0,2.444,0V43.285a1.308,1.308,0,0,1,1.374-1.307,1.361,1.361,0,0,1,1.244,1.378V55.927a1.222,1.222,0,1,0,2.444,0V45.8A1.308,1.308,0,0,1,47.723,44.5a1.361,1.361,0,0,1,1.244,1.378V55.927a1.222,1.222,0,1,0,2.444,0V50.795a1.308,1.308,0,0,1,1.373-1.307,1.361,1.361,0,0,1,1.244,1.379V63.519ZM73.919,18.612a2.014,2.014,0,0,0-1,1.466,9.05,9.05,0,0,1-.241,1.145L69.319,33.777l-.56-.15a2.039,2.039,0,0,1-1.44-2.494l.466-1.741a1.222,1.222,0,0,0-1.791-1.375l-3.661,2.114a1.222,1.222,0,0,0,1.222,2.117l1.252-.723a4.488,4.488,0,0,0,3.319,4.463l.2.055a26.659,26.659,0,0,1-11.858,21.8V50.866a3.759,3.759,0,0,0-5.061-3.591v-1.4a3.758,3.758,0,0,0-5.195-3.539,3.761,3.761,0,0,0-3.276-2.79V36.4l3.27-1.888a3.766,3.766,0,0,0,2.634.243A3.738,3.738,0,0,0,52.563,38a3.877,3.877,0,0,0,1.941-.524l4.042-2.334a1.222,1.222,0,1,0-1.222-2.117l-4.042,2.334a1.361,1.361,0,0,1-1.816-.388,1.308,1.308,0,0,1,.445-1.843h0l8.766-5.061a1.222,1.222,0,1,0-1.222-2.117l-8.761,5.058,0,0,0,0-2.179,1.258a1.308,1.308,0,0,1-1.819-.536,1.361,1.361,0,0,1,.572-1.766l2.117-1.222h0l8.766-5.061a1.222,1.222,0,0,0-1.222-2.117l-8.762,5.058,0,0a1.308,1.308,0,0,1-1.819-.536,1.361,1.361,0,0,1,.572-1.766l4.255-2.457,0,0L55.617,19.3a1.222,1.222,0,0,0-1.222-2.117L49.95,19.747h0a1.307,1.307,0,0,1-1.816-.537,1.361,1.361,0,0,1,.572-1.766l10.958-6.326a8.821,8.821,0,0,1,6.976-.826,2.042,2.042,0,0,0,1.593-.184l1.911-1.1,5.1,8.841Zm7.066-1.157-2.358,1.361-.653-1.132v0l-5.714-9.9,8.728-5.039v14.71Z" transform="translate(0 0)" fill="#53435c"/>
    </g>
  </g>
</svg>
