<svg xmlns="http://www.w3.org/2000/svg" width="128" height="128" viewBox="0 0 128 128">
  <g id="Grupo_1182479" data-name="Grupo 1182479" transform="translate(-383.746 -8400.451)">
    <circle id="Elipse_13609" data-name="Elipse 13609" cx="64" cy="64" r="64" transform="translate(383.746 8400.451)" fill="#7be888"/>
    <g id="_x34_2_Trust" transform="translate(401.039 8394.663)">
      <g id="Grupo_1183281" data-name="Grupo 1183281" transform="translate(4.707 31.788)">
        <g id="Grupo_1183280" data-name="Grupo 1183280">
          <path id="Trazado_1008789" data-name="Trazado 1008789" d="M88.478,215.08a1.314,1.314,0,0,0-1.824-.343c-3.174,2.167-6.35,4.475-9.443,6.858-.445.344-1.25.608-1.523.223l-10.693-16.3a1.875,1.875,0,0,1,.7-.7c2.29-1.394,4.571-2.844,6.778-4.31a1.312,1.312,0,1,0-1.451-2.187c-2.18,1.446-4.432,2.878-6.69,4.253a4.477,4.477,0,0,0-1.71,1.832H30.8a4.47,4.47,0,0,0-1.708-1.83c-2.261-1.377-4.512-2.808-6.693-4.255a1.312,1.312,0,1,0-1.451,2.187c2.208,1.466,4.489,2.916,6.781,4.312a3,3,0,0,1,.658.643l-10.337,15.9c-.131.053-.424,1.338-1.845.241-3.092-2.382-6.268-4.689-9.442-6.857a1.312,1.312,0,0,0-1.48,2.167c3.132,2.14,6.268,4.417,9.319,6.767,1.749,1.353,4.141,1.31,5.294-.37l.555-.809a7.081,7.081,0,0,1,2.115,2.945,4.5,4.5,0,0,0-.871.865,4.554,4.554,0,0,0,.952,6.372l.164.121a4.336,4.336,0,0,0,3.123.843,4.626,4.626,0,0,0,1.85,3.391h0a4.494,4.494,0,0,0,3.537.824,4.634,4.634,0,0,0,1.838,3.155,4.516,4.516,0,0,0,3.726.8,4.19,4.19,0,0,0,7.184,2.114,4.806,4.806,0,0,0,7.091-3.59l.606.432a4.817,4.817,0,0,0,7.5-3.359,4.817,4.817,0,0,0,7.227-3.546l.045.031a4.813,4.813,0,0,0,5.478-7.915l-.225-.172,2.676-1.62a3.91,3.91,0,0,0,4.351-.5c3.052-2.351,6.188-4.628,9.32-6.768a1.312,1.312,0,0,0,.343-1.824ZM27.3,229.86l-.539.745a1.927,1.927,0,0,1-2.389.08h0l-.162-.12a1.929,1.929,0,1,1,2.3-3.1l.162.12a1.927,1.927,0,0,1,.633,2.277Zm4.888,4.636a2.027,2.027,0,0,1-3.323-2.319c.209-.23,1.178-1.6,1.525-2.08a2.031,2.031,0,0,1,3.265,2.415Zm5.374,3.979a2.031,2.031,0,0,1-2.84.424h0a2.029,2.029,0,0,1-.424-2.84l2.772-3.744a2.031,2.031,0,0,1,3.265,2.416Zm5.143,2.983-.381.515a1.609,1.609,0,0,1-2.249.336h0a1.611,1.611,0,0,1-.336-2.25l.381-.515a1.609,1.609,0,1,1,2.586,1.914Zm28.362-10.3a2.191,2.191,0,0,1-3.049.561l-13.629-9.327a1.312,1.312,0,1,0-1.486,2.164l10.051,6.9a2.188,2.188,0,0,1-2.476,3.607l-10.052-6.9a1.311,1.311,0,0,0-1.648.131l-.105.1a1.314,1.314,0,0,0,.18,2.046l6.875,4.553a2.187,2.187,0,0,1-2.457,3.62L46.8,233.994a1.313,1.313,0,0,0-1.555,2.115l2.378,1.8a2.192,2.192,0,0,1-2.166,3.793,4.207,4.207,0,0,0-3.082-5.321l.067-.09a4.654,4.654,0,0,0-6.136-6.759,4.631,4.631,0,0,0-6.642-2.239,4.514,4.514,0,0,0-1.437-1.821l-.162-.12a4.511,4.511,0,0,0-3.043-.86,9.925,9.925,0,0,0-3.046-4.162l8.672-12.689a2.977,2.977,0,0,0,.318-.617H36.9a9.06,9.06,0,0,0-4.55,7.848v1.635a3.129,3.129,0,0,0,4.068,2.985,6.087,6.087,0,0,0,3.529-3.112,4.874,4.874,0,0,1,8.1-.67,7.423,7.423,0,0,0,6.372,2.943,6.835,6.835,0,0,1,3.845,1.179l10.315,6.985.019.014,1.887,1.277.005,0a2.19,2.19,0,0,1,.566,3.042Zm-1.682-6.968-9.639-6.527a9.453,9.453,0,0,0-5.316-1.63,4.921,4.921,0,0,1-4.248-1.862,7.5,7.5,0,0,0-12.547.985,3.485,3.485,0,0,1-1.99,1.836.505.505,0,0,1-.662-.479v-1.635a6.439,6.439,0,0,1,3.3-5.617l4-2.231h20.18a2.988,2.988,0,0,0,.318.617l9.964,14.513Z" transform="translate(-4.707 -170.299)" fill="#53435c"/>
          <path id="Trazado_1008790" data-name="Trazado 1008790" d="M185.979,59.875a14.044,14.044,0,1,0-14.044-14.044A14.067,14.067,0,0,0,185.979,59.875Zm0-25.462A11.419,11.419,0,1,1,174.56,45.831a11.438,11.438,0,0,1,11.419-11.418Z" transform="translate(-143.985 -31.788)" fill="#53435c"/>
          <path id="Trazado_1008791" data-name="Trazado 1008791" d="M225.361,97.846a1.312,1.312,0,0,0,1.856,0l6.2-6.2a1.312,1.312,0,0,0-1.856-1.856l-5.275,5.274L224.9,93.673a1.312,1.312,0,1,0-1.856,1.856Z" transform="translate(-186.232 -79.773)" fill="#53435c"/>
        </g>
      </g>
    </g>
  </g>
</svg>
