<svg xmlns="http://www.w3.org/2000/svg" width="128" height="128" viewBox="0 0 128 128">
  <g id="Grupo_1182478" data-name="Grupo 1182478" transform="translate(-381.746 -8402)">
    <path id="Trazado_997402" data-name="Trazado 997402" d="M64,0A64,64,0,1,1,0,64,64,64,0,0,1,64,0Z" transform="translate(381.746 8402)" fill="#cfa9e6"/>
    <g id="Grupo_1183279" data-name="Grupo 1183279" transform="translate(411.714 8431.981)">
      <path id="Trazado_1008784" data-name="Trazado 1008784" d="M47.644,27.229c-.085,0-.167.009-.251.01A23.822,23.822,0,1,0,0,23.826,23.466,23.466,0,0,0,2.4,34.235L.077,44.31a2.71,2.71,0,0,0,3.252,3.265L13.414,45.25a23.471,23.471,0,0,0,10.408,2.4,23.946,23.946,0,0,0,3.414-.254c0,.086-.011.168-.011.254a20.427,20.427,0,0,0,28.942,18.56l7.8,1.8a2.5,2.5,0,0,0,.554.064A2.416,2.416,0,0,0,66.865,65.1l-1.63-7.081A20.419,20.419,0,0,0,47.644,27.229ZM14.072,43.041a1.141,1.141,0,0,0-.516-.124,1.2,1.2,0,0,0-.254.028L2.81,45.365a.44.44,0,0,1-.524-.535L4.7,34.346a1.146,1.146,0,0,0-.1-.77,21.213,21.213,0,0,1-2.338-9.75A21.553,21.553,0,1,1,29.3,44.678a21.866,21.866,0,0,1-5.478.7,21.213,21.213,0,0,1-9.75-2.338Zm48.992,14.18a1.134,1.134,0,0,0-.144.858l1.74,7.533a.143.143,0,0,1-.039.142.147.147,0,0,1-.144.039L56.3,63.909a1.148,1.148,0,0,0-.748.084A18.159,18.159,0,0,1,29.494,47.648c0-.237.02-.464.029-.7.113-.028.233-.049.348-.079a23.655,23.655,0,0,0,9.329-4.9H57.854a1.134,1.134,0,1,0,0-2.269H41.531a23.755,23.755,0,0,0,5.408-10.18c.235-.009.466-.029.706-.029a18.172,18.172,0,0,1,18.15,18.15,17.982,17.982,0,0,1-2.73,9.572Z" transform="translate(0 0)" fill="#53435c"/>
      <path id="Trazado_1008785" data-name="Trazado 1008785" d="M41.3,23.15A18.15,18.15,0,1,0,23.15,41.3,18.15,18.15,0,0,0,41.3,23.15ZM23.15,39.031A15.881,15.881,0,1,1,39.031,23.15,15.881,15.881,0,0,1,23.15,39.031Z" transform="translate(0.672 0.676)" fill="#53435c"/>
      <path id="Trazado_1008786" data-name="Trazado 1008786" d="M23.075,21.6V14.617a6.23,6.23,0,0,1,3.9,1.8,1.134,1.134,0,1,0,1.714-1.486,8.532,8.532,0,0,0-5.619-2.6V11.134a1.134,1.134,0,1,0-2.269,0v1.2c-3.9.383-6.806,2.707-6.806,5.611,0,3.428,3.454,4.561,6.806,5.42v6.979a6.23,6.23,0,0,1-3.9-1.8,1.134,1.134,0,1,0-1.714,1.486,8.532,8.532,0,0,0,5.619,2.6v1.195a1.134,1.134,0,1,0,2.269,0v-1.2c3.9-.383,6.806-2.707,6.806-5.611C29.881,23.588,26.427,22.454,23.075,21.6Zm-6.806-3.655c0-1.612,1.984-3,4.538-3.331v6.4C18.024,20.258,16.269,19.5,16.269,17.941Zm6.806,12.406v-6.4c2.783.753,4.538,1.508,4.538,3.071C27.613,28.628,25.629,30.021,23.075,30.346Z" transform="translate(1.881 1.348)" fill="#53435c"/>
      <path id="Trazado_1008787" data-name="Trazado 1008787" d="M53.553,41H33.134a1.134,1.134,0,1,0,0,2.269H53.553a1.134,1.134,0,1,0,0-2.269Z" transform="translate(4.3 5.514)" fill="#53435c"/>
      <path id="Trazado_1008788" data-name="Trazado 1008788" d="M50.15,47H33.134a1.134,1.134,0,1,0,0,2.269H50.15a1.134,1.134,0,1,0,0-2.269Z" transform="translate(4.3 6.32)" fill="#53435c"/>
    </g>
  </g>
</svg>
