<svg xmlns="http://www.w3.org/2000/svg" width="84" height="84" viewBox="0 0 84 84">
  <g id="Grupo_1182399" data-name="Grupo 1182399" transform="translate(-186 -1357)">
    <rect id="Rectángulo_402006" data-name="Rectángulo 402006" width="84" height="84" rx="5" transform="translate(186 1357)" fill="#ff984a"/>
    <g id="Grupo_1183345" data-name="Grupo 1183345" transform="translate(198.257 1369.257)">
      <g id="Grupo_1183344" data-name="Grupo 1183344" transform="translate(0.001 0.001)">
        <path id="Trazado_1008994" data-name="Trazado 1008994" d="M389.54,177.871a1.162,1.162,0,0,0,1.643,0L394.058,175a1.162,1.162,0,1,0-1.643-1.643l-2.054,2.054-.821-.822a1.162,1.162,0,0,0-1.643,1.643Z" transform="translate(-342.53 -152.912)" fill="#53435c"/>
        <path id="Trazado_1008995" data-name="Trazado 1008995" d="M58.324,50.191H49.61V37.979l3.077,1.154a1.162,1.162,0,0,0,1.57-1.088V29.413A8.878,8.878,0,0,0,49.61,13.9V5.81a5.777,5.777,0,0,0-1.722-4.126A5.729,5.729,0,0,0,43.787,0H5.81A5.816,5.816,0,0,0,0,5.81V8.133A1.162,1.162,0,0,0,1.163,9.3H9.3v15.22a1.162,1.162,0,1,0,2.324,0V5.81a5.779,5.779,0,0,0-1.165-3.485H43.8a3.433,3.433,0,0,1,2.456,1.008A3.469,3.469,0,0,1,47.287,5.81V13.9a8.906,8.906,0,0,0-7.4,6.431H17.428a1.162,1.162,0,1,0,0,2.324h22.14c0,.017,0,.034,0,.051a8.845,8.845,0,0,0,.47,2.854H17.428a1.162,1.162,0,0,0,0,2.324H41.237a8.954,8.954,0,0,0,1.4,1.535v8.632a1.162,1.162,0,0,0,1.57,1.088l3.077-1.154V50.191H19.752a1.162,1.162,0,0,0-1.162,1.162v2.323a3.485,3.485,0,0,1-6.971,0V34.971a1.162,1.162,0,1,0-2.324,0V53.676A5.816,5.816,0,0,0,15.1,59.485H53.676a5.816,5.816,0,0,0,5.809-5.809V51.353a1.162,1.162,0,0,0-1.162-1.162ZM9.3,5.81V6.972H2.325V5.81A3.489,3.489,0,0,1,5.807,2.324h.012A3.489,3.489,0,0,1,9.3,5.81ZM48.448,16.143A6.557,6.557,0,1,1,41.891,22.7,6.565,6.565,0,0,1,48.448,16.143ZM44.963,30.869a8.88,8.88,0,0,0,6.971,0v5.5l-3.077-1.154a1.162,1.162,0,0,0-.816,0l-3.077,1.154v-5.5Zm12.2,22.807a3.489,3.489,0,0,1-3.485,3.485H19.749a5.78,5.78,0,0,0,1.164-3.485V52.515H57.162v1.162Z" transform="translate(-0.001 -0.001)" fill="#53435c"/>
        <path id="Trazado_1008996" data-name="Trazado 1008996" d="M140.768,361.488a1.161,1.161,0,0,0,1.486-.7c.521-1.451,1.53-2.23,2.219-2.23h.008c.413,0,.732.329.949.968l.007.02a2.571,2.571,0,0,0,1.361,1.606,3.58,3.58,0,0,0,2.875-.42c1.338-.6,2-.793,2.747-.171a1.162,1.162,0,1,0,1.489-1.783c-1.935-1.616-3.968-.709-5.183-.168a5.959,5.959,0,0,1-1,.383,1.38,1.38,0,0,1-.1-.226,3.376,3.376,0,0,0-3.125-2.533c-1.837-.019-3.619,1.5-4.434,3.769A1.162,1.162,0,0,0,140.768,361.488Z" transform="translate(-123.733 -314.845)" fill="#53435c"/>
        <path id="Trazado_1008997" data-name="Trazado 1008997" d="M141.163,61.568h9.294a1.162,1.162,0,0,0,1.162-1.162V51.112a1.162,1.162,0,0,0-1.162-1.162h-9.294A1.162,1.162,0,0,0,140,51.112v9.294A1.162,1.162,0,0,0,141.163,61.568Zm1.162-9.294H149.3v6.971h-6.971Z" transform="translate(-123.736 -44.147)" fill="#53435c"/>
        <path id="Trazado_1008998" data-name="Trazado 1008998" d="M141.163,267.274h21.145a1.162,1.162,0,0,0,0-2.324H141.163a1.162,1.162,0,1,0,0,2.324Z" transform="translate(-123.736 -234.168)" fill="#53435c"/>
        <path id="Trazado_1008999" data-name="Trazado 1008999" d="M141.163,312.274h10.224a1.162,1.162,0,1,0,0-2.324H141.163a1.162,1.162,0,1,0,0,2.324Z" transform="translate(-123.736 -273.94)" fill="#53435c"/>
        <path id="Trazado_1009000" data-name="Trazado 1009000" d="M81.166,248.326a1.162,1.162,0,1,0,0-2.324h0a1.162,1.162,0,1,0,0,2.324Z" transform="translate(-70.709 -217.422)" fill="#53435c"/>
      </g>
    </g>
  </g>
</svg>
