<svg xmlns="http://www.w3.org/2000/svg" width="160" height="160" viewBox="0 0 160 160">
  <g id="Grupo_1177469" data-name="Grupo 1177469" transform="translate(-383.746 -8400)">
    <circle id="Elipse_13609" data-name="Elipse 13609" cx="80" cy="80" r="80" transform="translate(383.746 8400)" fill="#fff"/>
    <g id="Grupo_1183147" data-name="Grupo 1183147" transform="translate(419.312 8435.564)">
      <path id="Trazado_1008221" data-name="Trazado 1008221" d="M31,56h2.829v2.829H31Z" transform="translate(12.02 22.382)" fill="#53435c"/>
      <path id="Trazado_1008222" data-name="Trazado 1008222" d="M0,0H2.829V2.829H0Z" transform="translate(67.425 69.439) rotate(-45)" fill="#53435c"/>
      <path id="Trazado_1008223" data-name="Trazado 1008223" d="M56,31h2.829v2.829H56Z" transform="translate(22.382 12.019)" fill="#53435c"/>
      <path id="Trazado_1008224" data-name="Trazado 1008224" d="M85.455,34.532H75.426a31.892,31.892,0,0,0-2.072-5.01l7.088-7.089a1.414,1.414,0,0,0,0-2l-6-6A42.434,42.434,0,1,0,14.428,74.441l6,6a1.414,1.414,0,0,0,2,0l7.089-7.088a31.909,31.909,0,0,0,5.014,2.071v10.03a1.414,1.414,0,0,0,1.414,1.414H52.921a1.414,1.414,0,0,0,1.414-1.414V75.425a31.909,31.909,0,0,0,5.01-2.071l7.089,7.088a1.415,1.415,0,0,0,2,0l12-12a1.414,1.414,0,0,0,0-2l-7.088-7.089a31.911,31.911,0,0,0,2.075-5.016h10.03a1.414,1.414,0,0,0,1.414-1.414V35.947a1.414,1.414,0,0,0-1.414-1.414ZM16.428,16.427a39.59,39.59,0,0,1,54.987-.976l-2,2A36.777,36.777,0,0,0,17.449,69.417l-2,2a39.59,39.59,0,0,1,.976-54.987Zm40.009,16a16.974,16.974,0,1,1-24,24,1.414,1.414,0,0,0-2,0L19.451,67.418A33.948,33.948,0,0,1,67.419,19.45L56.436,30.43a1.414,1.414,0,0,0,0,2Zm27.6,19.074H74.371a1.414,1.414,0,0,0-1.364,1.035,28.983,28.983,0,0,1-2.632,6.365,1.414,1.414,0,0,0,.235,1.7l6.831,6.832-10,10-6.832-6.831a1.415,1.415,0,0,0-1.7-.235A28.982,28.982,0,0,1,52.545,73a1.414,1.414,0,0,0-1.035,1.364V84.04H37.362V74.37a1.414,1.414,0,0,0-1.035-1.364,28.983,28.983,0,0,1-6.365-2.632,1.414,1.414,0,0,0-1.7.235L21.432,77.44l-4-4L31.471,59.4A19.8,19.8,0,0,0,59.4,31.467L73.44,17.429l4,4L70.61,28.261a1.414,1.414,0,0,0-.235,1.7,28.958,28.958,0,0,1,2.632,6.365,1.414,1.414,0,0,0,1.364,1.035H84.04Z" transform="translate(0 0)" fill="#53435c"/>
      <path id="Trazado_1008225" data-name="Trazado 1008225" d="M38.388,33.175V17.414a1.414,1.414,0,0,0-2.829,0v15.76a5.658,5.658,0,0,0-4.043,4.043h-10.1a1.414,1.414,0,1,0,0,2.829h10.1a5.647,5.647,0,1,0,6.872-6.872Zm-1.414,8.286A2.829,2.829,0,1,1,39.8,38.632,2.829,2.829,0,0,1,36.974,41.461Z" transform="translate(7.461 5.802)" fill="#53435c"/>
      <path id="Trazado_1008226" data-name="Trazado 1008226" d="M32.414,14.658A1.414,1.414,0,0,1,31,13.243V10.414a1.414,1.414,0,0,1,2.829,0v2.829A1.414,1.414,0,0,1,32.414,14.658Z" transform="translate(12.02 2.901)" fill="#53435c"/>
      <path id="Trazado_1008227" data-name="Trazado 1008227" d="M42.414,17.227a1.414,1.414,0,0,1-1.224-2.122l1.414-2.451a1.414,1.414,0,1,1,2.45,1.415L43.64,16.52a1.415,1.415,0,0,1-1.226.707Z" transform="translate(16.165 4.122)" fill="#53435c"/>
      <path id="Trazado_1008228" data-name="Trazado 1008228" d="M22.829,17.227A1.414,1.414,0,0,1,21.6,16.52l-1.414-2.451a1.414,1.414,0,1,1,2.45-1.415l1.414,2.451a1.414,1.414,0,0,1-1.224,2.122Z" transform="translate(7.46 4.122)" fill="#53435c"/>
      <path id="Trazado_1008229" data-name="Trazado 1008229" d="M15.812,24.244a1.4,1.4,0,0,1-.707-.19l-2.451-1.414a1.414,1.414,0,1,1,1.415-2.45L16.519,21.6a1.414,1.414,0,0,1-.707,2.639Z" transform="translate(4.122 7.46)" fill="#53435c"/>
      <path id="Trazado_1008230" data-name="Trazado 1008230" d="M13.243,33.829H10.414a1.414,1.414,0,1,1,0-2.829h2.829a1.414,1.414,0,0,1,0,2.829Z" transform="translate(2.901 12.019)" fill="#53435c"/>
      <path id="Trazado_1008231" data-name="Trazado 1008231" d="M13.363,45.244a1.414,1.414,0,0,1-.707-2.639l2.451-1.414a1.414,1.414,0,1,1,1.415,2.45L14.07,45.054a1.4,1.4,0,0,1-.707.19Z" transform="translate(4.123 16.164)" fill="#53435c"/>
      <path id="Trazado_1008232" data-name="Trazado 1008232" d="M35.051,49.2a14.023,14.023,0,0,1-10-4.15,1.414,1.414,0,1,1,2-2A11.308,11.308,0,1,0,43.049,27.064a1.414,1.414,0,1,1,2-2A14.145,14.145,0,0,1,35.051,49.2Z" transform="translate(9.384 9.375)" fill="#53435c"/>
    </g>
  </g>
</svg>
