<svg xmlns="http://www.w3.org/2000/svg" xmlns:xlink="http://www.w3.org/1999/xlink" width="292" height="212.137" viewBox="0 0 292 212.137">
  <defs>
    <clipPath id="clip-path">
      <rect id="Rectángulo_458282" data-name="Rectángulo 458282" width="183" height="183" transform="translate(0.021 0.021)" fill="none"/>
    </clipPath>
  </defs>
  <g id="Grupo_1182629" data-name="Grupo 1182629" transform="translate(-1121.453 -4068)">
    <rect id="Rectángulo_457995" data-name="Rectángulo 457995" width="292" height="212.137" rx="10" transform="translate(1121.453 4068)" fill="#ff984a"/>
    <g id="Grupo_1182628" data-name="Grupo 1182628" transform="translate(1175.932 4081.479)">
      <g id="Grupo_1182627" data-name="Grupo 1182627" transform="translate(0.5 0.5)" clip-path="url(#clip-path)">
        <path id="Trazado_1006030" data-name="Trazado 1006030" d="M66.424,9.612c-10.146,3.919-53.435,20.64-64.072,60.96C-9.776,116.549,26.5,170.677,76.638,180.651,128.65,191,187.4,166.679,182.787,129c-2.105-17.19-25.518-22.391-24.435-42.638C159.41,66.6,184.3,56.918,181.692,33.406a30.909,30.909,0,0,0-2.911-10.325C166.169-2.04,109.048-6.852,66.424,9.612" transform="translate(-0.434 -0.434)" fill="#caddff"/>
        <path id="Trazado_1006031" data-name="Trazado 1006031" d="M238.358,136.135h-5.883s-2.064,14.993-7.668,21.3c-5.309,5.977-15.248,4.338-15.248,4.338l-.009.031a22.937,22.937,0,0,0-11.217-.029,31.506,31.506,0,0,0-8.071,3.419s-7.231,4.611-7.059,13.409c.133,6.827,5.211,14.954,5.171,15.536-.446,6.516-.946,6.293-.272,8.615,1.636,5.636,24.8,3.311,25.217.728.374-2.343-.7-6.261-.162-11.531.852-8.307,2.545-11.264,4.471-16.387,10.639-.871,17.514-6.936,19.653-16.676,2.207-10.048,1.076-22.755,1.076-22.755" transform="translate(-165.31 -122.952)" fill="#5479f7"/>
        <path id="Trazado_1006032" data-name="Trazado 1006032" d="M196.517,203.583c-5.592,0-10.908-.962-11.707-3.713a7.657,7.657,0,0,1-.184-3.9c.119-1.049.282-2.484.441-4.8a15.539,15.539,0,0,0-.687-1.468c-1.422-2.859-4.38-8.809-4.483-14.064-.174-8.881,7.138-13.647,7.212-13.694a32.177,32.177,0,0,1,8.164-3.46,23.191,23.191,0,0,1,11.251-.008.327.327,0,0,1,.114,0c.1.016,9.823,1.538,14.947-4.231,5.472-6.161,7.567-20.978,7.588-21.127a.331.331,0,0,1,.328-.286h5.883a.331.331,0,0,1,.329.3c.011.127,1.11,12.872-1.083,22.855s-9.2,15.983-19.74,16.917c-.312.823-.617,1.591-.913,2.335a43.794,43.794,0,0,0-3.465,13.774,39.079,39.079,0,0,0,.082,7.564,17.862,17.862,0,0,1,.078,3.985c-.286,1.792-7.235,2.694-10.869,2.92-1.084.068-2.19.1-3.285.1M201,158.452a22.408,22.408,0,0,0-5.554.666,31.429,31.429,0,0,0-7.977,3.378c-.071.046-7.073,4.622-6.907,13.124.1,5.107,3.014,10.966,4.414,13.782.612,1.231.771,1.562.756,1.783-.161,2.345-.325,3.8-.446,4.855a7.012,7.012,0,0,0,.161,3.645c.847,2.918,8.241,3.511,14.315,3.132,6.183-.385,10.141-1.637,10.257-2.364a17.832,17.832,0,0,0-.084-3.825,39.629,39.629,0,0,1-.081-7.687,44.348,44.348,0,0,1,3.509-13.951c.318-.8.647-1.628.982-2.519a.331.331,0,0,1,.283-.213c10.343-.847,17.218-6.677,19.357-16.417,1.984-9.031,1.245-20.37,1.094-22.353h-5.291c-.323,2.167-2.461,15.285-7.707,21.19-5.087,5.727-14.123,4.653-15.409,4.466a.327.327,0,0,1-.183,0,20.907,20.907,0,0,0-5.49-.695M185.07,191.179h0Z" transform="translate(-162.335 -119.975)"/>
        <path id="Trazado_1006033" data-name="Trazado 1006033" d="M499.575,291.539H395.208a5.313,5.313,0,0,1-5.192-6.191l22.446-140.5a5.283,5.283,0,0,1,5.192-4.483h21.621l33.538,5.058,42.063-5.058h7.145a5.313,5.313,0,0,1,5.192,6.191l-22.446,140.5a5.283,5.283,0,0,1-5.192,4.483" transform="translate(-351.377 -126.757)" fill="#99b9ff"/>
        <path id="Trazado_1006034" data-name="Trazado 1006034" d="M466.417,290.249H362.05a5.306,5.306,0,0,1-5.192-6.18L379.3,143.81a5.28,5.28,0,0,1,5.192-4.475H488.863a5.306,5.306,0,0,1,5.192,6.18l-22.446,140.26a5.28,5.28,0,0,1-5.192,4.475" transform="translate(-321.536 -125.832)" fill="#fff"/>
        <path id="Trazado_1006035" data-name="Trazado 1006035" d="M463.448,289.247H359.081a5.56,5.56,0,0,1-4.234-1.962,5.682,5.682,0,0,1-1.284-4.594L376.008,142.6a5.587,5.587,0,0,1,5.519-4.748h25.155a.331.331,0,1,1,0,.662H381.527a4.928,4.928,0,0,0-4.865,4.191L354.216,282.8a5.022,5.022,0,0,0,1.134,4.06,4.9,4.9,0,0,0,3.731,1.729H463.448a4.928,4.928,0,0,0,4.865-4.191L490.759,144.3a5.022,5.022,0,0,0-1.134-4.06,4.9,4.9,0,0,0-3.731-1.729h-3.264a.331.331,0,1,1,0-.662h3.264a5.56,5.56,0,0,1,4.235,1.962,5.683,5.683,0,0,1,1.284,4.593L468.966,284.5a5.587,5.587,0,0,1-5.519,4.748" transform="translate(-318.566 -124.499)"/>
        <path id="Trazado_1006036" data-name="Trazado 1006036" d="M939.682,141.874H909.428a7.875,7.875,0,0,1-7.7-9.221l.707-4.228a.885.885,0,0,1,.869-.743h46.6a.889.889,0,0,1,.869,1.04l-.716,4.284a10.555,10.555,0,0,1-10.372,8.867" transform="translate(-811.865 -115.345)" fill="#99b9ff"/>
        <path id="Trazado_1006037" data-name="Trazado 1006037" d="M936.716,139.228H906.462a8.1,8.1,0,0,1-6.185-2.878,8.278,8.278,0,0,1-1.844-6.728l.707-4.228a1.212,1.212,0,0,1,1.2-1.019h46.6a1.207,1.207,0,0,1,.922.429,1.227,1.227,0,0,1,.273,1l-.716,4.284a10.856,10.856,0,0,1-10.7,9.144m-36.381-14.191a.552.552,0,0,0-.543.467l-.707,4.227a7.617,7.617,0,0,0,1.7,6.191,7.435,7.435,0,0,0,5.68,2.645h30.253a10.2,10.2,0,0,0,10.046-8.591l.716-4.284a.567.567,0,0,0-.126-.461.539.539,0,0,0-.417-.195Z" transform="translate(-808.899 -112.368)"/>
        <path id="Trazado_1006038" data-name="Trazado 1006038" d="M1069.609,32.061h12.919a.97.97,0,0,0,.986-.813l1.77-11.427a7.381,7.381,0,1,0-14.569-2.364l-2.093,13.469a.975.975,0,0,0,.986,1.135m5.285-13.867.014-.086a3.015,3.015,0,1,1,5.944,1.014l-.014.086a3.015,3.015,0,1,1-5.944-1.014" transform="translate(-962.157 -10.47)" fill="#99b9ff"/>
        <path id="Trazado_1006039" data-name="Trazado 1006039" d="M1079.554,29.415h-12.919a1.338,1.338,0,0,1-1.023-.464,1.3,1.3,0,0,1-.29-1.054l2.093-13.468a7.669,7.669,0,0,1,13.427-3.893,7.891,7.891,0,0,1,1.8,6.359l-1.77,11.427a1.3,1.3,0,0,1-1.313,1.093m-4.528-20.909a7.044,7.044,0,0,0-6.958,6.025L1065.976,28a.635.635,0,0,0,.14.522.677.677,0,0,0,.519.231h12.919a.636.636,0,0,0,.66-.534l1.77-11.426a7.231,7.231,0,0,0-1.645-5.827,6.992,6.992,0,0,0-5.312-2.46m-.134,10.609a3.321,3.321,0,0,1-2.535-1.18,3.416,3.416,0,0,1-.763-2.773l.014-.086a3.329,3.329,0,0,1,5.833-1.65,3.416,3.416,0,0,1,.763,2.773l-.014.086a3.348,3.348,0,0,1-3.3,2.831m-2.646-3.844a2.755,2.755,0,0,0,.615,2.236,2.661,2.661,0,0,0,2.031.946,2.689,2.689,0,0,0,2.646-2.277l.014-.086a2.755,2.755,0,0,0-.615-2.237,2.661,2.661,0,0,0-2.031-.946,2.689,2.689,0,0,0-2.645,2.277Z" transform="translate(-959.184 -7.493)"/>
        <path id="Trazado_1006040" data-name="Trazado 1006040" d="M1125.365,510.5l-9.045,56.864a1.727,1.727,0,0,0,1.692,2.009h4.376a1.719,1.719,0,0,0,1.691-1.458l9.047-56.864a1.727,1.727,0,0,0-1.692-2.009h-4.378a1.719,1.719,0,0,0-1.692,1.458" transform="translate(-1005.076 -458.556)" fill="#99b9ff"/>
        <path id="Trazado_1006041" data-name="Trazado 1006041" d="M995.446,656.429,988.881,698.7a1.727,1.727,0,0,0,1.693,2h4.378a1.719,1.719,0,0,0,1.693-1.464l6.567-42.268a1.727,1.727,0,0,0-1.693-2h-4.38a1.719,1.719,0,0,0-1.693,1.464" transform="translate(-890.384 -589.887)" fill="#caddff"/>
        <path id="Trazado_1006042" data-name="Trazado 1006042" d="M866.439,765.872l-4.9,31.321a1.727,1.727,0,0,0,1.692,2h4.377a1.719,1.719,0,0,0,1.692-1.462l4.9-31.321a1.727,1.727,0,0,0-1.692-2h-4.379a1.72,1.72,0,0,0-1.692,1.462" transform="translate(-775.779 -688.385)" fill="#5479f7"/>
        <path id="Trazado_1006043" data-name="Trazado 1006043" d="M737.449,875.315l-3.231,20.374a1.727,1.727,0,0,0,1.692,2.008h4.376a1.719,1.719,0,0,0,1.692-1.459l3.233-20.374a1.727,1.727,0,0,0-1.692-2.008h-4.378a1.72,1.72,0,0,0-1.692,1.459" transform="translate(-661.194 -786.884)" fill="#99b9ff"/>
        <path id="Trazado_1006044" data-name="Trazado 1006044" d="M608.159,965.33,606.536,976.7a1.727,1.727,0,0,0,1.7,1.981h4.384a1.72,1.72,0,0,0,1.7-1.485l1.625-11.373a1.727,1.727,0,0,0-1.7-1.981h-4.386a1.72,1.72,0,0,0-1.7,1.485" transform="translate(-546.286 -867.872)" fill="#caddff"/>
        <path id="Trazado_1006045" data-name="Trazado 1006045" d="M583.219,1211.457a2.7,2.7,0,1,1-2.7-2.728,2.713,2.713,0,0,1,2.7,2.728" transform="translate(-520.463 -1088.261)" fill="#99b9ff"/>
        <path id="Trazado_1006046" data-name="Trazado 1006046" d="M577.546,1211.54a3.059,3.059,0,1,1,3.027-3.059,3.047,3.047,0,0,1-3.027,3.059m0-5.456a2.4,2.4,0,1,0,2.366,2.4,2.384,2.384,0,0,0-2.366-2.4" transform="translate(-517.486 -1085.285)"/>
        <path id="Trazado_1006047" data-name="Trazado 1006047" d="M560.183,1323.866a2.7,2.7,0,1,1-2.7-2.728,2.713,2.713,0,0,1,2.7,2.728" transform="translate(-499.731 -1189.427)" fill="#99b9ff"/>
        <path id="Trazado_1006048" data-name="Trazado 1006048" d="M554.51,1323.948a3.059,3.059,0,1,1,3.027-3.059,3.047,3.047,0,0,1-3.027,3.059m0-5.456a2.4,2.4,0,1,0,2.366,2.4,2.384,2.384,0,0,0-2.366-2.4" transform="translate(-496.755 -1186.45)"/>
        <path id="Trazado_1006049" data-name="Trazado 1006049" d="M539.857,1441.758a2.7,2.7,0,1,1-2.7-2.728,2.712,2.712,0,0,1,2.7,2.728" transform="translate(-481.438 -1295.527)" fill="#99b9ff"/>
        <path id="Trazado_1006050" data-name="Trazado 1006050" d="M534.184,1441.841a3.059,3.059,0,1,1,3.028-3.059,3.047,3.047,0,0,1-3.028,3.059m0-5.456a2.4,2.4,0,1,0,2.366,2.4,2.384,2.384,0,0,0-2.366-2.4" transform="translate(-478.462 -1292.551)"/>
        <path id="Trazado_1006051" data-name="Trazado 1006051" d="M707.29,1231.595H678.42a.551.551,0,1,1,0-1.1h28.87a.551.551,0,1,1,0,1.1" transform="translate(-610.5 -1107.848)" fill="#99b9ff"/>
        <path id="Trazado_1006052" data-name="Trazado 1006052" d="M921.95,1343.09h-3a.551.551,0,1,1,0-1.1h3a.551.551,0,1,1,0,1.1" transform="translate(-826.967 -1208.191)" fill="#99b9ff"/>
        <path id="Trazado_1006053" data-name="Trazado 1006053" d="M680.729,1343.09H660.353a.551.551,0,0,1,0-1.1h20.376a.551.551,0,0,1,0,1.1" transform="translate(-594.24 -1208.191)" fill="#99b9ff"/>
        <path id="Trazado_1006054" data-name="Trazado 1006054" d="M665.735,1458.24h-28.87a.551.551,0,0,1,0-1.1h28.87a.551.551,0,1,1,0,1.1" transform="translate(-573.101 -1311.823)" fill="#99b9ff"/>
        <path id="Trazado_1006055" data-name="Trazado 1006055" d="M868.441,405.569a18.588,18.588,0,0,1-8.652,24.645L851.4,413.5Z" transform="translate(-766.676 -365.436)" fill="#caddff"/>
        <path id="Trazado_1006056" data-name="Trazado 1006056" d="M708.8,310.634a18.186,18.186,0,0,0-25.133-8.359,18.653,18.653,0,0,0-8.234,23.455,18.2,18.2,0,0,0,24.715,9.55l-7.432-15.8a1,1,0,0,1,.466-1.329Z" transform="translate(-607.037 -270.501)" fill="#99b9ff"/>
        <path id="Trazado_1006057" data-name="Trazado 1006057" d="M863.134,509.814l-7.432-15.8-.583,17.593a18.025,18.025,0,0,0,8.015-1.795" transform="translate(-770.021 -445.036)" fill="#5479f7"/>
        <path id="Trazado_1006058" data-name="Trazado 1006058" d="M801.745,422.388a6.881,6.881,0,1,1-6.88-6.96,6.921,6.921,0,0,1,6.88,6.96" transform="translate(-709.601 -374.309)" fill="#fff"/>
        <path id="Trazado_1006059" data-name="Trazado 1006059" d="M620.348,709.2s4.248-.063,6.468-1.035,2.185.714,1.557,1.307a13.943,13.943,0,0,1-6.326,2.407Z" transform="translate(-558.732 -637.5)" fill="#fff"/>
        <path id="Trazado_1006060" data-name="Trazado 1006060" d="M619.07,709.25a.331.331,0,0,1-.279-.154l-1.7-2.679a.331.331,0,0,1,.274-.508c.042,0,4.207-.074,6.34-1.008,1.441-.631,2.009-.193,2.219.125a1.443,1.443,0,0,1-.3,1.726,14.284,14.284,0,0,1-6.529,2.5h-.024m-1.109-2.7,1.281,2.02a13.893,13.893,0,0,0,5.927-2.3.809.809,0,0,0,.2-.88c-.124-.187-.557-.254-1.4.116a19.856,19.856,0,0,1-6.011,1.044" transform="translate(-555.756 -634.54)"/>
        <path id="Trazado_1006061" data-name="Trazado 1006061" d="M558.4,667.343l2.107-4.2,1.954,1.146a.8.8,0,0,1,.267.257l.123.191a.785.785,0,0,0,.706.363.772.772,0,0,1,.438.105l14.534,8.507a1.589,1.589,0,0,1,.328.255l3,3.045-4.006-.7a2.544,2.544,0,0,1-.633-.2l-15.2-7.082a.8.8,0,0,1-.322-.275l-.02-.03a.785.785,0,0,0-.689-.346l-.137.008a.769.769,0,0,1-.367-.071Z" transform="translate(-502.982 -597.248)" fill="#fff"/>
        <path id="Trazado_1006062" data-name="Trazado 1006062" d="M578.885,674.369a.329.329,0,0,1-.057-.005l-4.005-.7a2.868,2.868,0,0,1-.716-.226l-15.2-7.082a1.129,1.129,0,0,1-.456-.389l-.021-.03a.452.452,0,0,0-.4-.2l-.137.007a1.1,1.1,0,0,1-.524-.1l-2.083-.97a.331.331,0,0,1-.156-.448l2.107-4.2a.331.331,0,0,1,.463-.137l1.954,1.146a1.132,1.132,0,0,1,.378.364l.123.191a.457.457,0,0,0,.407.211,1.1,1.1,0,0,1,.626.15l14.534,8.507a1.923,1.923,0,0,1,.4.308l3,3.045a.331.331,0,0,1-.236.563m-20.833-9.3a1.121,1.121,0,0,1,.922.492l.02.03a.463.463,0,0,0,.188.16l15.2,7.082a2.21,2.21,0,0,0,.551.174l2.986.525-2.275-2.308a1.26,1.26,0,0,0-.26-.2l-14.534-8.507a.44.44,0,0,0-.25-.06,1.116,1.116,0,0,1-1.005-.514l-.123-.191a.468.468,0,0,0-.156-.15l-1.65-.968-1.8,3.579,1.774.826a.44.44,0,0,0,.209.041l.137-.007.059,0" transform="translate(-500.005 -594.271)"/>
        <path id="Trazado_1006063" data-name="Trazado 1006063" d="M752.55,768.828a.331.331,0,0,1-.3-.463l.554-1.27a.331.331,0,1,1,.606.265l-.554,1.27a.331.331,0,0,1-.3.2" transform="translate(-677.413 -690.622)"/>
        <path id="Trazado_1006064" data-name="Trazado 1006064" d="M519.866,643.157l3.164,1.721a.342.342,0,0,1,.139.457l-1.857,3.593a.334.334,0,0,1-.457.142l-3.157-1.718a1.327,1.327,0,0,1-.558-1.762l.991-1.919a1.261,1.261,0,0,1,1.735-.515" transform="translate(-465.72 -579.116)" fill="#99b9ff"/>
        <path id="Trazado_1006065" data-name="Trazado 1006065" d="M518.045,646.46a.661.661,0,0,1-.316-.081l-3.157-1.718a1.662,1.662,0,0,1-.694-2.2l.992-1.919a1.563,1.563,0,0,1,.937-.783,1.609,1.609,0,0,1,1.25.13l3.164,1.721a.676.676,0,0,1,.274.9l-1.857,3.593a.668.668,0,0,1-.592.362m-1.769-6.115a.938.938,0,0,0-.276.042.907.907,0,0,0-.544.454l-.992,1.919a1,1,0,0,0,.423,1.32l3.157,1.718,1.862-3.6-3.167-1.736a.971.971,0,0,0-.464-.12" transform="translate(-462.751 -576.134)"/>
        <path id="Trazado_1006066" data-name="Trazado 1006066" d="M588.9,688.827a.331.331,0,0,1-.292-.486l1.048-1.975a.331.331,0,1,1,.584.31l-1.048,1.975a.331.331,0,0,1-.293.176" transform="translate(-530.131 -617.989)"/>
        <path id="Trazado_1006067" data-name="Trazado 1006067" d="M618.083,699.6a.33.33,0,0,1-.163-.043l-4.333-2.454a.331.331,0,0,1,.326-.576l4.333,2.454a.331.331,0,0,1-.163.619" transform="translate(-552.497 -627.257)"/>
        <path id="Trazado_1006068" data-name="Trazado 1006068" d="M727.6,763.618a.33.33,0,0,1-.162-.042l-1.692-.95a.331.331,0,1,1,.324-.577l1.692.95a.331.331,0,0,1-.162.619" transform="translate(-653.434 -686.221)"/>
        <path id="Trazado_1006069" data-name="Trazado 1006069" d="M529.292,674.476a.329.329,0,0,1-.16-.042l-2.417-1.337a.331.331,0,1,1,.32-.579l2.417,1.337a.331.331,0,0,1-.16.62" transform="translate(-474.311 -605.647)" fill="#fff"/>
        <path id="Trazado_1006070" data-name="Trazado 1006070" d="M543.435,721.832s3.759.538,6.294-1.438c2.156-1.681,6.523,3.13,6.9,3.741.531.865-.638,2.223-1.99,1.453,0,0-.358,2.144-3.273,2.5s-4.16-1.567-4.942-1.855a14.24,14.24,0,0,0-3.023-.3Z" transform="translate(-489.48 -648.452)" fill="#fff"/>
        <path id="Trazado_1006071" data-name="Trazado 1006071" d="M547.689,725.488a5.684,5.684,0,0,1-3.721-1.481,3.091,3.091,0,0,0-.636-.439,13.279,13.279,0,0,0-2.912-.283.331.331,0,0,1-.329-.334l.036-4.1a.331.331,0,0,1,.377-.325c.036.005,3.653.492,6.044-1.371a2.164,2.164,0,0,1,1.788-.377c2.368.428,5.293,3.713,5.6,4.206a1.367,1.367,0,0,1-.26,1.673,1.707,1.707,0,0,1-1.8.411,3.868,3.868,0,0,1-3.443,2.374,6.049,6.049,0,0,1-.739.046m-6.933-2.859a11.825,11.825,0,0,1,2.8.318,3.3,3.3,0,0,1,.819.541,4.86,4.86,0,0,0,3.969,1.3c2.64-.326,2.984-2.211,2.988-2.23a.331.331,0,0,1,.49-.233,1.083,1.083,0,0,0,1.372-.126.726.726,0,0,0,.172-.866c-.248-.4-3.006-3.514-5.15-3.9a1.512,1.512,0,0,0-1.264.247,9.306,9.306,0,0,1-6.17,1.544Z" transform="translate(-486.503 -645.474)"/>
        <path id="Trazado_1006072" data-name="Trazado 1006072" d="M211.1,433.057s-5.148,2.186-7.867,11.083c-1.5,4.911-1.226,11.913,6.174,21.222,1.48,1.862,3.558,3.714,5.905,3.981l22.488.22-.1-7.263s-17.439-2.286-20.061-3.281c-2.322-.881-5.684-12.35-6.034-17.977Z" transform="translate(-182.683 -390.175)" fill="#5479f7"/>
        <path id="Trazado_1006073" data-name="Trazado 1006073" d="M276.409,577.017h0l-22.488-.22-.034,0c-2.6-.3-4.769-2.4-6.127-4.1-.8-1-1.569-2.023-2.289-3.025a.331.331,0,1,1,.537-.386c.714.994,1.477,2,2.269,3,1.277,1.607,3.3,3.578,5.667,3.856l22.131.217-.091-6.639c-2.344-.31-17.378-2.324-19.851-3.262-2.131-.808-4.627-8.814-5.643-13.971a.331.331,0,1,1,.649-.128c1.281,6.5,3.773,12.928,5.228,13.48,2.555.969,19.812,3.239,19.986,3.262a.331.331,0,0,1,.288.323l.1,7.263a.331.331,0,0,1-.331.335" transform="translate(-221.294 -497.299)"/>
        <path id="Trazado_1006074" data-name="Trazado 1006074" d="M669.739,115.1c.262.688.775,2.54-.071,3.781a2.055,2.055,0,0,1-3.24.158,6.973,6.973,0,0,1-1.053-2.589,3.948,3.948,0,0,0-.716-1.372.983.983,0,0,0-.774-.382l-2.675-.013a1.835,1.835,0,0,1,.8-1.472c.681-.369,2.444-.065,2.582-.274,1.541-2.338,4.095-.606,5.147,2.163" transform="translate(-595.507 -101.092)" fill="#fff"/>
        <path id="Trazado_1006075" data-name="Trazado 1006075" d="M664.974,117.11a2.452,2.452,0,0,1-1.828-.824,6.449,6.449,0,0,1-1.062-2.5l-.063-.216a3.6,3.6,0,0,0-.66-1.262.65.65,0,0,0-.514-.254l-3.011-.015.007-.336a2.155,2.155,0,0,1,.973-1.757,4.369,4.369,0,0,1,1.886-.234c.216,0,.5.006.63-.01a2.3,2.3,0,0,1,2.214-1.15c1.343.148,2.735,1.537,3.465,3.457.16.421.907,2.6-.107,4.084a2.313,2.313,0,0,1-1.766,1.012q-.083.006-.165.006m-6.418-5.731,2.295.011a1.307,1.307,0,0,1,1.034.511,4.268,4.268,0,0,1,.772,1.481l.063.216a6.15,6.15,0,0,0,.918,2.244,1.789,1.789,0,0,0,1.457.6,1.634,1.634,0,0,0,1.264-.725c.846-1.242.12-3.252.035-3.477-.634-1.667-1.834-2.915-2.919-3.034a1.718,1.718,0,0,0-1.643.936c-.158.24-.486.236-1.137.228a4.172,4.172,0,0,0-1.563.155,1.28,1.28,0,0,0-.575.852" transform="translate(-592.472 -98.115)"/>
        <path id="Trazado_1006076" data-name="Trazado 1006076" d="M294.115,1488.638l-1.639,7.939,4.291,1.226,2.373-7.729Z" transform="translate(-263.655 -1340.173)" fill="#fff"/>
        <path id="Trazado_1006077" data-name="Trazado 1006077" d="M293.789,1495.157a.337.337,0,0,1-.091-.013l-4.291-1.226a.331.331,0,0,1-.233-.385l1.639-7.939a.331.331,0,0,1,.415-.251l5.025,1.436a.331.331,0,0,1,.225.415l-2.373,7.729a.331.331,0,0,1-.316.234m-3.9-1.79,3.684,1.052,2.179-7.1-4.358-1.245Z" transform="translate(-260.678 -1337.196)"/>
        <path id="Trazado_1006078" data-name="Trazado 1006078" d="M277.995,1551.147c.048.764.974,1.376,1.723,1.491,2.6.4,8.719.229,10.381.345,2.156.15,6.206-.011,6.363-1.4.191-1.693-1.617-4.162-5.943-5.515-2.237-.7-4.6-4.166-5.651-4.228s-2.9,2.676-2.9,2.676l-2.982-1.024a23.325,23.325,0,0,0-.989,7.654" transform="translate(-250.593 -1388.053)" fill="#5479f7"/>
        <path id="Trazado_1006079" data-name="Trazado 1006079" d="M288.529,1550.38c-.783,0-1.357-.038-1.434-.043-.563-.039-1.677-.046-2.967-.053a65.244,65.244,0,0,1-7.441-.3,2.294,2.294,0,0,1-2-1.8,23.4,23.4,0,0,1,1-7.778.331.331,0,0,1,.422-.21l2.745.943c.529-.749,2.005-2.673,3.05-2.612.59.035,1.3.717,2.272,1.661a10.7,10.7,0,0,0,3.459,2.581c4.537,1.418,6.38,4.036,6.173,5.868-.17,1.506-3.356,1.736-5.281,1.736m-12.307-9.439a22.978,22.978,0,0,0-.877,7.209c.035.557.791,1.085,1.442,1.185a66.173,66.173,0,0,0,7.344.288c1.3.007,2.425.014,3.01.054,2.763.193,5.91-.214,6.011-1.107.183-1.62-1.721-3.914-5.713-5.162a11.1,11.1,0,0,1-3.721-2.737c-.706-.682-1.506-1.456-1.851-1.476-.6-.037-1.881,1.459-2.607,2.531a.331.331,0,0,1-.381.127Z" transform="translate(-247.613 -1385.077)"/>
        <path id="Trazado_1006080" data-name="Trazado 1006080" d="M308.59,1625.989c-.573,0-1.2-.033-1.862-.068-.978-.052-1.99-.1-2.983-.059a45.344,45.344,0,0,1-5.448-.08c-2.334-.179-2.422-.317-2.492-.429a.334.334,0,0,1-.012-.334.331.331,0,0,1,.437-.141,38.039,38.039,0,0,0,7.485.324c1.025-.047,2.053.007,3.048.059a9.9,9.9,0,0,0,3.686-.189.331.331,0,0,1,.261.608,5.522,5.522,0,0,1-2.12.31" transform="translate(-266.605 -1462.755)"/>
        <path id="Trazado_1006081" data-name="Trazado 1006081" d="M365.6,1588.526a.331.331,0,0,1-.238-.561l1.571-1.622a.331.331,0,0,1,.475.46l-1.571,1.622a.33.33,0,0,1-.238.1" transform="translate(-329.164 -1428.015)"/>
        <path id="Trazado_1006082" data-name="Trazado 1006082" d="M74.214,1484.862,74,1490.4l3.83.934.682-6.431Z" transform="translate(-67.028 -1336.775)" fill="#fff"/>
        <path id="Trazado_1006083" data-name="Trazado 1006083" d="M74.849,1488.687a.334.334,0,0,1-.078-.009l-3.831-.934a.331.331,0,0,1-.252-.334l.219-5.537a.331.331,0,0,1,.33-.318h0l4.295.039a.331.331,0,0,1,.326.366l-.682,6.432a.331.331,0,0,1-.329.3m-3.489-1.522,3.2.78.6-5.693-3.609-.033Z" transform="translate(-64.051 -1333.798)"/>
        <path id="Trazado_1006084" data-name="Trazado 1006084" d="M40.062,1537.048a30.143,30.143,0,0,1-7.008,0c-1.33-.141-1.849-2.007-1.615-2.968.651-2.676,1.782-6.99,3.706-9.342l.707,1.436.667-1.4a.584.584,0,0,1,.438-.3l1.439.014a.586.586,0,0,1,.646.465l.23,1.107,1.228-1.429.958,10.554a1.658,1.658,0,0,1-1.4,1.865" transform="translate(-28.679 -1372.423)" fill="#5479f7"/>
        <path id="Trazado_1006085" data-name="Trazado 1006085" d="M33.815,1534.6a35.807,35.807,0,0,1-3.766-.206,1.92,1.92,0,0,1-1.376-.862,3.382,3.382,0,0,1-.526-2.512c.784-3.222,1.92-7.211,3.771-9.473a.331.331,0,0,1,.553.063l.4.823.373-.784a.926.926,0,0,1,.694-.485c.015,0,.03,0,.045,0l1.419.014a.923.923,0,0,1,.986.729l.093.449.79-.919a.331.331,0,0,1,.58.186l.958,10.554a1.991,1.991,0,0,1-1.678,2.222,24.057,24.057,0,0,1-3.323.2m-1.7-12.219c-1.8,2.527-2.857,6.877-3.324,8.795a2.746,2.746,0,0,0,.424,1.975,1.262,1.262,0,0,0,.905.585,30.363,30.363,0,0,0,6.926,0,1.331,1.331,0,0,0,1.114-1.495l-.889-9.788-.718.836a.331.331,0,0,1-.575-.148l-.23-1.107a.254.254,0,0,0-.28-.2.214.214,0,0,1-.045,0l-1.412-.014a.256.256,0,0,0-.172.128l-.658,1.383a.331.331,0,0,1-.3.189h0a.331.331,0,0,1-.3-.185Z" transform="translate(-25.709 -1369.447)"/>
        <path id="Trazado_1006086" data-name="Trazado 1006086" d="M44.99,1627.041a14.011,14.011,0,0,1-3.13-.335.331.331,0,0,1,.149-.645,16.8,16.8,0,0,0,7.364-.247.331.331,0,0,1,.184.636,18.02,18.02,0,0,1-4.566.591" transform="translate(-37.875 -1463.617)"/>
        <path id="Trazado_1006087" data-name="Trazado 1006087" d="M63.707,1590.237a.331.331,0,0,1-.011-.661l3.453-.115a.331.331,0,1,1,.022.661l-3.453.115h-.011" transform="translate(-57.471 -1430.911)"/>
        <path id="Trazado_1006088" data-name="Trazado 1006088" d="M106.969,804.226c1.453,8.581,4.094,29.668-1.609,45.441-4.908,13.575-8.411,20.335-9.758,22.79a1.844,1.844,0,0,1-1.855.948l-3.5-.455a1.869,1.869,0,0,1-1.594-2.153c1.276-8.077,6.346-47.39,5-51.024L71.925,871.3a1.463,1.463,0,0,1-1.359.891l-3.67-.041a1.476,1.476,0,0,1-1.448-1.523c1.084-41.709,13.186-48.421,16.732-68.362.008-.047,1.161,1.355,1.2,1.38,3.55,2.075,5.327,1.914,10.774,2.214,5.892.325,11.365-1.918,12.655-1.858.1,0,.139.12.156.22" transform="translate(-59.334 -722.456)"/>
        <path id="Trazado_1006089" data-name="Trazado 1006089" d="M343.847,274.591l1-5.2a.821.821,0,0,1,.708-.653l2.019-.232a.97.97,0,0,0,.844-.816l.457-2.9a.015.015,0,0,1,.007-.011l.959-.524a.406.406,0,0,0,.165-.539l-1.01-2c-.2-.388-.467-2.581-.9-2.56,0,0-7.266-2.553-9.4.49a2.9,2.9,0,0,0-.246,2.78l.489,1.161a5.457,5.457,0,0,1-.348,5.1l-2.731,4.3a14.611,14.611,0,0,0,6.384,1.577Z" transform="translate(-302.703 -232.776)" fill="#fff"/>
        <path id="Trazado_1006090" data-name="Trazado 1006090" d="M340.87,271.931h-.005l-1.6-.024a15.029,15.029,0,0,1-6.529-1.613.331.331,0,0,1-.13-.473l2.731-4.3a5.309,5.309,0,0,0,.544-1.2,5.255,5.255,0,0,0-.222-3.587l-.489-1.161a3.24,3.24,0,0,1,.28-3.1c2.186-3.113,9.038-.868,9.736-.629.479.049.67.793.933,1.971a6.221,6.221,0,0,0,.2.768l1.01,2a.732.732,0,0,1-.3.979l-.823.45-.432,2.744a1.3,1.3,0,0,1-1.133,1.093l-2.019.232a.489.489,0,0,0-.422.391l-1,5.192a.331.331,0,0,1-.325.268m-7.506-2.067a14.371,14.371,0,0,0,5.912,1.381l1.322.02.952-4.924a1.151,1.151,0,0,1,.995-.919l2.019-.232a.64.64,0,0,0,.555-.539l.457-2.9a.36.36,0,0,1,.171-.247l.964-.527a.075.075,0,0,0,.029-.1l-1.011-2a4.831,4.831,0,0,1-.253-.923,6.745,6.745,0,0,0-.432-1.466l-.027-.008c-.07-.025-7.054-2.435-9.023.368a2.574,2.574,0,0,0-.211,2.461l.489,1.161a5.917,5.917,0,0,1,.244,4.04,5.984,5.984,0,0,1-.615,1.356Z" transform="translate(-299.727 -229.785)"/>
        <path id="Trazado_1006091" data-name="Trazado 1006091" d="M339.239,215.2c-.373-.935-.956-1.286-.847-1.817a1.125,1.125,0,0,1,.5-.636c.777-.569,1.8-.222,3.852.169,2.548.485,2.839.561,3.32.369a3.722,3.722,0,0,0,1.971-3.254,3.548,3.548,0,0,0-1.519-3.169,3.689,3.689,0,0,0-3.863.127,1.782,1.782,0,0,0-.814-1.12c-1.151-.594-2.868.738-3.469,1.2a7.545,7.545,0,0,0-2.255,2.912,2.6,2.6,0,0,0-2-.274,3.056,3.056,0,0,0-1.747,2.306c-.345,1.878,1.185,3.518,2.341,4.756a7.056,7.056,0,0,0,1.346,1.195.707.707,0,0,0,.739.03l.013-.007a.62.62,0,0,0,.224-.865l-.059-.1a2.867,2.867,0,0,1-.417-1.181,1,1,0,0,1,.2-.868,1.16,1.16,0,0,1,1.015-.072,1.548,1.548,0,0,1,.865.768c.178.327.773-.062.608-.477" transform="translate(-299.506 -185.574)"/>
        <path id="Trazado_1006092" data-name="Trazado 1006092" d="M831.45,1193.5h-37.9a3.047,3.047,0,0,0-3.091,2.473l-6.04,54.8a2.339,2.339,0,0,0,2.546,2.473l35.905.42c1.557,0,4.932-1.528,5.083-2.894l6.04-54.8a2.339,2.339,0,0,0-2.546-2.473" transform="translate(-706.382 -1074.552)"/>
        <path id="Trazado_1006093" data-name="Trazado 1006093" d="M809.307,1191.763H772.326a3.014,3.014,0,0,0-3.026,2.5l-6.1,55.379a2.313,2.313,0,0,0,2.475,2.5h36.981a3.014,3.014,0,0,0,3.026-2.5l6.1-55.379a2.313,2.313,0,0,0-2.475-2.5" transform="translate(-687.28 -1072.992)" fill="#99b9ff"/>
        <path id="Trazado_1006094" data-name="Trazado 1006094" d="M799.676,1249.494H762.695a2.919,2.919,0,0,1-2.187-.924,2.468,2.468,0,0,1-.617-1.943l6.1-55.379a3.356,3.356,0,0,1,3.355-2.794H806.33a2.919,2.919,0,0,1,2.187.923,2.469,2.469,0,0,1,.617,1.943l-6.1,55.379a3.356,3.356,0,0,1-3.355,2.794m-30.326-60.378a2.68,2.68,0,0,0-2.7,2.2l-6.1,55.379a1.815,1.815,0,0,0,.452,1.429,2.259,2.259,0,0,0,1.695.7h36.981a2.68,2.68,0,0,0,2.7-2.2l6.1-55.379a1.815,1.815,0,0,0-.452-1.429,2.259,2.259,0,0,0-1.695-.7Z" transform="translate(-684.303 -1070.015)"/>
        <path id="Trazado_1006095" data-name="Trazado 1006095" d="M829.164,1502.425h-4.61a1.334,1.334,0,0,1-1.353-1.516l.489-4.437a1.739,1.739,0,0,1,1.687-1.516h4.61a1.334,1.334,0,0,1,1.353,1.516l-.489,4.437a1.738,1.738,0,0,1-1.687,1.516" transform="translate(-741.287 -1345.858)" fill="#5479f7"/>
        <path id="Trazado_1006096" data-name="Trazado 1006096" d="M818.5,1599.185h-4.61a1.334,1.334,0,0,1-1.353-1.516l.489-4.437a1.739,1.739,0,0,1,1.687-1.516h4.61a1.334,1.334,0,0,1,1.353,1.516l-.489,4.437a1.738,1.738,0,0,1-1.687,1.516" transform="translate(-731.69 -1432.94)" fill="#5479f7"/>
        <path id="Trazado_1006097" data-name="Trazado 1006097" d="M807.746,1696.753h-4.61a1.334,1.334,0,0,1-1.353-1.517l.489-4.437a1.739,1.739,0,0,1,1.687-1.516h4.61a1.334,1.334,0,0,1,1.353,1.516l-.489,4.437a1.739,1.739,0,0,1-1.687,1.517" transform="translate(-722.012 -1520.749)" fill="#5479f7"/>
        <path id="Trazado_1006098" data-name="Trazado 1006098" d="M920.78,1502.425h-4.61a1.334,1.334,0,0,1-1.353-1.516l.489-4.437a1.739,1.739,0,0,1,1.687-1.516h4.61a1.334,1.334,0,0,1,1.353,1.516l-.489,4.437a1.739,1.739,0,0,1-1.687,1.516" transform="translate(-823.74 -1345.858)" fill="#5479f7"/>
        <path id="Trazado_1006099" data-name="Trazado 1006099" d="M910.116,1599.185h-4.61a1.334,1.334,0,0,1-1.353-1.516l.489-4.437a1.739,1.739,0,0,1,1.687-1.516h4.61a1.334,1.334,0,0,1,1.353,1.516l-.489,4.437a1.738,1.738,0,0,1-1.687,1.516" transform="translate(-814.142 -1432.94)" fill="#5479f7"/>
        <path id="Trazado_1006100" data-name="Trazado 1006100" d="M899.362,1696.753h-4.61a1.334,1.334,0,0,1-1.353-1.517l.489-4.437a1.739,1.739,0,0,1,1.687-1.516h4.61a1.334,1.334,0,0,1,1.353,1.516l-.489,4.437a1.739,1.739,0,0,1-1.687,1.517" transform="translate(-804.464 -1520.749)" fill="#5479f7"/>
        <path id="Trazado_1006101" data-name="Trazado 1006101" d="M1012.4,1502.425h-4.61a1.334,1.334,0,0,1-1.353-1.516l.489-4.437a1.738,1.738,0,0,1,1.687-1.516h4.61a1.334,1.334,0,0,1,1.353,1.516l-.489,4.437a1.738,1.738,0,0,1-1.687,1.516" transform="translate(-906.192 -1345.858)" fill="#5479f7"/>
        <path id="Trazado_1006102" data-name="Trazado 1006102" d="M1001.732,1599.185h-4.61a1.334,1.334,0,0,1-1.353-1.516l.489-4.437a1.738,1.738,0,0,1,1.687-1.516h4.61a1.333,1.333,0,0,1,1.353,1.516l-.489,4.437a1.738,1.738,0,0,1-1.687,1.516" transform="translate(-896.595 -1432.94)" fill="#5479f7"/>
        <path id="Trazado_1006103" data-name="Trazado 1006103" d="M990.978,1696.753h-4.61a1.334,1.334,0,0,1-1.353-1.517l.489-4.437a1.739,1.739,0,0,1,1.687-1.516h4.61a1.334,1.334,0,0,1,1.353,1.516l-.489,4.437a1.739,1.739,0,0,1-1.687,1.517" transform="translate(-886.916 -1520.749)" fill="#5479f7"/>
        <path id="Trazado_1006104" data-name="Trazado 1006104" d="M1103.531,1502.424h-4.61a1.334,1.334,0,0,1-1.353-1.516l.489-4.437a1.739,1.739,0,0,1,1.687-1.516h4.61a1.334,1.334,0,0,1,1.353,1.516l-.489,4.437a1.739,1.739,0,0,1-1.687,1.516" transform="translate(-988.211 -1345.857)" fill="#5479f7"/>
        <path id="Trazado_1006105" data-name="Trazado 1006105" d="M840.653,1405.526h-4.61a1.334,1.334,0,0,1-1.353-1.516l.489-4.437a1.739,1.739,0,0,1,1.687-1.517h4.61a1.334,1.334,0,0,1,1.353,1.517l-.489,4.437a1.739,1.739,0,0,1-1.687,1.516" transform="translate(-751.627 -1258.651)" fill="#5479f7"/>
        <path id="Trazado_1006106" data-name="Trazado 1006106" d="M932.269,1405.526h-4.61a1.334,1.334,0,0,1-1.353-1.516l.489-4.437a1.739,1.739,0,0,1,1.687-1.517h4.61a1.334,1.334,0,0,1,1.352,1.517l-.489,4.437a1.739,1.739,0,0,1-1.687,1.516" transform="translate(-834.079 -1258.651)" fill="#5479f7"/>
        <path id="Trazado_1006107" data-name="Trazado 1006107" d="M1023.885,1405.526h-4.61a1.334,1.334,0,0,1-1.353-1.516l.489-4.437a1.739,1.739,0,0,1,1.687-1.517h4.61a1.334,1.334,0,0,1,1.353,1.517l-.489,4.437a1.739,1.739,0,0,1-1.687,1.516" transform="translate(-916.532 -1258.651)" fill="#5479f7"/>
        <path id="Trazado_1006108" data-name="Trazado 1006108" d="M1115.019,1405.525h-4.61a1.334,1.334,0,0,1-1.353-1.516l.489-4.437a1.739,1.739,0,0,1,1.687-1.516h4.61a1.333,1.333,0,0,1,1.353,1.516l-.489,4.437a1.739,1.739,0,0,1-1.687,1.516" transform="translate(-998.55 -1258.65)" fill="#5479f7"/>
        <path id="Trazado_1006109" data-name="Trazado 1006109" d="M1082.054,1609h-4.61a1.334,1.334,0,0,1-1.353-1.516l1.571-14.249a1.739,1.739,0,0,1,1.687-1.516h4.61a1.333,1.333,0,0,1,1.353,1.516l-1.57,14.249a1.739,1.739,0,0,1-1.687,1.516" transform="translate(-968.883 -1432.939)" fill="#5479f7"/>
        <path id="Trazado_1006110" data-name="Trazado 1006110" d="M881.288,1247.822H850.081a1.715,1.715,0,0,1-1.739-1.95l.935-8.479a2.236,2.236,0,0,1,2.169-1.95h31.207a1.715,1.715,0,0,1,1.739,1.95l-.935,8.479a2.235,2.235,0,0,1-2.169,1.95" transform="translate(-763.911 -1112.303)" fill="#caddff"/>
        <path id="Trazado_1006111" data-name="Trazado 1006111" d="M994.194,1235.052l9.247,12.471-5.052-.086-9.213-12.385Z" transform="translate(-890.67 -1111.952)" fill="#fff"/>
        <path id="Trazado_1006112" data-name="Trazado 1006112" d="M932.9,1235.052l9.224,12.432a27.866,27.866,0,0,1-3.451-.047l-9.021-12.385Z" transform="translate(-837.099 -1111.952)" fill="#fff"/>
        <path id="Trazado_1006113" data-name="Trazado 1006113" d="M878.311,1245.176H847.1a2.045,2.045,0,0,1-2.068-2.317l.934-8.479a2.577,2.577,0,0,1,2.5-2.244h31.207a2.045,2.045,0,0,1,2.068,2.317l-.935,8.479a2.577,2.577,0,0,1-2.5,2.244M848.468,1232.8a1.9,1.9,0,0,0-1.84,1.655l-.934,8.479a1.384,1.384,0,0,0,1.41,1.583h31.207a1.9,1.9,0,0,0,1.84-1.655l.935-8.479a1.384,1.384,0,0,0-1.41-1.583Z" transform="translate(-760.934 -1109.327)"/>
        <path id="Trazado_1006114" data-name="Trazado 1006114" d="M1478.465,1671.319s1.372,6.269-.145,8.06l-.471.768,1.468.627a5.223,5.223,0,0,0,5.532-.909l.2-.182-.357-.792a25.174,25.174,0,0,1-1.621-7.273Z" transform="translate(-1330.463 -1504.582)" fill="#fff"/>
        <path id="Trazado_1006115" data-name="Trazado 1006115" d="M1478.386,1678.545a5.538,5.538,0,0,1-2.176-.444l-1.468-.627a.331.331,0,0,1-.152-.477l.471-.768a.347.347,0,0,1,.029-.041c1.158-1.367.447-6.076.074-7.775a.331.331,0,0,1,.344-.4l4.61.3a.331.331,0,0,1,.309.353,25.085,25.085,0,0,0,1.592,7.114l.357.792a.33.33,0,0,1-.081.382l-.2.182a5.556,5.556,0,0,1-3.707,1.411m-3.032-1.529,1.115.476a4.905,4.905,0,0,0,5.182-.851l.023-.02-.257-.571a27.4,27.4,0,0,1-1.655-7.1l-3.863-.25c.284,1.472,1.071,6.246-.286,7.9Z" transform="translate(-1327.486 -1501.606)"/>
        <path id="Trazado_1006116" data-name="Trazado 1006116" d="M1411.865,1727.695l-.827.734a13.5,13.5,0,0,1-5.758,3.023l-.407.1a.484.484,0,0,0-.338.3l-.028.077c-.317.852.442,2.976,3.534,4.051.8.279,2.95.071,6.141.068,1.384,0,2.811,0,3.637-.006a4.076,4.076,0,0,0,2.289-.679,2.527,2.527,0,0,0,1.15-2.76,23.03,23.03,0,0,0-1.967-5.031.369.369,0,0,0-.544-.1l-.614,1.506a2.394,2.394,0,0,1-2.538,1.509q-.1-.015-.205-.039a2.957,2.957,0,0,1-1.709-1.18l-1.074-1.486a.5.5,0,0,0-.74-.082" transform="translate(-1264.398 -1555.045)" fill="#fff"/>
        <path id="Trazado_1006117" data-name="Trazado 1006117" d="M1406.651,1733.478a5.546,5.546,0,0,1-5.241-2.965,2.249,2.249,0,0,1-.2-1.678l.029-.077a.813.813,0,0,1,.569-.507l.407-.1a13.223,13.223,0,0,0,5.617-2.949l.827-.734a.832.832,0,0,1,1.228.136l1.074,1.486a2.624,2.624,0,0,0,1.515,1.052c.061.014.122.026.182.035a2.074,2.074,0,0,0,2.181-1.307l.649-1.592.074-.055a.711.711,0,0,1,.565-.129.7.7,0,0,1,.461.33,23.128,23.128,0,0,1,2.006,5.133,2.844,2.844,0,0,1-1.288,3.1,4.389,4.389,0,0,1-2.474.736c-.827,0-2.254.005-3.638.006-1.078,0-2.028.025-2.866.046-.643.016-1.2.031-1.681.031m2.45-8.514-.826.734a13.887,13.887,0,0,1-5.9,3.1l-.407.1a.152.152,0,0,0-.106.1l-.029.077a1.625,1.625,0,0,0,.175,1.165,5.087,5.087,0,0,0,3.157,2.458,13.105,13.105,0,0,0,3.149.1c.842-.021,1.8-.046,2.883-.047,1.384,0,2.81,0,3.637-.006a3.73,3.73,0,0,0,2.1-.622,2.2,2.2,0,0,0,1.012-2.42,22.653,22.653,0,0,0-1.927-4.929.042.042,0,0,0-.009-.011l-.559,1.37a2.706,2.706,0,0,1-2.895,1.711c-.076-.012-.152-.026-.229-.044a3.285,3.285,0,0,1-1.9-1.309l-1.074-1.486a.17.17,0,0,0-.252-.029" transform="translate(-1261.414 -1552.068)"/>
        <path id="Trazado_1006118" data-name="Trazado 1006118" d="M1431.076,1784.223c-.107,0-.216,0-.327-.007-1.932-.083-4.795-.049-6.329-.021a4.8,4.8,0,0,1-2.8-.8,2.756,2.756,0,0,1-.661-.594.331.331,0,0,1,.527-.4,2.116,2.116,0,0,0,.5.445,4.154,4.154,0,0,0,2.421.691c1.542-.028,4.42-.062,6.369.021a5.036,5.036,0,0,0,3.831-1.248.331.331,0,0,1,.489.446,5.542,5.542,0,0,1-4.021,1.471" transform="translate(-1279.201 -1604.371)"/>
        <path id="Trazado_1006119" data-name="Trazado 1006119" d="M1689.188,1657.967s1.888,3.832,1.3,6.008l-.107.865,6.128-3.823-.677-.437a7.953,7.953,0,0,1-3.105-3.691Z" transform="translate(-1520.663 -1491.594)" fill="#fff"/>
        <path id="Trazado_1006120" data-name="Trazado 1006120" d="M1687.4,1662.193a.331.331,0,0,1-.328-.372l.107-.864a.373.373,0,0,1,.009-.046c.549-2.032-1.259-5.738-1.278-5.775a.331.331,0,0,1,.2-.463l3.539-1.079a.331.331,0,0,1,.411.214,7.543,7.543,0,0,0,2.974,3.517l.673.435a.331.331,0,0,1,0,.558l-6.128,3.823a.329.329,0,0,1-.175.05m.433-1.132-.019.153,5.1-3.18-.239-.154a8.564,8.564,0,0,1-3.129-3.562l-2.876.877c.457,1.015,1.662,3.967,1.165,5.866" transform="translate(-1517.687 -1488.617)"/>
        <path id="Trazado_1006121" data-name="Trazado 1006121" d="M1666.578,1682.094l-.112,1.057a13.053,13.053,0,0,1-2.1,5.848l-.892,1.344a.469.469,0,0,0-.044.433l.029.073c.323.807,2.22,1.808,5.087.546,1.774-.781,3.564-3.17,8.67-7.983a.751.751,0,0,0-.05-.984c-.837-1.026-2.929-3.4-4.8-3.976a.364.364,0,0,0-.468.277l-.4,2.07a1.694,1.694,0,0,1-1.995,1.347l-2.349-.475a.482.482,0,0,0-.574.425" transform="translate(-1497.449 -1510.984)" fill="#fff"/>
        <path id="Trazado_1006122" data-name="Trazado 1006122" d="M1662.994,1689.35a4.215,4.215,0,0,1-1.6-.291,2.139,2.139,0,0,1-1.223-1.063l-.029-.073a.8.8,0,0,1,.076-.739l.892-1.344a12.772,12.772,0,0,0,2.05-5.7l.111-1.057a.814.814,0,0,1,.969-.715l2.349.475a1.343,1.343,0,0,0,1.019-.2,1.368,1.368,0,0,0,.585-.884l.4-2.07a.694.694,0,0,1,.89-.53c1.96.6,4.12,3.056,4.957,4.083a1.07,1.07,0,0,1,.02,1.434c-1.867,1.76-3.289,3.194-4.431,4.347-2.032,2.05-3.151,3.179-4.332,3.7a6.717,6.717,0,0,1-2.707.628m.938-10.2-.111,1.057a13.438,13.438,0,0,1-2.156,6l-.892,1.344a.137.137,0,0,0-.013.127l.029.073a1.514,1.514,0,0,0,.859.7,4.8,4.8,0,0,0,3.787-.33c1.066-.469,2.154-1.567,4.129-3.559,1.146-1.156,2.572-2.6,4.447-4.362.114-.107.051-.375-.079-.534-.8-.981-2.851-3.32-4.639-3.869a.038.038,0,0,0-.032,0,.028.028,0,0,0-.014.021l-.4,2.07a2.026,2.026,0,0,1-.867,1.307,2,2,0,0,1-1.518.3l-2.349-.475a.148.148,0,0,0-.117.026.155.155,0,0,0-.062.11" transform="translate(-1494.473 -1508.01)"/>
        <path id="Trazado_1006123" data-name="Trazado 1006123" d="M1680.918,1726.183a.331.331,0,0,1-.048-.658l.48-.071a7.048,7.048,0,0,0,3.953-2l5.333-5.38a.331.331,0,0,1,.47.466l-5.333,5.38a7.714,7.714,0,0,1-4.326,2.191l-.48.071a.332.332,0,0,1-.049,0" transform="translate(-1512.923 -1546.57)"/>
        <path id="Trazado_1006124" data-name="Trazado 1006124" d="M1387.421,1027.5c-4.195,1.164-6.793,1.876-6.793,1.876s8.356,29.982,10.775,37.493c2.193,6.809,16.564,21.642,19.113,24.644a3.538,3.538,0,0,0,1.01.623,3.114,3.114,0,0,0,4.228-3.028l-.8-3.894c-3.03-12.358-8.824-18.475-11.279-31.377-3.705-19.472-6.475-23.869-7.094-25.348-1.918-4.582-9.163-.989-9.163-.989" transform="translate(-1242.967 -923.951)" fill="#5479f7"/>
        <path id="Trazado_1006125" data-name="Trazado 1006125" d="M1305.988,1045.1a139.793,139.793,0,0,0,.379,24.642c1.877,15.085,14.348,36.307,16.647,40.616a1.9,1.9,0,0,0,1.454,1,4.7,4.7,0,0,0,3.327-.7,1.98,1.98,0,0,0,1.043-1.747,92.176,92.176,0,0,0-6.1-35.493c-1.26-3.109-2.638-20.8-2.467-27.174Z" transform="translate(-1175.445 -940.997)" fill="#5479f7"/>
        <path id="Trazado_1006126" data-name="Trazado 1006126" d="M1465.666,1218.122a.331.331,0,0,1-.325-.271c-1.469-7.914-2.7-12.813-4.114-16.38a44.254,44.254,0,0,1-3.156-15.758l-.036-2.63a.331.331,0,0,1,.326-.335.328.328,0,0,1,.335.326l.036,2.63a43.586,43.586,0,0,0,3.109,15.523c1.432,3.609,2.673,8.545,4.15,16.5a.331.331,0,0,1-.265.385.323.323,0,0,1-.061.006" transform="translate(-1312.631 -1064.879)" fill="#caddff"/>
        <path id="Trazado_1006127" data-name="Trazado 1006127" d="M1105.386,674.86a8.1,8.1,0,0,1-.553-1.262.979.979,0,0,1-.091-.536c.109-.948.5-3.272-.157-4.168a2.01,2.01,0,0,0-2.615-.653s-.693-1.4-1.58-.871a2.706,2.706,0,0,0-1.228,2.664c.159,1.874.477,3.665,2.466,4.736a1.918,1.918,0,0,1,.864.945Z" transform="translate(-989.641 -600.944)" fill="#fff"/>
        <path id="Trazado_1006128" data-name="Trazado 1006128" d="M1099.511,673.073a.331.331,0,0,1-.305-.2,1.6,1.6,0,0,0-.715-.782c-2.142-1.153-2.479-3.1-2.64-5a3.015,3.015,0,0,1,1.389-2.976,1.086,1.086,0,0,1,.88-.12,2.012,2.012,0,0,1,1,.852,2.312,2.312,0,0,1,2.746.88c.665.9.414,2.868.264,4.042-.017.134-.033.256-.045.36a.662.662,0,0,0,.052.339.33.33,0,0,1,.028.069,8.03,8.03,0,0,0,.529,1.2.331.331,0,0,1-.2.468l-2.895.854a.329.329,0,0,1-.094.014m-1.7-8.463a.459.459,0,0,0-.237.072,2.365,2.365,0,0,0-1.068,2.351c.152,1.788.441,3.476,2.294,4.473a2.27,2.27,0,0,1,.878.841l2.252-.665a6.881,6.881,0,0,1-.391-.936,1.33,1.33,0,0,1-.11-.694c.012-.107.028-.231.046-.368.119-.934.367-2.877-.141-3.566a1.664,1.664,0,0,0-2.187-.56.331.331,0,0,1-.458-.141c-.092-.184-.409-.685-.761-.788a.42.42,0,0,0-.118-.018" transform="translate(-986.66 -597.972)"/>
        <path id="Trazado_1006129" data-name="Trazado 1006129" d="M1034.314,626.828l2.606-3.217-1.616-1.187a.7.7,0,0,0-.3-.127l-.2-.032a.7.7,0,0,1-.543-.447.7.7,0,0,0-.241-.32l-12-8.834a1.4,1.4,0,0,0-.322-.177l-3.509-1.366,2,3.02a2.287,2.287,0,0,0,.386.446l11.1,9.889a.7.7,0,0,0,.335.165l.031.006a.7.7,0,0,1,.523.439l.043.114a.694.694,0,0,0,.188.274Z" transform="translate(-916.781 -550.428)" fill="#fff"/>
        <path id="Trazado_1006130" data-name="Trazado 1006130" d="M1031.337,624.182a.331.331,0,0,1-.22-.084l-1.521-1.355a1.026,1.026,0,0,1-.278-.4l-.043-.114a.368.368,0,0,0-.275-.23l-.03-.006a1.031,1.031,0,0,1-.494-.243l-11.1-9.889a2.618,2.618,0,0,1-.442-.51l-2-3.019a.331.331,0,0,1,.4-.491l3.509,1.365a1.726,1.726,0,0,1,.4.219l12,8.833a1.024,1.024,0,0,1,.356.473.366.366,0,0,0,.285.235l.2.032a1.034,1.034,0,0,1,.444.187l1.616,1.187a.331.331,0,0,1,.061.475l-2.606,3.217a.33.33,0,0,1-.23.122h-.027m-15.274-15.352,1.422,2.152a1.951,1.951,0,0,0,.33.381l11.1,9.889a.369.369,0,0,0,.177.087l.031.006a1.034,1.034,0,0,1,.772.648l.043.115a.363.363,0,0,0,.1.143l1.262,1.124,2.169-2.679-1.336-.982a.369.369,0,0,0-.158-.067l-.2-.032a1.029,1.029,0,0,1-.8-.66.362.362,0,0,0-.126-.168l-12-8.834a1.06,1.06,0,0,0-.245-.135Z" transform="translate(-913.804 -547.451)"/>
        <path id="Trazado_1006131" data-name="Trazado 1006131" d="M1044.944,624.046a.331.331,0,0,1-.251-.547l.7-.808a.331.331,0,1,1,.5.432l-.7.808a.33.33,0,0,1-.251.115" transform="translate(-940.561 -560.738)"/>
        <path id="Trazado_1006132" data-name="Trazado 1006132" d="M1184.48,737.6l-2.74-2.152-2.581,3.266,2.74,2.152a1.147,1.147,0,0,0,1.609-.173l1.18-1.494a1.138,1.138,0,0,0-.208-1.6" transform="translate(-1061.649 -662.321)" fill="#99b9ff"/>
        <path id="Trazado_1006133" data-name="Trazado 1006133" d="M1178.436,737.277a1.5,1.5,0,0,1-.928-.322l-3-2.357,2.992-3.785,3,2.355a1.486,1.486,0,0,1,.563,1,1.435,1.435,0,0,1-.3,1.067l-1.18,1.494a1.454,1.454,0,0,1-1.146.549m-3-2.789,2.479,1.947a.817.817,0,0,0,1.146-.117l1.18-1.494a.778.778,0,0,0,.162-.579.829.829,0,0,0-.315-.556l-2.481-1.948Z" transform="translate(-1057.462 -658.148)"/>
        <path id="Trazado_1006134" data-name="Trazado 1006134" d="M1197.073,764.723a.33.33,0,0,1-.2-.067l-1.521-1.149a.331.331,0,1,1,.4-.528l1.521,1.149a.331.331,0,0,1-.2.595" transform="translate(-1076.105 -687.036)" fill="#fff"/>
        <path id="Trazado_1006135" data-name="Trazado 1006135" d="M1103.585,673.214a7.087,7.087,0,0,0-1.717-3.338c-.819-.8-1.582-4.27-3.141-2.6a2.633,2.633,0,0,0-.755,1.158,5.307,5.307,0,0,0-.205,1.49c.159,1.876.625,3.4,2.619,4.469a1.907,1.907,0,0,1,.858.941c.109.259,2.417,16.228,5.739,18.174,3.776,2.212,10.349-6.208,10.349-6.208l-5.709-6.006a38.534,38.534,0,0,1-3.01,3.438c-.289.12-5.027-11.515-5.027-11.515" transform="translate(-988.393 -600.561)" fill="#fff"/>
        <path id="Trazado_1006136" data-name="Trazado 1006136" d="M1105.414,691.225a3.052,3.052,0,0,1-1.571-.414c-2.011-1.178-3.946-7.1-5.751-17.6-.062-.359-.115-.672-.134-.753a1.583,1.583,0,0,0-.7-.76c-2.079-1.116-2.62-2.7-2.793-4.732a5.614,5.614,0,0,1,.22-1.62,2.784,2.784,0,0,1,.762-1.212l.067-.071a1.377,1.377,0,0,1,1.19-.541c.789.112,1.282,1.086,1.759,2.027a5.138,5.138,0,0,0,.664,1.108,7.329,7.329,0,0,1,1.8,3.479c1.558,3.825,4.069,9.831,4.771,11.134.483-.489,1.657-1.882,2.69-3.168l.237-.3,6.167,6.487-.175.225c-.242.31-5.284,6.7-9.206,6.7m-8.852-27.048a.868.868,0,0,0-.566.342l-.068.072a2.163,2.163,0,0,0-.614.961,5.027,5.027,0,0,0-.191,1.361c.159,1.871.623,3.227,2.447,4.205a2.246,2.246,0,0,1,1.006,1.1,6.2,6.2,0,0,1,.168.879c2.206,12.826,4.172,16.4,5.433,17.138,3.157,1.85,8.682-4.609,9.743-5.9l-5.249-5.522a23.76,23.76,0,0,1-2.9,3.241l-.127.053-.14-.054c-.19-.079-.37-.154-2.832-5.995-1.192-2.827-2.35-5.671-2.362-5.7l-.019-.064a6.8,6.8,0,0,0-1.623-3.162,5.255,5.255,0,0,1-.791-1.283c-.363-.716-.815-1.607-1.263-1.671a.349.349,0,0,0-.047,0" transform="translate(-985.42 -597.582)"/>
        <path id="Trazado_1006137" data-name="Trazado 1006137" d="M1576.2,880.7c.108.3-.163.9-.124,1.154.14.91,1.493,2.187,2.488,3.017a3.509,3.509,0,0,1,1.261,2.678c0,.244-.011.51-.026.8a1.191,1.191,0,0,0,.461,1.181.91.91,0,0,0,1.354-.716c.154-1.437.41-4.416.007-5.466a7.976,7.976,0,0,0-1.917-2.334,3.839,3.839,0,0,1-1.216-2.836c.016-3.72-2.048-14.583-4.471-22.208l-6.058,3.366s4.261,10.074,8.239,21.365" transform="translate(-1411.558 -770.783)" fill="#fff"/>
        <path id="Trazado_1006138" data-name="Trazado 1006138" d="M1577.721,887.007a1.164,1.164,0,0,1-.616-.176,1.5,1.5,0,0,1-.617-1.479c.014-.274.026-.541.025-.779a3.165,3.165,0,0,0-1.142-2.425c-1.6-1.339-2.48-2.422-2.6-3.221a1.629,1.629,0,0,1,.07-.582,1.6,1.6,0,0,0,.069-.513c-3.929-11.151-8.189-21.246-8.232-21.346a.331.331,0,0,1,.144-.418l6.058-3.366a.331.331,0,0,1,.476.189c2.5,7.881,4.5,18.649,4.486,22.309a3.516,3.516,0,0,0,1.11,2.592,7.825,7.825,0,0,1,2,2.458c.419,1.094.188,3.99.013,5.619a1.273,1.273,0,0,1-.712,1.014,1.205,1.205,0,0,1-.529.124m-4.19-9.394a1.66,1.66,0,0,1-.049.882,1.885,1.885,0,0,0-.06.334c.093.606.958,1.631,2.373,2.812a3.825,3.825,0,0,1,1.38,2.931c0,.255-.012.531-.026.814-.022.446.08.744.305.884a.515.515,0,0,0,.507.02.616.616,0,0,0,.344-.49,16.251,16.251,0,0,0,.027-5.312,7.421,7.421,0,0,0-1.833-2.21,4.178,4.178,0,0,1-1.321-3.08c.015-3.554-1.9-13.933-4.334-21.72L1565.4,856.5c.708,1.692,4.557,10.964,8.131,21.11" transform="translate(-1408.581 -767.808)"/>
        <path id="Trazado_1006139" data-name="Trazado 1006139" d="M1240.425,695.737c-6.392-2.054-17.328-1.019-20.646,1.434-4.31,3.186-8.38,8.339-9.977,10.473a1.955,1.955,0,0,0-.179,2.051c1.435,2.85,4.622,9.888,6.434,8.561s4.1-3.81,3.966-2.506c-.344,3.458-.932,15.008-.932,15.008s1.9.654,1.98,2.207l.194,4.206a.689.689,0,0,0,1,.552c3.487-1.814,17.292-3.551,22.439-6.369a1.65,1.65,0,0,0,.831-1.729c-.6-3.51-4.095-10.925-2.683-15.387.146-.46,1.246,1.445,2.577,2.579a.582.582,0,0,0,.743.018l6.092-4.856a1.569,1.569,0,0,0,.476-1.809c-1.265-3.165-5.418-12.213-12.317-14.43" transform="translate(-1088.877 -625.594)" fill="#fff"/>
        <path id="Trazado_1006140" data-name="Trazado 1006140" d="M1218.953,735.085a1.013,1.013,0,0,1-.484-.123,1.026,1.026,0,0,1-.531-.805l-.2-4.222c-.069-1.306-1.741-1.9-1.758-1.91a.332.332,0,0,1-.222-.329c.006-.115.587-11.483.928-14.971a14.1,14.1,0,0,0-1.716,1.347c-.571.49-1.161,1-1.72,1.406a1.156,1.156,0,0,1-.987.191c-1.644-.4-3.595-4.119-5.452-7.89-.178-.361-.341-.692-.486-.98a2.273,2.273,0,0,1,.209-2.4c1.569-2.1,5.688-7.319,10.045-10.541,3.31-2.447,14.27-3.628,20.944-1.483,6.916,2.223,11.061,10.966,12.523,14.622a1.912,1.912,0,0,1-.578,2.191l-6.091,4.856a.916.916,0,0,1-1.164-.024,14.174,14.174,0,0,1-1.683-1.818c-.152-.186-.326-.4-.465-.554-.754,3.036.6,7.369,1.695,10.877a35.042,35.042,0,0,1,1.1,4,1.982,1.982,0,0,1-1,2.076c-2.921,1.6-8.557,2.848-13.531,3.95-3.814.845-7.417,1.643-8.915,2.422a1.015,1.015,0,0,1-.468.115m-2.517-7.591a3.051,3.051,0,0,1,1.968,2.408l.194,4.208a.356.356,0,0,0,.187.271.348.348,0,0,0,.331,0c1.575-.819,5.052-1.59,9.077-2.482,4.93-1.092,10.518-2.331,13.356-3.884a1.32,1.32,0,0,0,.663-1.383,34.751,34.751,0,0,0-1.079-3.911c-1.167-3.737-2.62-8.388-1.593-11.633a.411.411,0,0,1,.315-.294c.331-.063.583.244,1.192.988a13.676,13.676,0,0,0,1.6,1.733.251.251,0,0,0,.322.01l6.091-4.856a1.246,1.246,0,0,0,.376-1.428c-1.113-2.785-5.276-12.041-12.111-14.238-6.388-2.053-17.224-.925-20.348,1.385-4.287,3.169-8.358,8.332-9.909,10.405a1.615,1.615,0,0,0-.148,1.7c.146.29.31.622.488.985,1.235,2.508,3.534,7.176,5.016,7.54a.489.489,0,0,0,.439-.082c.538-.394,1.119-.892,1.68-1.374,1.422-1.221,2.07-1.751,2.539-1.506.147.076.313.255.272.673-.312,3.138-.833,13.1-.919,14.757" transform="translate(-1085.88 -622.549)"/>
        <path id="Trazado_1006141" data-name="Trazado 1006141" d="M1324.095,579.4c-.542.186-.793,1.311-.879,1.882-.282,1.88.691,6.292,2.042,6.58,1.331.284,1.218-.322,2.232.246.81.454.916,1.284,1.284,3.078.023.114-2.305.776-2.346.885-.093.247,1.346,3.291,5.828,2.722,4.247-.54,4.837-3.443,4.854-3.646.01-.122-3.205-.347-3.262-.464a23.027,23.027,0,0,1-1.3-4.216s-2.758-9.021-8.457-7.068" transform="translate(-1191.253 -521.627)" fill="#fff"/>
        <path id="Trazado_1006142" data-name="Trazado 1006142" d="M1328.263,592.215a5.565,5.565,0,0,1-4.533-1.962c-.07-.089-.683-.881-.534-1.277.073-.195.161-.228,1.3-.6.312-.1.743-.246.984-.339l-.034-.167c-.316-1.564-.455-2.122-1.039-2.449a.994.994,0,0,0-.85-.18,2.947,2.947,0,0,1-1.29-.031c-1.7-.363-2.563-5.2-2.3-6.952.1-.7.386-1.9,1.1-2.146a4.814,4.814,0,0,1,3.881.245c3.335,1.7,4.933,6.822,5,7.039l.008.03a23.693,23.693,0,0,0,1.21,4.01c.26.047.9.115,1.392.167.418.044.839.089,1.155.131.5.066.835.11.807.465,0,.034-.476,3.355-5.142,3.948a8.821,8.821,0,0,1-1.112.073m-4.377-2.937c.292.675,1.76,2.67,5.406,2.208,3.371-.428,4.277-2.36,4.5-3.078-.323-.047-.873-.106-1.306-.152-1.684-.179-1.754-.194-1.858-.409a22.839,22.839,0,0,1-1.319-4.276c-.093-.292-1.658-5.1-4.664-6.63a4.174,4.174,0,0,0-3.365-.208c-.254.087-.531.768-.659,1.618-.284,1.895.751,5.987,1.784,6.207a2.3,2.3,0,0,0,1.035.027,1.627,1.627,0,0,1,1.29.254c.879.492,1.051,1.346,1.364,2.9l.082.4c.072.349-.1.407-1.474.859-.268.089-.6.2-.816.278m1.641-1.005h0Z" transform="translate(-1188.331 -518.652)"/>
        <path id="Trazado_1006143" data-name="Trazado 1006143" d="M1347.654,585.312a.331.331,0,0,1-.045-.658c.56-.077,1-1.041,1.045-1.857.025-.462-.071-.987-.416-1.074-.416-.1-.938.611-1.127.973a.331.331,0,1,1-.586-.306c.084-.161.851-1.564,1.874-1.308.625.157.967.811.916,1.752-.061,1.117-.682,2.348-1.615,2.477a.327.327,0,0,1-.046,0" transform="translate(-1212.24 -523.365)"/>
        <path id="Trazado_1006144" data-name="Trazado 1006144" d="M1311.457,506.645c-.24,1.319,1.084,1.621,2.134,2.443a7.118,7.118,0,0,0,1.531,1.073c.324.167.45-1.092,1.331-1.268.657-.131.822.425.965.585.575.645-5.3,13.558-2.318,21.451,1.9,5.035,6.793,7.27,17.662,6.267,9.1-.839,11.5-10.054,9.892-13.435-4.182-8.773-12.919-.719-14.977-13.8-1.442-9.169-10.013-13.253-15.251-5.811a6.316,6.316,0,0,0-.969,2.495" transform="translate(-1180.688 -450.686)"/>
        <path id="Trazado_1006145" data-name="Trazado 1006145" d="M80.887,186.345a.331.331,0,0,1-.27-.521A78.74,78.74,0,0,1,108.2,161.678a.331.331,0,0,1,.309.585A78.075,78.075,0,0,0,81.158,186.2a.33.33,0,0,1-.271.141" transform="translate(-72.933 -145.905)"/>
        <path id="Trazado_1006146" data-name="Trazado 1006146" d="M94.745,114.309a.331.331,0,0,1-.261-.533,82.589,82.589,0,0,1,30.08-23.949.331.331,0,1,1,.282.6,81.928,81.928,0,0,0-29.839,23.755.33.33,0,0,1-.262.128" transform="translate(-85.405 -81.247)"/>
        <path id="Trazado_1006147" data-name="Trazado 1006147" d="M69.559,273.149a1.861,1.861,0,0,1-.344-.032,1.833,1.833,0,1,1,.344.032m-.007-3.027a1.184,1.184,0,1,0,.221.021,1.2,1.2,0,0,0-.221-.021m-1.484.9h0Z" transform="translate(-61.372 -242.942)"/>
        <path id="Trazado_1006148" data-name="Trazado 1006148" d="M111.255,218.714a.322.322,0,0,1-.059-.005.331.331,0,0,1-.255-.223l-1.509-4.628a.331.331,0,0,1,.406-.42l4.751,1.371a.331.331,0,0,1,.106.583,22.026,22.026,0,0,0-3.181,3.2.331.331,0,0,1-.258.124m-1-4.468,1.13,3.466a22.789,22.789,0,0,1,2.406-2.446Z" transform="translate(-98.905 -192.511)"/>
      </g>
    </g>
  </g>
</svg>
