<svg xmlns="http://www.w3.org/2000/svg" width="128" height="128" viewBox="0 0 128 128">
  <g id="Grupo_1182504" data-name="Grupo 1182504" transform="translate(-72.746 -7992)">
    <g id="Elipse_13628" data-name="Elipse 13628" transform="translate(72.746 7992)" fill="#fdf3e6" stroke="#ff984a" stroke-width="6">
      <circle cx="64" cy="64" r="64" stroke="none"/>
      <circle cx="64" cy="64" r="61" fill="none"/>
    </g>
    <g id="Grupo_1183335" data-name="Grupo 1183335" transform="translate(99.109 8018.354)">
      <path id="Trazado_1008904" data-name="Trazado 1008904" d="M169.538,76h5.445v29.3h-5.445Z" transform="translate(-143.445 -62.389)" fill="#4eb1fc"/>
      <path id="Trazado_1008905" data-name="Trazado 1008905" d="M98.114,180.326h5.445V195.7H98.114Z" transform="translate(-81.557 -152.784)" fill="#fdc72e"/>
      <path id="Trazado_1008906" data-name="Trazado 1008906" d="M240.962,110.5h5.445v24.691h-5.445Z" transform="translate(-205.333 -92.283)" fill="#ff8748"/>
      <path id="Trazado_1008907" data-name="Trazado 1008907" d="M312.385,37h5.445v34.5h-5.445Z" transform="translate(-267.22 -28.596)" fill="#a8e304"/>
      <path id="Trazado_1008908" data-name="Trazado 1008908" d="M26.69,229.313h5.445v8.829H26.69Z" transform="translate(-19.668 -195.23)" fill="#fb545c"/>
      <circle id="Elipse_16096" data-name="Elipse 16096" cx="8.451" cy="8.451" r="8.451" transform="translate(4.899 4.936)" fill="#e8333c"/>
      <path id="Trazado_1008909" data-name="Trazado 1008909" d="M18.214,28.247a8.452,8.452,0,0,1,0-16.778,8.452,8.452,0,0,1,0,16.778Z" transform="translate(-5.89 -6.471)" fill="#fb545c" fill-rule="evenodd"/>
      <path id="Trazado_1008910" data-name="Trazado 1008910" d="M52.881,229.313h1.948v8.829H52.881Z" transform="translate(-42.363 -195.23)" fill="#e8333c"/>
      <path id="Trazado_1008911" data-name="Trazado 1008911" d="M124.305,180.326h1.948V195.7h-1.948Z" transform="translate(-104.251 -152.784)" fill="#f9ac00"/>
      <path id="Trazado_1008912" data-name="Trazado 1008912" d="M195.73,76h1.948v29.3H195.73Z" transform="translate(-166.14 -62.389)" fill="#2a92fa"/>
      <path id="Trazado_1008913" data-name="Trazado 1008913" d="M267.154,110.5H269.1v24.691h-1.948Z" transform="translate(-228.028 -92.283)" fill="#f2671f"/>
      <path id="Trazado_1008914" data-name="Trazado 1008914" d="M338.578,37h1.948v34.5h-1.948Z" transform="translate(-289.916 -28.596)" fill="#8bbd00"/>
      <g id="Grupo_1183334" data-name="Grupo 1183334" transform="translate(28.084 28.121)">
        <path id="Trazado_1008915" data-name="Trazado 1008915" d="M199.675,184.662a15.23,15.23,0,0,1,13.1,23,2.583,2.583,0,0,0,.4,3.179l2.719,2.72-2.541,2.541-2.719-2.719a2.583,2.583,0,0,0-3.179-.4,15.227,15.227,0,1,1-7.773-28.322Z" transform="translate(-184.448 -184.662)" fill="#fdb0a0" fill-rule="evenodd"/>
        <path id="Trazado_1008916" data-name="Trazado 1008916" d="M214.836,218.51l-1.49,1.49-2.719-2.719a2.583,2.583,0,0,0-3.179-.4,15.407,15.407,0,1,1-9.275-27.722c11.888,0,19.228,12.17,12.668,22.571a2.583,2.583,0,0,0,.4,3.179l3.6,3.6Z" transform="translate(-184.448 -188.56)" fill="#ffcec0" fill-rule="evenodd"/>
        <path id="Trazado_1008917" data-name="Trazado 1008917" d="M403.3,398.886l-8.825-8.825a1.583,1.583,0,0,0-2.234,0l-2.4,2.4a1.583,1.583,0,0,0,0,2.235l8.825,8.825a3.275,3.275,0,0,0,4.632-4.632Z" transform="translate(-362.024 -362.238)" fill="#a34f41" fill-rule="evenodd"/>
        <path id="Trazado_1008918" data-name="Trazado 1008918" d="M391.781,396.516l-1.935,1.935a1.583,1.583,0,0,0,0,2.235l8.825,8.825a2.343,2.343,0,1,0,3.559-2.55l-10.377-10.377C391.829,396.56,391.805,396.538,391.781,396.516Z" transform="translate(-362.023 -368.231)" fill="#c86f5c" fill-rule="evenodd"/>
      </g>
      <circle id="Elipse_16097" data-name="Elipse 16097" cx="11.633" cy="11.633" r="11.633" transform="translate(25.514 43.355) rotate(-45)" fill="#fdb0a0"/>
      <circle id="Elipse_16098" data-name="Elipse 16098" cx="11.633" cy="11.633" r="11.633" transform="translate(26.853 43.348) rotate(-45)" fill="#f3f3ff"/>
      <path id="Trazado_1008919" data-name="Trazado 1008919" d="M44.263,49.789v.338a.934.934,0,1,1-1.869,0v-.338a.934.934,0,1,1,1.869,0Zm2.493-12.7a4.376,4.376,0,0,1,.773,4.512,7.377,7.377,0,0,1-1.683,2.276c-.207.216-.4.42-.569.611a3.5,3.5,0,0,0-1.013,2.489.934.934,0,0,1-1.869,0,5.4,5.4,0,0,1,1.471-3.715c.2-.227.418-.457.633-.68a6.156,6.156,0,0,0,1.287-1.653,2.531,2.531,0,0,0-.406-2.575,2.766,2.766,0,0,0-2.044-.853A2.665,2.665,0,0,0,40.7,39.811a.934.934,0,1,1-1.853-.245,4.539,4.539,0,0,1,4.487-3.933,4.633,4.633,0,0,1,3.42,1.458ZM68.729,68.74a2.35,2.35,0,0,1-3.31,0l-8.825-8.825a.651.651,0,0,1,0-.912l2.4-2.4a.644.644,0,0,1,.912,0l8.825,8.825a2.342,2.342,0,0,1,0,3.31Zm-18.1-13.1a3.5,3.5,0,0,1,4.317.54l.911.911,1.221-1.219-.913-.911a3.5,3.5,0,0,1-.539-4.319,14.283,14.283,0,1,0-5,5ZM27.055,14.548H30.63V33.373a16.076,16.076,0,0,0-3.4,8.6h-.18Zm9.535,4.606h3.575V27.5a16.019,16.019,0,0,0-3.575,1.165Zm9.537-9.812H49.7V28.494a16.053,16.053,0,0,0-3.575-1.066V9.342ZM70.051,64.108l-8.825-8.825a2.517,2.517,0,0,0-2.664-.573l-1.071-1.071a1.654,1.654,0,0,1-.255-2.041,16.16,16.16,0,0,0-5.665-22.151V8.407a.935.935,0,0,0-.934-.935H45.193a.934.934,0,0,0-.935.935V27.213c-.306-.017-.611-.026-.92-.026q-.659,0-1.3.052V18.22a.934.934,0,0,0-.934-.934H35.656a.935.935,0,0,0-.934.934V29.681A16.236,16.236,0,0,0,32.5,31.37V13.614a.935.935,0,0,0-.935-.935H26.12a.935.935,0,0,0-.935.935v29.3a.934.934,0,0,0,.935.934h1.064a16.164,16.164,0,0,0,24.4,13.4,1.655,1.655,0,0,1,2.041.255L54.7,58.573a2.516,2.516,0,0,0,.573,2.664L64.1,70.062a4.21,4.21,0,1,0,5.953-5.954ZM43.338,54.045a10.7,10.7,0,1,0-10.7-10.7A10.71,10.71,0,0,0,43.338,54.045Zm0-23.265A12.567,12.567,0,1,0,55.906,43.348,12.581,12.581,0,0,0,43.338,30.78ZM14.3,18.221v.238a.934.934,0,1,1-1.869,0v-.238a.934.934,0,0,1,1.869,0ZM9.948,10.384a3.468,3.468,0,0,1,3.427-3,3.536,3.536,0,0,1,2.608,1.115,3.352,3.352,0,0,1,.6,3.456,5.37,5.37,0,0,1-1.24,1.691c-.144.149-.279.29-.391.419a2.189,2.189,0,0,0-.644,1.566.934.934,0,0,1-1.869,0,4.052,4.052,0,0,1,1.1-2.792c.143-.164.3-.329.454-.488a4.166,4.166,0,0,0,.846-1.068,1.494,1.494,0,0,0-.231-1.52,1.684,1.684,0,0,0-1.23-.509,1.593,1.593,0,0,0-1.574,1.38.935.935,0,0,1-1.853-.245ZM13.377,5.87a7.517,7.517,0,1,0,7.517,7.516A7.525,7.525,0,0,0,13.377,5.87Zm0,16.9a9.386,9.386,0,1,0-9.386-9.386A9.4,9.4,0,0,0,13.377,22.773Zm-1.819,19.2H7.983V35.017h3.575Zm.935-8.829H7.048a.934.934,0,0,0-.934.935v8.829a.934.934,0,0,0,.934.934h5.445a.934.934,0,0,0,.934-.934V34.083a.935.935,0,0,0-.934-.935Zm8.6,8.829H17.519v-13.5H21.1Zm.934-15.369H16.584a.935.935,0,0,0-.934.934V42.911a.935.935,0,0,0,.934.934H22.03a.935.935,0,0,0,.934-.934V27.542A.935.935,0,0,0,22.03,26.607Z" fill-rule="evenodd"/>
    </g>
  </g>
</svg>
