<svg xmlns="http://www.w3.org/2000/svg" width="128" height="128" viewBox="0 0 128 128">
  <g id="Grupo_1182430" data-name="Grupo 1182430" transform="translate(-72.746 -7992)">
    <g id="Elipse_13628" data-name="Elipse 13628" transform="translate(72.746 7992)" fill="#fdf3e6" stroke="#ff984a" stroke-width="6">
      <circle cx="64" cy="64" r="64" stroke="none"/>
      <circle cx="64" cy="64" r="61" fill="none"/>
    </g>
    <g id="Layer_32" transform="translate(100.082 8022.242)">
      <path id="Trazado_1008332" data-name="Trazado 1008332" d="M99.693,2.5H81.684A4.39,4.39,0,0,0,77.3,6.884v7.685a4.39,4.39,0,0,0,4.384,4.384h4.648a1.619,1.619,0,0,1,1.347.713l2.614,3.987a.463.463,0,0,0,.634.132.318.318,0,0,0,.132-.132l2.614-3.987a1.585,1.585,0,0,1,1.347-.713h4.648a4.39,4.39,0,0,0,4.384-4.384V6.884A4.35,4.35,0,0,0,99.693,2.5Z" transform="translate(-54.023 -1.877)" fill="#6dcc6d"/>
      <path id="Trazado_1008333" data-name="Trazado 1008333" d="M189.346,32.7H176.2a2.952,2.952,0,0,0-1.69.5v3.591a4.371,4.371,0,0,1-1.505,3.3V41.52a3.229,3.229,0,0,0,3.2,3.222H179.6a1.19,1.19,0,0,1,.977.528l1.928,2.9a.37.37,0,0,0,.475.106c.026-.026.079-.053.106-.106l1.928-2.9a1.19,1.19,0,0,1,.977-.528H189.4a3.2,3.2,0,0,0,3.2-3.222v-5.6A3.311,3.311,0,0,0,189.346,32.7Z" transform="translate(-124.452 -24.102)" fill="#ffcd29"/>
      <path id="Trazado_1008334" data-name="Trazado 1008334" d="M27.036,36.793V33.2a3.166,3.166,0,0,0-1.69-.5H12.2A3.229,3.229,0,0,0,9,35.922v5.625a3.229,3.229,0,0,0,3.2,3.222H15.6a1.19,1.19,0,0,1,.977.528l1.928,2.9a.37.37,0,0,0,.475.106c.026-.026.079-.053.106-.106l1.928-2.9a1.19,1.19,0,0,1,.977-.528H25.4a3.235,3.235,0,0,0,3.222-3.222V40.12A4.281,4.281,0,0,1,27.036,36.793Z" transform="translate(-3.76 -24.102)" fill="#55acd5"/>
      <path id="Trazado_1008335" data-name="Trazado 1008335" d="M109.068,93.168a3.66,3.66,0,0,0-1.875.528,3.706,3.706,0,0,0-3.116-1.8H102.2a6.621,6.621,0,0,0-6.6,6.6v2.958a2.659,2.659,0,0,1,2.06-.555v-.317a.35.35,0,0,1,.343-.343h.079A6.905,6.905,0,0,0,105,97.974a.316.316,0,0,1,.475-.053l.026.026a6.61,6.61,0,0,0,4.595,1.664.327.327,0,0,1,.317.343v.951a2.679,2.679,0,0,1,2.271.713V96.812A3.629,3.629,0,0,0,109.068,93.168Z" transform="translate(-67.491 -67.669)" fill="#6d6c6b"/>
      <path id="Trazado_1008336" data-name="Trazado 1008336" d="M25.477,104.8a7.1,7.1,0,0,0-7.077,7.077v4.885a6.969,6.969,0,0,0,.634,2.931A1.8,1.8,0,0,0,20.7,120.75h2.72v-.528a4.935,4.935,0,0,1-2.72-4.489v-2.218a.586.586,0,0,1,.581-.581h.185a4.845,4.845,0,0,0,3.8-1.822.584.584,0,0,1,.819-.079l.079.079a4.845,4.845,0,0,0,3.8,1.822h0a.564.564,0,0,1,.581.555h0v2.324a4.969,4.969,0,0,1-2.588,4.331v.607H30.23a1.843,1.843,0,0,0,1.664-1.056,6.666,6.666,0,0,0,.634-2.931v-4.885A7.072,7.072,0,0,0,25.477,104.8Z" transform="translate(-10.677 -77.162)" fill="#898989"/>
      <path id="Trazado_1008337" data-name="Trazado 1008337" d="M190.866,101.5A6.666,6.666,0,0,0,184,107.917v2.192a2.262,2.262,0,0,1,1.162-.317,1.506,1.506,0,0,1,.343.026v-.132s1.479-.819,1.479-2.086v-.026a1.031,1.031,0,0,1,1.03-1.03.731.731,0,0,1,.238.026,12.215,12.215,0,0,0,5.176,0,1.054,1.054,0,0,1,1.268.739.731.731,0,0,1,.026.238v.026c0,1.241,1.479,2.086,1.479,2.086v.132a1.506,1.506,0,0,1,.343-.026,2.262,2.262,0,0,1,1.162.317v-2.192A6.639,6.639,0,0,0,190.866,101.5Z" transform="translate(-132.547 -74.733)" fill="#e9e9ea"/>
      <path id="Trazado_1008338" data-name="Trazado 1008338" d="M39.592,163.607h0a4.875,4.875,0,0,1-2.192-.528V164.9l.766,2.218a.318.318,0,0,0,.317.211h2.377a.343.343,0,0,0,.317-.211l.766-2.218V163A4.868,4.868,0,0,1,39.592,163.607Z" transform="translate(-24.66 -119.993)" fill="#f9d0b4"/>
      <path id="Trazado_1008339" data-name="Trazado 1008339" d="M230.57,132.945a1.744,1.744,0,0,0-.37.026c0,.106.026.211.026.343v3.459a1.506,1.506,0,0,1-.026.343,1.623,1.623,0,0,0,.37.026,2.1,2.1,0,0,0,.29-4.2.542.542,0,0,0-.29,0Z" transform="translate(-166.547 -97.86)" fill="#f9d0b4"/>
      <path id="Trazado_1008340" data-name="Trazado 1008340" d="M182.474,133.256a1.506,1.506,0,0,1,.026-.343,1.624,1.624,0,0,0-.37-.026,2.1,2.1,0,1,0-.29,4.2h.29a1.744,1.744,0,0,0,.37-.026c0-.106-.026-.211-.026-.343Z" transform="translate(-129.516 -97.828)" fill="#f9d0b4"/>
      <path id="Trazado_1008341" data-name="Trazado 1008341" d="M199.016,121.747v-.026a1.031,1.031,0,0,0-1.03-1.03.731.731,0,0,0-.238.026,12.216,12.216,0,0,1-5.176,0,1.054,1.054,0,0,0-1.268.739.731.731,0,0,0-.026.238v.026c0,1.241-1.479,2.086-1.479,2.086v3.829a5.369,5.369,0,0,0,10.721.106v-3.935A2.743,2.743,0,0,1,199.016,121.747Z" transform="translate(-136.815 -88.854)" fill="#f9d0b4"/>
      <path id="Trazado_1008342" data-name="Trazado 1008342" d="M152.223,125.9a2.272,2.272,0,0,0-.423.026c0,.132.026.29.026.423v4.41a2.271,2.271,0,0,1-.026.423,2.663,2.663,0,0,0,.871-5.255,2.716,2.716,0,0,0-.449-.026Z" transform="translate(-108.85 -92.69)" fill="#f9d0b4"/>
      <path id="Trazado_1008343" data-name="Trazado 1008343" d="M94.938,126.323a2.272,2.272,0,0,1,.026-.423,2.663,2.663,0,0,0-.871,5.255,2.564,2.564,0,0,0,.9,0c0-.132-.026-.29-.026-.423Z" transform="translate(-64.742 -92.664)" fill="#f9d0b4"/>
      <path id="Trazado_1008344" data-name="Trazado 1008344" d="M116.328,116.531a.367.367,0,0,0-.317-.343,6.735,6.735,0,0,1-4.595-1.664.335.335,0,0,0-.475,0l-.026.026A6.917,6.917,0,0,1,104,116.821a.336.336,0,0,0-.4.264v5.229a6.377,6.377,0,0,0,12.755,0v-5.678A.2.2,0,0,1,116.328,116.531Z" transform="translate(-73.378 -84.245)" fill="#f9d0b4"/>
      <path id="Trazado_1008345" data-name="Trazado 1008345" d="M119.652,166.292h0a6.389,6.389,0,0,1-2.852-.687v2.35l1,2.878a.429.429,0,0,0,.4.29h3.09a.4.4,0,0,0,.4-.29l1-2.878V165.5A6.062,6.062,0,0,1,119.652,166.292Z" transform="translate(-83.093 -121.833)" fill="#f9d0b4"/>
      <path id="Trazado_1008346" data-name="Trazado 1008346" d="M36.268,130.033h0a4.936,4.936,0,0,1-3.829-1.822.584.584,0,0,0-.819-.079l-.079.079a4.845,4.845,0,0,1-3.8,1.822H27.58a.564.564,0,0,0-.581.555v2.245a5.01,5.01,0,0,0,4.436,5.017,4.925,4.925,0,0,0,5.387-4.436,2.716,2.716,0,0,0,.026-.449V130.64a.548.548,0,0,0-.581-.607Z" transform="translate(-17.006 -94.235)" fill="#f9d0b4"/>
      <path id="Trazado_1008347" data-name="Trazado 1008347" d="M203.143,165.049a5.654,5.654,0,0,1-1.743-.449v1.505l.766,2.218a.318.318,0,0,0,.317.211h2.377a.343.343,0,0,0,.317-.211l.766-2.218v-1.479A6.3,6.3,0,0,1,203.143,165.049Z" transform="translate(-145.352 -121.17)" fill="#f9d0b4"/>
      <path id="Trazado_1008348" data-name="Trazado 1008348" d="M103.665,193.84l-.792-14.022a2.475,2.475,0,0,0-1.9-2.3l-4.965-1.241L93.023,174.8l-1,2.878a.429.429,0,0,1-.4.29h-3.09a.4.4,0,0,1-.4-.29l-1-2.878-2.984,1.479-4.965,1.241a2.5,2.5,0,0,0-1.9,2.3l-.792,14.022a1.653,1.653,0,0,0,1.558,1.743h23.925a1.646,1.646,0,0,0,1.637-1.637C103.665,193.919,103.665,193.892,103.665,193.84Z" transform="translate(-53.427 -128.677)" fill="#e9e9ea"/>
      <path id="Trazado_1008349" data-name="Trazado 1008349" d="M193.6,184.771l-.475-8.345a5.037,5.037,0,0,0-3.8-4.595l-1.611-.4-2.3-1.136-.766,2.218a.318.318,0,0,1-.317.211H181.95a.343.343,0,0,1-.317-.211l-.766-2.218-2.3,1.136-1.611.4a5.056,5.056,0,0,0-3.459,3.037,2.511,2.511,0,0,1,.766,1.664l.555,9.771h17.35a1.448,1.448,0,0,0,1.452-1.452A.1.1,0,0,1,193.6,184.771Z" transform="translate(-124.82 -125.365)" fill="#b26e3b"/>
      <path id="Trazado_1008350" data-name="Trazado 1008350" d="M23.028,171.732l-1.611-.4-2.3-1.136-.766,2.218a.318.318,0,0,1-.317.211H15.66a.343.343,0,0,1-.317-.211l-.766-2.218-2.3,1.136-1.611.4a5.037,5.037,0,0,0-3.8,4.595l-.475,8.345A1.449,1.449,0,0,0,7.764,186.2H25.193l.555-9.771a2.457,2.457,0,0,1,.766-1.664A5.151,5.151,0,0,0,23.028,171.732Z" transform="translate(-1.837 -125.292)" fill="#fc7783"/>
      <path id="Trazado_1008351" data-name="Trazado 1008351" d="M221.468.491c0-.053-.026-.079-.026-.132-.026-.026-.026-.079-.053-.106s-.053-.079-.079-.106a.638.638,0,0,0-.924,0h0a.365.365,0,0,0-.079.106.2.2,0,0,0-.053.106.2.2,0,0,0-.026.132c0,.053-.026.079-.026.132a.238.238,0,0,0,.026.132c0,.053.026.079.026.132.026.053.026.079.053.106s.053.079.079.106a.688.688,0,0,0,.924,0,.365.365,0,0,0,.079-.106.2.2,0,0,0,.053-.106.238.238,0,0,0,.026-.132.238.238,0,0,1,.026-.132A.238.238,0,0,0,221.468.491Z" transform="translate(-159.187)" fill="#ffcd29"/>
      <path id="Trazado_1008352" data-name="Trazado 1008352" d="M53.412,15.947a.938.938,0,0,0-.106-.238c-.026-.026-.053-.079-.079-.106a.688.688,0,0,0-.924,0,.365.365,0,0,0-.079.106.2.2,0,0,0-.053.106.238.238,0,0,0-.026.132.45.45,0,0,0,0,.264c0,.053.026.079.026.132.026.026.026.079.053.106s.053.079.079.106a.638.638,0,0,0,.924,0h0a.365.365,0,0,0,.079-.106.2.2,0,0,0,.053-.106.2.2,0,0,0,.026-.132A.312.312,0,0,0,53.412,15.947Z" transform="translate(-35.496 -11.388)" fill="#55acd5"/>
      <path id="Trazado_1008353" data-name="Trazado 1008353" d="M198.436,6.776A2.476,2.476,0,0,1,196.456,4.8c0-.026-.026-.053-.053-.026a.026.026,0,0,0-.026.026A2.476,2.476,0,0,1,194.4,6.776c-.026,0-.053.026-.026.053a.026.026,0,0,0,.026.026,2.476,2.476,0,0,1,1.981,1.981c0,.026.026.053.053.026a.026.026,0,0,0,.026-.026,2.476,2.476,0,0,1,1.981-1.981c.026,0,.053-.026.026-.053A.026.026,0,0,0,198.436,6.776Z" transform="translate(-140.17 -3.539)" fill="#ea4647"/>
      <path id="Trazado_1008354" data-name="Trazado 1008354" d="M75.931,93.536h-.475V93.06a.66.66,0,0,0-1.32,0v.475H73.66a.66.66,0,0,0,0,1.32h.475v.475a.66.66,0,0,0,1.32,0v-.475h.475a.66.66,0,1,0,0-1.32Z" transform="translate(-50.859 -68.036)" fill="#6dcc6d"/>
      <path id="Trazado_1008355" data-name="Trazado 1008355" d="M97.854,0H79.844A5.06,5.06,0,0,0,74.8,5.044v7.685a5.043,5.043,0,0,0,5.044,5.044h4.648a.966.966,0,0,1,.792.423L87.9,22.182a1.136,1.136,0,0,0,1.558.317.91.91,0,0,0,.317-.317l2.614-3.987a.966.966,0,0,1,.792-.423h4.648a5.043,5.043,0,0,0,5.044-5.044V5.044A5.021,5.021,0,0,0,97.854,0Zm3.723,12.728a3.719,3.719,0,0,1-3.723,3.723H93.206a2.234,2.234,0,0,0-1.9,1.03l-2.456,3.723-2.456-3.723a2.3,2.3,0,0,0-1.9-1.03H79.844a3.719,3.719,0,0,1-3.723-3.723V5.044A3.719,3.719,0,0,1,79.844,1.32H97.827a3.719,3.719,0,0,1,3.723,3.723v7.685Z" transform="translate(-52.184 -0.037)" fill="#231f20"/>
      <path id="Trazado_1008356" data-name="Trazado 1008356" d="M187.359,30.2H174.208a4.117,4.117,0,0,0-2.06.581.718.718,0,0,0-.317.555v3.591a3.657,3.657,0,0,1-1.294,2.8.75.75,0,0,0-.238.5v1.426a3.9,3.9,0,0,0,3.855,3.882h3.459a.448.448,0,0,1,.423.238l1.928,2.9a.992.992,0,0,0,1.664,0l1.928-2.9a.582.582,0,0,1,.423-.238h3.407a3.866,3.866,0,0,0,3.855-3.882V34.082A3.923,3.923,0,0,0,187.359,30.2Zm2.535,9.48a2.576,2.576,0,0,1-2.535,2.562h-3.407a1.879,1.879,0,0,0-1.532.819l-1.637,2.482-1.637-2.482a1.814,1.814,0,0,0-1.532-.819h-3.407a2.542,2.542,0,0,1-2.535-2.562V38.545a4.992,4.992,0,0,0,1.505-3.591v-3.2a2.353,2.353,0,0,1,1.03-.238h13.151a2.542,2.542,0,0,1,2.535,2.562Z" transform="translate(-122.465 -22.262)" fill="#231f20"/>
      <path id="Trazado_1008357" data-name="Trazado 1008357" d="M27.15,37.852a3.739,3.739,0,0,1-1.294-2.8V31.436a.593.593,0,0,0-.317-.555,3.739,3.739,0,0,0-2.06-.581H10.355A3.86,3.86,0,0,0,6.5,34.155V39.78a3.9,3.9,0,0,0,3.855,3.882h3.407a.448.448,0,0,1,.423.238l1.928,2.9a.992.992,0,0,0,1.664,0L19.7,43.9a.582.582,0,0,1,.423-.238h3.407a3.905,3.905,0,0,0,3.882-3.882V38.354A.916.916,0,0,0,27.15,37.852Zm-1.109,1.9a2.581,2.581,0,0,1-2.562,2.562H20.1a1.879,1.879,0,0,0-1.532.819l-1.637,2.482-1.637-2.482a1.814,1.814,0,0,0-1.532-.819H10.355A2.542,2.542,0,0,1,7.82,39.754v-5.6a2.576,2.576,0,0,1,2.535-2.562H23.506a2.271,2.271,0,0,1,1.03.238v3.2a5.1,5.1,0,0,0,1.505,3.591Z" transform="translate(-1.92 -22.335)" fill="#231f20"/>
      <path id="Trazado_1008358" data-name="Trazado 1008358" d="M112.852,17.9h0l-14.392.053a.66.66,0,0,0,0,1.32h0l14.392-.053a.66.66,0,0,0,0-1.32Z" transform="translate(-69.11 -13.21)" fill="#231f20"/>
      <path id="Trazado_1008359" data-name="Trazado 1008359" d="M112.952,31.1l-14.392.053a.66.66,0,0,0,0,1.32h0l14.392-.053a.66.66,0,0,0,0-1.32Z" transform="translate(-69.184 -22.924)" fill="#231f20"/>
      <path id="Trazado_1008360" data-name="Trazado 1008360" d="M112.952,44.3l-14.392.053a.66.66,0,0,0,0,1.32h0l14.392-.053a.654.654,0,0,0,.66-.66h0A.689.689,0,0,0,112.952,44.3Z" transform="translate(-69.184 -32.638)" fill="#231f20"/>
      <path id="Trazado_1008361" data-name="Trazado 1008361" d="M65.96,200.3a.654.654,0,0,0-.66.66v7.42a.66.66,0,1,0,1.32,0v-7.42A.654.654,0,0,0,65.96,200.3Z" transform="translate(-45.192 -147.443)" fill="#231f20"/>
      <path id="Trazado_1008362" data-name="Trazado 1008362" d="M21.76,200.3a.654.654,0,0,0-.66.66v7.42a.66.66,0,1,0,1.32,0v-7.42A.654.654,0,0,0,21.76,200.3Z" transform="translate(-12.664 -147.443)" fill="#231f20"/>
      <path id="Trazado_1008363" data-name="Trazado 1008363" d="M40.272,160.624a.6.6,0,0,0-.66,0,4.565,4.565,0,0,1-2.033.528,4.284,4.284,0,0,1-1.9-.449.7.7,0,0,0-.9.29.532.532,0,0,0-.079.29v1.822a.515.515,0,0,0,.026.211l.766,2.218a.968.968,0,0,0,.924.66h2.377a.968.968,0,0,0,.924-.66l.766-2.218a.581.581,0,0,0,.026-.211v-1.928A.418.418,0,0,0,40.272,160.624Zm-.977,2.35-.66,1.9h-1.9l-.66-1.9v-.739a5.58,5.58,0,0,0,3.222-.053Z" transform="translate(-22.673 -118.172)" fill="#231f20"/>
      <path id="Trazado_1008364" data-name="Trazado 1008364" d="M228.8,130.5a2.416,2.416,0,0,0-.449.026.64.64,0,0,0-.555.687v4.04a.667.667,0,0,0,.555.713,2.562,2.562,0,0,0,.449.026,2.751,2.751,0,1,0,0-5.493Zm.317,4.146v-2.8a1.386,1.386,0,0,1,1.241,1.558,1.4,1.4,0,0,1-1.241,1.241Z" transform="translate(-164.775 -96.075)" fill="#231f20"/>
      <path id="Trazado_1008365" data-name="Trazado 1008365" d="M181.308,131.43v-.29a.667.667,0,0,0-.555-.713,2.562,2.562,0,0,0-.449-.026,2.751,2.751,0,1,0,0,5.493,2.417,2.417,0,0,0,.449-.026.65.65,0,0,0,.555-.713V131.43Zm-1.32,3.142a1.409,1.409,0,0,1,0-2.8Z" transform="translate(-127.69 -96.002)" fill="#231f20"/>
      <path id="Trazado_1008366" data-name="Trazado 1008366" d="M198.972,121.355c-.317-.185-1.136-.792-1.136-1.505v-.026a1.693,1.693,0,0,0-.607-1.32,1.752,1.752,0,0,0-1.479-.343,11.716,11.716,0,0,1-4.885,0,1.669,1.669,0,0,0-1.479.343,1.63,1.63,0,0,0-.607,1.347c0,.713-.819,1.32-1.136,1.505a.656.656,0,0,0-.343.581v3.8a5.913,5.913,0,0,0,5.44,5.757,4.28,4.28,0,0,0,.581.026,6.188,6.188,0,0,0,4.2-1.611,5.426,5.426,0,0,0,1.822-4.067v-3.935A.737.737,0,0,0,198.972,121.355Zm-.977,4.489a4.186,4.186,0,0,1-1.4,3.09,4.924,4.924,0,0,1-3.75,1.241,4.571,4.571,0,0,1-4.225-4.436v-3.459a3.205,3.205,0,0,0,1.479-2.429V119.8a.367.367,0,0,1,.132-.264.42.42,0,0,1,.343-.079,12.842,12.842,0,0,0,5.493,0,.381.381,0,0,1,.343.079.325.325,0,0,1,.132.264v.053a3.205,3.205,0,0,0,1.479,2.429Z" transform="translate(-134.975 -86.957)" fill="#231f20"/>
      <path id="Trazado_1008367" data-name="Trazado 1008367" d="M229.96,200.3a.654.654,0,0,0-.66.66v7.42a.66.66,0,1,0,1.32,0v-7.42A.654.654,0,0,0,229.96,200.3Z" transform="translate(-165.884 -147.443)" fill="#231f20"/>
      <path id="Trazado_1008368" data-name="Trazado 1008368" d="M185.86,200.3a.654.654,0,0,0-.66.66v7.42a.66.66,0,1,0,1.32,0v-7.42A.671.671,0,0,0,185.86,200.3Z" transform="translate(-133.43 -147.443)" fill="#231f20"/>
      <path id="Trazado_1008369" data-name="Trazado 1008369" d="M102.481,192h0l-.792-14.022a3.181,3.181,0,0,0-2.4-2.9L94.4,173.833l-2.931-1.426a.655.655,0,0,0-.871.29c0,.026-.026.053-.026.079l-.951,2.72H86.874l-.951-2.72a.656.656,0,0,0-.845-.4c-.026,0-.053.026-.079.026l-2.931,1.426-4.885,1.241a3.181,3.181,0,0,0-2.4,2.9L73.987,192a2.3,2.3,0,0,0,2.165,2.429h23.978a2.3,2.3,0,0,0,2.3-2.3.145.145,0,0,0,.053-.132Zm-1.584.792a1.047,1.047,0,0,1-.713.317H76.311a.975.975,0,0,1-.977-.977v-.053l.792-14.022a1.831,1.831,0,0,1,1.4-1.69l4.965-1.241c.053,0,.079-.026.132-.053l2.324-1.136.766,2.192a1.09,1.09,0,0,0,1.03.713h3.09a1.116,1.116,0,0,0,1.03-.713l.766-2.192,2.324,1.136c.053.026.079.026.132.053l4.965,1.241a1.857,1.857,0,0,1,1.4,1.69l.792,14.022a1.635,1.635,0,0,1-.343.713Z" transform="translate(-51.582 -126.865)" fill="#231f20"/>
      <path id="Trazado_1008370" data-name="Trazado 1008370" d="M150.377,123.4a3.579,3.579,0,0,0-.528.053.64.64,0,0,0-.555.687c0,.132.026.264.026.4v4.41a2,2,0,0,1-.026.4.64.64,0,0,0,.555.687,3.317,3.317,0,1,0,1.056-6.549,1.288,1.288,0,0,0-.528-.079Zm.238,5.308V124.72a2.009,2.009,0,0,1,0,3.987Z" transform="translate(-107.005 -90.85)" fill="#231f20"/>
      <path id="Trazado_1008371" data-name="Trazado 1008371" d="M93.813,124.465a2,2,0,0,1,.026-.4.64.64,0,0,0-.555-.687,3.317,3.317,0,0,0-1.056,6.549,2.667,2.667,0,0,0,1.056,0,.64.64,0,0,0,.555-.687c0-.132-.026-.264-.026-.4Zm-1.32,4.2a2.009,2.009,0,0,1,0-3.988Z" transform="translate(-62.958 -90.806)" fill="#231f20"/>
      <path id="Trazado_1008372" data-name="Trazado 1008372" d="M114.928,114.655a.992.992,0,0,0-.977-.977A6.04,6.04,0,0,1,109.8,112.2a1.029,1.029,0,0,0-1.426,0l-.079.079a6.2,6.2,0,0,1-6.285,2.033,1.017,1.017,0,0,0-1.188.766.581.581,0,0,0-.026.211v5.123a7.051,7.051,0,0,0,14.1,0v-5.678Zm-1.32,5.81a5.73,5.73,0,1,1-11.461,0h0v-4.753a7.554,7.554,0,0,0,6.972-2.324A7.313,7.313,0,0,0,113.581,115v5.466Z" transform="translate(-71.318 -82.396)" fill="#231f20"/>
      <path id="Trazado_1008373" data-name="Trazado 1008373" d="M107.228,90.668a4.084,4.084,0,0,0-1.664.343,4.4,4.4,0,0,0-3.327-1.611h-1.875A7.275,7.275,0,0,0,93.1,96.662V99.62a.654.654,0,0,0,.66.66.8.8,0,0,0,.423-.132,1.944,1.944,0,0,1,1.558-.423.677.677,0,0,0,.766-.555v-.026a7.615,7.615,0,0,0,7-2.324,7.313,7.313,0,0,0,4.463,1.611v.634a.654.654,0,0,0,.66.66h.106a1.285,1.285,0,0,1,.317-.026,2.072,2.072,0,0,1,1.4.555.638.638,0,0,0,.924-.026.749.749,0,0,0,.185-.449V94.972A4.345,4.345,0,0,0,107.228,90.668Zm2.984,7.922a3.574,3.574,0,0,0-.951-.211v-.29a.992.992,0,0,0-.977-.977,6.04,6.04,0,0,1-4.146-1.479,1.029,1.029,0,0,0-1.426,0l-.079.079a6.2,6.2,0,0,1-6.285,2.033.99.99,0,0,0-.845.211.863.863,0,0,0-.29.4,4.085,4.085,0,0,0-.819.158V96.636a5.968,5.968,0,0,1,5.942-5.942h1.875a2.97,2.97,0,0,1,2.562,1.452.651.651,0,0,0,.9.238h0a2.994,2.994,0,0,1,4.093,1,2.941,2.941,0,0,1,.423,1.558Z" transform="translate(-65.651 -65.829)" fill="#231f20"/>
      <path id="Trazado_1008374" data-name="Trazado 1008374" d="M126.654,197.867a.709.709,0,0,0-.607-.185c-.053,0-.079.026-.132.026-.053.026-.079.026-.106.053s-.079.053-.106.079a.365.365,0,0,0-.079.106.2.2,0,0,0-.053.106.238.238,0,0,0-.026.132.45.45,0,0,0,0,.264c0,.053.026.079.026.132.026.026.026.079.053.106s.053.079.079.106a.364.364,0,0,0,.106.079.2.2,0,0,0,.106.053.238.238,0,0,0,.132.026c.053,0,.079.026.132.026a.654.654,0,0,0,.66-.66.689.689,0,0,0-.185-.449Z" transform="translate(-89.513 -145.512)" fill="#231f20"/>
      <path id="Trazado_1008375" data-name="Trazado 1008375" d="M126.654,210.767a.709.709,0,0,0-.607-.185c-.053,0-.079.026-.132.026-.026.026-.079.026-.106.053s-.079.053-.106.079a.364.364,0,0,0-.079.106.2.2,0,0,0-.053.106.238.238,0,0,0-.026.132.45.45,0,0,0,0,.264c0,.053.026.079.026.132.026.026.026.079.053.106s.053.079.079.106a.365.365,0,0,0,.106.079.2.2,0,0,0,.106.053.238.238,0,0,0,.132.026.238.238,0,0,1,.132.026.759.759,0,0,0,.475-.185A.688.688,0,0,0,126.654,210.767Z" transform="translate(-89.513 -155.005)" fill="#231f20"/>
      <path id="Trazado_1008376" data-name="Trazado 1008376" d="M126.654,223.667a.709.709,0,0,0-.607-.185c-.053,0-.079.026-.132.026-.053.026-.079.026-.106.053s-.079.053-.106.079a.364.364,0,0,0-.079.106.2.2,0,0,0-.053.106.238.238,0,0,0-.026.132.45.45,0,0,0,0,.264c0,.053.026.079.026.132.026.026.026.079.053.106s.053.079.079.106a.365.365,0,0,0,.106.079.2.2,0,0,0,.106.053.238.238,0,0,0,.132.026.238.238,0,0,1,.132.026.759.759,0,0,0,.475-.185A.688.688,0,0,0,126.654,223.667Z" transform="translate(-89.513 -164.498)" fill="#231f20"/>
      <path id="Trazado_1008377" data-name="Trazado 1008377" d="M126.654,236.567a.709.709,0,0,0-.607-.185c-.053,0-.079.026-.132.026-.053.026-.079.026-.106.053s-.079.053-.106.079a.365.365,0,0,0-.079.106.2.2,0,0,0-.053.106.238.238,0,0,0-.026.132.45.45,0,0,0,0,.264c0,.053.026.079.026.132.026.026.026.079.053.106s.053.079.079.106a.364.364,0,0,0,.106.079.2.2,0,0,0,.106.053.238.238,0,0,0,.132.026h.132a.654.654,0,0,0,.66-.66.747.747,0,0,0-.185-.423Z" transform="translate(-89.513 -173.992)" fill="#231f20"/>
      <path id="Trazado_1008378" data-name="Trazado 1008378" d="M154.46,214.6a.654.654,0,0,0-.66.66v9.612a.66.66,0,1,0,1.32,0V215.26A.654.654,0,0,0,154.46,214.6Z" transform="translate(-110.322 -157.967)" fill="#231f20"/>
      <path id="Trazado_1008379" data-name="Trazado 1008379" d="M97.16,214.6a.654.654,0,0,0-.66.66v9.612a.66.66,0,1,0,1.32,0V215.26A.654.654,0,0,0,97.16,214.6Z" transform="translate(-68.153 -157.967)" fill="#231f20"/>
      <path id="Trazado_1008380" data-name="Trazado 1008380" d="M121.119,163.124a.6.6,0,0,0-.66,0,5.775,5.775,0,0,1-2.72.687,5.714,5.714,0,0,1-2.562-.607.7.7,0,0,0-.9.29.532.532,0,0,0-.079.29v2.35a.515.515,0,0,0,.026.211l1,2.878a1.09,1.09,0,0,0,1.03.713h3.09a1.116,1.116,0,0,0,1.03-.713l1-2.878a.581.581,0,0,0,.026-.211v-2.456A.532.532,0,0,0,121.119,163.124Zm-1,2.9-.924,2.614h-2.746l-.924-2.614v-1.268a7.3,7.3,0,0,0,4.568-.053Z" transform="translate(-81.179 -120.011)" fill="#231f20"/>
      <path id="Trazado_1008381" data-name="Trazado 1008381" d="M35.327,127.884a1.258,1.258,0,0,0-.9-.37h0v0a4.233,4.233,0,0,1-3.3-1.584,1.25,1.25,0,0,0-1.743-.185.617.617,0,0,0-.185.185,4.258,4.258,0,0,1-3.433,1.584,1.136,1.136,0,0,0-.9.343,1.258,1.258,0,0,0-.37.9v2.218a5.717,5.717,0,0,0,5.044,5.678,3.718,3.718,0,0,0,.528.026,5.6,5.6,0,0,0,5.6-5.6v-2.324A1.049,1.049,0,0,0,35.327,127.884Zm-.951,3.169a4.26,4.26,0,0,1-4.674,4.225,4.393,4.393,0,0,1-3.855-4.357v-2.113a5.557,5.557,0,0,0,4.331-1.981,5.459,5.459,0,0,0,4.2,1.981Z" transform="translate(-15.166 -92.377)" fill="#231f20"/>
      <path id="Trazado_1008382" data-name="Trazado 1008382" d="M23.637,102.3a7.731,7.731,0,0,0-7.737,7.737v4.885a7.545,7.545,0,0,0,.713,3.222,2.539,2.539,0,0,0,2.271,1.452H21.6a.654.654,0,0,0,.66-.66v-.528a.633.633,0,0,0-.37-.581,4.445,4.445,0,0,1-2.377-3.935V111.78a5.557,5.557,0,0,0,4.331-1.981,5.459,5.459,0,0,0,4.2,1.981V114a4.282,4.282,0,0,1-2.245,3.75.656.656,0,0,0-.343.581v.607a.654.654,0,0,0,.66.66h2.271a2.493,2.493,0,0,0,2.271-1.452,7.545,7.545,0,0,0,.713-3.222v-4.885A7.765,7.765,0,0,0,23.637,102.3Zm6.391,12.623a6.64,6.64,0,0,1-.581,2.667,1.165,1.165,0,0,1-1.083.687h-1a5.52,5.52,0,0,0,1.981-4.252V111.7a1.243,1.243,0,0,0-.37-.871,1.257,1.257,0,0,0-.9-.37,4.233,4.233,0,0,1-3.3-1.584,1.25,1.25,0,0,0-1.743-.185.617.617,0,0,0-.185.185,4.258,4.258,0,0,1-3.433,1.584,1.136,1.136,0,0,0-.9.343,1.258,1.258,0,0,0-.37.9v2.218a5.818,5.818,0,0,0,2.007,4.384h-1.32a1.222,1.222,0,0,1-1.083-.687,6.225,6.225,0,0,1-.581-2.667v-4.885a6.417,6.417,0,1,1,12.834,0v4.859Z" transform="translate(-8.837 -75.322)" fill="#231f20"/>
      <path id="Trazado_1008383" data-name="Trazado 1008383" d="M44.16,177a.654.654,0,0,0-.66.66v2.958a.66.66,0,0,0,1.32,0V177.66A.654.654,0,0,0,44.16,177Z" transform="translate(-29.149 -130.296)" fill="#231f20"/>
      <path id="Trazado_1008384" data-name="Trazado 1008384" d="M215.741,198H213.76a.66.66,0,1,0,0,1.32h1.981a.654.654,0,0,0,.66-.66A.671.671,0,0,0,215.741,198Z" transform="translate(-153.962 -145.75)" fill="#231f20"/>
      <path id="Trazado_1008385" data-name="Trazado 1008385" d="M189.026,99a7.319,7.319,0,0,0-7.526,7.077v2.192a.654.654,0,0,0,.66.66.627.627,0,0,0,.317-.079,1.906,1.906,0,0,1,.845-.211.731.731,0,0,1,.238.026.659.659,0,0,0,.713-.4,3.328,3.328,0,0,0,1.532-2.482v-.053a.367.367,0,0,1,.132-.264.42.42,0,0,1,.343-.079,12.843,12.843,0,0,0,5.493,0,.381.381,0,0,1,.343.079.325.325,0,0,1,.132.264v.053a3.328,3.328,0,0,0,1.532,2.482.655.655,0,0,0,.713.4c.079,0,.158-.026.238-.026a1.906,1.906,0,0,1,.845.211.652.652,0,0,0,.9-.238.7.7,0,0,0,.079-.317V106.1A7.323,7.323,0,0,0,189.026,99Zm6.206,8.345a2.91,2.91,0,0,0-.475-.053l-.026-.026c-.317-.185-1.136-.792-1.136-1.532a1.688,1.688,0,0,0-2.086-1.664,11.716,11.716,0,0,1-4.885,0,1.669,1.669,0,0,0-1.479.343,1.63,1.63,0,0,0-.607,1.347c0,.713-.819,1.32-1.136,1.505l-.026.026a2.911,2.911,0,0,0-.475.053v-1.268a6.223,6.223,0,0,1,12.411,0Z" transform="translate(-130.707 -72.894)" fill="#231f20"/>
      <path id="Trazado_1008386" data-name="Trazado 1008386" d="M204.472,162.181a.674.674,0,0,0-.634-.053,4.982,4.982,0,0,1-2.482.4,5.038,5.038,0,0,1-1.532-.4.647.647,0,0,0-.871.343.939.939,0,0,0-.053.264v1.505a.515.515,0,0,0,.026.211l.766,2.218a.968.968,0,0,0,.924.66h2.377a.968.968,0,0,0,.924-.66l.766-2.218a.581.581,0,0,0,.026-.211v-1.479A.52.52,0,0,0,204.472,162.181Zm-1.03,1.928-.66,1.9h-1.9l-.66-1.9v-.449a7.03,7.03,0,0,0,1.03.185,6.127,6.127,0,0,0,2.192-.185Z" transform="translate(-143.512 -119.306)" fill="#231f20"/>
      <path id="Trazado_1008387" data-name="Trazado 1008387" d="M204.243,146.922l-1.03-.423a1.385,1.385,0,0,0-1.479.264.128.128,0,0,1-.185,0,1.509,1.509,0,0,0-1.479-.264l-1.03.423a.652.652,0,0,0,.475,1.215h0l1.03-.423a.116.116,0,0,1,.132.026,1.446,1.446,0,0,0,1.9,0,.116.116,0,0,1,.132-.026l1.03.423a.643.643,0,0,0,.845-.37.611.611,0,0,0-.343-.845Z" transform="translate(-143.309 -107.771)" fill="#231f20"/>
      <path id="Trazado_1008388" data-name="Trazado 1008388" d="M192.358,182.859h0l-.475-8.345a5.681,5.681,0,0,0-4.3-5.2l-1.558-.4-2.245-1.109a.655.655,0,0,0-.871.29c0,.026-.026.053-.026.079l-.687,2.007h-1.9l-.687-2.007a.656.656,0,0,0-.845-.4c-.026,0-.053.026-.079.026l-2.245,1.109-1.558.4a5.724,5.724,0,0,0-3.908,3.433.658.658,0,0,0,.158.713,1.807,1.807,0,0,1,.555,1.241l.555,9.771a.685.685,0,0,0,.66.634h17.35a2.119,2.119,0,0,0,2.113-2.113v-.132Zm-1.532.66a.776.776,0,0,1-.581.238H173.53l-.5-9.163a3.023,3.023,0,0,0-.66-1.743,4.41,4.41,0,0,1,2.852-2.271l1.611-.4c.053,0,.079-.026.132-.053l1.637-.792.528,1.532a.968.968,0,0,0,.924.66h2.377a.968.968,0,0,0,.924-.66l.528-1.532,1.637.792c.053.026.079.026.132.053l1.611.4a4.389,4.389,0,0,1,3.3,3.988l.475,8.345a.725.725,0,0,1-.211.607Z" transform="translate(-122.922 -123.48)" fill="#231f20"/>
      <path id="Trazado_1008389" data-name="Trazado 1008389" d="M25.257,172.645a5.724,5.724,0,0,0-3.908-3.433l-1.558-.4-2.245-1.109a.655.655,0,0,0-.871.29c0,.026-.026.053-.026.079l-.687,2.007h-1.9l-.687-2.007a.656.656,0,0,0-.845-.4c-.026,0-.053.026-.079.026L10.2,168.816l-1.558.4a5.681,5.681,0,0,0-4.3,5.2l-.449,8.371A2.1,2.1,0,0,0,5.874,185H23.329a.665.665,0,0,0,.66-.634l.555-9.771h0a1.99,1.99,0,0,1,.555-1.241A.606.606,0,0,0,25.257,172.645Zm-2.033,1.875-.5,9.163H6.006a.794.794,0,0,1-.792-.792v-.053l.475-8.345a4.337,4.337,0,0,1,3.3-3.988l1.611-.4c.053,0,.079-.026.132-.053l1.637-.792L12.9,170.8a.968.968,0,0,0,.924.66H16.2a.968.968,0,0,0,.924-.66l.528-1.532,1.637.792c.053.026.079.026.132.053l1.611.4a4.41,4.41,0,0,1,2.852,2.271,3.023,3.023,0,0,0-.66,1.743Z" transform="translate(0 -123.406)" fill="#231f20"/>
    </g>
  </g>
</svg>
