<svg xmlns="http://www.w3.org/2000/svg" width="128" height="128" viewBox="0 0 128 128">
  <g id="Grupo_1182431" data-name="Grupo 1182431" transform="translate(-72.746 -7992)">
    <g id="Elipse_13628" data-name="Elipse 13628" transform="translate(72.746 7992)" fill="#fdf3e6" stroke="#ff984a" stroke-width="6">
      <circle cx="64" cy="64" r="64" stroke="none"/>
      <circle cx="64" cy="64" r="61" fill="none"/>
    </g>
    <g id="Grupo_1183177" data-name="Grupo 1183177" transform="translate(60.091 8020.835)">
      <g id="Grupo_1183175" data-name="Grupo 1183175" transform="translate(49.126 1.03)">
        <g id="Grupo_1183173" data-name="Grupo 1183173" transform="translate(0)">
          <path id="Trazado_1008309" data-name="Trazado 1008309" d="M98.541,7.5H65.318a2.2,2.2,0,0,0-1.557.645l-7.519,7.519a2.2,2.2,0,0,0-.645,1.557V65.928a1.1,1.1,0,0,0,1.1,1.1H99.642V8.6a1.1,1.1,0,0,0-1.1-1.1Z" transform="translate(-55.597 -7.5)" fill="#fbf4db"/>
          <path id="Trazado_1008310" data-name="Trazado 1008310" d="M94.136,64.758H63.3a4.4,4.4,0,0,1-4.4-4.4V17.41h5.506a1.1,1.1,0,0,0,1.1-1.1V7.5h-.189a2.2,2.2,0,0,0-1.557.645l-7.519,7.519a2.2,2.2,0,0,0-.645,1.557V66.961a1.1,1.1,0,0,0,1.1,1.1H94.136Z" transform="translate(-55.597 -7.5)" fill="#f8ebcc"/>
        </g>
        <path id="Trazado_1008311" data-name="Trazado 1008311" d="M172.942,65.813l-.025-.015a1.607,1.607,0,0,1,0-2.784l.028-.016a2.179,2.179,0,0,0,.8-2.973L173.73,60a2.208,2.208,0,0,0-3.013-.8h0a1.607,1.607,0,0,1-2.411-1.392V57.8a2.2,2.2,0,0,0-2.2-2.2h-.027a2.175,2.175,0,0,0-2.175,2.175v.036a1.607,1.607,0,0,1-2.411,1.392h0a2.208,2.208,0,0,0-3.013.8l-.014.024a2.179,2.179,0,0,0,.8,2.973l.028.016a1.607,1.607,0,0,1,0,2.784h0a2.2,2.2,0,1,0,2.2,3.813A1.607,1.607,0,0,1,163.9,71v.03a2.18,2.18,0,0,0,2.175,2.18h.055a2.18,2.18,0,0,0,2.175-2.18V71a1.607,1.607,0,0,1,2.411-1.392,2.211,2.211,0,0,0,3.016-.8l.014-.024A2.181,2.181,0,0,0,172.942,65.813Zm-6.841.8a2.2,2.2,0,1,1,2.2-2.2A2.2,2.2,0,0,1,166.1,66.608Z" transform="translate(-144.079 -48.99)" fill="#887f88"/>
        <g id="Grupo_1183174" data-name="Grupo 1183174" transform="translate(28.629 39.641)">
          <path id="Trazado_1008312" data-name="Trazado 1008312" d="M320.129,320.129v5.506a5.506,5.506,0,0,0,11.011,0v-5.506Z" transform="translate(-312.421 -316.826)" fill="#ffd18d"/>
          <path id="Trazado_1008313" data-name="Trazado 1008313" d="M325.636,331.139a5.462,5.462,0,0,0,2.934-.862l-1.614-.328a4.4,4.4,0,0,1-3.523-4.31,2.1,2.1,0,0,1,.913-1.733l5.519-3.779H320.13v5.506A5.505,5.505,0,0,0,325.636,331.139Z" transform="translate(-312.422 -316.825)" fill="#fbbd80"/>
          <path id="Trazado_1008314" data-name="Trazado 1008314" d="M288.183,433.8l-4.348-1.449-6.607,1.1-6.607-1.1-4.348,1.449a3.3,3.3,0,0,0-2.259,3.134l3.3,5.327h23.124v-5.327A3.3,3.3,0,0,0,288.183,433.8Z" transform="translate(-264.015 -413.636)" fill="#98db7c"/>
          <path id="Trazado_1008315" data-name="Trazado 1008315" d="M267.317,436.94l7.308-2.361-4-2.224-4.348,1.449a3.3,3.3,0,0,0-2.259,3.134v5.327h3.3Z" transform="translate(-264.016 -413.636)" fill="#77cc7d"/>
          <path id="Trazado_1008316" data-name="Trazado 1008316" d="M312.113,420.741l1.612,3.224a1.1,1.1,0,0,0,1.646.388l3.349-2.512-3.641-2.73a1.1,1.1,0,0,0-1.439.1Z" transform="translate(-305.506 -402.022)" fill="#b8eb7c"/>
          <path id="Trazado_1008317" data-name="Trazado 1008317" d="M366.816,420.741l-1.612,3.224a1.1,1.1,0,0,1-1.646.388l-3.349-2.512,3.641-2.73a1.1,1.1,0,0,1,1.439.1Z" transform="translate(-346.995 -402.022)" fill="#b8eb7c"/>
          <path id="Trazado_1008318" data-name="Trazado 1008318" d="M322.023,296.081h-6.607a3.3,3.3,0,0,0-3.3,3.3v2.2a1.1,1.1,0,0,0,1.762.881l2.643-1.982a9.947,9.947,0,0,0,7.808,2.358,1.117,1.117,0,0,0,1-1.1v-2.358A3.3,3.3,0,0,0,322.023,296.081Z" transform="translate(-305.506 -296.081)" fill="#a46a5a"/>
          <path id="Trazado_1008319" data-name="Trazado 1008319" d="M312.113,301.176v2.2a1.1,1.1,0,0,0,1.762.881l2.643-1.982a9.224,9.224,0,0,1-2.434-4.119A3.3,3.3,0,0,0,312.113,301.176Z" transform="translate(-305.506 -297.873)" fill="#845252"/>
        </g>
        <path id="Trazado_1008320" data-name="Trazado 1008320" d="M167.39,86.941a2.2,2.2,0,1,1-2.251-3.751L163.166,79.9a1.586,1.586,0,0,1-1.678.053h0a2.208,2.208,0,0,0-3.013.8l-.014.024a2.179,2.179,0,0,0,.8,2.973l.028.016a1.607,1.607,0,0,1,0,2.784h0a2.2,2.2,0,1,0,2.2,3.813h0a1.607,1.607,0,0,1,2.411,1.392v.03a2.18,2.18,0,0,0,2.175,2.18h.055a2.18,2.18,0,0,0,2.175-2.18v-.03a1.592,1.592,0,0,1,1.073-1.506Z" transform="translate(-144.079 -69.746)" fill="#736572"/>
      </g>
      <g id="Grupo_1183176" data-name="Grupo 1183176" transform="translate(48.096 0)">
        <path id="Trazado_1008321" data-name="Trazado 1008321" d="M73.351,60.562H50.227a.071.071,0,0,1-.071-.071V11.971h7.779a2.134,2.134,0,0,0,2.131-2.131V2.06h32a.071.071,0,0,1,.071.071V36.266a1.03,1.03,0,0,0,2.06,0V2.131A2.134,2.134,0,0,0,92.07,0H58.848a3.212,3.212,0,0,0-2.286.947L49.043,8.466a3.211,3.211,0,0,0-.947,2.286v49.74a2.134,2.134,0,0,0,2.131,2.131H73.351a1.03,1.03,0,0,0,0-2.061ZM58.006,2.416V9.839a.071.071,0,0,1-.071.071H50.513Z" transform="translate(-48.096 0)"/>
        <path id="Trazado_1008322" data-name="Trazado 1008322" d="M115.879,208.721a1.03,1.03,0,0,0-1.457,0l-.476.476a3.217,3.217,0,0,0-2.1-.777h-4.4a3.236,3.236,0,0,0-3.232,3.232v4.4a3.236,3.236,0,0,0,3.232,3.232h4.4a3.236,3.236,0,0,0,3.232-3.232v-4.4a3.241,3.241,0,0,0-.059-.615l.859-.859a1.03,1.03,0,0,0,0-1.457Zm-2.86,7.335a1.173,1.173,0,0,1-1.172,1.172h-4.4a1.173,1.173,0,0,1-1.172-1.172v-4.4a1.173,1.173,0,0,1,1.172-1.172h4.4a1.164,1.164,0,0,1,.631.186l-2.551,2.551-.462-.924a1.03,1.03,0,1,0-1.843.921l1.1,2.2a1.031,1.031,0,0,0,.756.556,1.048,1.048,0,0,0,.165.013,1.031,1.031,0,0,0,.728-.3l2.646-2.646v3.019Z" transform="translate(-96.502 -179.79)"/>
        <path id="Trazado_1008323" data-name="Trazado 1008323" d="M115.879,304.916a1.03,1.03,0,0,0-1.457,0l-.476.476a3.217,3.217,0,0,0-2.1-.777h-4.4a3.236,3.236,0,0,0-3.232,3.232v4.4a3.236,3.236,0,0,0,3.232,3.232h4.4a3.236,3.236,0,0,0,3.232-3.232v-4.4a3.24,3.24,0,0,0-.059-.615l.859-.859a1.03,1.03,0,0,0,0-1.457Zm-2.86,7.335a1.173,1.173,0,0,1-1.172,1.172h-4.4a1.173,1.173,0,0,1-1.172-1.172v-4.4a1.173,1.173,0,0,1,1.172-1.172h4.4a1.164,1.164,0,0,1,.631.186l-2.551,2.551-.462-.924a1.03,1.03,0,0,0-1.843.921l1.1,2.2a1.03,1.03,0,0,0,.756.556,1.046,1.046,0,0,0,.165.013,1.031,1.031,0,0,0,.728-.3l2.646-2.646v3.018Z" transform="translate(-96.502 -262.771)"/>
        <path id="Trazado_1008324" data-name="Trazado 1008324" d="M217.157,224.451h-7.708a1.03,1.03,0,1,0,0,2.06h7.708a1.03,1.03,0,0,0,0-2.06Z" transform="translate(-186.396 -193.62)"/>
        <path id="Trazado_1008325" data-name="Trazado 1008325" d="M225.9,257.547a1.03,1.03,0,0,0-1.03-1.03H209.449a1.03,1.03,0,1,0,0,2.06h15.416A1.03,1.03,0,0,0,225.9,257.547Z" transform="translate(-186.396 -221.281)"/>
        <path id="Trazado_1008326" data-name="Trazado 1008326" d="M209.449,320.646a1.03,1.03,0,1,0,0,2.06h6.607a1.03,1.03,0,0,0,0-2.06Z" transform="translate(-186.396 -276.601)"/>
        <path id="Trazado_1008327" data-name="Trazado 1008327" d="M212.754,352.71h-3.3a1.03,1.03,0,1,0,0,2.06h3.3a1.03,1.03,0,1,0,0-2.06Z" transform="translate(-186.397 -304.26)"/>
        <path id="Trazado_1008328" data-name="Trazado 1008328" d="M282.04,414.763l-4.117-1.373-1.355-1.355a2.142,2.142,0,0,0-2.786-.2L270.76,414.1l-3.022-2.267a2.142,2.142,0,0,0-2.786.2L263.6,413.39l-4.117,1.373a4.328,4.328,0,0,0-2.963,4.111V424.2a1.03,1.03,0,1,0,2.06,0v-5.327a2.27,2.27,0,0,1,1.554-2.156l3.5-1.167,1.213,2.425a2.13,2.13,0,0,0,3.185.752l1.7-1.275V424.2a1.03,1.03,0,1,0,2.06,0v-6.749l1.7,1.275a2.131,2.131,0,0,0,3.185-.752l1.213-2.425,3.5,1.167a2.27,2.27,0,0,1,1.554,2.156V424.2a1.03,1.03,0,0,0,2.06,0v-5.327A4.327,4.327,0,0,0,282.04,414.763Zm-15.248,2.317a.065.065,0,0,1-.059.012.066.066,0,0,1-.047-.037l-1.28-2.56,1-1a.071.071,0,0,1,.093-.007l2.541,1.906Zm8.04-.025a.071.071,0,0,1-.106.025l-2.25-1.688,2.542-1.906a.071.071,0,0,1,.093.007l1,1Z" transform="translate(-227.887 -354.901)"/>
        <path id="Trazado_1008329" data-name="Trazado 1008329" d="M304.613,292.915v2.2a2.118,2.118,0,0,0,1.1,1.864v1.439a6.536,6.536,0,0,0,13.072,0v-1.285a2.133,2.133,0,0,0,1.1-1.863v-2.358a4.338,4.338,0,0,0-4.334-4.334h-6.607A4.338,4.338,0,0,0,304.613,292.915Zm7.637,9.981a4.48,4.48,0,0,1-4.475-4.475v-1.437a2.169,2.169,0,0,0,.249-.161l1.992-1.494a11.1,11.1,0,0,0,6.612,2.146h.1v.948A4.48,4.48,0,0,1,312.25,302.9Zm5.577-9.981v2.358a.09.09,0,0,1-.085.078,8.868,8.868,0,0,1-6.965-2.063,1.03,1.03,0,0,0-1.347-.1l-2.643,1.982a.071.071,0,0,1-.113-.057v-2.2a2.276,2.276,0,0,1,2.273-2.273h6.607A2.276,2.276,0,0,1,317.826,292.915Z" transform="translate(-269.377 -248.941)"/>
        <path id="Trazado_1008330" data-name="Trazado 1008330" d="M159.612,67.774h.057a3.216,3.216,0,0,0,3.2-3.21v-.03a.577.577,0,0,1,.866-.5,3.248,3.248,0,0,0,4.424-1.182l.014-.024A3.217,3.217,0,0,0,167,58.45h0l-.025-.014a.577.577,0,0,1,0-1l.027-.016a3.213,3.213,0,0,0,1.178-4.377l-.016-.029a3.244,3.244,0,0,0-4.421-1.177.577.577,0,0,1-.866-.508A3.236,3.236,0,0,0,159.64,48.1h-.027a3.209,3.209,0,0,0-3.205,3.205v.036a.577.577,0,0,1-.868.5,3.245,3.245,0,0,0-4.422,1.183l-.013.023a3.214,3.214,0,0,0,1.178,4.379l.027.016a.567.567,0,0,1,.289.5.561.561,0,0,1-.277.493l-.013.008a3.233,3.233,0,1,0,3.234,5.6.577.577,0,0,1,.866.5v.03A3.216,3.216,0,0,0,159.612,67.774Zm-3.782-5.883a2.631,2.631,0,0,0-1.319.358,1.172,1.172,0,1,1-1.185-2.022l.013-.008a2.638,2.638,0,0,0,0-4.569l-.027-.016a1.15,1.15,0,0,1-.421-1.568l.011-.019a1.18,1.18,0,0,1,1.609-.427,2.638,2.638,0,0,0,3.956-2.284V51.3a1.146,1.146,0,0,1,1.145-1.145h.027a1.175,1.175,0,0,1,1.172,1.18,2.638,2.638,0,0,0,3.959,2.283,1.178,1.178,0,0,1,1.6.423l.014.025a1.15,1.15,0,0,1-.422,1.567l-.027.016a2.638,2.638,0,0,0,0,4.569l.025.015a1.153,1.153,0,0,1,.423,1.569l-.01.018a1.183,1.183,0,0,1-1.61.428,2.638,2.638,0,0,0-3.956,2.284v.03a1.151,1.151,0,0,1-1.145,1.15h-.052a1.152,1.152,0,0,1-1.147-1.15v-.03a2.648,2.648,0,0,0-2.638-2.642Z" transform="translate(-136.587 -41.489)"/>
        <path id="Trazado_1008331" data-name="Trazado 1008331" d="M195.619,102.659a3.232,3.232,0,1,0-3.232-3.232A3.236,3.236,0,0,0,195.619,102.659Zm0-4.4a1.172,1.172,0,1,1-1.172,1.172A1.173,1.173,0,0,1,195.619,98.254Z" transform="translate(-172.567 -82.98)"/>
      </g>
    </g>
  </g>
</svg>
