<svg xmlns="http://www.w3.org/2000/svg" width="128" height="128" viewBox="0 0 128 128">
  <g id="Grupo_1182453" data-name="Grupo 1182453" transform="translate(-72.746 -7992)">
    <g id="Elipse_13628" data-name="Elipse 13628" transform="translate(72.746 7992)" fill="#fdf3e6" stroke="#ff984a" stroke-width="6">
      <circle cx="64" cy="64" r="64" stroke="none"/>
      <circle cx="64" cy="64" r="61" fill="none"/>
    </g>
    <g id="Grupo_1183202" data-name="Grupo 1183202" transform="translate(100.803 8020.058)">
      <path id="Trazado_1008555" data-name="Trazado 1008555" d="M112.16,77.639H69.478L56,64.16V8h56.16Zm0,0" transform="translate(-48.138 -6.877)" fill="#e9edf5"/>
      <path id="Trazado_1008556" data-name="Trazado 1008556" d="M56,408l13.478,13.478V408Zm0,0" transform="translate(-48.138 -350.716)" fill="#afb4c8"/>
      <path id="Trazado_1008557" data-name="Trazado 1008557" d="M34.957,85.478A13.478,13.478,0,1,1,21.478,72,13.478,13.478,0,0,1,34.957,85.478Zm0,0" transform="translate(-6.877 -61.891)" fill="#f5cd62"/>
      <path id="Trazado_1008558" data-name="Trazado 1008558" d="M57.971,112.986A8.986,8.986,0,1,1,48.986,104,8.985,8.985,0,0,1,57.971,112.986Zm0,0" transform="translate(-34.384 -89.398)" fill="#e9edf5"/>
      <path id="Trazado_1008559" data-name="Trazado 1008559" d="M67.591,93.945a33.385,33.385,0,0,1-1.236,5.227,8.965,8.965,0,0,1-9.685,13.836,20.211,20.211,0,0,1-5.005,2.625A13.478,13.478,0,0,0,67.592,93.945Zm0,0" transform="translate(-44.411 -80.755)" fill="#fc9942"/>
      <path id="Trazado_1008560" data-name="Trazado 1008560" d="M87.3,145.032A8.973,8.973,0,0,0,96.99,131.2,27.154,27.154,0,0,1,87.3,145.032Zm0,0" transform="translate(-75.047 -112.779)" fill="#afb4c8"/>
      <path id="Trazado_1008561" data-name="Trazado 1008561" d="M344.986,148.493l-4.493,4.493L336,148.493,340.493,144Zm0,0" transform="translate(-288.825 -123.782)" fill="#ced2dd"/>
      <path id="Trazado_1008562" data-name="Trazado 1008562" d="M182.739,324.493,176,326.739,178.246,320Zm0,0" transform="translate(-151.289 -275.072)" fill="#ced2dd"/>
      <path id="Trazado_1008563" data-name="Trazado 1008563" d="M216.711,180.493l-11.232,11.232h-3.37a2.254,2.254,0,0,0-2.246,2.246,2.2,2.2,0,0,0,.663,1.584,1.973,1.973,0,0,0,.517.393l-.056.27-4.493,4.493L192,196.218,212.218,176Zm0,0" transform="translate(-165.043 -151.289)" fill="#f5cd62"/>
      <path id="Trazado_1008564" data-name="Trazado 1008564" d="M448.986,232v17.971H440V232Zm0,0" transform="translate(-378.224 -199.427)" fill="#2dc2f1"/>
      <path id="Trazado_1008565" data-name="Trazado 1008565" d="M476.493,232v17.971H472V232Zm0,0" transform="translate(-405.731 -199.427)" fill="#00a7e8"/>
      <path id="Trazado_1008566" data-name="Trazado 1008566" d="M253.616,205.478,267.094,192l7.862,7.862v13.478h-14.6l-3.37-3.37h-6.739a2.273,2.273,0,0,1-1.067-.27,1.973,1.973,0,0,1-.517-.393,2.2,2.2,0,0,1-.663-1.584,2.254,2.254,0,0,1,2.246-2.246Zm0,0" transform="translate(-213.18 -165.043)" fill="#ffdaaa"/>
      <path id="Trazado_1008567" data-name="Trazado 1008567" d="M228.218,160,208,180.218v-7.862L220.355,160Zm0,0" transform="translate(-178.797 -137.536)" fill="#ffdaaa"/>
      <path id="Trazado_1008568" data-name="Trazado 1008568" d="M224.848,160,208,176.848v3.37L228.218,160Zm0,0" transform="translate(-178.797 -137.536)" fill="#ffb680"/>
      <path id="Trazado_1008569" data-name="Trazado 1008569" d="M271.587,224v12.917H262.04l-1.685-1.685H248a2.2,2.2,0,0,0,.663,1.584,1.974,1.974,0,0,0,.517.393,2.274,2.274,0,0,0,1.067.27h6.739l3.37,3.37h14.6V227.37Zm0,0" transform="translate(-213.18 -192.55)" fill="#ffb680"/>
      <path id="Trazado_1008570" data-name="Trazado 1008570" d="M301.478,251.37h-6.739l-2.246,2.246H288L293.616,248h5.616a2.247,2.247,0,0,1,2.246,2.246Zm0,0" transform="translate(-247.565 -213.181)" fill="#ffb680"/>
      <path id="Trazado_1008571" data-name="Trazado 1008571" d="M352,164.493l2.246,2.246,4.493-4.493L356.493,160Zm0,0" transform="translate(-302.579 -137.536)" fill="#afb4c8"/>
      <path id="Trazado_1008572" data-name="Trazado 1008572" d="M176,340.493l6.739-2.246L180.493,336Zm0,0" transform="translate(-151.289 -288.825)" fill="#afb4c8"/>
      <path id="Trazado_1008573" data-name="Trazado 1008573" d="M208,212.218l2.246,2.246,4.493-4.493.056-.27a1.973,1.973,0,0,1-.517-.393,2.2,2.2,0,0,1-.663-1.584,2.254,2.254,0,0,1,2.246-2.246h3.37l11.232-11.232L228.218,192Zm0,0" transform="translate(-178.797 -165.043)" fill="#fc9942"/>
      <g id="Grupo_1183201" data-name="Grupo 1183201">
        <path id="Trazado_1008574" data-name="Trazado 1008574" d="M104.16,310.327H63.725V297.971a1.123,1.123,0,0,0-1.123-1.123H50.246V280H48v17.971a1.123,1.123,0,0,0,.329.794l13.478,13.478a1.129,1.129,0,0,0,.794.329h42.682a1.123,1.123,0,0,0,1.123-1.123V294.6H104.16ZM51.835,299.095h9.644v9.644Zm0,0" transform="translate(-41.261 -240.688)"/>
        <path id="Trazado_1008575" data-name="Trazado 1008575" d="M50.246,2.246H104.16V29.2h2.246V1.123A1.123,1.123,0,0,0,105.284,0H49.123A1.123,1.123,0,0,0,48,1.123V7.862h2.246Zm0,0" transform="translate(-41.261)"/>
        <path id="Trazado_1008576" data-name="Trazado 1008576" d="M215.18,148.358h-8.986a1.116,1.116,0,0,0-1.045.735l-5.229-5.228,1.452-1.452a1.124,1.124,0,0,0,0-1.588l-4.493-4.493a1.124,1.124,0,0,0-1.588,0l-1.917,1.917h-7.4a1.123,1.123,0,0,0-.794.329l-12.355,12.355a1.123,1.123,0,0,0-.329.794v7.4l-1.917,1.917a1.1,1.1,0,0,0-.261.443h-.012l-2.246,6.739a1.124,1.124,0,0,0,1.066,1.475,1.147,1.147,0,0,0,.355-.057l6.739-2.246v-.012a1.092,1.092,0,0,0,.443-.26l4.225-4.225a3.374,3.374,0,0,0,.594.061h6.274L190.8,166a1.123,1.123,0,0,0,.794.329h13.478v1.123a1.123,1.123,0,0,0,1.123,1.123h8.986a1.123,1.123,0,0,0,1.123-1.123V149.481a1.123,1.123,0,0,0-1.123-1.123Zm-19.095-9.644,2.9,2.9-2.9,2.9-2.9-2.9Zm-21.341,13.478,11.7-11.7h4.686l-16.383,16.383Zm-2.879,11.723,1.923,1.923-2.884.961Zm4,.825-2.9-2.9,18.63-18.63,2.9,2.9L184.388,156.22h-2.9a3.351,3.351,0,0,0-2.592,5.5Zm16.19-.658-3.041-3.041a1.123,1.123,0,0,0-.794-.329h-6.739a1.123,1.123,0,1,1,0-2.246h7.862a1.123,1.123,0,0,0,.794-.329l1.917-1.917h6.274v-2.246h-6.739a1.123,1.123,0,0,0-.794.329l-1.917,1.917h-1.316l10.767-10.767,6.739,6.739v11.89Zm22,2.246h-6.739V150.6h6.739Zm0,0" transform="translate(-144.418 -116.908)"/>
        <path id="Trazado_1008577" data-name="Trazado 1008577" d="M29.2,78.6A14.6,14.6,0,1,0,14.6,93.2,14.6,14.6,0,0,0,29.2,78.6Zm-26.957,0A12.355,12.355,0,1,1,14.6,90.957,12.355,12.355,0,0,1,2.246,78.6Zm0,0" transform="translate(0 -55.014)"/>
        <path id="Trazado_1008578" data-name="Trazado 1008578" d="M52.218,106.109a10.109,10.109,0,1,0-10.109,10.109A10.109,10.109,0,0,0,52.218,106.109Zm-17.971,0a7.862,7.862,0,1,1,7.862,7.862A7.862,7.862,0,0,1,34.246,106.109Zm0,0" transform="translate(-27.507 -82.522)"/>
        <path id="Trazado_1008579" data-name="Trazado 1008579" d="M77.616,133.478v-1.123h1.123a1.123,1.123,0,0,0,.794-.329l1.123-1.123a1.123,1.123,0,0,0,.329-.794v-2.246a1.123,1.123,0,0,0-.329-.794l-1.123-1.123a1.123,1.123,0,0,0-.794-.329H74.711l-.465-.465v-1.316l.465-.465h3.563l.465.465v.658h2.246V123.37a1.123,1.123,0,0,0-.329-.794l-1.123-1.123a1.123,1.123,0,0,0-.794-.329H77.616V120H75.37v1.123H74.246a1.123,1.123,0,0,0-.794.329l-1.123,1.123a1.123,1.123,0,0,0-.329.794v2.246a1.123,1.123,0,0,0,.329.794l1.123,1.123a1.123,1.123,0,0,0,.794.329h4.028l.465.465v1.316l-.465.465H74.711l-.465-.465v-.658H72v1.123a1.123,1.123,0,0,0,.329.794l1.123,1.123a1.123,1.123,0,0,0,.794.329H75.37v1.123Zm0,0" transform="translate(-61.891 -103.152)"/>
        <path id="Trazado_1008580" data-name="Trazado 1008580" d="M320,32h15.725v2.246H320Zm0,0" transform="translate(-275.072 -27.507)"/>
        <path id="Trazado_1008581" data-name="Trazado 1008581" d="M336,64h13.478v2.246H336Zm0,0" transform="translate(-288.825 -55.014)"/>
        <path id="Trazado_1008582" data-name="Trazado 1008582" d="M207.587,390.739a1.123,1.123,0,0,0,1.123-1.123v-4.493A1.123,1.123,0,0,0,207.587,384H184v2.246h22.464v2.246H194.109a1.123,1.123,0,0,0-1.123,1.123v4.493a1.123,1.123,0,0,0,1.123,1.123h20.218v-2.246H195.232v-2.246Zm0,0" transform="translate(-158.166 -330.086)"/>
        <path id="Trazado_1008583" data-name="Trazado 1008583" d="M416,448h2.246v2.246H416Zm0,0" transform="translate(-357.593 -385.1)"/>
      </g>
    </g>
  </g>
</svg>
