<svg xmlns="http://www.w3.org/2000/svg" width="84" height="84" viewBox="0 0 84 84">
  <g id="Grupo_1182509" data-name="Grupo 1182509" transform="translate(-186 -1357)">
    <rect id="Rectángulo_402006" data-name="Rectángulo 402006" width="84" height="84" rx="5" transform="translate(186 1357)" fill="#ff984a"/>
    <g id="Grupo_1183341" data-name="Grupo 1183341" transform="translate(199.8 1378.261)">
      <path id="Trazado_1008966" data-name="Trazado 1008966" d="M159.45,180.934h-6.524a1.1,1.1,0,0,0-1.1,1.1v.931h-6.86a1.1,1.1,0,0,0-.421.084l-8.788,3.637a4.1,4.1,0,0,0-2.206,5.383l.03.07a4.224,4.224,0,0,0,1.086,1.518,8.442,8.442,0,0,1-4.1.08l-8.627-1.976a4,4,0,0,0-1.877,7.77l10.294,2.616a10.618,10.618,0,0,0,6.526-.408l13.091-5.134h1.855v.58a1.1,1.1,0,0,0,1.1,1.1h6.524a1.1,1.1,0,0,0,1.1-1.1v-15.15a1.1,1.1,0,0,0-1.1-1.1ZM149.76,194.4a1.105,1.105,0,0,0-.4.076l-13.286,5.211a8.424,8.424,0,0,1-5.178.324L120.6,197.4a1.794,1.794,0,0,1,.842-3.487l8.627,1.975a10.637,10.637,0,0,0,6.211-.441l2.5-.963c.052-.018.1-.037.154-.056,2.213-.853,5.038-1.939,5.645-2.173l.118-.046a1.1,1.1,0,1,0-.791-2.056l-.129.049-5.742,2.208a1.977,1.977,0,0,1-2.433-1.126l-.03-.071a1.894,1.894,0,0,1,1.02-2.488l8.585-3.553h6.641V194.4Zm8.588,1.681h-4.321V183.137h4.321Zm0,0" transform="translate(-104.151 -161.003)" fill="#53435c"/>
      <path id="Trazado_1008967" data-name="Trazado 1008967" d="M10.727,19.471h-2V9.178h.305a5.178,5.178,0,0,0,2.352-.568,1.086,1.086,0,0,0,.1-.058L18.618,3.9a2.969,2.969,0,0,1,3.066.286l.515.384c-.031.044-.062.09-.092.134-.136.2-.267.4-.39.606a10.688,10.688,0,0,0-1.431,4.164,3.323,3.323,0,0,0,.362,6.625H28.8a1.688,1.688,0,0,1,.68,3.232,1.433,1.433,0,0,1-.2.071l-.016.005a1.682,1.682,0,0,1-.469.065H19.538a1.1,1.1,0,1,0,0,2.2H28.8a3.91,3.91,0,0,0,.838-.091,11,11,0,0,0,1.4.092A10.837,10.837,0,1,0,23.655,2.906L23,2.418a5.186,5.186,0,0,0-5.437-.457,1.135,1.135,0,0,0-.1.057L10.333,6.673a2.965,2.965,0,0,1-1.3.3H8.727v-.4a1.1,1.1,0,0,0-1.1-1.1H1.1A1.1,1.1,0,0,0,0,6.576v15.15a1.1,1.1,0,0,0,1.1,1.1H7.626a1.1,1.1,0,0,0,1.1-1.1v-.052h2a1.1,1.1,0,1,0,0-2.2Zm8.8-6.7a1.118,1.118,0,0,1,.708-1.041,10.715,10.715,0,0,0,.4,2.16,1.12,1.12,0,0,1-1.109-1.119Zm20.143-1.937a8.648,8.648,0,0,1-7.315,8.533,3.921,3.921,0,0,0,.337-1.587,3.87,3.87,0,0,0-.483-1.879,2.3,2.3,0,0,0,1.945-2.277V12a2.311,2.311,0,0,0-2.309-2.309H30.232a.106.106,0,0,1-.105-.105V8.047a.105.105,0,0,1,.105-.1h1.616a.105.105,0,0,1,.105.1,1.1,1.1,0,1,0,2.2,0A2.311,2.311,0,0,0,32.141,5.76V5.378a1.1,1.1,0,1,0-2.2,0V5.76a2.31,2.31,0,0,0-2.015,2.287V9.585a2.311,2.311,0,0,0,2.309,2.309h1.616a.106.106,0,0,1,.105.105v1.629a.105.105,0,0,1-.105.1H30.232a.106.106,0,0,1-.105-.1v-.149a1.1,1.1,0,1,0-2.2,0v.149a2.351,2.351,0,0,0,.016.265H22.961a8.649,8.649,0,0,1,.768-7.65,8.793,8.793,0,0,1,.833-1.114,8.633,8.633,0,0,1,15.11,5.708ZM6.524,20.625H2.2V7.678H6.524Zm0,0" transform="translate(0)" fill="#53435c"/>
      <path id="Trazado_1008968" data-name="Trazado 1008968" d="M129.1,177.259a1.1,1.1,0,1,0-.136,1.39,1.108,1.108,0,0,0,.136-1.39Zm0,0" transform="translate(-113.083 -157.297)" fill="#53435c"/>
    </g>
  </g>
</svg>
