<svg xmlns="http://www.w3.org/2000/svg" width="84" height="84" viewBox="0 0 84 84">
  <g id="Grupo_1182399" data-name="Grupo 1182399" transform="translate(-186 -1357)">
    <rect id="Rectángulo_402006" data-name="Rectángulo 402006" width="84" height="84" rx="5" transform="translate(186 1357)" fill="#ff984a"/>
    <g id="Grupo_1183148" data-name="Grupo 1183148" transform="translate(184.615 1356.109)">
      <path id="Trazado_1008234" data-name="Trazado 1008234" d="M120,264h2.735v1.823H120Z" transform="translate(-92.148 -220.169)" fill="#53435c"/>
      <path id="Trazado_1008235" data-name="Trazado 1008235" d="M176,304h2.735v1.823H176Z" transform="translate(-141.766 -255.61)" fill="#53435c"/>
      <path id="Trazado_1008236" data-name="Trazado 1008236" d="M120,304h4.559v1.823H120Z" transform="translate(-92.148 -255.61)" fill="#53435c"/>
      <path id="Trazado_1008237" data-name="Trazado 1008237" d="M56,304h5.47v1.823H56Z" transform="translate(-35.442 -255.61)" fill="#53435c"/>
      <path id="Trazado_1008238" data-name="Trazado 1008238" d="M104,344h10.941v1.823H104Z" transform="translate(-77.971 -291.052)" fill="#53435c"/>
      <path id="Trazado_1008239" data-name="Trazado 1008239" d="M56,344h3.647v1.823H56Z" transform="translate(-35.442 -291.052)" fill="#53435c"/>
      <path id="Trazado_1008240" data-name="Trazado 1008240" d="M152,384h5.47v1.823H152Z" transform="translate(-120.501 -326.493)" fill="#53435c"/>
      <path id="Trazado_1008241" data-name="Trazado 1008241" d="M56,384h9.117v1.823H56Z" transform="translate(-35.442 -326.493)" fill="#53435c"/>
      <path id="Trazado_1008242" data-name="Trazado 1008242" d="M104,424h5.47v1.823H104Z" transform="translate(-77.971 -361.934)" fill="#53435c"/>
      <path id="Trazado_1008243" data-name="Trazado 1008243" d="M56,424h3.647v1.823H56Z" transform="translate(-35.442 -361.934)" fill="#53435c"/>
      <path id="Trazado_1008244" data-name="Trazado 1008244" d="M68.881,211.647a.912.912,0,0,0-.912-.912H62.5a.912.912,0,0,0-.912.912v4.559H57.029a.912.912,0,0,0-.912.912v4.559H51.558a.912.912,0,0,0-.912.912v4.559H46.088a.912.912,0,0,0-.912.912v5.47H38.637a2.735,2.735,0,1,0,0,1.824h1.069v2.735a.913.913,0,0,1-.912.912H18.735a.913.913,0,0,1-.912-.912v-20.97h4.559a2.738,2.738,0,0,0,2.735-2.735v-4.559H38.794a.913.913,0,0,1,.912.912v.912h1.823v-.912A2.738,2.738,0,0,0,38.794,208H24.961a2.717,2.717,0,0,0-1.934.8L16.8,215.027a2.717,2.717,0,0,0-.8,1.934v21.127a2.738,2.738,0,0,0,2.735,2.735H38.794a2.738,2.738,0,0,0,2.735-2.735v-2.735H70.7v-1.824H68.881Zm-45.587-.534v3.269a.913.913,0,0,1-.912.912H19.113Zm12.764,24.239a.912.912,0,1,1,.912-.912A.912.912,0,0,1,36.058,235.352ZM47,228.97h3.647v4.559H47Zm5.47-5.47h3.647v10.029H52.47Zm5.47-5.47h3.647v15.5H57.94Zm5.47,15.5v-20.97h3.647v20.97Z" transform="translate(-0.001 -170.551)" fill="#53435c"/>
      <path id="Trazado_1008245" data-name="Trazado 1008245" d="M18.735,74.225A2.735,2.735,0,0,0,21.2,70.311l2.736-2.736A2.734,2.734,0,0,0,27.7,66.019h3.961a2.735,2.735,0,0,0,5.276-.46l5.149-4.413a2.735,2.735,0,1,0-1.24-1.339l-4.362,3.739a2.733,2.733,0,0,0-4.822.65H27.7a2.735,2.735,0,1,0-5.046,2.09l-2.736,2.736a2.735,2.735,0,1,0-1.179,5.2ZM43.352,57.814a.912.912,0,1,1-.912.912A.912.912,0,0,1,43.352,57.814ZM34.234,64.2a.912.912,0,1,1-.912.912A.912.912,0,0,1,34.234,64.2Zm-9.117,0a.912.912,0,1,1-.912.912A.912.912,0,0,1,25.117,64.2Zm-6.382,6.382a.912.912,0,1,1-.912.912.912.912,0,0,1,.912-.912Z" transform="translate(0 -35.865)" fill="#53435c"/>
      <path id="Trazado_1008246" data-name="Trazado 1008246" d="M179.321,36.893l-6.027,6.027H165.31a2.735,2.735,0,1,0,0,1.823h1.98V61.154h1.824V44.743h4.559a.912.912,0,0,0,.645-.267l6.58-6.58a11.885,11.885,0,1,0-1.576-1Zm-16.59,7.85a.912.912,0,1,1,.912-.912A.912.912,0,0,1,162.732,44.743ZM193.75,34.275l-5.283-5.943h7.957a10,10,0,0,1-2.674,5.943Zm2.674-7.767h-9.076V17.432a10.046,10.046,0,0,1,9.076,9.076Zm-10.9-9.076V27.42a.907.907,0,0,0,.231.605h0l6.633,7.462a10.027,10.027,0,1,1-6.863-18.055Z" transform="translate(-127.586)" fill="#53435c"/>
    </g>
  </g>
</svg>
