<svg xmlns="http://www.w3.org/2000/svg" width="128" height="128" viewBox="0 0 128 128">
  <g id="Grupo_1182433" data-name="Grupo 1182433" transform="translate(-72.746 -7992)">
    <g id="Elipse_13628" data-name="Elipse 13628" transform="translate(72.746 7992)" fill="#fdf3e6" stroke="#ff984a" stroke-width="6">
      <circle cx="64" cy="64" r="64" stroke="none"/>
      <circle cx="64" cy="64" r="61" fill="none"/>
    </g>
    <g id="Grupo_1183187" data-name="Grupo 1183187" transform="translate(103.788 8000.12)">
      <g id="Grupo_1183185" data-name="Grupo 1183185" transform="translate(1.287 27.596)">
        <g id="Grupo_1183184" data-name="Grupo 1183184" transform="translate(0 0)">
          <path id="Trazado_1008405" data-name="Trazado 1008405" d="M10,61.424H73.341v10.3H10Z" transform="translate(-10 -58.191)" fill="#d1aee5"/>
          <path id="Trazado_1008406" data-name="Trazado 1008406" d="M10,141.424H73.341v31.668H10Z" transform="translate(-10 -127.891)" fill="#eefaff"/>
          <path id="Trazado_1008407" data-name="Trazado 1008407" d="M290.73,36.309h5.15v8.383h-5.15Z" transform="translate(-254.588 -36.309)" fill="#eefaff"/>
          <path id="Trazado_1008408" data-name="Trazado 1008408" d="M181.27,36.309h5.15v8.383h-5.15Z" transform="translate(-159.22 -36.309)" fill="#eefaff"/>
          <path id="Trazado_1008409" data-name="Trazado 1008409" d="M400.19,36.309h5.15v8.383h-5.15Z" transform="translate(-349.956 -36.309)" fill="#eefaff"/>
          <path id="Trazado_1008410" data-name="Trazado 1008410" d="M71.811,36.309h5.15v8.383h-5.15Z" transform="translate(-63.853 -36.309)" fill="#eefaff"/>
          <g id="Grupo_1183183" data-name="Grupo 1183183" transform="translate(7.519 19.797)">
            <path id="Trazado_1008411" data-name="Trazado 1008411" d="M68.4,190.085h6.437v6.437H68.4Z" transform="translate(-68.4 -190.085)" fill="#fff2a0"/>
            <path id="Trazado_1008412" data-name="Trazado 1008412" d="M176.8,190.085h6.437v6.437H176.8Z" transform="translate(-162.844 -190.085)" fill="#fff2a0"/>
            <path id="Trazado_1008413" data-name="Trazado 1008413" d="M285.2,190.085h6.437v6.437H285.2Z" transform="translate(-257.289 -190.085)" fill="#fff2a0"/>
            <path id="Trazado_1008414" data-name="Trazado 1008414" d="M393.6,190.085h6.437v6.437H393.6Z" transform="translate(-351.733 -190.085)" fill="#fff2a0"/>
            <path id="Trazado_1008415" data-name="Trazado 1008415" d="M68.4,288.746h6.437v6.437H68.4Z" transform="translate(-68.4 -276.044)" fill="#fff2a0"/>
            <path id="Trazado_1008416" data-name="Trazado 1008416" d="M176.8,288.746h6.437v6.437H176.8Z" transform="translate(-162.844 -276.044)" fill="#fff2a0"/>
          </g>
          <circle id="Elipse_16075" data-name="Elipse 16075" cx="12.037" cy="12.037" r="12.037" transform="translate(33.589 32.492)" fill="#a0e5a5"/>
        </g>
      </g>
      <g id="Grupo_1183186" data-name="Grupo 1183186" transform="translate(0 26.309)">
        <circle id="Elipse_16076" data-name="Elipse 16076" cx="1.287" cy="1.287" r="1.287" transform="translate(17.578 45.201)"/>
        <path id="Trazado_1008417" data-name="Trazado 1008417" d="M64.629,29.542h-6.67V27.6a1.288,1.288,0,0,0-1.287-1.287h-5.15A1.287,1.287,0,0,0,50.234,27.6v1.946H43.866V27.6a1.288,1.288,0,0,0-1.287-1.287h-5.15A1.288,1.288,0,0,0,36.142,27.6v1.946H29.774V27.6a1.287,1.287,0,0,0-1.287-1.287h-5.15A1.288,1.288,0,0,0,22.05,27.6v1.946H15.682V27.6a1.288,1.288,0,0,0-1.287-1.287H9.245A1.288,1.288,0,0,0,7.958,27.6v1.946H1.287A1.287,1.287,0,0,0,0,30.83V72.8a1.287,1.287,0,0,0,1.287,1.287H13.073a1.287,1.287,0,0,0,0-2.575H2.575V42.417H63.341V71.51H60.224a13.324,13.324,0,0,0-26.62,0H24.659a1.287,1.287,0,1,0,0,2.575h9.074a13.325,13.325,0,0,0,26.361,0h4.534A1.288,1.288,0,0,0,65.916,72.8V30.83A1.287,1.287,0,0,0,64.629,29.542ZM46.914,82.876a10.75,10.75,0,1,1,10.75-10.75A10.762,10.762,0,0,1,46.914,82.876Zm5.9-53.992h2.575v5.808H52.809Zm-14.092,0h2.575v5.808H38.717Zm-14.092,0H27.2v5.808H24.625Zm-14.092,0h2.575v5.808H10.533ZM2.575,39.842V32.117H7.958v3.862a1.288,1.288,0,0,0,1.287,1.287h5.15a1.288,1.288,0,0,0,1.287-1.287V32.117H22.05v3.862a1.288,1.288,0,0,0,1.287,1.287h5.15a1.287,1.287,0,0,0,1.287-1.287V32.117h6.368v3.862a1.288,1.288,0,0,0,1.287,1.287h5.15a1.288,1.288,0,0,0,1.287-1.287V32.117h6.367v3.862a1.287,1.287,0,0,0,1.287,1.287h5.15a1.288,1.288,0,0,0,1.287-1.287V32.117h5.383v7.725Z" transform="translate(0 -26.309)"/>
        <path id="Trazado_1008418" data-name="Trazado 1008418" d="M66.125,180.085H59.687a1.288,1.288,0,0,0-1.287,1.287v6.437a1.287,1.287,0,0,0,1.287,1.287h6.437a1.287,1.287,0,0,0,1.287-1.287v-6.437A1.287,1.287,0,0,0,66.125,180.085Zm-1.287,6.437H60.975V182.66h3.862Z" transform="translate(-50.881 -160.288)"/>
        <path id="Trazado_1008419" data-name="Trazado 1008419" d="M168.087,189.1h6.437a1.287,1.287,0,0,0,1.287-1.287v-6.437a1.288,1.288,0,0,0-1.287-1.287h-6.437a1.287,1.287,0,0,0-1.287,1.287v6.437A1.287,1.287,0,0,0,168.087,189.1Zm1.287-6.437h3.862v3.862h-3.862Z" transform="translate(-145.326 -160.288)"/>
        <path id="Trazado_1008420" data-name="Trazado 1008420" d="M282.925,189.1a1.287,1.287,0,0,0,1.287-1.287v-6.437a1.288,1.288,0,0,0-1.287-1.287h-6.437a1.288,1.288,0,0,0-1.287,1.287v6.437a1.287,1.287,0,0,0,1.287,1.287Zm-5.15-6.437h3.862v3.862h-3.862Z" transform="translate(-239.77 -160.288)"/>
        <path id="Trazado_1008421" data-name="Trazado 1008421" d="M391.325,189.1a1.287,1.287,0,0,0,1.287-1.287v-6.437a1.288,1.288,0,0,0-1.287-1.287h-6.437a1.287,1.287,0,0,0-1.287,1.287v6.437a1.287,1.287,0,0,0,1.287,1.287Zm-5.15-6.437h3.862v3.862h-3.862Z" transform="translate(-334.215 -160.288)"/>
        <path id="Trazado_1008422" data-name="Trazado 1008422" d="M66.125,278.745H59.687a1.288,1.288,0,0,0-1.287,1.287v6.437a1.288,1.288,0,0,0,1.287,1.287h6.437a1.288,1.288,0,0,0,1.287-1.287v-6.437A1.287,1.287,0,0,0,66.125,278.745Zm-1.287,6.437H60.975V281.32h3.862Z" transform="translate(-50.881 -246.246)"/>
        <path id="Trazado_1008423" data-name="Trazado 1008423" d="M175.812,286.47v-6.437a1.288,1.288,0,0,0-1.287-1.287h-6.437a1.287,1.287,0,0,0-1.287,1.287v6.437a1.287,1.287,0,0,0,1.287,1.287h6.437A1.287,1.287,0,0,0,175.812,286.47Zm-2.575-1.287h-3.862V281.32h3.862Z" transform="translate(-145.326 -246.246)"/>
        <path id="Trazado_1008424" data-name="Trazado 1008424" d="M336.492,325.579a1.549,1.549,0,1,1,1.074-2.664,1.287,1.287,0,1,0,1.791-1.85,4.1,4.1,0,0,0-1.578-.953v-.133a1.287,1.287,0,0,0-2.575,0v.134a4.124,4.124,0,0,0,1.287,8.041,1.549,1.549,0,1,1-1.074,2.664,1.287,1.287,0,0,0-1.791,1.85,4.1,4.1,0,0,0,1.578.953v.133a1.287,1.287,0,0,0,2.575,0v-.134a4.124,4.124,0,0,0-1.288-8.041Z" transform="translate(-289.578 -281.049)"/>
      </g>
    </g>
  </g>
</svg>
