<svg xmlns="http://www.w3.org/2000/svg" width="128" height="128" viewBox="0 0 128 128">
  <g id="Grupo_1182455" data-name="Grupo 1182455" transform="translate(-72.746 -7992)">
    <g id="Elipse_13628" data-name="Elipse 13628" transform="translate(72.746 7992)" fill="#fdf3e6" stroke="#ff984a" stroke-width="6">
      <circle cx="64" cy="64" r="64" stroke="none"/>
      <circle cx="64" cy="64" r="61" fill="none"/>
    </g>
    <g id="Grupo_1183210" data-name="Grupo 1183210" transform="translate(102.286 8006.25)">
      <g id="Grupo_1183208" data-name="Grupo 1183208" transform="translate(1.01 18.676)">
        <g id="Grupo_1183207" data-name="Grupo 1183207" transform="translate(0 0)">
          <g id="Grupo_1183206" data-name="Grupo 1183206">
            <path id="Trazado_1008584" data-name="Trazado 1008584" d="M115.359,127.167H78.88a1.493,1.493,0,0,1-1.493-1.493V72.787a1.493,1.493,0,0,1,1.493-1.493h36.48a1.493,1.493,0,0,1,1.493,1.493v52.887A1.493,1.493,0,0,1,115.359,127.167Z" transform="translate(-67.979 -65.084)" fill="#27d1b3"/>
            <path id="Trazado_1008585" data-name="Trazado 1008585" d="M115.359,71.292h-5.974a1.493,1.493,0,0,1,1.493,1.493v41.459H77.387v9.919h33.491v1.509a1.492,1.492,0,0,1-1.493,1.493h5.974a1.492,1.492,0,0,0,1.493-1.493V72.785A1.493,1.493,0,0,0,115.359,71.292Z" transform="translate(-67.979 -65.083)" fill="#20b69f"/>
            <path id="Trazado_1008586" data-name="Trazado 1008586" d="M46.966,26.66V79.546a1.493,1.493,0,0,1-1.493,1.493H8.993A1.492,1.492,0,0,1,7.5,79.546V26.66a1.492,1.492,0,0,1,1.493-1.493h36.48A1.493,1.493,0,0,1,46.966,26.66Z" transform="translate(-7.5 -25.167)" fill="#e8edf1"/>
            <path id="Trazado_1008587" data-name="Trazado 1008587" d="M192.878,48.4V26.657a1.492,1.492,0,0,0-1.492-1.492H185.7a1.493,1.493,0,0,1,1.492,1.492V50.135a19.539,19.539,0,0,0-5.872,30.9h10.062c.052,0,.1,0,.153-.008a1.493,1.493,0,0,0,1.34-1.485V48.4h0Z" transform="translate(-153.413 -25.165)" fill="#c5d3dd"/>
            <g id="Grupo_1183205" data-name="Grupo 1183205" transform="translate(27.793 23.037)">
              <g id="Grupo_1183203" data-name="Grupo 1183203">
                <circle id="Elipse_16080" data-name="Elipse 16080" cx="19.554" cy="19.554" r="19.554" transform="translate(0 0)" fill="#e8edf1"/>
                <path id="Trazado_1008588" data-name="Trazado 1008588" d="M360.519,215.855a19.566,19.566,0,0,1-22.4,19.348,19.556,19.556,0,0,0,0-38.7,19.566,19.566,0,0,1,22.4,19.349Z" transform="translate(-321.41 -196.3)" fill="#c5d3dd"/>
                <circle id="Elipse_16081" data-name="Elipse 16081" cx="14.424" cy="14.424" r="14.424" transform="translate(5.131 5.131)" fill="#fb3a82"/>
                <path id="Trazado_1008589" data-name="Trazado 1008589" d="M355.388,248.844a14.424,14.424,0,0,1-17.265,14.141,14.424,14.424,0,0,0,0-28.282,14.424,14.424,0,0,1,17.265,14.141Z" transform="translate(-321.41 -229.289)" fill="#e01058"/>
                <circle id="Elipse_16082" data-name="Elipse 16082" cx="9.293" cy="9.293" r="9.293" transform="translate(10.261 10.262)" fill="#e8edf1"/>
                <path id="Trazado_1008590" data-name="Trazado 1008590" d="M350.258,281.824a9.3,9.3,0,0,1-12.135,8.849,9.3,9.3,0,0,0,0-17.7,9.3,9.3,0,0,1,12.135,8.85Z" transform="translate(-321.41 -262.269)" fill="#c5d3dd"/>
              </g>
              <g id="Grupo_1183204" data-name="Grupo 1183204" transform="translate(16.88 16.88)">
                <circle id="Elipse_16083" data-name="Elipse 16083" cx="2.675" cy="2.675" r="2.675" fill="#fb3a82"/>
              </g>
            </g>
          </g>
        </g>
      </g>
      <g id="Grupo_1183209" data-name="Grupo 1183209" transform="translate(0 17.667)">
        <path id="Trazado_1008591" data-name="Trazado 1008591" d="M58.739,239.094,56.1,241.73,54.97,240.6a1.01,1.01,0,0,0-1.428,1.428l1.846,1.846a1.009,1.009,0,0,0,1.428,0l3.351-3.351a1.01,1.01,0,1,0-1.428-1.428Z" transform="translate(-46.079 -209.031)"/>
        <path id="Trazado_1008592" data-name="Trazado 1008592" d="M131.367,240.817h.007a1.013,1.013,0,1,0-.007,0Z" transform="translate(-112.809 -209.031)"/>
        <path id="Trazado_1008593" data-name="Trazado 1008593" d="M156.09,238.8a1.01,1.01,0,1,0,0,2.019h.007a1.01,1.01,0,0,0-.007-2.019Z" transform="translate(-134.204 -209.031)"/>
        <path id="Trazado_1008594" data-name="Trazado 1008594" d="M58.739,316.809,56.1,319.446l-1.132-1.132a1.01,1.01,0,0,0-1.428,1.428l1.846,1.846a1.009,1.009,0,0,0,1.428,0l3.351-3.351a1.01,1.01,0,1,0-1.428-1.428Z" transform="translate(-46.079 -276.285)"/>
        <path id="Trazado_1008595" data-name="Trazado 1008595" d="M131.367,318.532h.007a1.013,1.013,0,1,0-.007,0Z" transform="translate(-112.809 -276.285)"/>
        <path id="Trazado_1008596" data-name="Trazado 1008596" d="M156.09,318.532h.007a1.013,1.013,0,1,0-.007,0Z" transform="translate(-134.204 -276.285)"/>
        <path id="Trazado_1008597" data-name="Trazado 1008597" d="M50.892,40.86V26.379a2.505,2.505,0,0,0-2.5-2.5h-6.9V20.169a2.505,2.505,0,0,0-2.5-2.5H2.5a2.505,2.505,0,0,0-2.5,2.5V73.056a2.505,2.505,0,0,0,2.5,2.5H9.408v3.707a2.505,2.505,0,0,0,2.5,2.5H22.52a1.01,1.01,0,1,0,0-2.019H11.91a.484.484,0,0,1-.483-.483V75.558H33.585a20.667,20.667,0,0,0,5.76,4.19H26.94a1.01,1.01,0,1,0,0,2.019h19.8q.8.063,1.617.063h0a20.584,20.584,0,0,0,13.051-4.685,1.01,1.01,0,1,0-1.283-1.559,18.568,18.568,0,0,1-10.759,4.2V76.667a15.455,15.455,0,0,0,14.39-14.39h3.118a18.332,18.332,0,0,1-3.83,10.3,1.01,1.01,0,1,0,1.6,1.234,20.353,20.353,0,0,0,4.279-12.542A20.594,20.594,0,0,0,50.892,40.86Zm15.982,19.4H63.757a15.455,15.455,0,0,0-14.39-14.39V42.751A18.571,18.571,0,0,1,66.874,60.258Zm-8.264,0a10.32,10.32,0,0,0-9.243-9.243V47.892A13.435,13.435,0,0,1,61.733,60.258Zm-3.436,2.019h1.4a8.3,8.3,0,0,1-7.21,7.21v-1.4a1.01,1.01,0,1,0-2.019,0v1.4a8.3,8.3,0,0,1-7.21-7.21h1.4a1.01,1.01,0,0,0,0-2.019h-1.4a8.3,8.3,0,0,1,7.21-7.21v1.4a1.01,1.01,0,1,0,2.019,0v-1.4a8.3,8.3,0,0,1,7.21,7.21h-1.4a1.01,1.01,0,1,0,0,2.019ZM29.84,60.258A18.571,18.571,0,0,1,47.348,42.751v3.117a15.455,15.455,0,0,0-14.39,14.39ZM47.348,47.892v3.124A10.32,10.32,0,0,0,38.1,60.258H34.981A13.435,13.435,0,0,1,47.348,47.892ZM38.1,62.277a10.32,10.32,0,0,0,9.243,9.243v3.124A13.435,13.435,0,0,1,34.981,62.277ZM2.5,73.539a.484.484,0,0,1-.483-.483V20.169a.484.484,0,0,1,.483-.483h36.48a.484.484,0,0,1,.483.483V31.883a1.01,1.01,0,1,0,2.019,0V25.9h6.9a.484.484,0,0,1,.483.483V40.711q-.257-.006-.516-.007a20.471,20.471,0,0,0-6.872,1.182V36.3a1.01,1.01,0,1,0-2.019,0v6.425a20.676,20.676,0,0,0-6.311,4.706h-7.7a1.01,1.01,0,1,0,0,2.019h6.084q-.529.751-.991,1.548H18.557a1.01,1.01,0,1,0,0,2.019H29.522a20.392,20.392,0,0,0-1.45,4.875H25.452a1.01,1.01,0,1,0,0,2.019h2.387c-.029.447-.046.9-.046,1.353,0,.065,0,.13,0,.2H18.557a1.01,1.01,0,0,0,0,2.019h9.356a20.453,20.453,0,0,0,3.953,10.057H2.5ZM29.84,62.277h3.118a15.455,15.455,0,0,0,14.39,14.39v3.082h-.52A18.572,18.572,0,0,1,29.84,62.277ZM49.367,74.644V71.52a10.32,10.32,0,0,0,9.243-9.243h3.124A13.435,13.435,0,0,1,49.367,74.644Z" transform="translate(0 -17.667)"/>
        <path id="Trazado_1008598" data-name="Trazado 1008598" d="M335.547,314.2a3.684,3.684,0,1,0,3.684,3.684A3.688,3.688,0,0,0,335.547,314.2Zm0,5.349a1.665,1.665,0,1,1,1.665-1.665A1.667,1.667,0,0,1,335.547,319.546Z" transform="translate(-287.19 -274.28)"/>
        <path id="Trazado_1008599" data-name="Trazado 1008599" d="M58.739,83.663,56.1,86.3,54.97,85.167a1.01,1.01,0,0,0-1.428,1.428l1.846,1.846a1.009,1.009,0,0,0,1.428,0l3.351-3.351a1.01,1.01,0,1,0-1.428-1.428Z" transform="translate(-46.079 -74.523)"/>
        <path id="Trazado_1008600" data-name="Trazado 1008600" d="M131.367,85.386h.007a1.013,1.013,0,1,0-.007,0Z" transform="translate(-112.809 -74.523)"/>
        <path id="Trazado_1008601" data-name="Trazado 1008601" d="M156.09,85.386h.007a1.013,1.013,0,1,0-.007,0Z" transform="translate(-134.204 -74.523)"/>
        <path id="Trazado_1008602" data-name="Trazado 1008602" d="M131.367,111.887h15.556a1.01,1.01,0,1,0,0-2.019H131.367a1.01,1.01,0,1,0,0,2.019Z" transform="translate(-112.809 -97.457)"/>
        <path id="Trazado_1008603" data-name="Trazado 1008603" d="M182.585,85.386h8.662a1.01,1.01,0,0,0,0-2.019h-8.662a1.01,1.01,0,0,0,0,2.019Z" transform="translate(-157.133 -74.523)"/>
        <path id="Trazado_1008604" data-name="Trazado 1008604" d="M58.739,161.378,56.1,164.015l-1.132-1.132a1.01,1.01,0,0,0-1.428,1.428l1.846,1.846a1.009,1.009,0,0,0,1.428,0l3.351-3.351a1.01,1.01,0,1,0-1.428-1.428Z" transform="translate(-46.079 -141.777)"/>
        <path id="Trazado_1008605" data-name="Trazado 1008605" d="M131.367,163.1h.007a1.013,1.013,0,1,0-.007,0Z" transform="translate(-112.809 -141.777)"/>
        <path id="Trazado_1008606" data-name="Trazado 1008606" d="M155.08,162.092a1.01,1.01,0,0,0,1.01,1.01h.007a1.01,1.01,0,1,0-1.017-1.01Z" transform="translate(-134.204 -141.777)"/>
        <path id="Trazado_1008607" data-name="Trazado 1008607" d="M131.367,189.6h15.556a1.01,1.01,0,1,0,0-2.019H131.367a1.01,1.01,0,1,0,0,2.019Z" transform="translate(-112.809 -164.71)"/>
        <path id="Trazado_1008608" data-name="Trazado 1008608" d="M191.246,161.082h-8.662a1.01,1.01,0,0,0,0,2.019h8.662a1.01,1.01,0,1,0,0-2.019Z" transform="translate(-157.133 -141.777)"/>
      </g>
    </g>
  </g>
</svg>
