<svg xmlns="http://www.w3.org/2000/svg" xmlns:xlink="http://www.w3.org/1999/xlink" width="292" height="212" viewBox="0 0 292 212">
  <defs>
    <clipPath id="clip-path">
      <rect id="Rectángulo_458224" data-name="Rectángulo 458224" width="265.303" height="162.198" fill="none"/>
    </clipPath>
    <clipPath id="clip-path-3">
      <rect id="Rectángulo_458099" data-name="Rectángulo 458099" width="23.597" height="28.951" fill="none"/>
    </clipPath>
    <clipPath id="clip-path-4">
      <rect id="Rectángulo_458097" data-name="Rectángulo 458097" width="12.474" height="24.639" fill="none"/>
    </clipPath>
    <clipPath id="clip-path-5">
      <rect id="Rectángulo_458098" data-name="Rectángulo 458098" width="23.597" height="27.44" fill="none"/>
    </clipPath>
    <clipPath id="clip-path-6">
      <rect id="Rectángulo_458100" data-name="Rectángulo 458100" width="53.757" height="39.681" fill="none"/>
    </clipPath>
    <clipPath id="clip-path-7">
      <rect id="Rectángulo_458101" data-name="Rectángulo 458101" width="41.919" height="27.829" fill="none"/>
    </clipPath>
  </defs>
  <g id="Grupo_1182542" data-name="Grupo 1182542" transform="translate(-184.63 -735)">
    <rect id="Rectángulo_457978" data-name="Rectángulo 457978" width="292" height="212" transform="translate(184.63 735)" fill="#cfa9e6"/>
    <g id="Grupo_1182541" data-name="Grupo 1182541" transform="translate(197.63 760)">
      <g id="Grupo_1182540" data-name="Grupo 1182540" clip-path="url(#clip-path)">
        <g id="Grupo_1182539" data-name="Grupo 1182539" transform="translate(0 0)">
          <g id="Grupo_1182538" data-name="Grupo 1182538" clip-path="url(#clip-path)">
            <path id="Trazado_1005406" data-name="Trazado 1005406" d="M249.048,161.792l-225.316-.078s-38.077-52.476-17.77-87.581S55.93,63.808,58.4,38.446c.084-.859.017-1.708.017-2.538,0-.2,0-.392.013-.587C59.193,20.755,68.7,11.342,81.239,5.926q.608-.263,1.224-.512c20-8.105,47.045-6.438,59.016.531,20.37,11.858,20.242,26.13,62.3,21.422s50.085,34.66,39.135,54.716c-15.536,28.46,43.082,23.785,6.129,79.708" transform="translate(0 0.003)" fill="#ebf3fa"/>
            <path id="Trazado_1005407" data-name="Trazado 1005407" d="M1607.881,645.351l-5.476-5.39-5.374-5.289a.973.973,0,0,1-.227-.939c.277-.986,1.948-1.966,2.924-2.788l.1-.083a3.067,3.067,0,0,1,4.31.366l6.569,7.787h0l1.948,2.31a3.067,3.067,0,0,1-.365,4.31l-.1.084a3.068,3.068,0,0,1-4.311-.366" transform="translate(-1446.416 -570.809)" fill="#ffb27d"/>
            <path id="Trazado_1005408" data-name="Trazado 1005408" d="M1029.976,269.1a2.5,2.5,0,0,1-2.232,1.958,23.264,23.264,0,0,1-11.63-1.38c-5.354.025-9.144-1.924-10.291-.915-.042.037-.03.117.03.23,1.05,2.036,17.294,15.58,17.53,17.083.25,1.587-30.216,9.052-30.216,9.052s-4.5-2.806-9.541-6.489c-2.556-1.865-5.249-3.956-7.565-6.021a27.86,27.86,0,0,1-5.331-5.907l-.005-.012a7.181,7.181,0,0,1-.4-.777c-.018-.04-.035-.076-.048-.109a14.9,14.9,0,0,0-3.784-5.035,34.027,34.027,0,0,0-9.457-5.761L979.4,253.077s20.541,2.414,23.827,4.408c4.789,2.908,14.818,5.041,16.748,6.167,1.433.835,8.981,3.546,9.532,3.788a1.9,1.9,0,0,1,.469,1.659" transform="translate(-866.917 -229.247)" fill="#ffb27d"/>
            <path id="Trazado_1005409" data-name="Trazado 1005409" d="M667.432,77.442s-.005.045-.018.131h0a55.94,55.94,0,0,1-1.592,7.434h0c-.039.132-.078.268-.118.4h0l-.055.181h0c-1.292,4.275-3.394,9.013-6.637,10.924h0q-.279.164-.569.3a5.991,5.991,0,0,1-1.41.458,5.771,5.771,0,0,1-1.121.108s-2.844-.342-7.1-.86l-.712-.088c-7.694-.939-19.453-2.394-27.653-3.49,0-.2,0-.392.013-.587.76-14.565,10.264-23.979,22.806-29.395,6.661,3.983,12.9,7.722,17.373,10.4h0l.01.006.835.5.017.01,5.928,3.556" transform="translate(-562.025 -57.036)" fill="#f99746"/>
            <path id="Trazado_1005410" data-name="Trazado 1005410" d="M1065.046,380.283a.25.25,0,0,1,.026.059c2.1,13.291,9.82,11.1,9.82,11.1l-.29,10.925c-2.556-1.865-5.249-3.956-7.565-6.021a27.856,27.856,0,0,1-5.331-5.907l-.005-.012c-.182-.329-.319-.592-.4-.777-.018-.04-.035-.076-.048-.109a14.9,14.9,0,0,0-3.784-5.035c.822-1.4,1.781-3,2.729-4.56a2.735,2.735,0,0,1,4.853.339" transform="translate(-957.894 -342.976)" fill="#efa26f"/>
            <path id="Trazado_1005411" data-name="Trazado 1005411" d="M923.787,173.316s-7.218,6.243-10.191,10.63l2.154,3.736-3.665-.345s-1.866,6.773-.853,9.06l9.993.941,11.519-18.433Z" transform="translate(-825.16 -156.996)" fill="#ed7d2b"/>
            <path id="Trazado_1005412" data-name="Trazado 1005412" d="M920.9,175.059c-.3-2.716,2.338-8.263,2.338-8.263l8.861,1.769-6.822-7.19c1.54-3.187,5.234-8.051,7.519-10.933,1.138-1.435,1.926-2.378,1.926-2.378,6.562,4.987,12.671,9.958,12.671,9.958-2.679,1.038-5.185,3.855-7.271,6.969a64.81,64.81,0,0,0-5.771,11.166c-5.318-.5-13.451-1.1-13.451-1.1" transform="translate(-834.165 -134.122)" fill="#dceaff"/>
            <path id="Trazado_1005413" data-name="Trazado 1005413" d="M920.9,197.935c-.3-2.716,2.338-8.263,2.338-8.263l8.861,1.769-6.822-7.19c1.54-3.187,5.234-8.051,7.519-10.933.117,7.946,7.326,14.549,7.326,14.549a64.811,64.811,0,0,0-5.771,11.166c-5.318-.5-13.451-1.1-13.451-1.1" transform="translate(-834.165 -156.998)" fill="#cbe1fd"/>
            <path id="Trazado_1005414" data-name="Trazado 1005414" d="M1014.206,248.61a1.085,1.085,0,1,1-1.191.968,1.085,1.085,0,0,1,1.191-.968" transform="translate(-917.625 -225.195)" fill="#f99746"/>
            <rect id="Rectángulo_458095" data-name="Rectángulo 458095" width="66.296" height="30.455" transform="matrix(0.962, -0.274, 0.274, 0.962, 109.413, 48.605)" fill="#82b378"/>
            <rect id="Rectángulo_458096" data-name="Rectángulo 458096" width="66.296" height="30.455" transform="matrix(0.983, -0.181, 0.181, 0.983, 112.876, 46.783)" fill="#a8d29f"/>
            <path id="Trazado_1005415" data-name="Trazado 1005415" d="M1294.718,421.745l-2.782-15.084v-.005l-1.369-7.428-.712.131-12.209,2.252h0l-.139.026-9.146,1.686-1.17.216h0l-9.806,1.809L1231.6,410.1h-.005l-.017,0-.438.081h-.013l-.01,0-.656.121.991,5.373,1.159,6.282,2.5,13.571,14.088-2.6.627-.116,2.336-.431.52-.1.686-.126.626-.116,1.195-.221,2.914-.538.827-.152,1.147-.212,1-.184,5.851-1.079h0l1.188-.219.936-.173,8.1-1.494,7.278-1.342,2.66-.491,8.12-1.5Zm-3.622,2.361-13.169,2.429h0l-1.573.29h0l-8.238,1.52-.765.142-5.812,1.071-1.839.339-1.181.218-.844.156-2.75.507-1.138.209-.691.129-.656.121-.526.1-2.327.43-.66.122-10.082,1.859a2.9,2.9,0,0,1-3.378-2.326l-1.575-8.546-1.629-8.83a2.9,2.9,0,0,1,2.326-3.379l23.795-4.387,11.141-2.055,3.172-.586h0l3.99-.735.13-.025h0l10.024-1.848a2.9,2.9,0,0,1,3.378,2.326l3.2,17.376a2.9,2.9,0,0,1-2.326,3.379" transform="translate(-1114.605 -361.638)" fill="#82b378"/>
            <path id="Trazado_1005416" data-name="Trazado 1005416" d="M1501.894,524.934a7.634,7.634,0,1,1,6.285-8.779,7.634,7.634,0,0,1-6.285,8.779" transform="translate(-1352.432 -461.768)" fill="#82b378"/>
            <path id="Trazado_1005417" data-name="Trazado 1005417" d="M1386.849,598.264a2.818,2.818,0,1,1,2.32-3.241,2.819,2.819,0,0,1-2.32,3.241" transform="translate(-1253.294 -536.86)" fill="#82b378"/>
            <path id="Trazado_1005418" data-name="Trazado 1005418" d="M1708.8,538.891a2.818,2.818,0,1,1,2.32-3.241,2.818,2.818,0,0,1-2.32,3.241" transform="translate(-1544.932 -483.077)" fill="#82b378"/>
            <path id="Trazado_1005419" data-name="Trazado 1005419" d="M1480.169,713.022l-.24-.648-1.616-4.355a2.759,2.759,0,0,1-.1-.308,2.966,2.966,0,0,1,1.839-3.492l.167-.062a2.966,2.966,0,0,1,3.8,1.744l1.506,4.06.11.295.24.648a2.965,2.965,0,0,1-1.744,3.8l-.167.062a2.966,2.966,0,0,1-3.8-1.744" transform="translate(-1338.95 -637.687)" fill="#ffb27d"/>
            <path id="Trazado_1005420" data-name="Trazado 1005420" d="M1490.9,720.851a17.335,17.335,0,0,1-.841-2.745,1.157,1.157,0,0,1,.46-.9,2.676,2.676,0,0,1,.989-.538,3.129,3.129,0,0,1,.63-.144,2.652,2.652,0,0,1,.747.03.746.746,0,0,1,.53.418s0,0,0,0a17.128,17.128,0,0,1,1.012,2.641,1.144,1.144,0,0,1-.645,1.414l-.25.089-1.28.456a1.093,1.093,0,0,1-1.354-.723" transform="translate(-1349.75 -649.043)" fill="#ffd3b6"/>
            <path id="Trazado_1005421" data-name="Trazado 1005421" d="M1490.9,725.073a17.337,17.337,0,0,1-.841-2.745,1.157,1.157,0,0,1,.46-.9c.085-.036.175-.068.271-.1a3.131,3.131,0,0,1,.63-.144,2.654,2.654,0,0,1,.747.03.747.747,0,0,1,.53.418s0,0,0,0a17.113,17.113,0,0,1,1.012,2.641,1.248,1.248,0,0,1-.177,1.065l-1.28.456a1.093,1.093,0,0,1-1.354-.723" transform="translate(-1349.75 -653.265)" fill="#ffc197"/>
            <path id="Trazado_1005422" data-name="Trazado 1005422" d="M1426,722.26l-.885-3.355a1.923,1.923,0,0,1,1.365-2.343l.38-.1a1.923,1.923,0,0,1,2.343,1.365l.885,3.355a1.923,1.923,0,0,1-1.365,2.343l-.38.1A1.923,1.923,0,0,1,1426,722.26" transform="translate(-1290.871 -648.942)" fill="#ffb27d"/>
            <path id="Trazado_1005423" data-name="Trazado 1005423" d="M1432.52,726.152a15.106,15.106,0,0,1-.468-2.313,1.128,1.128,0,0,1,.732-.908,2.529,2.529,0,0,1,.966-.239,1.918,1.918,0,0,1,.572.079.593.593,0,0,1,.38.382v0a14.968,14.968,0,0,1,.607,2.241.948.948,0,0,1-.587,1.113l-.3.084-.908.251a.849.849,0,0,1-.993-.693" transform="translate(-1297.211 -654.644)" fill="#ffd3b6"/>
            <path id="Trazado_1005424" data-name="Trazado 1005424" d="M1432.52,727.833a15.105,15.105,0,0,1-.468-2.313,1.128,1.128,0,0,1,.732-.908,2.134,2.134,0,0,1,.463-.064,1.925,1.925,0,0,1,.573.079.6.6,0,0,1,.38.382v0a14.861,14.861,0,0,1,.606,2.241,1.011,1.011,0,0,1-.385,1.022l-.908.251a.849.849,0,0,1-.993-.693" transform="translate(-1297.211 -656.325)" fill="#ffc197"/>
            <path id="Trazado_1005425" data-name="Trazado 1005425" d="M1556.094,710.443c-.009-.024-.016-.048-.024-.072l-1.093-4.4a3.629,3.629,0,0,1,2.355-4.418l.91-.254a3.365,3.365,0,0,1,4.04,2.388l.361,1.452.732,2.946a3.629,3.629,0,0,1-2.355,4.418l-.91.254a3.359,3.359,0,0,1-4.016-2.315" transform="translate(-1408.458 -635.164)" fill="#ffb27d"/>
            <path id="Trazado_1005426" data-name="Trazado 1005426" d="M1571.394,738.869l-.944-2.14,0-.013a2.357,2.357,0,0,1-.051-.258c-.005-.036-.009-.072-.012-.108a.3.3,0,0,1,0-.045.339.339,0,0,1,.482-.291,2.121,2.121,0,0,0,1.445.132l.186-.049.006,0,.607-.16a2.272,2.272,0,0,0,1.185-.764c.036-.043.07-.088.1-.134a.613.613,0,0,1,1.089.188l0,.014.336,2.343a1.114,1.114,0,0,1-.877,1.287l-.691.183-1.474.389c-.581.153-1.234.01-1.387-.57" transform="translate(-1422.516 -665.592)" fill="#ffd3b6"/>
            <path id="Trazado_1005427" data-name="Trazado 1005427" d="M1571.4,742.641l-.944-2.14,0-.013c-.009-.05-.034-.207-.064-.412a.339.339,0,0,1,.482-.291,2.121,2.121,0,0,0,1.445.132l.186-.049h.006l.607-.16a2.271,2.271,0,0,0,1.185-.764.6.6,0,0,1,.236.338s0,.009,0,.013l.336,2.343a1.064,1.064,0,0,1-.613,1.186l-1.474.389c-.581.153-1.234.01-1.387-.57" transform="translate(-1422.523 -669.364)" fill="#ffc197"/>
            <path id="Trazado_1005428" data-name="Trazado 1005428" d="M1422.588,303.372s-1.078-8.414,2.208-6.419c4.789,2.908,14.818,5.04,16.748,6.165,1.432.835,8.981,3.546,9.531,3.79a1.685,1.685,0,0,1,.253,1.937,4.66,4.66,0,0,1-2.363,2.271c-4.69,1.824-11.079-1.974-11.283-1.973-5.354.026-10.556-.573-12.068-.356-.527.075-3.026-5.415-3.026-5.415" transform="translate(-1288.486 -268.715)" fill="#ffb27d"/>
            <path id="Trazado_1005429" data-name="Trazado 1005429" d="M1678.535,388.557l-5.3-1.927a2.733,2.733,0,0,0-.263,1.716c.254.663,5.162,1.829,5.562.211" transform="translate(-1515.384 -350.225)" fill="#ffc197"/>
            <path id="Trazado_1005430" data-name="Trazado 1005430" d="M698.721,1102.575l1.055.856s2.885-1.035,3.536,2.394c0,0,.173,1.461-.752,1.464a18.521,18.521,0,0,0-1.854-.121,2.371,2.371,0,0,1-2.589-1.716l-.627-.9Z" transform="translate(-631.814 -998.758)" fill="#ea8e50"/>
            <path id="Trazado_1005431" data-name="Trazado 1005431" d="M407.615,909.827a2.156,2.156,0,0,0,.774-1.528s-9.743-7.977-10.731-8.627a120.218,120.218,0,0,1-11.2-10.682c-1.664-1.924-3.725-1.177-6.083-.5l-1.942.557a3.248,3.248,0,0,0-1.031,5.545c5.418,4.488,14.431,9.536,16.117,10.6,4.187,2.633,12.381,5.763,12.381,5.763a5.192,5.192,0,0,0,1.717-1.124" transform="translate(-340.828 -804.171)" fill="#1e3d70"/>
            <path id="Trazado_1005432" data-name="Trazado 1005432" d="M797.448,1642.592a7.345,7.345,0,0,0,5.988.835s2.921-.666,3.562.791c0,0-4.48,2.276-5.614,2.9a13.58,13.58,0,0,0-2.376,1.782,1.175,1.175,0,0,1-1.7-.131c-.2-.242-.423-.531-.67-.866-.691-.936-2.3-3.96-2.3-3.96Z" transform="translate(-719.542 -1487.927)" fill="#204272"/>
            <path id="Trazado_1005433" data-name="Trazado 1005433" d="M540.883,796.177a16.532,16.532,0,1,1,16.532,16.532,16.532,16.532,0,0,1-16.532-16.532" transform="translate(-489.954 -706.234)" fill="#e2810e"/>
            <path id="Trazado_1005434" data-name="Trazado 1005434" d="M525.566,796.177A16.532,16.532,0,1,1,542.1,812.709a16.532,16.532,0,0,1-16.532-16.532" transform="translate(-476.079 -706.234)" fill="#ffc76c"/>
            <path id="Trazado_1005435" data-name="Trazado 1005435" d="M556.237,827.453a15.062,15.062,0,1,1,10.651-4.412,14.965,14.965,0,0,1-10.651,4.412m0-29.226A14.164,14.164,0,1,0,570.4,812.39a14.18,14.18,0,0,0-14.164-14.164" transform="translate(-490.218 -722.252)" fill="#ffa412"/>
            <path id="Trazado_1005436" data-name="Trazado 1005436" d="M639.753,854.653a2.486,2.486,0,0,0-.036-.875,1.816,1.816,0,0,0-.37-.726,3.432,3.432,0,0,0-.739-.653,9.047,9.047,0,0,0-1.146-.642,23.742,23.742,0,0,1-2.116-1.163,7.5,7.5,0,0,1-1.582-1.288,4.411,4.411,0,0,1-.935-1.57,4.977,4.977,0,0,1,.4-3.764,4.186,4.186,0,0,1,1.167-1.3,5.224,5.224,0,0,1,1.671-.8,6.966,6.966,0,0,1,2.087-.241l.295-2.483,2,.237-.3,2.517a6.247,6.247,0,0,1,1.881.8,4.725,4.725,0,0,1,2.105,3.02,6.288,6.288,0,0,1,.082,2.133l-3.609-.428a3.062,3.062,0,0,0-.371-2.156,2.128,2.128,0,0,0-1.573-.887,2.706,2.706,0,0,0-.987.042,1.834,1.834,0,0,0-.719.35,1.709,1.709,0,0,0-.464.6,2.511,2.511,0,0,0-.22.786,2.3,2.3,0,0,0,.033.792,1.7,1.7,0,0,0,.354.7,3.44,3.44,0,0,0,.746.653A11.621,11.621,0,0,0,638.6,849q1.157.6,2.094,1.19a7.584,7.584,0,0,1,1.575,1.3,4.258,4.258,0,0,1,1.1,3.571,4.551,4.551,0,0,1-.573,1.79,4.137,4.137,0,0,1-1.172,1.285,5.048,5.048,0,0,1-1.68.766,7.531,7.531,0,0,1-2.1.222l-.274,2.309-1.986-.236.273-2.3a8.434,8.434,0,0,1-1.951-.69,5.349,5.349,0,0,1-1.6-1.207,4.787,4.787,0,0,1-1-1.8,5.825,5.825,0,0,1-.166-2.443l3.609.428a3.59,3.59,0,0,0,.068,1.4,2.322,2.322,0,0,0,.513.955,2.254,2.254,0,0,0,.825.569,3.861,3.861,0,0,0,.99.253,3.221,3.221,0,0,0,1.048-.028,2.149,2.149,0,0,0,.793-.33,1.709,1.709,0,0,0,.525-.579,2.086,2.086,0,0,0,.244-.777" transform="translate(-571.66 -760.143)" fill="#ffa412"/>
            <path id="Trazado_1005437" data-name="Trazado 1005437" d="M491.416,1226.6s-1.44,3.32-4.763,2.71a92.738,92.738,0,0,1-11.434-11.419,25.843,25.843,0,0,1-3.553-5.552c-3.085-7.142-11.411-17.795-16.7-23.194l13.245-4.791s4.242,8.534,9.887,19.016c4.068,7.553,8.863,16.117,13.323,23.231" transform="translate(-412.122 -1072.836)" fill="#2b478b"/>
            <path id="Trazado_1005438" data-name="Trazado 1005438" d="M478.094,1203.37l-2.874,14.521a25.838,25.838,0,0,1-3.553-5.552c-3.085-7.142-11.411-17.795-16.7-23.194l13.245-4.791s4.242,8.534,9.887,19.016" transform="translate(-412.123 -1072.836)" fill="#233862"/>
            <path id="Trazado_1005439" data-name="Trazado 1005439" d="M539.812,1649.084s-.144,2.649,3.067,3c0,0,1.988.051,1.993,1.737l-9.671,0s-.086-.689-.151-2.145a16.689,16.689,0,0,1,1.084-4.043Z" transform="translate(-484.668 -1492.493)" fill="#204272"/>
            <path id="Trazado_1005440" data-name="Trazado 1005440" d="M425.709,1178.7s5.9,6.484,9.646,18.164c2.038,6.355-3.735,22.333-4.86,27.885a17.7,17.7,0,0,1-6.521-.7,128.448,128.448,0,0,1,1.347-20.3c.867-4.946-7.769-10.578-11.542-19.515-2.567-6.08.556-5.977,4.394-6.123Z" transform="translate(-373.97 -1067.182)" fill="#2b478b"/>
            <path id="Trazado_1005441" data-name="Trazado 1005441" d="M380.913,800.18c-3.283,1.854-10,.144-10,.144a9.362,9.362,0,0,0,1.489-8.145l2.577,1.309,2.769,1.406a22.981,22.981,0,0,1,.3,2.481c.032.411.06.869.08,1.37a8.61,8.61,0,0,1,2.785,1.435" transform="translate(-335.986 -717.588)" fill="#ffb07b"/>
            <path id="Trazado_1005442" data-name="Trazado 1005442" d="M369.157,890.61c0,.577-.665.853-.806.881-1.324.242-5.021,1.68-8.352,2.01a26.707,26.707,0,0,1-8.268-.559c-.379-.076-1.268-.316-1.331-.679-.079-.4-11.033-22.331-2.518-31.753.2-.221,1.881.177,3.418.542a6.31,6.31,0,0,0,3.885-.318l1.442.759c1.77.986,5.12,4.491,5.512,7.241.2,1.4,1,2.434,1.23,3.665q.129.683.263,1.333.262,1.275.539,2.427c.5,2.08,1.029,3.871,1.549,5.418.553,1.642,1.094,3.009,1.578,4.151.628,1.482,1.158,2.589,1.49,3.437a4.237,4.237,0,0,1,.368,1.445" transform="translate(-312.192 -779.427)" fill="#aec3ff"/>
            <path id="Trazado_1005443" data-name="Trazado 1005443" d="M400.8,960.782a43.039,43.039,0,0,1-20.818-21.274s12.563,4.634,15.662,5.841q.262,1.275.539,2.427c.5,2.08,1.03,3.871,1.549,5.417.552,1.643,1.094,3.009,1.578,4.151.628,1.482,1.158,2.589,1.49,3.437" transform="translate(-344.204 -851.045)" fill="#91b0f2"/>
            <path id="Trazado_1005444" data-name="Trazado 1005444" d="M690.458,1119.788l1.336.49a2.858,2.858,0,0,1,4.342,1.185s.6,1.344-.351,1.636-.607.017-1.948.464a2.554,2.554,0,0,1-3.168-.833l-.908-.666Z" transform="translate(-624.814 -1014.273)" fill="#ffb07b"/>
            <path id="Trazado_1005445" data-name="Trazado 1005445" d="M390.99,918.229c.494-1.289.72-1.873.72-1.873s-10.1-8.23-11.126-8.936c-.7-.481-7.68-5.7-11.083-9.764a7.121,7.121,0,0,0-6.923-2.4l-2.12.444a3.152,3.152,0,0,0-1.405,5.478c5.591,4.793,15.022,10.353,16.78,11.509,4.365,2.871,14.02,6.893,14.02,6.893a2.486,2.486,0,0,0,1.137-1.354" transform="translate(-324.246 -810.824)" fill="#aec3ff"/>
            <path id="Trazado_1005446" data-name="Trazado 1005446" d="M395.473,809.969a6.91,6.91,0,0,1-5.328-2.484,25.622,25.622,0,0,0,2.255-1.4l2.769,1.406a22.975,22.975,0,0,1,.3,2.481" transform="translate(-353.409 -730.181)" fill="#ea8e50"/>
            <path id="Trazado_1005447" data-name="Trazado 1005447" d="M367.685,732.943s-4.891,3.51-7.03.43-4.211-4.7-1.178-7.072,4.462-1.622,5.426-.768,4,6.417,2.783,7.41" transform="translate(-324.246 -656.469)" fill="#ffb07b"/>
            <path id="Trazado_1005448" data-name="Trazado 1005448" d="M322.959,684.534a7.875,7.875,0,0,0-.57-2.017s-.307,1.272-2.631,1.1-6.007.228-7.234,2.876c-.078.168-.148.342-.21.52a6.127,6.127,0,0,1-.276-1.467,4.522,4.522,0,0,0,0,2.566h0c-.007.041-.012.083-.018.125a5.173,5.173,0,0,0-.944,1.781,1.614,1.614,0,0,1,.869-.772c-.01,2.06.825,4.075,2.292,4.674,2.145.877,2.128.208,4.284,1.639,0,0,.579-.718.184-1.2s-1.885-1.184-1.052-1.885,1.14.088,1.447-.395-1.228-1.885.745-3.2,3.288-3.157,3.113-4.341" transform="translate(-281.786 -618.252)" fill="#233862"/>
            <path id="Trazado_1005449" data-name="Trazado 1005449" d="M2361.8,1065.173a1.329,1.329,0,0,1,.467.741,5.723,5.723,0,0,1-.034,1.467c-.065,1.017,1.342,2.511,2.251,3.031s0-2.165,0-2.814a3.874,3.874,0,0,0-.476-2.6c-.736-1.472-2.208.173-2.208.173" transform="translate(-2139.413 -964.166)" fill="#ffb27d"/>
            <path id="Trazado_1005450" data-name="Trazado 1005450" d="M2143.8,764.6a4.23,4.23,0,0,1,6.373-3.982q.09.055.178.112c4.386,2.823,12.811,14.306,14.059,16.591,1.3,2.381,3.018,12.547,3.018,12.547s-2.376.869-3.487-.032c0,0-3.717-8.816-5.083-10.328-1.439-1.594-14.753-8.953-14.88-12.076-.033-.826-.1-1.818-.179-2.831" transform="translate(-1941.932 -688.45)" fill="#ed7d2b"/>
            <path id="Trazado_1005451" data-name="Trazado 1005451" d="M2363.593,1620.422s1.769,1.614,1.424,2.761-1.941,1.911-2.157,3.313-1.078,2.166-1.855,2.166h-3.7s-.572-.986.809-1.284,1.9-1.945,1.814-3.474a26.923,26.923,0,0,1,.129-3.568l2.934-.68Z" transform="translate(-2135.236 -1467.152)" fill="#224275"/>
            <path id="Trazado_1005452" data-name="Trazado 1005452" d="M2094.775,1658.437s.317,3.673-.459,4.056l-9.937-.021s0-1.147,1.6-1.4,4.4-1.189,4.875-3.271,3.926.637,3.926.637" transform="translate(-1888.116 -1500.992)" fill="#224275"/>
            <path id="Trazado_1005453" data-name="Trazado 1005453" d="M2105.688,1112.45s.524,6.439,1.14,14.179c.837,10.514,1.844,23.429,1.944,25.876.172,4.249.863,11.044.863,11.044s1.638,1.615,4.918.934a109.651,109.651,0,0,0,3.757-19.966c.013-.168.026-.338.039-.507.776-10.449,1.984-32.452,1.984-32.452Z" transform="translate(-1907.419 -1006.895)" fill="#aec3ff"/>
            <path id="Trazado_1005454" data-name="Trazado 1005454" d="M2105.688,1112.45s.524,6.439,1.14,14.179l11.481,17.888c.013-.168.026-.338.039-.507.776-10.449,1.984-32.452,1.984-32.452Z" transform="translate(-1907.419 -1006.895)" fill="#91b0f2"/>
            <path id="Trazado_1005455" data-name="Trazado 1005455" d="M2131.109,1088.7s9.447,23.319,15.659,34.278,8.153,14.017,8.153,14.017,3.559-1.4,3.883-2.357c0,0-2.375-21.157-6.535-26.314-2.351-2.914-5.112-11.66-5.241-14.718s-.841-9.111-.841-9.111Z" transform="translate(-1930.446 -982.378)" fill="#aec3ff"/>
            <path id="Trazado_1005456" data-name="Trazado 1005456" d="M2121.065,683.761s-6.33,3.21-10.037,2.139a8.152,8.152,0,0,1,1.438-1.376,2.035,2.035,0,0,0,.789-1.937q-.056-.346-.094-.652a13.741,13.741,0,0,1-.154-2.151l2.386-1.8,2.3-1.9a9.424,9.424,0,0,0,3.371,7.68" transform="translate(-1912.256 -612.422)" fill="#ffb27d"/>
            <path id="Trazado_1005457" data-name="Trazado 1005457" d="M2096.641,771.2a26.082,26.082,0,0,1-7.806,3.363c-3.34.792-7.445.558-8.818.768a.57.57,0,0,1-.4-.1c-.108-.055-.714-4.129-1.321-9.271-.027-.207-.055-.416-.067-.625l-.009-.069c-.236-2.01-.443-4.121-.623-6.238-.146-1.647-.267-3.276-.351-4.805-.1-1.914-.149-3.672-.1-5.119.019-.661.058-1.255.117-1.771a12.539,12.539,0,0,1,2.967-6.757l1.559-1.251a5.427,5.427,0,0,0,3.609-1c1.367-.9,2.842-1.868,3.12-1.706,2.095,1.146,3.8,4.116,5.019,8.039a44.762,44.762,0,0,1,1.578,7.533c.11.842.2,1.706.276,2.566.014.159.026.318.038.475.164,2.352.433,4.555.73,6.523.4,2.654.856,4.877,1.178,6.443.162.8.285,1.413.358,1.855.065.385-.706.937-1.05,1.151" transform="translate(-1881.545 -667.24)" fill="#f99746"/>
            <path id="Trazado_1005458" data-name="Trazado 1005458" d="M2136.313,695.339a8.47,8.47,0,0,1-4.616,3.86,25.231,25.231,0,0,1-.195-4.06l2.427.108Z" transform="translate(-1930.793 -629.685)" fill="#ed985f"/>
            <path id="Trazado_1005459" data-name="Trazado 1005459" d="M2107.1,613.593s5.719,2.339,7.117-1.186,3.078-5.6-.514-7.24-4.84-.577-5.6.486-2.458,7.24-1.006,7.939" transform="translate(-1908.183 -547.417)" fill="#ffb27d"/>
            <path id="Trazado_1005460" data-name="Trazado 1005460" d="M2113.319,582.744c.068-.049.2-.071.484-.022a1.152,1.152,0,0,0-.484-.265,1.429,1.429,0,0,0-.642-1.445.853.853,0,0,1,.265.692c-.586-.965-2.1-1.917-6.736-2.605-6.111-.907-5.017,3.391-4.345,4.028s2.917-.169,4.338.279,1.216,2.6,1.641,3,.349-.152,1.082-.3.544.968.187,1.64.339,1.826.339,1.826l1.151-.781c1.151-.781,2.989-4.79,2.776-5.784-.019-.088-.037-.177-.056-.266" transform="translate(-1903.469 -524.457)" fill="#2c3a64"/>
            <path id="Trazado_1005461" data-name="Trazado 1005461" d="M2087.871,869.73s-5.157,3.924-10.624,4.784c-.105-1.914-.149-3.672-.105-5.119Z" transform="translate(-1881.546 -787.534)" fill="#ed7d2b"/>
            <path id="Trazado_1005462" data-name="Trazado 1005462" d="M1808.944,686.341c-.052-.107-.016-3.777-1.828-4.07-1.183-.191-4.247-1.009-4.219.636.011.647,3.847,4.64,3.847,4.64Z" transform="translate(-1633.138 -617.692)" fill="#ffb27d"/>
            <path id="Trazado_1005463" data-name="Trazado 1005463" d="M1874.549,729.957a4.23,4.23,0,0,1-2.644,7.034l-.21.02c-5.2.422-19.994-3.815-22.041-4.947-3.4-1.88-9.225-7.826-9.225-7.826s1.359-2.134,2.79-2.092c0,0,7.8,4.968,10.592,5.562,1.884.4,16.878-2.3,18.875.108.528.635,1.184,1.384,1.862,2.14" transform="translate(-1667.137 -654.149)" fill="#f99746"/>
            <path id="Trazado_1005464" data-name="Trazado 1005464" d="M2387.144,1082.673s.277.611.474,1.087.3,1.364.154,1.277a4.533,4.533,0,0,1-.866-1.041c-.173-.323.238-1.323.238-1.323" transform="translate(-2162.119 -980.73)" fill="#ffb27d"/>
            <g id="Grupo_1182531" data-name="Grupo 1182531" transform="translate(87.455 90.896)" opacity="0.5">
              <g id="Grupo_1182530" data-name="Grupo 1182530">
                <g id="Grupo_1182529" data-name="Grupo 1182529" clip-path="url(#clip-path-3)">
                  <g id="Grupo_1182525" data-name="Grupo 1182525" transform="translate(10.185)" opacity="0.5">
                    <g id="Grupo_1182524" data-name="Grupo 1182524">
                      <g id="Grupo_1182523" data-name="Grupo 1182523" clip-path="url(#clip-path-4)">
                        <path id="Trazado_1005465" data-name="Trazado 1005465" d="M1049.457,989.986s-1.8-15.064-9.517-24.053a1.685,1.685,0,0,0-2.956,1.14q0,.039,0,.08c.1,2.687,8.742,14.022,12.471,22.834" transform="translate(-1036.983 -965.347)" fill="#afcdfb"/>
                      </g>
                    </g>
                  </g>
                  <g id="Grupo_1182528" data-name="Grupo 1182528" transform="translate(0 1.512)" opacity="0.5">
                    <g id="Grupo_1182527" data-name="Grupo 1182527">
                      <g id="Grupo_1182526" data-name="Grupo 1182526" clip-path="url(#clip-path-5)">
                        <path id="Trazado_1005466" data-name="Trazado 1005466" d="M952.4,1008.84s-7.692-18.828-20.83-27.156a1.787,1.787,0,0,0-2.423.458,2.836,2.836,0,0,0-.114,2.547c1.047,3.312,15.7,14.459,23.367,24.151" transform="translate(-928.807 -981.4)" fill="#afcdfb"/>
                      </g>
                    </g>
                  </g>
                </g>
              </g>
            </g>
            <g id="Grupo_1182534" data-name="Grupo 1182534" transform="translate(70.163 117.504)" opacity="0.5">
              <g id="Grupo_1182533" data-name="Grupo 1182533">
                <g id="Grupo_1182532" data-name="Grupo 1182532" clip-path="url(#clip-path-6)">
                  <path id="Trazado_1005467" data-name="Trazado 1005467" d="M745.25,1256.086c.756-7.848,13.815-7.656,13.815-7.656s10.829,11.668,13.383,11.555-7.311-11.783-7.311-11.783c4.766-1.293,18.124,2.547,18.124,2.547s1.823,15.451,4.271,14.713-2.312-13.6-2.312-13.6c4.928.609,10.235,5.336,10.235,5.336,6.986,7.979-3.621,16.537-3.621,16.537a25.292,25.292,0,0,0,5.066,10.879h0a18.339,18.339,0,0,1,2.01,2.784l-1.278.217q-.244-.487-.516-.933a.007.007,0,0,0,0-.005l-.008-.013c-.121-.183-.295-.442-.51-.758h0v0c-.521-.7-.88-1.218-1.117-1.6l0,0c-1.578-2.2-3.8-5.041-5.032-5.506a2.508,2.508,0,0,0,.174-.633l-.174.633c-1.391,5.061-12.2,7.7-18.508,7.49s-3.944-2.385-1.136-5.734,9.81-3.783,11.656-5.222-1.31-2.029-5.321-1.025-5.352,5.413-11.81,7.155-13.56-9.756-13.56-9.756c4.772.636,12.475-3.247,12.521-4.863s-11.962.587-13.917.437-5.876-3.343-5.12-11.191" transform="translate(-745.154 -1247.935)" fill="#afcdfb"/>
                </g>
              </g>
            </g>
            <g id="Grupo_1182537" data-name="Grupo 1182537" transform="translate(154.733 116.039)" opacity="0.5">
              <g id="Grupo_1182536" data-name="Grupo 1182536">
                <g id="Grupo_1182535" data-name="Grupo 1182535" clip-path="url(#clip-path-7)">
                  <path id="Trazado_1005468" data-name="Trazado 1005468" d="M1685.24,1240.388c.126-5.8-9.433-6.789-9.433-6.789s-8.921,7.59-10.778,7.287,6.36-7.978,6.36-7.978c-3.37-1.357-13.463.295-13.463.295s-2.668,11.132-4.392,10.382,2.865-9.737,2.865-9.737c-3.654.019-7.94,3.014-7.94,3.014-5.794,5.227,1.217,12.4,1.217,12.4a18.611,18.611,0,0,1-4.642,7.511h0a13.5,13.5,0,0,0-1.71,1.861l.915.269q.22-.335.458-.637a.006.006,0,0,1,0,0l.007-.009c.1-.123.254-.3.438-.51h0c.441-.465.749-.814.954-1.071l0,0c1.344-1.472,3.21-3.356,4.153-3.588a1.839,1.839,0,0,1-.073-.477l.073.477c.579,3.819,8.248,6.683,12.876,7.072s3.088-1.4,1.325-4.092-6.842-3.612-8.066-4.823,1.132-1.369,3.976-.289,3.443,4.418,8.011,6.249,10.751-5.957,10.751-5.957c-3.542.052-8.835-3.451-8.729-4.636s8.69,1.463,10.132,1.522,4.582-1.935,4.708-7.735" transform="translate(-1643.323 -1232.373)" fill="#afcdfb"/>
                </g>
              </g>
            </g>
            <path id="Trazado_1005469" data-name="Trazado 1005469" d="M1490.345,1682.213v1.711a.582.582,0,0,0,.135.368.779.779,0,0,0,.368.247.857.857,0,0,0,.144.034.923.923,0,0,0,.139.01h32.448a.741.741,0,0,0,.784-.625c0-.011,0-.023,0-.034v-1.711c0-.011,0-.022,0-.034a.741.741,0,0,0-.784-.625H1491.13a.923.923,0,0,0-.139.01.845.845,0,0,0-.144.034.781.781,0,0,0-.368.247.582.582,0,0,0-.135.368" transform="translate(-1350.016 -1523.221)" fill="#ffc76c"/>
            <path id="Trazado_1005470" data-name="Trazado 1005470" d="M1659.565,1684.583h17.384a.686.686,0,0,0,.7-.625c0-.011,0-.023,0-.034v-1.711c0-.011,0-.022,0-.034a.686.686,0,0,0-.7-.625H1661.7a5.31,5.31,0,0,1-2.135,3.029" transform="translate(-1503.302 -1523.221)" fill="#ffae39"/>
            <rect id="Rectángulo_458102" data-name="Rectángulo 458102" width="0.369" height="3.029" transform="translate(144.277 158.333)" fill="#ffa412"/>
            <rect id="Rectángulo_458103" data-name="Rectángulo 458103" width="0.369" height="3.029" transform="translate(145.526 158.333)" fill="#ffa412"/>
            <rect id="Rectángulo_458104" data-name="Rectángulo 458104" width="0.369" height="3.029" transform="translate(147.023 158.333)" fill="#ffa412"/>
            <rect id="Rectángulo_458105" data-name="Rectángulo 458105" width="0.369" height="3.029" transform="translate(149.317 158.333)" fill="#ffa412"/>
            <rect id="Rectángulo_458106" data-name="Rectángulo 458106" width="0.369" height="3.029" transform="translate(151.744 158.333)" fill="#ffa412"/>
            <rect id="Rectángulo_458107" data-name="Rectángulo 458107" width="0.369" height="3.029" transform="translate(155.464 158.333)" fill="#ffa412"/>
            <rect id="Rectángulo_458108" data-name="Rectángulo 458108" width="0.369" height="3.029" transform="translate(158.946 158.333)" fill="#ffa412"/>
            <rect id="Rectángulo_458109" data-name="Rectángulo 458109" width="0.369" height="3.029" transform="translate(162.057 158.333)" fill="#ffa412"/>
            <rect id="Rectángulo_458110" data-name="Rectángulo 458110" width="0.369" height="3.029" transform="translate(143.089 158.333)" fill="#ffa412"/>
            <rect id="Rectángulo_458111" data-name="Rectángulo 458111" width="0.369" height="3.029" transform="translate(142.304 158.333)" fill="#ffa412"/>
            <rect id="Rectángulo_458112" data-name="Rectángulo 458112" width="0.369" height="3.029" transform="translate(141.546 158.333)" fill="#ffa412"/>
            <path id="Trazado_1005471" data-name="Trazado 1005471" d="M1497.212,1681.564v3.008a.908.908,0,0,0,.139.011h.23v-3.029h-.23a.924.924,0,0,0-.139.01" transform="translate(-1356.236 -1523.221)" fill="#ffa412"/>
            <path id="Trazado_1005472" data-name="Trazado 1005472" d="M1491.773,1682.274v2.447a.78.78,0,0,0,.368.247v-2.94a.781.781,0,0,0-.368.247" transform="translate(-1351.309 -1523.649)" fill="#ffa412"/>
            <path id="Trazado_1005473" data-name="Trazado 1005473" d="M1527.19,1650.041v1.711a.582.582,0,0,0,.135.368.782.782,0,0,0,.368.247.842.842,0,0,0,.144.034.922.922,0,0,0,.138.01h32.448a.741.741,0,0,0,.784-.625c0-.011,0-.023,0-.034v-1.711c0-.011,0-.023,0-.034a.741.741,0,0,0-.784-.625h-32.448l-.062,0-.027,0-.029,0-.021,0a.866.866,0,0,0-.144.034l-.02.007-.02.007-.04.016-.023.011-.02.01-.037.02-.04.025-.03.021h0l-.02.015a.672.672,0,0,0-.057.049l-.016.015-.015.016-.029.034a.582.582,0,0,0-.135.368" transform="translate(-1383.392 -1494.078)" fill="#ffc76c"/>
            <path id="Trazado_1005474" data-name="Trazado 1005474" d="M1696.411,1652.411h17.384a.686.686,0,0,0,.7-.625c0-.011,0-.023,0-.034v-1.711c0-.011,0-.023,0-.034a.686.686,0,0,0-.7-.625h-15.248l-.021.075a5.3,5.3,0,0,1-2.114,2.954" transform="translate(-1536.679 -1494.078)" fill="#ffae39"/>
            <rect id="Rectángulo_458113" data-name="Rectángulo 458113" width="0.369" height="3.029" transform="translate(147.747 155.304)" fill="#ffa412"/>
            <rect id="Rectángulo_458114" data-name="Rectángulo 458114" width="0.369" height="3.029" transform="translate(148.995 155.304)" fill="#ffa412"/>
            <rect id="Rectángulo_458115" data-name="Rectángulo 458115" width="0.369" height="3.029" transform="translate(150.492 155.304)" fill="#ffa412"/>
            <rect id="Rectángulo_458116" data-name="Rectángulo 458116" width="0.369" height="3.029" transform="translate(152.787 155.304)" fill="#ffa412"/>
            <rect id="Rectángulo_458117" data-name="Rectángulo 458117" width="0.369" height="3.029" transform="translate(155.213 155.304)" fill="#ffa412"/>
            <rect id="Rectángulo_458118" data-name="Rectángulo 458118" width="0.369" height="3.029" transform="translate(158.933 155.304)" fill="#ffa412"/>
            <rect id="Rectángulo_458119" data-name="Rectángulo 458119" width="0.369" height="3.029" transform="translate(162.416 155.304)" fill="#ffa412"/>
            <rect id="Rectángulo_458120" data-name="Rectángulo 458120" width="0.369" height="3.029" transform="translate(165.526 155.304)" fill="#ffa412"/>
            <rect id="Rectángulo_458121" data-name="Rectángulo 458121" width="0.369" height="3.029" transform="translate(146.558 155.304)" fill="#ffa412"/>
            <rect id="Rectángulo_458122" data-name="Rectángulo 458122" width="0.369" height="3.029" transform="translate(145.773 155.304)" fill="#ffa412"/>
            <rect id="Rectángulo_458123" data-name="Rectángulo 458123" width="0.369" height="3.029" transform="translate(145.015 155.304)" fill="#ffa412"/>
            <path id="Trazado_1005475" data-name="Trazado 1005475" d="M1534.058,1649.393v3.008a.908.908,0,0,0,.138.011h.23v-3.029h-.23a.924.924,0,0,0-.138.01" transform="translate(-1389.613 -1494.079)" fill="#ffa412"/>
            <path id="Trazado_1005476" data-name="Trazado 1005476" d="M1528.618,1650.1v2.447a.783.783,0,0,0,.369.247v-2.94a.782.782,0,0,0-.369.247" transform="translate(-1384.685 -1494.505)" fill="#ffa412"/>
            <path id="Trazado_1005477" data-name="Trazado 1005477" d="M1509.385,1618.663v1.711a.582.582,0,0,0,.135.368.782.782,0,0,0,.368.247.842.842,0,0,0,.144.034.923.923,0,0,0,.139.01h32.448a.9.9,0,0,0,.362-.075.673.673,0,0,0,.42-.521c0-.01,0-.02,0-.03s0-.023,0-.034v-1.711c0-.011,0-.023,0-.034a.741.741,0,0,0-.784-.625H1510.17a.907.907,0,0,0-.139.011.854.854,0,0,0-.144.034.78.78,0,0,0-.368.247.582.582,0,0,0-.135.368" transform="translate(-1367.263 -1465.654)" fill="#ffc76c"/>
            <path id="Trazado_1005478" data-name="Trazado 1005478" d="M1678.606,1621.033h17.384a.727.727,0,0,0,.323-.075.662.662,0,0,0,.374-.521.274.274,0,0,0,0-.03c0-.011,0-.023,0-.034v-1.711c0-.011,0-.023,0-.034a.686.686,0,0,0-.7-.625h-15.249a5.317,5.317,0,0,1-2.028,2.955l-.107.075" transform="translate(-1520.55 -1465.654)" fill="#ffae39"/>
            <rect id="Rectángulo_458124" data-name="Rectángulo 458124" width="0.369" height="3.029" transform="translate(146.07 152.35)" fill="#ffa412"/>
            <rect id="Rectángulo_458125" data-name="Rectángulo 458125" width="0.369" height="3.029" transform="translate(147.318 152.35)" fill="#ffa412"/>
            <rect id="Rectángulo_458126" data-name="Rectángulo 458126" width="0.369" height="3.029" transform="translate(148.816 152.35)" fill="#ffa412"/>
            <rect id="Rectángulo_458127" data-name="Rectángulo 458127" width="0.369" height="3.029" transform="translate(151.11 152.35)" fill="#ffa412"/>
            <rect id="Rectángulo_458128" data-name="Rectángulo 458128" width="0.369" height="3.029" transform="translate(153.536 152.35)" fill="#ffa412"/>
            <rect id="Rectángulo_458129" data-name="Rectángulo 458129" width="0.369" height="3.029" transform="translate(157.256 152.35)" fill="#ffa412"/>
            <rect id="Rectángulo_458130" data-name="Rectángulo 458130" width="0.369" height="3.029" transform="translate(160.739 152.35)" fill="#ffa412"/>
            <rect id="Rectángulo_458131" data-name="Rectángulo 458131" width="0.369" height="3.029" transform="translate(163.849 152.35)" fill="#ffa412"/>
            <rect id="Rectángulo_458132" data-name="Rectángulo 458132" width="0.369" height="3.029" transform="translate(144.882 152.35)" fill="#ffa412"/>
            <rect id="Rectángulo_458133" data-name="Rectángulo 458133" width="0.369" height="3.029" transform="translate(144.097 152.35)" fill="#ffa412"/>
            <rect id="Rectángulo_458134" data-name="Rectángulo 458134" width="0.369" height="3.029" transform="translate(143.339 152.35)" fill="#ffa412"/>
            <path id="Trazado_1005479" data-name="Trazado 1005479" d="M1516.252,1618.016v3.008a.905.905,0,0,0,.138.011h.23v-3.029h-.23a.89.89,0,0,0-.138.01" transform="translate(-1373.484 -1465.656)" fill="#ffa412"/>
            <path id="Trazado_1005480" data-name="Trazado 1005480" d="M1510.813,1618.723v2.447a.781.781,0,0,0,.368.247v-2.94a.782.782,0,0,0-.368.247" transform="translate(-1368.557 -1466.082)" fill="#ffa412"/>
            <path id="Trazado_1005481" data-name="Trazado 1005481" d="M1501.13,1586.492v1.711a.583.583,0,0,0,.135.368.779.779,0,0,0,.368.247.841.841,0,0,0,.144.034.89.89,0,0,0,.138.01h32.448a.741.741,0,0,0,.784-.625c0-.011,0-.023,0-.034v-1.711c0-.011,0-.022,0-.034a.724.724,0,0,0-.691-.621.9.9,0,0,0-.093,0h-32.448a.921.921,0,0,0-.138.01.853.853,0,0,0-.144.034.781.781,0,0,0-.368.247.582.582,0,0,0-.135.368" transform="translate(-1359.785 -1436.513)" fill="#ffc76c"/>
            <path id="Trazado_1005482" data-name="Trazado 1005482" d="M1670.352,1588.862h17.384a.686.686,0,0,0,.7-.625c0-.011,0-.023,0-.034v-1.711c0-.011,0-.022,0-.034a.681.681,0,0,0-.617-.621.706.706,0,0,0-.083,0h-15.249v0a5.313,5.313,0,0,1-2.133,3.024" transform="translate(-1513.074 -1436.513)" fill="#ffae39"/>
            <rect id="Rectángulo_458135" data-name="Rectángulo 458135" width="0.369" height="3.029" transform="translate(145.293 149.32)" fill="#ffa412"/>
            <rect id="Rectángulo_458136" data-name="Rectángulo 458136" width="0.369" height="3.029" transform="translate(146.541 149.32)" fill="#ffa412"/>
            <rect id="Rectángulo_458137" data-name="Rectángulo 458137" width="0.369" height="3.029" transform="translate(148.038 149.32)" fill="#ffa412"/>
            <rect id="Rectángulo_458138" data-name="Rectángulo 458138" width="0.369" height="3.029" transform="translate(150.333 149.32)" fill="#ffa412"/>
            <rect id="Rectángulo_458139" data-name="Rectángulo 458139" width="0.369" height="3.029" transform="translate(152.759 149.32)" fill="#ffa412"/>
            <rect id="Rectángulo_458140" data-name="Rectángulo 458140" width="0.369" height="3.029" transform="translate(156.479 149.32)" fill="#ffa412"/>
            <rect id="Rectángulo_458141" data-name="Rectángulo 458141" width="0.369" height="3.029" transform="translate(159.962 149.32)" fill="#ffa412"/>
            <rect id="Rectángulo_458142" data-name="Rectángulo 458142" width="0.369" height="3.029" transform="translate(163.072 149.32)" fill="#ffa412"/>
            <rect id="Rectángulo_458143" data-name="Rectángulo 458143" width="0.369" height="3.029" transform="translate(144.105 149.32)" fill="#ffa412"/>
            <rect id="Rectángulo_458144" data-name="Rectángulo 458144" width="0.369" height="3.029" transform="translate(143.32 149.32)" fill="#ffa412"/>
            <rect id="Rectángulo_458145" data-name="Rectángulo 458145" width="0.369" height="3.029" transform="translate(142.562 149.32)" fill="#ffa412"/>
            <path id="Trazado_1005483" data-name="Trazado 1005483" d="M1508,1585.843v3.008a.9.9,0,0,0,.139.011h.23v-3.029h-.23a.92.92,0,0,0-.139.01" transform="translate(-1366.006 -1436.512)" fill="#ffa412"/>
            <path id="Trazado_1005484" data-name="Trazado 1005484" d="M1502.559,1586.551V1589a.781.781,0,0,0,.368.247v-2.94a.781.781,0,0,0-.368.247" transform="translate(-1361.08 -1436.939)" fill="#ffa412"/>
            <path id="Trazado_1005485" data-name="Trazado 1005485" d="M1526.466,1554.371v1.711a.582.582,0,0,0,.135.368.782.782,0,0,0,.368.247.865.865,0,0,0,.144.034l.046.006.025,0H1559.7a.741.741,0,0,0,.784-.625c0-.011,0-.022,0-.034v-1.711c0-.011,0-.023,0-.034s0-.019,0-.028a.711.711,0,0,0-.589-.577l-.024,0a.93.93,0,0,0-.17-.016h-32.448l-.07,0-.031,0h0l-.036.005a.865.865,0,0,0-.144.034.78.78,0,0,0-.368.247.582.582,0,0,0-.135.368" transform="translate(-1382.736 -1407.416)" fill="#ffc76c"/>
            <path id="Trazado_1005486" data-name="Trazado 1005486" d="M1695.688,1556.741h17.384a.686.686,0,0,0,.7-.625q0-.017,0-.034v-1.711c0-.011,0-.023,0-.034s0-.019,0-.028a.677.677,0,0,0-.544-.581l-.03-.006a.727.727,0,0,0-.124-.011h-15.249l-.006.022a5.307,5.307,0,0,1-2.122,3l-.007,0" transform="translate(-1536.024 -1407.416)" fill="#ffae39"/>
            <rect id="Rectángulo_458146" data-name="Rectángulo 458146" width="0.369" height="3.029" transform="translate(147.678 146.296)" fill="#ffa412"/>
            <rect id="Rectángulo_458147" data-name="Rectángulo 458147" width="0.369" height="3.029" transform="translate(148.927 146.296)" fill="#ffa412"/>
            <rect id="Rectángulo_458148" data-name="Rectángulo 458148" width="0.369" height="3.029" transform="translate(150.424 146.296)" fill="#ffa412"/>
            <rect id="Rectángulo_458149" data-name="Rectángulo 458149" width="0.369" height="3.029" transform="translate(152.718 146.296)" fill="#ffa412"/>
            <rect id="Rectángulo_458150" data-name="Rectángulo 458150" width="0.369" height="3.029" transform="translate(155.145 146.296)" fill="#ffa412"/>
            <rect id="Rectángulo_458151" data-name="Rectángulo 458151" width="0.369" height="3.029" transform="translate(158.865 146.296)" fill="#ffa412"/>
            <rect id="Rectángulo_458152" data-name="Rectángulo 458152" width="0.369" height="3.029" transform="translate(162.348 146.296)" fill="#ffa412"/>
            <rect id="Rectángulo_458153" data-name="Rectángulo 458153" width="0.369" height="3.029" transform="translate(165.458 146.296)" fill="#ffa412"/>
            <rect id="Rectángulo_458154" data-name="Rectángulo 458154" width="0.369" height="3.029" transform="translate(146.49 146.296)" fill="#ffa412"/>
            <rect id="Rectángulo_458155" data-name="Rectángulo 458155" width="0.369" height="3.029" transform="translate(145.705 146.296)" fill="#ffa412"/>
            <rect id="Rectángulo_458156" data-name="Rectángulo 458156" width="0.369" height="3.029" transform="translate(144.947 146.296)" fill="#ffa412"/>
            <path id="Trazado_1005487" data-name="Trazado 1005487" d="M1533.333,1553.722v3.008a.9.9,0,0,0,.138.011h.23v-3.029h-.23a.9.9,0,0,0-.138.011" transform="translate(-1388.956 -1407.415)" fill="#ffa412"/>
            <path id="Trazado_1005488" data-name="Trazado 1005488" d="M1527.9,1554.43v2.447a.781.781,0,0,0,.368.247v-2.94a.782.782,0,0,0-.368.247" transform="translate(-1384.03 -1407.843)" fill="#ffa412"/>
            <path id="Trazado_1005489" data-name="Trazado 1005489" d="M1527.19,1522.428v1.711a.582.582,0,0,0,.135.368.83.83,0,0,0,.48.275h0l.031.005a.907.907,0,0,0,.138.011h32.448a.845.845,0,0,0,.1-.006l.039-.005a.714.714,0,0,0,.644-.615c0-.011,0-.022,0-.034v-1.711c0-.011,0-.022,0-.034a.741.741,0,0,0-.784-.625h-32.448l-.062,0-.027,0-.029,0-.021,0a.842.842,0,0,0-.144.034l-.02.007-.02.007-.04.016-.042.021-.037.02-.04.025-.03.021h0l-.02.015a.7.7,0,0,0-.057.049l-.016.015-.015.016-.029.034a.582.582,0,0,0-.135.368" transform="translate(-1383.392 -1378.481)" fill="#ffc76c"/>
            <path id="Trazado_1005490" data-name="Trazado 1005490" d="M1696.411,1524.8h17.425l.045,0a.679.679,0,0,0,.614-.62c0-.011,0-.022,0-.034v-1.711c0-.011,0-.022,0-.034a.686.686,0,0,0-.7-.625h-15.248l-.021.075a5.3,5.3,0,0,1-2.083,2.933l-.031.022" transform="translate(-1536.679 -1378.481)" fill="#ffae39"/>
            <rect id="Rectángulo_458157" data-name="Rectángulo 458157" width="0.369" height="3.029" transform="translate(147.747 143.288)" fill="#ffa412"/>
            <rect id="Rectángulo_458158" data-name="Rectángulo 458158" width="0.369" height="3.029" transform="translate(148.995 143.288)" fill="#ffa412"/>
            <rect id="Rectángulo_458159" data-name="Rectángulo 458159" width="0.369" height="3.029" transform="translate(150.492 143.288)" fill="#ffa412"/>
            <rect id="Rectángulo_458160" data-name="Rectángulo 458160" width="0.369" height="3.029" transform="translate(152.787 143.288)" fill="#ffa412"/>
            <rect id="Rectángulo_458161" data-name="Rectángulo 458161" width="0.369" height="3.029" transform="translate(155.213 143.288)" fill="#ffa412"/>
            <rect id="Rectángulo_458162" data-name="Rectángulo 458162" width="0.369" height="3.029" transform="translate(158.933 143.288)" fill="#ffa412"/>
            <rect id="Rectángulo_458163" data-name="Rectángulo 458163" width="0.369" height="3.029" transform="translate(162.416 143.288)" fill="#ffa412"/>
            <rect id="Rectángulo_458164" data-name="Rectángulo 458164" width="0.369" height="3.029" transform="translate(165.526 143.288)" fill="#ffa412"/>
            <rect id="Rectángulo_458165" data-name="Rectángulo 458165" width="0.369" height="3.029" transform="translate(146.558 143.288)" fill="#ffa412"/>
            <rect id="Rectángulo_458166" data-name="Rectángulo 458166" width="0.369" height="3.029" transform="translate(145.773 143.288)" fill="#ffa412"/>
            <rect id="Rectángulo_458167" data-name="Rectángulo 458167" width="0.369" height="3.029" transform="translate(145.015 143.288)" fill="#ffa412"/>
            <path id="Trazado_1005491" data-name="Trazado 1005491" d="M1534.058,1521.78v3.008a.893.893,0,0,0,.138.011h.23v-3.029h-.23a.924.924,0,0,0-.138.01" transform="translate(-1389.613 -1378.481)" fill="#ffa412"/>
            <path id="Trazado_1005492" data-name="Trazado 1005492" d="M1528.618,1522.489v2.447a.783.783,0,0,0,.369.247v-2.94a.783.783,0,0,0-.369.247" transform="translate(-1384.685 -1378.909)" fill="#ffa412"/>
            <path id="Trazado_1005493" data-name="Trazado 1005493" d="M1509.385,1491.05v1.711a.582.582,0,0,0,.135.368.782.782,0,0,0,.368.247.842.842,0,0,0,.144.034.923.923,0,0,0,.139.01h32.448a.9.9,0,0,0,.362-.075.673.673,0,0,0,.42-.521c0-.01,0-.02,0-.029s0-.023,0-.034v-1.711c0-.011,0-.023,0-.034a.741.741,0,0,0-.784-.625H1510.17a.923.923,0,0,0-.139.011.854.854,0,0,0-.144.034.78.78,0,0,0-.368.247.581.581,0,0,0-.135.368" transform="translate(-1367.263 -1350.057)" fill="#ffc76c"/>
            <path id="Trazado_1005494" data-name="Trazado 1005494" d="M1678.606,1493.42h17.384a.728.728,0,0,0,.323-.075.662.662,0,0,0,.374-.521.264.264,0,0,0,0-.029c0-.011,0-.023,0-.034v-1.711c0-.011,0-.023,0-.034a.686.686,0,0,0-.7-.625h-15.249a5.317,5.317,0,0,1-2.028,2.955l-.107.075" transform="translate(-1520.55 -1350.057)" fill="#ffae39"/>
            <rect id="Rectángulo_458168" data-name="Rectángulo 458168" width="0.369" height="3.029" transform="translate(146.07 140.334)" fill="#ffa412"/>
            <rect id="Rectángulo_458169" data-name="Rectángulo 458169" width="0.369" height="3.029" transform="translate(147.318 140.334)" fill="#ffa412"/>
            <rect id="Rectángulo_458170" data-name="Rectángulo 458170" width="0.369" height="3.029" transform="translate(148.816 140.334)" fill="#ffa412"/>
            <rect id="Rectángulo_458171" data-name="Rectángulo 458171" width="0.369" height="3.029" transform="translate(151.11 140.334)" fill="#ffa412"/>
            <rect id="Rectángulo_458172" data-name="Rectángulo 458172" width="0.369" height="3.029" transform="translate(153.536 140.334)" fill="#ffa412"/>
            <rect id="Rectángulo_458173" data-name="Rectángulo 458173" width="0.369" height="3.029" transform="translate(157.256 140.334)" fill="#ffa412"/>
            <rect id="Rectángulo_458174" data-name="Rectángulo 458174" width="0.369" height="3.029" transform="translate(160.739 140.334)" fill="#ffa412"/>
            <rect id="Rectángulo_458175" data-name="Rectángulo 458175" width="0.369" height="3.029" transform="translate(163.849 140.334)" fill="#ffa412"/>
            <rect id="Rectángulo_458176" data-name="Rectángulo 458176" width="0.369" height="3.029" transform="translate(144.882 140.334)" fill="#ffa412"/>
            <rect id="Rectángulo_458177" data-name="Rectángulo 458177" width="0.369" height="3.029" transform="translate(144.097 140.334)" fill="#ffa412"/>
            <rect id="Rectángulo_458178" data-name="Rectángulo 458178" width="0.369" height="3.029" transform="translate(143.339 140.334)" fill="#ffa412"/>
            <path id="Trazado_1005495" data-name="Trazado 1005495" d="M1516.252,1490.4v3.008a.905.905,0,0,0,.138.011h.23v-3.029h-.23a.89.89,0,0,0-.138.011" transform="translate(-1373.484 -1350.058)" fill="#ffa412"/>
            <path id="Trazado_1005496" data-name="Trazado 1005496" d="M1510.813,1491.111v2.447a.78.78,0,0,0,.368.247v-2.94a.782.782,0,0,0-.368.247" transform="translate(-1368.557 -1350.486)" fill="#ffa412"/>
            <path id="Trazado_1005497" data-name="Trazado 1005497" d="M1481.224,1458.879v1.711a.583.583,0,0,0,.135.368.781.781,0,0,0,.369.247.838.838,0,0,0,.144.034.921.921,0,0,0,.138.01h32.448a.741.741,0,0,0,.784-.625c0-.011,0-.023,0-.034v-1.711c0-.011,0-.022,0-.034a.724.724,0,0,0-.691-.621.894.894,0,0,0-.093,0h-32.448a.921.921,0,0,0-.138.01.862.862,0,0,0-.144.034.78.78,0,0,0-.369.247.583.583,0,0,0-.135.368" transform="translate(-1341.754 -1320.916)" fill="#ffc76c"/>
            <path id="Trazado_1005498" data-name="Trazado 1005498" d="M1650.444,1461.249h17.384a.686.686,0,0,0,.7-.625c0-.011,0-.023,0-.034v-1.711c0-.011,0-.022,0-.034a.68.68,0,0,0-.617-.621.707.707,0,0,0-.083,0h-15.249v0a5.309,5.309,0,0,1-2.133,3.024" transform="translate(-1495.04 -1320.916)" fill="#ffae39"/>
            <rect id="Rectángulo_458179" data-name="Rectángulo 458179" width="0.369" height="3.029" transform="translate(143.418 137.305)" fill="#ffa412"/>
            <rect id="Rectángulo_458180" data-name="Rectángulo 458180" width="0.369" height="3.029" transform="translate(144.667 137.305)" fill="#ffa412"/>
            <rect id="Rectángulo_458181" data-name="Rectángulo 458181" width="0.369" height="3.029" transform="translate(146.164 137.305)" fill="#ffa412"/>
            <rect id="Rectángulo_458182" data-name="Rectángulo 458182" width="0.369" height="3.029" transform="translate(148.458 137.305)" fill="#ffa412"/>
            <rect id="Rectángulo_458183" data-name="Rectángulo 458183" width="0.369" height="3.029" transform="translate(150.885 137.305)" fill="#ffa412"/>
            <rect id="Rectángulo_458184" data-name="Rectángulo 458184" width="0.369" height="3.029" transform="translate(154.605 137.305)" fill="#ffa412"/>
            <rect id="Rectángulo_458185" data-name="Rectángulo 458185" width="0.369" height="3.029" transform="translate(158.087 137.305)" fill="#ffa412"/>
            <rect id="Rectángulo_458186" data-name="Rectángulo 458186" width="0.369" height="3.029" transform="translate(161.198 137.305)" fill="#ffa412"/>
            <rect id="Rectángulo_458187" data-name="Rectángulo 458187" width="0.369" height="3.029" transform="translate(142.23 137.305)" fill="#ffa412"/>
            <rect id="Rectángulo_458188" data-name="Rectángulo 458188" width="0.369" height="3.029" transform="translate(141.445 137.305)" fill="#ffa412"/>
            <rect id="Rectángulo_458189" data-name="Rectángulo 458189" width="0.369" height="3.029" transform="translate(140.687 137.305)" fill="#ffa412"/>
            <path id="Trazado_1005499" data-name="Trazado 1005499" d="M1488.089,1458.229v3.008a.908.908,0,0,0,.139.011h.23v-3.029h-.23a.924.924,0,0,0-.139.01" transform="translate(-1347.972 -1320.915)" fill="#ffa412"/>
            <path id="Trazado_1005500" data-name="Trazado 1005500" d="M1482.65,1458.939v2.447a.78.78,0,0,0,.368.247v-2.94a.782.782,0,0,0-.368.247" transform="translate(-1343.045 -1321.343)" fill="#ffa412"/>
            <path id="Trazado_1005501" data-name="Trazado 1005501" d="M1526.466,1426.758v1.711a.582.582,0,0,0,.135.368.781.781,0,0,0,.368.247.864.864,0,0,0,.144.034l.046.006.036,0h32.5a.741.741,0,0,0,.784-.625c0-.011,0-.023,0-.034v-1.711c0-.011,0-.023,0-.034a.741.741,0,0,0-.784-.625h-32.49a.893.893,0,0,0-.1.009.877.877,0,0,0-.144.034c-.023.008-.046.016-.068.025l-.04.019,0,0-.04.021-.007,0-.035.021a.66.66,0,0,0-.078.057l-.022.019,0,0-.014.012,0,0-.023.024c-.011.012-.021.023-.031.036a.582.582,0,0,0-.135.368" transform="translate(-1382.736 -1291.819)" fill="#ffc76c"/>
            <path id="Trazado_1005502" data-name="Trazado 1005502" d="M1695.688,1429.128h17.384a.686.686,0,0,0,.7-.625c0-.011,0-.023,0-.034v-1.711c0-.011,0-.023,0-.034a.686.686,0,0,0-.7-.625h-15.249c-.006.023-.013.046-.02.07a5.3,5.3,0,0,1-2.108,2.955l-.007,0" transform="translate(-1536.024 -1291.819)" fill="#ffae39"/>
            <rect id="Rectángulo_458190" data-name="Rectángulo 458190" width="0.369" height="3.029" transform="translate(147.678 134.28)" fill="#ffa412"/>
            <rect id="Rectángulo_458191" data-name="Rectángulo 458191" width="0.369" height="3.029" transform="translate(148.927 134.28)" fill="#ffa412"/>
            <rect id="Rectángulo_458192" data-name="Rectángulo 458192" width="0.369" height="3.029" transform="translate(150.424 134.28)" fill="#ffa412"/>
            <rect id="Rectángulo_458193" data-name="Rectángulo 458193" width="0.369" height="3.029" transform="translate(152.718 134.28)" fill="#ffa412"/>
            <rect id="Rectángulo_458194" data-name="Rectángulo 458194" width="0.369" height="3.029" transform="translate(155.145 134.28)" fill="#ffa412"/>
            <rect id="Rectángulo_458195" data-name="Rectángulo 458195" width="0.369" height="3.029" transform="translate(158.865 134.28)" fill="#ffa412"/>
            <rect id="Rectángulo_458196" data-name="Rectángulo 458196" width="0.369" height="3.029" transform="translate(162.348 134.28)" fill="#ffa412"/>
            <rect id="Rectángulo_458197" data-name="Rectángulo 458197" width="0.369" height="3.029" transform="translate(165.458 134.28)" fill="#ffa412"/>
            <rect id="Rectángulo_458198" data-name="Rectángulo 458198" width="0.369" height="3.029" transform="translate(146.49 134.28)" fill="#ffa412"/>
            <rect id="Rectángulo_458199" data-name="Rectángulo 458199" width="0.369" height="3.029" transform="translate(145.705 134.28)" fill="#ffa412"/>
            <rect id="Rectángulo_458200" data-name="Rectángulo 458200" width="0.369" height="3.029" transform="translate(144.947 134.28)" fill="#ffa412"/>
            <path id="Trazado_1005503" data-name="Trazado 1005503" d="M1533.333,1426.109v3.008a.92.92,0,0,0,.138.011h.23V1426.1h-.23a.92.92,0,0,0-.138.01" transform="translate(-1388.956 -1291.819)" fill="#ffa412"/>
            <path id="Trazado_1005504" data-name="Trazado 1005504" d="M1527.9,1426.818v2.447a.782.782,0,0,0,.368.247v-2.94a.78.78,0,0,0-.368.247" transform="translate(-1384.03 -1292.247)" fill="#ffa412"/>
            <path id="Trazado_1005505" data-name="Trazado 1005505" d="M1501.13,1395.329v1.711a.582.582,0,0,0,.135.368.781.781,0,0,0,.368.247.865.865,0,0,0,.144.034.921.921,0,0,0,.138.01h32.448a.9.9,0,0,0,.351-.07.675.675,0,0,0,.431-.528c0-.009,0-.018,0-.027s0-.022,0-.034v-1.711c0-.011,0-.023,0-.034a.723.723,0,0,0-.691-.621.863.863,0,0,0-.093,0h-32.448a.905.905,0,0,0-.138.011.864.864,0,0,0-.144.034.782.782,0,0,0-.368.247.582.582,0,0,0-.135.368" transform="translate(-1359.785 -1263.349)" fill="#ffc76c"/>
            <path id="Trazado_1005506" data-name="Trazado 1005506" d="M1670.352,1397.7h17.384a.729.729,0,0,0,.313-.07.663.663,0,0,0,.385-.528c0-.009,0-.018,0-.027s0-.022,0-.034v-1.711c0-.011,0-.023,0-.034a.7.7,0,0,0-.7-.625h-15.249v0a5.315,5.315,0,0,1-2.034,2.955l-.1.07" transform="translate(-1513.074 -1263.349)" fill="#ffae39"/>
            <rect id="Rectángulo_458201" data-name="Rectángulo 458201" width="0.369" height="3.029" transform="translate(145.293 131.321)" fill="#ffa412"/>
            <rect id="Rectángulo_458202" data-name="Rectángulo 458202" width="0.369" height="3.029" transform="translate(146.541 131.321)" fill="#ffa412"/>
            <rect id="Rectángulo_458203" data-name="Rectángulo 458203" width="0.369" height="3.029" transform="translate(148.038 131.321)" fill="#ffa412"/>
            <rect id="Rectángulo_458204" data-name="Rectángulo 458204" width="0.369" height="3.029" transform="translate(150.333 131.321)" fill="#ffa412"/>
            <rect id="Rectángulo_458205" data-name="Rectángulo 458205" width="0.369" height="3.029" transform="translate(152.759 131.321)" fill="#ffa412"/>
            <rect id="Rectángulo_458206" data-name="Rectángulo 458206" width="0.369" height="3.029" transform="translate(156.479 131.321)" fill="#ffa412"/>
            <rect id="Rectángulo_458207" data-name="Rectángulo 458207" width="0.369" height="3.029" transform="translate(159.962 131.321)" fill="#ffa412"/>
            <rect id="Rectángulo_458208" data-name="Rectángulo 458208" width="0.369" height="3.029" transform="translate(163.072 131.321)" fill="#ffa412"/>
            <rect id="Rectángulo_458209" data-name="Rectángulo 458209" width="0.369" height="3.029" transform="translate(144.105 131.321)" fill="#ffa412"/>
            <rect id="Rectángulo_458210" data-name="Rectángulo 458210" width="0.369" height="3.029" transform="translate(143.32 131.321)" fill="#ffa412"/>
            <rect id="Rectángulo_458211" data-name="Rectángulo 458211" width="0.369" height="3.029" transform="translate(142.562 131.321)" fill="#ffa412"/>
            <path id="Trazado_1005507" data-name="Trazado 1005507" d="M1508,1394.681v3.008a.9.9,0,0,0,.139.011h.23v-3.029h-.23a.9.9,0,0,0-.139.011" transform="translate(-1366.006 -1263.349)" fill="#ffa412"/>
            <path id="Trazado_1005508" data-name="Trazado 1005508" d="M1502.559,1395.389v2.447a.78.78,0,0,0,.368.247v-2.94a.782.782,0,0,0-.368.247" transform="translate(-1361.08 -1263.777)" fill="#ffa412"/>
            <path id="Trazado_1005509" data-name="Trazado 1005509" d="M1490.345,1363.208v1.711a.582.582,0,0,0,.135.368.782.782,0,0,0,.368.247.857.857,0,0,0,.144.034l.046.006.026,0h32.515a.741.741,0,0,0,.784-.625q0-.017,0-.034v-1.711c0-.011,0-.023,0-.034a.741.741,0,0,0-.784-.625H1491.13a.907.907,0,0,0-.139.011.869.869,0,0,0-.144.034.781.781,0,0,0-.368.247.582.582,0,0,0-.135.368" transform="translate(-1350.016 -1234.253)" fill="#ffc76c"/>
            <path id="Trazado_1005510" data-name="Trazado 1005510" d="M1659.565,1365.578h17.384a.686.686,0,0,0,.7-.625q0-.017,0-.034v-1.711c0-.011,0-.023,0-.034a.686.686,0,0,0-.7-.625H1661.7a5.311,5.311,0,0,1-2.128,3.025l-.007,0" transform="translate(-1503.302 -1234.253)" fill="#ffae39"/>
            <rect id="Rectángulo_458212" data-name="Rectángulo 458212" width="0.369" height="3.029" transform="translate(144.277 128.296)" fill="#ffa412"/>
            <rect id="Rectángulo_458213" data-name="Rectángulo 458213" width="0.369" height="3.029" transform="translate(145.526 128.296)" fill="#ffa412"/>
            <rect id="Rectángulo_458214" data-name="Rectángulo 458214" width="0.369" height="3.029" transform="translate(147.023 128.296)" fill="#ffa412"/>
            <rect id="Rectángulo_458215" data-name="Rectángulo 458215" width="0.369" height="3.029" transform="translate(149.317 128.296)" fill="#ffa412"/>
            <rect id="Rectángulo_458216" data-name="Rectángulo 458216" width="0.369" height="3.029" transform="translate(151.744 128.296)" fill="#ffa412"/>
            <rect id="Rectángulo_458217" data-name="Rectángulo 458217" width="0.369" height="3.029" transform="translate(155.464 128.296)" fill="#ffa412"/>
            <rect id="Rectángulo_458218" data-name="Rectángulo 458218" width="0.369" height="3.029" transform="translate(158.946 128.296)" fill="#ffa412"/>
            <rect id="Rectángulo_458219" data-name="Rectángulo 458219" width="0.369" height="3.029" transform="translate(162.056 128.296)" fill="#ffa412"/>
            <rect id="Rectángulo_458220" data-name="Rectángulo 458220" width="0.369" height="3.029" transform="translate(143.089 128.296)" fill="#ffa412"/>
            <rect id="Rectángulo_458221" data-name="Rectángulo 458221" width="0.369" height="3.029" transform="translate(142.304 128.296)" fill="#ffa412"/>
            <rect id="Rectángulo_458222" data-name="Rectángulo 458222" width="0.369" height="3.029" transform="translate(141.546 128.296)" fill="#ffa412"/>
            <path id="Trazado_1005511" data-name="Trazado 1005511" d="M1497.212,1362.559v3.008a.924.924,0,0,0,.138.01h.23v-3.029h-.23a.908.908,0,0,0-.138.011" transform="translate(-1356.236 -1234.253)" fill="#ffa412"/>
            <path id="Trazado_1005512" data-name="Trazado 1005512" d="M1491.773,1363.268v2.447a.78.78,0,0,0,.368.247v-2.94a.78.78,0,0,0-.368.247" transform="translate(-1351.309 -1234.68)" fill="#ffa412"/>
            <path id="Trazado_1005513" data-name="Trazado 1005513" d="M1772.232,1400.289a15.421,15.421,0,1,0-15.421,15.421,15.421,15.421,0,0,0,15.421-15.421" transform="translate(-1577.423 -1254.47)" fill="#e2810e"/>
            <path id="Trazado_1005514" data-name="Trazado 1005514" d="M1786.52,1400.289a15.421,15.421,0,1,0-15.421,15.421,15.421,15.421,0,0,0,15.421-15.421" transform="translate(-1590.365 -1254.47)" fill="#ffc76c"/>
            <path id="Trazado_1005515" data-name="Trazado 1005515" d="M1774.352,1425.347a14.051,14.051,0,1,1,9.935,4.115,13.96,13.96,0,0,1-9.935-4.115m-3.277-9.935a13.212,13.212,0,1,0,13.212-13.212,13.227,13.227,0,0,0-13.212,13.212" transform="translate(-1603.554 -1269.41)" fill="#ffa412"/>
            <path id="Trazado_1005516" data-name="Trazado 1005516" d="M1862.24,1454.834a2.316,2.316,0,0,0-.033-.816,1.692,1.692,0,0,0-.345-.677,3.2,3.2,0,0,0-.69-.609,8.469,8.469,0,0,0-1.069-.6,22.092,22.092,0,0,1-1.974-1.085,7,7,0,0,1-1.476-1.2,4.117,4.117,0,0,1-.872-1.464,4.646,4.646,0,0,1,.375-3.511,3.9,3.9,0,0,1,1.089-1.209,4.867,4.867,0,0,1,1.559-.742,6.5,6.5,0,0,1,1.947-.224l.275-2.316,1.864.221-.279,2.348a5.837,5.837,0,0,1,1.754.746,4.407,4.407,0,0,1,1.964,2.818,5.87,5.87,0,0,1,.077,1.99l-3.367-.4a2.857,2.857,0,0,0-.346-2.011,1.986,1.986,0,0,0-1.467-.827,2.526,2.526,0,0,0-.92.039,1.711,1.711,0,0,0-.671.326,1.591,1.591,0,0,0-.432.558,2.334,2.334,0,0,0-.205.733,2.148,2.148,0,0,0,.031.739,1.587,1.587,0,0,0,.331.648,3.215,3.215,0,0,0,.7.609,10.851,10.851,0,0,0,1.111.642q1.08.556,1.954,1.11a7.08,7.08,0,0,1,1.469,1.211,3.973,3.973,0,0,1,1.022,3.331,4.248,4.248,0,0,1-.535,1.67,3.861,3.861,0,0,1-1.094,1.2,4.713,4.713,0,0,1-1.567.714,7.028,7.028,0,0,1-1.956.207l-.256,2.153-1.852-.22.254-2.143a7.868,7.868,0,0,1-1.82-.644,4.987,4.987,0,0,1-1.491-1.126,4.462,4.462,0,0,1-.936-1.675,5.437,5.437,0,0,1-.155-2.279l3.367.4a3.351,3.351,0,0,0,.063,1.308,2.165,2.165,0,0,0,.479.891,2.1,2.1,0,0,0,.77.53,3.606,3.606,0,0,0,.923.236,3.006,3.006,0,0,0,.978-.026,2.006,2.006,0,0,0,.74-.308,1.6,1.6,0,0,0,.489-.54,1.944,1.944,0,0,0,.228-.725" transform="translate(-1679.567 -1304.755)" fill="#ffa412"/>
            <path id="Trazado_1005517" data-name="Trazado 1005517" d="M1118.385,1467.708s-1.946,2.74-3.73,2.778a13.038,13.038,0,0,1-4.5-1.27s-1.638-3.651-.527-5.08a2.386,2.386,0,0,1,2.28.375,3.5,3.5,0,0,1,.6.578,1.913,1.913,0,0,0,.937.635c1.273.387,2.784-.524,3.349.356a5.978,5.978,0,0,0,.984,1.165,4.489,4.489,0,0,0,.6.463" transform="translate(-1004.797 -1326.15)" fill="#ffeddc"/>
            <path id="Trazado_1005518" data-name="Trazado 1005518" d="M936.88,1549.883s6.879-16.668,19.261-16.985c0,0,11.429,1.27,12.064,16.985Z" transform="translate(-848.664 -1388.562)" fill="#ffeddc"/>
            <path id="Trazado_1005519" data-name="Trazado 1005519" d="M1105.176,1517.552s4.963,1.1,6.494.455a1.533,1.533,0,0,0-1.859-1.784,4.386,4.386,0,0,1-2.91-.767c-.776-.395-1.931,1.228-1.725,2.1" transform="translate(-1001.092 -1372.706)" fill="#2b478b"/>
            <path id="Trazado_1005520" data-name="Trazado 1005520" d="M1138.849,1472.8c-.318.238-1.292-3.356-1.292-3.356a3.5,3.5,0,0,1,.6.578,1.914,1.914,0,0,0,.937.635c0,.1.06,1.911-.248,2.143" transform="translate(-1030.446 -1331.08)" fill="#e5c1a1"/>
            <path id="Trazado_1005521" data-name="Trazado 1005521" d="M1173.86,1487.264a20.456,20.456,0,0,1-2.677,1.416c-.318,0,1.692-2.581,1.692-2.581a5.974,5.974,0,0,0,.984,1.165" transform="translate(-1060.876 -1346.169)" fill="#e5c1a1"/>
            <path id="Trazado_1005522" data-name="Trazado 1005522" d="M1008.226,1592.557c-.127-.109,4.868-7.355,6.244-7.408s4.467,1.587,6.7,1.8,4.407-.423,4.831.9,1.587,6.013.873,6.763-15.905.293-18.652-2.054" transform="translate(-913.291 -1435.892)" fill="#f9ddbf"/>
            <path id="Trazado_1005523" data-name="Trazado 1005523" d="M1573.665,1494.793a.846.846,0,0,1,.151.905.008.008,0,0,1,0,0,5.627,5.627,0,0,1-1.778,1.95c-.107.086-.2.165-.285.238l-.064.057-.049.045c-.781.72-.487.885-1.891,2.347-1.6,1.665-2.7,1.7-3.016,1.543-.265-.129.274-1.012.871-2.005.029-.048.057-.1.087-.145.079-.132.159-.266.237-.4.7-1.195.52-1.755.354-3.533-.135-1.445-2.248-8.072-2.248-8.072l3.067-.528s.924,5.277,1.941,6.09c.544.433,1.153.439,1.676.76.037.022.073.045.109.069a4.024,4.024,0,0,1,.839.675" transform="translate(-1418.576 -1347.167)" fill="#ffb27d"/>
            <path id="Trazado_1005524" data-name="Trazado 1005524" d="M1579.717,1560.687a.846.846,0,0,1,.151.9.007.007,0,0,1,0,0,6.511,6.511,0,0,1-1.781,1.944c-.106.088-.2.169-.282.244l-.064.057-.049.045c-.781.72-.487.885-1.891,2.347-1.6,1.665-2.7,1.7-3.016,1.544-.265-.129.274-1.013.871-2.005a6.819,6.819,0,0,0,2.853-2.1c.964-1.23,1.606-2.81,2.263-3.725l.109.069a4.017,4.017,0,0,1,.839.675" transform="translate(-1424.628 -1413.061)" fill="#233862"/>
            <path id="Trazado_1005525" data-name="Trazado 1005525" d="M1295.876,1483.9c-.189.947-1.539.789-3.047.42s-1.149.07-3.3-.168-2.8-1.038-2.861-1.357c-.058-.283,1-.383,2.139-.514l.43-.052c1.284-.161,2.224-.99,3.391-1.67,1.1-.645,2.753-3.271,2.753-3.271l2.943.233s-1.544,2.346-2.142,3.365a3.553,3.553,0,0,0-.289,2.005,3.779,3.779,0,0,1-.023,1.007" transform="translate(-1165.519 -1338.187)" fill="#ffb27d"/>
            <path id="Trazado_1005526" data-name="Trazado 1005526" d="M1292.829,1532.345c-1.508-.368-1.149.069-3.3-.168s-2.8-1.038-2.861-1.357c-.058-.283,1-.383,2.139-.514l.011.022a6.051,6.051,0,0,0,3.073.955c1.456.035,3-.382,4-.366a3.78,3.78,0,0,1-.023,1.007c-.189.947-1.539.789-3.047.42" transform="translate(-1165.519 -1386.214)" fill="#233862"/>
            <path id="Trazado_1005527" data-name="Trazado 1005527" d="M1504.21,1302.265l2.751,7.4,3.592,9.666a5.822,5.822,0,0,0,1.908-.174,8.273,8.273,0,0,0,1.845-.9s-1-10.378-2.858-16.336a10.609,10.609,0,0,0-1.6-3.462c-2.884-3.408-5.637,3.8-5.637,3.8" transform="translate(-1362.575 -1175.372)" fill="#233862"/>
            <path id="Trazado_1005528" data-name="Trazado 1005528" d="M1377.413,1208.569c1.8-.581,6.943.165,12.106,1.176l1.081-1.783,11.153-.871s3.68,8.161,1.665,13.362a1.886,1.886,0,0,1-1.888,1.271h-.163l-8.794,0c-5.547,0-11.739-3.813-12.54-3.973-1.311-.262-1.836,2.36-3.147,5.113s-12.324,12.193-12.324,12.193a9.692,9.692,0,0,1-2.392-.245,2.356,2.356,0,0,1-1.027-.648s12.2-24.279,16.268-25.591" transform="translate(-1232.981 -1093.432)" fill="#2b478b"/>
            <path id="Trazado_1005529" data-name="Trazado 1005529" d="M1619.46,878.536a122.016,122.016,0,0,0,12.039,7.8s2.715,1.626,4.567.828c3.087-1.33,5.458-5.987,1.188-11.139-2.13-2.569-3.9-3.416-3.481-6.832.449-3.7-1.222-8.354-5.482-8.55a11.754,11.754,0,0,0-4.053.179c-3.924,1.232-10.485,15.821-4.778,17.717" transform="translate(-1464.948 -779.512)" fill="#233862"/>
            <path id="Trazado_1005530" data-name="Trazado 1005530" d="M1673.758,1025.8c-.23.634-6.26,1.2-9.691.971a4.7,4.7,0,0,1-2.214-.479c-1.224-1.063-1.1,1.275-1.27-9.911-.081-5.456,4.63-10.316,4.63-10.316s.376,2.331,5.048-.443c.166-.1,2.006,2.627,3.777,5.982,1.951,3.707-.046,13.544-.281,14.2" transform="translate(-1504.224 -910.933)" fill="#aec3ff"/>
            <path id="Trazado_1005531" data-name="Trazado 1005531" d="M1533.427,1351.781l3.591,9.666a5.819,5.819,0,0,0,1.908-.174,8.271,8.271,0,0,0,1.845-.9s-1-10.378-2.858-16.336Z" transform="translate(-1389.041 -1217.485)" fill="#2b478b"/>
            <path id="Trazado_1005532" data-name="Trazado 1005532" d="M1580.479,1010.345s-4.266,1.047-5.372,2.885c-1.347,2.239-8.066,12.334-8.066,12.334s6.624,2.343,7.753,1.214,3.929-10.475,3.929-10.475Z" transform="translate(-1419.49 -915.212)" fill="#aec3ff"/>
            <path id="Trazado_1005533" data-name="Trazado 1005533" d="M1709.82,968.643a11.587,11.587,0,0,1-3,2.067c-.5.182-1.328.382-1.328.382l-.675-.682c-.592-.552,0-.711-.087-1.755,0-.049-.008-.1-.014-.151a18.876,18.876,0,0,0-.479-2.53.01.01,0,0,1,0,0l4.128-1.18-.133.228c.254,2.142,1.024,3.563,1.584,3.626" transform="translate(-1543.772 -873.945)" fill="#ffb27d"/>
            <path id="Trazado_1005534" data-name="Trazado 1005534" d="M1708.369,964.789a4.612,4.612,0,0,1-3.719,3.156,19.713,19.713,0,0,0-.408-1.973.009.009,0,0,1,0,0Z" transform="translate(-1543.772 -873.945)" fill="#ed975d"/>
            <path id="Trazado_1005535" data-name="Trazado 1005535" d="M1673.924,898.322s5.564-.37,5.28-3.831.243-5.84-3.321-5.75-4.146,1.467-4.332,2.646.918,6.943,2.373,6.936" transform="translate(-1514.142 -805.055)" fill="#ffb27d"/>
            <path id="Trazado_1005536" data-name="Trazado 1005536" d="M1686.326,880.919s1.383,4.056,4.665,4.528c2.394.344,3.345-.3,3.345-.3a9.4,9.4,0,0,1-2.061-3.224,1.692,1.692,0,0,0-1.325-1.089c-1.7-.263-3.9-1.391-4.624.088" transform="translate(-1527.543 -797.296)" fill="#233862"/>
            <path id="Trazado_1005537" data-name="Trazado 1005537" d="M1670.3,888.533a3.671,3.671,0,0,0-1.686,1.884,7.081,7.081,0,0,0-.419,3.536s-1.6-3.7-.441-5.369a1.474,1.474,0,0,1,2.547-.051" transform="translate(-1510.341 -804.192)" fill="#233862"/>
            <path id="Trazado_1005538" data-name="Trazado 1005538" d="M1701.68,1005.836a7.452,7.452,0,0,0,.761,2.438,2.986,2.986,0,0,1-1.573-1.773s.373-.617.812-.664" transform="translate(-1540.716 -911.127)" fill="#91b0f2"/>
            <path id="Trazado_1005539" data-name="Trazado 1005539" d="M1640.811,1079.957s-3.107,3.727-2.724,5.077,2.534,1.35,2.534,1.35a14.91,14.91,0,0,1,0-4.373c.4-1.5.654-2.143.19-2.054" transform="translate(-1483.817 -978.262)" fill="#91b0f2"/>
            <path id="Trazado_1005540" data-name="Trazado 1005540" d="M1732.6,1112.929s4.476-2.728,4.417-4.313,0-4.493.422-4.085a11.623,11.623,0,0,1,1.619,4.6c-.128.925-4.647,7.383-5.207,7.367-3.99-.111-1.251-3.568-1.251-3.568" transform="translate(-1568.629 -1000.494)" fill="#91b0f2"/>
            <path id="Trazado_1005541" data-name="Trazado 1005541" d="M1721.032,995.611s-2.444,3.074-3.456,3.4a6.951,6.951,0,0,0,4.9-2.4s-.678-.993-1.444-1" transform="translate(-1555.852 -901.865)" fill="#91b0f2"/>
            <path id="Trazado_1005542" data-name="Trazado 1005542" d="M1513.777,1049.674a11.343,11.343,0,1,1,11.343,11.343,11.343,11.343,0,0,1-11.343-11.343" transform="translate(-1371.241 -940.563)" fill="#e2810e"/>
            <path id="Trazado_1005543" data-name="Trazado 1005543" d="M1503.269,1049.674a11.343,11.343,0,1,1,11.343,11.343,11.343,11.343,0,0,1-11.343-11.343" transform="translate(-1361.723 -940.563)" fill="#ffc76c"/>
            <path id="Trazado_1005544" data-name="Trazado 1005544" d="M1524.31,1071.132a10.335,10.335,0,1,1,7.307-3.027,10.266,10.266,0,0,1-7.307,3.027m0-20.052a9.718,9.718,0,1,0,9.718,9.718,9.729,9.729,0,0,0-9.718-9.718" transform="translate(-1371.422 -951.552)" fill="#ffa412"/>
            <path id="Trazado_1005545" data-name="Trazado 1005545" d="M1581.612,1089.794a1.71,1.71,0,0,0-.024-.6,1.248,1.248,0,0,0-.254-.5,2.356,2.356,0,0,0-.507-.448,6.223,6.223,0,0,0-.786-.44,16.317,16.317,0,0,1-1.452-.8,5.157,5.157,0,0,1-1.086-.884,3.029,3.029,0,0,1-.641-1.077,3.415,3.415,0,0,1,.276-2.583,2.872,2.872,0,0,1,.8-.89,3.591,3.591,0,0,1,1.147-.546,4.777,4.777,0,0,1,1.432-.165l.2-1.7,1.371.163-.2,1.727a4.287,4.287,0,0,1,1.291.549,3.242,3.242,0,0,1,1.444,2.072,4.316,4.316,0,0,1,.057,1.464l-2.476-.294a2.1,2.1,0,0,0-.255-1.479,1.46,1.46,0,0,0-1.079-.608,1.853,1.853,0,0,0-.677.029,1.256,1.256,0,0,0-.493.24,1.171,1.171,0,0,0-.318.41,1.718,1.718,0,0,0-.151.539,1.58,1.58,0,0,0,.022.543,1.169,1.169,0,0,0,.243.477,2.357,2.357,0,0,0,.512.448,7.971,7.971,0,0,0,.817.472q.794.409,1.437.816a5.209,5.209,0,0,1,1.08.891,2.922,2.922,0,0,1,.752,2.45,3.123,3.123,0,0,1-.393,1.229,2.845,2.845,0,0,1-.8.881,3.466,3.466,0,0,1-1.153.525,5.164,5.164,0,0,1-1.438.152l-.188,1.584-1.362-.162.187-1.576a5.791,5.791,0,0,1-1.338-.473,3.673,3.673,0,0,1-1.1-.828,3.283,3.283,0,0,1-.688-1.232,4,4,0,0,1-.114-1.676l2.476.294a2.463,2.463,0,0,0,.047.962,1.592,1.592,0,0,0,.352.655,1.542,1.542,0,0,0,.566.39,2.63,2.63,0,0,0,.679.173,2.2,2.2,0,0,0,.719-.019,1.472,1.472,0,0,0,.544-.226,1.172,1.172,0,0,0,.36-.4,1.436,1.436,0,0,0,.168-.533" transform="translate(-1427.3 -977.55)" fill="#ffa412"/>
            <path id="Trazado_1005546" data-name="Trazado 1005546" d="M1494.807,1162.1s-.127-1.863.577-1.79c.864.09,1.782,2.14,1.361,2.536s-1.929-.287-1.938-.746" transform="translate(-1354.05 -1051.051)" fill="#ffb27d"/>
            <path id="Trazado_1005547" data-name="Trazado 1005547" d="M1700.8,1216.89l-1.051-.63a2.72,2.72,0,0,0-1.035-.205c-.384.055-1.3-.106-1.324.043s.876.814.876.814c-.544.835-2.516.988-2.666,1.3-.182.381.709.739,1.192.946a2.816,2.816,0,0,0,2.432-.145c.521-.4,1.378-.918,1.378-.918Z" transform="translate(-1535.92 -1101.532)" fill="#ffb27d"/>
            <path id="Trazado_1005548" data-name="Trazado 1005548" d="M1744.683,1005.656s4.414.289,5.518,2.01,4.648,11.529,4.074,14.531-11.072,6.6-11.072,6.6a1.97,1.97,0,0,1-.464-1.479,3.078,3.078,0,0,1,.336-1.269s6.441-5.383,6-6.454c-1.637-3.959-4.39-13.944-4.39-13.944" transform="translate(-1578.645 -910.964)" fill="#aec3ff"/>
            <path id="Trazado_1005549" data-name="Trazado 1005549" d="M324.034,1713.52l-258.509-.089a.328.328,0,0,1-.327-.328v-.2a.328.328,0,0,1,.328-.327l258.509.089a.328.328,0,0,1,.327.328v.2a.328.328,0,0,1-.328.327" transform="translate(-59.059 -1551.322)" fill="#2e3552"/>
          </g>
        </g>
      </g>
    </g>
  </g>
</svg>
