<svg xmlns="http://www.w3.org/2000/svg" width="128" height="128" viewBox="0 0 128 128">
  <g id="Grupo_1182461" data-name="Grupo 1182461" transform="translate(-72.746 -7992)">
    <g id="Elipse_13628" data-name="Elipse 13628" transform="translate(72.746 7992)" fill="#fdf3e6" stroke="#ff984a" stroke-width="6">
      <circle cx="64" cy="64" r="64" stroke="none"/>
      <circle cx="64" cy="64" r="61" fill="none"/>
    </g>
    <g id="Grupo_1183249" data-name="Grupo 1183249" transform="translate(102.266 8021.521)">
      <g id="Grupo_1183247" data-name="Grupo 1183247" transform="translate(1.347 1.347)">
        <path id="Trazado_1008676" data-name="Trazado 1008676" d="M59.041,10A4.041,4.041,0,0,0,55,14.041V70.609H95.406V14.041A4.041,4.041,0,0,1,99.447,10Z" transform="translate(-48.939 -10)" fill="#fff"/>
        <path id="Trazado_1008677" data-name="Trazado 1008677" d="M10,390v5.387a4.041,4.041,0,0,0,4.041,4.041H56.467V390Z" transform="translate(-10 -338.819)" fill="#f5eeec"/>
        <path id="Trazado_1008678" data-name="Trazado 1008678" d="M363.081,24.816H355V14.041a4.041,4.041,0,0,1,8.081,0Z" transform="translate(-308.533 -10)" fill="#f5eeec"/>
        <circle id="Elipse_16086" data-name="Elipse 16086" cx="13" cy="13" r="13" transform="translate(40.613 40.653)" fill="#fff2a0"/>
        <path id="Trazado_1008679" data-name="Trazado 1008679" d="M95,220h5.387v10.775H95Z" transform="translate(-83.552 -191.716)" fill="#fff2a0"/>
        <path id="Trazado_1008680" data-name="Trazado 1008680" d="M175,200h5.387v13.469H175Z" transform="translate(-152.777 -174.41)" fill="#a0c8ff"/>
        <path id="Trazado_1008681" data-name="Trazado 1008681" d="M255,170h5.387v17.509H255Z" transform="translate(-222.002 -148.45)" fill="#b8ecbc"/>
      </g>
      <g id="Grupo_1183248" data-name="Grupo 1183248">
        <path id="Trazado_1008682" data-name="Trazado 1008682" d="M86.347,332.694h20.2a1.347,1.347,0,0,0,0-2.694h-20.2a1.347,1.347,0,1,0,0,2.694Z" transform="translate(-73.552 -285.553)"/>
        <path id="Trazado_1008683" data-name="Trazado 1008683" d="M86.347,42.694H97.122a1.347,1.347,0,0,0,0-2.694H86.347a1.347,1.347,0,0,0,0,2.694Z" transform="translate(-73.552 -34.613)"/>
        <path id="Trazado_1008684" data-name="Trazado 1008684" d="M86.347,82.694H97.122a1.347,1.347,0,0,0,0-2.694H86.347a1.347,1.347,0,0,0,0,2.694Z" transform="translate(-73.552 -69.225)"/>
        <circle id="Elipse_16087" data-name="Elipse 16087" cx="1.5" cy="1.5" r="1.5" transform="translate(5.959 18)"/>
        <path id="Trazado_1008685" data-name="Trazado 1008685" d="M85,222.122a1.347,1.347,0,0,0,1.347,1.347h5.387a1.347,1.347,0,0,0,1.347-1.347V211.347A1.347,1.347,0,0,0,91.734,210H86.347A1.347,1.347,0,0,0,85,211.347Zm2.694-9.428h2.694v8.081H87.694Z" transform="translate(-73.552 -181.716)"/>
        <path id="Trazado_1008686" data-name="Trazado 1008686" d="M166.347,190A1.347,1.347,0,0,0,165,191.347v13.469a1.347,1.347,0,0,0,1.347,1.347h5.387a1.347,1.347,0,0,0,1.347-1.347V191.347A1.347,1.347,0,0,0,171.734,190Zm4.041,13.469h-2.694V192.694h2.694Z" transform="translate(-142.777 -164.41)"/>
        <path id="Trazado_1008687" data-name="Trazado 1008687" d="M251.734,160h-5.387A1.347,1.347,0,0,0,245,161.347v17.509a1.347,1.347,0,0,0,1.347,1.347h5.387a1.347,1.347,0,0,0,1.347-1.347V161.347A1.347,1.347,0,0,0,251.734,160Zm-1.347,17.509h-2.694V162.694h2.694Z" transform="translate(-212.002 -138.45)"/>
        <path id="Trazado_1008688" data-name="Trazado 1008688" d="M86.347,71.16c7.612,0,13.885-1.209,18.645-3.594a18.5,18.5,0,0,0,8.194-7.553l.787,2.162a1.347,1.347,0,0,0,2.531-.921l-1.955-5.37a1.347,1.347,0,0,0-1.726-.805l-5.37,1.954a1.347,1.347,0,1,0,.921,2.531l2.475-.9a15.9,15.9,0,0,1-7.065,6.494c-4.382,2.2-10.249,3.309-17.439,3.309a1.347,1.347,0,0,0,0,2.694Z" transform="translate(-73.552 -47.59)"/>
        <path id="Trazado_1008689" data-name="Trazado 1008689" d="M54.817,40.675a14.06,14.06,0,0,0-5.657,1.182V17.509h6.734a1.347,1.347,0,0,0,1.347-1.347V5.387A5.394,5.394,0,0,0,51.854,0H11.448A5.394,5.394,0,0,0,6.061,5.387v8.081a1.347,1.347,0,0,0,2.694,0V5.387a2.7,2.7,0,0,1,2.694-2.694H47.192a5.353,5.353,0,0,0-.725,2.694V43.411a14.184,14.184,0,0,0-5.317,7.769H8.755V25.59a1.347,1.347,0,0,0-2.694,0v25.59H1.347A1.347,1.347,0,0,0,0,52.528v5.387A5.394,5.394,0,0,0,5.387,63.3H43.511A14.14,14.14,0,1,0,54.817,40.675ZM49.161,5.387a2.694,2.694,0,0,1,5.387,0v9.428H49.161ZM5.387,60.609a2.7,2.7,0,0,1-2.694-2.694V53.875H40.708c-.021.312-.032.626-.032.943a14.06,14.06,0,0,0,1.241,5.792Zm49.43,5.657A11.448,11.448,0,1,1,66.266,54.817,11.461,11.461,0,0,1,54.817,66.266Z"/>
        <path id="Trazado_1008690" data-name="Trazado 1008690" d="M379.95,349.418a11.415,11.415,0,0,1-2.884-1.336.844.844,0,0,1-.167-.781,1.187,1.187,0,0,1,.775-.937,1.953,1.953,0,0,1,1.928.211,1.347,1.347,0,0,0,2.015-1.788,3.909,3.909,0,0,0-2.034-1.133v-.307a1.347,1.347,0,1,0-2.694,0v.441a3.853,3.853,0,0,0-2.637,3.015,3.454,3.454,0,0,0,1.152,3.4,13.279,13.279,0,0,0,3.648,1.757,1.365,1.365,0,0,1,1,1.619,1.844,1.844,0,0,1-1.83,1.555,3.165,3.165,0,0,1-2.3-.6,1.347,1.347,0,1,0-1.475,2.254,5.473,5.473,0,0,0,2.436.977v.4a1.347,1.347,0,1,0,2.694,0v-.539a4.606,4.606,0,0,0,3.13-3.6A4.068,4.068,0,0,0,379.95,349.418Z" transform="translate(-323.491 -295.937)"/>
      </g>
    </g>
  </g>
</svg>
