<svg xmlns="http://www.w3.org/2000/svg" width="150" height="150" viewBox="0 0 150 150">
  <g id="Grupo_1177486" data-name="Grupo 1177486" transform="translate(-383.746 -8400)">
    <circle id="Elipse_13609" data-name="Elipse 13609" cx="75" cy="75" r="75" transform="translate(383.746 8400)" fill="#cfa9e6"/>
    <g id="Grupo_1183188" data-name="Grupo 1183188" transform="translate(390.585 8435.121)">
      <circle id="Elipse_16077" data-name="Elipse 16077" cx="1.5" cy="1.5" r="1.5" transform="translate(60.5)" fill="#53435c"/>
      <path id="Trazado_1008425" data-name="Trazado 1008425" d="M85.058,72.121h19.005a1.558,1.558,0,0,0,1.558-1.558V51.558A1.558,1.558,0,0,0,104.063,50H85.058A1.558,1.558,0,0,0,83.5,51.558V70.563A1.558,1.558,0,0,0,85.058,72.121Zm9.5-9.751a1.579,1.579,0,1,1,1.579-1.579A1.581,1.581,0,0,1,94.56,62.37Zm0,3.116a4.951,4.951,0,0,1,4.733,3.519H89.827A4.951,4.951,0,0,1,94.56,65.486Zm-7.945-12.37h15.889V69.005h-.015a8.078,8.078,0,0,0-4.02-5.619,4.695,4.695,0,1,0-7.819,0,8.078,8.078,0,0,0-4.02,5.619h-.015Z" transform="translate(-42.211 -42.211)" fill="#53435c"/>
      <path id="Trazado_1008426" data-name="Trazado 1008426" d="M124,222H85.058a1.558,1.558,0,1,0,0,3.116H124A1.558,1.558,0,1,0,124,222Z" transform="translate(-42.211 -187.417)" fill="#53435c"/>
      <path id="Trazado_1008427" data-name="Trazado 1008427" d="M125.56,313.558A1.558,1.558,0,0,0,124,312H85.058a1.558,1.558,0,1,0,0,3.116H124A1.558,1.558,0,0,0,125.56,313.558Z" transform="translate(-42.211 -263.397)" fill="#53435c"/>
      <path id="Trazado_1008428" data-name="Trazado 1008428" d="M85.058,270.116h6.854a1.558,1.558,0,0,0,0-3.116H85.058a1.558,1.558,0,0,0,0,3.116Z" transform="translate(-42.211 -225.407)" fill="#53435c"/>
      <path id="Trazado_1008429" data-name="Trazado 1008429" d="M220.413,267H199.258a1.558,1.558,0,0,0,0,3.116h21.155a1.558,1.558,0,0,0,0-3.116Z" transform="translate(-138.621 -225.407)" fill="#53435c"/>
      <path id="Trazado_1008430" data-name="Trazado 1008430" d="M260.859,357a1.558,1.558,0,1,0,0,3.116h4.151a1.558,1.558,0,0,0,0-3.116Z" transform="translate(-190.626 -301.387)" fill="#53435c"/>
      <path id="Trazado_1008431" data-name="Trazado 1008431" d="M93.5,357h21.155v3.116H93.5Z" transform="translate(-50.653 -301.387)" fill="#53435c"/>
      <path id="Trazado_1008432" data-name="Trazado 1008432" d="M247.058,93.616h13.709a1.558,1.558,0,1,0,0-3.116H247.058a1.558,1.558,0,1,0,0,3.116Z" transform="translate(-178.975 -76.402)" fill="#53435c"/>
      <path id="Trazado_1008433" data-name="Trazado 1008433" d="M247.058,134.616h13.709a1.558,1.558,0,1,0,0-3.116H247.058a1.558,1.558,0,1,0,0,3.116Z" transform="translate(-178.975 -111.015)" fill="#53435c"/>
      <path id="Trazado_1008434" data-name="Trazado 1008434" d="M91.138,53.371V1.558A1.558,1.558,0,0,0,89.58,0H69.329a1.558,1.558,0,1,0,0,3.116H88.023V53.371a13.275,13.275,0,0,0-11.1,9.252H42.847a1.558,1.558,0,0,0-1.558,1.558v6.231a1.558,1.558,0,0,0,1.558,1.558H77.519a13.31,13.31,0,0,0,3.542,4.673H36.616V3.116H55.309a1.558,1.558,0,1,0,0-3.116H35.058A1.558,1.558,0,0,0,33.5,1.558V78.2a1.558,1.558,0,0,0,1.558,1.558H89.58a13.24,13.24,0,0,0,1.558-26.388ZM44.4,68.854V65.739H76.364c-.015.258-.025.517-.025.779a13.264,13.264,0,0,0,.211,2.337ZM89.58,76.643A10.126,10.126,0,1,1,99.706,66.518,10.137,10.137,0,0,1,89.58,76.643Z" fill="#53435c"/>
      <path id="Trazado_1008435" data-name="Trazado 1008435" d="M372.952,398.74a1.558,1.558,0,0,0-2.172.365l-2.981,4.186-.926-1.042a1.558,1.558,0,0,0-2.329,2.069l2.225,2.5a1.557,1.557,0,0,0,1.164.523l.084,0a1.557,1.557,0,0,0,1.185-.652l4.116-5.779a1.558,1.558,0,0,0-.365-2.172Z" transform="translate(-279.142 -336.381)" fill="#53435c"/>
    </g>
  </g>
</svg>
