<svg xmlns="http://www.w3.org/2000/svg" width="150" height="150" viewBox="0 0 150 150">
  <g id="Grupo_1177487" data-name="Grupo 1177487" transform="translate(-383.746 -8400)">
    <circle id="Elipse_13609" data-name="Elipse 13609" cx="75" cy="75" r="75" transform="translate(383.746 8400)" fill="#cfa9e6"/>
    <g id="Grupo_1183189" data-name="Grupo 1183189" transform="translate(401.58 8432.722)">
      <path id="Trazado_1008436" data-name="Trazado 1008436" d="M97.137,214.961a5.229,5.229,0,0,0-5.738,3.415c-.011.025-.021.05-.03.075l-4.221,11.32a5.026,5.026,0,0,0-5.063.215l-11.013,7.069a18.662,18.662,0,0,0-7.5,8.409,18.662,18.662,0,0,0-7.5-8.409l-11.011-7.068A5.027,5.027,0,0,0,40,229.771l-4.221-11.32c-.009-.025-.019-.05-.03-.075a5.23,5.23,0,0,0-5.738-3.415,5.052,5.052,0,0,0-4.2,5.7,1.638,1.638,0,0,0,.036.2l4.654,18.707a25.625,25.625,0,0,0,9.042,13.424l.052.039,7.349,5.258v2.543a3.125,3.125,0,0,0,3.121,3.121H77.08a3.125,3.125,0,0,0,3.121-3.121v-2.543l7.349-5.258.052-.039a25.626,25.626,0,0,0,9.042-13.426l.76-3.056a1.651,1.651,0,0,0-3.205-.8l-.76,3.054a22.538,22.538,0,0,1-7.838,11.6L77.589,256.1a1.651,1.651,0,0,0-.69,1.343v3.21H65.249v-6.875c0-.05,0-.1-.007-.149,0-.012-.015-.192-.017-.505v-.032A15.481,15.481,0,0,1,72.8,239.867l.034-.021,11.032-7.081a1.717,1.717,0,0,1,2.144.233,1.732,1.732,0,0,1,.1,2.328l-7.32,5.773a1.651,1.651,0,0,0,2.045,2.593s7.548-5.96,7.6-6.017a4.993,4.993,0,0,0,1.15-5l4.859-13.031c.663-1.506,1.7-1.495,2.039-1.446a.291.291,0,0,0,.034.006,1.74,1.74,0,0,1,1.545,1.967l-.274,1.1a1.652,1.652,0,1,0,3.205.8l.3-1.212a1.664,1.664,0,0,0,.036-.2,5.052,5.052,0,0,0-4.2-5.7ZM61.909,253.626c0,.049-.007.1-.007.149v6.875H50.253v-3.21a1.652,1.652,0,0,0-.69-1.343l-8.013-5.733a22.536,22.536,0,0,1-7.838-11.6l-4.626-18.6a1.74,1.74,0,0,1,1.545-1.967.265.265,0,0,0,.034-.006c.339-.049,1.376-.06,2.039,1.446l4.859,13.029a4.994,4.994,0,0,0,1.151,5c.054.057,7.6,6.017,7.6,6.017a1.651,1.651,0,0,0,2.045-2.593l-7.32-5.773A1.732,1.732,0,0,1,41.136,233a1.717,1.717,0,0,1,2.147-.232l11.03,7.08.034.021a15.177,15.177,0,0,1,6.872,8.7A14.987,14.987,0,0,1,61.909,253.626Z" transform="translate(-6.629 -179.397)" fill="#53435c"/>
      <path id="Trazado_1008437" data-name="Trazado 1008437" d="M20.25,77.292v5.944a3.307,3.307,0,0,0,3.3,3.3H32.2a3.307,3.307,0,0,0,3.3-3.3V77.292h.765a1.651,1.651,0,0,0,1.23-2.753l-7.155-7.991a3.312,3.312,0,0,0-4.935,0l-7.155,7.99a1.651,1.651,0,0,0,1.23,2.753h.765ZM32.2,83.236H23.553V77.292H32.2ZM27.871,68.752l-1.23-1.1,1.244,1.1,4.69,5.237H23.181Z" transform="translate(0 -54.638)" fill="#53435c"/>
      <path id="Trazado_1008438" data-name="Trazado 1008438" d="M187.341,26.639a13.319,13.319,0,1,0-13.319-13.319A13.334,13.334,0,0,0,187.341,26.639Zm0-23.336a10.016,10.016,0,1,1-10.016,10.016A10.028,10.028,0,0,1,187.341,3.3Z" transform="translate(-130.394)" fill="#53435c"/>
      <path id="Trazado_1008439" data-name="Trazado 1008439" d="M229.467,46.195a5.423,5.423,0,0,0,1.831.827,1.65,1.65,0,0,0,3.3-.095v-.1a4.353,4.353,0,0,0,2.637-3.307,3.937,3.937,0,0,0-2.669-4.459,9.946,9.946,0,0,1-2.247-1.016.607.607,0,0,1,.052-.346.409.409,0,0,1,.25-.242,2.789,2.789,0,0,1,1.989.656,1.652,1.652,0,0,0,2.075-2.57,7.213,7.213,0,0,0-2.086-1.133,1.651,1.651,0,0,0-3.3.006v.015a3.785,3.785,0,0,0-2.219,2.809,3.428,3.428,0,0,0,1.161,3.371,11.637,11.637,0,0,0,3.228,1.564.654.654,0,0,1,.513.8,1.042,1.042,0,0,1-1.042.885,2.194,2.194,0,0,1-1.658-.423,1.651,1.651,0,0,0-1.808,2.764Z" transform="translate(-176.058 -27.351)" fill="#53435c"/>
      <path id="Trazado_1008440" data-name="Trazado 1008440" d="M394.411,82.212h-1.254V80.957a3.316,3.316,0,0,0-3.312-3.312h-3.321a3.316,3.316,0,0,0-3.312,3.312v1.254h-1.254a3.316,3.316,0,0,0-3.312,3.312v3.321a3.316,3.316,0,0,0,3.312,3.312h1.254v1.254a3.316,3.316,0,0,0,3.312,3.312h3.321a3.316,3.316,0,0,0,3.312-3.312V92.157h1.254a3.316,3.316,0,0,0,3.312-3.312V85.524A3.316,3.316,0,0,0,394.411,82.212Zm0,6.642h-2.906a1.651,1.651,0,0,0-1.651,1.651l-.009,2.915-3.33-.009V90.505a1.651,1.651,0,0,0-1.651-1.651l-2.915-.009.009-3.33h2.906a1.651,1.651,0,0,0,1.651-1.651l.009-2.915,3.33.009v2.906a1.651,1.651,0,0,0,1.651,1.651h2.906l.009.009Z" transform="translate(-301.224 -64.822)" fill="#53435c"/>
      <circle id="Elipse_16078" data-name="Elipse 16078" cx="1.651" cy="1.651" r="1.651" transform="translate(89.306 47.864)" fill="#53435c"/>
      <path id="Trazado_1008441" data-name="Trazado 1008441" d="M215.722,199.934a6.49,6.49,0,1,0-10.681,0,5.758,5.758,0,0,0-3.421,5.256v3.054a3.143,3.143,0,0,0,3.14,3.14H216a3.143,3.143,0,0,0,3.14-3.14V205.19a5.759,5.759,0,0,0-3.422-5.256Zm-5.341-6.869a3.187,3.187,0,1,1-3.187,3.187A3.191,3.191,0,0,1,210.381,193.065Zm5.459,15.016H204.923V205.19a2.451,2.451,0,0,1,2.448-2.448h6.022a2.451,2.451,0,0,1,2.448,2.448v2.891Z" transform="translate(-153.435 -158.423)" fill="#53435c"/>
    </g>
  </g>
</svg>
