<svg xmlns="http://www.w3.org/2000/svg" width="150" height="150" viewBox="0 0 150 150">
  <g id="Grupo_1182441" data-name="Grupo 1182441" transform="translate(-383.746 -8400)">
    <circle id="Elipse_13609" data-name="Elipse 13609" cx="75" cy="75" r="75" transform="translate(383.746 8400)" fill="#cfa9e6"/>
    <g id="Grupo_1183191" data-name="Grupo 1183191" transform="translate(412.815 8429.967)">
      <path id="Trazado_1008446" data-name="Trazado 1008446" d="M57.2,210.184a4.144,4.144,0,0,0,4.139,4.139h5.641a4.144,4.144,0,0,0,4.139-4.139v-5.64a4.148,4.148,0,0,0-.076-.788l1.1-1.1a1.319,1.319,0,0,0-1.866-1.866l-.609.609a4.12,4.12,0,0,0-2.688-1H61.343a4.144,4.144,0,0,0-4.139,4.139v5.64Zm2.639-5.64a1.5,1.5,0,0,1,1.5-1.5h5.641a1.491,1.491,0,0,1,.807.238l-3.266,3.266-.592-1.183a1.319,1.319,0,0,0-2.36,1.18l1.41,2.82a1.319,1.319,0,0,0,2.113.343l3.388-3.388v3.866a1.5,1.5,0,0,1-1.5,1.5H61.343a1.5,1.5,0,0,1-1.5-1.5v-5.64Z" transform="translate(-46.242 -165.151)" fill="#53435c"/>
      <path id="Trazado_1008447" data-name="Trazado 1008447" d="M72.147,104.6a1.319,1.319,0,0,0-1.866,0l-.609.609a4.12,4.12,0,0,0-2.688-1H61.343a4.144,4.144,0,0,0-4.139,4.139v5.641a4.144,4.144,0,0,0,4.139,4.139h5.64a4.144,4.144,0,0,0,4.139-4.139v-5.641a4.15,4.15,0,0,0-.076-.788l1.1-1.1A1.319,1.319,0,0,0,72.147,104.6Zm-3.662,9.394a1.5,1.5,0,0,1-1.5,1.5h-5.64a1.5,1.5,0,0,1-1.5-1.5v-5.641a1.5,1.5,0,0,1,1.5-1.5h5.64a1.49,1.49,0,0,1,.807.238l-3.266,3.266-.592-1.183a1.319,1.319,0,0,0-2.36,1.18l1.41,2.82a1.319,1.319,0,0,0,2.113.343l3.388-3.388v3.866Z" transform="translate(-46.243 -85.878)" fill="#53435c"/>
      <path id="Trazado_1008448" data-name="Trazado 1008448" d="M162.731,122.881H172.6a1.319,1.319,0,1,0,0-2.639h-9.871a1.319,1.319,0,1,0,0,2.639Z" transform="translate(-132.12 -99.09)" fill="#53435c"/>
      <path id="Trazado_1008449" data-name="Trazado 1008449" d="M182.473,152.307H162.731a1.319,1.319,0,0,0,0,2.639h19.742a1.319,1.319,0,0,0,0-2.639Z" transform="translate(-132.12 -125.515)" fill="#53435c"/>
      <path id="Trazado_1008450" data-name="Trazado 1008450" d="M162.731,219.075H172.6a1.319,1.319,0,1,0,0-2.639h-9.871a1.319,1.319,0,1,0,0,2.639Z" transform="translate(-132.12 -178.363)" fill="#53435c"/>
      <path id="Trazado_1008451" data-name="Trazado 1008451" d="M182.473,248.5H162.731a1.319,1.319,0,1,0,0,2.639h19.742a1.319,1.319,0,1,0,0-2.639Z" transform="translate(-132.12 -204.787)" fill="#53435c"/>
      <path id="Trazado_1008452" data-name="Trazado 1008452" d="M58.522,299.236h28.2a1.319,1.319,0,0,0,0-2.639h-28.2a1.319,1.319,0,0,0,0,2.639Z" transform="translate(-46.242 -244.423)" fill="#53435c"/>
      <path id="Trazado_1008453" data-name="Trazado 1008453" d="M58.522,331.3H96.6a1.319,1.319,0,1,0,0-2.639H58.522a1.319,1.319,0,1,0,0,2.639Z" transform="translate(-46.242 -270.847)" fill="#53435c"/>
      <path id="Trazado_1008454" data-name="Trazado 1008454" d="M133.5,378.663l-8.333-8.333a5.386,5.386,0,0,0-3.834-1.588H108.67a3.374,3.374,0,0,0-3.37,3.37v18.46a3.374,3.374,0,0,0,3.37,3.37h12.658a5.386,5.386,0,0,0,3.834-1.588l8.333-8.333A3.793,3.793,0,0,0,133.5,378.663Zm-1.866,3.492-8.333,8.333a2.764,2.764,0,0,1-1.968.815H108.67a.733.733,0,0,1-.732-.732v-18.46a.733.733,0,0,1,.732-.732h12.658a2.764,2.764,0,0,1,1.968.815l8.333,8.333a1.149,1.149,0,0,1,0,1.626Z" transform="translate(-85.879 -303.877)" fill="#53435c"/>
      <path id="Trazado_1008455" data-name="Trazado 1008455" d="M266.693,378.663l-8.333-8.333a5.386,5.386,0,0,0-3.834-1.588H242.893a1.319,1.319,0,1,0,0,2.639h11.633a2.765,2.765,0,0,1,1.968.815l8.333,8.333a1.15,1.15,0,0,1,0,1.626l-8.333,8.333a2.766,2.766,0,0,1-1.968.815H242.893a1.319,1.319,0,0,0,0,2.639h11.633a5.388,5.388,0,0,0,3.834-1.588l8.333-8.334A3.793,3.793,0,0,0,266.693,378.663Z" transform="translate(-198.181 -303.877)" fill="#53435c"/>
      <path id="Trazado_1008456" data-name="Trazado 1008456" d="M386.935,378.663,378.6,370.33a5.386,5.386,0,0,0-3.834-1.588H363.135a1.319,1.319,0,1,0,0,2.639h11.633a2.764,2.764,0,0,1,1.968.815l8.333,8.333a1.151,1.151,0,0,1,0,1.626l-8.333,8.333a2.764,2.764,0,0,1-1.968.815H363.135a1.319,1.319,0,1,0,0,2.639h11.633a5.386,5.386,0,0,0,3.834-1.588l8.333-8.333A3.793,3.793,0,0,0,386.935,378.663Z" transform="translate(-297.271 -303.877)" fill="#53435c"/>
      <path id="Trazado_1008457" data-name="Trazado 1008457" d="M411.021,419.545l.444-1.165h3.129l.438,1.161a1.319,1.319,0,1,0,2.469-.932l-3.053-8.089-.015-.037a1.5,1.5,0,0,0-1.392-.932h0a1.5,1.5,0,0,0-1.391.936l-.012.03-3.081,8.089a1.319,1.319,0,0,0,2.466.939Zm2.576-3.8H412.47l.566-1.487Z" transform="translate(-335.717 -337.508)" fill="#53435c"/>
      <path id="Trazado_1008458" data-name="Trazado 1008458" d="M301.208,409.551a1.319,1.319,0,0,0-1.319,1.319v8.2a1.319,1.319,0,0,0,1.1,1.3,7.056,7.056,0,0,0,1.076.027c.443,0,1.086,0,2.028-.008a1.319,1.319,0,0,0-.007-2.639h-.008l-1.546.006V410.87A1.319,1.319,0,0,0,301.208,409.551Z" transform="translate(-246.238 -337.508)" fill="#53435c"/>
      <path id="Trazado_1008459" data-name="Trazado 1008459" d="M157.3,413.811c-.955-.352-1.848-.735-2.175-.877a.277.277,0,0,1-.071-.242.563.563,0,0,1,.447-.418,2.437,2.437,0,0,1,1.988.469,1.319,1.319,0,0,0,1.689-2.027,5,5,0,0,0-4.438-.968,3.177,3.177,0,0,0-2.3,2.569,2.9,2.9,0,0,0,1.293,2.869,1.335,1.335,0,0,0,.183.1c.048.021,1.186.528,2.468,1,.445.164.945.47.888.79a1.1,1.1,0,0,1-1.144.691,2.559,2.559,0,0,1-1.882-.783,1.319,1.319,0,1,0-1.955,1.772,5.164,5.164,0,0,0,3.837,1.649,3.676,3.676,0,0,0,3.742-2.865C160.1,416.28,159.543,414.638,157.3,413.811Z" transform="translate(-124.327 -337.52)" fill="#53435c"/>
      <path id="Trazado_1008460" data-name="Trazado 1008460" d="M15.1,77.556H3.82a.091.091,0,0,1-.091-.091V15.33H13.69A2.733,2.733,0,0,0,16.42,12.6V2.639H57.4a.091.091,0,0,1,.091.091V60.544a1.319,1.319,0,1,0,2.639,0V2.729A2.733,2.733,0,0,0,57.4,0H14.858a4.113,4.113,0,0,0-2.927,1.213L2.3,10.841A4.112,4.112,0,0,0,1.09,13.768v63.7a2.733,2.733,0,0,0,2.73,2.729H15.1a1.319,1.319,0,1,0,0-2.639ZM13.781,3.094V12.6a.091.091,0,0,1-.091.091H4.184Z" fill="#53435c"/>
    </g>
  </g>
</svg>
