<svg xmlns="http://www.w3.org/2000/svg" width="98" height="98" viewBox="0 0 98 98">
  <g id="Grupo_1177474" data-name="Grupo 1177474" transform="translate(-289.609 -11611.898)">
    <g id="Grupo_1177473" data-name="Grupo 1177473" transform="translate(289.609 11611.898)">
      <ellipse id="Elipse_13609" data-name="Elipse 13609" cx="49" cy="49" rx="49" ry="49" transform="translate(0)" fill="#fff"/>
      <g id="XMLID_2333_" transform="translate(19.283 19.271)">
        <g id="XMLID_2177_" transform="translate(0 0.013)">
          <g id="XMLID_2249_" transform="translate(0 0)">
            <g id="XMLID_137_">
              <path id="XMLID_139_" d="M173.161,491.986a1.161,1.161,0,1,0,.821.34A1.169,1.169,0,0,0,173.161,491.986Z" transform="translate(-152.034 -434.877)" fill="#53435c"/>
              <path id="XMLID_544_" d="M141,234.635c-.311-.11-.628-.224-.945-.343V228.76a5,5,0,0,1,1.449.667,1.161,1.161,0,0,0,1.4-1.854,7.293,7.293,0,0,0-2.845-1.2v-1.23a1.161,1.161,0,1,0-2.322,0v1.223a6.151,6.151,0,0,0-.649.156,4.773,4.773,0,0,0-3.272,3.744,4.2,4.2,0,0,0,1.375,4.145,11.574,11.574,0,0,0,2.545,1.443V242.9a4.833,4.833,0,0,1-2.7-.975,1.161,1.161,0,1,0-1.271,1.943,7.067,7.067,0,0,0,3.971,1.355V246.5a1.161,1.161,0,1,0,2.322,0v-1.4a5.753,5.753,0,0,0,4.418-4.7A5.045,5.045,0,0,0,141,234.635Zm-4.379-2.048a1.914,1.914,0,0,1-.527-1.887,2.48,2.48,0,0,1,1.639-1.945v4.53A7.387,7.387,0,0,1,136.616,232.587Zm5.563,7.436a3.483,3.483,0,0,1-2.129,2.658v-5.918l.171.061A2.76,2.76,0,0,1,142.179,240.023Z" transform="translate(-117.767 -197.986)" fill="#53435c"/>
              <path id="XMLID_548_" d="M58.273,36.924H54a12.765,12.765,0,1,0-18.05-17.382,15.96,15.96,0,0,0-5.208-2.636,4.175,4.175,0,0,0-1.668-6.329l3.849-8.007A1.161,1.161,0,0,0,32.7,1.247a4.2,4.2,0,0,0-5.937,0,1.863,1.863,0,0,1-1.326.55A1.861,1.861,0,0,1,24.11,1.25L24.1,1.24a4.205,4.205,0,0,0-5.926-.011l-.031.03a1.882,1.882,0,0,1-2.656-.012,4.2,4.2,0,0,0-5.936,0,1.161,1.161,0,0,0-.225,1.324l3.856,8.006a4.175,4.175,0,0,0-1.667,6.329A16.047,16.047,0,0,0,0,32.281V53.64a5.811,5.811,0,0,0,5.8,5.8H15.9a1.161,1.161,0,0,0,0-2.322H5.8A3.486,3.486,0,0,1,2.322,53.64V32.281a13.713,13.713,0,0,1,13.7-13.7H26.234a13.657,13.657,0,0,1,8.616,3.05,12.758,12.758,0,0,0,4.481,15.291H35.057A1.161,1.161,0,0,0,33.9,38.085v5.572H31.779a1.161,1.161,0,0,0-1.161,1.161V51.55a1.161,1.161,0,0,0,1.161,1.161H33.9v4.411H26.35a1.161,1.161,0,1,0,0,2.322H58.273a1.161,1.161,0,0,0,1.161-1.161V51.55a1.161,1.161,0,0,0-1.161-1.161H56.156V45.978h2.117a1.161,1.161,0,0,0,1.161-1.161V38.085a1.161,1.161,0,0,0-1.161-1.161ZM12.518,2.34a1.87,1.87,0,0,1,1.334.557,4.205,4.205,0,0,0,5.926.011l.03-.03a1.878,1.878,0,0,1,2.645,0l.011.011a4.17,4.17,0,0,0,2.968,1.23A4.17,4.17,0,0,0,28.4,2.889a1.878,1.878,0,0,1,2-.426l-3.732,7.762H15.588L11.849,2.462a1.876,1.876,0,0,1,.669-.122Zm2.34,13.922a1.857,1.857,0,0,1,0-3.715H27.4a1.857,1.857,0,0,1,0,3.715ZM36.217,26.477A10.447,10.447,0,1,1,46.665,36.924,10.459,10.459,0,0,1,36.217,26.477ZM57.112,57.122H36.217V52.711H57.112ZM53.834,50.39H32.94V45.978H53.834Zm3.278-6.733H36.217V39.246H57.112Z" transform="translate(0 -0.013)" fill="#53435c"/>
              <path id="XMLID_556_" d="M342.974,161.209a7.752,7.752,0,1,0,7.752,7.752A7.76,7.76,0,0,0,342.974,161.209Zm0,13.182a5.43,5.43,0,1,1,5.43-5.43A5.436,5.436,0,0,1,342.974,174.391Z" transform="translate(-296.309 -142.497)" fill="#53435c"/>
            </g>
          </g>
        </g>
      </g>
    </g>
  </g>
</svg>
