<svg xmlns="http://www.w3.org/2000/svg" width="128" height="128" viewBox="0 0 128 128">
  <g id="Grupo_1182493" data-name="Grupo 1182493" transform="translate(-381.746 -8402)">
    <path id="Trazado_997402" data-name="Trazado 997402" d="M64,0A64,64,0,1,1,0,64,64,64,0,0,1,64,0Z" transform="translate(381.746 8402)" fill="#7be888"/>
    <g id="Grupo_1183316" data-name="Grupo 1183316" transform="translate(408.378 8428.384)">
      <path id="Trazado_1008815" data-name="Trazado 1008815" d="M11.223,6h-.8A4.425,4.425,0,0,0,6,10.42v.4H8.411v-.4A2.012,2.012,0,0,1,10.42,8.411h.8a2.009,2.009,0,0,1,1.207,3.616l-2.574,1.93a3.635,3.635,0,0,0-1.445,2.892v1.205h2.411V16.849a1.212,1.212,0,0,1,.481-.964l2.574-1.929A4.42,4.42,0,0,0,11.223,6Z" transform="translate(1.233 1.233)" fill="#53435c"/>
      <path id="Trazado_1008816" data-name="Trazado 1008816" d="M8,18h2.411v2.411H8Z" transform="translate(1.644 3.698)" fill="#53435c"/>
      <path id="Trazado_1008817" data-name="Trazado 1008817" d="M30,4h2.411V6.411H30Z" transform="translate(6.163 0.822)" fill="#53435c"/>
      <path id="Trazado_1008818" data-name="Trazado 1008818" d="M62.683,38.574A12.063,12.063,0,0,0,50.745,49.041l-2.528-2.528V44.6a3.6,3.6,0,0,0-4.962-3.351,3.618,3.618,0,0,0-2.146-2.416,1.263,1.263,0,0,1,.618-.583,1.185,1.185,0,0,1,1.315.263l1.145,1.143L49.3,34.542,48.156,33.4a1.2,1.2,0,0,1,.853-2.056h1.619V25.813l4.7-4.7a10.88,10.88,0,1,0-1.29-2.119l-5.1,5.1a1.2,1.2,0,0,1-1.043-.73,1.179,1.179,0,0,1,.26-1.312L49.3,20.908l-5.113-5.115-1.146,1.144a1.205,1.205,0,0,1-2.058-.853V14.465H38.574V11.933a6.027,6.027,0,1,0-2.411,0v2.533H33.752v1.619a1.205,1.205,0,0,1-2.059.851l-1.145-1.143-5.113,5.115,1.146,1.144a1.184,1.184,0,0,1,.262,1.313,1.2,1.2,0,0,1-1.043.73l-3.422-3.422A12.051,12.051,0,1,0,0,14.465,12.13,12.13,0,0,0,2.411,21.7l4.822,6.429v3.215a4.822,4.822,0,1,0,9.644,0V28.126l4.091-5.456,3.141,3.143v5.528h1.619a1.205,1.205,0,0,1,.855,2.056l-1.148,1.145,5.113,5.115.793-.792v2.789a4.772,4.772,0,0,0-2.411-.67A2.413,2.413,0,0,0,26.52,43.4v3.117l-7.113,7.113a10.88,10.88,0,1,0,1.29,2.119l5.823-5.823v2.824a13.441,13.441,0,0,0,3.569,9.141L28.8,74.737h17.13L44.649,61.888a13.451,13.451,0,0,0,3.568-9.142V49.922l2.559,2.559a12.123,12.123,0,0,0,2.263,5.38l4.822,6.429V67.5a4.822,4.822,0,1,0,9.644,0V64.29l4.822-6.429a12.054,12.054,0,0,0-9.644-19.287ZM63.888,6.027a8.438,8.438,0,1,1-8.438,8.438A8.448,8.448,0,0,1,63.888,6.027Zm-30.136,0a3.616,3.616,0,1,1,3.616,3.616A3.621,3.621,0,0,1,33.752,6.027ZM10.849,68.71a8.438,8.438,0,1,1,8.438-8.438A8.448,8.448,0,0,1,10.849,68.71ZM34.021,29.069a3.579,3.579,0,0,1-.269-1.344A3.616,3.616,0,1,1,38.309,31.2a3.541,3.541,0,0,0-4.288-2.132ZM12.054,33.752a2.413,2.413,0,0,1-2.411-2.411V28.931h4.822v2.411A2.413,2.413,0,0,1,12.054,33.752Zm3.014-7.233H9.041l-4.7-6.268A9.644,9.644,0,1,1,21.7,14.465a9.7,9.7,0,0,1-1.929,5.786ZM30.61,36.309l-1.824-1.823a3.626,3.626,0,0,0-2.266-5.471V26.436a3.626,3.626,0,0,0,2.266-5.471l1.823-1.823a3.626,3.626,0,0,0,5.471-2.266h2.578a3.626,3.626,0,0,0,5.471,2.266l1.823,1.823a3.626,3.626,0,0,0,2.266,5.471v2.578a3.626,3.626,0,0,0-2.266,5.471L44.13,36.309a3.621,3.621,0,0,0-5.508,2.474l-.047.014V33.632a6.032,6.032,0,1,0-6.568-3.159,3.576,3.576,0,0,0-.665,2.075v3.422a3.312,3.312,0,0,0-.732.34Zm.858,36.017.964-9.644H42.3l.964,9.644Zm14.339-19.58a11.056,11.056,0,0,1-2.942,7.526H31.873a11.056,11.056,0,0,1-2.942-7.526V43.4a2.413,2.413,0,0,1,2.411,2.411v2.411h2.411V32.547a1.205,1.205,0,1,1,2.411,0V48.218h2.411V42.19a1.205,1.205,0,0,1,2.411,0v6.027H43.4V44.6a1.205,1.205,0,0,1,2.411,0ZM62.683,69.915A2.413,2.413,0,0,1,60.272,67.5V65.094h4.822V67.5A2.413,2.413,0,0,1,62.683,69.915Zm7.715-13.5-4.7,6.268H59.669l-4.7-6.268a9.644,9.644,0,1,1,15.43,0Z" transform="translate(0 0)" fill="#53435c"/>
      <path id="Trazado_1008819" data-name="Trazado 1008819" d="M53.223,36h-.8A4.425,4.425,0,0,0,48,40.42v.4h2.411v-.4a2.012,2.012,0,0,1,2.009-2.009h.8a2.009,2.009,0,0,1,1.207,3.616l-2.574,1.93a3.635,3.635,0,0,0-1.445,2.892v1.205h2.411V46.849a1.212,1.212,0,0,1,.481-.964l2.574-1.929A4.42,4.42,0,0,0,53.223,36Z" transform="translate(9.861 7.396)" fill="#53435c"/>
      <path id="Trazado_1008820" data-name="Trazado 1008820" d="M50,48h2.411v2.411H50Z" transform="translate(10.272 9.861)" fill="#53435c"/>
      <path id="Trazado_1008821" data-name="Trazado 1008821" d="M4,49H6.411v2.411H4Z" transform="translate(0.822 10.066)" fill="#53435c"/>
      <path id="Trazado_1008822" data-name="Trazado 1008822" d="M8,49h2.411v2.411H8Z" transform="translate(1.644 10.066)" fill="#53435c"/>
      <path id="Trazado_1008823" data-name="Trazado 1008823" d="M12,49h2.411v2.411H12Z" transform="translate(2.465 10.066)" fill="#53435c"/>
      <path id="Trazado_1008824" data-name="Trazado 1008824" d="M48,11h2.411v2.411H48Z" transform="translate(9.861 2.26)" fill="#53435c"/>
      <path id="Trazado_1008825" data-name="Trazado 1008825" d="M52,11h2.411v2.411H52Z" transform="translate(10.683 2.26)" fill="#53435c"/>
      <path id="Trazado_1008826" data-name="Trazado 1008826" d="M56,11h2.411v2.411H56Z" transform="translate(11.505 2.26)" fill="#53435c"/>
    </g>
  </g>
</svg>
