<svg id="Grupo_156261" data-name="Grupo 156261" xmlns="http://www.w3.org/2000/svg" xmlns:xlink="http://www.w3.org/1999/xlink" width="30" height="32.145" viewBox="0 0 30 32.145">
  <defs>
    <clipPath id="clip-path">
      <rect id="Rectángulo_47325" data-name="Rectángulo 47325" width="30" height="32.145" fill="#53435c"/>
    </clipPath>
  </defs>
  <rect id="Rectángulo_47312" data-name="Rectángulo 47312" width="4.284" height="2.142" transform="translate(2.689 10.187)" fill="#53435c"/>
  <path id="Trazado_198297" data-name="Trazado 198297" d="M10.008,59.838h4.281l-2.142,2.677Z" transform="translate(-7.318 -43.757)" fill="#53435c"/>
  <g id="Grupo_156260" data-name="Grupo 156260" transform="translate(0 0)">
    <g id="Grupo_156259" data-name="Grupo 156259" clip-path="url(#clip-path)">
      <path id="Trazado_198298" data-name="Trazado 198298" d="M25.947,68.107a4.281,4.281,0,1,0,4.282-4.281,4.281,4.281,0,0,0-4.282,4.281m4.283,3.213a3.194,3.194,0,0,1-1.56-.406l1.818-2.272H33.4A3.215,3.215,0,0,1,30.23,71.32ZM33.4,67.572H30.766V64.943a3.218,3.218,0,0,1,2.63,2.629Zm-3.7-2.629v2.976l-1.859,2.323a3.205,3.205,0,0,1,1.859-5.3" transform="translate(-18.974 -46.673)" fill="#53435c"/>
      <rect id="Rectángulo_47313" data-name="Rectángulo 47313" width="1.071" height="1.071" transform="translate(6.973 26.788)" fill="#53435c"/>
      <rect id="Rectángulo_47314" data-name="Rectángulo 47314" width="6.426" height="1.071" transform="translate(9.115 26.788)" fill="#53435c"/>
      <rect id="Rectángulo_47315" data-name="Rectángulo 47315" width="8.568" height="1.071" transform="translate(6.973 28.931)" fill="#53435c"/>
      <rect id="Rectángulo_47316" data-name="Rectángulo 47316" width="1.071" height="1.071" transform="translate(18.754 26.788)" fill="#53435c"/>
      <rect id="Rectángulo_47317" data-name="Rectángulo 47317" width="6.426" height="1.071" transform="translate(20.897 26.788)" fill="#53435c"/>
      <rect id="Rectángulo_47318" data-name="Rectángulo 47318" width="8.568" height="1.071" transform="translate(18.754 28.931)" fill="#53435c"/>
      <rect id="Rectángulo_47319" data-name="Rectángulo 47319" width="1.071" height="1.071" transform="translate(19.825 5.367)" fill="#53435c"/>
      <rect id="Rectángulo_47320" data-name="Rectángulo 47320" width="5.355" height="1.071" transform="translate(21.968 5.367)" fill="#53435c"/>
      <rect id="Rectángulo_47321" data-name="Rectángulo 47321" width="7.497" height="1.071" transform="translate(19.825 7.509)" fill="#53435c"/>
      <rect id="Rectángulo_47322" data-name="Rectángulo 47322" width="1.071" height="1.071" transform="translate(19.825 11.258)" fill="#53435c"/>
      <rect id="Rectángulo_47323" data-name="Rectángulo 47323" width="5.355" height="1.071" transform="translate(21.968 11.258)" fill="#53435c"/>
      <rect id="Rectángulo_47324" data-name="Rectángulo 47324" width="7.497" height="1.071" transform="translate(19.825 13.4)" fill="#53435c"/>
      <path id="Trazado_198299" data-name="Trazado 198299" d="M72.317,72.391h6.427a.535.535,0,0,0,.535-.536V67.573a.535.535,0,0,0-.535-.536H77.137V64.361a.535.535,0,0,0-.535-.536H74.459a.535.535,0,0,0-.536.536v1.6H72.317a.535.535,0,0,0-.535.536v5.358a.535.535,0,0,0,.535.533m5.891-1.068H77.137V68.109h1.071ZM75,64.9h1.071v6.427H75Zm-2.142,2.142h1.071V71.32H72.853Z" transform="translate(-52.491 -46.672)" fill="#53435c"/>
      <path id="Trazado_198300" data-name="Trazado 198300" d="M42.426,22.266h6.426a.535.535,0,0,0,.535-.535V18.517a.535.535,0,0,0-.535-.535H42.426a.535.535,0,0,0-.536.535V21.73a.535.535,0,0,0,.535.536Zm.535-3.214h5.357V21.2H42.961Z" transform="translate(-30.632 -13.149)" fill="#53435c"/>
      <path id="Trazado_198301" data-name="Trazado 198301" d="M42.426,44.191h6.426a.535.535,0,0,0,.535-.535V40.443a.535.535,0,0,0-.535-.536H42.426a.535.535,0,0,0-.536.536v3.213a.535.535,0,0,0,.536.535m.535-3.213h5.357V43.12H42.961Z" transform="translate(-30.632 -29.182)" fill="#53435c"/>
      <path id="Trazado_198302" data-name="Trazado 198302" d="M2.16,8.847v7.241a.536.536,0,0,0,.117.335L4.3,18.954V31.619a.536.536,0,0,0,.536.535H29.472a.535.535,0,0,0,.535-.535V2.7a.535.535,0,0,0-.535-.536H8.845A4.82,4.82,0,1,0,2.16,8.847m4.282,2.959H3.233V10.733h3.21Zm-1.6,6.1L3.811,16.624H5.869ZM3.233,12.876H4.3v2.678H3.233Zm3.214,2.678H5.375V12.876H6.446ZM28.938,3.236V31.084H5.375V18.955L7.4,16.424a.536.536,0,0,0,.117-.335V8.847A4.792,4.792,0,0,0,9.378,3.236ZM4.84,1.093A3.749,3.749,0,0,1,6.717,8.085a.535.535,0,0,0-.268.463V9.663H5.375V6.672l1.45-1.451-.756-.757L4.84,5.691,3.611,4.463l-.757.757L4.3,6.67V9.661H3.233V8.547a.534.534,0,0,0-.268-.463A3.749,3.749,0,0,1,4.842,1.092Z" transform="translate(-0.008 -0.009)" fill="#53435c"/>
    </g>
  </g>
</svg>
