<svg xmlns="http://www.w3.org/2000/svg" width="128" height="128" viewBox="0 0 128 128">
  <g id="Grupo_1182477" data-name="Grupo 1182477" transform="translate(-383.746 -8400)">
    <circle id="Elipse_13609" data-name="Elipse 13609" cx="64" cy="64" r="64" transform="translate(383.746 8400)" fill="#7be888"/>
    <g id="OUTLINE" transform="translate(397.427 8411.314)">
      <path id="Trazado_1008764" data-name="Trazado 1008764" d="M262.328,297.6a3.463,3.463,0,0,0-4.819-1.006l-28.518,18.887a4.577,4.577,0,1,0-.4,9.135,4.534,4.534,0,0,0,2.395-.686,4.6,4.6,0,0,0,1.952-2.5l28.415-19.075A3.479,3.479,0,0,0,262.328,297.6Zm-2.253,2.856L231.3,319.773a1.144,1.144,0,0,0-.483.722,2.288,2.288,0,0,1-2.842,1.753,2.288,2.288,0,0,1,1.055-4.45,1.143,1.143,0,0,0,.859-.167l28.88-19.127a1.175,1.175,0,0,1,1.3,1.955Z" transform="translate(-178.258 -239.978)" fill="#53435c"/>
      <path id="Trazado_1008765" data-name="Trazado 1008765" d="M300.518,472.047a1.144,1.144,0,0,0-1.423.77,6.823,6.823,0,0,1-.376.979,1.144,1.144,0,0,0,2.066.982,9.117,9.117,0,0,0,.5-1.309A1.144,1.144,0,0,0,300.518,472.047Z" transform="translate(-242.197 -390.794)" fill="#53435c"/>
      <path id="Trazado_1008766" data-name="Trazado 1008766" d="M201.151,402.288a1.144,1.144,0,1,0,0-2.288A9.162,9.162,0,0,0,192,409.152a9.07,9.07,0,0,0,.881,3.923,1.144,1.144,0,1,0,2.066-.982,6.8,6.8,0,0,1-.66-2.941A6.871,6.871,0,0,1,201.151,402.288Z" transform="translate(-150.833 -329.09)" fill="#53435c"/>
      <path id="Trazado_1008767" data-name="Trazado 1008767" d="M329.537,262.231a1.144,1.144,0,1,0-.789,2.148,31.925,31.925,0,0,1,8.836,4.96A1.144,1.144,0,0,0,339,267.545,34.211,34.211,0,0,0,329.537,262.231Z" transform="translate(-267.384 -210.961)" fill="#53435c"/>
      <path id="Trazado_1008768" data-name="Trazado 1008768" d="M404,376.121a1.144,1.144,0,0,0-.509,1.536,31.635,31.635,0,0,1,3.37,13.214h-8.015a23.8,23.8,0,0,0-1.973-8.466,1.144,1.144,0,0,0-2.1.916,21.579,21.579,0,0,1,1.808,8.694,1.144,1.144,0,0,0,1.144,1.144h10.3a1.144,1.144,0,0,0,1.144-1.144,33.967,33.967,0,0,0-3.634-15.385A1.144,1.144,0,0,0,404,376.121Z" transform="translate(-324.534 -308.521)" fill="#53435c"/>
      <path id="Trazado_1008769" data-name="Trazado 1008769" d="M61.185,275.626a1.144,1.144,0,0,0,1.146-1.98,24.011,24.011,0,0,0-24.924.56L37.4,274.2l-5.769-5.769a31.967,31.967,0,0,1,7.643-4.051,1.144,1.144,0,1,0-.789-2.148A34.332,34.332,0,0,0,16,294.454a1.144,1.144,0,0,0,1.144,1.144h10.3a1.144,1.144,0,0,0,1.144-1.144,21.741,21.741,0,0,1,32.6-18.828ZM26.323,293.31H18.308a31.787,31.787,0,0,1,5.879-17.384,32.236,32.236,0,0,1,5.621-6.085l5.706,5.706A24,24,0,0,0,26.323,293.31Z" transform="translate(0 -210.961)" fill="#53435c"/>
      <path id="Trazado_1008770" data-name="Trazado 1008770" d="M377.152,162.3A9.152,9.152,0,1,0,368,153.152,9.152,9.152,0,0,0,377.152,162.3Zm0-16.015a6.864,6.864,0,1,1-6.864,6.864A6.864,6.864,0,0,1,377.152,146.288Z" transform="translate(-301.666 -109.697)" fill="#53435c"/>
      <path id="Trazado_1008771" data-name="Trazado 1008771" d="M192,169.152A9.152,9.152,0,1,0,201.152,160,9.152,9.152,0,0,0,192,169.152Zm16.015,0a6.864,6.864,0,1,1-6.864-6.864,6.864,6.864,0,0,1,6.864,6.864Z" transform="translate(-150.833 -123.409)" fill="#53435c"/>
      <path id="Trazado_1008772" data-name="Trazado 1008772" d="M25.152,170.3A9.152,9.152,0,1,0,16,161.152,9.152,9.152,0,0,0,25.152,170.3Zm0-16.015a6.864,6.864,0,1,1-6.864,6.864A6.864,6.864,0,0,1,25.152,154.288Z" transform="translate(0 -116.553)" fill="#53435c"/>
      <path id="Trazado_1008773" data-name="Trazado 1008773" d="M401.144,186.288h1.144a1.144,1.144,0,0,0,0-2.288h-1.144a1.144,1.144,0,0,0,0,2.288Z" transform="translate(-329.09 -143.977)" fill="#53435c"/>
      <path id="Trazado_1008774" data-name="Trazado 1008774" d="M441.144,186.288h1.144a1.144,1.144,0,1,0,0-2.288h-1.144a1.144,1.144,0,1,0,0,2.288Z" transform="translate(-363.37 -143.977)" fill="#53435c"/>
      <path id="Trazado_1008775" data-name="Trazado 1008775" d="M409.144,208A1.144,1.144,0,0,0,408,209.144a3.432,3.432,0,0,0,6.864,0,1.144,1.144,0,1,0-2.288,0,1.144,1.144,0,0,1-2.288,0A1.144,1.144,0,0,0,409.144,208Z" transform="translate(-335.946 -164.545)" fill="#53435c"/>
      <path id="Trazado_1008776" data-name="Trazado 1008776" d="M49.144,194.288h1.144a1.144,1.144,0,0,0,0-2.288H49.144a1.144,1.144,0,0,0,0,2.288Z" transform="translate(-27.424 -150.833)" fill="#53435c"/>
      <path id="Trazado_1008777" data-name="Trazado 1008777" d="M89.144,194.288h1.144a1.144,1.144,0,1,0,0-2.288H89.144a1.144,1.144,0,1,0,0,2.288Z" transform="translate(-61.704 -150.833)" fill="#53435c"/>
      <path id="Trazado_1008778" data-name="Trazado 1008778" d="M56,219.432a1.144,1.144,0,1,0,2.288,0,1.144,1.144,0,0,1,2.288,0,1.144,1.144,0,1,0,2.288,0,3.432,3.432,0,0,0-6.864,0Z" transform="translate(-34.28 -171.401)" fill="#53435c"/>
      <path id="Trazado_1008779" data-name="Trazado 1008779" d="M226.288,202.288a1.144,1.144,0,0,0,0-2.288h-1.144a1.144,1.144,0,0,0,0,2.288Z" transform="translate(-178.257 -157.689)" fill="#53435c"/>
      <path id="Trazado_1008780" data-name="Trazado 1008780" d="M265.144,202.288h1.144a1.144,1.144,0,0,0,0-2.288h-1.144a1.144,1.144,0,0,0,0,2.288Z" transform="translate(-212.537 -157.689)" fill="#53435c"/>
      <path id="Trazado_1008781" data-name="Trazado 1008781" d="M237.72,232h-4.576a1.144,1.144,0,1,0,0,2.288h4.576a1.144,1.144,0,1,0,0-2.288Z" transform="translate(-185.113 -185.113)" fill="#53435c"/>
      <path id="Trazado_1008782" data-name="Trazado 1008782" d="M147.432,34.3h23.549l3.1,3.1a1.144,1.144,0,0,0,1.953-.809V19.432A3.436,3.436,0,0,0,172.6,16H147.432A3.436,3.436,0,0,0,144,19.432v11.44A3.436,3.436,0,0,0,147.432,34.3Zm-1.144-14.871a1.145,1.145,0,0,1,1.144-1.144H172.6a1.145,1.145,0,0,1,1.144,1.144v14.4l-1.479-1.479a1.144,1.144,0,0,0-.809-.335H147.432a1.145,1.145,0,0,1-1.144-1.144Z" transform="translate(-109.697)" fill="#53435c"/>
      <path id="Trazado_1008783" data-name="Trazado 1008783" d="M193.143,57.152a1.141,1.141,0,0,0,.809-.335l4.911-4.911,3.767,3.767a1.144,1.144,0,0,0,1.618,0l3.767-3.767V53.72a1.144,1.144,0,0,0,2.288,0V49.144A1.144,1.144,0,0,0,209.159,48h-4.576a1.144,1.144,0,0,0,0,2.288H206.4l-2.958,2.958-3.767-3.767a1.144,1.144,0,0,0-1.618,0l-5.72,5.72a1.144,1.144,0,0,0,.809,1.953Z" transform="translate(-150.832 -27.424)" fill="#53435c"/>
    </g>
  </g>
</svg>
