<svg xmlns="http://www.w3.org/2000/svg" width="98" height="98" viewBox="0 0 98 98">
  <g id="Grupo_1177474" data-name="Grupo 1177474" transform="translate(-289.609 -11611.898)">
    <g id="Grupo_1177473" data-name="Grupo 1177473" transform="translate(289.609 11611.898)">
      <ellipse id="Elipse_13609" data-name="Elipse 13609" cx="49" cy="49" rx="49" ry="49" transform="translate(0)" fill="#fff"/>
      <g id="Grupo_1183142" data-name="Grupo 1183142" transform="translate(21.979 21.979)">
        <path id="Trazado_1008172" data-name="Trazado 1008172" d="M13.483,0H1.638A1.639,1.639,0,0,0,0,1.638V13.483a1.64,1.64,0,0,0,1.638,1.638H13.483a1.64,1.64,0,0,0,1.638-1.638V6.714a.792.792,0,0,0-1.583,0v6.769a.055.055,0,0,1-.055.055H1.638a.055.055,0,0,1-.054-.055V1.638a.054.054,0,0,1,.054-.054H5.077V5.022A1.639,1.639,0,0,0,6.714,6.66H8.406a1.639,1.639,0,0,0,1.638-1.638V1.583h3.439a.055.055,0,0,1,.055.054V3.33a.792.792,0,0,0,1.583,0V1.638A1.64,1.64,0,0,0,13.483,0ZM8.461,5.022a.054.054,0,0,1-.054.054H6.714a.054.054,0,0,1-.054-.054V1.583h1.8Z" fill="#53435c"/>
        <path id="Trazado_1008173" data-name="Trazado 1008173" d="M383.072,0h-3.384a.792.792,0,0,0-.792.792V6.546l-1.8-.45V.792A.792.792,0,0,0,376.3,0h-3.384a.792.792,0,0,0-.792.792V4.854l-2.4-.6a.792.792,0,0,0-.984.768v9.307a.792.792,0,0,0,.792.792h13.537a.792.792,0,0,0,.792-.792V.792A.792.792,0,0,0,383.072,0Zm-9.361,1.583h1.8V5.7l-1.8-.45Zm8.57,11.954h-1.8V10.945a.792.792,0,0,0-1.583,0v2.593h-1.8V10.945a.792.792,0,1,0-1.583,0v2.593h-1.8V10.945a.792.792,0,0,0-1.583,0v2.593h-1.8v-7.5L382.28,9.025Zm0-6.145-1.8-.45V1.583h1.8Z" transform="translate(-329.823)" fill="#53435c"/>
        <path id="Trazado_1008174" data-name="Trazado 1008174" d="M372.324,362.348l-.463-.267a6.386,6.386,0,0,0,0-1.932l.463-.267a1.64,1.64,0,0,0,.6-2.237l-.846-1.466a1.638,1.638,0,0,0-2.237-.6l-.465.268a6.753,6.753,0,0,0-1.671-.969v-.533a1.639,1.639,0,0,0-1.638-1.638h-1.692a1.639,1.639,0,0,0-1.638,1.638v.533a6.754,6.754,0,0,0-1.671.969l-.465-.268a1.64,1.64,0,0,0-2.237.6l-.846,1.466a1.64,1.64,0,0,0,.6,2.237l.463.267a6.387,6.387,0,0,0,0,1.932l-.463.267a1.639,1.639,0,0,0-.6,2.237l.846,1.466a1.64,1.64,0,0,0,2.237.6l.465-.268a6.757,6.757,0,0,0,1.671.969v.533a1.639,1.639,0,0,0,1.638,1.638h1.692a1.639,1.639,0,0,0,1.638-1.638v-.533a6.758,6.758,0,0,0,1.671-.969l.465.268a1.64,1.64,0,0,0,2.237-.6l.846-1.466A1.64,1.64,0,0,0,372.324,362.348Zm-.772,1.445-.846,1.465a.055.055,0,0,1-.075.02l-.952-.549a.792.792,0,0,0-.94.11,5.145,5.145,0,0,1-2.054,1.19.792.792,0,0,0-.566.759v1.095a.054.054,0,0,1-.054.054h-1.692a.054.054,0,0,1-.054-.054v-1.095a.792.792,0,0,0-.566-.759,5.145,5.145,0,0,1-2.054-1.19.791.791,0,0,0-.94-.11l-.952.549a.055.055,0,0,1-.074-.02l-.846-1.465a.055.055,0,0,1,.02-.074l.951-.549a.792.792,0,0,0,.374-.868,4.956,4.956,0,0,1,0-2.374.791.791,0,0,0-.374-.868l-.951-.549a.054.054,0,0,1-.02-.074l.846-1.465a.055.055,0,0,1,.074-.02l.952.549a.791.791,0,0,0,.94-.11,5.147,5.147,0,0,1,2.054-1.19.792.792,0,0,0,.566-.759v-1.095a.054.054,0,0,1,.054-.054h1.692a.054.054,0,0,1,.054.054v1.095a.792.792,0,0,0,.566.759,5.146,5.146,0,0,1,2.054,1.19.791.791,0,0,0,.94.11l.952-.549a.054.054,0,0,1,.074.02l.846,1.466a.055.055,0,0,1-.02.074l-.951.549a.792.792,0,0,0-.374.868,4.955,4.955,0,0,1,0,2.374.792.792,0,0,0,.374.868l.951.549A.054.054,0,0,1,371.553,363.794Z" transform="translate(-319.586 -315.48)" fill="#53435c"/>
        <path id="Trazado_1008175" data-name="Trazado 1008175" d="M406.675,403.345a.792.792,0,0,0-.792.792,1.747,1.747,0,1,1-1.747-1.747.792.792,0,1,0,0-1.583,3.33,3.33,0,1,0,3.33,3.33A.792.792,0,0,0,406.675,403.345Z" transform="translate(-358.502 -358.502)" fill="#53435c"/>
        <path id="Trazado_1008176" data-name="Trazado 1008176" d="M40.081,348.024a3.33,3.33,0,1,0,3.33-3.33A3.334,3.334,0,0,0,40.081,348.024Zm3.33-1.747a1.747,1.747,0,1,1-1.747,1.747A1.749,1.749,0,0,1,43.411,346.277Z" transform="translate(-35.85 -308.312)" fill="#53435c"/>
        <path id="Trazado_1008177" data-name="Trazado 1008177" d="M10.945,416.839H4.176A4.181,4.181,0,0,0,0,421.015v5.077a.792.792,0,1,0,1.583,0v-5.077a2.6,2.6,0,0,1,2.593-2.593h6.769a2.6,2.6,0,0,1,2.593,2.593v5.077a.792.792,0,1,0,1.583,0v-5.077a4.181,4.181,0,0,0-4.176-4.176Z" transform="translate(0 -372.842)" fill="#53435c"/>
        <path id="Trazado_1008178" data-name="Trazado 1008178" d="M32.856,456.919a.792.792,0,0,0-.792.792v4.231a.792.792,0,0,0,1.583,0v-4.231A.792.792,0,0,0,32.856,456.919Z" transform="translate(-28.68 -408.692)" fill="#53435c"/>
        <path id="Trazado_1008179" data-name="Trazado 1008179" d="M96.985,456.919a.792.792,0,0,0-.792.792v4.231a.792.792,0,0,0,1.583,0v-4.231A.792.792,0,0,0,96.985,456.919Z" transform="translate(-86.04 -408.692)" fill="#53435c"/>
        <path id="Trazado_1008180" data-name="Trazado 1008180" d="M163.252,174.2a10.945,10.945,0,1,0-10.945-10.945A10.957,10.957,0,0,0,163.252,174.2Zm0-20.306a9.361,9.361,0,1,1-9.361,9.361,9.372,9.372,0,0,1,9.361-9.361Z" transform="translate(-136.231 -136.231)" fill="#53435c"/>
        <path id="Trazado_1008181" data-name="Trazado 1008181" d="M178.586,446.63a22.128,22.128,0,0,1-17.152-.345.792.792,0,1,0-.646,1.446,23.712,23.712,0,0,0,18.384.37.792.792,0,0,0-.587-1.471Z" transform="translate(-143.398 -399.118)" fill="#53435c"/>
        <path id="Trazado_1008182" data-name="Trazado 1008182" d="M447.25,179.2a.791.791,0,0,0,1.019-.462,23.715,23.715,0,0,0-.54-17.947.792.792,0,1,0-1.446.646,22.134,22.134,0,0,1,.5,16.744.792.792,0,0,0,.463,1.019Z" transform="translate(-399.117 -143.398)" fill="#53435c"/>
        <path id="Trazado_1008183" data-name="Trazado 1008183" d="M161.434,35.555a22.119,22.119,0,0,1,17.969,0,.792.792,0,1,0,.646-1.446,23.7,23.7,0,0,0-19.26,0,.792.792,0,1,0,.646,1.446Z" transform="translate(-143.398 -28.681)" fill="#53435c"/>
        <path id="Trazado_1008184" data-name="Trazado 1008184" d="M35.154,160.389a.792.792,0,0,0-1.046.4,23.731,23.731,0,0,0-.99,16.633.792.792,0,0,0,1.512-.468,22.148,22.148,0,0,1,.923-15.519A.792.792,0,0,0,35.154,160.389Z" transform="translate(-28.68 -143.399)" fill="#53435c"/>
        <path id="Trazado_1008185" data-name="Trazado 1008185" d="M225.759,203.684a4.042,4.042,0,0,0,2.077.763v.542a.814.814,0,0,0,.767.824.792.792,0,0,0,.816-.791v-.649a3.383,3.383,0,0,0,2.507-2.707A2.94,2.94,0,0,0,229.9,198.3c-.159-.056-.322-.115-.484-.175v-2.8a2.439,2.439,0,0,1,.431.214.788.788,0,1,0,.791-1.363,4.075,4.075,0,0,0-1.222-.482v-.48a.814.814,0,0,0-.767-.824.792.792,0,0,0-.816.791v.569q-.1.024-.2.054a2.8,2.8,0,0,0-1.917,2.192,2.478,2.478,0,0,0,.817,2.441,6.253,6.253,0,0,0,1.3.754v3.669a2.542,2.542,0,0,1-1.184-.48.815.815,0,0,0-1.106.188A.792.792,0,0,0,225.759,203.684Zm3.66-3.874a1.386,1.386,0,0,1,.945,1.594,1.8,1.8,0,0,1-.945,1.3Zm-1.9-2.622a.93.93,0,0,1-.238-.9,1.29,1.29,0,0,1,.558-.852v1.972A3.258,3.258,0,0,1,227.517,197.188Z" transform="translate(-201.61 -172.079)" fill="#53435c"/>
      </g>
    </g>
  </g>
</svg>
