<svg xmlns="http://www.w3.org/2000/svg" width="96" height="96" viewBox="0 0 96 96">
  <g id="Grupo_154427" data-name="Grupo 154427" transform="translate(-794.039 -2920.081)">
    <path id="Elipse_5729" data-name="Elipse 5729" d="M48,0A48,48,0,1,1,0,48,48,48,0,0,1,48,0Z" transform="translate(794.039 2920.081)" fill="#ff984a"/>
    <path id="Trazado_1008498" data-name="Trazado 1008498" d="M4.411,37.079a.744.744,0,0,1,.744-.744h6.167a.744.744,0,0,1,0,1.488H5.9v7.339h7.339V40.556a.744.744,0,1,1,1.488,0v5.351a.744.744,0,0,1-.744.744H5.155a.744.744,0,0,1-.744-.744Zm11.724-2.612a.744.744,0,0,0-1.046.116L9.42,41.664,7.9,39.234a.744.744,0,1,0-1.262.789l2.076,3.32a.745.745,0,0,0,.588.348h.043a.744.744,0,0,0,.581-.279l6.324-7.9a.744.744,0,0,0-.116-1.046ZM4.411,32.253A.744.744,0,0,0,5.155,33h8.828a.744.744,0,0,0,.744-.744V26.9a.744.744,0,1,0-1.488,0v4.607H5.9V24.169h5.423a.744.744,0,0,0,0-1.488H5.155a.744.744,0,0,0-.744.744ZM16.135,20.817a.744.744,0,0,0-1.046.116L9.421,28.01,7.9,25.58a.744.744,0,1,0-1.262.789l2.076,3.32a.744.744,0,0,0,.588.348h.043a.744.744,0,0,0,.581-.279l6.324-7.9a.744.744,0,0,0-.116-1.046Zm6.85,29.742H4.727A2.742,2.742,0,0,1,1.988,47.82V5.83A2.742,2.742,0,0,1,4.727,3.091H36.51A2.742,2.742,0,0,1,39.248,5.83V32.711a.744.744,0,1,0,1.488,0V5.83A4.232,4.232,0,0,0,36.51,1.6H4.727A4.232,4.232,0,0,0,.5,5.83V47.82a4.232,4.232,0,0,0,4.227,4.227H22.985a.744.744,0,0,0,0-1.488ZM11.322,10.515a.744.744,0,0,0,0-1.488H5.155a.744.744,0,0,0-.744.744V18.6a.744.744,0,0,0,.744.744h8.828a.744.744,0,0,0,.744-.744V13.248a.744.744,0,1,0-1.488,0v4.61H5.9V10.515Zm4.813-3.353a.744.744,0,0,0-1.046.116L9.42,14.356,7.9,11.928a.744.744,0,1,0-1.262.789l2.076,3.317a.744.744,0,0,0,.588.348h.043a.744.744,0,0,0,.581-.279l6.324-7.9a.744.744,0,0,0-.116-1.046ZM34.31,9.027H19.261a.744.744,0,0,0,0,1.488H34.31a.744.744,0,0,0,0-1.488Zm0,3.983H19.261a.744.744,0,0,0,0,1.488H34.31a.744.744,0,0,0,0-1.488Zm0,9.671H19.261a.744.744,0,0,0,0,1.488H34.31a.744.744,0,0,0,0-1.488Zm.744,4.727a.744.744,0,0,0-.744-.744H19.261a.744.744,0,0,0,0,1.488H34.31A.744.744,0,0,0,35.055,27.408ZM23.705,37.079a.744.744,0,0,0-.744-.744h-3.7a.744.744,0,0,0,0,1.488h3.7A.744.744,0,0,0,23.705,37.079Zm-4.444,3.239a.744.744,0,0,0,0,1.488h1.97a.744.744,0,0,0,0-1.488Zm35.288-7.234-3.364,1.941,1.533.886a.744.744,0,0,1,0,1.289l-3.272,1.889a.744.744,0,0,1-.744,0l-2.276-1.315L44.266,39.02a11.65,11.65,0,1,1-.746-1.288l2.161-1.248V33.859a.744.744,0,0,1,.372-.644l3.272-1.889a.744.744,0,0,1,1.116.644v1.767L53.805,31.8a.744.744,0,0,1,.744,1.289ZM42.975,39.765l-2.012,1.162a7.841,7.841,0,1,1-.746-1.288l2.012-1.162a10.076,10.076,0,1,0,.747,1.288Zm-9.889,3.991,2.45-1.414a2.485,2.485,0,1,0,.745,1.288L33.83,45.045a.744.744,0,1,1-.744-1.289Zm3.775-2.18,2.061-1.19a6.311,6.311,0,1,0,.746,1.288l-2.06,1.19a3.986,3.986,0,1,1-.746-1.288Zm14-5.021-1.526-.882,0,0,0,0-.018-.012a.742.742,0,0,1-.062-.041l-.023-.02c-.017-.014-.034-.028-.05-.044s-.019-.022-.029-.033-.024-.026-.035-.04a.759.759,0,0,1-.054-.081h0a.756.756,0,0,1-.039-.08l-.008-.021c-.009-.022-.016-.043-.022-.065l-.006-.021a.74.74,0,0,1-.017-.082v0a.732.732,0,0,1-.006-.091s0,0,0-.006V33.259l-1.784,1.03v2.2l1.9,1.1Z" transform="translate(814.328 2939.384)" fill="#53435c"/>
  </g>
</svg>
