<svg xmlns="http://www.w3.org/2000/svg" width="150" height="150" viewBox="0 0 150 150">
  <g id="Grupo_1177488" data-name="Grupo 1177488" transform="translate(-383.746 -8400)">
    <circle id="Elipse_13609" data-name="Elipse 13609" cx="75" cy="75" r="75" transform="translate(383.746 8400)" fill="#cfa9e6"/>
    <g id="Grupo_1183152" data-name="Grupo 1183152" transform="translate(417.157 8433.434)">
      <path id="Trazado_1008270" data-name="Trazado 1008270" d="M41.724,12.717,52.2,17.955a1.309,1.309,0,0,0,1.511-.245l8.24-8.24v2.077a1.309,1.309,0,1,0,2.619,0V6.309A1.309,1.309,0,0,0,63.259,5H58.021a1.309,1.309,0,0,0,0,2.619H60.1l-7.576,7.572-9.628-4.816a1.309,1.309,0,0,0-1.756.585h0a1.309,1.309,0,0,0,.585,1.757Z" transform="translate(12.373 1.547)" fill="#53435c"/>
      <path id="Trazado_1008271" data-name="Trazado 1008271" d="M22.928,30.875a4.975,4.975,0,0,0,3.544-1.469,1.309,1.309,0,1,0-1.852-1.852,2.448,2.448,0,0,1-3.386,0,1.309,1.309,0,1,0-1.852,1.852,4.975,4.975,0,0,0,3.545,1.469Z" transform="translate(5.568 8.405)" fill="#53435c"/>
      <path id="Trazado_1008272" data-name="Trazado 1008272" d="M19.428,21.309A1.309,1.309,0,0,0,18.119,20H16.809a1.309,1.309,0,0,0,0,2.619h1.309A1.309,1.309,0,0,0,19.428,21.309Z" transform="translate(4.485 6.187)" fill="#53435c"/>
      <path id="Trazado_1008273" data-name="Trazado 1008273" d="M26.809,22.619h1.309a1.309,1.309,0,0,0,0-2.619H26.809a1.309,1.309,0,0,0,0,2.619Z" transform="translate(7.579 6.187)" fill="#53435c"/>
      <path id="Trazado_1008274" data-name="Trazado 1008274" d="M44.243,47.775l-4.418-.829a5.188,5.188,0,0,0-2.3-2.991l-1.558-.931.773-.482A13.02,13.02,0,0,0,42.9,31.44v-.016h.655a4.583,4.583,0,0,0,4.583-4.583V14.4a9.176,9.176,0,0,0-9.165-9.165H38.3A14.479,14.479,0,0,0,27.187,0,18.35,18.35,0,0,0,8.856,18.331V35.352a3.928,3.928,0,0,0,3.928,3.928H16.7a13.141,13.141,0,0,0,3.548,3.262l.773.483-1.552.931a5.184,5.184,0,0,0-2.3,2.991l-4.418.829A14.4,14.4,0,0,0,1,61.932V82.488A1.309,1.309,0,0,0,2.309,83.8H54.683a1.309,1.309,0,0,0,1.309-1.309V61.931A14.4,14.4,0,0,0,44.243,47.775ZM36.175,46.2a2.619,2.619,0,0,1,.875,3.633L33.5,55.516l-2.943-2.938a11.558,11.558,0,0,0,4.321-7.159ZM28.5,54.225l2.151,2.151L29.587,58.92H27.405l-1.061-2.544ZM25.71,47.809a8.868,8.868,0,0,1-.981-2.706,10.109,10.109,0,0,0,7.534,0A8.85,8.85,0,0,1,28.5,50.824a8.871,8.871,0,0,1-2.786-3.019Zm17.844-19H42.9V24.877h.655a1.964,1.964,0,0,1,0,3.928ZM11.475,24.877a1.309,1.309,0,0,1,1.309-1.309h1.309v7.856H12.784a1.309,1.309,0,0,1-1.309-1.309Zm1.309,11.784a1.309,1.309,0,0,1-1.309-1.309V33.8a3.884,3.884,0,0,0,1.309.241h1.592a13.012,13.012,0,0,0,.813,2.619Zm1.528-15.712H12.784a3.884,3.884,0,0,0-1.309.241v-2.86A15.729,15.729,0,0,1,27.187,2.619a11.843,11.843,0,0,1,9.427,4.714,1.309,1.309,0,0,0,1.047.524h1.309A6.555,6.555,0,0,1,45.517,14.4v8.316a4.536,4.536,0,0,0-1.964-.46H42.9v-.674A9.106,9.106,0,0,0,40.213,15.1l-1.626-1.626a1.309,1.309,0,0,0-1.571-.211,38.5,38.5,0,0,1-19.077,5.065,3.839,3.839,0,0,0-3.627,2.619ZM20.263,39.28h1.686a1.309,1.309,0,0,0,0-2.619H18.108a10.435,10.435,0,0,1-1.4-5.222V22.177a1.228,1.228,0,0,1,1.227-1.228,41.131,41.131,0,0,0,19.495-4.923l.928.93h0a6.5,6.5,0,0,1,1.918,4.628V31.44a10.413,10.413,0,0,1-4.924,8.888l-2.714,1.7a7.948,7.948,0,0,1-8.291,0l-2.714-1.7A10.605,10.605,0,0,1,20.263,39.28Zm-.646,8.554a2.591,2.591,0,0,1,1.2-1.633l1.309-.786a11.558,11.558,0,0,0,4.321,7.159L23.5,55.516l-3.555-5.686a2.6,2.6,0,0,1-.325-2ZM11.475,81.179V69.395a1.309,1.309,0,0,0-2.619,0V81.179H3.619V61.931a11.784,11.784,0,0,1,9.612-11.581l3.849-.723a5.218,5.218,0,0,0,.642,1.6l4.427,7.082a1.309,1.309,0,0,0,2.036.232l.158-.158.841,2.02L22.127,81.179Zm13.3,0,2.888-19.64h1.665l2.888,19.64Zm28.6,0H48.136V69.395a1.309,1.309,0,1,0-2.619,0V81.179H34.865L31.809,60.4l.841-2.02.158.158a1.309,1.309,0,0,0,2.036-.232l4.427-7.082a5.251,5.251,0,0,0,.642-1.6l3.848.723a11.784,11.784,0,0,1,9.613,11.582Z" fill="#53435c"/>
      <path id="Trazado_1008275" data-name="Trazado 1008275" d="M69.733,38.568H68.424V16.309A1.309,1.309,0,0,0,67.115,15H61.877a1.309,1.309,0,0,0-1.309,1.309V38.568H57.949V28.093a1.309,1.309,0,0,0-1.309-1.309H51.4a1.309,1.309,0,0,0-1.309,1.309V38.568H47.475V20.237a1.309,1.309,0,0,0-1.309-1.309H40.928a1.309,1.309,0,0,0-1.309,1.309V38.568H38.309a1.309,1.309,0,0,0,0,2.619H69.733a1.309,1.309,0,0,0,0-2.619Zm-24.877,0H42.237V21.547h2.619Zm10.475,0H52.712V29.4h2.619Zm10.475,0H63.187V17.619h2.619Z" transform="translate(11.136 4.64)" fill="#53435c"/>
    </g>
  </g>
</svg>
