<svg xmlns="http://www.w3.org/2000/svg" width="96" height="96" viewBox="0 0 96 96">
  <g id="Grupo_154427" data-name="Grupo 154427" transform="translate(-794.039 -2920.081)">
    <path id="Elipse_5729" data-name="Elipse 5729" d="M48,0A48,48,0,1,1,0,48,48,48,0,0,1,48,0Z" transform="translate(794.039 2920.081)" fill="#ff984a"/>
    <g id="Grupo_1183194" data-name="Grupo 1183194" transform="translate(815.623 2918.927)">
      <path id="Trazado_1008481" data-name="Trazado 1008481" d="M48.962,25.354H14.6a.774.774,0,1,0,0,1.548H48.962a2.324,2.324,0,0,1,2.322,2.322v3.941H1.548V29.224A2.324,2.324,0,0,1,3.87,26.9h7.124a.774.774,0,0,0,0-1.548H3.87A3.874,3.874,0,0,0,0,29.224V70.116a2.841,2.841,0,0,0,2.838,2.838H39.8a.774.774,0,1,0,0-1.548H2.838a1.291,1.291,0,0,1-1.29-1.29v-35.4H51.284v35.4a1.291,1.291,0,0,1-1.29,1.29H43.512a.774.774,0,1,0,0,1.548h6.482a2.841,2.841,0,0,0,2.838-2.838V29.224a3.874,3.874,0,0,0-3.87-3.87Z" transform="translate(0 0)" fill="#53435c"/>
      <path id="Trazado_1008482" data-name="Trazado 1008482" d="M359.68,64.746a.774.774,0,1,0,0-1.548h-.935a.774.774,0,1,0,0,1.548Z" transform="translate(-321.033 -33.939)" fill="#53435c"/>
      <path id="Trazado_1008483" data-name="Trazado 1008483" d="M399.566,64.746a.774.774,0,0,0,0-1.548h-.935a.774.774,0,0,0,0,1.548Z" transform="translate(-356.803 -33.939)" fill="#53435c"/>
      <path id="Trazado_1008484" data-name="Trazado 1008484" d="M439.451,64.746a.774.774,0,1,0,0-1.548h-.935a.774.774,0,1,0,0,1.548Z" transform="translate(-392.573 -33.939)" fill="#53435c"/>
      <path id="Trazado_1008485" data-name="Trazado 1008485" d="M54.548,158.476h2.1a1.808,1.808,0,0,0,1.806-1.806V145a1.808,1.808,0,0,0-1.806-1.806h-2.1A1.808,1.808,0,0,0,52.742,145v11.667A1.808,1.808,0,0,0,54.548,158.476ZM54.29,145a.258.258,0,0,1,.258-.258h2.1A.258.258,0,0,1,56.9,145v11.667a.258.258,0,0,1-.258.258h-2.1a.258.258,0,0,1-.258-.258Z" transform="translate(-47.3 -105.684)" fill="#53435c"/>
      <path id="Trazado_1008486" data-name="Trazado 1008486" d="M135.783,186.382v-8.248a1.808,1.808,0,0,0-1.806-1.806h-2.1a1.808,1.808,0,0,0-1.806,1.806v8.248a1.808,1.808,0,0,0,1.806,1.806h2.1A1.808,1.808,0,0,0,135.783,186.382Zm-1.548,0a.258.258,0,0,1-.258.258h-2.1a.258.258,0,0,1-.258-.258v-8.248a.258.258,0,0,1,.258-.258h2.1a.258.258,0,0,1,.258.258Z" transform="translate(-116.652 -135.395)" fill="#53435c"/>
      <path id="Trazado_1008487" data-name="Trazado 1008487" d="M210.213,206.442h2.1a1.808,1.808,0,0,0,1.806-1.806v-6.148a1.808,1.808,0,0,0-1.806-1.806h-2.1a1.808,1.808,0,0,0-1.806,1.806v6.148A1.808,1.808,0,0,0,210.213,206.442Zm-.258-7.954a.258.258,0,0,1,.258-.258h2.1a.258.258,0,0,1,.258.258v6.148a.258.258,0,0,1-.258.258h-2.1a.258.258,0,0,1-.258-.258Z" transform="translate(-186.902 -153.649)" fill="#53435c"/>
      <path id="Trazado_1008488" data-name="Trazado 1008488" d="M310.705,159.282a6.845,6.845,0,0,0,6.8-6.072h1.069a1.319,1.319,0,0,0,1.316-1.411,9.013,9.013,0,0,0-8.247-8.346,1.319,1.319,0,0,0-1.427,1.3l-.01.858a6.845,6.845,0,0,0,.5,13.672Zm1.057-14.262a7.465,7.465,0,0,1,6.563,6.642h-6.642Zm-1.573,2.143-.056,4.713h0a1.318,1.318,0,0,0,1.318,1.333h4.5a5.3,5.3,0,1,1-5.758-6.047Z" transform="translate(-272.505 -105.909)" fill="#53435c"/>
      <path id="Trazado_1008489" data-name="Trazado 1008489" d="M65.667,327.118a1.808,1.808,0,0,0-1.806-1.806H54.548a1.808,1.808,0,0,0-1.806,1.806v1.84a1.808,1.808,0,0,0,1.806,1.806h9.313a1.808,1.808,0,0,0,1.806-1.806Zm-1.548,1.84a.258.258,0,0,1-.258.258H54.548a.258.258,0,0,1-.258-.258v-1.84a.258.258,0,0,1,.258-.258h9.313a.258.258,0,0,1,.258.258Z" transform="translate(-47.3 -269.006)" fill="#53435c"/>
      <path id="Trazado_1008490" data-name="Trazado 1008490" d="M64.893,395.263H53.516a.774.774,0,1,0,0,1.548H64.893a.774.774,0,1,0,0-1.548Z" transform="translate(-47.3 -331.739)" fill="#53435c"/>
      <path id="Trazado_1008491" data-name="Trazado 1008491" d="M64.893,425.107H53.516a.774.774,0,0,0,0,1.548H64.893a.774.774,0,0,0,0-1.548Z" transform="translate(-47.3 -358.504)" fill="#53435c"/>
      <path id="Trazado_1008492" data-name="Trazado 1008492" d="M206.3,327.118a1.808,1.808,0,0,0-1.806-1.806h-9.313a1.808,1.808,0,0,0-1.806,1.806v1.84a1.808,1.808,0,0,0,1.806,1.806h9.313a1.808,1.808,0,0,0,1.806-1.806Zm-1.548,1.84a.258.258,0,0,1-.258.258h-9.313a.258.258,0,0,1-.258-.258v-1.84a.258.258,0,0,1,.258-.258h9.313a.258.258,0,0,1,.258.258Z" transform="translate(-173.418 -269.006)" fill="#53435c"/>
      <path id="Trazado_1008493" data-name="Trazado 1008493" d="M205.522,395.263H194.145a.774.774,0,0,0,0,1.548h11.377a.774.774,0,1,0,0-1.548Z" transform="translate(-173.418 -331.739)" fill="#53435c"/>
      <path id="Trazado_1008494" data-name="Trazado 1008494" d="M205.522,425.107H194.145a.774.774,0,0,0,0,1.548h11.377a.774.774,0,1,0,0-1.548Z" transform="translate(-173.418 -358.504)" fill="#53435c"/>
      <path id="Trazado_1008495" data-name="Trazado 1008495" d="M346.926,327.118a1.808,1.808,0,0,0-1.806-1.806h-9.313A1.808,1.808,0,0,0,334,327.118v1.84a1.808,1.808,0,0,0,1.806,1.806h9.313a1.808,1.808,0,0,0,1.806-1.806Zm-1.548,1.84a.258.258,0,0,1-.258.258h-9.313a.258.258,0,0,1-.258-.258v-1.84a.258.258,0,0,1,.258-.258h9.313a.258.258,0,0,1,.258.258Z" transform="translate(-299.536 -269.006)" fill="#53435c"/>
      <path id="Trazado_1008496" data-name="Trazado 1008496" d="M334.775,395.263a.774.774,0,1,0,0,1.548h11.377a.774.774,0,1,0,0-1.548Z" transform="translate(-299.536 -331.739)" fill="#53435c"/>
      <path id="Trazado_1008497" data-name="Trazado 1008497" d="M334.775,426.655h11.377a.774.774,0,0,0,0-1.548H334.775a.774.774,0,0,0,0,1.548Z" transform="translate(-299.536 -358.504)" fill="#53435c"/>
    </g>
  </g>
</svg>
