<svg xmlns="http://www.w3.org/2000/svg" width="98" height="98" viewBox="0 0 98 98">
  <g id="Grupo_1177475" data-name="Grupo 1177475" transform="translate(-280.609 -11611.898)">
    <g id="Grupo_1177473" data-name="Grupo 1177473" transform="translate(280.609 11611.898)">
      <ellipse id="Elipse_13609" data-name="Elipse 13609" cx="49" cy="49" rx="49" ry="49" transform="translate(0)" fill="#fff"/>
      <g id="Grupo_1183145" data-name="Grupo 1183145" transform="translate(18.282 19.015)">
        <path id="Trazado_1008202" data-name="Trazado 1008202" d="M59.492,22.229l-7.2-7.2a3.8,3.8,0,1,0-5.378,5.378l.861.861A23.463,23.463,0,0,0,34.521,27.34V12.979l.711.711A3.8,3.8,0,1,0,40.61,8.31l-7.2-7.2a3.821,3.821,0,0,0-5.391,0L20.835,8.3a3.68,3.68,0,0,0-.809,4.136,3.691,3.691,0,0,0,3.5,2.367A3.783,3.783,0,0,0,26.2,13.689l.71-.711v3.627a.878.878,0,1,0,1.757,0V10.857a.878.878,0,0,0-1.5-.621l-2.209,2.211a2.036,2.036,0,0,1-1.448.6h-.031a1.943,1.943,0,0,1-1.835-1.283,1.928,1.928,0,0,1,.4-2.189l.022-.021,7.2-7.2.012-.012a2.066,2.066,0,0,1,2.871,0l.012.012,7.2,7.2a2.046,2.046,0,0,1-2.893,2.895l-2.21-2.211a.878.878,0,0,0-1.5.621V35.716a23.473,23.473,0,0,0-4.092-6.578V20.719a.878.878,0,1,0-1.757,0v6.622a23.364,23.364,0,0,0-13.257-6.07l.861-.861A3.8,3.8,0,0,0,9.14,15.031l-7.2,7.2a3.82,3.82,0,0,0,0,5.39l7.2,7.2.011.01a3.7,3.7,0,0,0,5.338-.04,3.7,3.7,0,0,0,.04-5.338l-.011-.011-.4-.4a15.951,15.951,0,0,1,12.8,15.61V56.167a3.8,3.8,0,0,0,7.606,0V44.646a15.951,15.951,0,0,1,12.8-15.612l-.4.4-.011.011a3.8,3.8,0,0,0,5.378,5.378.878.878,0,1,0-1.221-1.263,2.046,2.046,0,0,1-2.9-2.889l2.189-2.189a.878.878,0,0,0-.658-1.5A17.738,17.738,0,0,0,34.52,36.962V29.817a21.706,21.706,0,0,1,15.265-6.928.878.878,0,0,0,.6-1.5l-2.222-2.222a2.046,2.046,0,0,1,2.894-2.894l7.2,7.2.013.012a2.063,2.063,0,0,1,0,2.869l-.013.012-4.291,4.291A.878.878,0,0,0,55.207,31.9l4.285-4.285a3.819,3.819,0,0,0,0-5.39ZM11.74,26.987H11.7a.878.878,0,0,0-.621,1.5l2.189,2.189a1.949,1.949,0,0,1-.024,2.87,1.949,1.949,0,0,1-2.87.024l-7.2-7.2-.012-.012a2.065,2.065,0,0,1,0-2.87l.012-.012,7.2-7.2a2.046,2.046,0,0,1,2.894,2.894l-2.222,2.222a.878.878,0,0,0,.6,1.5A21.8,21.8,0,0,1,32.764,44.646V56.167a2.046,2.046,0,1,1-4.092,0V44.646A17.7,17.7,0,0,0,11.74,26.987Z" transform="translate(0 0)" fill="#53435c"/>
        <path id="Trazado_1008203" data-name="Trazado 1008203" d="M62.888,360.854a5.719,5.719,0,1,0,5.719,5.719A5.725,5.725,0,0,0,62.888,360.854Zm0,9.681a3.962,3.962,0,1,1,3.962-3.962A3.966,3.966,0,0,1,62.888,370.535Z" transform="translate(-49.74 -318.588)" fill="#53435c"/>
        <path id="Trazado_1008204" data-name="Trazado 1008204" d="M89.465,397.663l-1.351,1.158-.5-.5a.878.878,0,1,0-1.242,1.242l1.071,1.071a.878.878,0,0,0,1.193.046L90.608,399a.879.879,0,0,0-1.144-1.334Z" transform="translate(-75.299 -350.898)" fill="#53435c"/>
        <path id="Trazado_1008205" data-name="Trazado 1008205" d="M362.9,360.854a5.719,5.719,0,1,0,5.719,5.719A5.725,5.725,0,0,0,362.9,360.854Zm0,9.681a3.962,3.962,0,1,1,3.962-3.962A3.966,3.966,0,0,1,362.9,370.535Z" transform="translate(-314.614 -318.588)" fill="#53435c"/>
        <path id="Trazado_1008206" data-name="Trazado 1008206" d="M392.567,392.721a.878.878,0,0,0-1.242,0l-.517.517-.517-.517a.878.878,0,0,0-1.242,1.242l.517.517-.517.517a.878.878,0,0,0,1.242,1.242l.517-.517.517.517A.878.878,0,0,0,392.567,395l-.517-.517.517-.517A.879.879,0,0,0,392.567,392.721Z" transform="translate(-342.52 -346.495)" fill="#53435c"/>
      </g>
    </g>
  </g>
</svg>
