<svg xmlns="http://www.w3.org/2000/svg" width="128" height="128" viewBox="0 0 128 128">
  <g id="Grupo_1182476" data-name="Grupo 1182476" transform="translate(-383.746 -8400.451)">
    <path id="Trazado_997401" data-name="Trazado 997401" d="M64,0A64,64,0,1,1,0,64,64,64,0,0,1,64,0Z" transform="translate(383.746 8400.451)" fill="#cfa9e6"/>
    <g id="Grupo_1183278" data-name="Grupo 1183278" transform="translate(413.324 8429.071)">
      <path id="Trazado_1008762" data-name="Trazado 1008762" d="M67.141,54.57h-1.7V30.631a1.791,1.791,0,0,0-1.789-1.789H61.98V2.644A1.718,1.718,0,0,0,60.264.927H20.889a1,1,0,0,0,0,2.006H59.974V9.608H2.006V2.933h14.3a1,1,0,1,0,0-2.006H1.716A1.718,1.718,0,0,0,0,2.644V67.692a1.718,1.718,0,0,0,1.716,1.717H60.264a1.718,1.718,0,0,0,1.716-1.717V61.2h5.161a1.591,1.591,0,0,0,1.59-1.59V56.16A1.592,1.592,0,0,0,67.141,54.57ZM59.974,67.4H2.006V11.614H59.974V28.841H56.533a1.791,1.791,0,0,0-1.789,1.789v5.85a1,1,0,1,0,2.006,0V30.847h6.681V54.57H56.75V41.4a1,1,0,0,0-2.006,0V54.57H50.987V43.726A1.791,1.791,0,0,0,49.2,41.937H42.084a1.791,1.791,0,0,0-1.789,1.789V54.57H36.538V35.036a1.791,1.791,0,0,0-1.789-1.789H27.634a1.791,1.791,0,0,0-1.789,1.789V54.57H22.088V38.705A1.791,1.791,0,0,0,20.3,36.916H13.185A1.791,1.791,0,0,0,11.4,38.705V54.57h-1.7A1.592,1.592,0,0,0,8.1,56.16v3.45a1.591,1.591,0,0,0,1.59,1.59H59.975v6.2ZM48.982,43.943V54.57H42.3V43.943Zm-14.45-8.69V54.57H27.851V35.253ZM20.083,38.922V54.57H13.4V38.922ZM66.725,59.194H10.108V56.576H66.725Z" transform="translate(0)" fill="#53435c"/>
      <path id="Trazado_1008763" data-name="Trazado 1008763" d="M149.825,141.026l9.623-4.706,10.428,5.206a1,1,0,0,0,1.121-.153l11.871-10.737-.524,3.1a1,1,0,1,0,1.978.334l1.04-6.153a1,1,0,0,0-1.09-1.165l-6.209.628a1,1,0,1,0,.2,2l3.387-.342-11.492,10.4L159.9,134.3a1,1,0,0,0-.889,0l-10.069,4.924a1,1,0,0,0,.881,1.8Z" transform="translate(-128.463 -108.927)" fill="#53435c"/>
    </g>
  </g>
</svg>
