<svg xmlns="http://www.w3.org/2000/svg" width="96" height="96" viewBox="0 0 96 96">
  <g id="Grupo_154427" data-name="Grupo 154427" transform="translate(-794.039 -2920.08)">
    <path id="Elipse_5729" data-name="Elipse 5729" d="M48,0A48,48,0,1,1,0,48,48,48,0,0,1,48,0Z" transform="translate(794.039 2920.081)" fill="#ff984a"/>
    <g id="Grupo_1183196" data-name="Grupo 1183196" transform="translate(818.453 2941.092)">
      <path id="Trazado_1008507" data-name="Trazado 1008507" d="M46.275,31.945a24.7,24.7,0,0,0-6.338-4.868V8.422a3.455,3.455,0,0,0-3.451-3.451H34.772V4.6a4.605,4.605,0,0,0-4.6-4.6H4.6A4.605,4.605,0,0,0,0,4.6V43.206a4.6,4.6,0,0,0,4.6,4.6H6.928c.091.1.174.183.256.261l0,0h0l4.243,4.074c.059.057.122.114.192.176l.1.085,0,0h0c.017.014.035.028.053.041s.02.019.031.028c.079.065.161.13.244.191h0l.038.026c.011.009.021.018.032.026.107.077.215.152.324.221l.033.018.021.015c.093.058.19.115.289.17l.044.021c.014.008.026.017.04.024.122.066.234.122.341.172h0l0,0c.118.054.24.106.374.158l.039.013.027.012h0q.1.036.191.069l.135.044.03.008.03.011.005,0c.135.042.264.077.39.107l.033.007a6.566,6.566,0,0,0,1.5.175H36.487a3.454,3.454,0,0,0,3.451-3.451v-9.12a24.7,24.7,0,0,0,6.338-4.868,3.389,3.389,0,0,0,0-4.592ZM13.638,51.2l-.02-.012-.026-.014-.011-.008c-.073-.047-.147-.1-.22-.15L13.341,51l-.026-.022c-.057-.043-.113-.086-.168-.132l-.033-.024c-.008-.007-.015-.015-.024-.022l-.083-.072c-.043-.038-.082-.073-.117-.107h0L8.646,46.549h0c-.058-.056-.12-.12-.191-.2l-.023-.022c-.01-.012-.019-.024-.029-.036q-.07-.079-.136-.161l-.019-.021-.023-.03h0l0,0c-.06-.077-.116-.156-.17-.236H13a.642.642,0,0,1,.641.641Zm24.191-.676a1.344,1.344,0,0,1-1.342,1.342H15.98q-.117,0-.233-.006V46.482A2.753,2.753,0,0,0,13,43.732h-5.7s0-.01,0-.015c0-.043-.006-.086-.009-.129,0-.022,0-.043,0-.065,0-.064,0-.129,0-.193V37.319a1.054,1.054,0,1,0-2.108,0v6.012c0,.084,0,.168.005.253,0,.027,0,.054,0,.081,0,.058.007.116.011.173,0,.031.005.061.008.092,0,.055.011.11.017.165,0,.03.007.061.011.091.007.058.016.115.026.173,0,.026.008.052.012.078q.02.117.044.234s0,.009,0,.014q.027.125.058.249c.006.023.013.047.019.07.011.043.022.086.035.129,0,.014.009.028.013.042.012.04.024.079.036.118s.018.061.028.092v0h0l.023.068c0,.006,0,.013.007.019h0l.006.016c.014.041.029.081.044.121s.02.056.031.084H4.6a2.494,2.494,0,0,1-2.491-2.491V4.6A2.494,2.494,0,0,1,4.6,2.108H30.172A2.494,2.494,0,0,1,32.663,4.6v.372H8.617A3.455,3.455,0,0,0,5.166,8.422V28.885a1.054,1.054,0,1,0,2.108,0V8.422A1.344,1.344,0,0,1,8.617,7.08h27.87a1.344,1.344,0,0,1,1.342,1.342V26.087q-.89-.363-1.8-.649l-.107-.033-.293-.088-.258-.074-.262-.072q-.2-.054-.4-.1l-.126-.031a21.894,21.894,0,0,0-6.869-.54l-.11.009q-.187.016-.374.035l-.21.021-.228.027q-.272.033-.543.072l-.057.008a22.3,22.3,0,0,0-5.538,1.579l-.08.034q-.177.077-.354.157l-.108.05q-.511.235-1.013.5l-.2.107-.243.132-.237.132-.218.124c-.1.059-.2.119-.3.179l-.152.09q-.221.135-.439.275l-.15.1q-.157.1-.312.206l-.158.107q-.161.111-.321.224l-.128.091q-.223.161-.444.326l-.028.022q-.206.155-.409.316l-.125.1q-.159.127-.317.257l-.129.107c-.117.1-.232.2-.347.3l-.079.068q-.211.185-.418.375l-.094.087q-.159.148-.317.3l-.131.127q-.145.141-.288.284l-.121.121q-.2.2-.394.407a3.388,3.388,0,0,0,0,4.592c.13.138.261.273.394.407l.121.121c.1.1.191.19.288.284l.131.127q.158.151.318.3l.093.087q.208.191.419.376l.077.067q.173.151.348.3l.128.107q.158.131.318.259l.124.1q.205.162.413.319l.024.019q.221.167.446.327l.125.089q.162.114.325.226l.155.105q.158.106.316.209l.146.1q.22.14.442.276l.145.086q.154.093.309.183l.214.122.243.135.238.129.212.111q.5.259,1,.492l.116.054q.174.079.349.155l.086.037a22.263,22.263,0,0,0,5.535,1.577l.057.009q.268.039.538.072l.233.028.208.021q.188.019.377.035l.107.009a21.893,21.893,0,0,0,6.877-.542l.113-.027q.215-.053.43-.11l.219-.06.29-.082.279-.084.13-.041q.906-.284,1.788-.644v8.131ZM16.7,37.447c-.091-.071-.18-.143-.27-.215l-.121-.1c-.079-.065-.158-.13-.237-.2l-.164-.14c-.069-.059-.138-.117-.206-.177q-.171-.151-.34-.3l-.145-.135c-.079-.073-.157-.147-.235-.221l-.141-.136q-.124-.12-.247-.243l-.119-.119c-.12-.122-.24-.245-.358-.37A.99.99,0,0,1,14.046,35a1.269,1.269,0,0,1-.241-.761,1.239,1.239,0,0,1,.314-.848q.179-.189.361-.373l.109-.11q.128-.128.257-.254l.133-.128c.082-.078.164-.155.246-.231l.135-.126q.174-.159.349-.313c.063-.055.126-.109.189-.163l.177-.151c.076-.064.153-.127.23-.191l.129-.105c.088-.071.175-.141.264-.21l.041-.032a21.563,21.563,0,0,1,5.09-2.962,9.791,9.791,0,0,0,0,12.395,21.574,21.574,0,0,1-5.1-2.968l-.03-.024Zm12.729,4.5a7.7,7.7,0,1,1,7.7-7.7A7.712,7.712,0,0,1,29.431,41.944Zm15.311-6.855a22.442,22.442,0,0,1-6.382,4.753q-.66.326-1.331.6a9.791,9.791,0,0,0,0-12.4c.331.136.661.28.989.434l.014.007c.107.051.215.1.322.156a22.449,22.449,0,0,1,6.389,4.757,1.3,1.3,0,0,1,0,1.7Zm0,0" transform="translate(0 0)" fill="#53435c"/>
      <path id="Trazado_1008508" data-name="Trazado 1008508" d="M233.845,274.141a5.341,5.341,0,1,0,5.341,5.341A5.347,5.347,0,0,0,233.845,274.141Zm0,8.574a3.233,3.233,0,1,1,3.233-3.233A3.236,3.236,0,0,1,233.845,282.715Zm0,0" transform="translate(-204.414 -245.241)" fill="#53435c"/>
      <path id="Trazado_1008509" data-name="Trazado 1008509" d="M109.163,106.108h18.554a1.054,1.054,0,1,0,0-2.108H109.163a1.054,1.054,0,1,0,0,2.108Zm0,0" transform="translate(-96.712 -93.036)" fill="#53435c"/>
      <path id="Trazado_1008510" data-name="Trazado 1008510" d="M109.163,161.108h13.415a1.054,1.054,0,1,0,0-2.108H109.163a1.054,1.054,0,1,0,0,2.108Zm0,0" transform="translate(-96.712 -142.238)" fill="#53435c"/>
      <path id="Trazado_1008511" data-name="Trazado 1008511" d="M109.163,216.108H114.9a1.054,1.054,0,1,0,0-2.108h-5.738a1.054,1.054,0,1,0,0,2.108Zm0,0" transform="translate(-96.712 -191.44)" fill="#53435c"/>
      <path id="Trazado_1008512" data-name="Trazado 1008512" d="M51.024,304.657a1.068,1.068,0,0,0-.1-.182,1.033,1.033,0,0,0-.132-.16,1.082,1.082,0,0,0-.161-.132,1.121,1.121,0,0,0-.181-.1,1,1,0,0,0-.2-.06,1.063,1.063,0,0,0-.952.288,1,1,0,0,0-.131.16,1.069,1.069,0,0,0-.1.182,1.1,1.1,0,0,0-.06.2,1.067,1.067,0,0,0-.021.207,1.048,1.048,0,0,0,.021.206,1.077,1.077,0,0,0,.157.38,1.018,1.018,0,0,0,.131.16,1.085,1.085,0,0,0,.16.132,1.129,1.129,0,0,0,.182.1,1.1,1.1,0,0,0,.2.06,1.022,1.022,0,0,0,.412,0,1.079,1.079,0,0,0,.2-.06,1.169,1.169,0,0,0,.181-.1,1.11,1.11,0,0,0,.161-.132,1.047,1.047,0,0,0,.132-.16,1.077,1.077,0,0,0,.157-.38,1.048,1.048,0,0,0,.021-.206,1.067,1.067,0,0,0-.021-.207,1.1,1.1,0,0,0-.06-.2Zm0,0" transform="translate(-43.831 -271.958)" fill="#53435c"/>
    </g>
  </g>
</svg>
